%
M48
M72
T01C0.0236
T02C0.0354
T03C0.0400
T04C0.1260
T05C0.1280
%
T01
X9250Y4064
X12100Y5314
X13500Y6864
X15650Y6264
X15200Y4514
X13550Y8764
X13350Y10114
X13300Y11464
X11650Y13164
X10000Y15114
X6500Y13714
X4150Y11564
X14250Y14964
X15850Y9914
T02
X17200Y9464
X18200Y9964
X18200Y10964
X17200Y10464
X17200Y11464
X18200Y11964
T03
X18350Y16814
X17350Y16814
X7350Y16964
X6350Y16964
X5350Y16964
X1500Y12564
X1500Y11564
X1500Y10564
X1500Y9564
X1500Y8564
T04
X2350Y5114
X2300Y16064
X20800Y16064
X20800Y5064
T05
X20700Y8714
X20700Y12714
M30
