G75*
%MOIN*%
%OFA0B0*%
%FSLAX24Y24*%
%IPPOS*%
%LPD*%
%AMOC8*
5,1,8,0,0,1.08239X$1,22.5*
%
%ADD10C,0.0000*%
%ADD11C,0.0004*%
D10*
X000300Y003064D02*
X000300Y018064D01*
X022800Y018064D01*
X022800Y003064D01*
X000300Y003064D01*
X001720Y005114D02*
X001722Y005164D01*
X001728Y005214D01*
X001738Y005263D01*
X001752Y005311D01*
X001769Y005358D01*
X001790Y005403D01*
X001815Y005447D01*
X001843Y005488D01*
X001875Y005527D01*
X001909Y005564D01*
X001946Y005598D01*
X001986Y005628D01*
X002028Y005655D01*
X002072Y005679D01*
X002118Y005700D01*
X002165Y005716D01*
X002213Y005729D01*
X002263Y005738D01*
X002312Y005743D01*
X002363Y005744D01*
X002413Y005741D01*
X002462Y005734D01*
X002511Y005723D01*
X002559Y005708D01*
X002605Y005690D01*
X002650Y005668D01*
X002693Y005642D01*
X002734Y005613D01*
X002773Y005581D01*
X002809Y005546D01*
X002841Y005508D01*
X002871Y005468D01*
X002898Y005425D01*
X002921Y005381D01*
X002940Y005335D01*
X002956Y005287D01*
X002968Y005238D01*
X002976Y005189D01*
X002980Y005139D01*
X002980Y005089D01*
X002976Y005039D01*
X002968Y004990D01*
X002956Y004941D01*
X002940Y004893D01*
X002921Y004847D01*
X002898Y004803D01*
X002871Y004760D01*
X002841Y004720D01*
X002809Y004682D01*
X002773Y004647D01*
X002734Y004615D01*
X002693Y004586D01*
X002650Y004560D01*
X002605Y004538D01*
X002559Y004520D01*
X002511Y004505D01*
X002462Y004494D01*
X002413Y004487D01*
X002363Y004484D01*
X002312Y004485D01*
X002263Y004490D01*
X002213Y004499D01*
X002165Y004512D01*
X002118Y004528D01*
X002072Y004549D01*
X002028Y004573D01*
X001986Y004600D01*
X001946Y004630D01*
X001909Y004664D01*
X001875Y004701D01*
X001843Y004740D01*
X001815Y004781D01*
X001790Y004825D01*
X001769Y004870D01*
X001752Y004917D01*
X001738Y004965D01*
X001728Y005014D01*
X001722Y005064D01*
X001720Y005114D01*
X001670Y016064D02*
X001672Y016114D01*
X001678Y016164D01*
X001688Y016213D01*
X001702Y016261D01*
X001719Y016308D01*
X001740Y016353D01*
X001765Y016397D01*
X001793Y016438D01*
X001825Y016477D01*
X001859Y016514D01*
X001896Y016548D01*
X001936Y016578D01*
X001978Y016605D01*
X002022Y016629D01*
X002068Y016650D01*
X002115Y016666D01*
X002163Y016679D01*
X002213Y016688D01*
X002262Y016693D01*
X002313Y016694D01*
X002363Y016691D01*
X002412Y016684D01*
X002461Y016673D01*
X002509Y016658D01*
X002555Y016640D01*
X002600Y016618D01*
X002643Y016592D01*
X002684Y016563D01*
X002723Y016531D01*
X002759Y016496D01*
X002791Y016458D01*
X002821Y016418D01*
X002848Y016375D01*
X002871Y016331D01*
X002890Y016285D01*
X002906Y016237D01*
X002918Y016188D01*
X002926Y016139D01*
X002930Y016089D01*
X002930Y016039D01*
X002926Y015989D01*
X002918Y015940D01*
X002906Y015891D01*
X002890Y015843D01*
X002871Y015797D01*
X002848Y015753D01*
X002821Y015710D01*
X002791Y015670D01*
X002759Y015632D01*
X002723Y015597D01*
X002684Y015565D01*
X002643Y015536D01*
X002600Y015510D01*
X002555Y015488D01*
X002509Y015470D01*
X002461Y015455D01*
X002412Y015444D01*
X002363Y015437D01*
X002313Y015434D01*
X002262Y015435D01*
X002213Y015440D01*
X002163Y015449D01*
X002115Y015462D01*
X002068Y015478D01*
X002022Y015499D01*
X001978Y015523D01*
X001936Y015550D01*
X001896Y015580D01*
X001859Y015614D01*
X001825Y015651D01*
X001793Y015690D01*
X001765Y015731D01*
X001740Y015775D01*
X001719Y015820D01*
X001702Y015867D01*
X001688Y015915D01*
X001678Y015964D01*
X001672Y016014D01*
X001670Y016064D01*
X020060Y012714D02*
X020062Y012764D01*
X020068Y012814D01*
X020078Y012863D01*
X020091Y012912D01*
X020109Y012959D01*
X020130Y013005D01*
X020154Y013048D01*
X020182Y013090D01*
X020213Y013130D01*
X020247Y013167D01*
X020284Y013201D01*
X020324Y013232D01*
X020366Y013260D01*
X020409Y013284D01*
X020455Y013305D01*
X020502Y013323D01*
X020551Y013336D01*
X020600Y013346D01*
X020650Y013352D01*
X020700Y013354D01*
X020750Y013352D01*
X020800Y013346D01*
X020849Y013336D01*
X020898Y013323D01*
X020945Y013305D01*
X020991Y013284D01*
X021034Y013260D01*
X021076Y013232D01*
X021116Y013201D01*
X021153Y013167D01*
X021187Y013130D01*
X021218Y013090D01*
X021246Y013048D01*
X021270Y013005D01*
X021291Y012959D01*
X021309Y012912D01*
X021322Y012863D01*
X021332Y012814D01*
X021338Y012764D01*
X021340Y012714D01*
X021338Y012664D01*
X021332Y012614D01*
X021322Y012565D01*
X021309Y012516D01*
X021291Y012469D01*
X021270Y012423D01*
X021246Y012380D01*
X021218Y012338D01*
X021187Y012298D01*
X021153Y012261D01*
X021116Y012227D01*
X021076Y012196D01*
X021034Y012168D01*
X020991Y012144D01*
X020945Y012123D01*
X020898Y012105D01*
X020849Y012092D01*
X020800Y012082D01*
X020750Y012076D01*
X020700Y012074D01*
X020650Y012076D01*
X020600Y012082D01*
X020551Y012092D01*
X020502Y012105D01*
X020455Y012123D01*
X020409Y012144D01*
X020366Y012168D01*
X020324Y012196D01*
X020284Y012227D01*
X020247Y012261D01*
X020213Y012298D01*
X020182Y012338D01*
X020154Y012380D01*
X020130Y012423D01*
X020109Y012469D01*
X020091Y012516D01*
X020078Y012565D01*
X020068Y012614D01*
X020062Y012664D01*
X020060Y012714D01*
X020170Y016064D02*
X020172Y016114D01*
X020178Y016164D01*
X020188Y016213D01*
X020202Y016261D01*
X020219Y016308D01*
X020240Y016353D01*
X020265Y016397D01*
X020293Y016438D01*
X020325Y016477D01*
X020359Y016514D01*
X020396Y016548D01*
X020436Y016578D01*
X020478Y016605D01*
X020522Y016629D01*
X020568Y016650D01*
X020615Y016666D01*
X020663Y016679D01*
X020713Y016688D01*
X020762Y016693D01*
X020813Y016694D01*
X020863Y016691D01*
X020912Y016684D01*
X020961Y016673D01*
X021009Y016658D01*
X021055Y016640D01*
X021100Y016618D01*
X021143Y016592D01*
X021184Y016563D01*
X021223Y016531D01*
X021259Y016496D01*
X021291Y016458D01*
X021321Y016418D01*
X021348Y016375D01*
X021371Y016331D01*
X021390Y016285D01*
X021406Y016237D01*
X021418Y016188D01*
X021426Y016139D01*
X021430Y016089D01*
X021430Y016039D01*
X021426Y015989D01*
X021418Y015940D01*
X021406Y015891D01*
X021390Y015843D01*
X021371Y015797D01*
X021348Y015753D01*
X021321Y015710D01*
X021291Y015670D01*
X021259Y015632D01*
X021223Y015597D01*
X021184Y015565D01*
X021143Y015536D01*
X021100Y015510D01*
X021055Y015488D01*
X021009Y015470D01*
X020961Y015455D01*
X020912Y015444D01*
X020863Y015437D01*
X020813Y015434D01*
X020762Y015435D01*
X020713Y015440D01*
X020663Y015449D01*
X020615Y015462D01*
X020568Y015478D01*
X020522Y015499D01*
X020478Y015523D01*
X020436Y015550D01*
X020396Y015580D01*
X020359Y015614D01*
X020325Y015651D01*
X020293Y015690D01*
X020265Y015731D01*
X020240Y015775D01*
X020219Y015820D01*
X020202Y015867D01*
X020188Y015915D01*
X020178Y015964D01*
X020172Y016014D01*
X020170Y016064D01*
X020060Y008714D02*
X020062Y008764D01*
X020068Y008814D01*
X020078Y008863D01*
X020091Y008912D01*
X020109Y008959D01*
X020130Y009005D01*
X020154Y009048D01*
X020182Y009090D01*
X020213Y009130D01*
X020247Y009167D01*
X020284Y009201D01*
X020324Y009232D01*
X020366Y009260D01*
X020409Y009284D01*
X020455Y009305D01*
X020502Y009323D01*
X020551Y009336D01*
X020600Y009346D01*
X020650Y009352D01*
X020700Y009354D01*
X020750Y009352D01*
X020800Y009346D01*
X020849Y009336D01*
X020898Y009323D01*
X020945Y009305D01*
X020991Y009284D01*
X021034Y009260D01*
X021076Y009232D01*
X021116Y009201D01*
X021153Y009167D01*
X021187Y009130D01*
X021218Y009090D01*
X021246Y009048D01*
X021270Y009005D01*
X021291Y008959D01*
X021309Y008912D01*
X021322Y008863D01*
X021332Y008814D01*
X021338Y008764D01*
X021340Y008714D01*
X021338Y008664D01*
X021332Y008614D01*
X021322Y008565D01*
X021309Y008516D01*
X021291Y008469D01*
X021270Y008423D01*
X021246Y008380D01*
X021218Y008338D01*
X021187Y008298D01*
X021153Y008261D01*
X021116Y008227D01*
X021076Y008196D01*
X021034Y008168D01*
X020991Y008144D01*
X020945Y008123D01*
X020898Y008105D01*
X020849Y008092D01*
X020800Y008082D01*
X020750Y008076D01*
X020700Y008074D01*
X020650Y008076D01*
X020600Y008082D01*
X020551Y008092D01*
X020502Y008105D01*
X020455Y008123D01*
X020409Y008144D01*
X020366Y008168D01*
X020324Y008196D01*
X020284Y008227D01*
X020247Y008261D01*
X020213Y008298D01*
X020182Y008338D01*
X020154Y008380D01*
X020130Y008423D01*
X020109Y008469D01*
X020091Y008516D01*
X020078Y008565D01*
X020068Y008614D01*
X020062Y008664D01*
X020060Y008714D01*
X020170Y005064D02*
X020172Y005114D01*
X020178Y005164D01*
X020188Y005213D01*
X020202Y005261D01*
X020219Y005308D01*
X020240Y005353D01*
X020265Y005397D01*
X020293Y005438D01*
X020325Y005477D01*
X020359Y005514D01*
X020396Y005548D01*
X020436Y005578D01*
X020478Y005605D01*
X020522Y005629D01*
X020568Y005650D01*
X020615Y005666D01*
X020663Y005679D01*
X020713Y005688D01*
X020762Y005693D01*
X020813Y005694D01*
X020863Y005691D01*
X020912Y005684D01*
X020961Y005673D01*
X021009Y005658D01*
X021055Y005640D01*
X021100Y005618D01*
X021143Y005592D01*
X021184Y005563D01*
X021223Y005531D01*
X021259Y005496D01*
X021291Y005458D01*
X021321Y005418D01*
X021348Y005375D01*
X021371Y005331D01*
X021390Y005285D01*
X021406Y005237D01*
X021418Y005188D01*
X021426Y005139D01*
X021430Y005089D01*
X021430Y005039D01*
X021426Y004989D01*
X021418Y004940D01*
X021406Y004891D01*
X021390Y004843D01*
X021371Y004797D01*
X021348Y004753D01*
X021321Y004710D01*
X021291Y004670D01*
X021259Y004632D01*
X021223Y004597D01*
X021184Y004565D01*
X021143Y004536D01*
X021100Y004510D01*
X021055Y004488D01*
X021009Y004470D01*
X020961Y004455D01*
X020912Y004444D01*
X020863Y004437D01*
X020813Y004434D01*
X020762Y004435D01*
X020713Y004440D01*
X020663Y004449D01*
X020615Y004462D01*
X020568Y004478D01*
X020522Y004499D01*
X020478Y004523D01*
X020436Y004550D01*
X020396Y004580D01*
X020359Y004614D01*
X020325Y004651D01*
X020293Y004690D01*
X020265Y004731D01*
X020240Y004775D01*
X020219Y004820D01*
X020202Y004867D01*
X020188Y004915D01*
X020178Y004964D01*
X020172Y005014D01*
X020170Y005064D01*
D11*
X022869Y007639D02*
X022869Y013789D01*
M02*
