G75*
%MOIN*%
%OFA0B0*%
%FSLAX24Y24*%
%IPPOS*%
%LPD*%
%AMOC8*
5,1,8,0,0,1.08239X$1,22.5*
%
%ADD10C,0.0000*%
%ADD11R,0.0470X0.0010*%
%ADD12R,0.0560X0.0010*%
%ADD13R,0.0570X0.0010*%
%ADD14R,0.0580X0.0010*%
%ADD15R,0.0300X0.0010*%
%ADD16R,0.0450X0.0010*%
%ADD17R,0.0670X0.0010*%
%ADD18R,0.0510X0.0010*%
%ADD19R,0.0760X0.0010*%
%ADD20R,0.0520X0.0010*%
%ADD21R,0.1900X0.0010*%
%ADD22R,0.0820X0.0010*%
%ADD23R,0.0880X0.0010*%
%ADD24R,0.0530X0.0010*%
%ADD25R,0.0940X0.0010*%
%ADD26R,0.1000X0.0010*%
%ADD27R,0.0540X0.0010*%
%ADD28R,0.1050X0.0010*%
%ADD29R,0.0550X0.0010*%
%ADD30R,0.1100X0.0010*%
%ADD31R,0.1140X0.0010*%
%ADD32R,0.1180X0.0010*%
%ADD33R,0.1220X0.0010*%
%ADD34R,0.1260X0.0010*%
%ADD35R,0.1300X0.0010*%
%ADD36R,0.1320X0.0010*%
%ADD37R,0.0590X0.0010*%
%ADD38R,0.1360X0.0010*%
%ADD39R,0.0600X0.0010*%
%ADD40R,0.1400X0.0010*%
%ADD41R,0.1420X0.0010*%
%ADD42R,0.0610X0.0010*%
%ADD43R,0.1460X0.0010*%
%ADD44R,0.1480X0.0010*%
%ADD45R,0.0620X0.0010*%
%ADD46R,0.1500X0.0010*%
%ADD47R,0.0630X0.0010*%
%ADD48R,0.1540X0.0010*%
%ADD49R,0.1560X0.0010*%
%ADD50R,0.0640X0.0010*%
%ADD51R,0.1580X0.0010*%
%ADD52R,0.0650X0.0010*%
%ADD53R,0.1600X0.0010*%
%ADD54R,0.1640X0.0010*%
%ADD55R,0.0660X0.0010*%
%ADD56R,0.1660X0.0010*%
%ADD57R,0.1680X0.0010*%
%ADD58R,0.1700X0.0010*%
%ADD59R,0.0680X0.0010*%
%ADD60R,0.1720X0.0010*%
%ADD61R,0.1740X0.0010*%
%ADD62R,0.0690X0.0010*%
%ADD63R,0.1760X0.0010*%
%ADD64R,0.1780X0.0010*%
%ADD65R,0.0700X0.0010*%
%ADD66R,0.1800X0.0010*%
%ADD67R,0.0710X0.0010*%
%ADD68R,0.1820X0.0010*%
%ADD69R,0.0720X0.0010*%
%ADD70R,0.1840X0.0010*%
%ADD71R,0.0730X0.0010*%
%ADD72R,0.1860X0.0010*%
%ADD73R,0.1880X0.0010*%
%ADD74R,0.0740X0.0010*%
%ADD75R,0.1920X0.0010*%
%ADD76R,0.0750X0.0010*%
%ADD77R,0.1940X0.0010*%
%ADD78R,0.0860X0.0010*%
%ADD79R,0.0850X0.0010*%
%ADD80R,0.0810X0.0010*%
%ADD81R,0.0770X0.0010*%
%ADD82R,0.0790X0.0010*%
%ADD83R,0.0780X0.0010*%
%ADD84R,0.0800X0.0010*%
%ADD85R,0.0830X0.0010*%
%ADD86R,0.0840X0.0010*%
%ADD87R,0.0870X0.0010*%
%ADD88R,0.0890X0.0010*%
%ADD89R,0.0900X0.0010*%
%ADD90R,0.0910X0.0010*%
%ADD91R,0.0920X0.0010*%
%ADD92R,0.0930X0.0010*%
%ADD93R,0.0950X0.0010*%
%ADD94R,0.0960X0.0010*%
%ADD95R,0.0970X0.0010*%
%ADD96R,0.0980X0.0010*%
%ADD97R,0.0990X0.0010*%
%ADD98R,0.1010X0.0010*%
%ADD99R,0.1020X0.0010*%
%ADD100R,0.1030X0.0010*%
%ADD101R,0.1040X0.0010*%
%ADD102R,0.0480X0.0010*%
%ADD103R,0.1990X0.0010*%
%ADD104R,0.1850X0.0010*%
%ADD105R,0.1620X0.0010*%
%ADD106R,0.1570X0.0010*%
%ADD107R,0.1550X0.0010*%
%ADD108R,0.1520X0.0010*%
%ADD109R,0.1490X0.0010*%
%ADD110R,0.1470X0.0010*%
%ADD111R,0.1430X0.0010*%
%ADD112R,0.1410X0.0010*%
%ADD113R,0.1380X0.0010*%
%ADD114R,0.1350X0.0010*%
%ADD115R,0.1310X0.0010*%
%ADD116R,0.1280X0.0010*%
%ADD117R,0.1250X0.0010*%
%ADD118R,0.1210X0.0010*%
%ADD119R,0.1170X0.0010*%
%ADD120R,0.1120X0.0010*%
%ADD121R,0.1080X0.0010*%
%ADD122R,0.0500X0.0010*%
%ADD123R,0.0370X0.0010*%
%ADD124R,0.0070X0.0010*%
%ADD125R,0.2950X0.0010*%
%ADD126R,0.0490X0.0010*%
%ADD127R,0.1290X0.0010*%
%ADD128R,0.1610X0.0010*%
%ADD129R,0.1690X0.0010*%
%ADD130R,0.1710X0.0010*%
%ADD131R,0.1730X0.0010*%
%ADD132R,0.1750X0.0010*%
%ADD133R,0.1810X0.0010*%
%ADD134R,0.1830X0.0010*%
%ADD135R,0.1870X0.0010*%
%ADD136R,0.1890X0.0010*%
%ADD137R,0.1910X0.0010*%
%ADD138R,0.1930X0.0010*%
%ADD139R,0.1950X0.0010*%
%ADD140R,0.1960X0.0010*%
%ADD141R,0.1970X0.0010*%
%ADD142R,0.1980X0.0010*%
%ADD143R,0.2000X0.0010*%
%ADD144R,0.2010X0.0010*%
%ADD145R,0.2020X0.0010*%
%ADD146R,0.2060X0.0010*%
%ADD147R,0.2050X0.0010*%
%ADD148R,0.2030X0.0010*%
%ADD149R,0.1790X0.0010*%
%ADD150R,0.1770X0.0010*%
%ADD151R,0.1450X0.0010*%
%ADD152R,0.1440X0.0010*%
%ADD153R,0.1670X0.0010*%
%ADD154R,0.1650X0.0010*%
%ADD155R,0.1630X0.0010*%
%ADD156R,0.1390X0.0010*%
%ADD157R,0.1370X0.0010*%
%ADD158R,0.3140X0.0010*%
%ADD159R,0.1240X0.0010*%
%ADD160C,0.0004*%
D10*
X000303Y003014D02*
X000310Y003014D01*
X000313Y003018D01*
X000318Y003018D02*
X000318Y003014D01*
X000322Y003014D01*
X000322Y003018D01*
X000318Y003018D01*
X000318Y003024D02*
X000318Y003028D01*
X000322Y003028D01*
X000322Y003024D01*
X000318Y003024D01*
X000313Y003031D02*
X000310Y003034D01*
X000303Y003034D01*
X000300Y003031D01*
X000300Y003018D01*
X000303Y003014D01*
X000328Y003014D02*
X000341Y003034D01*
X000346Y003034D02*
X000346Y003018D01*
X000349Y003014D01*
X000356Y003014D01*
X000359Y003018D01*
X000359Y003034D01*
X000368Y003028D02*
X000378Y003028D01*
X000383Y003024D02*
X000386Y003028D01*
X000393Y003028D01*
X000396Y003024D01*
X000396Y003021D01*
X000383Y003021D01*
X000383Y003018D02*
X000383Y003024D01*
X000383Y003018D02*
X000386Y003014D01*
X000393Y003014D01*
X000401Y003014D02*
X000401Y003028D01*
X000408Y003028D02*
X000411Y003028D01*
X000408Y003028D02*
X000401Y003021D01*
X000417Y003024D02*
X000420Y003028D01*
X000430Y003028D01*
X000427Y003021D02*
X000420Y003021D01*
X000417Y003024D01*
X000417Y003014D02*
X000427Y003014D01*
X000430Y003018D01*
X000427Y003021D01*
X000435Y003014D02*
X000448Y003034D01*
X000453Y003034D02*
X000453Y003014D01*
X000453Y003024D02*
X000457Y003028D01*
X000463Y003028D01*
X000467Y003024D01*
X000467Y003014D01*
X000472Y003018D02*
X000475Y003021D01*
X000485Y003021D01*
X000485Y003024D02*
X000485Y003014D01*
X000475Y003014D01*
X000472Y003018D01*
X000475Y003028D02*
X000482Y003028D01*
X000485Y003024D01*
X000490Y003028D02*
X000494Y003028D01*
X000497Y003024D01*
X000500Y003028D01*
X000504Y003024D01*
X000504Y003014D01*
X000509Y003014D02*
X000515Y003014D01*
X000512Y003014D02*
X000512Y003028D01*
X000509Y003028D01*
X000512Y003034D02*
X000512Y003038D01*
X000521Y003034D02*
X000524Y003034D01*
X000524Y003014D01*
X000521Y003014D02*
X000528Y003014D01*
X000537Y003018D02*
X000540Y003014D01*
X000537Y003018D02*
X000537Y003031D01*
X000540Y003028D02*
X000533Y003028D01*
X000546Y003024D02*
X000546Y003018D01*
X000549Y003014D01*
X000556Y003014D01*
X000559Y003018D01*
X000559Y003024D01*
X000556Y003028D01*
X000549Y003028D01*
X000546Y003024D01*
X000564Y003028D02*
X000574Y003028D01*
X000577Y003024D01*
X000577Y003014D01*
X000582Y003014D02*
X000586Y003014D01*
X000586Y003018D01*
X000582Y003018D01*
X000582Y003014D01*
X000592Y003014D02*
X000592Y003034D01*
X000602Y003028D02*
X000592Y003021D01*
X000602Y003014D01*
X000607Y003014D02*
X000614Y003014D01*
X000610Y003014D02*
X000610Y003028D01*
X000607Y003028D01*
X000610Y003034D02*
X000610Y003038D01*
X000619Y003034D02*
X000619Y003014D01*
X000629Y003014D01*
X000633Y003018D01*
X000633Y003024D01*
X000629Y003028D01*
X000619Y003028D01*
X000638Y003028D02*
X000648Y003028D01*
X000651Y003024D01*
X000651Y003018D01*
X000648Y003014D01*
X000638Y003014D01*
X000638Y003034D01*
X000656Y003024D02*
X000659Y003028D01*
X000666Y003028D01*
X000669Y003024D01*
X000669Y003021D01*
X000656Y003021D01*
X000656Y003018D02*
X000656Y003024D01*
X000656Y003018D02*
X000659Y003014D01*
X000666Y003014D01*
X000674Y003014D02*
X000688Y003034D01*
X000693Y003034D02*
X000703Y003034D01*
X000706Y003031D01*
X000706Y003018D01*
X000703Y003014D01*
X000693Y003014D01*
X000693Y003034D01*
X000711Y003024D02*
X000715Y003028D01*
X000721Y003028D01*
X000725Y003024D01*
X000725Y003021D01*
X000711Y003021D01*
X000711Y003018D02*
X000711Y003024D01*
X000711Y003018D02*
X000715Y003014D01*
X000721Y003014D01*
X000730Y003014D02*
X000740Y003014D01*
X000743Y003018D01*
X000740Y003021D01*
X000733Y003021D01*
X000730Y003024D01*
X000733Y003028D01*
X000743Y003028D01*
X000748Y003034D02*
X000748Y003014D01*
X000748Y003021D02*
X000758Y003028D01*
X000763Y003028D02*
X000770Y003028D01*
X000767Y003031D02*
X000767Y003018D01*
X000770Y003014D01*
X000776Y003018D02*
X000779Y003014D01*
X000786Y003014D01*
X000789Y003018D01*
X000789Y003024D01*
X000786Y003028D01*
X000779Y003028D01*
X000776Y003024D01*
X000776Y003018D01*
X000758Y003014D02*
X000748Y003021D01*
X000794Y003014D02*
X000804Y003014D01*
X000807Y003018D01*
X000807Y003024D01*
X000804Y003028D01*
X000794Y003028D01*
X000794Y003008D01*
X000813Y003014D02*
X000826Y003034D01*
X000831Y003034D02*
X000831Y003014D01*
X000841Y003014D01*
X000844Y003018D01*
X000844Y003024D01*
X000841Y003028D01*
X000831Y003028D01*
X000849Y003028D02*
X000856Y003028D01*
X000853Y003031D02*
X000853Y003018D01*
X000856Y003014D01*
X000865Y003014D02*
X000865Y003031D01*
X000868Y003034D01*
X000874Y003028D02*
X000887Y003014D01*
X000892Y003014D02*
X000896Y003014D01*
X000896Y003018D01*
X000892Y003018D01*
X000892Y003014D01*
X000902Y003014D02*
X000912Y003014D01*
X000915Y003018D01*
X000915Y003021D01*
X000912Y003024D01*
X000902Y003024D01*
X000912Y003024D02*
X000915Y003028D01*
X000915Y003031D01*
X000912Y003034D01*
X000902Y003034D01*
X000902Y003014D01*
X000920Y003014D02*
X000920Y003034D01*
X000927Y003028D01*
X000933Y003034D01*
X000933Y003014D01*
X000938Y003014D02*
X000938Y003034D01*
X000948Y003034D01*
X000952Y003031D01*
X000952Y003024D01*
X000948Y003021D01*
X000938Y003021D01*
X000887Y003028D02*
X000874Y003014D01*
X000868Y003024D02*
X000862Y003024D01*
X000564Y003014D02*
X000564Y003028D01*
X000497Y003024D02*
X000497Y003014D01*
X000490Y003014D02*
X000490Y003028D01*
X000378Y003018D02*
X000374Y003021D01*
X000368Y003021D01*
X000364Y003024D01*
X000368Y003028D01*
X000364Y003014D02*
X000374Y003014D01*
X000378Y003018D01*
X000300Y003064D02*
X000300Y018064D01*
X022800Y018064D01*
X022800Y003064D01*
X000300Y003064D01*
X001720Y005114D02*
X001722Y005164D01*
X001728Y005214D01*
X001738Y005263D01*
X001752Y005311D01*
X001769Y005358D01*
X001790Y005403D01*
X001815Y005447D01*
X001843Y005488D01*
X001875Y005527D01*
X001909Y005564D01*
X001946Y005598D01*
X001986Y005628D01*
X002028Y005655D01*
X002072Y005679D01*
X002118Y005700D01*
X002165Y005716D01*
X002213Y005729D01*
X002263Y005738D01*
X002312Y005743D01*
X002363Y005744D01*
X002413Y005741D01*
X002462Y005734D01*
X002511Y005723D01*
X002559Y005708D01*
X002605Y005690D01*
X002650Y005668D01*
X002693Y005642D01*
X002734Y005613D01*
X002773Y005581D01*
X002809Y005546D01*
X002841Y005508D01*
X002871Y005468D01*
X002898Y005425D01*
X002921Y005381D01*
X002940Y005335D01*
X002956Y005287D01*
X002968Y005238D01*
X002976Y005189D01*
X002980Y005139D01*
X002980Y005089D01*
X002976Y005039D01*
X002968Y004990D01*
X002956Y004941D01*
X002940Y004893D01*
X002921Y004847D01*
X002898Y004803D01*
X002871Y004760D01*
X002841Y004720D01*
X002809Y004682D01*
X002773Y004647D01*
X002734Y004615D01*
X002693Y004586D01*
X002650Y004560D01*
X002605Y004538D01*
X002559Y004520D01*
X002511Y004505D01*
X002462Y004494D01*
X002413Y004487D01*
X002363Y004484D01*
X002312Y004485D01*
X002263Y004490D01*
X002213Y004499D01*
X002165Y004512D01*
X002118Y004528D01*
X002072Y004549D01*
X002028Y004573D01*
X001986Y004600D01*
X001946Y004630D01*
X001909Y004664D01*
X001875Y004701D01*
X001843Y004740D01*
X001815Y004781D01*
X001790Y004825D01*
X001769Y004870D01*
X001752Y004917D01*
X001738Y004965D01*
X001728Y005014D01*
X001722Y005064D01*
X001720Y005114D01*
X001670Y016064D02*
X001672Y016114D01*
X001678Y016164D01*
X001688Y016213D01*
X001702Y016261D01*
X001719Y016308D01*
X001740Y016353D01*
X001765Y016397D01*
X001793Y016438D01*
X001825Y016477D01*
X001859Y016514D01*
X001896Y016548D01*
X001936Y016578D01*
X001978Y016605D01*
X002022Y016629D01*
X002068Y016650D01*
X002115Y016666D01*
X002163Y016679D01*
X002213Y016688D01*
X002262Y016693D01*
X002313Y016694D01*
X002363Y016691D01*
X002412Y016684D01*
X002461Y016673D01*
X002509Y016658D01*
X002555Y016640D01*
X002600Y016618D01*
X002643Y016592D01*
X002684Y016563D01*
X002723Y016531D01*
X002759Y016496D01*
X002791Y016458D01*
X002821Y016418D01*
X002848Y016375D01*
X002871Y016331D01*
X002890Y016285D01*
X002906Y016237D01*
X002918Y016188D01*
X002926Y016139D01*
X002930Y016089D01*
X002930Y016039D01*
X002926Y015989D01*
X002918Y015940D01*
X002906Y015891D01*
X002890Y015843D01*
X002871Y015797D01*
X002848Y015753D01*
X002821Y015710D01*
X002791Y015670D01*
X002759Y015632D01*
X002723Y015597D01*
X002684Y015565D01*
X002643Y015536D01*
X002600Y015510D01*
X002555Y015488D01*
X002509Y015470D01*
X002461Y015455D01*
X002412Y015444D01*
X002363Y015437D01*
X002313Y015434D01*
X002262Y015435D01*
X002213Y015440D01*
X002163Y015449D01*
X002115Y015462D01*
X002068Y015478D01*
X002022Y015499D01*
X001978Y015523D01*
X001936Y015550D01*
X001896Y015580D01*
X001859Y015614D01*
X001825Y015651D01*
X001793Y015690D01*
X001765Y015731D01*
X001740Y015775D01*
X001719Y015820D01*
X001702Y015867D01*
X001688Y015915D01*
X001678Y015964D01*
X001672Y016014D01*
X001670Y016064D01*
X020060Y012714D02*
X020062Y012764D01*
X020068Y012814D01*
X020078Y012863D01*
X020091Y012912D01*
X020109Y012959D01*
X020130Y013005D01*
X020154Y013048D01*
X020182Y013090D01*
X020213Y013130D01*
X020247Y013167D01*
X020284Y013201D01*
X020324Y013232D01*
X020366Y013260D01*
X020409Y013284D01*
X020455Y013305D01*
X020502Y013323D01*
X020551Y013336D01*
X020600Y013346D01*
X020650Y013352D01*
X020700Y013354D01*
X020750Y013352D01*
X020800Y013346D01*
X020849Y013336D01*
X020898Y013323D01*
X020945Y013305D01*
X020991Y013284D01*
X021034Y013260D01*
X021076Y013232D01*
X021116Y013201D01*
X021153Y013167D01*
X021187Y013130D01*
X021218Y013090D01*
X021246Y013048D01*
X021270Y013005D01*
X021291Y012959D01*
X021309Y012912D01*
X021322Y012863D01*
X021332Y012814D01*
X021338Y012764D01*
X021340Y012714D01*
X021338Y012664D01*
X021332Y012614D01*
X021322Y012565D01*
X021309Y012516D01*
X021291Y012469D01*
X021270Y012423D01*
X021246Y012380D01*
X021218Y012338D01*
X021187Y012298D01*
X021153Y012261D01*
X021116Y012227D01*
X021076Y012196D01*
X021034Y012168D01*
X020991Y012144D01*
X020945Y012123D01*
X020898Y012105D01*
X020849Y012092D01*
X020800Y012082D01*
X020750Y012076D01*
X020700Y012074D01*
X020650Y012076D01*
X020600Y012082D01*
X020551Y012092D01*
X020502Y012105D01*
X020455Y012123D01*
X020409Y012144D01*
X020366Y012168D01*
X020324Y012196D01*
X020284Y012227D01*
X020247Y012261D01*
X020213Y012298D01*
X020182Y012338D01*
X020154Y012380D01*
X020130Y012423D01*
X020109Y012469D01*
X020091Y012516D01*
X020078Y012565D01*
X020068Y012614D01*
X020062Y012664D01*
X020060Y012714D01*
X020170Y016064D02*
X020172Y016114D01*
X020178Y016164D01*
X020188Y016213D01*
X020202Y016261D01*
X020219Y016308D01*
X020240Y016353D01*
X020265Y016397D01*
X020293Y016438D01*
X020325Y016477D01*
X020359Y016514D01*
X020396Y016548D01*
X020436Y016578D01*
X020478Y016605D01*
X020522Y016629D01*
X020568Y016650D01*
X020615Y016666D01*
X020663Y016679D01*
X020713Y016688D01*
X020762Y016693D01*
X020813Y016694D01*
X020863Y016691D01*
X020912Y016684D01*
X020961Y016673D01*
X021009Y016658D01*
X021055Y016640D01*
X021100Y016618D01*
X021143Y016592D01*
X021184Y016563D01*
X021223Y016531D01*
X021259Y016496D01*
X021291Y016458D01*
X021321Y016418D01*
X021348Y016375D01*
X021371Y016331D01*
X021390Y016285D01*
X021406Y016237D01*
X021418Y016188D01*
X021426Y016139D01*
X021430Y016089D01*
X021430Y016039D01*
X021426Y015989D01*
X021418Y015940D01*
X021406Y015891D01*
X021390Y015843D01*
X021371Y015797D01*
X021348Y015753D01*
X021321Y015710D01*
X021291Y015670D01*
X021259Y015632D01*
X021223Y015597D01*
X021184Y015565D01*
X021143Y015536D01*
X021100Y015510D01*
X021055Y015488D01*
X021009Y015470D01*
X020961Y015455D01*
X020912Y015444D01*
X020863Y015437D01*
X020813Y015434D01*
X020762Y015435D01*
X020713Y015440D01*
X020663Y015449D01*
X020615Y015462D01*
X020568Y015478D01*
X020522Y015499D01*
X020478Y015523D01*
X020436Y015550D01*
X020396Y015580D01*
X020359Y015614D01*
X020325Y015651D01*
X020293Y015690D01*
X020265Y015731D01*
X020240Y015775D01*
X020219Y015820D01*
X020202Y015867D01*
X020188Y015915D01*
X020178Y015964D01*
X020172Y016014D01*
X020170Y016064D01*
X020060Y008714D02*
X020062Y008764D01*
X020068Y008814D01*
X020078Y008863D01*
X020091Y008912D01*
X020109Y008959D01*
X020130Y009005D01*
X020154Y009048D01*
X020182Y009090D01*
X020213Y009130D01*
X020247Y009167D01*
X020284Y009201D01*
X020324Y009232D01*
X020366Y009260D01*
X020409Y009284D01*
X020455Y009305D01*
X020502Y009323D01*
X020551Y009336D01*
X020600Y009346D01*
X020650Y009352D01*
X020700Y009354D01*
X020750Y009352D01*
X020800Y009346D01*
X020849Y009336D01*
X020898Y009323D01*
X020945Y009305D01*
X020991Y009284D01*
X021034Y009260D01*
X021076Y009232D01*
X021116Y009201D01*
X021153Y009167D01*
X021187Y009130D01*
X021218Y009090D01*
X021246Y009048D01*
X021270Y009005D01*
X021291Y008959D01*
X021309Y008912D01*
X021322Y008863D01*
X021332Y008814D01*
X021338Y008764D01*
X021340Y008714D01*
X021338Y008664D01*
X021332Y008614D01*
X021322Y008565D01*
X021309Y008516D01*
X021291Y008469D01*
X021270Y008423D01*
X021246Y008380D01*
X021218Y008338D01*
X021187Y008298D01*
X021153Y008261D01*
X021116Y008227D01*
X021076Y008196D01*
X021034Y008168D01*
X020991Y008144D01*
X020945Y008123D01*
X020898Y008105D01*
X020849Y008092D01*
X020800Y008082D01*
X020750Y008076D01*
X020700Y008074D01*
X020650Y008076D01*
X020600Y008082D01*
X020551Y008092D01*
X020502Y008105D01*
X020455Y008123D01*
X020409Y008144D01*
X020366Y008168D01*
X020324Y008196D01*
X020284Y008227D01*
X020247Y008261D01*
X020213Y008298D01*
X020182Y008338D01*
X020154Y008380D01*
X020130Y008423D01*
X020109Y008469D01*
X020091Y008516D01*
X020078Y008565D01*
X020068Y008614D01*
X020062Y008664D01*
X020060Y008714D01*
X020170Y005064D02*
X020172Y005114D01*
X020178Y005164D01*
X020188Y005213D01*
X020202Y005261D01*
X020219Y005308D01*
X020240Y005353D01*
X020265Y005397D01*
X020293Y005438D01*
X020325Y005477D01*
X020359Y005514D01*
X020396Y005548D01*
X020436Y005578D01*
X020478Y005605D01*
X020522Y005629D01*
X020568Y005650D01*
X020615Y005666D01*
X020663Y005679D01*
X020713Y005688D01*
X020762Y005693D01*
X020813Y005694D01*
X020863Y005691D01*
X020912Y005684D01*
X020961Y005673D01*
X021009Y005658D01*
X021055Y005640D01*
X021100Y005618D01*
X021143Y005592D01*
X021184Y005563D01*
X021223Y005531D01*
X021259Y005496D01*
X021291Y005458D01*
X021321Y005418D01*
X021348Y005375D01*
X021371Y005331D01*
X021390Y005285D01*
X021406Y005237D01*
X021418Y005188D01*
X021426Y005139D01*
X021430Y005089D01*
X021430Y005039D01*
X021426Y004989D01*
X021418Y004940D01*
X021406Y004891D01*
X021390Y004843D01*
X021371Y004797D01*
X021348Y004753D01*
X021321Y004710D01*
X021291Y004670D01*
X021259Y004632D01*
X021223Y004597D01*
X021184Y004565D01*
X021143Y004536D01*
X021100Y004510D01*
X021055Y004488D01*
X021009Y004470D01*
X020961Y004455D01*
X020912Y004444D01*
X020863Y004437D01*
X020813Y004434D01*
X020762Y004435D01*
X020713Y004440D01*
X020663Y004449D01*
X020615Y004462D01*
X020568Y004478D01*
X020522Y004499D01*
X020478Y004523D01*
X020436Y004550D01*
X020396Y004580D01*
X020359Y004614D01*
X020325Y004651D01*
X020293Y004690D01*
X020265Y004731D01*
X020240Y004775D01*
X020219Y004820D01*
X020202Y004867D01*
X020188Y004915D01*
X020178Y004964D01*
X020172Y005014D01*
X020170Y005064D01*
D11*
X015810Y007044D03*
X015810Y007054D03*
X015810Y007064D03*
X015810Y007074D03*
X015810Y007084D03*
X015810Y007094D03*
X015810Y007104D03*
X015810Y007114D03*
X015810Y007124D03*
X015810Y007134D03*
X015810Y007144D03*
X015810Y007154D03*
X015810Y007164D03*
X015810Y007174D03*
X015810Y007184D03*
X015810Y007194D03*
X015810Y007204D03*
X015810Y007214D03*
X015810Y007224D03*
X015810Y007234D03*
X015810Y007244D03*
X015810Y007254D03*
X015810Y007264D03*
X015810Y007274D03*
X015810Y007284D03*
X015810Y007294D03*
X015810Y007304D03*
X015810Y007314D03*
X015810Y007324D03*
X015810Y007334D03*
X015810Y007344D03*
X015810Y007354D03*
X015810Y007364D03*
X015810Y007374D03*
X015810Y007384D03*
X015810Y007394D03*
X015810Y007404D03*
X015810Y007414D03*
X015810Y007424D03*
X015810Y007434D03*
X015810Y007444D03*
X015810Y007454D03*
X015810Y007464D03*
X015810Y007474D03*
X015810Y007484D03*
X015810Y007494D03*
X015810Y007504D03*
X015810Y007514D03*
X015810Y007524D03*
X015810Y007534D03*
X015810Y007544D03*
X015810Y007554D03*
X015810Y007564D03*
X015810Y007574D03*
X015810Y007584D03*
X015810Y007594D03*
X015810Y007604D03*
X015810Y007614D03*
X015810Y007624D03*
X015810Y007634D03*
X015810Y007644D03*
X015810Y007654D03*
X015810Y007664D03*
X015810Y007674D03*
X015810Y007684D03*
X015810Y007694D03*
X015810Y007704D03*
X015810Y007714D03*
X015810Y007724D03*
X015810Y007734D03*
X015810Y007744D03*
X015810Y007754D03*
X015810Y007764D03*
X015810Y007774D03*
X015810Y007784D03*
X015810Y007794D03*
X015810Y007804D03*
X015810Y007814D03*
X015810Y007824D03*
X015810Y007834D03*
X015810Y007844D03*
X015810Y007854D03*
X015810Y007864D03*
X015810Y007874D03*
X015810Y007884D03*
X015810Y007894D03*
X015810Y007904D03*
X015810Y007914D03*
X015810Y007924D03*
X015810Y007934D03*
X015810Y007944D03*
X015810Y007954D03*
X015810Y007964D03*
X015810Y007974D03*
X015810Y007984D03*
X015810Y007994D03*
X015810Y008004D03*
X015810Y008014D03*
X015810Y008024D03*
X015810Y008034D03*
X015810Y008044D03*
X015810Y008054D03*
X015810Y008064D03*
X015810Y008074D03*
X015810Y008084D03*
X015810Y008094D03*
X015810Y008104D03*
X015810Y008114D03*
X015810Y008124D03*
X015810Y008134D03*
X015810Y008144D03*
X015810Y008154D03*
X015810Y008164D03*
X015810Y008174D03*
X015810Y008184D03*
X015810Y008194D03*
X015810Y008204D03*
X015810Y008214D03*
X015810Y008224D03*
X015810Y008234D03*
X015810Y008244D03*
X015810Y008254D03*
X015810Y008264D03*
X015810Y008274D03*
X015810Y008284D03*
X015810Y008294D03*
X015810Y008304D03*
X015810Y008314D03*
X015810Y008324D03*
X015810Y008334D03*
X015810Y008344D03*
X015810Y008354D03*
X015810Y008364D03*
X015810Y008374D03*
X015810Y008384D03*
X015810Y008394D03*
X015810Y008404D03*
X015810Y008414D03*
X015810Y008424D03*
X015810Y008434D03*
X015810Y008444D03*
X015810Y008454D03*
X015810Y008464D03*
X015810Y008474D03*
X015810Y008484D03*
X015810Y008494D03*
X015810Y008504D03*
X015810Y008514D03*
X015810Y008524D03*
X015810Y008534D03*
X015810Y008544D03*
X015810Y008554D03*
X015810Y008564D03*
X015810Y008574D03*
X015810Y008584D03*
X015810Y008594D03*
X015810Y008604D03*
X015810Y008614D03*
X015810Y008624D03*
X015810Y008634D03*
X010930Y008634D03*
X010930Y008624D03*
X010930Y008614D03*
X010930Y008604D03*
X010930Y008594D03*
X010930Y008584D03*
X010930Y008574D03*
X010930Y008564D03*
X010930Y008554D03*
X010930Y008544D03*
X010930Y008534D03*
X010930Y008524D03*
X010930Y008514D03*
X010930Y008504D03*
X010930Y008494D03*
X010930Y008484D03*
X010930Y008474D03*
X010930Y008464D03*
X010930Y008454D03*
X010930Y008444D03*
X010930Y008434D03*
X010930Y008424D03*
X010930Y008414D03*
X010930Y008404D03*
X010930Y008394D03*
X010930Y008384D03*
X010930Y008374D03*
X010930Y008364D03*
X010930Y008354D03*
X010930Y008344D03*
X010930Y008334D03*
X010930Y008324D03*
X010930Y008314D03*
X010930Y008304D03*
X010930Y008294D03*
X010930Y008284D03*
X010930Y008274D03*
X010930Y008264D03*
X010930Y008254D03*
X010930Y008244D03*
X010930Y008234D03*
X010930Y008224D03*
X010930Y008214D03*
X010930Y008204D03*
X010930Y008194D03*
X010930Y008184D03*
X010930Y008174D03*
X010930Y008164D03*
X010930Y008154D03*
X010930Y008144D03*
X010930Y008134D03*
X010930Y008124D03*
X010930Y008114D03*
X010930Y008104D03*
X010930Y008094D03*
X010930Y008084D03*
X010930Y008074D03*
X010930Y008064D03*
X010930Y008054D03*
X010930Y008044D03*
X010930Y008034D03*
X010930Y008024D03*
X010930Y008014D03*
X010930Y008004D03*
X010930Y007994D03*
X010930Y007984D03*
X010930Y007974D03*
X010930Y007964D03*
X010930Y007954D03*
X010930Y007944D03*
X010930Y007934D03*
X010930Y007924D03*
X010930Y007914D03*
X010930Y007904D03*
X010930Y007894D03*
X010930Y007884D03*
X010930Y007874D03*
X010930Y007864D03*
X010930Y007854D03*
X010930Y007844D03*
X010930Y007834D03*
X010930Y007824D03*
X010930Y007814D03*
X010930Y007804D03*
X010930Y007794D03*
X010930Y007784D03*
X010930Y007774D03*
X010930Y007764D03*
X010930Y007754D03*
X010930Y007744D03*
X010930Y007734D03*
X010930Y007724D03*
X010930Y007714D03*
X010930Y007704D03*
X010930Y007694D03*
X010930Y007684D03*
X010930Y007674D03*
X010930Y007664D03*
X010930Y007654D03*
X010930Y007644D03*
X010930Y007634D03*
X010930Y007624D03*
X010930Y007614D03*
X010930Y007604D03*
X010930Y007594D03*
X010930Y007584D03*
X010930Y007574D03*
X010930Y007564D03*
X010930Y007554D03*
X010930Y007544D03*
X010930Y007534D03*
X010930Y007524D03*
X010930Y007514D03*
X010930Y007504D03*
X010930Y007494D03*
X010930Y007484D03*
X010930Y007474D03*
X010930Y007464D03*
X010930Y007454D03*
X010930Y007444D03*
X010930Y007434D03*
X010930Y007424D03*
X010930Y007414D03*
X010930Y007404D03*
X010930Y007394D03*
X010930Y007384D03*
X010930Y007374D03*
X010930Y007364D03*
X010930Y007354D03*
X010930Y007344D03*
X010930Y007334D03*
X010930Y007324D03*
X010930Y007314D03*
X010930Y007304D03*
X010930Y007294D03*
X010930Y007284D03*
X010930Y007274D03*
X010930Y007264D03*
X010930Y007254D03*
X010930Y007244D03*
X010930Y007234D03*
X010930Y007224D03*
X010930Y007214D03*
X010930Y007204D03*
X010930Y007194D03*
X010930Y007184D03*
X010930Y007174D03*
X010930Y007164D03*
X010930Y007154D03*
X010930Y007144D03*
X010930Y007134D03*
X010930Y007124D03*
X010930Y007114D03*
X010930Y007104D03*
X010930Y007094D03*
X010930Y007084D03*
X010930Y007074D03*
X010930Y007064D03*
X010930Y007054D03*
X010930Y007044D03*
X010930Y007034D03*
X010930Y007024D03*
X010930Y007014D03*
X010930Y007004D03*
X010930Y006994D03*
X010930Y006984D03*
X010930Y006974D03*
X010930Y008644D03*
X010930Y008654D03*
X010930Y008664D03*
X010930Y008674D03*
X010930Y008684D03*
X010930Y008694D03*
X010930Y008704D03*
X010930Y008714D03*
X010930Y008724D03*
X010930Y008734D03*
X010930Y008744D03*
X010930Y008754D03*
X010930Y008764D03*
X010930Y008774D03*
X010930Y008784D03*
X010930Y008794D03*
X010930Y008804D03*
X010930Y008814D03*
X010930Y008824D03*
X010930Y008834D03*
X010930Y008844D03*
X010930Y008854D03*
X010930Y008864D03*
X010930Y008874D03*
X010930Y008884D03*
X010930Y008894D03*
X010930Y008904D03*
X010930Y008914D03*
X010930Y008924D03*
X010930Y008934D03*
X010930Y008944D03*
X010930Y008954D03*
X010930Y008964D03*
X010930Y008974D03*
X010930Y008984D03*
X010930Y008994D03*
X010930Y009004D03*
X010930Y009014D03*
X010930Y009024D03*
X010930Y009034D03*
X010930Y009044D03*
X010930Y009054D03*
X010930Y009064D03*
X010930Y009074D03*
X010930Y009084D03*
X010930Y009094D03*
X010930Y009104D03*
X010930Y009114D03*
X010930Y009124D03*
X010930Y009134D03*
X010930Y009144D03*
X010930Y009154D03*
X010930Y009164D03*
X010930Y009174D03*
X010930Y009184D03*
X010930Y009194D03*
X010930Y009204D03*
X010930Y009214D03*
X010930Y009224D03*
X010930Y009234D03*
X010930Y009244D03*
X010930Y009254D03*
X010930Y009264D03*
X010930Y009274D03*
X010930Y009284D03*
X010930Y009294D03*
X010930Y009304D03*
X010930Y009314D03*
X010930Y009324D03*
X010930Y009334D03*
X010930Y009344D03*
X010930Y009354D03*
X010930Y009364D03*
X010930Y009374D03*
X010930Y009384D03*
X010930Y009394D03*
X010930Y009404D03*
X010930Y009414D03*
X010930Y009424D03*
X010930Y009434D03*
X010930Y009444D03*
X010930Y009454D03*
X010930Y009464D03*
X010930Y009474D03*
X010930Y009484D03*
X010930Y009494D03*
X010930Y009504D03*
X010930Y009514D03*
X010930Y009524D03*
X010930Y009534D03*
X010930Y009544D03*
X010930Y009554D03*
X010930Y009564D03*
X010930Y009574D03*
X010930Y009584D03*
X010930Y009594D03*
X010930Y009604D03*
X010930Y009614D03*
X010930Y009624D03*
X010930Y009634D03*
X010930Y009644D03*
X010930Y009654D03*
X010930Y009664D03*
X010930Y009674D03*
X010930Y009684D03*
X010930Y009694D03*
X010930Y009704D03*
X010930Y009714D03*
X010930Y009724D03*
X010930Y009734D03*
X010930Y009744D03*
X010930Y009754D03*
X010930Y009764D03*
X010930Y009774D03*
X010930Y009784D03*
X010930Y009794D03*
X010930Y009804D03*
X010930Y009814D03*
X010930Y009824D03*
X010930Y009834D03*
X010930Y009844D03*
X010930Y009854D03*
X010930Y009864D03*
X010930Y009874D03*
X010930Y009884D03*
X010930Y009894D03*
X010930Y009904D03*
X010930Y009914D03*
X010930Y009924D03*
X010930Y009934D03*
X010930Y009944D03*
X010930Y009954D03*
X010930Y009964D03*
X010930Y009974D03*
X010930Y009984D03*
X010930Y009994D03*
X010930Y010004D03*
X010930Y010014D03*
X010930Y010024D03*
X010930Y010034D03*
X010930Y010044D03*
X010930Y010054D03*
X010930Y010064D03*
X010930Y010074D03*
X010930Y010084D03*
X010930Y010094D03*
X010930Y010534D03*
X010930Y010544D03*
X010930Y010554D03*
X010930Y010564D03*
X010930Y010574D03*
X010930Y010584D03*
X010930Y010594D03*
X010930Y010604D03*
X010930Y010614D03*
X010930Y010624D03*
X010930Y010634D03*
X010930Y010644D03*
X010930Y010654D03*
X010930Y010664D03*
X010930Y010674D03*
X010930Y010684D03*
X010930Y010694D03*
X010930Y010704D03*
X010930Y010714D03*
X010930Y010724D03*
X010930Y010734D03*
X010930Y010744D03*
X010930Y010754D03*
X010930Y010764D03*
X010930Y010774D03*
X010930Y010784D03*
X010930Y010794D03*
X010930Y010804D03*
X010930Y010814D03*
X010930Y010824D03*
X010930Y010834D03*
X010930Y010844D03*
X010930Y010854D03*
X010930Y010864D03*
X010930Y010874D03*
X010930Y010884D03*
X010930Y010894D03*
X010930Y010904D03*
X010930Y010914D03*
X010930Y010924D03*
X010930Y010934D03*
X010930Y010944D03*
X010930Y010954D03*
X010930Y010964D03*
X010930Y010974D03*
X010930Y010984D03*
X010930Y010994D03*
X010930Y011004D03*
X010930Y011014D03*
X010930Y011024D03*
X010930Y011034D03*
X010930Y011044D03*
X010930Y011054D03*
X010930Y011064D03*
X010930Y011074D03*
X010930Y011084D03*
X010930Y011094D03*
X010930Y011104D03*
X010930Y011114D03*
X010930Y011124D03*
X010930Y011134D03*
X010930Y011144D03*
X010930Y011154D03*
X010930Y011164D03*
X010930Y011174D03*
X010930Y011184D03*
X010930Y011194D03*
X010930Y011204D03*
X010930Y011214D03*
X010930Y011224D03*
X010930Y011234D03*
X010930Y011244D03*
X010930Y011254D03*
X010930Y011264D03*
X010930Y011274D03*
X010930Y011284D03*
X010930Y011294D03*
X010930Y011304D03*
X010930Y011314D03*
X010930Y011324D03*
X010930Y011334D03*
X010930Y011344D03*
X010930Y011354D03*
X010930Y011364D03*
X010930Y011374D03*
X010930Y011384D03*
X010930Y011394D03*
X010930Y011404D03*
X010930Y011414D03*
X010930Y011424D03*
X010930Y011434D03*
X010930Y011444D03*
X010930Y011454D03*
X010930Y011464D03*
X010930Y011474D03*
X010930Y011484D03*
X010930Y011494D03*
X010930Y011504D03*
X010930Y011514D03*
X010930Y011524D03*
X010930Y011534D03*
X010930Y011544D03*
X010930Y011554D03*
X010930Y011564D03*
X010930Y011574D03*
X010930Y011584D03*
X010930Y011594D03*
X010930Y011604D03*
X010930Y011614D03*
X010930Y011624D03*
X010930Y011634D03*
X010930Y011644D03*
X010930Y011654D03*
X010930Y011664D03*
X010930Y011674D03*
X010930Y011684D03*
X010930Y011694D03*
X010930Y011704D03*
X010930Y011714D03*
X010930Y011724D03*
X010930Y011734D03*
X010930Y011744D03*
X010930Y011754D03*
X010930Y011764D03*
X010930Y011774D03*
X010930Y011784D03*
X010930Y011794D03*
X010930Y011804D03*
X010930Y011814D03*
X010930Y011824D03*
X010930Y011834D03*
X010930Y011844D03*
X010930Y011854D03*
X010930Y011864D03*
X010930Y011874D03*
X010930Y011884D03*
X010930Y011894D03*
X010930Y011904D03*
X010930Y011914D03*
X010930Y011924D03*
X010930Y011934D03*
X010930Y011944D03*
X010930Y011954D03*
X010930Y011964D03*
X010930Y011974D03*
X010930Y011984D03*
X010930Y011994D03*
X010930Y012004D03*
X010930Y012014D03*
X010930Y012024D03*
X010930Y012034D03*
X010930Y012044D03*
X010930Y012054D03*
X010930Y012064D03*
X010930Y012074D03*
X010930Y012084D03*
X010930Y012094D03*
X010930Y012104D03*
X010930Y012114D03*
X010930Y012124D03*
X010930Y012134D03*
X010930Y012144D03*
X010930Y012154D03*
X010930Y012164D03*
X010930Y012174D03*
X010930Y012184D03*
X010930Y012194D03*
X010930Y012204D03*
X010930Y012214D03*
X010930Y012224D03*
X010930Y012234D03*
X010930Y012244D03*
X010930Y012254D03*
X010930Y012264D03*
X010930Y012274D03*
X010930Y012284D03*
X010930Y012294D03*
X010930Y012304D03*
X010930Y012314D03*
X010930Y012324D03*
X010930Y012334D03*
X010930Y012344D03*
X010930Y012354D03*
X010930Y012364D03*
X010930Y012374D03*
X010930Y012384D03*
X010930Y012394D03*
X010930Y012404D03*
X010930Y012414D03*
X010930Y012424D03*
X010930Y012434D03*
X010930Y012444D03*
X010930Y012454D03*
X010930Y012464D03*
X010930Y012474D03*
X010930Y012484D03*
X010930Y012494D03*
X010930Y012504D03*
X010930Y012514D03*
X010930Y012524D03*
X010930Y012534D03*
X010930Y012544D03*
X010930Y012554D03*
X010930Y012564D03*
X010930Y012574D03*
X010930Y012584D03*
X010930Y012594D03*
X010930Y012604D03*
X010930Y012614D03*
X010930Y012624D03*
X010930Y012634D03*
X010930Y012644D03*
X010930Y012654D03*
X010930Y012664D03*
X010930Y012674D03*
X010930Y012684D03*
X010930Y012694D03*
X010930Y012704D03*
X010930Y012714D03*
X010930Y012724D03*
X010930Y012734D03*
X010930Y012744D03*
X010930Y012754D03*
X010930Y012764D03*
X010930Y012774D03*
X010930Y012784D03*
X010930Y012794D03*
X010930Y012804D03*
X010930Y012814D03*
X010930Y012824D03*
X010930Y012834D03*
X010930Y012844D03*
X010930Y012854D03*
X010930Y012864D03*
X010930Y012874D03*
X010930Y012884D03*
X010930Y012894D03*
X010930Y012904D03*
X010930Y012914D03*
X010930Y012924D03*
X010930Y012934D03*
X010930Y012944D03*
X010930Y012954D03*
X010930Y012964D03*
X010930Y012974D03*
X010930Y012984D03*
X010930Y012994D03*
X010930Y013004D03*
X010930Y013014D03*
X010930Y013024D03*
X010930Y013034D03*
X010930Y013044D03*
X010930Y013054D03*
X010930Y013064D03*
X010930Y013074D03*
X010930Y013084D03*
X010930Y013094D03*
X010930Y013104D03*
X010930Y013114D03*
X010930Y013124D03*
X010930Y013134D03*
X010930Y013144D03*
X010930Y013154D03*
X010930Y013164D03*
X010930Y013174D03*
X010930Y013184D03*
X010930Y013194D03*
X010930Y013204D03*
X010930Y013214D03*
X010930Y013224D03*
X010930Y013234D03*
X010930Y013244D03*
X010930Y013254D03*
D12*
X013355Y012004D03*
X014305Y011544D03*
X014285Y011494D03*
X014275Y011464D03*
X014265Y011444D03*
X014255Y011414D03*
X014245Y011394D03*
X014235Y011364D03*
X014225Y011344D03*
X014225Y011334D03*
X014215Y011314D03*
X014205Y011294D03*
X014205Y011284D03*
X014195Y011264D03*
X014185Y011244D03*
X014185Y011234D03*
X014175Y011214D03*
X015765Y009434D03*
X015765Y009424D03*
X015275Y008624D03*
X015265Y008604D03*
X015255Y008594D03*
X015245Y008574D03*
X015225Y008544D03*
X015215Y008524D03*
X015205Y008514D03*
X015195Y008494D03*
X015185Y008474D03*
X015175Y008464D03*
X015165Y008444D03*
X015145Y008414D03*
X015135Y008394D03*
X015125Y008384D03*
X015115Y008364D03*
X015105Y008344D03*
X015095Y008334D03*
X015085Y008314D03*
X015075Y008304D03*
X015075Y008294D03*
X015065Y008284D03*
X015055Y008264D03*
X015045Y008254D03*
X015035Y008234D03*
X015025Y008214D03*
X015015Y008204D03*
X015005Y008184D03*
X014995Y008174D03*
X014995Y008164D03*
X014985Y008154D03*
X014975Y008134D03*
X014965Y008124D03*
X014955Y008104D03*
X014945Y008094D03*
X014945Y008084D03*
X014935Y008074D03*
X014925Y008054D03*
X014915Y008044D03*
X014915Y008034D03*
X014905Y008024D03*
X014895Y008004D03*
X014885Y007994D03*
X014885Y007984D03*
X014875Y007974D03*
X014865Y007964D03*
X014865Y007954D03*
X014855Y007944D03*
X014845Y007924D03*
X014835Y007914D03*
X014835Y007904D03*
X014345Y007124D03*
X014345Y007114D03*
X016765Y007834D03*
X016775Y007814D03*
X016775Y007804D03*
X016785Y007784D03*
X016785Y007774D03*
X016795Y007764D03*
X016785Y008794D03*
X016795Y008814D03*
X016795Y008824D03*
X016805Y008844D03*
X018495Y008824D03*
X018495Y008814D03*
X018505Y008804D03*
X018505Y008794D03*
X018515Y008774D03*
X018525Y007834D03*
X018515Y007814D03*
X018515Y007804D03*
X018505Y007794D03*
X018505Y007784D03*
X019175Y011774D03*
X019195Y012154D03*
X019195Y012164D03*
X019205Y012174D03*
X019295Y013194D03*
X015165Y013674D03*
X006695Y007474D03*
X006705Y007454D03*
X006715Y007444D03*
X006725Y007424D03*
X006745Y007394D03*
X006755Y007374D03*
X006765Y007364D03*
X006775Y007344D03*
X006795Y007314D03*
X006825Y007264D03*
X006845Y007234D03*
X006875Y007184D03*
X006925Y007104D03*
X007005Y006974D03*
X006685Y007494D03*
X006675Y007504D03*
X006665Y007524D03*
X006655Y007534D03*
X006655Y007544D03*
X006645Y007554D03*
X006635Y007574D03*
X006625Y007584D03*
X006615Y007604D03*
X006605Y007614D03*
X006605Y007624D03*
X006595Y007634D03*
X006585Y007654D03*
X006575Y007664D03*
X006575Y007674D03*
X006565Y007684D03*
X006555Y007694D03*
X006555Y007704D03*
X006545Y007714D03*
X006535Y007734D03*
X006525Y007744D03*
X006525Y007754D03*
X006515Y007764D03*
X006505Y007774D03*
X006505Y007784D03*
X006495Y007794D03*
X006495Y007804D03*
X006485Y007814D03*
X006475Y007824D03*
X006475Y007834D03*
X006465Y007844D03*
X006455Y007854D03*
X006455Y007864D03*
X006445Y007874D03*
X006445Y007884D03*
X006435Y007894D03*
X006425Y007904D03*
X006425Y007914D03*
X006415Y007924D03*
X006405Y007944D03*
X006395Y007954D03*
X006395Y007964D03*
X006385Y007974D03*
X006375Y007984D03*
X006375Y007994D03*
X006365Y008004D03*
X006355Y008024D03*
X006345Y008034D03*
X006345Y008044D03*
X006335Y008054D03*
X006325Y008074D03*
X006315Y008084D03*
X006305Y008104D03*
X006295Y008124D03*
X006285Y008134D03*
X006275Y008154D03*
X006265Y008164D03*
X006255Y008184D03*
X006235Y008214D03*
X006225Y008234D03*
X006205Y008264D03*
X006185Y008294D03*
X006175Y008314D03*
X006155Y008344D03*
X006125Y008394D03*
X006105Y008424D03*
X006075Y008474D03*
X006025Y008554D03*
X004355Y009554D03*
X004345Y009544D03*
X004335Y009524D03*
X004315Y009494D03*
X004305Y009474D03*
X004285Y009444D03*
X004275Y009424D03*
X004255Y009394D03*
X004245Y009374D03*
X004225Y009344D03*
X004215Y009324D03*
X004195Y009294D03*
X004185Y009274D03*
X004165Y009244D03*
X004155Y009224D03*
X004135Y009194D03*
X004105Y009144D03*
X004075Y009094D03*
X004045Y009044D03*
X004015Y008994D03*
X003995Y008964D03*
X003985Y008944D03*
X003965Y008914D03*
X003935Y008864D03*
X003905Y008814D03*
X003875Y008764D03*
X003845Y008714D03*
X003815Y008664D03*
X003645Y008384D03*
X004365Y009574D03*
X004375Y009594D03*
X004385Y009604D03*
X004395Y009624D03*
X004405Y009644D03*
X004415Y009654D03*
X004415Y009664D03*
X004425Y009674D03*
X004435Y009694D03*
X004445Y009704D03*
X004445Y009714D03*
X004455Y009724D03*
X004455Y009734D03*
X004465Y009744D03*
X004475Y009764D03*
X004485Y009774D03*
X004485Y009784D03*
X004495Y009794D03*
X004505Y009814D03*
X005235Y010924D03*
X005245Y010944D03*
X005265Y010974D03*
X005275Y010994D03*
X005285Y011014D03*
X005295Y011024D03*
X005295Y011034D03*
X005305Y011044D03*
X005305Y011054D03*
X005315Y011064D03*
X005325Y011074D03*
X005325Y011084D03*
X005335Y011094D03*
X005335Y011104D03*
X005345Y011114D03*
X005355Y011124D03*
X005355Y011134D03*
X005365Y011144D03*
X005365Y011154D03*
X005375Y011164D03*
X005385Y011184D03*
X005395Y011194D03*
X005395Y011204D03*
X005405Y011214D03*
X005415Y011234D03*
X005425Y011244D03*
X005425Y011254D03*
X005435Y011264D03*
X005445Y011284D03*
X005455Y011294D03*
X005455Y011304D03*
X005465Y011314D03*
X005475Y011334D03*
X005485Y011344D03*
X005485Y011354D03*
X005495Y011364D03*
X005505Y011384D03*
X005515Y011394D03*
X005515Y011404D03*
X005525Y011414D03*
X005535Y011434D03*
X005545Y011444D03*
X005545Y011454D03*
X005555Y011464D03*
X005565Y011484D03*
X005575Y011494D03*
X005575Y011504D03*
X005585Y011514D03*
X005595Y011534D03*
X005605Y011554D03*
X005615Y011564D03*
X005625Y011584D03*
X005635Y011604D03*
X005645Y011614D03*
X005645Y011624D03*
X005655Y011634D03*
X005665Y011654D03*
X005675Y011664D03*
X005675Y011674D03*
X005685Y011684D03*
X005695Y011704D03*
X005705Y011714D03*
X005705Y011724D03*
X005715Y011734D03*
X005725Y011754D03*
X005735Y011764D03*
X005735Y011774D03*
X005745Y011784D03*
X005755Y011804D03*
X005765Y011814D03*
X005765Y011824D03*
X005775Y011834D03*
X005785Y011854D03*
X005795Y011864D03*
X005795Y011874D03*
X005805Y011884D03*
X005815Y011904D03*
X005825Y011914D03*
X005825Y011924D03*
X005835Y011934D03*
X005845Y011954D03*
X005855Y011974D03*
X005865Y011984D03*
X005875Y012004D03*
X005885Y012024D03*
X005895Y012034D03*
X005905Y012054D03*
X005915Y012074D03*
X005925Y012084D03*
X005935Y012104D03*
X005945Y012124D03*
X005955Y012134D03*
X005965Y012154D03*
X005975Y012174D03*
X005985Y012184D03*
X005995Y012204D03*
X006005Y012224D03*
X006015Y012234D03*
X006025Y012254D03*
X006035Y012274D03*
X006045Y012284D03*
X006055Y012304D03*
X006065Y012324D03*
X006075Y012334D03*
X006085Y012354D03*
X006095Y012374D03*
X006105Y012384D03*
X006115Y012404D03*
X006125Y012424D03*
X006145Y012454D03*
X006155Y012474D03*
X006175Y012504D03*
X006185Y012524D03*
X006205Y012554D03*
X006215Y012574D03*
X006235Y012604D03*
X006245Y012624D03*
X006265Y012654D03*
X006275Y012674D03*
X006295Y012704D03*
X006305Y012724D03*
X006325Y012754D03*
X006335Y012774D03*
X006355Y012804D03*
X006365Y012824D03*
X006395Y012874D03*
X006425Y012924D03*
X006455Y012974D03*
X006485Y013024D03*
X006515Y013074D03*
X006545Y013124D03*
X006575Y013174D03*
X006605Y013224D03*
D13*
X006600Y013214D03*
X006590Y013204D03*
X006590Y013194D03*
X006580Y013184D03*
X006570Y013164D03*
X006560Y013154D03*
X006560Y013144D03*
X006550Y013134D03*
X006540Y013114D03*
X006530Y013104D03*
X006530Y013094D03*
X006520Y013084D03*
X006510Y013064D03*
X006500Y013054D03*
X006500Y013044D03*
X006490Y013034D03*
X006480Y013014D03*
X006470Y013004D03*
X006470Y012994D03*
X006460Y012984D03*
X006450Y012964D03*
X006440Y012954D03*
X006440Y012944D03*
X006430Y012934D03*
X006420Y012914D03*
X006410Y012904D03*
X006410Y012894D03*
X006400Y012884D03*
X006390Y012864D03*
X006380Y012854D03*
X006380Y012844D03*
X006370Y012834D03*
X006360Y012814D03*
X006350Y012794D03*
X006340Y012784D03*
X006330Y012764D03*
X006320Y012744D03*
X006310Y012734D03*
X006300Y012714D03*
X006290Y012694D03*
X006280Y012684D03*
X006270Y012664D03*
X006260Y012644D03*
X006250Y012634D03*
X006240Y012614D03*
X006230Y012594D03*
X006220Y012584D03*
X006210Y012564D03*
X006200Y012544D03*
X006190Y012534D03*
X006180Y012514D03*
X006170Y012494D03*
X006160Y012484D03*
X006150Y012464D03*
X006140Y012444D03*
X006130Y012434D03*
X006120Y012414D03*
X006110Y012394D03*
X006090Y012364D03*
X006080Y012344D03*
X006060Y012314D03*
X006050Y012294D03*
X006030Y012264D03*
X006020Y012244D03*
X006000Y012214D03*
X005990Y012194D03*
X005970Y012164D03*
X005960Y012144D03*
X005940Y012114D03*
X005930Y012094D03*
X005910Y012064D03*
X005900Y012044D03*
X005880Y012014D03*
X005870Y011994D03*
X005850Y011964D03*
X005840Y011944D03*
X005810Y011894D03*
X005780Y011844D03*
X005750Y011794D03*
X005720Y011744D03*
X005690Y011694D03*
X005660Y011644D03*
X005630Y011594D03*
X005620Y011574D03*
X005600Y011544D03*
X005590Y011524D03*
X005560Y011474D03*
X005530Y011424D03*
X005500Y011374D03*
X005470Y011324D03*
X005440Y011274D03*
X005410Y011224D03*
X005380Y011174D03*
X004430Y009684D03*
X004400Y009634D03*
X004390Y009614D03*
X004370Y009584D03*
X004360Y009564D03*
X004340Y009534D03*
X004330Y009514D03*
X004320Y009504D03*
X004310Y009484D03*
X004300Y009464D03*
X004290Y009454D03*
X004280Y009434D03*
X004270Y009414D03*
X004260Y009404D03*
X004250Y009384D03*
X004240Y009364D03*
X004230Y009354D03*
X004220Y009334D03*
X004210Y009314D03*
X004200Y009304D03*
X004190Y009284D03*
X004180Y009264D03*
X004170Y009254D03*
X004160Y009234D03*
X004150Y009214D03*
X004140Y009204D03*
X004130Y009184D03*
X004120Y009174D03*
X004120Y009164D03*
X004110Y009154D03*
X004100Y009134D03*
X004090Y009124D03*
X004090Y009114D03*
X004080Y009104D03*
X004070Y009084D03*
X004060Y009074D03*
X004060Y009064D03*
X004050Y009054D03*
X004040Y009034D03*
X004030Y009024D03*
X004030Y009014D03*
X004020Y009004D03*
X004010Y008984D03*
X004000Y008974D03*
X003990Y008954D03*
X003980Y008934D03*
X003970Y008924D03*
X003960Y008904D03*
X003950Y008894D03*
X003950Y008884D03*
X003940Y008874D03*
X003930Y008854D03*
X003920Y008844D03*
X003920Y008834D03*
X003910Y008824D03*
X003900Y008804D03*
X003890Y008794D03*
X003890Y008784D03*
X003880Y008774D03*
X003870Y008754D03*
X003860Y008744D03*
X003860Y008734D03*
X003850Y008724D03*
X003840Y008704D03*
X003830Y008694D03*
X003830Y008684D03*
X003820Y008674D03*
X003810Y008654D03*
X003800Y008644D03*
X003800Y008634D03*
X003790Y008624D03*
X003780Y008614D03*
X003780Y008604D03*
X003770Y008594D03*
X003770Y008584D03*
X003760Y008574D03*
X003750Y008564D03*
X003750Y008554D03*
X003740Y008544D03*
X003740Y008534D03*
X003730Y008524D03*
X003720Y008514D03*
X003720Y008504D03*
X003710Y008494D03*
X003710Y008484D03*
X003700Y008474D03*
X003690Y008464D03*
X003690Y008454D03*
X003680Y008444D03*
X003680Y008434D03*
X003670Y008424D03*
X003660Y008414D03*
X003660Y008404D03*
X003650Y008394D03*
X003640Y008374D03*
X003630Y008364D03*
X003630Y008354D03*
X003620Y008344D03*
X003610Y008334D03*
X003610Y008324D03*
X003600Y008314D03*
X003600Y008304D03*
X003590Y008294D03*
X003580Y008284D03*
X003580Y008274D03*
X003570Y008264D03*
X003570Y008254D03*
X003560Y008244D03*
X003550Y008234D03*
X003550Y008224D03*
X003540Y008214D03*
X003540Y008204D03*
X003530Y008194D03*
X003520Y008184D03*
X003520Y008174D03*
X003510Y008164D03*
X003510Y008154D03*
X003500Y008144D03*
X003490Y008134D03*
X003490Y008124D03*
X003480Y008114D03*
X003480Y008104D03*
X003470Y008094D03*
X003460Y008084D03*
X003460Y008074D03*
X003450Y008064D03*
X003450Y008054D03*
X003440Y008044D03*
X003430Y008034D03*
X003430Y008024D03*
X003420Y008014D03*
X003410Y007994D03*
X003400Y007984D03*
X003400Y007974D03*
X003390Y007964D03*
X003380Y007944D03*
X003370Y007934D03*
X003370Y007924D03*
X003360Y007914D03*
X003350Y007894D03*
X003340Y007884D03*
X003340Y007874D03*
X003330Y007864D03*
X003320Y007844D03*
X003310Y007834D03*
X003310Y007824D03*
X003300Y007814D03*
X003290Y007804D03*
X003290Y007794D03*
X003280Y007784D03*
X003280Y007774D03*
X003270Y007764D03*
X003260Y007754D03*
X003260Y007744D03*
X003250Y007734D03*
X003240Y007714D03*
X003230Y007704D03*
X003230Y007694D03*
X003220Y007684D03*
X003210Y007664D03*
X003200Y007654D03*
X003200Y007644D03*
X003190Y007634D03*
X003180Y007614D03*
X003170Y007604D03*
X003170Y007594D03*
X003160Y007584D03*
X003150Y007564D03*
X003140Y007554D03*
X003140Y007544D03*
X003130Y007534D03*
X003120Y007514D03*
X003110Y007504D03*
X003110Y007494D03*
X003100Y007484D03*
X003090Y007464D03*
X003080Y007454D03*
X003070Y007434D03*
X003060Y007414D03*
X003050Y007404D03*
X003040Y007384D03*
X003030Y007364D03*
X003020Y007354D03*
X003010Y007334D03*
X003000Y007314D03*
X002990Y007304D03*
X002980Y007284D03*
X002970Y007264D03*
X002960Y007254D03*
X002950Y007234D03*
X002940Y007224D03*
X002940Y007214D03*
X002930Y007204D03*
X002920Y007184D03*
X002910Y007174D03*
X002900Y007154D03*
X002890Y007134D03*
X002880Y007124D03*
X002870Y007104D03*
X002860Y007084D03*
X002850Y007074D03*
X002840Y007054D03*
X002830Y007034D03*
X002820Y007024D03*
X002810Y007004D03*
X002800Y006984D03*
X002790Y006974D03*
X006540Y007724D03*
X006590Y007644D03*
X006620Y007594D03*
X006640Y007564D03*
X006670Y007514D03*
X006690Y007484D03*
X006700Y007464D03*
X006720Y007434D03*
X006730Y007414D03*
X006740Y007404D03*
X006750Y007384D03*
X006770Y007354D03*
X006780Y007334D03*
X006790Y007324D03*
X006800Y007304D03*
X006810Y007294D03*
X006810Y007284D03*
X006820Y007274D03*
X006830Y007254D03*
X006840Y007244D03*
X006850Y007224D03*
X006860Y007214D03*
X006860Y007204D03*
X006870Y007194D03*
X006880Y007174D03*
X006890Y007164D03*
X006890Y007154D03*
X006900Y007144D03*
X006910Y007134D03*
X006910Y007124D03*
X006920Y007114D03*
X006930Y007094D03*
X006940Y007084D03*
X006940Y007074D03*
X006950Y007064D03*
X006960Y007054D03*
X006960Y007044D03*
X006970Y007034D03*
X006970Y007024D03*
X006980Y007014D03*
X006990Y007004D03*
X006990Y006994D03*
X007000Y006984D03*
X013350Y012014D03*
X015160Y013654D03*
X015160Y013664D03*
X019300Y013204D03*
X019370Y012754D03*
X019220Y012194D03*
X019210Y012184D03*
X019180Y011764D03*
X019190Y011744D03*
X015760Y009414D03*
X015760Y009404D03*
X015280Y008634D03*
X015270Y008614D03*
X015250Y008584D03*
X015240Y008564D03*
X015230Y008554D03*
X015220Y008534D03*
X015200Y008504D03*
X015190Y008484D03*
X015170Y008454D03*
X015160Y008434D03*
X015150Y008424D03*
X015140Y008404D03*
X015120Y008374D03*
X015110Y008354D03*
X015090Y008324D03*
X015060Y008274D03*
X015040Y008244D03*
X015030Y008224D03*
X015010Y008194D03*
X014980Y008144D03*
X014960Y008114D03*
X014930Y008064D03*
X014900Y008014D03*
X014850Y007934D03*
X014350Y007134D03*
X016800Y007744D03*
X016800Y007754D03*
X016810Y007724D03*
X016800Y008834D03*
X016810Y008854D03*
X016820Y008864D03*
X016820Y008874D03*
X018480Y008854D03*
X018480Y008844D03*
X018490Y008834D03*
X018500Y007774D03*
X018500Y007764D03*
X018490Y007754D03*
X018490Y007744D03*
X006860Y013644D03*
X006860Y013654D03*
X006870Y013664D03*
X006870Y013674D03*
X006880Y013684D03*
X006850Y013634D03*
X006840Y013624D03*
X006840Y013614D03*
X006830Y013604D03*
X006830Y013594D03*
X006820Y013584D03*
X006810Y013574D03*
X006810Y013564D03*
X006800Y013554D03*
X006800Y013544D03*
X006790Y013534D03*
X006780Y013524D03*
X006780Y013514D03*
X006770Y013504D03*
X006770Y013494D03*
X006760Y013484D03*
X006750Y013474D03*
X006750Y013464D03*
X006740Y013454D03*
X006740Y013444D03*
X006730Y013434D03*
X006720Y013424D03*
X006720Y013414D03*
X006710Y013404D03*
X006710Y013394D03*
X006700Y013384D03*
X006690Y013374D03*
X006690Y013364D03*
X006680Y013354D03*
X006680Y013344D03*
X006670Y013334D03*
X006660Y013324D03*
X006660Y013314D03*
X006650Y013304D03*
X006650Y013294D03*
X006640Y013284D03*
X006630Y013274D03*
X006630Y013264D03*
X006620Y013254D03*
X006620Y013244D03*
X006610Y013234D03*
D14*
X013345Y012024D03*
X015755Y009394D03*
X016825Y008884D03*
X016835Y008894D03*
X016845Y008914D03*
X016805Y007734D03*
X016815Y007714D03*
X016825Y007704D03*
X016835Y007684D03*
X017645Y007024D03*
X018465Y007704D03*
X018475Y007714D03*
X018475Y007724D03*
X018485Y007734D03*
X018475Y008864D03*
X018465Y008874D03*
X018465Y008884D03*
X018455Y008894D03*
X019195Y011734D03*
X019185Y011754D03*
X019385Y012744D03*
X019305Y013214D03*
X014355Y007154D03*
X014355Y007144D03*
X003415Y008004D03*
X003385Y007954D03*
X003355Y007904D03*
X003325Y007854D03*
X003245Y007724D03*
X003215Y007674D03*
X003185Y007624D03*
X003155Y007574D03*
X003125Y007524D03*
X003095Y007474D03*
X003075Y007444D03*
X003065Y007424D03*
X003045Y007394D03*
X003035Y007374D03*
X003015Y007344D03*
X003005Y007324D03*
X002985Y007294D03*
X002975Y007274D03*
X002955Y007244D03*
X002925Y007194D03*
X002905Y007164D03*
X002895Y007144D03*
X002875Y007114D03*
X002865Y007094D03*
X002845Y007064D03*
X002835Y007044D03*
X002815Y007014D03*
X002805Y006994D03*
D15*
X017645Y007004D03*
D16*
X017640Y007014D03*
D17*
X017640Y007034D03*
X016950Y007534D03*
X016940Y007544D03*
X016950Y009044D03*
X015710Y009244D03*
X015710Y009254D03*
X014400Y007294D03*
X018330Y009044D03*
X013300Y012114D03*
X012690Y012714D03*
X012260Y013184D03*
X012250Y013194D03*
X012240Y013204D03*
X012230Y013214D03*
X012220Y013224D03*
X012210Y013234D03*
X012200Y013244D03*
X012190Y013254D03*
X012180Y013264D03*
X012170Y013274D03*
X012160Y013284D03*
X012150Y013294D03*
X012090Y013364D03*
X012080Y013374D03*
X012070Y013384D03*
X012060Y013394D03*
X012050Y013404D03*
X012040Y013414D03*
X011720Y011224D03*
X015160Y013524D03*
X015160Y013534D03*
X015160Y013544D03*
X004870Y010414D03*
D18*
X005140Y009994D03*
X005150Y009984D03*
X005160Y009964D03*
X005170Y009944D03*
X004470Y010934D03*
X004440Y010984D03*
X004430Y011004D03*
X004420Y011024D03*
X004410Y011034D03*
X004410Y011044D03*
X004400Y011054D03*
X004390Y011074D03*
X004380Y011084D03*
X004380Y011094D03*
X004370Y011104D03*
X004360Y011124D03*
X004350Y011144D03*
X004340Y011154D03*
X004330Y011174D03*
X004320Y011194D03*
X004300Y011224D03*
X004290Y011244D03*
X004270Y011274D03*
X004260Y011294D03*
X004240Y011324D03*
X004230Y011344D03*
X004210Y011374D03*
X004200Y011394D03*
X004180Y011424D03*
X013380Y011424D03*
X013380Y011414D03*
X013380Y011404D03*
X013380Y011394D03*
X013380Y011384D03*
X013380Y011374D03*
X013380Y011364D03*
X013380Y011354D03*
X013380Y011344D03*
X013380Y011334D03*
X013380Y011324D03*
X013380Y011314D03*
X013380Y011304D03*
X013380Y011294D03*
X013380Y011284D03*
X013380Y011274D03*
X013380Y011264D03*
X013380Y011254D03*
X013380Y011244D03*
X013380Y011234D03*
X013380Y011224D03*
X013380Y011214D03*
X013380Y011434D03*
X013380Y011444D03*
X013380Y011454D03*
X013380Y011464D03*
X013380Y011474D03*
X013380Y011484D03*
X013380Y011494D03*
X013380Y011504D03*
X013380Y011514D03*
X013380Y011524D03*
X013380Y011534D03*
X013380Y011544D03*
X013380Y011554D03*
X013380Y011564D03*
X013380Y011574D03*
X013380Y011584D03*
X013380Y011594D03*
X013380Y011604D03*
X013380Y011614D03*
X013380Y011624D03*
X013380Y011634D03*
X013380Y011644D03*
X013380Y011654D03*
X013380Y011664D03*
X013380Y011674D03*
X013380Y011684D03*
X013380Y011694D03*
X013380Y011704D03*
X013380Y011714D03*
X013380Y011724D03*
X013380Y011734D03*
X013380Y011744D03*
X013380Y011754D03*
X013380Y011764D03*
X013380Y011774D03*
X013380Y011784D03*
X013380Y011794D03*
X013380Y011804D03*
X013380Y011814D03*
X013380Y011824D03*
X013380Y011834D03*
X013380Y011844D03*
X013380Y011854D03*
X013380Y011864D03*
X013380Y011874D03*
X013380Y011884D03*
X013380Y011894D03*
X013380Y011904D03*
X013380Y011914D03*
X013380Y011924D03*
X013380Y011934D03*
X013380Y011944D03*
X013380Y011954D03*
X013380Y012614D03*
X013380Y012624D03*
X013380Y012634D03*
X013380Y012644D03*
X013380Y012654D03*
X013380Y012664D03*
X013380Y012674D03*
X013380Y012684D03*
X013380Y012694D03*
X013380Y012704D03*
X013380Y012714D03*
X013380Y012724D03*
X013380Y012734D03*
X013380Y012744D03*
X013380Y012754D03*
X013380Y012764D03*
X013380Y012774D03*
X013380Y012784D03*
X013380Y012794D03*
X013380Y012804D03*
X013380Y012814D03*
X013380Y012824D03*
X013380Y012834D03*
X013380Y012844D03*
X013380Y012854D03*
X013380Y012864D03*
X013380Y012874D03*
X013380Y012884D03*
X013380Y012894D03*
X013380Y012904D03*
X013380Y012914D03*
X013380Y012924D03*
X013380Y012934D03*
X013380Y012944D03*
X013380Y012954D03*
X013380Y012964D03*
X013380Y012974D03*
X013380Y012984D03*
X013380Y012994D03*
X013380Y013004D03*
X013380Y013014D03*
X013380Y013024D03*
X013380Y013034D03*
X013380Y013044D03*
X013380Y013054D03*
X013380Y013064D03*
X013380Y013074D03*
X013380Y013084D03*
X013380Y013094D03*
X013380Y013104D03*
X013380Y013114D03*
X013380Y013124D03*
X013380Y013134D03*
X013380Y013144D03*
X013380Y013154D03*
X013380Y013164D03*
X013380Y013174D03*
X013380Y013184D03*
X013380Y013194D03*
X013380Y013204D03*
X013380Y013214D03*
X013380Y013224D03*
X013380Y013234D03*
X013380Y013244D03*
X013380Y013254D03*
X013380Y013264D03*
X013380Y013274D03*
X013380Y013284D03*
X013380Y013294D03*
X013380Y013304D03*
X013380Y013314D03*
X013380Y013324D03*
X013380Y013334D03*
X013380Y013344D03*
X013380Y013354D03*
X013380Y013364D03*
X013380Y013374D03*
X013380Y013384D03*
X013380Y013394D03*
X013380Y013404D03*
X013380Y013414D03*
X013380Y013424D03*
X013380Y013434D03*
X013380Y013444D03*
X013380Y013454D03*
X013380Y013464D03*
X013380Y013474D03*
X013380Y013484D03*
X013380Y013494D03*
X013380Y013504D03*
X013380Y013514D03*
X013380Y013524D03*
X013380Y013534D03*
X013380Y013544D03*
X013380Y013554D03*
X013380Y013564D03*
X013380Y013574D03*
X013380Y013584D03*
X013380Y013594D03*
X013380Y013604D03*
X013380Y013614D03*
X013380Y013624D03*
X013380Y013634D03*
X013380Y013644D03*
X013380Y013654D03*
X013380Y013664D03*
X013380Y013674D03*
X013380Y013684D03*
X013380Y013694D03*
X014900Y013074D03*
X014880Y013024D03*
X015490Y012904D03*
X015500Y012874D03*
X015510Y012854D03*
X015520Y012824D03*
X015530Y012804D03*
X015530Y012794D03*
X015540Y012774D03*
X015540Y012764D03*
X015550Y012744D03*
X015560Y012724D03*
X015560Y012714D03*
X015570Y012694D03*
X015570Y012684D03*
X015580Y012674D03*
X015580Y012664D03*
X015580Y012654D03*
X015590Y012644D03*
X015590Y012634D03*
X015600Y012624D03*
X015600Y012614D03*
X015600Y012604D03*
X015610Y012594D03*
X015610Y012584D03*
X015610Y012574D03*
X015620Y012564D03*
X015620Y012554D03*
X015630Y012534D03*
X015630Y012524D03*
X015640Y012514D03*
X015640Y012504D03*
X015650Y012484D03*
X015650Y012474D03*
X015660Y012454D03*
X015670Y012434D03*
X015670Y012424D03*
X015680Y012404D03*
X015680Y012394D03*
X015690Y012374D03*
X015700Y012344D03*
X015710Y012324D03*
X015720Y012294D03*
X015750Y012214D03*
X018210Y012214D03*
X018210Y012204D03*
X018210Y012194D03*
X018210Y012184D03*
X018210Y012174D03*
X018210Y012164D03*
X018210Y012154D03*
X018210Y012144D03*
X018210Y012134D03*
X018210Y012124D03*
X018210Y012114D03*
X018210Y012104D03*
X018210Y012094D03*
X018210Y012084D03*
X018210Y012074D03*
X018210Y012064D03*
X018210Y012054D03*
X018210Y012044D03*
X018210Y012034D03*
X018210Y012024D03*
X018210Y012014D03*
X018210Y012004D03*
X018210Y011994D03*
X018210Y011984D03*
X018210Y011974D03*
X018210Y011964D03*
X018210Y011954D03*
X018210Y011944D03*
X018210Y011934D03*
X018210Y011924D03*
X018210Y011914D03*
X018210Y011904D03*
X018210Y011894D03*
X018210Y011884D03*
X018210Y011874D03*
X018210Y011864D03*
X018210Y011854D03*
X018210Y011844D03*
X018210Y011834D03*
X018210Y011824D03*
X018210Y011814D03*
X018210Y011804D03*
X018210Y011794D03*
X018210Y011784D03*
X018210Y011774D03*
X018210Y011764D03*
X018210Y011754D03*
X018210Y011744D03*
X018210Y011734D03*
X018210Y011724D03*
X018210Y011714D03*
X018210Y011704D03*
X018210Y011694D03*
X018210Y011684D03*
X018210Y011674D03*
X018210Y011664D03*
X018210Y011654D03*
X018210Y011644D03*
X018210Y011634D03*
X018210Y012224D03*
X018210Y012234D03*
X018210Y012244D03*
X018210Y012254D03*
X018210Y012264D03*
X018210Y012274D03*
X018210Y012284D03*
X018210Y012294D03*
X018210Y012734D03*
X018210Y012744D03*
X018210Y012754D03*
X018210Y012764D03*
X018210Y012774D03*
X018210Y012784D03*
X018210Y012794D03*
X018210Y012804D03*
X018210Y012814D03*
X018210Y012824D03*
X018210Y012834D03*
X018210Y012844D03*
X018210Y012854D03*
X018210Y012864D03*
X018210Y012874D03*
X018210Y012884D03*
X018210Y012894D03*
X018210Y012904D03*
X018210Y012914D03*
X018210Y012924D03*
X018210Y012934D03*
X018210Y012944D03*
X018210Y012954D03*
X018210Y012964D03*
X018210Y012974D03*
X018210Y012984D03*
X018210Y012994D03*
X018210Y013004D03*
X018210Y013014D03*
X018210Y013024D03*
X018210Y013034D03*
X018210Y013044D03*
X018210Y013054D03*
X018210Y013064D03*
X018210Y013074D03*
X018210Y013084D03*
X018210Y013094D03*
X018210Y013104D03*
X018210Y013114D03*
X018210Y013124D03*
X018210Y013134D03*
X018210Y013144D03*
X018210Y013154D03*
X018210Y013164D03*
X018210Y013174D03*
X018210Y013184D03*
X018210Y013194D03*
X018210Y013204D03*
X018210Y013214D03*
X018210Y013224D03*
X018210Y013234D03*
X018210Y013244D03*
X018210Y013254D03*
X018210Y013264D03*
X019260Y013114D03*
X019260Y013104D03*
X019260Y013094D03*
X019310Y012814D03*
X019320Y012804D03*
X020710Y012804D03*
X020710Y012794D03*
X020710Y012784D03*
X020710Y012774D03*
X020710Y012764D03*
X020710Y012754D03*
X020710Y012744D03*
X020710Y012734D03*
X020710Y012724D03*
X020710Y012714D03*
X020710Y012814D03*
X020710Y012824D03*
X020710Y012834D03*
X020710Y012844D03*
X020710Y012854D03*
X020710Y012864D03*
X020710Y012874D03*
X020710Y012884D03*
X020710Y012894D03*
X020710Y012904D03*
X020710Y012914D03*
X020710Y012924D03*
X020710Y012934D03*
X020710Y012944D03*
X020710Y012954D03*
X020710Y012964D03*
X020710Y012974D03*
X020710Y012984D03*
X020710Y012994D03*
X020710Y013004D03*
X020710Y013014D03*
X020710Y013024D03*
X020710Y013034D03*
X020710Y013044D03*
X020710Y013054D03*
X020710Y013064D03*
X020710Y013074D03*
X020710Y013084D03*
X020710Y013094D03*
X020710Y013104D03*
X020710Y013114D03*
X020710Y013124D03*
X020710Y013134D03*
X020710Y013144D03*
X020710Y013154D03*
X020710Y013164D03*
X020710Y013174D03*
X020710Y013184D03*
X020710Y013194D03*
X020710Y013204D03*
X020710Y013214D03*
X020710Y013224D03*
X020710Y013234D03*
X020710Y013244D03*
X020710Y013254D03*
X020710Y013264D03*
X020710Y013274D03*
X020710Y012284D03*
X020710Y012274D03*
X020710Y012264D03*
X020710Y012254D03*
X020710Y012244D03*
X020710Y012234D03*
X020710Y012224D03*
X020710Y012214D03*
X020710Y012204D03*
X020710Y012194D03*
X020710Y012184D03*
X020710Y012174D03*
X020710Y012164D03*
X020710Y012154D03*
X020710Y012144D03*
X020710Y012134D03*
X020710Y012124D03*
X020710Y012114D03*
X020710Y012104D03*
X020710Y012094D03*
X020710Y012084D03*
X020710Y012074D03*
X020710Y012064D03*
X020710Y012054D03*
X020710Y012044D03*
X020710Y012034D03*
X020710Y012024D03*
X020710Y012014D03*
X020710Y012004D03*
X020710Y011994D03*
X020710Y011984D03*
X020710Y011974D03*
X020710Y011964D03*
X020710Y011954D03*
X020710Y011944D03*
X020710Y011934D03*
X020710Y011924D03*
X020710Y011914D03*
X020710Y011904D03*
X020710Y011894D03*
X020710Y011884D03*
X020710Y011874D03*
X020710Y011864D03*
X020710Y011854D03*
X020710Y011844D03*
X020710Y011834D03*
X020710Y011824D03*
X020710Y011814D03*
X020710Y011804D03*
X020710Y011794D03*
X020710Y011784D03*
X020710Y011774D03*
X020710Y011764D03*
X020710Y011754D03*
X020710Y011744D03*
X020710Y011734D03*
X020710Y011724D03*
X020710Y011714D03*
X020710Y011704D03*
X020710Y011694D03*
X020710Y011684D03*
X020710Y011674D03*
X020710Y011664D03*
X020710Y011654D03*
X020710Y011644D03*
X020710Y011634D03*
X020060Y009104D03*
X020060Y009094D03*
X020060Y009084D03*
X020060Y009074D03*
X020060Y009064D03*
X020060Y009054D03*
X020060Y009044D03*
X020060Y009034D03*
X020060Y009024D03*
X020060Y009014D03*
X020060Y009004D03*
X020060Y008994D03*
X020060Y008984D03*
X020060Y008974D03*
X020060Y008964D03*
X020060Y008954D03*
X020060Y008944D03*
X020060Y008934D03*
X020060Y008924D03*
X020060Y008914D03*
X020060Y008904D03*
X020060Y008894D03*
X020060Y008884D03*
X020060Y008874D03*
X020060Y008864D03*
X020060Y008854D03*
X020060Y008844D03*
X020060Y008834D03*
X020060Y008824D03*
X020060Y008814D03*
X020060Y008804D03*
X020060Y008794D03*
X020060Y008784D03*
X020060Y008774D03*
X020060Y008764D03*
X020060Y008754D03*
X020060Y008744D03*
X020060Y008734D03*
X020060Y008724D03*
X020060Y008714D03*
X020060Y008704D03*
X020060Y008694D03*
X020060Y008684D03*
X020060Y008674D03*
X020060Y008664D03*
X020060Y008654D03*
X020060Y008644D03*
X020060Y008634D03*
X020060Y008624D03*
X020060Y008614D03*
X020060Y008604D03*
X020060Y008594D03*
X020060Y008584D03*
X020060Y008574D03*
X020060Y008564D03*
X020060Y008554D03*
X020060Y008544D03*
X020060Y008534D03*
X020060Y008524D03*
X020060Y008514D03*
X020060Y008504D03*
X020060Y008494D03*
X020060Y008484D03*
X020060Y008474D03*
X020060Y008464D03*
X020060Y008454D03*
X020060Y008444D03*
X020060Y008434D03*
X020060Y008424D03*
X020060Y008414D03*
X020060Y008404D03*
X020060Y008394D03*
X020060Y008384D03*
X020060Y008374D03*
X020060Y008364D03*
X020060Y008354D03*
X020060Y008344D03*
X020060Y008334D03*
X020060Y008324D03*
X020060Y008314D03*
X020060Y008304D03*
X020060Y008294D03*
X020060Y008284D03*
X020060Y008274D03*
X020060Y008264D03*
X020060Y008254D03*
X020060Y008244D03*
X020060Y008234D03*
X020060Y008224D03*
X020060Y008214D03*
X020060Y008204D03*
X020060Y008194D03*
X020060Y008184D03*
X020060Y008174D03*
X020060Y008164D03*
X020060Y008154D03*
X020060Y008144D03*
X020060Y008134D03*
X020060Y008124D03*
X020060Y008114D03*
X020060Y008104D03*
X020060Y008094D03*
X020060Y008084D03*
X020060Y008074D03*
X020060Y008064D03*
X020060Y008054D03*
X020060Y008044D03*
X020060Y008034D03*
X020060Y008024D03*
X020060Y008014D03*
X020060Y008004D03*
X020060Y007994D03*
X020060Y007984D03*
X020060Y007974D03*
X020060Y007964D03*
X020060Y007954D03*
X020060Y007944D03*
X020060Y007934D03*
X020060Y007924D03*
X020060Y007914D03*
X020060Y007904D03*
X020060Y007894D03*
X020060Y007884D03*
X020060Y007874D03*
X020060Y007864D03*
X020060Y007854D03*
X020060Y007844D03*
X020060Y007834D03*
X020060Y007824D03*
X020060Y007814D03*
X020060Y007804D03*
X020060Y007794D03*
X020060Y007784D03*
X020060Y007774D03*
X020060Y007764D03*
X020060Y007754D03*
X020060Y007744D03*
X020060Y007734D03*
X020060Y007724D03*
X020060Y007714D03*
X020060Y007704D03*
X020060Y007694D03*
X020060Y007684D03*
X020060Y007674D03*
X020060Y007664D03*
X020060Y007654D03*
X020060Y007644D03*
X020060Y007634D03*
X020060Y007624D03*
X020060Y007614D03*
X020060Y007604D03*
X020060Y007594D03*
X020060Y007584D03*
X020060Y007574D03*
X020060Y007564D03*
X020060Y007554D03*
X020060Y007544D03*
X020060Y007534D03*
X020060Y007524D03*
X020060Y007514D03*
X020060Y007504D03*
X020060Y007494D03*
X020060Y007484D03*
X020060Y007474D03*
X020060Y007464D03*
X020060Y007454D03*
X020060Y007444D03*
X020060Y007434D03*
X020060Y007424D03*
X020060Y007414D03*
X020060Y007404D03*
X020060Y007394D03*
X020060Y007384D03*
X020060Y007374D03*
X020060Y007364D03*
X020060Y007354D03*
X020060Y007344D03*
X020060Y007334D03*
X020060Y007324D03*
X020060Y007314D03*
X020060Y007304D03*
X020060Y007294D03*
X020060Y007284D03*
X020060Y007274D03*
X020060Y007264D03*
X020060Y007254D03*
X020060Y007244D03*
X020060Y007234D03*
X020060Y007224D03*
X020060Y007214D03*
X020060Y007204D03*
X020060Y007194D03*
X020060Y007184D03*
X020060Y007174D03*
X020060Y007164D03*
X020060Y007154D03*
X020060Y007144D03*
X020060Y007134D03*
X020060Y007124D03*
X020060Y007114D03*
X020060Y007104D03*
X020060Y007094D03*
X020060Y007084D03*
X020060Y007074D03*
X020060Y007064D03*
X020060Y007054D03*
X020060Y007044D03*
X015790Y009504D03*
X015790Y009514D03*
X013290Y009104D03*
X013290Y009094D03*
X013290Y009084D03*
X013290Y009074D03*
X013290Y009064D03*
X013290Y009054D03*
X013290Y009044D03*
X013290Y009034D03*
X013290Y009024D03*
X013290Y009014D03*
X013290Y009004D03*
X013290Y008994D03*
X013290Y008984D03*
X013290Y008974D03*
X013290Y008964D03*
X013290Y008954D03*
X013290Y008944D03*
X013290Y008934D03*
X013290Y008924D03*
X013290Y008914D03*
X013290Y008904D03*
X013290Y008894D03*
X013290Y008884D03*
X013290Y008874D03*
X013290Y008864D03*
X013290Y008854D03*
X013290Y008844D03*
X013290Y008834D03*
X013290Y008824D03*
X013290Y008814D03*
X013290Y008804D03*
X013290Y008794D03*
X013290Y008784D03*
X013290Y008774D03*
X013290Y008764D03*
X013290Y008754D03*
X013290Y008744D03*
X013290Y008734D03*
X013290Y008724D03*
X013290Y008714D03*
X013290Y008704D03*
X013290Y008694D03*
X013290Y008684D03*
X013290Y008674D03*
X013290Y008664D03*
X013290Y008654D03*
X013290Y008644D03*
X013290Y008634D03*
X013290Y008624D03*
X013290Y008614D03*
X013290Y008604D03*
X013290Y008594D03*
X013290Y008584D03*
X013290Y008574D03*
X013290Y008564D03*
X013290Y008134D03*
X013290Y008124D03*
X013290Y008114D03*
X013290Y008104D03*
X013290Y008094D03*
X013290Y008084D03*
X013290Y008074D03*
X013290Y008064D03*
X013290Y008054D03*
X013290Y008044D03*
X013290Y008034D03*
X013290Y008024D03*
X013290Y008014D03*
X013290Y008004D03*
X013290Y007994D03*
X013290Y007984D03*
X013290Y007974D03*
X013290Y007964D03*
X013290Y007954D03*
X013290Y007944D03*
X013290Y007934D03*
X013290Y007924D03*
X013290Y007914D03*
X013290Y007904D03*
X013290Y007894D03*
X013290Y007884D03*
X013290Y007874D03*
X013290Y007864D03*
X013290Y007854D03*
X013290Y007844D03*
X013290Y007834D03*
X013290Y007824D03*
X013290Y007814D03*
X013290Y007804D03*
X013290Y007794D03*
X013290Y007784D03*
X013290Y007774D03*
X013290Y007764D03*
X013290Y007754D03*
X013290Y007744D03*
X013290Y007734D03*
X013290Y007724D03*
X013290Y007714D03*
X013290Y007704D03*
X013290Y007694D03*
X013290Y007684D03*
X013290Y007674D03*
X013290Y007664D03*
X013290Y007654D03*
X013290Y007644D03*
X013290Y007634D03*
X013290Y007624D03*
X013290Y007614D03*
X013290Y007604D03*
X013290Y007594D03*
X013290Y007584D03*
X013290Y007574D03*
X013290Y007564D03*
X013290Y007554D03*
X013290Y007544D03*
X013290Y007534D03*
X013290Y007524D03*
X013290Y007514D03*
X013290Y007504D03*
X013290Y007494D03*
X013290Y007484D03*
X013290Y007474D03*
D19*
X014445Y007444D03*
X014445Y007434D03*
X015665Y009094D03*
X015665Y009104D03*
X017035Y009104D03*
X017035Y007474D03*
X017645Y007044D03*
X018255Y007474D03*
X013255Y012214D03*
X012695Y012654D03*
X019495Y012714D03*
X004865Y010244D03*
X004865Y010234D03*
D20*
X005155Y009974D03*
X005165Y009954D03*
X005175Y009934D03*
X005185Y009924D03*
X005185Y009914D03*
X005195Y009904D03*
X005205Y009884D03*
X004365Y011114D03*
X004355Y011134D03*
X004335Y011164D03*
X004325Y011184D03*
X004315Y011204D03*
X004305Y011214D03*
X004295Y011234D03*
X004285Y011254D03*
X004275Y011264D03*
X004265Y011284D03*
X004255Y011304D03*
X004245Y011314D03*
X004235Y011334D03*
X004225Y011354D03*
X004215Y011364D03*
X004205Y011384D03*
X004195Y011404D03*
X004185Y011414D03*
X004175Y011434D03*
X004165Y011444D03*
X004165Y011454D03*
X004155Y011464D03*
X004155Y011474D03*
X004145Y011484D03*
X004135Y011494D03*
X004135Y011504D03*
X004125Y011514D03*
X004125Y011524D03*
X004115Y011534D03*
X004105Y011544D03*
X004105Y011554D03*
X004095Y011564D03*
X004095Y011574D03*
X004085Y011584D03*
X004075Y011594D03*
X004075Y011604D03*
X004065Y011614D03*
X004065Y011624D03*
X004055Y011634D03*
X004045Y011644D03*
X004045Y011654D03*
X004035Y011664D03*
X004035Y011674D03*
X004025Y011684D03*
X004015Y011704D03*
X004005Y011714D03*
X003995Y011734D03*
X003985Y011754D03*
X003975Y011764D03*
X003965Y011784D03*
X003955Y011804D03*
X003945Y011814D03*
X003935Y011834D03*
X003925Y011854D03*
X003915Y011864D03*
X003905Y011884D03*
X003895Y011904D03*
X003885Y011914D03*
X003875Y011934D03*
X003865Y011954D03*
X003845Y011984D03*
X003815Y012034D03*
X003785Y012084D03*
X003755Y012134D03*
X013375Y011964D03*
X014745Y012674D03*
X014765Y012724D03*
X014775Y012754D03*
X014785Y012774D03*
X014785Y012784D03*
X014795Y012804D03*
X014805Y012824D03*
X014805Y012834D03*
X014815Y012854D03*
X014815Y012864D03*
X014825Y012874D03*
X014825Y012884D03*
X014835Y012904D03*
X014835Y012914D03*
X014845Y012924D03*
X014845Y012934D03*
X014845Y012944D03*
X014855Y012954D03*
X014855Y012964D03*
X014865Y012974D03*
X014865Y012984D03*
X014865Y012994D03*
X014875Y013004D03*
X014875Y013014D03*
X014885Y013034D03*
X014885Y013044D03*
X014895Y013054D03*
X014895Y013064D03*
X014905Y013084D03*
X015625Y012544D03*
X015645Y012494D03*
X015655Y012464D03*
X015665Y012444D03*
X015675Y012414D03*
X015685Y012384D03*
X015695Y012364D03*
X015695Y012354D03*
X015705Y012334D03*
X015715Y012314D03*
X015715Y012304D03*
X015725Y012284D03*
X015725Y012274D03*
X015735Y012264D03*
X015735Y012254D03*
X015735Y012244D03*
X015745Y012234D03*
X015745Y012224D03*
X015755Y012204D03*
X015785Y009494D03*
X016705Y008444D03*
X018585Y008434D03*
X018585Y008424D03*
X018585Y008414D03*
X014325Y007054D03*
X014325Y007044D03*
X019145Y011994D03*
X019145Y012004D03*
X019325Y012794D03*
X019265Y013124D03*
X019265Y013134D03*
D21*
X020015Y013334D03*
X020015Y013344D03*
X020015Y012384D03*
X020015Y011434D03*
X017515Y011434D03*
X017515Y011424D03*
X017515Y011414D03*
X017515Y011404D03*
X017515Y011394D03*
X017515Y011384D03*
X017515Y011374D03*
X017515Y011364D03*
X017515Y011354D03*
X017515Y011344D03*
X017515Y011334D03*
X017515Y011324D03*
X017515Y011314D03*
X017515Y011304D03*
X017515Y011294D03*
X017515Y011284D03*
X017515Y011274D03*
X017515Y011264D03*
X017515Y011254D03*
X017515Y011244D03*
X017515Y011234D03*
X017515Y011224D03*
X017515Y011214D03*
X017515Y011444D03*
X017515Y011454D03*
X017515Y011464D03*
X017515Y011474D03*
X017515Y011484D03*
X017515Y011494D03*
X017515Y011504D03*
X017515Y011514D03*
X017515Y011524D03*
X017515Y011534D03*
X017515Y011544D03*
X017515Y011554D03*
X017515Y011564D03*
X017515Y011574D03*
X017515Y011584D03*
X017515Y011594D03*
X017515Y011604D03*
X017515Y011614D03*
X017515Y011624D03*
X015155Y011974D03*
X017645Y009154D03*
X017645Y007414D03*
X012595Y007414D03*
X012595Y007404D03*
X012595Y007394D03*
X012595Y007384D03*
X012595Y007374D03*
X012595Y007364D03*
X012595Y007354D03*
X012595Y007344D03*
X012595Y007334D03*
X012595Y007324D03*
X012595Y007314D03*
X012595Y007304D03*
X012595Y007294D03*
X012595Y007284D03*
X012595Y007274D03*
X012595Y007264D03*
X012595Y007254D03*
X012595Y007244D03*
X012595Y007234D03*
X012595Y007224D03*
X012595Y007214D03*
X012595Y007204D03*
X012595Y007194D03*
X012595Y007184D03*
X012595Y007174D03*
X012595Y007164D03*
X012595Y007154D03*
X012595Y007144D03*
X012595Y007134D03*
X012595Y007124D03*
X012595Y007114D03*
X012595Y007104D03*
X012595Y007094D03*
X012595Y007084D03*
X012595Y007074D03*
X012595Y007064D03*
X012595Y007054D03*
X012595Y007044D03*
X012595Y007424D03*
X012595Y007434D03*
X012595Y007444D03*
X012595Y007454D03*
X012595Y007464D03*
D22*
X014475Y007534D03*
X014475Y007544D03*
X015635Y009004D03*
X017085Y009124D03*
X018205Y009124D03*
X018215Y007454D03*
X017645Y007054D03*
X013225Y012274D03*
X012705Y012614D03*
X015155Y013344D03*
X004865Y010194D03*
X004865Y010184D03*
D23*
X004865Y010144D03*
X013195Y012334D03*
X017115Y009134D03*
X018165Y009134D03*
X015605Y008904D03*
X014505Y007634D03*
X017645Y007064D03*
D24*
X016730Y007964D03*
X016720Y008004D03*
X016720Y008014D03*
X016720Y008024D03*
X016720Y008034D03*
X016710Y008064D03*
X016710Y008074D03*
X016710Y008084D03*
X016710Y008094D03*
X016710Y008104D03*
X016710Y008114D03*
X016710Y008124D03*
X016700Y008144D03*
X016700Y008154D03*
X016700Y008164D03*
X016700Y008174D03*
X016700Y008184D03*
X016700Y008194D03*
X016700Y008204D03*
X016700Y008214D03*
X016700Y008224D03*
X016700Y008234D03*
X016700Y008244D03*
X016700Y008254D03*
X016700Y008264D03*
X016700Y008274D03*
X016700Y008284D03*
X016700Y008294D03*
X016700Y008304D03*
X016700Y008314D03*
X016700Y008324D03*
X016700Y008334D03*
X016700Y008344D03*
X016700Y008354D03*
X016700Y008364D03*
X016700Y008374D03*
X016700Y008384D03*
X016700Y008394D03*
X016700Y008404D03*
X016700Y008414D03*
X016700Y008424D03*
X016700Y008434D03*
X016710Y008454D03*
X016710Y008464D03*
X016710Y008474D03*
X016710Y008484D03*
X016710Y008494D03*
X016710Y008504D03*
X016710Y008514D03*
X016710Y008524D03*
X016720Y008534D03*
X016720Y008544D03*
X016720Y008554D03*
X016720Y008564D03*
X016720Y008574D03*
X016720Y008584D03*
X016730Y008604D03*
X016730Y008614D03*
X016730Y008624D03*
X016740Y008654D03*
X016740Y008664D03*
X015780Y009474D03*
X015780Y009484D03*
X017650Y009554D03*
X018550Y008654D03*
X018560Y008614D03*
X018560Y008604D03*
X018570Y008574D03*
X018570Y008564D03*
X018570Y008554D03*
X018570Y008544D03*
X018570Y008534D03*
X018580Y008514D03*
X018580Y008504D03*
X018580Y008494D03*
X018580Y008484D03*
X018580Y008474D03*
X018580Y008464D03*
X018580Y008454D03*
X018580Y008444D03*
X018590Y008404D03*
X018590Y008394D03*
X018590Y008384D03*
X018590Y008374D03*
X018590Y008364D03*
X018590Y008354D03*
X018590Y008344D03*
X018590Y008334D03*
X018590Y008324D03*
X018590Y008314D03*
X018590Y008304D03*
X018590Y008294D03*
X018590Y008284D03*
X018590Y008274D03*
X018590Y008264D03*
X018590Y008254D03*
X018590Y008244D03*
X018590Y008234D03*
X018590Y008224D03*
X018590Y008214D03*
X018590Y008204D03*
X018590Y008194D03*
X018590Y008184D03*
X018590Y008174D03*
X018590Y008164D03*
X018590Y008154D03*
X018590Y008144D03*
X018580Y008134D03*
X018580Y008124D03*
X018580Y008114D03*
X018580Y008104D03*
X018580Y008094D03*
X018580Y008084D03*
X018580Y008074D03*
X018580Y008064D03*
X018570Y008034D03*
X018570Y008024D03*
X018570Y008014D03*
X018570Y008004D03*
X018560Y007964D03*
X014330Y007074D03*
X014330Y007064D03*
X016060Y011394D03*
X016040Y011444D03*
X016030Y011474D03*
X016020Y011504D03*
X016010Y011524D03*
X016000Y011554D03*
X015990Y011574D03*
X015990Y011584D03*
X015980Y011604D03*
X015980Y011614D03*
X015970Y011624D03*
X015970Y011634D03*
X015960Y011654D03*
X015960Y011664D03*
X015950Y011684D03*
X015950Y011694D03*
X015940Y011704D03*
X015940Y011714D03*
X015940Y011724D03*
X015930Y011734D03*
X015930Y011744D03*
X015920Y011754D03*
X015920Y011764D03*
X014610Y012324D03*
X014630Y012374D03*
X014640Y012404D03*
X014650Y012424D03*
X014650Y012434D03*
X014660Y012454D03*
X014670Y012474D03*
X014670Y012484D03*
X014680Y012504D03*
X014680Y012514D03*
X014690Y012524D03*
X014690Y012534D03*
X014700Y012554D03*
X014700Y012564D03*
X014710Y012574D03*
X014710Y012584D03*
X014710Y012594D03*
X014720Y012604D03*
X014720Y012614D03*
X014730Y012624D03*
X014730Y012634D03*
X014730Y012644D03*
X014740Y012654D03*
X014740Y012664D03*
X014750Y012684D03*
X014750Y012694D03*
X014760Y012704D03*
X014760Y012714D03*
X014770Y012734D03*
X014770Y012744D03*
X014780Y012764D03*
X014790Y012794D03*
X014800Y012814D03*
X014810Y012844D03*
X014830Y012894D03*
X013370Y011974D03*
X019140Y011974D03*
X019140Y011964D03*
X019140Y011954D03*
X019140Y011944D03*
X019140Y011934D03*
X019140Y011924D03*
X019140Y011914D03*
X019140Y011904D03*
X019140Y011894D03*
X019150Y011884D03*
X019150Y011874D03*
X019150Y011864D03*
X019150Y011854D03*
X019140Y011984D03*
X019150Y012014D03*
X019150Y012024D03*
X019150Y012034D03*
X019150Y012044D03*
X019150Y012054D03*
X019160Y012074D03*
X019160Y012084D03*
X019340Y012784D03*
X019270Y013144D03*
X019270Y013154D03*
X005430Y009514D03*
X005300Y009724D03*
X005280Y009754D03*
X005270Y009774D03*
X005260Y009794D03*
X005250Y009804D03*
X005240Y009824D03*
X005230Y009834D03*
X005230Y009844D03*
X005220Y009854D03*
X005220Y009864D03*
X005210Y009874D03*
X005200Y009894D03*
X004600Y009984D03*
X004600Y009994D03*
X004590Y009974D03*
X004580Y009954D03*
X004570Y009934D03*
X005130Y010734D03*
X005140Y010754D03*
X004020Y011694D03*
X004000Y011724D03*
X003990Y011744D03*
X003970Y011774D03*
X003960Y011794D03*
X003940Y011824D03*
X003930Y011844D03*
X003910Y011874D03*
X003900Y011894D03*
X003880Y011924D03*
X003870Y011944D03*
X003860Y011964D03*
X003850Y011974D03*
X003840Y011994D03*
X003830Y012004D03*
X003830Y012014D03*
X003820Y012024D03*
X003810Y012044D03*
X003800Y012054D03*
X003800Y012064D03*
X003790Y012074D03*
X003780Y012094D03*
X003770Y012104D03*
X003770Y012114D03*
X003760Y012124D03*
X003750Y012144D03*
X003740Y012154D03*
X003740Y012164D03*
X003730Y012174D03*
X003730Y012184D03*
X003720Y012194D03*
X003710Y012204D03*
X003710Y012214D03*
X003700Y012224D03*
X003700Y012234D03*
X003690Y012244D03*
X003680Y012254D03*
X003680Y012264D03*
X003670Y012274D03*
X003670Y012284D03*
X003660Y012294D03*
X003650Y012304D03*
X003650Y012314D03*
X003640Y012324D03*
X003630Y012344D03*
X003620Y012354D03*
X003620Y012364D03*
X003610Y012374D03*
X003600Y012394D03*
X003590Y012404D03*
X003590Y012414D03*
X003580Y012424D03*
X003570Y012444D03*
X003560Y012464D03*
X003550Y012474D03*
X003540Y012494D03*
X003530Y012514D03*
X003520Y012524D03*
X003510Y012544D03*
X003500Y012564D03*
X003490Y012574D03*
X003480Y012594D03*
X003460Y012624D03*
X003450Y012644D03*
X003420Y012694D03*
X003390Y012744D03*
X003360Y012794D03*
X003330Y012844D03*
X003300Y012894D03*
D25*
X004865Y010094D03*
X014535Y007734D03*
X014535Y007724D03*
X015575Y008804D03*
X015575Y008814D03*
X017645Y007074D03*
X015155Y013194D03*
D26*
X015155Y013114D03*
X015545Y008714D03*
X015545Y008704D03*
X014565Y007834D03*
X014565Y007824D03*
X017645Y007084D03*
X004865Y010044D03*
D27*
X004585Y009964D03*
X004575Y009944D03*
X004565Y009924D03*
X004555Y009914D03*
X004555Y009904D03*
X004545Y009884D03*
X005245Y009814D03*
X005265Y009784D03*
X005275Y009764D03*
X005285Y009744D03*
X005295Y009734D03*
X005305Y009714D03*
X005315Y009704D03*
X005315Y009694D03*
X005325Y009684D03*
X005325Y009674D03*
X005335Y009664D03*
X005345Y009654D03*
X005345Y009644D03*
X005355Y009634D03*
X005365Y009624D03*
X005365Y009614D03*
X005375Y009604D03*
X005375Y009594D03*
X005385Y009584D03*
X005395Y009574D03*
X005395Y009564D03*
X005405Y009554D03*
X005415Y009544D03*
X005415Y009534D03*
X005425Y009524D03*
X005435Y009504D03*
X005445Y009494D03*
X005445Y009484D03*
X005455Y009474D03*
X005465Y009464D03*
X005465Y009454D03*
X005475Y009444D03*
X005475Y009434D03*
X005485Y009424D03*
X005495Y009414D03*
X005495Y009404D03*
X005505Y009394D03*
X005515Y009384D03*
X005515Y009374D03*
X005525Y009364D03*
X005525Y009354D03*
X005535Y009344D03*
X005545Y009334D03*
X005545Y009324D03*
X005555Y009314D03*
X005565Y009294D03*
X005575Y009284D03*
X005575Y009274D03*
X005585Y009264D03*
X005595Y009244D03*
X005605Y009234D03*
X005615Y009214D03*
X005625Y009204D03*
X005625Y009194D03*
X005635Y009184D03*
X005645Y009164D03*
X005655Y009154D03*
X005665Y009134D03*
X005675Y009114D03*
X005685Y009104D03*
X005695Y009084D03*
X005705Y009074D03*
X005715Y009054D03*
X005725Y009034D03*
X005735Y009024D03*
X005745Y009004D03*
X005765Y008974D03*
X005785Y008944D03*
X005795Y008924D03*
X005815Y008894D03*
X005845Y008844D03*
X005865Y008814D03*
X005895Y008764D03*
X005125Y010724D03*
X005135Y010744D03*
X005145Y010764D03*
X005155Y010774D03*
X005155Y010784D03*
X005165Y010794D03*
X005165Y010804D03*
X005175Y010814D03*
X005185Y010834D03*
X005195Y010854D03*
X003635Y012334D03*
X003605Y012384D03*
X003575Y012434D03*
X003565Y012454D03*
X003545Y012484D03*
X003535Y012504D03*
X003515Y012534D03*
X003505Y012554D03*
X003485Y012584D03*
X003475Y012604D03*
X003465Y012614D03*
X003455Y012634D03*
X003445Y012654D03*
X003435Y012664D03*
X003435Y012674D03*
X003425Y012684D03*
X003415Y012704D03*
X003405Y012714D03*
X003405Y012724D03*
X003395Y012734D03*
X003385Y012754D03*
X003375Y012764D03*
X003375Y012774D03*
X003365Y012784D03*
X003355Y012804D03*
X003345Y012814D03*
X003345Y012824D03*
X003335Y012834D03*
X003325Y012854D03*
X003315Y012864D03*
X003315Y012874D03*
X003305Y012884D03*
X003295Y012904D03*
X003285Y012914D03*
X003285Y012924D03*
X003275Y012934D03*
X003265Y012954D03*
X003255Y012964D03*
X003255Y012974D03*
X003245Y012984D03*
X003235Y013004D03*
X003225Y013014D03*
X003225Y013024D03*
X003215Y013034D03*
X003205Y013054D03*
X003195Y013064D03*
X003195Y013074D03*
X003185Y013084D03*
X003175Y013104D03*
X003165Y013114D03*
X003165Y013124D03*
X003155Y013134D03*
X003145Y013154D03*
X003135Y013174D03*
X003125Y013184D03*
X003115Y013204D03*
X003095Y013234D03*
X003085Y013254D03*
X003065Y013284D03*
X003055Y013304D03*
X003035Y013334D03*
X003025Y013354D03*
X003005Y013384D03*
X002995Y013404D03*
X002965Y013454D03*
X002935Y013504D03*
X013365Y011984D03*
X014375Y011724D03*
X014565Y012204D03*
X014565Y012214D03*
X014575Y012224D03*
X014575Y012234D03*
X014575Y012244D03*
X014585Y012254D03*
X014585Y012264D03*
X014595Y012274D03*
X014595Y012284D03*
X014595Y012294D03*
X014605Y012304D03*
X014605Y012314D03*
X014615Y012334D03*
X014615Y012344D03*
X014625Y012354D03*
X014625Y012364D03*
X014635Y012384D03*
X014635Y012394D03*
X014645Y012414D03*
X014655Y012444D03*
X014665Y012464D03*
X014675Y012494D03*
X014695Y012544D03*
X015955Y011674D03*
X015965Y011644D03*
X015985Y011594D03*
X015995Y011564D03*
X016005Y011544D03*
X016005Y011534D03*
X016015Y011514D03*
X016025Y011494D03*
X016025Y011484D03*
X016035Y011464D03*
X016035Y011454D03*
X016045Y011434D03*
X016045Y011424D03*
X016055Y011414D03*
X016055Y011404D03*
X016065Y011384D03*
X016065Y011374D03*
X016075Y011364D03*
X016075Y011354D03*
X016075Y011344D03*
X016085Y011334D03*
X016085Y011324D03*
X016095Y011304D03*
X016095Y011294D03*
X016105Y011284D03*
X016105Y011274D03*
X016105Y011264D03*
X016115Y011254D03*
X016115Y011244D03*
X016125Y011224D03*
X016125Y011214D03*
X015775Y009464D03*
X015775Y009454D03*
X016765Y008744D03*
X016755Y008724D03*
X016755Y008714D03*
X016755Y008704D03*
X016745Y008694D03*
X016745Y008684D03*
X016745Y008674D03*
X016735Y008644D03*
X016735Y008634D03*
X016725Y008594D03*
X016705Y008134D03*
X016715Y008054D03*
X016715Y008044D03*
X016725Y007994D03*
X016725Y007984D03*
X016725Y007974D03*
X016735Y007954D03*
X016735Y007944D03*
X016735Y007934D03*
X016735Y007924D03*
X016745Y007914D03*
X016745Y007904D03*
X016745Y007894D03*
X016755Y007864D03*
X018545Y007904D03*
X018545Y007914D03*
X018555Y007924D03*
X018555Y007934D03*
X018555Y007944D03*
X018555Y007954D03*
X018565Y007974D03*
X018565Y007984D03*
X018565Y007994D03*
X018575Y008044D03*
X018575Y008054D03*
X018575Y008524D03*
X018565Y008584D03*
X018565Y008594D03*
X018555Y008624D03*
X018555Y008634D03*
X018555Y008644D03*
X018545Y008664D03*
X018545Y008674D03*
X018545Y008684D03*
X018535Y008704D03*
X018535Y008714D03*
X018525Y008744D03*
X019155Y011824D03*
X019155Y011834D03*
X019155Y011844D03*
X019155Y012064D03*
X019165Y012094D03*
X019165Y012104D03*
X019175Y012114D03*
X019175Y012124D03*
X019345Y012774D03*
X019275Y013164D03*
X014335Y007084D03*
D28*
X017640Y007094D03*
X004870Y010004D03*
D29*
X004550Y009894D03*
X004540Y009874D03*
X004530Y009864D03*
X004530Y009854D03*
X004520Y009844D03*
X004520Y009834D03*
X004510Y009824D03*
X004500Y009804D03*
X004470Y009754D03*
X005560Y009304D03*
X005590Y009254D03*
X005610Y009224D03*
X005640Y009174D03*
X005660Y009144D03*
X005670Y009124D03*
X005690Y009094D03*
X005710Y009064D03*
X005720Y009044D03*
X005740Y009014D03*
X005750Y008994D03*
X005760Y008984D03*
X005770Y008964D03*
X005780Y008954D03*
X005790Y008934D03*
X005800Y008914D03*
X005810Y008904D03*
X005820Y008884D03*
X005830Y008874D03*
X005830Y008864D03*
X005840Y008854D03*
X005850Y008834D03*
X005860Y008824D03*
X005870Y008804D03*
X005880Y008794D03*
X005880Y008784D03*
X005890Y008774D03*
X005900Y008754D03*
X005910Y008744D03*
X005910Y008734D03*
X005920Y008724D03*
X005930Y008714D03*
X005930Y008704D03*
X005940Y008694D03*
X005940Y008684D03*
X005950Y008674D03*
X005960Y008664D03*
X005960Y008654D03*
X005970Y008644D03*
X005980Y008634D03*
X005980Y008624D03*
X005990Y008614D03*
X005990Y008604D03*
X006000Y008594D03*
X006010Y008584D03*
X006010Y008574D03*
X006020Y008564D03*
X006030Y008544D03*
X006040Y008534D03*
X006040Y008524D03*
X006050Y008514D03*
X006060Y008504D03*
X006060Y008494D03*
X006070Y008484D03*
X006080Y008464D03*
X006090Y008454D03*
X006090Y008444D03*
X006100Y008434D03*
X006110Y008414D03*
X006120Y008404D03*
X006130Y008384D03*
X006140Y008374D03*
X006140Y008364D03*
X006150Y008354D03*
X006160Y008334D03*
X006170Y008324D03*
X006180Y008304D03*
X006190Y008284D03*
X006200Y008274D03*
X006210Y008254D03*
X006220Y008244D03*
X006230Y008224D03*
X006240Y008204D03*
X006250Y008194D03*
X006260Y008174D03*
X006280Y008144D03*
X006300Y008114D03*
X006310Y008094D03*
X006330Y008064D03*
X006360Y008014D03*
X006410Y007934D03*
X005180Y010824D03*
X005190Y010844D03*
X005200Y010864D03*
X005210Y010874D03*
X005210Y010884D03*
X005220Y010894D03*
X005220Y010904D03*
X005230Y010914D03*
X005240Y010934D03*
X005250Y010954D03*
X005260Y010964D03*
X005270Y010984D03*
X005280Y011004D03*
X003270Y012944D03*
X003240Y012994D03*
X003210Y013044D03*
X003180Y013094D03*
X003150Y013144D03*
X003140Y013164D03*
X003120Y013194D03*
X003110Y013214D03*
X003100Y013224D03*
X003090Y013244D03*
X003080Y013264D03*
X003070Y013274D03*
X003060Y013294D03*
X003050Y013314D03*
X003040Y013324D03*
X003030Y013344D03*
X003020Y013364D03*
X003010Y013374D03*
X003000Y013394D03*
X002990Y013414D03*
X002980Y013424D03*
X002980Y013434D03*
X002970Y013444D03*
X002960Y013464D03*
X002950Y013474D03*
X002950Y013484D03*
X002940Y013494D03*
X002930Y013514D03*
X002920Y013524D03*
X002920Y013534D03*
X002910Y013544D03*
X002900Y013554D03*
X002900Y013564D03*
X002890Y013574D03*
X002890Y013584D03*
X002880Y013594D03*
X002870Y013604D03*
X002870Y013614D03*
X002860Y013624D03*
X002860Y013634D03*
X002850Y013644D03*
X002840Y013654D03*
X002840Y013664D03*
X002830Y013674D03*
X002830Y013684D03*
X013360Y011994D03*
X014320Y011594D03*
X014320Y011584D03*
X014320Y011574D03*
X014310Y011564D03*
X014310Y011554D03*
X014300Y011534D03*
X014300Y011524D03*
X014290Y011514D03*
X014290Y011504D03*
X014280Y011484D03*
X014280Y011474D03*
X014270Y011454D03*
X014260Y011434D03*
X014260Y011424D03*
X014250Y011404D03*
X014240Y011384D03*
X014240Y011374D03*
X014230Y011354D03*
X014220Y011324D03*
X014210Y011304D03*
X014200Y011274D03*
X014190Y011254D03*
X014180Y011224D03*
X014330Y011604D03*
X014330Y011614D03*
X014340Y011624D03*
X014340Y011634D03*
X014340Y011644D03*
X014350Y011654D03*
X014350Y011664D03*
X014360Y011674D03*
X014360Y011684D03*
X014360Y011694D03*
X014370Y011704D03*
X014370Y011714D03*
X014380Y011734D03*
X014380Y011744D03*
X014390Y011754D03*
X014390Y011764D03*
X016090Y011314D03*
X016120Y011234D03*
X015770Y009444D03*
X016790Y008804D03*
X016780Y008784D03*
X016780Y008774D03*
X016770Y008764D03*
X016770Y008754D03*
X016760Y008734D03*
X016750Y007884D03*
X016750Y007874D03*
X016760Y007854D03*
X016760Y007844D03*
X016770Y007824D03*
X016780Y007794D03*
X018520Y007824D03*
X018530Y007844D03*
X018530Y007854D03*
X018530Y007864D03*
X018540Y007874D03*
X018540Y007884D03*
X018540Y007894D03*
X018540Y008694D03*
X018530Y008724D03*
X018530Y008734D03*
X018520Y008754D03*
X018520Y008764D03*
X018510Y008784D03*
X019170Y011784D03*
X019170Y011794D03*
X019160Y011804D03*
X019160Y011814D03*
X019180Y012134D03*
X019190Y012144D03*
X019360Y012764D03*
X019280Y013174D03*
X019290Y013184D03*
X015160Y013684D03*
X015160Y013694D03*
X014340Y007104D03*
X014340Y007094D03*
D30*
X017645Y007104D03*
D31*
X017645Y007114D03*
D32*
X017645Y007124D03*
D33*
X017645Y007134D03*
D34*
X017645Y007144D03*
D35*
X017645Y007154D03*
D36*
X017645Y007164D03*
D37*
X016840Y007674D03*
X016830Y007694D03*
X016840Y008904D03*
X016850Y008924D03*
X016860Y008934D03*
X015750Y009374D03*
X015750Y009384D03*
X014360Y007164D03*
X018450Y007674D03*
X018460Y007694D03*
X018450Y008904D03*
X018440Y008914D03*
X018440Y008924D03*
X018430Y008934D03*
X019200Y011724D03*
X019230Y012204D03*
X019240Y012214D03*
X015160Y013634D03*
X015160Y013644D03*
X013340Y012034D03*
X012420Y012354D03*
X012420Y012364D03*
X012410Y012344D03*
X012410Y012334D03*
X012400Y012324D03*
X012390Y012314D03*
X012390Y012304D03*
X012380Y012294D03*
X012370Y012274D03*
X012360Y012264D03*
X012350Y012244D03*
D38*
X012955Y012584D03*
X012955Y012594D03*
X017645Y007174D03*
D39*
X016855Y007654D03*
X016845Y007664D03*
X016865Y008944D03*
X015745Y009364D03*
X014365Y007184D03*
X014365Y007174D03*
X018435Y007654D03*
X018445Y007664D03*
X018455Y007684D03*
X018425Y008944D03*
X018415Y008954D03*
X019215Y011714D03*
X019405Y012734D03*
X019315Y013224D03*
X019325Y013234D03*
X015165Y013624D03*
X013335Y012044D03*
X012375Y012284D03*
X012355Y012254D03*
X012345Y012234D03*
X012335Y012224D03*
X012335Y012214D03*
X012325Y012204D03*
X012315Y012194D03*
X012315Y012184D03*
X012305Y012174D03*
X012295Y012154D03*
X012285Y012144D03*
X012285Y012134D03*
X012275Y012124D03*
X012265Y012104D03*
X012245Y012074D03*
D40*
X012935Y012524D03*
X017645Y007184D03*
D41*
X017645Y007194D03*
X012925Y012494D03*
D42*
X013330Y012054D03*
X012300Y012164D03*
X012270Y012114D03*
X012260Y012094D03*
X012250Y012084D03*
X012240Y012064D03*
X012230Y012054D03*
X012230Y012044D03*
X012220Y012034D03*
X012210Y012024D03*
X012210Y012014D03*
X012200Y012004D03*
X012190Y011984D03*
X012180Y011974D03*
X012170Y011954D03*
X012160Y011934D03*
X012140Y011904D03*
X015160Y013604D03*
X015160Y013614D03*
X019250Y012224D03*
X019260Y012234D03*
X019220Y011704D03*
X018400Y008974D03*
X018410Y008964D03*
X018430Y007644D03*
X018420Y007634D03*
X016870Y007634D03*
X016860Y007644D03*
X016870Y008954D03*
X016880Y008964D03*
X016890Y008974D03*
X015740Y009344D03*
X015740Y009354D03*
X014370Y007204D03*
X014370Y007194D03*
X004870Y010364D03*
D43*
X012905Y012434D03*
X017645Y007204D03*
X020235Y011224D03*
D44*
X017645Y007214D03*
X012895Y012404D03*
D45*
X013325Y012064D03*
X012195Y011994D03*
X012175Y011964D03*
X012165Y011944D03*
X012155Y011924D03*
X012145Y011914D03*
X012135Y011894D03*
X012125Y011884D03*
X012125Y011874D03*
X012115Y011864D03*
X012105Y011854D03*
X012105Y011844D03*
X012095Y011834D03*
X012085Y011814D03*
X012065Y011784D03*
X012035Y011734D03*
X015735Y009334D03*
X015735Y009324D03*
X016895Y008984D03*
X016905Y008994D03*
X016875Y007624D03*
X016885Y007614D03*
X018415Y007624D03*
X014375Y007214D03*
X019225Y011694D03*
X019335Y013244D03*
X004865Y010354D03*
D46*
X012885Y012374D03*
X017645Y007224D03*
D47*
X016900Y007594D03*
X016890Y007604D03*
X018390Y007594D03*
X018400Y007604D03*
X018410Y007614D03*
X018390Y008984D03*
X018380Y008994D03*
X017650Y009544D03*
X015730Y009314D03*
X014380Y007234D03*
X014380Y007224D03*
X011960Y011614D03*
X011980Y011644D03*
X011990Y011664D03*
X012000Y011674D03*
X012010Y011694D03*
X012020Y011704D03*
X012020Y011714D03*
X012030Y011724D03*
X012040Y011744D03*
X012050Y011754D03*
X012050Y011764D03*
X012060Y011774D03*
X012070Y011794D03*
X012080Y011804D03*
X012090Y011824D03*
X013320Y012074D03*
X015160Y013584D03*
X015160Y013594D03*
X019430Y012724D03*
X004870Y010384D03*
X004870Y010374D03*
X004860Y010344D03*
D48*
X017645Y007234D03*
D49*
X017645Y007244D03*
D50*
X016915Y007574D03*
X016905Y007584D03*
X018375Y007574D03*
X018385Y007584D03*
X018375Y009004D03*
X018365Y009014D03*
X016925Y009014D03*
X016915Y009004D03*
X015725Y009294D03*
X015725Y009304D03*
X014385Y007244D03*
X011855Y011444D03*
X011875Y011474D03*
X011885Y011494D03*
X011895Y011504D03*
X011905Y011524D03*
X011915Y011534D03*
X011915Y011544D03*
X011925Y011554D03*
X011925Y011564D03*
X011935Y011574D03*
X011945Y011584D03*
X011945Y011594D03*
X011955Y011604D03*
X011965Y011624D03*
X011975Y011634D03*
X011985Y011654D03*
X012005Y011684D03*
X013315Y012084D03*
X012655Y012764D03*
X012645Y012774D03*
X012635Y012784D03*
X012625Y012794D03*
X012615Y012804D03*
X015165Y013574D03*
X019275Y012244D03*
X019235Y011684D03*
X004865Y010334D03*
D51*
X017645Y007254D03*
X020175Y013634D03*
D52*
X019350Y013254D03*
X019290Y012254D03*
X019250Y011674D03*
X016930Y009024D03*
X015720Y009274D03*
X015720Y009284D03*
X016920Y007564D03*
X016930Y007554D03*
X014390Y007264D03*
X014390Y007254D03*
X011770Y011304D03*
X011780Y011324D03*
X011790Y011334D03*
X011800Y011354D03*
X011810Y011374D03*
X011820Y011384D03*
X011830Y011404D03*
X011840Y011414D03*
X011840Y011424D03*
X011850Y011434D03*
X011860Y011454D03*
X011870Y011464D03*
X011880Y011484D03*
X011900Y011514D03*
X013310Y012094D03*
X012690Y012724D03*
X012680Y012734D03*
X012670Y012744D03*
X012660Y012754D03*
X012610Y012814D03*
X012600Y012824D03*
X012590Y012834D03*
X012580Y012844D03*
X012570Y012854D03*
X012560Y012864D03*
X012550Y012874D03*
X012540Y012884D03*
X012530Y012894D03*
X012520Y012904D03*
X012510Y012914D03*
X012500Y012924D03*
X015160Y013554D03*
X015160Y013564D03*
X004870Y010404D03*
X004870Y010394D03*
D53*
X017645Y009314D03*
X017645Y007264D03*
X020165Y013624D03*
D54*
X020145Y013604D03*
X020145Y011264D03*
X017645Y009294D03*
X017645Y007274D03*
D55*
X018355Y007554D03*
X018365Y007564D03*
X018355Y009024D03*
X018345Y009034D03*
X016945Y009034D03*
X015715Y009264D03*
X014395Y007284D03*
X014395Y007274D03*
X011715Y011214D03*
X011725Y011234D03*
X011735Y011244D03*
X011735Y011254D03*
X011745Y011264D03*
X011755Y011274D03*
X011755Y011284D03*
X011765Y011294D03*
X011775Y011314D03*
X011795Y011344D03*
X011805Y011364D03*
X011825Y011394D03*
X013305Y012104D03*
X012495Y012934D03*
X012485Y012944D03*
X012475Y012954D03*
X012465Y012964D03*
X012455Y012974D03*
X012445Y012984D03*
X012435Y012994D03*
X012425Y013004D03*
X012415Y013014D03*
X012405Y013024D03*
X012395Y013034D03*
X012385Y013044D03*
X012375Y013054D03*
X012375Y013064D03*
X012365Y013074D03*
X012355Y013084D03*
X012345Y013094D03*
X012335Y013104D03*
X012325Y013114D03*
X012315Y013124D03*
X012305Y013134D03*
X012295Y013144D03*
X012285Y013154D03*
X012275Y013164D03*
X012265Y013174D03*
X004865Y010324D03*
X004865Y010314D03*
D56*
X017645Y009284D03*
X017645Y007284D03*
X020135Y011274D03*
X020135Y013594D03*
D57*
X020125Y013584D03*
X020125Y012564D03*
X017645Y009274D03*
X017645Y007294D03*
D58*
X017645Y007304D03*
X017645Y009264D03*
X020115Y012504D03*
X020115Y012574D03*
D59*
X019375Y013264D03*
X019265Y011664D03*
X018325Y009054D03*
X016965Y009054D03*
X015705Y009224D03*
X015705Y009234D03*
X014405Y007314D03*
X014405Y007304D03*
X018335Y007534D03*
X018345Y007544D03*
X013295Y012124D03*
X012695Y012704D03*
X012145Y013304D03*
X012135Y013314D03*
X012125Y013324D03*
X012115Y013334D03*
X012105Y013344D03*
X012095Y013354D03*
X012035Y013424D03*
X012025Y013434D03*
X012015Y013444D03*
X012005Y013454D03*
X011995Y013464D03*
X011985Y013474D03*
X011975Y013484D03*
X011965Y013494D03*
X011955Y013504D03*
X011945Y013514D03*
X011935Y013524D03*
X011925Y013534D03*
X011915Y013544D03*
X011805Y013664D03*
X004865Y010304D03*
D60*
X017645Y009254D03*
X017645Y007314D03*
X020105Y013554D03*
D61*
X020095Y013544D03*
X020095Y012604D03*
X017645Y009244D03*
X017645Y007324D03*
X015155Y012174D03*
X015155Y012184D03*
D62*
X015160Y013504D03*
X015160Y013514D03*
X013290Y012134D03*
X011910Y013554D03*
X011900Y013564D03*
X011890Y013574D03*
X011880Y013584D03*
X011870Y013594D03*
X011860Y013604D03*
X011850Y013614D03*
X011840Y013624D03*
X011830Y013634D03*
X011820Y013644D03*
X011810Y013654D03*
X011800Y013674D03*
X011790Y013684D03*
X011780Y013694D03*
X015700Y009214D03*
X016980Y009064D03*
X018310Y009064D03*
X016960Y007524D03*
X014410Y007334D03*
X014410Y007324D03*
X019310Y012264D03*
X004870Y010434D03*
X004870Y010424D03*
D63*
X012665Y008554D03*
X012665Y008544D03*
X012665Y008534D03*
X012665Y008524D03*
X012665Y008514D03*
X012665Y008504D03*
X012665Y008494D03*
X012665Y008484D03*
X012665Y008474D03*
X012665Y008464D03*
X012665Y008454D03*
X012665Y008444D03*
X012665Y008434D03*
X012665Y008424D03*
X012665Y008414D03*
X012665Y008404D03*
X012665Y008394D03*
X012665Y008384D03*
X012665Y008374D03*
X012665Y008364D03*
X012665Y008354D03*
X012665Y008344D03*
X012665Y008334D03*
X012665Y008324D03*
X012665Y008314D03*
X012665Y008304D03*
X012665Y008294D03*
X012665Y008284D03*
X012665Y008274D03*
X012665Y008264D03*
X012665Y008254D03*
X012665Y008244D03*
X012665Y008234D03*
X012665Y008224D03*
X012665Y008214D03*
X012665Y008204D03*
X012665Y008194D03*
X012665Y008184D03*
X012665Y008174D03*
X012665Y008164D03*
X012665Y008154D03*
X012665Y008144D03*
X017645Y007334D03*
X017645Y009234D03*
X020085Y011324D03*
X020085Y012474D03*
X020085Y013524D03*
X017585Y012724D03*
X017585Y012714D03*
X017585Y012704D03*
X017585Y012694D03*
X017585Y012684D03*
X017585Y012674D03*
X017585Y012664D03*
X017585Y012654D03*
X017585Y012644D03*
X017585Y012634D03*
X017585Y012624D03*
X017585Y012614D03*
X017585Y012604D03*
X017585Y012594D03*
X017585Y012584D03*
X017585Y012574D03*
X017585Y012564D03*
X017585Y012554D03*
X017585Y012544D03*
X017585Y012534D03*
X017585Y012524D03*
X017585Y012514D03*
X017585Y012504D03*
X017585Y012494D03*
X017585Y012484D03*
X017585Y012474D03*
X017585Y012464D03*
X017585Y012454D03*
X017585Y012444D03*
X017585Y012434D03*
X017585Y012424D03*
X017585Y012414D03*
X017585Y012404D03*
X017585Y012394D03*
X017585Y012384D03*
X017585Y012374D03*
X017585Y012364D03*
X017585Y012354D03*
X017585Y012344D03*
X017585Y012334D03*
X017585Y012324D03*
X017585Y012314D03*
X017585Y012304D03*
X015155Y012154D03*
D64*
X015155Y012134D03*
X015155Y012124D03*
X017645Y009224D03*
X017645Y007344D03*
X020075Y011334D03*
X020075Y012464D03*
X020075Y012634D03*
X020075Y013504D03*
D65*
X019285Y011654D03*
X015695Y009204D03*
X015695Y009194D03*
X016975Y007514D03*
X018315Y007514D03*
X018325Y007524D03*
X014415Y007344D03*
X013285Y012144D03*
X012695Y012694D03*
X004865Y010294D03*
X004865Y010284D03*
D66*
X015155Y012104D03*
X017645Y009214D03*
X017645Y007354D03*
X020065Y011344D03*
X020065Y012454D03*
X020065Y012654D03*
X020065Y013484D03*
D67*
X015160Y013484D03*
X015160Y013474D03*
X015160Y013494D03*
X013280Y012154D03*
X012690Y012684D03*
X015690Y009184D03*
X016990Y009074D03*
X017650Y009534D03*
X018300Y009074D03*
X018300Y007504D03*
X016990Y007504D03*
X014420Y007364D03*
X014420Y007354D03*
X004870Y010444D03*
X004870Y010454D03*
D68*
X015155Y012074D03*
X015155Y012084D03*
X017645Y009204D03*
X017645Y007374D03*
X017645Y007364D03*
X020055Y011364D03*
X020055Y012444D03*
X020055Y012674D03*
X020055Y013464D03*
D69*
X015685Y009174D03*
X015685Y009164D03*
X017005Y009084D03*
X018285Y009084D03*
X014425Y007374D03*
X013275Y012164D03*
X013275Y012174D03*
X012695Y012674D03*
X004865Y010274D03*
X004865Y010264D03*
D70*
X015155Y012054D03*
X017645Y009194D03*
X017645Y007384D03*
X020045Y012424D03*
X020045Y012704D03*
X020045Y013434D03*
D71*
X015160Y013454D03*
X015160Y013464D03*
X013270Y012184D03*
X015680Y009154D03*
X015680Y009144D03*
X017020Y009094D03*
X017000Y007494D03*
X018290Y007494D03*
X014430Y007394D03*
X014430Y007384D03*
X004870Y010464D03*
D72*
X015155Y012024D03*
X017645Y009174D03*
X017645Y007394D03*
X020035Y011394D03*
X020035Y012414D03*
X020035Y013404D03*
X020035Y013414D03*
D73*
X020025Y013384D03*
X020025Y013374D03*
X020025Y012394D03*
X020025Y011414D03*
X017645Y009164D03*
X017645Y007404D03*
X015155Y012004D03*
D74*
X013265Y012194D03*
X012695Y012664D03*
X015675Y009134D03*
X014435Y007414D03*
X014435Y007404D03*
X017015Y007484D03*
X018275Y007484D03*
X018265Y009094D03*
X019345Y012274D03*
X004865Y010254D03*
D75*
X015155Y011954D03*
X017645Y009144D03*
X017645Y007424D03*
X020005Y011454D03*
X020005Y011464D03*
X020005Y012354D03*
X020005Y013294D03*
X020005Y013304D03*
D76*
X019310Y011644D03*
X015670Y009124D03*
X015670Y009114D03*
X014440Y007424D03*
X013260Y012204D03*
X015160Y013424D03*
X015160Y013434D03*
X015160Y013444D03*
X004870Y010484D03*
X004870Y010474D03*
D77*
X015155Y011924D03*
X019995Y012334D03*
X019995Y011484D03*
X017645Y007434D03*
D78*
X018185Y007444D03*
X017655Y009514D03*
X015615Y008944D03*
X015615Y008934D03*
X014495Y007604D03*
X014495Y007594D03*
X013205Y012314D03*
X015155Y013294D03*
X004865Y010154D03*
D79*
X004870Y010164D03*
X004870Y010564D03*
X013210Y012304D03*
X015160Y013304D03*
X015160Y013314D03*
X015620Y008954D03*
X014490Y007584D03*
X017100Y007444D03*
D80*
X017070Y007454D03*
X015640Y009014D03*
X015640Y009024D03*
X014470Y007524D03*
X014470Y007514D03*
X013230Y012264D03*
X012700Y012624D03*
X015160Y013354D03*
X015160Y013364D03*
X004870Y010534D03*
X004870Y010524D03*
D81*
X004870Y010494D03*
X012700Y012644D03*
X013250Y012224D03*
X015160Y013404D03*
X015160Y013414D03*
X015660Y009084D03*
X014450Y007454D03*
X018250Y009104D03*
D82*
X018230Y009114D03*
X017060Y009114D03*
X015650Y009054D03*
X014460Y007494D03*
X014460Y007484D03*
X018240Y007464D03*
X013240Y012244D03*
X012700Y012634D03*
X015160Y013374D03*
X015160Y013384D03*
X015160Y013394D03*
X004870Y010514D03*
X004870Y010214D03*
D83*
X004865Y010224D03*
X004865Y010504D03*
X013245Y012234D03*
X015655Y009074D03*
X015655Y009064D03*
X014455Y007474D03*
X014455Y007464D03*
X017045Y007464D03*
X019425Y013274D03*
D84*
X017655Y009524D03*
X015645Y009044D03*
X015645Y009034D03*
X014465Y007504D03*
X013235Y012254D03*
X004865Y010204D03*
D85*
X004870Y010544D03*
X013220Y012284D03*
X015160Y013324D03*
X015160Y013334D03*
X015630Y008994D03*
X015630Y008984D03*
X014480Y007554D03*
D86*
X014485Y007564D03*
X014485Y007574D03*
X015625Y008964D03*
X015625Y008974D03*
X013215Y012294D03*
X019405Y012284D03*
X004865Y010554D03*
X004865Y010174D03*
D87*
X004870Y010574D03*
X004870Y010584D03*
X013200Y012324D03*
X015160Y013274D03*
X015160Y013284D03*
X015610Y008924D03*
X015610Y008914D03*
X014500Y007624D03*
X014500Y007614D03*
D88*
X014510Y007644D03*
X014510Y007654D03*
X015600Y008884D03*
X015600Y008894D03*
X013190Y012344D03*
X015160Y013254D03*
X015160Y013264D03*
X004870Y010594D03*
X004870Y010134D03*
D89*
X004865Y010124D03*
X004865Y010604D03*
X013185Y012354D03*
X015155Y013244D03*
X015595Y008874D03*
X014515Y007664D03*
D90*
X014520Y007674D03*
X014520Y007684D03*
X015590Y008854D03*
X015590Y008864D03*
X013180Y012364D03*
X015160Y013224D03*
X015160Y013234D03*
X004870Y010614D03*
X004870Y010114D03*
D91*
X004865Y010104D03*
X014525Y007704D03*
X014525Y007694D03*
X015585Y008834D03*
X015585Y008844D03*
X017655Y009504D03*
D92*
X015580Y008824D03*
X014530Y007714D03*
X019410Y011634D03*
X015160Y013204D03*
X015160Y013214D03*
X004870Y010634D03*
X004870Y010624D03*
D93*
X004870Y010644D03*
X004870Y010084D03*
X014540Y007754D03*
X014540Y007744D03*
X015570Y008784D03*
X015570Y008794D03*
X015160Y013174D03*
X015160Y013184D03*
D94*
X015155Y013164D03*
X015565Y008774D03*
X014545Y007764D03*
X004865Y010074D03*
X004865Y010654D03*
D95*
X004870Y010664D03*
X014550Y007784D03*
X014550Y007774D03*
X015560Y008754D03*
X015560Y008764D03*
X015160Y013154D03*
D96*
X015155Y013144D03*
X017655Y009494D03*
X015555Y008744D03*
X014555Y007794D03*
X004865Y010064D03*
D97*
X004870Y010054D03*
X004870Y010674D03*
X004870Y010684D03*
X014560Y007814D03*
X014560Y007804D03*
X015550Y008724D03*
X015550Y008734D03*
X015160Y013124D03*
X015160Y013134D03*
D98*
X015160Y013104D03*
X015540Y008694D03*
X014570Y007844D03*
X004870Y010034D03*
X004870Y010694D03*
D99*
X004865Y010704D03*
X004865Y010024D03*
X014575Y007864D03*
X014575Y007854D03*
X015535Y008674D03*
X015535Y008684D03*
X015155Y013094D03*
D100*
X017650Y009484D03*
X015530Y008664D03*
X015530Y008654D03*
X014580Y007874D03*
X004870Y010714D03*
D101*
X004865Y010014D03*
X014585Y007894D03*
X014585Y007884D03*
X015525Y008644D03*
D102*
X014305Y008644D03*
X014305Y008634D03*
X014305Y008624D03*
X014305Y008614D03*
X014305Y008604D03*
X014305Y008594D03*
X014305Y008584D03*
X014305Y008574D03*
X014305Y008564D03*
X014305Y008554D03*
X014305Y008544D03*
X014305Y008534D03*
X014305Y008524D03*
X014305Y008514D03*
X014305Y008504D03*
X014305Y008494D03*
X014305Y008484D03*
X014305Y008474D03*
X014305Y008464D03*
X014305Y008454D03*
X014305Y008444D03*
X014305Y008434D03*
X014305Y008424D03*
X014305Y008414D03*
X014305Y008404D03*
X014305Y008394D03*
X014305Y008384D03*
X014305Y008374D03*
X014305Y008364D03*
X014305Y008354D03*
X014305Y008344D03*
X014305Y008334D03*
X014305Y008324D03*
X014305Y008314D03*
X014305Y008304D03*
X014305Y008294D03*
X014305Y008284D03*
X014305Y008274D03*
X014305Y008264D03*
X014305Y008254D03*
X014305Y008244D03*
X014305Y008234D03*
X014305Y008224D03*
X014305Y008214D03*
X014305Y008204D03*
X014305Y008194D03*
X014305Y008184D03*
X014305Y008174D03*
X014305Y008164D03*
X014305Y008154D03*
X014305Y008144D03*
X014305Y008134D03*
X014305Y008124D03*
X014305Y008114D03*
X014305Y008104D03*
X014305Y008094D03*
X014305Y008084D03*
X014305Y008074D03*
X014305Y008064D03*
X014305Y008054D03*
X014305Y008044D03*
X014305Y008034D03*
X014305Y008024D03*
X014305Y008014D03*
X014305Y008004D03*
X014305Y007994D03*
X014305Y007984D03*
X014305Y007974D03*
X014305Y007964D03*
X014305Y007954D03*
X014305Y007944D03*
X014305Y007934D03*
X014305Y007924D03*
X014305Y007914D03*
X014305Y007904D03*
X014305Y008654D03*
X014305Y008664D03*
X014305Y008674D03*
X014305Y008684D03*
X014305Y008694D03*
X014305Y008704D03*
X014305Y008714D03*
X014305Y008724D03*
X014305Y008734D03*
X014305Y008744D03*
X014305Y008754D03*
X014305Y008764D03*
X014305Y008774D03*
X014305Y008784D03*
X014305Y008794D03*
X014305Y008804D03*
X014305Y008814D03*
X014305Y008824D03*
X014305Y008834D03*
X014305Y008844D03*
X014305Y008854D03*
X014305Y008864D03*
X014305Y008874D03*
X014305Y008884D03*
X014305Y008894D03*
X014305Y008904D03*
X014305Y008914D03*
X014305Y008924D03*
X014305Y008934D03*
X014305Y008944D03*
X014305Y008954D03*
X014305Y008964D03*
X014305Y008974D03*
X014305Y008984D03*
X014305Y008994D03*
X014305Y009004D03*
X014305Y009014D03*
X014305Y009024D03*
X014305Y009034D03*
X014305Y009044D03*
X014305Y009054D03*
X014305Y009064D03*
X014305Y009074D03*
X014305Y009084D03*
X014305Y009094D03*
X014305Y009104D03*
X014305Y009114D03*
X014305Y009124D03*
X014305Y009134D03*
X014305Y009144D03*
X014305Y009154D03*
X014305Y009164D03*
X014305Y009174D03*
X014305Y009184D03*
X014305Y009194D03*
X014305Y009204D03*
X014305Y009214D03*
X014305Y009224D03*
X014305Y009234D03*
X014305Y009244D03*
X014305Y009254D03*
X014305Y009264D03*
X014305Y009274D03*
X014305Y009284D03*
X014305Y009294D03*
X014305Y009304D03*
X014305Y009314D03*
X014305Y009324D03*
X014305Y009334D03*
X014305Y009344D03*
X014305Y009354D03*
X014305Y009364D03*
X014305Y009374D03*
X014305Y009384D03*
X014305Y009394D03*
X014305Y009404D03*
X014305Y009414D03*
X014305Y009424D03*
X014305Y009434D03*
X014305Y009444D03*
X014305Y009454D03*
X014305Y009464D03*
X014305Y009474D03*
X014305Y009484D03*
X014305Y009494D03*
X014305Y009504D03*
X014305Y009514D03*
X014305Y009524D03*
D103*
X015150Y011864D03*
X019970Y011564D03*
X020060Y009524D03*
X020060Y009514D03*
X020060Y009504D03*
X020060Y009494D03*
X020060Y009484D03*
X020060Y009474D03*
X020060Y009464D03*
X020060Y009454D03*
X020060Y009444D03*
X020060Y009434D03*
X020060Y009424D03*
X020060Y009414D03*
X020060Y009404D03*
X020060Y009394D03*
X020060Y009384D03*
X020060Y009374D03*
X020060Y009364D03*
X020060Y009354D03*
X020060Y009344D03*
X020060Y009334D03*
X020060Y009324D03*
X020060Y009314D03*
X020060Y009304D03*
X020060Y009294D03*
X020060Y009284D03*
X020060Y009274D03*
X020060Y009264D03*
X020060Y009254D03*
X020060Y009244D03*
X020060Y009234D03*
X020060Y009224D03*
X020060Y009214D03*
X020060Y009204D03*
X020060Y009194D03*
X020060Y009184D03*
X020060Y009174D03*
X020060Y009164D03*
X020060Y009154D03*
X020060Y009144D03*
X020060Y009134D03*
X020060Y009124D03*
X020060Y009114D03*
D104*
X017650Y009184D03*
X020040Y011384D03*
X017540Y013274D03*
X017540Y013284D03*
X017540Y013294D03*
X017540Y013304D03*
X017540Y013314D03*
X017540Y013324D03*
X017540Y013334D03*
X017540Y013344D03*
X017540Y013354D03*
X017540Y013364D03*
X017540Y013374D03*
X017540Y013384D03*
X017540Y013394D03*
X017540Y013404D03*
X017540Y013414D03*
X017540Y013424D03*
X017540Y013434D03*
X017540Y013444D03*
X017540Y013454D03*
X017540Y013464D03*
X017540Y013474D03*
X017540Y013484D03*
X017540Y013494D03*
X017540Y013504D03*
X017540Y013514D03*
X017540Y013524D03*
X017540Y013534D03*
X017540Y013544D03*
X017540Y013554D03*
X017540Y013564D03*
X017540Y013574D03*
X017540Y013584D03*
X017540Y013594D03*
X017540Y013604D03*
X017540Y013614D03*
X017540Y013624D03*
X017540Y013634D03*
X017540Y013644D03*
X017540Y013654D03*
X017540Y013664D03*
X017540Y013674D03*
X017540Y013684D03*
X017540Y013694D03*
X020040Y013424D03*
X015150Y012044D03*
X015150Y012034D03*
X012620Y009524D03*
X012620Y009514D03*
X012620Y009504D03*
X012620Y009494D03*
X012620Y009484D03*
X012620Y009474D03*
X012620Y009464D03*
X012620Y009454D03*
X012620Y009444D03*
X012620Y009434D03*
X012620Y009424D03*
X012620Y009414D03*
X012620Y009404D03*
X012620Y009394D03*
X012620Y009384D03*
X012620Y009374D03*
X012620Y009364D03*
X012620Y009354D03*
X012620Y009344D03*
X012620Y009334D03*
X012620Y009324D03*
X012620Y009314D03*
X012620Y009304D03*
X012620Y009294D03*
X012620Y009284D03*
X012620Y009274D03*
X012620Y009264D03*
X012620Y009254D03*
X012620Y009244D03*
X012620Y009234D03*
X012620Y009224D03*
X012620Y009214D03*
X012620Y009204D03*
X012620Y009194D03*
X012620Y009184D03*
X012620Y009174D03*
X012620Y009164D03*
X012620Y009154D03*
X012620Y009144D03*
X012620Y009134D03*
X012620Y009124D03*
X012620Y009114D03*
D105*
X017645Y009304D03*
D106*
X017650Y009324D03*
X020180Y011244D03*
D107*
X017650Y009334D03*
X020190Y013644D03*
D108*
X020205Y013654D03*
X020205Y011234D03*
X017645Y009344D03*
D109*
X017650Y009354D03*
X012890Y012384D03*
X012890Y012394D03*
X020220Y013664D03*
D110*
X017650Y009364D03*
X012900Y012414D03*
X012900Y012424D03*
D111*
X012920Y012474D03*
X012920Y012484D03*
X017650Y009374D03*
D112*
X017650Y009384D03*
X012930Y012504D03*
X012930Y012514D03*
D113*
X012945Y012554D03*
X012945Y012564D03*
X017655Y009394D03*
D114*
X017650Y009404D03*
X012960Y012604D03*
D115*
X017650Y009414D03*
D116*
X017655Y009424D03*
D117*
X017650Y009434D03*
D118*
X017650Y009444D03*
D119*
X017650Y009454D03*
D120*
X017655Y009464D03*
D121*
X017655Y009474D03*
D122*
X015795Y009524D03*
X015565Y012704D03*
X015555Y012734D03*
X015545Y012754D03*
X015535Y012784D03*
X015525Y012814D03*
X015515Y012834D03*
X015515Y012844D03*
X015505Y012864D03*
X015495Y012884D03*
X015495Y012894D03*
X015485Y012914D03*
X015485Y012924D03*
X015475Y012934D03*
X015475Y012944D03*
X015475Y012954D03*
X015465Y012964D03*
X015465Y012974D03*
X015455Y012984D03*
X015455Y012994D03*
X015455Y013004D03*
X015445Y013014D03*
X015445Y013024D03*
X015445Y013034D03*
X015435Y013044D03*
X015435Y013054D03*
X015425Y013074D03*
X015425Y013084D03*
X019255Y013084D03*
X019255Y013074D03*
X019255Y013064D03*
X019255Y013054D03*
X019255Y013044D03*
X019275Y012884D03*
X019285Y012864D03*
X019295Y012844D03*
X019295Y012834D03*
X019305Y012824D03*
X004575Y010754D03*
X004545Y010804D03*
X004535Y010824D03*
X004525Y010834D03*
X004525Y010844D03*
X004515Y010854D03*
X004505Y010874D03*
X004495Y010884D03*
X004495Y010894D03*
X004485Y010904D03*
X004485Y010914D03*
X004475Y010924D03*
X004465Y010944D03*
X004455Y010954D03*
X004455Y010964D03*
X004445Y010974D03*
X004435Y010994D03*
X004425Y011014D03*
X004395Y011064D03*
D123*
X017650Y009564D03*
D124*
X017650Y009574D03*
D125*
X009690Y010104D03*
X009690Y010114D03*
X009690Y010124D03*
X009690Y010134D03*
X009690Y010144D03*
X009690Y010154D03*
X009690Y010164D03*
X009690Y010174D03*
X009690Y010184D03*
X009690Y010194D03*
X009690Y010204D03*
X009690Y010214D03*
X009690Y010224D03*
X009690Y010234D03*
X009690Y010244D03*
X009690Y010254D03*
X009690Y010264D03*
X009690Y010274D03*
X009690Y010284D03*
X009690Y010294D03*
X009690Y010304D03*
X009690Y010314D03*
X009690Y010324D03*
X009690Y010334D03*
X009690Y010344D03*
X009690Y010354D03*
X009690Y010364D03*
X009690Y010374D03*
X009690Y010384D03*
X009690Y010394D03*
X009690Y010404D03*
X009690Y010414D03*
X009690Y010424D03*
X009690Y010434D03*
X009690Y010444D03*
X009690Y010454D03*
X009690Y010464D03*
X009690Y010474D03*
X009690Y010484D03*
X009690Y010494D03*
X009690Y010504D03*
X009690Y010514D03*
X009690Y010524D03*
D126*
X004590Y010724D03*
X004590Y010734D03*
X004580Y010744D03*
X004570Y010764D03*
X004560Y010774D03*
X004560Y010784D03*
X004550Y010794D03*
X004540Y010814D03*
X004510Y010864D03*
X015430Y013064D03*
X019250Y013034D03*
X019250Y013024D03*
X019250Y013014D03*
X019250Y013004D03*
X019250Y012994D03*
X019250Y012984D03*
X019250Y012974D03*
X019250Y012964D03*
X019260Y012954D03*
X019260Y012944D03*
X019260Y012934D03*
X019260Y012924D03*
X019260Y012914D03*
X019270Y012904D03*
X019270Y012894D03*
X019280Y012874D03*
X019290Y012854D03*
D127*
X020320Y011214D03*
D128*
X020160Y011254D03*
D129*
X020120Y011284D03*
X020120Y013574D03*
D130*
X020110Y013564D03*
X020110Y012584D03*
X020110Y011294D03*
D131*
X020100Y011304D03*
X020100Y012494D03*
X020100Y012594D03*
X015150Y012194D03*
D132*
X015150Y012164D03*
X020090Y012484D03*
X020090Y012614D03*
X020090Y013534D03*
X020090Y011314D03*
D133*
X020060Y011354D03*
X020060Y012664D03*
X020060Y013474D03*
X015150Y012094D03*
D134*
X015150Y012064D03*
X020050Y012434D03*
X020050Y012684D03*
X020050Y012694D03*
X020050Y013444D03*
X020050Y013454D03*
X020050Y011374D03*
D135*
X020030Y011404D03*
X020030Y012404D03*
X020030Y013394D03*
X015150Y012014D03*
D136*
X015150Y011994D03*
X015150Y011984D03*
X020020Y011424D03*
X020020Y013354D03*
X020020Y013364D03*
D137*
X020010Y013324D03*
X020010Y013314D03*
X020010Y012374D03*
X020010Y012364D03*
X020010Y011444D03*
X015150Y011964D03*
D138*
X015150Y011944D03*
X015150Y011934D03*
X020000Y012344D03*
X020000Y011474D03*
X020000Y013284D03*
D139*
X019990Y012324D03*
X019990Y011504D03*
X019990Y011494D03*
X015150Y011914D03*
D140*
X015155Y011904D03*
X019985Y011514D03*
X019985Y012314D03*
D141*
X019980Y012304D03*
X019980Y011534D03*
X019980Y011524D03*
X015150Y011884D03*
X015150Y011894D03*
D142*
X015155Y011874D03*
X019975Y011554D03*
X019975Y011544D03*
X019975Y012294D03*
D143*
X019965Y011584D03*
X019965Y011574D03*
X015155Y011854D03*
D144*
X015150Y011844D03*
X015150Y011834D03*
X019960Y011604D03*
X019960Y011594D03*
D145*
X019955Y011614D03*
X019955Y011624D03*
X015155Y011824D03*
D146*
X015155Y011774D03*
D147*
X015150Y011784D03*
X015150Y011794D03*
D148*
X015150Y011804D03*
X015150Y011814D03*
D149*
X015150Y012114D03*
X020070Y012644D03*
X020070Y013494D03*
D150*
X020080Y013514D03*
X020080Y012624D03*
X015150Y012144D03*
D151*
X012910Y012444D03*
X012910Y012454D03*
D152*
X012915Y012464D03*
X020245Y013674D03*
D153*
X020130Y012554D03*
X020130Y012514D03*
D154*
X020140Y012524D03*
X020140Y012544D03*
D155*
X020150Y012534D03*
X020150Y013614D03*
D156*
X012940Y012544D03*
X012940Y012534D03*
D157*
X012950Y012574D03*
X020280Y013684D03*
D158*
X009595Y013684D03*
X009595Y013674D03*
X009595Y013664D03*
X009595Y013654D03*
X009595Y013644D03*
X009595Y013634D03*
X009595Y013624D03*
X009595Y013614D03*
X009595Y013604D03*
X009595Y013594D03*
X009595Y013584D03*
X009595Y013574D03*
X009595Y013564D03*
X009595Y013554D03*
X009595Y013544D03*
X009595Y013534D03*
X009595Y013524D03*
X009595Y013514D03*
X009595Y013504D03*
X009595Y013494D03*
X009595Y013484D03*
X009595Y013474D03*
X009595Y013464D03*
X009595Y013454D03*
X009595Y013444D03*
X009595Y013434D03*
X009595Y013424D03*
X009595Y013414D03*
X009595Y013404D03*
X009595Y013394D03*
X009595Y013384D03*
X009595Y013374D03*
X009595Y013364D03*
X009595Y013354D03*
X009595Y013344D03*
X009595Y013334D03*
X009595Y013324D03*
X009595Y013314D03*
X009595Y013304D03*
X009595Y013294D03*
X009595Y013284D03*
X009595Y013274D03*
X009595Y013264D03*
D159*
X020345Y013694D03*
D160*
X022869Y013789D02*
X022869Y007639D01*
M02*
