G75*
%MOIN*%
%OFA0B0*%
%FSLAX24Y24*%
%IPPOS*%
%LPD*%
%AMOC8*
5,1,8,0,0,1.08239X$1,22.5*
%
%ADD10C,0.0000*%
%ADD11C,0.0110*%
%ADD12C,0.0004*%
%ADD13C,0.0554*%
%ADD14C,0.0600*%
%ADD15C,0.0160*%
%ADD16C,0.0396*%
%ADD17C,0.0240*%
D10*
X000300Y003064D02*
X000300Y018064D01*
X022800Y018064D01*
X022800Y003064D01*
X000300Y003064D01*
X001720Y005114D02*
X001722Y005164D01*
X001728Y005214D01*
X001738Y005263D01*
X001752Y005311D01*
X001769Y005358D01*
X001790Y005403D01*
X001815Y005447D01*
X001843Y005488D01*
X001875Y005527D01*
X001909Y005564D01*
X001946Y005598D01*
X001986Y005628D01*
X002028Y005655D01*
X002072Y005679D01*
X002118Y005700D01*
X002165Y005716D01*
X002213Y005729D01*
X002263Y005738D01*
X002312Y005743D01*
X002363Y005744D01*
X002413Y005741D01*
X002462Y005734D01*
X002511Y005723D01*
X002559Y005708D01*
X002605Y005690D01*
X002650Y005668D01*
X002693Y005642D01*
X002734Y005613D01*
X002773Y005581D01*
X002809Y005546D01*
X002841Y005508D01*
X002871Y005468D01*
X002898Y005425D01*
X002921Y005381D01*
X002940Y005335D01*
X002956Y005287D01*
X002968Y005238D01*
X002976Y005189D01*
X002980Y005139D01*
X002980Y005089D01*
X002976Y005039D01*
X002968Y004990D01*
X002956Y004941D01*
X002940Y004893D01*
X002921Y004847D01*
X002898Y004803D01*
X002871Y004760D01*
X002841Y004720D01*
X002809Y004682D01*
X002773Y004647D01*
X002734Y004615D01*
X002693Y004586D01*
X002650Y004560D01*
X002605Y004538D01*
X002559Y004520D01*
X002511Y004505D01*
X002462Y004494D01*
X002413Y004487D01*
X002363Y004484D01*
X002312Y004485D01*
X002263Y004490D01*
X002213Y004499D01*
X002165Y004512D01*
X002118Y004528D01*
X002072Y004549D01*
X002028Y004573D01*
X001986Y004600D01*
X001946Y004630D01*
X001909Y004664D01*
X001875Y004701D01*
X001843Y004740D01*
X001815Y004781D01*
X001790Y004825D01*
X001769Y004870D01*
X001752Y004917D01*
X001738Y004965D01*
X001728Y005014D01*
X001722Y005064D01*
X001720Y005114D01*
X001670Y016064D02*
X001672Y016114D01*
X001678Y016164D01*
X001688Y016213D01*
X001702Y016261D01*
X001719Y016308D01*
X001740Y016353D01*
X001765Y016397D01*
X001793Y016438D01*
X001825Y016477D01*
X001859Y016514D01*
X001896Y016548D01*
X001936Y016578D01*
X001978Y016605D01*
X002022Y016629D01*
X002068Y016650D01*
X002115Y016666D01*
X002163Y016679D01*
X002213Y016688D01*
X002262Y016693D01*
X002313Y016694D01*
X002363Y016691D01*
X002412Y016684D01*
X002461Y016673D01*
X002509Y016658D01*
X002555Y016640D01*
X002600Y016618D01*
X002643Y016592D01*
X002684Y016563D01*
X002723Y016531D01*
X002759Y016496D01*
X002791Y016458D01*
X002821Y016418D01*
X002848Y016375D01*
X002871Y016331D01*
X002890Y016285D01*
X002906Y016237D01*
X002918Y016188D01*
X002926Y016139D01*
X002930Y016089D01*
X002930Y016039D01*
X002926Y015989D01*
X002918Y015940D01*
X002906Y015891D01*
X002890Y015843D01*
X002871Y015797D01*
X002848Y015753D01*
X002821Y015710D01*
X002791Y015670D01*
X002759Y015632D01*
X002723Y015597D01*
X002684Y015565D01*
X002643Y015536D01*
X002600Y015510D01*
X002555Y015488D01*
X002509Y015470D01*
X002461Y015455D01*
X002412Y015444D01*
X002363Y015437D01*
X002313Y015434D01*
X002262Y015435D01*
X002213Y015440D01*
X002163Y015449D01*
X002115Y015462D01*
X002068Y015478D01*
X002022Y015499D01*
X001978Y015523D01*
X001936Y015550D01*
X001896Y015580D01*
X001859Y015614D01*
X001825Y015651D01*
X001793Y015690D01*
X001765Y015731D01*
X001740Y015775D01*
X001719Y015820D01*
X001702Y015867D01*
X001688Y015915D01*
X001678Y015964D01*
X001672Y016014D01*
X001670Y016064D01*
X020060Y012714D02*
X020062Y012764D01*
X020068Y012814D01*
X020078Y012863D01*
X020091Y012912D01*
X020109Y012959D01*
X020130Y013005D01*
X020154Y013048D01*
X020182Y013090D01*
X020213Y013130D01*
X020247Y013167D01*
X020284Y013201D01*
X020324Y013232D01*
X020366Y013260D01*
X020409Y013284D01*
X020455Y013305D01*
X020502Y013323D01*
X020551Y013336D01*
X020600Y013346D01*
X020650Y013352D01*
X020700Y013354D01*
X020750Y013352D01*
X020800Y013346D01*
X020849Y013336D01*
X020898Y013323D01*
X020945Y013305D01*
X020991Y013284D01*
X021034Y013260D01*
X021076Y013232D01*
X021116Y013201D01*
X021153Y013167D01*
X021187Y013130D01*
X021218Y013090D01*
X021246Y013048D01*
X021270Y013005D01*
X021291Y012959D01*
X021309Y012912D01*
X021322Y012863D01*
X021332Y012814D01*
X021338Y012764D01*
X021340Y012714D01*
X021338Y012664D01*
X021332Y012614D01*
X021322Y012565D01*
X021309Y012516D01*
X021291Y012469D01*
X021270Y012423D01*
X021246Y012380D01*
X021218Y012338D01*
X021187Y012298D01*
X021153Y012261D01*
X021116Y012227D01*
X021076Y012196D01*
X021034Y012168D01*
X020991Y012144D01*
X020945Y012123D01*
X020898Y012105D01*
X020849Y012092D01*
X020800Y012082D01*
X020750Y012076D01*
X020700Y012074D01*
X020650Y012076D01*
X020600Y012082D01*
X020551Y012092D01*
X020502Y012105D01*
X020455Y012123D01*
X020409Y012144D01*
X020366Y012168D01*
X020324Y012196D01*
X020284Y012227D01*
X020247Y012261D01*
X020213Y012298D01*
X020182Y012338D01*
X020154Y012380D01*
X020130Y012423D01*
X020109Y012469D01*
X020091Y012516D01*
X020078Y012565D01*
X020068Y012614D01*
X020062Y012664D01*
X020060Y012714D01*
X020170Y016064D02*
X020172Y016114D01*
X020178Y016164D01*
X020188Y016213D01*
X020202Y016261D01*
X020219Y016308D01*
X020240Y016353D01*
X020265Y016397D01*
X020293Y016438D01*
X020325Y016477D01*
X020359Y016514D01*
X020396Y016548D01*
X020436Y016578D01*
X020478Y016605D01*
X020522Y016629D01*
X020568Y016650D01*
X020615Y016666D01*
X020663Y016679D01*
X020713Y016688D01*
X020762Y016693D01*
X020813Y016694D01*
X020863Y016691D01*
X020912Y016684D01*
X020961Y016673D01*
X021009Y016658D01*
X021055Y016640D01*
X021100Y016618D01*
X021143Y016592D01*
X021184Y016563D01*
X021223Y016531D01*
X021259Y016496D01*
X021291Y016458D01*
X021321Y016418D01*
X021348Y016375D01*
X021371Y016331D01*
X021390Y016285D01*
X021406Y016237D01*
X021418Y016188D01*
X021426Y016139D01*
X021430Y016089D01*
X021430Y016039D01*
X021426Y015989D01*
X021418Y015940D01*
X021406Y015891D01*
X021390Y015843D01*
X021371Y015797D01*
X021348Y015753D01*
X021321Y015710D01*
X021291Y015670D01*
X021259Y015632D01*
X021223Y015597D01*
X021184Y015565D01*
X021143Y015536D01*
X021100Y015510D01*
X021055Y015488D01*
X021009Y015470D01*
X020961Y015455D01*
X020912Y015444D01*
X020863Y015437D01*
X020813Y015434D01*
X020762Y015435D01*
X020713Y015440D01*
X020663Y015449D01*
X020615Y015462D01*
X020568Y015478D01*
X020522Y015499D01*
X020478Y015523D01*
X020436Y015550D01*
X020396Y015580D01*
X020359Y015614D01*
X020325Y015651D01*
X020293Y015690D01*
X020265Y015731D01*
X020240Y015775D01*
X020219Y015820D01*
X020202Y015867D01*
X020188Y015915D01*
X020178Y015964D01*
X020172Y016014D01*
X020170Y016064D01*
X020060Y008714D02*
X020062Y008764D01*
X020068Y008814D01*
X020078Y008863D01*
X020091Y008912D01*
X020109Y008959D01*
X020130Y009005D01*
X020154Y009048D01*
X020182Y009090D01*
X020213Y009130D01*
X020247Y009167D01*
X020284Y009201D01*
X020324Y009232D01*
X020366Y009260D01*
X020409Y009284D01*
X020455Y009305D01*
X020502Y009323D01*
X020551Y009336D01*
X020600Y009346D01*
X020650Y009352D01*
X020700Y009354D01*
X020750Y009352D01*
X020800Y009346D01*
X020849Y009336D01*
X020898Y009323D01*
X020945Y009305D01*
X020991Y009284D01*
X021034Y009260D01*
X021076Y009232D01*
X021116Y009201D01*
X021153Y009167D01*
X021187Y009130D01*
X021218Y009090D01*
X021246Y009048D01*
X021270Y009005D01*
X021291Y008959D01*
X021309Y008912D01*
X021322Y008863D01*
X021332Y008814D01*
X021338Y008764D01*
X021340Y008714D01*
X021338Y008664D01*
X021332Y008614D01*
X021322Y008565D01*
X021309Y008516D01*
X021291Y008469D01*
X021270Y008423D01*
X021246Y008380D01*
X021218Y008338D01*
X021187Y008298D01*
X021153Y008261D01*
X021116Y008227D01*
X021076Y008196D01*
X021034Y008168D01*
X020991Y008144D01*
X020945Y008123D01*
X020898Y008105D01*
X020849Y008092D01*
X020800Y008082D01*
X020750Y008076D01*
X020700Y008074D01*
X020650Y008076D01*
X020600Y008082D01*
X020551Y008092D01*
X020502Y008105D01*
X020455Y008123D01*
X020409Y008144D01*
X020366Y008168D01*
X020324Y008196D01*
X020284Y008227D01*
X020247Y008261D01*
X020213Y008298D01*
X020182Y008338D01*
X020154Y008380D01*
X020130Y008423D01*
X020109Y008469D01*
X020091Y008516D01*
X020078Y008565D01*
X020068Y008614D01*
X020062Y008664D01*
X020060Y008714D01*
X020170Y005064D02*
X020172Y005114D01*
X020178Y005164D01*
X020188Y005213D01*
X020202Y005261D01*
X020219Y005308D01*
X020240Y005353D01*
X020265Y005397D01*
X020293Y005438D01*
X020325Y005477D01*
X020359Y005514D01*
X020396Y005548D01*
X020436Y005578D01*
X020478Y005605D01*
X020522Y005629D01*
X020568Y005650D01*
X020615Y005666D01*
X020663Y005679D01*
X020713Y005688D01*
X020762Y005693D01*
X020813Y005694D01*
X020863Y005691D01*
X020912Y005684D01*
X020961Y005673D01*
X021009Y005658D01*
X021055Y005640D01*
X021100Y005618D01*
X021143Y005592D01*
X021184Y005563D01*
X021223Y005531D01*
X021259Y005496D01*
X021291Y005458D01*
X021321Y005418D01*
X021348Y005375D01*
X021371Y005331D01*
X021390Y005285D01*
X021406Y005237D01*
X021418Y005188D01*
X021426Y005139D01*
X021430Y005089D01*
X021430Y005039D01*
X021426Y004989D01*
X021418Y004940D01*
X021406Y004891D01*
X021390Y004843D01*
X021371Y004797D01*
X021348Y004753D01*
X021321Y004710D01*
X021291Y004670D01*
X021259Y004632D01*
X021223Y004597D01*
X021184Y004565D01*
X021143Y004536D01*
X021100Y004510D01*
X021055Y004488D01*
X021009Y004470D01*
X020961Y004455D01*
X020912Y004444D01*
X020863Y004437D01*
X020813Y004434D01*
X020762Y004435D01*
X020713Y004440D01*
X020663Y004449D01*
X020615Y004462D01*
X020568Y004478D01*
X020522Y004499D01*
X020478Y004523D01*
X020436Y004550D01*
X020396Y004580D01*
X020359Y004614D01*
X020325Y004651D01*
X020293Y004690D01*
X020265Y004731D01*
X020240Y004775D01*
X020219Y004820D01*
X020202Y004867D01*
X020188Y004915D01*
X020178Y004964D01*
X020172Y005014D01*
X020170Y005064D01*
D11*
X019495Y004010D02*
X019298Y003813D01*
X019101Y004010D01*
X019101Y003419D01*
X018850Y003419D02*
X018654Y003419D01*
X018752Y003419D02*
X018752Y004010D01*
X018850Y004010D02*
X018654Y004010D01*
X018421Y004010D02*
X018125Y004010D01*
X018027Y003911D01*
X018027Y003518D01*
X018125Y003419D01*
X018421Y003419D01*
X018421Y004010D01*
X017776Y004010D02*
X017579Y004010D01*
X017678Y004010D02*
X017678Y003419D01*
X017776Y003419D02*
X017579Y003419D01*
X016702Y003715D02*
X016308Y003715D01*
X015413Y004010D02*
X015413Y003419D01*
X015118Y003419D01*
X015019Y003518D01*
X015019Y003911D01*
X015118Y004010D01*
X015413Y004010D01*
X014768Y004010D02*
X014768Y003419D01*
X014375Y003419D02*
X014375Y004010D01*
X014571Y003813D01*
X014768Y004010D01*
X014124Y004010D02*
X013730Y003419D01*
X014124Y003419D02*
X013730Y004010D01*
X012835Y004010D02*
X012835Y003419D01*
X012539Y003419D01*
X012441Y003518D01*
X012441Y003616D01*
X012539Y003715D01*
X012835Y003715D01*
X012835Y004010D02*
X012539Y004010D01*
X012441Y003911D01*
X012441Y003813D01*
X012539Y003715D01*
X012190Y003813D02*
X012190Y003419D01*
X012190Y003616D02*
X011993Y003813D01*
X011895Y003813D01*
X011653Y003813D02*
X011555Y003813D01*
X011555Y003419D01*
X011653Y003419D02*
X011456Y003419D01*
X011223Y003518D02*
X011223Y003715D01*
X011125Y003813D01*
X010830Y003813D01*
X010830Y004010D02*
X010830Y003419D01*
X011125Y003419D01*
X011223Y003518D01*
X011555Y004010D02*
X011555Y004108D01*
X010579Y003715D02*
X010579Y003518D01*
X010480Y003419D01*
X010185Y003419D01*
X010185Y003321D02*
X010185Y003813D01*
X010480Y003813D01*
X010579Y003715D01*
X010185Y003321D02*
X010283Y003222D01*
X010382Y003222D01*
X009934Y003518D02*
X009934Y003715D01*
X009836Y003813D01*
X009639Y003813D01*
X009541Y003715D01*
X009541Y003616D01*
X009934Y003616D01*
X009934Y003518D02*
X009836Y003419D01*
X009639Y003419D01*
X019495Y003419D02*
X019495Y004010D01*
D12*
X022869Y007639D02*
X022869Y013789D01*
D13*
X018200Y011964D03*
X017200Y011464D03*
X017200Y010464D03*
X018200Y009964D03*
X018200Y010964D03*
X017200Y009464D03*
D14*
X017350Y016514D02*
X017350Y017114D01*
X018350Y017114D02*
X018350Y016514D01*
X007350Y016664D02*
X007350Y017264D01*
X006350Y017264D02*
X006350Y016664D01*
X005350Y016664D02*
X005350Y017264D01*
X001800Y012564D02*
X001200Y012564D01*
X001200Y011564D02*
X001800Y011564D01*
X001800Y010564D02*
X001200Y010564D01*
X001200Y009564D02*
X001800Y009564D01*
X001800Y008564D02*
X001200Y008564D01*
D15*
X001031Y008136D02*
X000780Y008136D01*
X000780Y007978D02*
X019853Y007978D01*
X019804Y008027D02*
X020012Y007818D01*
X020268Y007671D01*
X020553Y007594D01*
X020847Y007594D01*
X021132Y007671D01*
X021388Y007818D01*
X021596Y008027D01*
X021744Y008282D01*
X021820Y008567D01*
X021820Y008862D01*
X021744Y009147D01*
X021596Y009402D01*
X021388Y009611D01*
X021132Y009758D01*
X020847Y009834D01*
X020553Y009834D01*
X020268Y009758D01*
X020012Y009611D01*
X019804Y009402D01*
X019656Y009147D01*
X019580Y008862D01*
X019580Y008567D01*
X019656Y008282D01*
X019804Y008027D01*
X019740Y008136D02*
X001969Y008136D01*
X001891Y008104D02*
X002061Y008174D01*
X002190Y008304D01*
X002260Y008473D01*
X002260Y008656D01*
X002190Y008825D01*
X002061Y008954D01*
X001891Y009024D01*
X001108Y009024D01*
X000939Y008954D01*
X000810Y008825D01*
X000780Y008752D01*
X000780Y009376D01*
X000810Y009304D01*
X000939Y009174D01*
X001108Y009104D01*
X001891Y009104D01*
X002061Y009174D01*
X002190Y009304D01*
X002260Y009473D01*
X002260Y009656D01*
X002190Y009825D01*
X002061Y009954D01*
X001891Y010024D01*
X001108Y010024D01*
X000939Y009954D01*
X000810Y009825D01*
X000780Y009752D01*
X000780Y010376D01*
X000810Y010304D01*
X000939Y010174D01*
X001108Y010104D01*
X001891Y010104D01*
X002061Y010174D01*
X002190Y010304D01*
X002260Y010473D01*
X002260Y010656D01*
X002190Y010825D01*
X002061Y010954D01*
X001891Y011024D01*
X001108Y011024D01*
X000939Y010954D01*
X000810Y010825D01*
X000780Y010752D01*
X000780Y011376D01*
X000810Y011304D01*
X000939Y011174D01*
X001108Y011104D01*
X001891Y011104D01*
X002061Y011174D01*
X002190Y011304D01*
X002260Y011473D01*
X002260Y011656D01*
X002190Y011825D01*
X002061Y011954D01*
X001891Y012024D01*
X001108Y012024D01*
X000939Y011954D01*
X000810Y011825D01*
X000780Y011752D01*
X000780Y012376D01*
X000810Y012304D01*
X000939Y012174D01*
X001108Y012104D01*
X001891Y012104D01*
X002061Y012174D01*
X002190Y012304D01*
X002260Y012473D01*
X002260Y012656D01*
X002190Y012825D01*
X002061Y012954D01*
X001891Y013024D01*
X001108Y013024D01*
X000939Y012954D01*
X000810Y012825D01*
X000780Y012752D01*
X000780Y015356D01*
X000786Y015335D01*
X001068Y014922D01*
X001068Y014922D01*
X001068Y014922D01*
X001460Y014609D01*
X001926Y014426D01*
X002426Y014389D01*
X002914Y014500D01*
X003347Y014751D01*
X003347Y014751D01*
X003688Y015118D01*
X003905Y015569D01*
X003980Y016064D01*
X003905Y016560D01*
X003688Y017011D01*
X003347Y017378D01*
X002990Y017584D01*
X005019Y017584D01*
X004960Y017525D01*
X004890Y017356D01*
X004890Y016573D01*
X004960Y016404D01*
X005089Y016274D01*
X005258Y016204D01*
X005441Y016204D01*
X005611Y016274D01*
X005740Y016404D01*
X005810Y016573D01*
X005810Y017356D01*
X005740Y017525D01*
X005681Y017584D01*
X006019Y017584D01*
X005960Y017525D01*
X005890Y017356D01*
X005890Y016573D01*
X005960Y016404D01*
X006089Y016274D01*
X006258Y016204D01*
X006441Y016204D01*
X006611Y016274D01*
X006740Y016404D01*
X006810Y016573D01*
X006810Y017356D01*
X006740Y017525D01*
X006681Y017584D01*
X006991Y017584D01*
X006984Y017577D01*
X006939Y017516D01*
X006905Y017449D01*
X006882Y017377D01*
X006870Y017302D01*
X006870Y016984D01*
X007330Y016984D01*
X007330Y016944D01*
X007370Y016944D01*
X007370Y016184D01*
X007388Y016184D01*
X007462Y016196D01*
X007534Y016219D01*
X007602Y016254D01*
X007663Y016298D01*
X007716Y016352D01*
X007761Y016413D01*
X007795Y016480D01*
X007818Y016552D01*
X007830Y016627D01*
X007830Y016944D01*
X007370Y016944D01*
X007370Y016984D01*
X007830Y016984D01*
X007830Y017302D01*
X007818Y017377D01*
X007795Y017449D01*
X007761Y017516D01*
X007716Y017577D01*
X007709Y017584D01*
X018249Y017584D01*
X018238Y017583D01*
X018166Y017559D01*
X018098Y017525D01*
X018037Y017480D01*
X017984Y017427D01*
X017939Y017366D01*
X017905Y017299D01*
X017882Y017227D01*
X017870Y017152D01*
X017870Y016834D01*
X018330Y016834D01*
X018330Y016794D01*
X018370Y016794D01*
X018370Y016034D01*
X018388Y016034D01*
X018462Y016046D01*
X018534Y016069D01*
X018602Y016104D01*
X018663Y016148D01*
X018716Y016202D01*
X018761Y016263D01*
X018795Y016330D01*
X018818Y016402D01*
X018830Y016477D01*
X018830Y016794D01*
X018370Y016794D01*
X018370Y016834D01*
X018830Y016834D01*
X018830Y017152D01*
X018818Y017227D01*
X018795Y017299D01*
X018761Y017366D01*
X018716Y017427D01*
X018663Y017480D01*
X018602Y017525D01*
X018534Y017559D01*
X018462Y017583D01*
X018451Y017584D01*
X020126Y017584D01*
X019960Y017519D01*
X019568Y017207D01*
X019286Y016793D01*
X019139Y016315D01*
X019139Y015814D01*
X019286Y015335D01*
X019568Y014922D01*
X019568Y014922D01*
X019568Y014922D01*
X019960Y014609D01*
X020426Y014426D01*
X020926Y014389D01*
X021414Y014500D01*
X021847Y014751D01*
X021847Y014751D01*
X022188Y015118D01*
X022320Y015392D01*
X022320Y005737D01*
X022188Y006011D01*
X021847Y006378D01*
X021414Y006628D01*
X021414Y006628D01*
X020926Y006740D01*
X020926Y006740D01*
X020426Y006702D01*
X019960Y006519D01*
X019568Y006207D01*
X019286Y005793D01*
X019139Y005315D01*
X019139Y004814D01*
X019231Y004514D01*
X009450Y004514D01*
X009450Y003928D01*
X009326Y003804D01*
X009326Y003544D01*
X002937Y003544D01*
X002964Y003550D01*
X003397Y003801D01*
X003397Y003801D01*
X003738Y004168D01*
X003955Y004619D01*
X004030Y005114D01*
X003955Y005610D01*
X003738Y006061D01*
X003397Y006428D01*
X002964Y006678D01*
X002964Y006678D01*
X002476Y006790D01*
X002476Y006790D01*
X001976Y006752D01*
X001510Y006569D01*
X001118Y006257D01*
X000836Y005843D01*
X000780Y005660D01*
X000780Y008376D01*
X000810Y008304D01*
X000939Y008174D01*
X001108Y008104D01*
X001891Y008104D01*
X002181Y008295D02*
X019653Y008295D01*
X019610Y008453D02*
X013735Y008453D01*
X013753Y008461D02*
X013854Y008561D01*
X013908Y008693D01*
X013908Y008836D01*
X013854Y008967D01*
X013753Y009068D01*
X013621Y009122D01*
X013588Y009122D01*
X011930Y010780D01*
X011930Y012938D01*
X011954Y012961D01*
X012008Y013093D01*
X012008Y013236D01*
X011954Y013367D01*
X019783Y013367D01*
X019804Y013402D02*
X019656Y013147D01*
X019580Y012862D01*
X019580Y012567D01*
X019656Y012282D01*
X019804Y012027D01*
X020012Y011818D01*
X020268Y011671D01*
X020553Y011594D01*
X020847Y011594D01*
X021132Y011671D01*
X021388Y011818D01*
X021596Y012027D01*
X021744Y012282D01*
X021820Y012567D01*
X021820Y012862D01*
X021744Y013147D01*
X021596Y013402D01*
X021388Y013611D01*
X021132Y013758D01*
X020847Y013834D01*
X020553Y013834D01*
X020268Y013758D01*
X020012Y013611D01*
X019804Y013402D01*
X019927Y013525D02*
X000780Y013525D01*
X000780Y013367D02*
X011346Y013367D01*
X011292Y013236D01*
X011292Y013093D01*
X011346Y012961D01*
X011370Y012938D01*
X011370Y010609D01*
X011413Y010506D01*
X013192Y008726D01*
X013192Y008693D01*
X013246Y008561D01*
X013347Y008461D01*
X013479Y008406D01*
X013621Y008406D01*
X013753Y008461D01*
X013874Y008612D02*
X019580Y008612D01*
X019580Y008770D02*
X013908Y008770D01*
X013869Y008929D02*
X019598Y008929D01*
X019640Y009087D02*
X017432Y009087D01*
X017448Y009094D02*
X017571Y009217D01*
X017637Y009377D01*
X017637Y009551D01*
X017571Y009712D01*
X017558Y009724D01*
X017826Y009724D01*
X017829Y009717D01*
X017952Y009594D01*
X018113Y009527D01*
X018287Y009527D01*
X018448Y009594D01*
X018571Y009717D01*
X018637Y009877D01*
X018637Y010051D01*
X018571Y010212D01*
X018448Y010335D01*
X018287Y010401D01*
X018113Y010401D01*
X017952Y010335D01*
X017829Y010212D01*
X017826Y010204D01*
X017576Y010204D01*
X017591Y010225D01*
X017624Y010289D01*
X017646Y010357D01*
X017657Y010428D01*
X017657Y010456D01*
X017209Y010456D01*
X017209Y010473D01*
X017657Y010473D01*
X017657Y010500D01*
X017646Y010571D01*
X017624Y010640D01*
X017591Y010704D01*
X017549Y010762D01*
X017498Y010813D01*
X017440Y010855D01*
X017375Y010888D01*
X017307Y010910D01*
X017236Y010921D01*
X017209Y010921D01*
X017209Y010473D01*
X017191Y010473D01*
X017191Y010456D01*
X016743Y010456D01*
X016743Y010428D01*
X016754Y010357D01*
X016776Y010289D01*
X016809Y010225D01*
X016824Y010204D01*
X016066Y010204D01*
X016053Y010218D01*
X015921Y010272D01*
X015779Y010272D01*
X015647Y010218D01*
X015546Y010117D01*
X015492Y009986D01*
X015492Y009843D01*
X015546Y009711D01*
X015647Y009611D01*
X015779Y009556D01*
X015921Y009556D01*
X016053Y009611D01*
X016154Y009711D01*
X016159Y009724D01*
X016842Y009724D01*
X016829Y009712D01*
X016763Y009551D01*
X016763Y009377D01*
X016829Y009217D01*
X016952Y009094D01*
X017113Y009027D01*
X017287Y009027D01*
X017448Y009094D01*
X017583Y009246D02*
X019714Y009246D01*
X019806Y009404D02*
X017637Y009404D01*
X017632Y009563D02*
X018027Y009563D01*
X017827Y009721D02*
X017561Y009721D01*
X017645Y010355D02*
X018002Y010355D01*
X018113Y010527D02*
X018287Y010527D01*
X018448Y010594D01*
X018571Y010717D01*
X018637Y010877D01*
X018637Y011051D01*
X018571Y011212D01*
X018448Y011335D01*
X018287Y011401D01*
X018113Y011401D01*
X017952Y011335D01*
X017829Y011212D01*
X017763Y011051D01*
X017763Y010877D01*
X017829Y010717D01*
X017952Y010594D01*
X018113Y010527D01*
X017874Y010672D02*
X017607Y010672D01*
X017655Y010514D02*
X022320Y010514D01*
X022320Y010672D02*
X018526Y010672D01*
X018618Y010831D02*
X022320Y010831D01*
X022320Y010989D02*
X018637Y010989D01*
X018597Y011148D02*
X022320Y011148D01*
X022320Y011306D02*
X018476Y011306D01*
X018448Y011594D02*
X018287Y011527D01*
X018113Y011527D01*
X017952Y011594D01*
X017829Y011717D01*
X017763Y011877D01*
X017763Y012051D01*
X017829Y012212D01*
X017952Y012335D01*
X018113Y012401D01*
X018287Y012401D01*
X018448Y012335D01*
X018571Y012212D01*
X018637Y012051D01*
X018637Y011877D01*
X018571Y011717D01*
X018448Y011594D01*
X018477Y011623D02*
X020444Y011623D01*
X020075Y011782D02*
X018598Y011782D01*
X018637Y011940D02*
X019890Y011940D01*
X019762Y012099D02*
X018617Y012099D01*
X018525Y012257D02*
X019671Y012257D01*
X019620Y012416D02*
X011930Y012416D01*
X011930Y012574D02*
X019580Y012574D01*
X019580Y012733D02*
X011930Y012733D01*
X011930Y012891D02*
X019588Y012891D01*
X019630Y013050D02*
X011990Y013050D01*
X012008Y013208D02*
X019692Y013208D01*
X020139Y013684D02*
X000780Y013684D01*
X000780Y013842D02*
X022320Y013842D01*
X022320Y013684D02*
X021261Y013684D01*
X021473Y013525D02*
X022320Y013525D01*
X022320Y013367D02*
X021617Y013367D01*
X021708Y013208D02*
X022320Y013208D01*
X022320Y013050D02*
X021770Y013050D01*
X021812Y012891D02*
X022320Y012891D01*
X022320Y012733D02*
X021820Y012733D01*
X021820Y012574D02*
X022320Y012574D01*
X022320Y012416D02*
X021780Y012416D01*
X021729Y012257D02*
X022320Y012257D01*
X022320Y012099D02*
X021638Y012099D01*
X021510Y011940D02*
X022320Y011940D01*
X022320Y011782D02*
X021325Y011782D01*
X020956Y011623D02*
X022320Y011623D01*
X022320Y011465D02*
X017637Y011465D01*
X017637Y011551D02*
X017637Y011377D01*
X017571Y011217D01*
X017448Y011094D01*
X017287Y011027D01*
X017113Y011027D01*
X016952Y011094D01*
X016829Y011217D01*
X016763Y011377D01*
X016763Y011551D01*
X016829Y011712D01*
X016952Y011835D01*
X017113Y011901D01*
X017287Y011901D01*
X017448Y011835D01*
X017571Y011712D01*
X017637Y011551D01*
X017607Y011623D02*
X017923Y011623D01*
X017802Y011782D02*
X017501Y011782D01*
X017763Y011940D02*
X011930Y011940D01*
X011930Y011782D02*
X016899Y011782D01*
X016793Y011623D02*
X011930Y011623D01*
X011930Y011465D02*
X016763Y011465D01*
X016792Y011306D02*
X011930Y011306D01*
X011930Y011148D02*
X016898Y011148D01*
X017025Y010888D02*
X016960Y010855D01*
X016902Y010813D01*
X016851Y010762D01*
X016809Y010704D01*
X016776Y010640D01*
X016754Y010571D01*
X016743Y010500D01*
X016743Y010473D01*
X017191Y010473D01*
X017191Y010921D01*
X017164Y010921D01*
X017093Y010910D01*
X017025Y010888D01*
X016927Y010831D02*
X011930Y010831D01*
X011930Y010989D02*
X017763Y010989D01*
X017782Y010831D02*
X017473Y010831D01*
X017502Y011148D02*
X017803Y011148D01*
X017924Y011306D02*
X017608Y011306D01*
X017209Y010831D02*
X017191Y010831D01*
X017191Y010672D02*
X017209Y010672D01*
X017209Y010514D02*
X017191Y010514D01*
X016793Y010672D02*
X012038Y010672D01*
X012196Y010514D02*
X016745Y010514D01*
X016755Y010355D02*
X012355Y010355D01*
X012513Y010197D02*
X015626Y010197D01*
X015514Y010038D02*
X012672Y010038D01*
X012830Y009880D02*
X015492Y009880D01*
X015542Y009721D02*
X012989Y009721D01*
X013147Y009563D02*
X015763Y009563D01*
X015937Y009563D02*
X016768Y009563D01*
X016763Y009404D02*
X013306Y009404D01*
X013464Y009246D02*
X016817Y009246D01*
X016968Y009087D02*
X013706Y009087D01*
X013148Y008770D02*
X002213Y008770D01*
X002260Y008612D02*
X013226Y008612D01*
X013365Y008453D02*
X002252Y008453D01*
X002086Y008929D02*
X012990Y008929D01*
X012831Y009087D02*
X000780Y009087D01*
X000780Y008929D02*
X000914Y008929D01*
X000787Y008770D02*
X000780Y008770D01*
X000780Y008295D02*
X000819Y008295D01*
X000780Y007819D02*
X020011Y007819D01*
X020304Y007661D02*
X000780Y007661D01*
X000780Y007502D02*
X022320Y007502D01*
X022320Y007344D02*
X000780Y007344D01*
X000780Y007185D02*
X022320Y007185D01*
X022320Y007027D02*
X000780Y007027D01*
X000780Y006868D02*
X022320Y006868D01*
X022320Y006710D02*
X021056Y006710D01*
X021547Y006551D02*
X022320Y006551D01*
X022320Y006393D02*
X021821Y006393D01*
X021847Y006378D02*
X021847Y006378D01*
X021981Y006234D02*
X022320Y006234D01*
X022320Y006076D02*
X022128Y006076D01*
X022188Y006011D02*
X022188Y006011D01*
X022233Y005917D02*
X022320Y005917D01*
X022309Y005759D02*
X022320Y005759D01*
X020528Y006710D02*
X002825Y006710D01*
X003184Y006551D02*
X020042Y006551D01*
X019960Y006519D02*
X019960Y006519D01*
X019801Y006393D02*
X003430Y006393D01*
X003397Y006428D02*
X003397Y006428D01*
X003577Y006234D02*
X019603Y006234D01*
X019568Y006207D02*
X019568Y006207D01*
X019479Y006076D02*
X003724Y006076D01*
X003738Y006061D02*
X003738Y006061D01*
X003807Y005917D02*
X019371Y005917D01*
X019286Y005793D02*
X019286Y005793D01*
X019276Y005759D02*
X003883Y005759D01*
X003955Y005610D02*
X003955Y005610D01*
X003957Y005600D02*
X019227Y005600D01*
X019178Y005442D02*
X003981Y005442D01*
X004005Y005283D02*
X019139Y005283D01*
X019139Y005125D02*
X004028Y005125D01*
X004008Y004966D02*
X019139Y004966D01*
X019141Y004808D02*
X003984Y004808D01*
X003960Y004649D02*
X019190Y004649D01*
X020426Y006702D02*
X020426Y006702D01*
X021096Y007661D02*
X022320Y007661D01*
X022320Y007819D02*
X021389Y007819D01*
X021547Y007978D02*
X022320Y007978D01*
X022320Y008136D02*
X021660Y008136D01*
X021747Y008295D02*
X022320Y008295D01*
X022320Y008453D02*
X021790Y008453D01*
X021820Y008612D02*
X022320Y008612D01*
X022320Y008770D02*
X021820Y008770D01*
X021802Y008929D02*
X022320Y008929D01*
X022320Y009087D02*
X021760Y009087D01*
X021686Y009246D02*
X022320Y009246D01*
X022320Y009404D02*
X021594Y009404D01*
X021435Y009563D02*
X022320Y009563D01*
X022320Y009721D02*
X021196Y009721D01*
X020204Y009721D02*
X018573Y009721D01*
X018637Y009880D02*
X022320Y009880D01*
X022320Y010038D02*
X018637Y010038D01*
X018577Y010197D02*
X022320Y010197D01*
X022320Y010355D02*
X018398Y010355D01*
X018200Y009964D02*
X015900Y009964D01*
X015850Y009914D01*
X016158Y009721D02*
X016839Y009721D01*
X018373Y009563D02*
X019965Y009563D01*
X017783Y012099D02*
X011930Y012099D01*
X011930Y012257D02*
X017875Y012257D01*
X020426Y014426D02*
X020426Y014426D01*
X020299Y014476D02*
X002808Y014476D01*
X002914Y014500D02*
X002914Y014500D01*
X003147Y014635D02*
X019928Y014635D01*
X019960Y014609D02*
X019960Y014609D01*
X019729Y014793D02*
X003387Y014793D01*
X003534Y014952D02*
X019548Y014952D01*
X019440Y015110D02*
X003681Y015110D01*
X003688Y015118D02*
X003688Y015118D01*
X003761Y015269D02*
X019332Y015269D01*
X019286Y015335D02*
X019286Y015335D01*
X019258Y015427D02*
X003837Y015427D01*
X003905Y015569D02*
X003905Y015569D01*
X003908Y015586D02*
X019209Y015586D01*
X019160Y015744D02*
X003932Y015744D01*
X003956Y015903D02*
X019139Y015903D01*
X019139Y016061D02*
X018509Y016061D01*
X018370Y016061D02*
X018330Y016061D01*
X018330Y016034D02*
X018330Y016794D01*
X017870Y016794D01*
X017870Y016477D01*
X017882Y016402D01*
X017905Y016330D01*
X017939Y016263D01*
X017984Y016202D01*
X018037Y016148D01*
X018098Y016104D01*
X018166Y016069D01*
X018238Y016046D01*
X018312Y016034D01*
X018330Y016034D01*
X018191Y016061D02*
X017458Y016061D01*
X017441Y016054D02*
X017611Y016124D01*
X017740Y016254D01*
X017810Y016423D01*
X017810Y017206D01*
X017740Y017375D01*
X017611Y017504D01*
X017441Y017574D01*
X017258Y017574D01*
X017089Y017504D01*
X016960Y017375D01*
X016890Y017206D01*
X016890Y016423D01*
X016960Y016254D01*
X017089Y016124D01*
X017258Y016054D01*
X017441Y016054D01*
X017242Y016061D02*
X003980Y016061D01*
X003980Y016064D02*
X003980Y016064D01*
X003957Y016220D02*
X005221Y016220D01*
X005479Y016220D02*
X006221Y016220D01*
X006479Y016220D02*
X007165Y016220D01*
X007166Y016219D02*
X007238Y016196D01*
X007312Y016184D01*
X007330Y016184D01*
X007330Y016944D01*
X006870Y016944D01*
X006870Y016627D01*
X006882Y016552D01*
X006905Y016480D01*
X006939Y016413D01*
X006984Y016352D01*
X007037Y016298D01*
X007098Y016254D01*
X007166Y016219D01*
X007330Y016220D02*
X007370Y016220D01*
X007370Y016378D02*
X007330Y016378D01*
X007330Y016537D02*
X007370Y016537D01*
X007370Y016695D02*
X007330Y016695D01*
X007330Y016854D02*
X007370Y016854D01*
X007830Y016854D02*
X016890Y016854D01*
X016890Y017012D02*
X007830Y017012D01*
X007830Y017171D02*
X016890Y017171D01*
X016941Y017329D02*
X007826Y017329D01*
X007775Y017488D02*
X017073Y017488D01*
X017627Y017488D02*
X018047Y017488D01*
X017921Y017329D02*
X017759Y017329D01*
X017810Y017171D02*
X017873Y017171D01*
X017870Y017012D02*
X017810Y017012D01*
X017810Y016854D02*
X017870Y016854D01*
X017870Y016695D02*
X017810Y016695D01*
X017810Y016537D02*
X017870Y016537D01*
X017889Y016378D02*
X017792Y016378D01*
X017706Y016220D02*
X017971Y016220D01*
X018330Y016220D02*
X018370Y016220D01*
X018370Y016378D02*
X018330Y016378D01*
X018330Y016537D02*
X018370Y016537D01*
X018370Y016695D02*
X018330Y016695D01*
X018830Y016695D02*
X019256Y016695D01*
X019286Y016793D02*
X019286Y016793D01*
X019328Y016854D02*
X018830Y016854D01*
X018830Y017012D02*
X019436Y017012D01*
X019544Y017171D02*
X018827Y017171D01*
X018779Y017329D02*
X019722Y017329D01*
X019568Y017207D02*
X019568Y017207D01*
X019921Y017488D02*
X018653Y017488D01*
X018830Y016537D02*
X019207Y016537D01*
X019158Y016378D02*
X018811Y016378D01*
X018729Y016220D02*
X019139Y016220D01*
X019960Y017519D02*
X019960Y017519D01*
X022261Y015269D02*
X022320Y015269D01*
X022320Y015110D02*
X022181Y015110D01*
X022188Y015118D02*
X022188Y015118D01*
X022320Y014952D02*
X022034Y014952D01*
X021887Y014793D02*
X022320Y014793D01*
X022320Y014635D02*
X021647Y014635D01*
X021414Y014500D02*
X021414Y014500D01*
X021308Y014476D02*
X022320Y014476D01*
X022320Y014318D02*
X000780Y014318D01*
X000780Y014476D02*
X001799Y014476D01*
X001926Y014426D02*
X001926Y014426D01*
X001460Y014609D02*
X001460Y014609D01*
X001428Y014635D02*
X000780Y014635D01*
X000780Y014793D02*
X001229Y014793D01*
X001048Y014952D02*
X000780Y014952D01*
X000780Y015110D02*
X000940Y015110D01*
X000832Y015269D02*
X000780Y015269D01*
X000786Y015335D02*
X000786Y015335D01*
X000780Y014159D02*
X022320Y014159D01*
X022320Y014001D02*
X000780Y014001D01*
X000780Y013208D02*
X011292Y013208D01*
X011310Y013050D02*
X000780Y013050D01*
X000780Y012891D02*
X000876Y012891D01*
X000856Y012257D02*
X000780Y012257D01*
X000780Y012099D02*
X011370Y012099D01*
X011370Y012257D02*
X002144Y012257D01*
X002236Y012416D02*
X011370Y012416D01*
X011370Y012574D02*
X002260Y012574D01*
X002228Y012733D02*
X011370Y012733D01*
X011370Y012891D02*
X002124Y012891D01*
X002075Y011940D02*
X011370Y011940D01*
X011370Y011782D02*
X002208Y011782D01*
X002260Y011623D02*
X011370Y011623D01*
X011370Y011465D02*
X002257Y011465D01*
X002191Y011306D02*
X011370Y011306D01*
X011370Y011148D02*
X001997Y011148D01*
X001976Y010989D02*
X011370Y010989D01*
X011370Y010831D02*
X002184Y010831D01*
X002253Y010672D02*
X011370Y010672D01*
X011409Y010514D02*
X002260Y010514D01*
X002211Y010355D02*
X011563Y010355D01*
X011722Y010197D02*
X002083Y010197D01*
X002135Y009880D02*
X012039Y009880D01*
X012197Y009721D02*
X002233Y009721D01*
X002260Y009563D02*
X012356Y009563D01*
X012514Y009404D02*
X002232Y009404D01*
X002132Y009246D02*
X012673Y009246D01*
X011880Y010038D02*
X000780Y010038D01*
X000780Y009880D02*
X000865Y009880D01*
X000917Y010197D02*
X000780Y010197D01*
X000780Y010355D02*
X000789Y010355D01*
X000780Y010831D02*
X000816Y010831D01*
X000780Y010989D02*
X001024Y010989D01*
X001003Y011148D02*
X000780Y011148D01*
X000780Y011306D02*
X000809Y011306D01*
X000780Y011782D02*
X000792Y011782D01*
X000780Y011940D02*
X000925Y011940D01*
X002426Y014389D02*
X002426Y014389D01*
X003933Y016378D02*
X004985Y016378D01*
X004905Y016537D02*
X003909Y016537D01*
X003840Y016695D02*
X004890Y016695D01*
X004890Y016854D02*
X003764Y016854D01*
X003688Y017011D02*
X003688Y017011D01*
X003687Y017012D02*
X004890Y017012D01*
X004890Y017171D02*
X003539Y017171D01*
X003392Y017329D02*
X004890Y017329D01*
X004945Y017488D02*
X003157Y017488D01*
X003347Y017378D02*
X003347Y017378D01*
X005715Y016378D02*
X005985Y016378D01*
X005905Y016537D02*
X005795Y016537D01*
X005810Y016695D02*
X005890Y016695D01*
X005890Y016854D02*
X005810Y016854D01*
X005810Y017012D02*
X005890Y017012D01*
X005890Y017171D02*
X005810Y017171D01*
X005810Y017329D02*
X005890Y017329D01*
X005945Y017488D02*
X005755Y017488D01*
X006755Y017488D02*
X006925Y017488D01*
X006874Y017329D02*
X006810Y017329D01*
X006810Y017171D02*
X006870Y017171D01*
X006870Y017012D02*
X006810Y017012D01*
X006810Y016854D02*
X006870Y016854D01*
X006870Y016695D02*
X006810Y016695D01*
X006795Y016537D02*
X006887Y016537D01*
X006964Y016378D02*
X006715Y016378D01*
X007535Y016220D02*
X016994Y016220D01*
X016908Y016378D02*
X007736Y016378D01*
X007813Y016537D02*
X016890Y016537D01*
X016890Y016695D02*
X007830Y016695D01*
X011346Y013367D02*
X011447Y013468D01*
X011579Y013522D01*
X011721Y013522D01*
X011853Y013468D01*
X011954Y013367D01*
X020926Y014389D02*
X020926Y014389D01*
X009450Y004491D02*
X003894Y004491D01*
X003955Y004619D02*
X003955Y004619D01*
X003817Y004332D02*
X009450Y004332D01*
X009450Y004174D02*
X003741Y004174D01*
X003738Y004168D02*
X003738Y004168D01*
X003596Y004015D02*
X009450Y004015D01*
X009379Y003857D02*
X003449Y003857D01*
X003220Y003698D02*
X009326Y003698D01*
X002964Y003550D02*
X002964Y003550D01*
X000810Y005759D02*
X000780Y005759D01*
X000836Y005843D02*
X000836Y005843D01*
X000887Y005917D02*
X000780Y005917D01*
X000780Y006076D02*
X000995Y006076D01*
X001103Y006234D02*
X000780Y006234D01*
X000780Y006393D02*
X001289Y006393D01*
X001118Y006257D02*
X001118Y006257D01*
X000780Y006551D02*
X001488Y006551D01*
X001510Y006569D02*
X001510Y006569D01*
X001868Y006710D02*
X000780Y006710D01*
X001976Y006752D02*
X001976Y006752D01*
X000868Y009246D02*
X000780Y009246D01*
D16*
X004150Y011564D03*
X006500Y013714D03*
X010000Y015114D03*
X011650Y013164D03*
X013300Y011464D03*
X013350Y010114D03*
X013550Y008764D03*
X013500Y006864D03*
X012100Y005314D03*
X009250Y004064D03*
X015200Y004514D03*
X015650Y006264D03*
X015850Y009914D03*
X014250Y014964D03*
D17*
X011650Y013164D02*
X011650Y010664D01*
X013550Y008764D01*
M02*
