G75*
%MOIN*%
%OFA0B0*%
%FSLAX24Y24*%
%IPPOS*%
%LPD*%
%AMOC8*
5,1,8,0,0,1.08239X$1,22.5*
%
%ADD10C,0.0000*%
%ADD11C,0.0060*%
%ADD12C,0.0020*%
%ADD13C,0.0050*%
%ADD14C,0.0080*%
%ADD15C,0.0040*%
%ADD16R,0.0660X0.0380*%
%ADD17C,0.0030*%
%ADD18C,0.0004*%
%ADD19R,0.0450X0.0364*%
%ADD20C,0.0025*%
%ADD21C,0.0098*%
D10*
X000300Y003064D02*
X000300Y018064D01*
X022800Y018064D01*
X022800Y003064D01*
X000300Y003064D01*
X001720Y005114D02*
X001722Y005164D01*
X001728Y005214D01*
X001738Y005263D01*
X001752Y005311D01*
X001769Y005358D01*
X001790Y005403D01*
X001815Y005447D01*
X001843Y005488D01*
X001875Y005527D01*
X001909Y005564D01*
X001946Y005598D01*
X001986Y005628D01*
X002028Y005655D01*
X002072Y005679D01*
X002118Y005700D01*
X002165Y005716D01*
X002213Y005729D01*
X002263Y005738D01*
X002312Y005743D01*
X002363Y005744D01*
X002413Y005741D01*
X002462Y005734D01*
X002511Y005723D01*
X002559Y005708D01*
X002605Y005690D01*
X002650Y005668D01*
X002693Y005642D01*
X002734Y005613D01*
X002773Y005581D01*
X002809Y005546D01*
X002841Y005508D01*
X002871Y005468D01*
X002898Y005425D01*
X002921Y005381D01*
X002940Y005335D01*
X002956Y005287D01*
X002968Y005238D01*
X002976Y005189D01*
X002980Y005139D01*
X002980Y005089D01*
X002976Y005039D01*
X002968Y004990D01*
X002956Y004941D01*
X002940Y004893D01*
X002921Y004847D01*
X002898Y004803D01*
X002871Y004760D01*
X002841Y004720D01*
X002809Y004682D01*
X002773Y004647D01*
X002734Y004615D01*
X002693Y004586D01*
X002650Y004560D01*
X002605Y004538D01*
X002559Y004520D01*
X002511Y004505D01*
X002462Y004494D01*
X002413Y004487D01*
X002363Y004484D01*
X002312Y004485D01*
X002263Y004490D01*
X002213Y004499D01*
X002165Y004512D01*
X002118Y004528D01*
X002072Y004549D01*
X002028Y004573D01*
X001986Y004600D01*
X001946Y004630D01*
X001909Y004664D01*
X001875Y004701D01*
X001843Y004740D01*
X001815Y004781D01*
X001790Y004825D01*
X001769Y004870D01*
X001752Y004917D01*
X001738Y004965D01*
X001728Y005014D01*
X001722Y005064D01*
X001720Y005114D01*
X001670Y016064D02*
X001672Y016114D01*
X001678Y016164D01*
X001688Y016213D01*
X001702Y016261D01*
X001719Y016308D01*
X001740Y016353D01*
X001765Y016397D01*
X001793Y016438D01*
X001825Y016477D01*
X001859Y016514D01*
X001896Y016548D01*
X001936Y016578D01*
X001978Y016605D01*
X002022Y016629D01*
X002068Y016650D01*
X002115Y016666D01*
X002163Y016679D01*
X002213Y016688D01*
X002262Y016693D01*
X002313Y016694D01*
X002363Y016691D01*
X002412Y016684D01*
X002461Y016673D01*
X002509Y016658D01*
X002555Y016640D01*
X002600Y016618D01*
X002643Y016592D01*
X002684Y016563D01*
X002723Y016531D01*
X002759Y016496D01*
X002791Y016458D01*
X002821Y016418D01*
X002848Y016375D01*
X002871Y016331D01*
X002890Y016285D01*
X002906Y016237D01*
X002918Y016188D01*
X002926Y016139D01*
X002930Y016089D01*
X002930Y016039D01*
X002926Y015989D01*
X002918Y015940D01*
X002906Y015891D01*
X002890Y015843D01*
X002871Y015797D01*
X002848Y015753D01*
X002821Y015710D01*
X002791Y015670D01*
X002759Y015632D01*
X002723Y015597D01*
X002684Y015565D01*
X002643Y015536D01*
X002600Y015510D01*
X002555Y015488D01*
X002509Y015470D01*
X002461Y015455D01*
X002412Y015444D01*
X002363Y015437D01*
X002313Y015434D01*
X002262Y015435D01*
X002213Y015440D01*
X002163Y015449D01*
X002115Y015462D01*
X002068Y015478D01*
X002022Y015499D01*
X001978Y015523D01*
X001936Y015550D01*
X001896Y015580D01*
X001859Y015614D01*
X001825Y015651D01*
X001793Y015690D01*
X001765Y015731D01*
X001740Y015775D01*
X001719Y015820D01*
X001702Y015867D01*
X001688Y015915D01*
X001678Y015964D01*
X001672Y016014D01*
X001670Y016064D01*
X020060Y012714D02*
X020062Y012764D01*
X020068Y012814D01*
X020078Y012863D01*
X020091Y012912D01*
X020109Y012959D01*
X020130Y013005D01*
X020154Y013048D01*
X020182Y013090D01*
X020213Y013130D01*
X020247Y013167D01*
X020284Y013201D01*
X020324Y013232D01*
X020366Y013260D01*
X020409Y013284D01*
X020455Y013305D01*
X020502Y013323D01*
X020551Y013336D01*
X020600Y013346D01*
X020650Y013352D01*
X020700Y013354D01*
X020750Y013352D01*
X020800Y013346D01*
X020849Y013336D01*
X020898Y013323D01*
X020945Y013305D01*
X020991Y013284D01*
X021034Y013260D01*
X021076Y013232D01*
X021116Y013201D01*
X021153Y013167D01*
X021187Y013130D01*
X021218Y013090D01*
X021246Y013048D01*
X021270Y013005D01*
X021291Y012959D01*
X021309Y012912D01*
X021322Y012863D01*
X021332Y012814D01*
X021338Y012764D01*
X021340Y012714D01*
X021338Y012664D01*
X021332Y012614D01*
X021322Y012565D01*
X021309Y012516D01*
X021291Y012469D01*
X021270Y012423D01*
X021246Y012380D01*
X021218Y012338D01*
X021187Y012298D01*
X021153Y012261D01*
X021116Y012227D01*
X021076Y012196D01*
X021034Y012168D01*
X020991Y012144D01*
X020945Y012123D01*
X020898Y012105D01*
X020849Y012092D01*
X020800Y012082D01*
X020750Y012076D01*
X020700Y012074D01*
X020650Y012076D01*
X020600Y012082D01*
X020551Y012092D01*
X020502Y012105D01*
X020455Y012123D01*
X020409Y012144D01*
X020366Y012168D01*
X020324Y012196D01*
X020284Y012227D01*
X020247Y012261D01*
X020213Y012298D01*
X020182Y012338D01*
X020154Y012380D01*
X020130Y012423D01*
X020109Y012469D01*
X020091Y012516D01*
X020078Y012565D01*
X020068Y012614D01*
X020062Y012664D01*
X020060Y012714D01*
X020170Y016064D02*
X020172Y016114D01*
X020178Y016164D01*
X020188Y016213D01*
X020202Y016261D01*
X020219Y016308D01*
X020240Y016353D01*
X020265Y016397D01*
X020293Y016438D01*
X020325Y016477D01*
X020359Y016514D01*
X020396Y016548D01*
X020436Y016578D01*
X020478Y016605D01*
X020522Y016629D01*
X020568Y016650D01*
X020615Y016666D01*
X020663Y016679D01*
X020713Y016688D01*
X020762Y016693D01*
X020813Y016694D01*
X020863Y016691D01*
X020912Y016684D01*
X020961Y016673D01*
X021009Y016658D01*
X021055Y016640D01*
X021100Y016618D01*
X021143Y016592D01*
X021184Y016563D01*
X021223Y016531D01*
X021259Y016496D01*
X021291Y016458D01*
X021321Y016418D01*
X021348Y016375D01*
X021371Y016331D01*
X021390Y016285D01*
X021406Y016237D01*
X021418Y016188D01*
X021426Y016139D01*
X021430Y016089D01*
X021430Y016039D01*
X021426Y015989D01*
X021418Y015940D01*
X021406Y015891D01*
X021390Y015843D01*
X021371Y015797D01*
X021348Y015753D01*
X021321Y015710D01*
X021291Y015670D01*
X021259Y015632D01*
X021223Y015597D01*
X021184Y015565D01*
X021143Y015536D01*
X021100Y015510D01*
X021055Y015488D01*
X021009Y015470D01*
X020961Y015455D01*
X020912Y015444D01*
X020863Y015437D01*
X020813Y015434D01*
X020762Y015435D01*
X020713Y015440D01*
X020663Y015449D01*
X020615Y015462D01*
X020568Y015478D01*
X020522Y015499D01*
X020478Y015523D01*
X020436Y015550D01*
X020396Y015580D01*
X020359Y015614D01*
X020325Y015651D01*
X020293Y015690D01*
X020265Y015731D01*
X020240Y015775D01*
X020219Y015820D01*
X020202Y015867D01*
X020188Y015915D01*
X020178Y015964D01*
X020172Y016014D01*
X020170Y016064D01*
X020060Y008714D02*
X020062Y008764D01*
X020068Y008814D01*
X020078Y008863D01*
X020091Y008912D01*
X020109Y008959D01*
X020130Y009005D01*
X020154Y009048D01*
X020182Y009090D01*
X020213Y009130D01*
X020247Y009167D01*
X020284Y009201D01*
X020324Y009232D01*
X020366Y009260D01*
X020409Y009284D01*
X020455Y009305D01*
X020502Y009323D01*
X020551Y009336D01*
X020600Y009346D01*
X020650Y009352D01*
X020700Y009354D01*
X020750Y009352D01*
X020800Y009346D01*
X020849Y009336D01*
X020898Y009323D01*
X020945Y009305D01*
X020991Y009284D01*
X021034Y009260D01*
X021076Y009232D01*
X021116Y009201D01*
X021153Y009167D01*
X021187Y009130D01*
X021218Y009090D01*
X021246Y009048D01*
X021270Y009005D01*
X021291Y008959D01*
X021309Y008912D01*
X021322Y008863D01*
X021332Y008814D01*
X021338Y008764D01*
X021340Y008714D01*
X021338Y008664D01*
X021332Y008614D01*
X021322Y008565D01*
X021309Y008516D01*
X021291Y008469D01*
X021270Y008423D01*
X021246Y008380D01*
X021218Y008338D01*
X021187Y008298D01*
X021153Y008261D01*
X021116Y008227D01*
X021076Y008196D01*
X021034Y008168D01*
X020991Y008144D01*
X020945Y008123D01*
X020898Y008105D01*
X020849Y008092D01*
X020800Y008082D01*
X020750Y008076D01*
X020700Y008074D01*
X020650Y008076D01*
X020600Y008082D01*
X020551Y008092D01*
X020502Y008105D01*
X020455Y008123D01*
X020409Y008144D01*
X020366Y008168D01*
X020324Y008196D01*
X020284Y008227D01*
X020247Y008261D01*
X020213Y008298D01*
X020182Y008338D01*
X020154Y008380D01*
X020130Y008423D01*
X020109Y008469D01*
X020091Y008516D01*
X020078Y008565D01*
X020068Y008614D01*
X020062Y008664D01*
X020060Y008714D01*
X020170Y005064D02*
X020172Y005114D01*
X020178Y005164D01*
X020188Y005213D01*
X020202Y005261D01*
X020219Y005308D01*
X020240Y005353D01*
X020265Y005397D01*
X020293Y005438D01*
X020325Y005477D01*
X020359Y005514D01*
X020396Y005548D01*
X020436Y005578D01*
X020478Y005605D01*
X020522Y005629D01*
X020568Y005650D01*
X020615Y005666D01*
X020663Y005679D01*
X020713Y005688D01*
X020762Y005693D01*
X020813Y005694D01*
X020863Y005691D01*
X020912Y005684D01*
X020961Y005673D01*
X021009Y005658D01*
X021055Y005640D01*
X021100Y005618D01*
X021143Y005592D01*
X021184Y005563D01*
X021223Y005531D01*
X021259Y005496D01*
X021291Y005458D01*
X021321Y005418D01*
X021348Y005375D01*
X021371Y005331D01*
X021390Y005285D01*
X021406Y005237D01*
X021418Y005188D01*
X021426Y005139D01*
X021430Y005089D01*
X021430Y005039D01*
X021426Y004989D01*
X021418Y004940D01*
X021406Y004891D01*
X021390Y004843D01*
X021371Y004797D01*
X021348Y004753D01*
X021321Y004710D01*
X021291Y004670D01*
X021259Y004632D01*
X021223Y004597D01*
X021184Y004565D01*
X021143Y004536D01*
X021100Y004510D01*
X021055Y004488D01*
X021009Y004470D01*
X020961Y004455D01*
X020912Y004444D01*
X020863Y004437D01*
X020813Y004434D01*
X020762Y004435D01*
X020713Y004440D01*
X020663Y004449D01*
X020615Y004462D01*
X020568Y004478D01*
X020522Y004499D01*
X020478Y004523D01*
X020436Y004550D01*
X020396Y004580D01*
X020359Y004614D01*
X020325Y004651D01*
X020293Y004690D01*
X020265Y004731D01*
X020240Y004775D01*
X020219Y004820D01*
X020202Y004867D01*
X020188Y004915D01*
X020178Y004964D01*
X020172Y005014D01*
X020170Y005064D01*
D11*
X019450Y005064D02*
X019452Y005137D01*
X019458Y005210D01*
X019468Y005282D01*
X019482Y005354D01*
X019499Y005425D01*
X019521Y005495D01*
X019546Y005564D01*
X019575Y005631D01*
X019607Y005696D01*
X019643Y005760D01*
X019683Y005822D01*
X019725Y005881D01*
X019771Y005938D01*
X019820Y005992D01*
X019872Y006044D01*
X019926Y006093D01*
X019983Y006139D01*
X020042Y006181D01*
X020104Y006221D01*
X020168Y006257D01*
X020233Y006289D01*
X020300Y006318D01*
X020369Y006343D01*
X020439Y006365D01*
X020510Y006382D01*
X020582Y006396D01*
X020654Y006406D01*
X020727Y006412D01*
X020800Y006414D01*
X020873Y006412D01*
X020946Y006406D01*
X021018Y006396D01*
X021090Y006382D01*
X021161Y006365D01*
X021231Y006343D01*
X021300Y006318D01*
X021367Y006289D01*
X021432Y006257D01*
X021496Y006221D01*
X021558Y006181D01*
X021617Y006139D01*
X021674Y006093D01*
X021728Y006044D01*
X021780Y005992D01*
X021829Y005938D01*
X021875Y005881D01*
X021917Y005822D01*
X021957Y005760D01*
X021993Y005696D01*
X022025Y005631D01*
X022054Y005564D01*
X022079Y005495D01*
X022101Y005425D01*
X022118Y005354D01*
X022132Y005282D01*
X022142Y005210D01*
X022148Y005137D01*
X022150Y005064D01*
X022148Y004991D01*
X022142Y004918D01*
X022132Y004846D01*
X022118Y004774D01*
X022101Y004703D01*
X022079Y004633D01*
X022054Y004564D01*
X022025Y004497D01*
X021993Y004432D01*
X021957Y004368D01*
X021917Y004306D01*
X021875Y004247D01*
X021829Y004190D01*
X021780Y004136D01*
X021728Y004084D01*
X021674Y004035D01*
X021617Y003989D01*
X021558Y003947D01*
X021496Y003907D01*
X021432Y003871D01*
X021367Y003839D01*
X021300Y003810D01*
X021231Y003785D01*
X021161Y003763D01*
X021090Y003746D01*
X021018Y003732D01*
X020946Y003722D01*
X020873Y003716D01*
X020800Y003714D01*
X020727Y003716D01*
X020654Y003722D01*
X020582Y003732D01*
X020510Y003746D01*
X020439Y003763D01*
X020369Y003785D01*
X020300Y003810D01*
X020233Y003839D01*
X020168Y003871D01*
X020104Y003907D01*
X020042Y003947D01*
X019983Y003989D01*
X019926Y004035D01*
X019872Y004084D01*
X019820Y004136D01*
X019771Y004190D01*
X019725Y004247D01*
X019683Y004306D01*
X019643Y004368D01*
X019607Y004432D01*
X019575Y004497D01*
X019546Y004564D01*
X019521Y004633D01*
X019499Y004703D01*
X019482Y004774D01*
X019468Y004846D01*
X019458Y004918D01*
X019452Y004991D01*
X019450Y005064D01*
X019798Y007044D02*
X019904Y007044D01*
X020011Y007151D01*
X020011Y007685D01*
X019904Y007685D02*
X020118Y007685D01*
X020335Y007471D02*
X020549Y007685D01*
X020549Y007044D01*
X020762Y007044D02*
X020335Y007044D01*
X019798Y007044D02*
X019691Y007151D01*
X019450Y016064D02*
X019452Y016137D01*
X019458Y016210D01*
X019468Y016282D01*
X019482Y016354D01*
X019499Y016425D01*
X019521Y016495D01*
X019546Y016564D01*
X019575Y016631D01*
X019607Y016696D01*
X019643Y016760D01*
X019683Y016822D01*
X019725Y016881D01*
X019771Y016938D01*
X019820Y016992D01*
X019872Y017044D01*
X019926Y017093D01*
X019983Y017139D01*
X020042Y017181D01*
X020104Y017221D01*
X020168Y017257D01*
X020233Y017289D01*
X020300Y017318D01*
X020369Y017343D01*
X020439Y017365D01*
X020510Y017382D01*
X020582Y017396D01*
X020654Y017406D01*
X020727Y017412D01*
X020800Y017414D01*
X020873Y017412D01*
X020946Y017406D01*
X021018Y017396D01*
X021090Y017382D01*
X021161Y017365D01*
X021231Y017343D01*
X021300Y017318D01*
X021367Y017289D01*
X021432Y017257D01*
X021496Y017221D01*
X021558Y017181D01*
X021617Y017139D01*
X021674Y017093D01*
X021728Y017044D01*
X021780Y016992D01*
X021829Y016938D01*
X021875Y016881D01*
X021917Y016822D01*
X021957Y016760D01*
X021993Y016696D01*
X022025Y016631D01*
X022054Y016564D01*
X022079Y016495D01*
X022101Y016425D01*
X022118Y016354D01*
X022132Y016282D01*
X022142Y016210D01*
X022148Y016137D01*
X022150Y016064D01*
X022148Y015991D01*
X022142Y015918D01*
X022132Y015846D01*
X022118Y015774D01*
X022101Y015703D01*
X022079Y015633D01*
X022054Y015564D01*
X022025Y015497D01*
X021993Y015432D01*
X021957Y015368D01*
X021917Y015306D01*
X021875Y015247D01*
X021829Y015190D01*
X021780Y015136D01*
X021728Y015084D01*
X021674Y015035D01*
X021617Y014989D01*
X021558Y014947D01*
X021496Y014907D01*
X021432Y014871D01*
X021367Y014839D01*
X021300Y014810D01*
X021231Y014785D01*
X021161Y014763D01*
X021090Y014746D01*
X021018Y014732D01*
X020946Y014722D01*
X020873Y014716D01*
X020800Y014714D01*
X020727Y014716D01*
X020654Y014722D01*
X020582Y014732D01*
X020510Y014746D01*
X020439Y014763D01*
X020369Y014785D01*
X020300Y014810D01*
X020233Y014839D01*
X020168Y014871D01*
X020104Y014907D01*
X020042Y014947D01*
X019983Y014989D01*
X019926Y015035D01*
X019872Y015084D01*
X019820Y015136D01*
X019771Y015190D01*
X019725Y015247D01*
X019683Y015306D01*
X019643Y015368D01*
X019607Y015432D01*
X019575Y015497D01*
X019546Y015564D01*
X019521Y015633D01*
X019499Y015703D01*
X019482Y015774D01*
X019468Y015846D01*
X019458Y015918D01*
X019452Y015991D01*
X019450Y016064D01*
X018850Y016564D02*
X018600Y016314D01*
X018100Y016314D01*
X017850Y016564D01*
X017600Y016314D01*
X017100Y016314D01*
X016850Y016564D01*
X016850Y017064D01*
X017100Y017314D01*
X017600Y017314D01*
X017850Y017064D01*
X018100Y017314D01*
X018600Y017314D01*
X018850Y017064D01*
X018850Y016564D01*
X017850Y016564D02*
X017850Y017064D01*
X007850Y017214D02*
X007850Y016714D01*
X007600Y016464D01*
X007100Y016464D01*
X006850Y016714D01*
X006600Y016464D01*
X006100Y016464D01*
X005850Y016714D01*
X005600Y016464D01*
X005100Y016464D01*
X004850Y016714D01*
X004850Y017214D01*
X005100Y017464D01*
X005600Y017464D01*
X005850Y017214D01*
X006100Y017464D01*
X006600Y017464D01*
X006850Y017214D01*
X007100Y017464D01*
X007600Y017464D01*
X007850Y017214D01*
X006850Y017214D02*
X006850Y016714D01*
X005850Y016714D02*
X005850Y017214D01*
X000950Y016064D02*
X000952Y016137D01*
X000958Y016210D01*
X000968Y016282D01*
X000982Y016354D01*
X000999Y016425D01*
X001021Y016495D01*
X001046Y016564D01*
X001075Y016631D01*
X001107Y016696D01*
X001143Y016760D01*
X001183Y016822D01*
X001225Y016881D01*
X001271Y016938D01*
X001320Y016992D01*
X001372Y017044D01*
X001426Y017093D01*
X001483Y017139D01*
X001542Y017181D01*
X001604Y017221D01*
X001668Y017257D01*
X001733Y017289D01*
X001800Y017318D01*
X001869Y017343D01*
X001939Y017365D01*
X002010Y017382D01*
X002082Y017396D01*
X002154Y017406D01*
X002227Y017412D01*
X002300Y017414D01*
X002373Y017412D01*
X002446Y017406D01*
X002518Y017396D01*
X002590Y017382D01*
X002661Y017365D01*
X002731Y017343D01*
X002800Y017318D01*
X002867Y017289D01*
X002932Y017257D01*
X002996Y017221D01*
X003058Y017181D01*
X003117Y017139D01*
X003174Y017093D01*
X003228Y017044D01*
X003280Y016992D01*
X003329Y016938D01*
X003375Y016881D01*
X003417Y016822D01*
X003457Y016760D01*
X003493Y016696D01*
X003525Y016631D01*
X003554Y016564D01*
X003579Y016495D01*
X003601Y016425D01*
X003618Y016354D01*
X003632Y016282D01*
X003642Y016210D01*
X003648Y016137D01*
X003650Y016064D01*
X003648Y015991D01*
X003642Y015918D01*
X003632Y015846D01*
X003618Y015774D01*
X003601Y015703D01*
X003579Y015633D01*
X003554Y015564D01*
X003525Y015497D01*
X003493Y015432D01*
X003457Y015368D01*
X003417Y015306D01*
X003375Y015247D01*
X003329Y015190D01*
X003280Y015136D01*
X003228Y015084D01*
X003174Y015035D01*
X003117Y014989D01*
X003058Y014947D01*
X002996Y014907D01*
X002932Y014871D01*
X002867Y014839D01*
X002800Y014810D01*
X002731Y014785D01*
X002661Y014763D01*
X002590Y014746D01*
X002518Y014732D01*
X002446Y014722D01*
X002373Y014716D01*
X002300Y014714D01*
X002227Y014716D01*
X002154Y014722D01*
X002082Y014732D01*
X002010Y014746D01*
X001939Y014763D01*
X001869Y014785D01*
X001800Y014810D01*
X001733Y014839D01*
X001668Y014871D01*
X001604Y014907D01*
X001542Y014947D01*
X001483Y014989D01*
X001426Y015035D01*
X001372Y015084D01*
X001320Y015136D01*
X001271Y015190D01*
X001225Y015247D01*
X001183Y015306D01*
X001143Y015368D01*
X001107Y015432D01*
X001075Y015497D01*
X001046Y015564D01*
X001021Y015633D01*
X000999Y015703D01*
X000982Y015774D01*
X000968Y015846D01*
X000958Y015918D01*
X000952Y015991D01*
X000950Y016064D01*
X001250Y013064D02*
X001000Y012814D01*
X001000Y012314D01*
X001250Y012064D01*
X001000Y011814D01*
X001000Y011314D01*
X001250Y011064D01*
X001750Y011064D01*
X002000Y011314D01*
X002000Y011814D01*
X001750Y012064D01*
X001250Y012064D01*
X001750Y012064D02*
X002000Y012314D01*
X002000Y012814D01*
X001750Y013064D01*
X001250Y013064D01*
X001250Y011064D02*
X001000Y010814D01*
X001000Y010314D01*
X001250Y010064D01*
X001000Y009814D01*
X001000Y009314D01*
X001250Y009064D01*
X001000Y008814D01*
X001000Y008314D01*
X001250Y008064D01*
X001750Y008064D01*
X002000Y008314D01*
X002000Y008814D01*
X001750Y009064D01*
X001250Y009064D01*
X001750Y009064D02*
X002000Y009314D01*
X002000Y009814D01*
X001750Y010064D01*
X001250Y010064D01*
X001750Y010064D02*
X002000Y010314D01*
X002000Y010814D01*
X001750Y011064D01*
X004750Y011194D02*
X004750Y011614D01*
X004750Y012014D01*
X004750Y012434D01*
X004752Y012457D01*
X004757Y012480D01*
X004766Y012502D01*
X004779Y012522D01*
X004794Y012540D01*
X004812Y012555D01*
X004832Y012568D01*
X004854Y012577D01*
X004877Y012582D01*
X004900Y012584D01*
X006600Y012584D01*
X006623Y012582D01*
X006646Y012577D01*
X006668Y012568D01*
X006688Y012555D01*
X006706Y012540D01*
X006721Y012522D01*
X006734Y012502D01*
X006743Y012480D01*
X006748Y012457D01*
X006750Y012434D01*
X006750Y011194D01*
X006748Y011171D01*
X006743Y011148D01*
X006734Y011126D01*
X006721Y011106D01*
X006706Y011088D01*
X006688Y011073D01*
X006668Y011060D01*
X006646Y011051D01*
X006623Y011046D01*
X006600Y011044D01*
X004900Y011044D01*
X004877Y011046D01*
X004854Y011051D01*
X004832Y011060D01*
X004812Y011073D01*
X004794Y011088D01*
X004779Y011106D01*
X004766Y011126D01*
X004757Y011148D01*
X004752Y011171D01*
X004750Y011194D01*
X004750Y011614D02*
X004777Y011616D01*
X004804Y011621D01*
X004830Y011631D01*
X004854Y011643D01*
X004876Y011659D01*
X004896Y011677D01*
X004913Y011699D01*
X004928Y011722D01*
X004938Y011747D01*
X004946Y011773D01*
X004950Y011800D01*
X004950Y011828D01*
X004946Y011855D01*
X004938Y011881D01*
X004928Y011906D01*
X004913Y011929D01*
X004896Y011951D01*
X004876Y011969D01*
X004854Y011985D01*
X004830Y011997D01*
X004804Y012007D01*
X004777Y012012D01*
X004750Y012014D01*
X001000Y005114D02*
X001002Y005187D01*
X001008Y005260D01*
X001018Y005332D01*
X001032Y005404D01*
X001049Y005475D01*
X001071Y005545D01*
X001096Y005614D01*
X001125Y005681D01*
X001157Y005746D01*
X001193Y005810D01*
X001233Y005872D01*
X001275Y005931D01*
X001321Y005988D01*
X001370Y006042D01*
X001422Y006094D01*
X001476Y006143D01*
X001533Y006189D01*
X001592Y006231D01*
X001654Y006271D01*
X001718Y006307D01*
X001783Y006339D01*
X001850Y006368D01*
X001919Y006393D01*
X001989Y006415D01*
X002060Y006432D01*
X002132Y006446D01*
X002204Y006456D01*
X002277Y006462D01*
X002350Y006464D01*
X002423Y006462D01*
X002496Y006456D01*
X002568Y006446D01*
X002640Y006432D01*
X002711Y006415D01*
X002781Y006393D01*
X002850Y006368D01*
X002917Y006339D01*
X002982Y006307D01*
X003046Y006271D01*
X003108Y006231D01*
X003167Y006189D01*
X003224Y006143D01*
X003278Y006094D01*
X003330Y006042D01*
X003379Y005988D01*
X003425Y005931D01*
X003467Y005872D01*
X003507Y005810D01*
X003543Y005746D01*
X003575Y005681D01*
X003604Y005614D01*
X003629Y005545D01*
X003651Y005475D01*
X003668Y005404D01*
X003682Y005332D01*
X003692Y005260D01*
X003698Y005187D01*
X003700Y005114D01*
X003698Y005041D01*
X003692Y004968D01*
X003682Y004896D01*
X003668Y004824D01*
X003651Y004753D01*
X003629Y004683D01*
X003604Y004614D01*
X003575Y004547D01*
X003543Y004482D01*
X003507Y004418D01*
X003467Y004356D01*
X003425Y004297D01*
X003379Y004240D01*
X003330Y004186D01*
X003278Y004134D01*
X003224Y004085D01*
X003167Y004039D01*
X003108Y003997D01*
X003046Y003957D01*
X002982Y003921D01*
X002917Y003889D01*
X002850Y003860D01*
X002781Y003835D01*
X002711Y003813D01*
X002640Y003796D01*
X002568Y003782D01*
X002496Y003772D01*
X002423Y003766D01*
X002350Y003764D01*
X002277Y003766D01*
X002204Y003772D01*
X002132Y003782D01*
X002060Y003796D01*
X001989Y003813D01*
X001919Y003835D01*
X001850Y003860D01*
X001783Y003889D01*
X001718Y003921D01*
X001654Y003957D01*
X001592Y003997D01*
X001533Y004039D01*
X001476Y004085D01*
X001422Y004134D01*
X001370Y004186D01*
X001321Y004240D01*
X001275Y004297D01*
X001233Y004356D01*
X001193Y004418D01*
X001157Y004482D01*
X001125Y004547D01*
X001096Y004614D01*
X001071Y004683D01*
X001049Y004753D01*
X001032Y004824D01*
X001018Y004896D01*
X001008Y004968D01*
X001002Y005041D01*
X001000Y005114D01*
D12*
X004750Y011184D02*
X006750Y011184D01*
D13*
X006929Y012889D02*
X007079Y012889D01*
X007154Y012964D01*
X007154Y013340D01*
X007315Y013265D02*
X007390Y013340D01*
X007540Y013340D01*
X007615Y013265D01*
X007615Y013190D01*
X007540Y013115D01*
X007615Y013039D01*
X007615Y012964D01*
X007540Y012889D01*
X007390Y012889D01*
X007315Y012964D01*
X007465Y013115D02*
X007540Y013115D01*
X006929Y012889D02*
X006854Y012964D01*
X006854Y013340D01*
X006216Y015659D02*
X005916Y016110D01*
X005756Y016110D02*
X005756Y015659D01*
X005916Y015659D02*
X006216Y016110D01*
X005756Y016110D02*
X005606Y015960D01*
X005455Y016110D01*
X005455Y015659D01*
X005295Y015734D02*
X005295Y016035D01*
X005220Y016110D01*
X004995Y016110D01*
X004995Y015659D01*
X005220Y015659D01*
X005295Y015734D01*
X002695Y012963D02*
X002695Y012812D01*
X002695Y012887D02*
X002245Y012887D01*
X002245Y012812D02*
X002245Y012963D01*
X002320Y012652D02*
X002245Y012577D01*
X002245Y012352D01*
X002695Y012352D01*
X002695Y012577D01*
X002620Y012652D01*
X002320Y012652D01*
X002245Y012195D02*
X002245Y012045D01*
X002245Y012120D02*
X002695Y012120D01*
X002695Y012045D02*
X002695Y012195D01*
X002695Y011885D02*
X002245Y011885D01*
X002395Y011735D01*
X002245Y011585D01*
X002695Y011585D01*
X016845Y017559D02*
X016845Y018010D01*
X017070Y018010D01*
X017145Y017935D01*
X017145Y017785D01*
X017070Y017709D01*
X016845Y017709D01*
X017305Y017559D02*
X017305Y018010D01*
X017606Y018010D02*
X017606Y017559D01*
X017456Y017709D01*
X017305Y017559D01*
X017766Y017559D02*
X017766Y018010D01*
X017991Y018010D01*
X018066Y017935D01*
X018066Y017785D01*
X017991Y017709D01*
X017766Y017709D01*
X017916Y017709D02*
X018066Y017559D01*
D14*
X020131Y016064D02*
X020133Y016115D01*
X020139Y016166D01*
X020149Y016216D01*
X020162Y016266D01*
X020180Y016314D01*
X020200Y016361D01*
X020225Y016406D01*
X020253Y016449D01*
X020284Y016490D01*
X020318Y016528D01*
X020355Y016563D01*
X020394Y016596D01*
X020436Y016626D01*
X020480Y016652D01*
X020526Y016674D01*
X020574Y016694D01*
X020623Y016709D01*
X020673Y016721D01*
X020723Y016729D01*
X020774Y016733D01*
X020826Y016733D01*
X020877Y016729D01*
X020927Y016721D01*
X020977Y016709D01*
X021026Y016694D01*
X021074Y016674D01*
X021120Y016652D01*
X021164Y016626D01*
X021206Y016596D01*
X021245Y016563D01*
X021282Y016528D01*
X021316Y016490D01*
X021347Y016449D01*
X021375Y016406D01*
X021400Y016361D01*
X021420Y016314D01*
X021438Y016266D01*
X021451Y016216D01*
X021461Y016166D01*
X021467Y016115D01*
X021469Y016064D01*
X021467Y016013D01*
X021461Y015962D01*
X021451Y015912D01*
X021438Y015862D01*
X021420Y015814D01*
X021400Y015767D01*
X021375Y015722D01*
X021347Y015679D01*
X021316Y015638D01*
X021282Y015600D01*
X021245Y015565D01*
X021206Y015532D01*
X021164Y015502D01*
X021120Y015476D01*
X021074Y015454D01*
X021026Y015434D01*
X020977Y015419D01*
X020927Y015407D01*
X020877Y015399D01*
X020826Y015395D01*
X020774Y015395D01*
X020723Y015399D01*
X020673Y015407D01*
X020623Y015419D01*
X020574Y015434D01*
X020526Y015454D01*
X020480Y015476D01*
X020436Y015502D01*
X020394Y015532D01*
X020355Y015565D01*
X020318Y015600D01*
X020284Y015638D01*
X020253Y015679D01*
X020225Y015722D01*
X020200Y015767D01*
X020180Y015814D01*
X020162Y015862D01*
X020149Y015912D01*
X020139Y015962D01*
X020133Y016013D01*
X020131Y016064D01*
X023764Y013422D02*
X016441Y013422D01*
X016441Y008007D01*
X023764Y008007D01*
X023764Y013422D01*
X013874Y007472D02*
X013874Y003456D01*
X011826Y003456D01*
X011826Y007472D01*
X011484Y008109D02*
X011484Y012120D01*
X008060Y007206D02*
X005640Y007206D01*
X005640Y003522D01*
X008060Y003522D01*
X008060Y007206D01*
X001681Y005114D02*
X001683Y005165D01*
X001689Y005216D01*
X001699Y005266D01*
X001712Y005316D01*
X001730Y005364D01*
X001750Y005411D01*
X001775Y005456D01*
X001803Y005499D01*
X001834Y005540D01*
X001868Y005578D01*
X001905Y005613D01*
X001944Y005646D01*
X001986Y005676D01*
X002030Y005702D01*
X002076Y005724D01*
X002124Y005744D01*
X002173Y005759D01*
X002223Y005771D01*
X002273Y005779D01*
X002324Y005783D01*
X002376Y005783D01*
X002427Y005779D01*
X002477Y005771D01*
X002527Y005759D01*
X002576Y005744D01*
X002624Y005724D01*
X002670Y005702D01*
X002714Y005676D01*
X002756Y005646D01*
X002795Y005613D01*
X002832Y005578D01*
X002866Y005540D01*
X002897Y005499D01*
X002925Y005456D01*
X002950Y005411D01*
X002970Y005364D01*
X002988Y005316D01*
X003001Y005266D01*
X003011Y005216D01*
X003017Y005165D01*
X003019Y005114D01*
X003017Y005063D01*
X003011Y005012D01*
X003001Y004962D01*
X002988Y004912D01*
X002970Y004864D01*
X002950Y004817D01*
X002925Y004772D01*
X002897Y004729D01*
X002866Y004688D01*
X002832Y004650D01*
X002795Y004615D01*
X002756Y004582D01*
X002714Y004552D01*
X002670Y004526D01*
X002624Y004504D01*
X002576Y004484D01*
X002527Y004469D01*
X002477Y004457D01*
X002427Y004449D01*
X002376Y004445D01*
X002324Y004445D01*
X002273Y004449D01*
X002223Y004457D01*
X002173Y004469D01*
X002124Y004484D01*
X002076Y004504D01*
X002030Y004526D01*
X001986Y004552D01*
X001944Y004582D01*
X001905Y004615D01*
X001868Y004650D01*
X001834Y004688D01*
X001803Y004729D01*
X001775Y004772D01*
X001750Y004817D01*
X001730Y004864D01*
X001712Y004912D01*
X001699Y004962D01*
X001689Y005012D01*
X001683Y005063D01*
X001681Y005114D01*
X001631Y016064D02*
X001633Y016115D01*
X001639Y016166D01*
X001649Y016216D01*
X001662Y016266D01*
X001680Y016314D01*
X001700Y016361D01*
X001725Y016406D01*
X001753Y016449D01*
X001784Y016490D01*
X001818Y016528D01*
X001855Y016563D01*
X001894Y016596D01*
X001936Y016626D01*
X001980Y016652D01*
X002026Y016674D01*
X002074Y016694D01*
X002123Y016709D01*
X002173Y016721D01*
X002223Y016729D01*
X002274Y016733D01*
X002326Y016733D01*
X002377Y016729D01*
X002427Y016721D01*
X002477Y016709D01*
X002526Y016694D01*
X002574Y016674D01*
X002620Y016652D01*
X002664Y016626D01*
X002706Y016596D01*
X002745Y016563D01*
X002782Y016528D01*
X002816Y016490D01*
X002847Y016449D01*
X002875Y016406D01*
X002900Y016361D01*
X002920Y016314D01*
X002938Y016266D01*
X002951Y016216D01*
X002961Y016166D01*
X002967Y016115D01*
X002969Y016064D01*
X002967Y016013D01*
X002961Y015962D01*
X002951Y015912D01*
X002938Y015862D01*
X002920Y015814D01*
X002900Y015767D01*
X002875Y015722D01*
X002847Y015679D01*
X002816Y015638D01*
X002782Y015600D01*
X002745Y015565D01*
X002706Y015532D01*
X002664Y015502D01*
X002620Y015476D01*
X002574Y015454D01*
X002526Y015434D01*
X002477Y015419D01*
X002427Y015407D01*
X002377Y015399D01*
X002326Y015395D01*
X002274Y015395D01*
X002223Y015399D01*
X002173Y015407D01*
X002123Y015419D01*
X002074Y015434D01*
X002026Y015454D01*
X001980Y015476D01*
X001936Y015502D01*
X001894Y015532D01*
X001855Y015565D01*
X001818Y015600D01*
X001784Y015638D01*
X001753Y015679D01*
X001725Y015722D01*
X001700Y015767D01*
X001680Y015814D01*
X001662Y015862D01*
X001649Y015912D01*
X001639Y015962D01*
X001633Y016013D01*
X001631Y016064D01*
X020131Y005064D02*
X020133Y005115D01*
X020139Y005166D01*
X020149Y005216D01*
X020162Y005266D01*
X020180Y005314D01*
X020200Y005361D01*
X020225Y005406D01*
X020253Y005449D01*
X020284Y005490D01*
X020318Y005528D01*
X020355Y005563D01*
X020394Y005596D01*
X020436Y005626D01*
X020480Y005652D01*
X020526Y005674D01*
X020574Y005694D01*
X020623Y005709D01*
X020673Y005721D01*
X020723Y005729D01*
X020774Y005733D01*
X020826Y005733D01*
X020877Y005729D01*
X020927Y005721D01*
X020977Y005709D01*
X021026Y005694D01*
X021074Y005674D01*
X021120Y005652D01*
X021164Y005626D01*
X021206Y005596D01*
X021245Y005563D01*
X021282Y005528D01*
X021316Y005490D01*
X021347Y005449D01*
X021375Y005406D01*
X021400Y005361D01*
X021420Y005314D01*
X021438Y005266D01*
X021451Y005216D01*
X021461Y005166D01*
X021467Y005115D01*
X021469Y005064D01*
X021467Y005013D01*
X021461Y004962D01*
X021451Y004912D01*
X021438Y004862D01*
X021420Y004814D01*
X021400Y004767D01*
X021375Y004722D01*
X021347Y004679D01*
X021316Y004638D01*
X021282Y004600D01*
X021245Y004565D01*
X021206Y004532D01*
X021164Y004502D01*
X021120Y004476D01*
X021074Y004454D01*
X021026Y004434D01*
X020977Y004419D01*
X020927Y004407D01*
X020877Y004399D01*
X020826Y004395D01*
X020774Y004395D01*
X020723Y004399D01*
X020673Y004407D01*
X020623Y004419D01*
X020574Y004434D01*
X020526Y004454D01*
X020480Y004476D01*
X020436Y004502D01*
X020394Y004532D01*
X020355Y004565D01*
X020318Y004600D01*
X020284Y004638D01*
X020253Y004679D01*
X020225Y004722D01*
X020200Y004767D01*
X020180Y004814D01*
X020162Y004862D01*
X020149Y004912D01*
X020139Y004962D01*
X020133Y005013D01*
X020131Y005064D01*
D15*
X018017Y003995D02*
X017710Y003995D01*
X017710Y003765D01*
X017863Y003841D01*
X017940Y003841D01*
X018017Y003765D01*
X018017Y003611D01*
X017940Y003534D01*
X017786Y003534D01*
X017710Y003611D01*
X017556Y003534D02*
X017403Y003688D01*
X017479Y003688D02*
X017249Y003688D01*
X017249Y003534D02*
X017249Y003995D01*
X017479Y003995D01*
X017556Y003918D01*
X017556Y003765D01*
X017479Y003688D01*
X016918Y003628D02*
X016611Y003628D01*
X016764Y003628D02*
X016764Y004088D01*
X016611Y003935D01*
X016457Y004012D02*
X016457Y003705D01*
X016380Y003628D01*
X016150Y003628D01*
X016150Y004088D01*
X016380Y004088D01*
X016457Y004012D01*
X015997Y004088D02*
X015690Y004088D01*
X015690Y003628D01*
X015997Y003628D01*
X015843Y003858D02*
X015690Y003858D01*
X015536Y003628D02*
X015229Y003628D01*
X015229Y004088D01*
X015596Y006214D02*
X015903Y006214D01*
X015980Y006290D01*
X015980Y006444D01*
X015903Y006520D01*
X015903Y006674D02*
X015980Y006751D01*
X015980Y006904D01*
X015903Y006981D01*
X015750Y006981D01*
X015673Y006904D01*
X015673Y006827D01*
X015750Y006674D01*
X015520Y006674D01*
X015520Y006981D01*
X015596Y006520D02*
X015520Y006444D01*
X015520Y006290D01*
X015596Y006214D01*
X012602Y007640D02*
X012295Y007640D01*
X012602Y007947D01*
X012602Y008024D01*
X012525Y008101D01*
X012372Y008101D01*
X012295Y008024D01*
X012142Y008101D02*
X012142Y007717D01*
X012065Y007640D01*
X011911Y007640D01*
X011835Y007717D01*
X011835Y008101D01*
X010261Y006645D02*
X010030Y006415D01*
X010337Y006415D01*
X010261Y006645D02*
X010261Y006184D01*
X009877Y006184D02*
X009723Y006338D01*
X009800Y006338D02*
X009570Y006338D01*
X009570Y006184D02*
X009570Y006645D01*
X009800Y006645D01*
X009877Y006568D01*
X009877Y006415D01*
X009800Y006338D01*
X009847Y003695D02*
X009770Y003618D01*
X009770Y003311D01*
X009847Y003234D01*
X010000Y003234D01*
X010077Y003311D01*
X010230Y003465D02*
X010537Y003465D01*
X010461Y003695D02*
X010461Y003234D01*
X010230Y003465D02*
X010461Y003695D01*
X010077Y003618D02*
X010000Y003695D01*
X009847Y003695D01*
X006311Y007384D02*
X006311Y007845D01*
X006080Y007615D01*
X006387Y007615D01*
X005927Y007461D02*
X005927Y007845D01*
X005620Y007845D02*
X005620Y007461D01*
X005697Y007384D01*
X005850Y007384D01*
X005927Y007461D01*
X004261Y010084D02*
X004107Y010084D01*
X004030Y010161D01*
X003877Y010084D02*
X003723Y010238D01*
X003800Y010238D02*
X003570Y010238D01*
X003570Y010084D02*
X003570Y010545D01*
X003800Y010545D01*
X003877Y010468D01*
X003877Y010315D01*
X003800Y010238D01*
X004030Y010468D02*
X004107Y010545D01*
X004261Y010545D01*
X004337Y010468D01*
X004337Y010391D01*
X004261Y010315D01*
X004337Y010238D01*
X004337Y010161D01*
X004261Y010084D01*
X004261Y010315D02*
X004184Y010315D01*
X004207Y013484D02*
X004130Y013561D01*
X004207Y013484D02*
X004361Y013484D01*
X004437Y013561D01*
X004437Y013638D01*
X004361Y013715D01*
X004284Y013715D01*
X004361Y013715D02*
X004437Y013791D01*
X004437Y013868D01*
X004361Y013945D01*
X004207Y013945D01*
X004130Y013868D01*
X003977Y013868D02*
X003900Y013945D01*
X003747Y013945D01*
X003670Y013868D01*
X003670Y013561D01*
X003747Y013484D01*
X003900Y013484D01*
X003977Y013561D01*
X006649Y014334D02*
X006649Y014795D01*
X006879Y014795D01*
X006956Y014718D01*
X006956Y014565D01*
X006879Y014488D01*
X006649Y014488D01*
X006803Y014488D02*
X006956Y014334D01*
X007110Y014334D02*
X007417Y014334D01*
X007263Y014334D02*
X007263Y014795D01*
X007110Y014641D01*
X008386Y014156D02*
X008386Y016479D01*
X009606Y016479D01*
X010394Y016479D02*
X011614Y016479D01*
X011614Y014156D01*
X010709Y013250D01*
X010394Y013250D01*
X009606Y013250D02*
X009291Y013250D01*
X008386Y014156D01*
X009646Y013348D02*
X009569Y013368D01*
X009494Y013391D01*
X009420Y013419D01*
X009348Y013450D01*
X009277Y013485D01*
X009208Y013523D01*
X009142Y013565D01*
X009077Y013610D01*
X009015Y013658D01*
X008955Y013710D01*
X008898Y013764D01*
X008844Y013821D01*
X008792Y013881D01*
X008744Y013943D01*
X008699Y014008D01*
X008658Y014075D01*
X008620Y014144D01*
X008585Y014215D01*
X008554Y014287D01*
X008526Y014361D01*
X008503Y014436D01*
X008483Y014512D01*
X008467Y014590D01*
X008455Y014668D01*
X008447Y014746D01*
X008443Y014825D01*
X008443Y014903D01*
X008447Y014982D01*
X008455Y015060D01*
X008467Y015138D01*
X008483Y015216D01*
X008503Y015292D01*
X008526Y015367D01*
X008554Y015441D01*
X008585Y015513D01*
X008620Y015584D01*
X008658Y015653D01*
X008699Y015720D01*
X008744Y015785D01*
X008792Y015847D01*
X008844Y015907D01*
X008898Y015964D01*
X008955Y016018D01*
X009015Y016070D01*
X009077Y016118D01*
X009142Y016163D01*
X009208Y016205D01*
X009277Y016243D01*
X009348Y016278D01*
X009420Y016309D01*
X009494Y016337D01*
X009569Y016360D01*
X009646Y016380D01*
X010354Y016380D02*
X010431Y016360D01*
X010506Y016337D01*
X010580Y016309D01*
X010652Y016278D01*
X010723Y016243D01*
X010792Y016205D01*
X010858Y016163D01*
X010923Y016118D01*
X010985Y016070D01*
X011045Y016018D01*
X011102Y015964D01*
X011156Y015907D01*
X011208Y015847D01*
X011256Y015785D01*
X011301Y015720D01*
X011342Y015653D01*
X011380Y015584D01*
X011415Y015513D01*
X011446Y015441D01*
X011474Y015367D01*
X011497Y015292D01*
X011517Y015216D01*
X011533Y015138D01*
X011545Y015060D01*
X011553Y014982D01*
X011557Y014903D01*
X011557Y014825D01*
X011553Y014746D01*
X011545Y014668D01*
X011533Y014590D01*
X011517Y014512D01*
X011497Y014436D01*
X011474Y014361D01*
X011446Y014287D01*
X011415Y014215D01*
X011380Y014144D01*
X011342Y014075D01*
X011301Y014008D01*
X011256Y013943D01*
X011208Y013881D01*
X011156Y013821D01*
X011102Y013764D01*
X011045Y013710D01*
X010985Y013658D01*
X010923Y013610D01*
X010858Y013565D01*
X010792Y013523D01*
X010723Y013485D01*
X010652Y013450D01*
X010580Y013419D01*
X010506Y013391D01*
X010431Y013368D01*
X010354Y013348D01*
X011749Y012395D02*
X011749Y012011D01*
X011826Y011934D01*
X011979Y011934D01*
X012056Y012011D01*
X012056Y012395D01*
X012210Y012241D02*
X012363Y012395D01*
X012363Y011934D01*
X012210Y011934D02*
X012517Y011934D01*
X013148Y012406D02*
X012242Y013312D01*
X012242Y016422D01*
X013856Y016422D01*
X014644Y016422D02*
X016258Y016422D01*
X016258Y013312D01*
X015352Y012406D01*
X014644Y012406D01*
X013856Y012406D02*
X013148Y012406D01*
X014849Y010645D02*
X014849Y010184D01*
X015156Y010184D01*
X015310Y010184D02*
X015617Y010184D01*
X015463Y010184D02*
X015463Y010645D01*
X015310Y010491D01*
X015320Y009295D02*
X015550Y009295D01*
X015627Y009218D01*
X015627Y009065D01*
X015550Y008988D01*
X015320Y008988D01*
X015473Y008988D02*
X015627Y008834D01*
X015780Y008834D02*
X016087Y009141D01*
X016087Y009218D01*
X016011Y009295D01*
X015857Y009295D01*
X015780Y009218D01*
X015780Y008834D02*
X016087Y008834D01*
X015320Y008834D02*
X015320Y009295D01*
X014644Y012504D02*
X014729Y012524D01*
X014813Y012547D01*
X014896Y012574D01*
X014978Y012605D01*
X015058Y012639D01*
X015137Y012678D01*
X015214Y012719D01*
X015289Y012764D01*
X015362Y012812D01*
X015433Y012864D01*
X015501Y012918D01*
X015567Y012976D01*
X015630Y013036D01*
X015690Y013099D01*
X015748Y013165D01*
X015802Y013234D01*
X015854Y013304D01*
X015902Y013377D01*
X015946Y013453D01*
X015988Y013530D01*
X016026Y013608D01*
X016060Y013689D01*
X016091Y013771D01*
X016118Y013854D01*
X016141Y013938D01*
X016160Y014023D01*
X016176Y014109D01*
X016188Y014196D01*
X016196Y014283D01*
X016200Y014370D01*
X016200Y014458D01*
X016196Y014545D01*
X016188Y014632D01*
X016176Y014719D01*
X016160Y014805D01*
X016141Y014890D01*
X016118Y014974D01*
X016091Y015057D01*
X016060Y015139D01*
X016026Y015220D01*
X015988Y015298D01*
X015946Y015375D01*
X015902Y015451D01*
X015854Y015524D01*
X015802Y015594D01*
X015748Y015663D01*
X015690Y015729D01*
X015630Y015792D01*
X015567Y015852D01*
X015501Y015910D01*
X015433Y015964D01*
X015362Y016016D01*
X015289Y016064D01*
X015214Y016109D01*
X015137Y016150D01*
X015058Y016189D01*
X014978Y016223D01*
X014896Y016254D01*
X014813Y016281D01*
X014729Y016304D01*
X014644Y016324D01*
X013856Y016324D02*
X013771Y016304D01*
X013687Y016281D01*
X013604Y016254D01*
X013522Y016223D01*
X013442Y016189D01*
X013363Y016150D01*
X013286Y016109D01*
X013211Y016064D01*
X013138Y016016D01*
X013067Y015964D01*
X012999Y015910D01*
X012933Y015852D01*
X012870Y015792D01*
X012810Y015729D01*
X012752Y015663D01*
X012698Y015594D01*
X012646Y015524D01*
X012598Y015451D01*
X012554Y015375D01*
X012512Y015298D01*
X012474Y015220D01*
X012440Y015139D01*
X012409Y015057D01*
X012382Y014974D01*
X012359Y014890D01*
X012340Y014805D01*
X012324Y014719D01*
X012312Y014632D01*
X012304Y014545D01*
X012300Y014458D01*
X012300Y014370D01*
X012304Y014283D01*
X012312Y014196D01*
X012324Y014109D01*
X012340Y014023D01*
X012359Y013938D01*
X012382Y013854D01*
X012409Y013771D01*
X012440Y013689D01*
X012474Y013608D01*
X012512Y013530D01*
X012554Y013453D01*
X012598Y013377D01*
X012646Y013304D01*
X012698Y013234D01*
X012752Y013165D01*
X012810Y013099D01*
X012870Y013036D01*
X012933Y012976D01*
X012999Y012918D01*
X013067Y012864D01*
X013138Y012812D01*
X013211Y012764D01*
X013286Y012719D01*
X013363Y012678D01*
X013442Y012639D01*
X013522Y012605D01*
X013604Y012574D01*
X013687Y012547D01*
X013771Y012524D01*
X013856Y012504D01*
D16*
X011780Y011454D03*
X011780Y010784D03*
X011780Y010114D03*
X011780Y009444D03*
X011780Y008774D03*
D17*
X015534Y016610D02*
X015657Y016610D01*
X015719Y016672D01*
X015841Y016610D02*
X016088Y016857D01*
X016088Y016919D01*
X016026Y016981D01*
X015902Y016981D01*
X015841Y016919D01*
X015719Y016919D02*
X015657Y016981D01*
X015534Y016981D01*
X015472Y016919D01*
X015472Y016672D01*
X015534Y016610D01*
X015841Y016610D02*
X016088Y016610D01*
X011491Y016701D02*
X011244Y016701D01*
X011368Y016701D02*
X011368Y017071D01*
X011244Y016948D01*
X011123Y017010D02*
X011061Y017071D01*
X010938Y017071D01*
X010876Y017010D01*
X010876Y016763D01*
X010938Y016701D01*
X011061Y016701D01*
X011123Y016763D01*
D18*
X022869Y013789D02*
X022869Y007639D01*
D19*
X022634Y007796D03*
X022634Y013633D03*
D20*
X016200Y004573D02*
X016259Y004514D01*
X016190Y004445D01*
X016131Y004504D01*
X016200Y004573D01*
D21*
X016092Y004672D03*
M02*
