G04 EAGLE Gerber RS-274X export*
G75*
%MOMM*%
%FSLAX34Y34*%
%LPD*%
%INCopper Layer 2*%
%IPPOS*%
%AMOC8*
5,1,8,0,0,1.08239X$1,22.5*%
G01*
%ADD10C,1.524000*%
%ADD11C,0.858000*%
%ADD12C,1.358000*%
%ADD13C,1.108000*%
%ADD14C,1.308000*%
%ADD15C,0.706400*%
%ADD16C,0.756400*%
%ADD17C,0.353200*%
%ADD18C,0.152400*%
%ADD19C,0.152400*%

G36*
X235713Y10180D02*
X235713Y10180D01*
X235831Y10198D01*
X235835Y10200D01*
X235839Y10200D01*
X235944Y10256D01*
X236050Y10311D01*
X236052Y10314D01*
X236056Y10316D01*
X236138Y10402D01*
X236221Y10487D01*
X236223Y10491D01*
X236226Y10494D01*
X236276Y10602D01*
X236327Y10709D01*
X236327Y10713D01*
X236329Y10717D01*
X236342Y10834D01*
X236357Y10953D01*
X236356Y10958D01*
X236356Y10961D01*
X236353Y10975D01*
X236331Y11119D01*
X234839Y16688D01*
X234839Y23312D01*
X236554Y29712D01*
X239866Y35449D01*
X244551Y40134D01*
X250288Y43446D01*
X256688Y45161D01*
X263312Y45161D01*
X268881Y43669D01*
X269000Y43657D01*
X269117Y43644D01*
X269122Y43645D01*
X269126Y43644D01*
X269241Y43671D01*
X269358Y43696D01*
X269361Y43698D01*
X269366Y43699D01*
X269467Y43761D01*
X269569Y43822D01*
X269572Y43825D01*
X269575Y43828D01*
X269652Y43919D01*
X269729Y44009D01*
X269730Y44013D01*
X269733Y44016D01*
X269776Y44126D01*
X269807Y44204D01*
X269811Y44212D01*
X269811Y44214D01*
X269821Y44237D01*
X269821Y44242D01*
X269823Y44245D01*
X269823Y44259D01*
X269839Y44404D01*
X269839Y707390D01*
X269836Y707410D01*
X269838Y707429D01*
X269816Y707531D01*
X269800Y707633D01*
X269790Y707650D01*
X269786Y707670D01*
X269733Y707759D01*
X269684Y707850D01*
X269670Y707864D01*
X269660Y707881D01*
X269581Y707948D01*
X269506Y708020D01*
X269488Y708028D01*
X269473Y708041D01*
X269377Y708080D01*
X269283Y708123D01*
X269263Y708125D01*
X269245Y708133D01*
X269078Y708151D01*
X264181Y708151D01*
X264135Y708144D01*
X264090Y708146D01*
X264015Y708124D01*
X263938Y708112D01*
X263897Y708090D01*
X263853Y708077D01*
X263789Y708033D01*
X263721Y707996D01*
X263689Y707963D01*
X263651Y707937D01*
X263605Y707874D01*
X263551Y707818D01*
X263532Y707776D01*
X263504Y707740D01*
X263480Y707666D01*
X263448Y707595D01*
X263442Y707549D01*
X263428Y707506D01*
X263429Y707428D01*
X263420Y707351D01*
X263430Y707306D01*
X263431Y707260D01*
X263469Y707128D01*
X263473Y707110D01*
X263475Y707106D01*
X263477Y707099D01*
X264711Y704121D01*
X264711Y700079D01*
X263164Y696344D01*
X260306Y693486D01*
X256571Y691939D01*
X252529Y691939D01*
X248794Y693486D01*
X245936Y696344D01*
X244389Y700079D01*
X244389Y704121D01*
X245623Y707099D01*
X245633Y707143D01*
X245652Y707185D01*
X245661Y707262D01*
X245679Y707338D01*
X245674Y707384D01*
X245680Y707429D01*
X245663Y707506D01*
X245656Y707583D01*
X245637Y707625D01*
X245627Y707670D01*
X245587Y707737D01*
X245556Y707808D01*
X245525Y707842D01*
X245501Y707881D01*
X245442Y707932D01*
X245389Y707989D01*
X245349Y708011D01*
X245314Y708041D01*
X245242Y708070D01*
X245174Y708107D01*
X245129Y708116D01*
X245086Y708133D01*
X244950Y708148D01*
X244932Y708151D01*
X244927Y708150D01*
X244919Y708151D01*
X237818Y708151D01*
X237772Y708144D01*
X237727Y708146D01*
X237652Y708124D01*
X237575Y708112D01*
X237534Y708090D01*
X237490Y708077D01*
X237426Y708033D01*
X237358Y707996D01*
X237326Y707963D01*
X237288Y707937D01*
X237242Y707874D01*
X237188Y707818D01*
X237169Y707776D01*
X237141Y707740D01*
X237117Y707666D01*
X237085Y707595D01*
X237079Y707549D01*
X237065Y707506D01*
X237066Y707428D01*
X237057Y707351D01*
X237067Y707306D01*
X237068Y707260D01*
X237106Y707128D01*
X237110Y707110D01*
X237112Y707106D01*
X237114Y707099D01*
X237463Y706258D01*
X237463Y703742D01*
X236500Y701418D01*
X234722Y699640D01*
X232398Y698677D01*
X229882Y698677D01*
X227558Y699640D01*
X225780Y701418D01*
X225493Y702110D01*
X225456Y702171D01*
X225426Y702237D01*
X225391Y702275D01*
X225364Y702319D01*
X225308Y702365D01*
X225260Y702418D01*
X225214Y702443D01*
X225174Y702476D01*
X225107Y702502D01*
X225044Y702536D01*
X224993Y702546D01*
X224945Y702564D01*
X224873Y702567D01*
X224802Y702580D01*
X224751Y702573D01*
X224699Y702575D01*
X224630Y702555D01*
X224559Y702544D01*
X224513Y702521D01*
X224463Y702506D01*
X224404Y702465D01*
X224340Y702433D01*
X224303Y702396D01*
X224261Y702366D01*
X224218Y702309D01*
X224168Y702257D01*
X224133Y702194D01*
X224114Y702169D01*
X224107Y702146D01*
X224087Y702110D01*
X223800Y701418D01*
X222022Y699640D01*
X219698Y698677D01*
X217182Y698677D01*
X214858Y699640D01*
X213080Y701418D01*
X212793Y702110D01*
X212756Y702171D01*
X212726Y702237D01*
X212691Y702275D01*
X212664Y702319D01*
X212608Y702365D01*
X212560Y702418D01*
X212514Y702443D01*
X212474Y702476D01*
X212407Y702502D01*
X212344Y702536D01*
X212293Y702546D01*
X212245Y702564D01*
X212173Y702567D01*
X212102Y702580D01*
X212051Y702573D01*
X211999Y702575D01*
X211930Y702555D01*
X211859Y702544D01*
X211813Y702521D01*
X211763Y702506D01*
X211704Y702465D01*
X211640Y702433D01*
X211603Y702396D01*
X211561Y702366D01*
X211518Y702308D01*
X211468Y702257D01*
X211433Y702194D01*
X211414Y702169D01*
X211406Y702146D01*
X211387Y702110D01*
X211100Y701418D01*
X209322Y699640D01*
X206998Y698677D01*
X204482Y698677D01*
X202158Y699640D01*
X200380Y701418D01*
X200093Y702110D01*
X200056Y702171D01*
X200026Y702237D01*
X199991Y702275D01*
X199964Y702319D01*
X199909Y702365D01*
X199860Y702418D01*
X199814Y702443D01*
X199774Y702476D01*
X199707Y702502D01*
X199644Y702536D01*
X199593Y702546D01*
X199545Y702564D01*
X199473Y702567D01*
X199402Y702580D01*
X199351Y702573D01*
X199299Y702575D01*
X199230Y702555D01*
X199159Y702544D01*
X199113Y702521D01*
X199063Y702506D01*
X199004Y702465D01*
X198940Y702433D01*
X198903Y702396D01*
X198861Y702366D01*
X198818Y702308D01*
X198768Y702257D01*
X198733Y702194D01*
X198714Y702169D01*
X198707Y702146D01*
X198687Y702110D01*
X198400Y701418D01*
X196622Y699640D01*
X194298Y698677D01*
X191782Y698677D01*
X189458Y699640D01*
X187680Y701418D01*
X187393Y702110D01*
X187356Y702171D01*
X187326Y702237D01*
X187291Y702275D01*
X187264Y702319D01*
X187208Y702365D01*
X187160Y702418D01*
X187114Y702443D01*
X187074Y702476D01*
X187007Y702502D01*
X186944Y702536D01*
X186893Y702546D01*
X186845Y702564D01*
X186773Y702567D01*
X186702Y702580D01*
X186651Y702573D01*
X186599Y702575D01*
X186530Y702555D01*
X186459Y702544D01*
X186413Y702521D01*
X186363Y702506D01*
X186304Y702465D01*
X186240Y702433D01*
X186203Y702396D01*
X186161Y702366D01*
X186118Y702308D01*
X186068Y702257D01*
X186033Y702194D01*
X186014Y702169D01*
X186007Y702146D01*
X185987Y702110D01*
X185700Y701418D01*
X183922Y699640D01*
X181598Y698677D01*
X179082Y698677D01*
X176758Y699640D01*
X174980Y701418D01*
X174017Y703742D01*
X174017Y706258D01*
X174366Y707099D01*
X174376Y707143D01*
X174395Y707185D01*
X174404Y707262D01*
X174422Y707338D01*
X174417Y707384D01*
X174423Y707429D01*
X174406Y707506D01*
X174399Y707583D01*
X174380Y707625D01*
X174370Y707670D01*
X174330Y707737D01*
X174299Y707808D01*
X174268Y707842D01*
X174244Y707881D01*
X174185Y707932D01*
X174132Y707989D01*
X174092Y708011D01*
X174057Y708041D01*
X173985Y708070D01*
X173917Y708107D01*
X173872Y708116D01*
X173829Y708133D01*
X173693Y708148D01*
X173675Y708151D01*
X173670Y708150D01*
X173662Y708151D01*
X105771Y708151D01*
X105726Y708144D01*
X105680Y708146D01*
X105605Y708124D01*
X105528Y708112D01*
X105488Y708090D01*
X105443Y708077D01*
X105379Y708033D01*
X105311Y707996D01*
X105279Y707963D01*
X105241Y707937D01*
X105195Y707874D01*
X105141Y707818D01*
X105122Y707776D01*
X105095Y707740D01*
X105070Y707666D01*
X105038Y707595D01*
X105033Y707549D01*
X105018Y707506D01*
X105019Y707428D01*
X105011Y707351D01*
X105020Y707306D01*
X105021Y707260D01*
X105059Y707128D01*
X105063Y707110D01*
X105065Y707106D01*
X105068Y707099D01*
X105383Y706338D01*
X105383Y703822D01*
X104420Y701498D01*
X102642Y699720D01*
X100318Y698757D01*
X97802Y698757D01*
X95478Y699720D01*
X93700Y701498D01*
X93430Y702150D01*
X93392Y702211D01*
X93363Y702277D01*
X93328Y702315D01*
X93300Y702359D01*
X93245Y702405D01*
X93197Y702458D01*
X93151Y702483D01*
X93111Y702516D01*
X93044Y702542D01*
X92981Y702576D01*
X92930Y702586D01*
X92881Y702604D01*
X92810Y702607D01*
X92739Y702620D01*
X92687Y702613D01*
X92635Y702615D01*
X92567Y702595D01*
X92496Y702584D01*
X92449Y702561D01*
X92399Y702546D01*
X92340Y702505D01*
X92276Y702473D01*
X92240Y702436D01*
X92197Y702406D01*
X92154Y702348D01*
X92104Y702297D01*
X92070Y702234D01*
X92050Y702209D01*
X92043Y702186D01*
X92023Y702150D01*
X91720Y701418D01*
X89942Y699640D01*
X87618Y698677D01*
X85102Y698677D01*
X82778Y699640D01*
X81000Y701418D01*
X80713Y702110D01*
X80676Y702171D01*
X80646Y702237D01*
X80611Y702275D01*
X80584Y702319D01*
X80528Y702365D01*
X80480Y702418D01*
X80434Y702443D01*
X80394Y702476D01*
X80327Y702502D01*
X80264Y702536D01*
X80213Y702546D01*
X80165Y702564D01*
X80093Y702567D01*
X80022Y702580D01*
X79971Y702573D01*
X79919Y702575D01*
X79850Y702555D01*
X79779Y702544D01*
X79733Y702521D01*
X79683Y702506D01*
X79624Y702465D01*
X79560Y702433D01*
X79523Y702396D01*
X79481Y702366D01*
X79438Y702308D01*
X79388Y702257D01*
X79353Y702194D01*
X79334Y702169D01*
X79327Y702146D01*
X79307Y702110D01*
X79020Y701418D01*
X77242Y699640D01*
X74918Y698677D01*
X72402Y698677D01*
X70078Y699640D01*
X68300Y701418D01*
X68013Y702110D01*
X67976Y702171D01*
X67946Y702237D01*
X67911Y702275D01*
X67884Y702319D01*
X67828Y702365D01*
X67780Y702418D01*
X67734Y702443D01*
X67694Y702476D01*
X67627Y702502D01*
X67564Y702536D01*
X67513Y702546D01*
X67465Y702564D01*
X67393Y702567D01*
X67322Y702580D01*
X67271Y702573D01*
X67219Y702575D01*
X67150Y702555D01*
X67079Y702544D01*
X67033Y702521D01*
X66983Y702506D01*
X66924Y702465D01*
X66860Y702433D01*
X66823Y702396D01*
X66781Y702366D01*
X66738Y702309D01*
X66688Y702257D01*
X66653Y702194D01*
X66634Y702169D01*
X66627Y702146D01*
X66607Y702110D01*
X66320Y701418D01*
X64542Y699640D01*
X62218Y698677D01*
X59702Y698677D01*
X57378Y699640D01*
X55600Y701418D01*
X55313Y702110D01*
X55276Y702171D01*
X55246Y702237D01*
X55211Y702275D01*
X55184Y702319D01*
X55129Y702365D01*
X55080Y702418D01*
X55034Y702443D01*
X54994Y702476D01*
X54927Y702502D01*
X54864Y702536D01*
X54813Y702546D01*
X54765Y702564D01*
X54693Y702567D01*
X54622Y702580D01*
X54571Y702573D01*
X54519Y702575D01*
X54450Y702555D01*
X54379Y702544D01*
X54333Y702521D01*
X54283Y702506D01*
X54224Y702465D01*
X54160Y702433D01*
X54123Y702396D01*
X54081Y702366D01*
X54038Y702308D01*
X53988Y702257D01*
X53953Y702194D01*
X53934Y702169D01*
X53927Y702146D01*
X53907Y702110D01*
X53620Y701418D01*
X51842Y699640D01*
X49518Y698677D01*
X47002Y698677D01*
X44678Y699640D01*
X42900Y701418D01*
X41937Y703742D01*
X41937Y706258D01*
X42286Y707099D01*
X42296Y707143D01*
X42315Y707185D01*
X42324Y707262D01*
X42342Y707338D01*
X42337Y707384D01*
X42343Y707429D01*
X42326Y707506D01*
X42319Y707583D01*
X42300Y707625D01*
X42290Y707670D01*
X42250Y707737D01*
X42219Y707808D01*
X42188Y707842D01*
X42164Y707881D01*
X42105Y707932D01*
X42052Y707989D01*
X42012Y708011D01*
X41977Y708041D01*
X41905Y708070D01*
X41837Y708107D01*
X41792Y708116D01*
X41749Y708133D01*
X41613Y708148D01*
X41595Y708151D01*
X41590Y708150D01*
X41582Y708151D01*
X35513Y708151D01*
X35438Y708139D01*
X35362Y708136D01*
X35317Y708119D01*
X35270Y708112D01*
X35203Y708076D01*
X35132Y708049D01*
X35095Y708019D01*
X35053Y707996D01*
X35000Y707942D01*
X34942Y707894D01*
X34916Y707853D01*
X34883Y707818D01*
X34851Y707749D01*
X34811Y707685D01*
X34800Y707639D01*
X34780Y707595D01*
X34771Y707520D01*
X34753Y707446D01*
X34758Y707398D01*
X34752Y707351D01*
X34768Y707277D01*
X34775Y707201D01*
X34798Y707141D01*
X34805Y707110D01*
X34818Y707088D01*
X34834Y707044D01*
X35366Y706000D01*
X35861Y704479D01*
X35996Y703623D01*
X26712Y703623D01*
X26692Y703620D01*
X26673Y703622D01*
X26571Y703600D01*
X26469Y703583D01*
X26452Y703574D01*
X26432Y703570D01*
X26343Y703517D01*
X26252Y703468D01*
X26238Y703454D01*
X26221Y703444D01*
X26154Y703365D01*
X26083Y703290D01*
X26074Y703272D01*
X26061Y703257D01*
X26023Y703161D01*
X25979Y703067D01*
X25977Y703047D01*
X25969Y703029D01*
X25951Y702862D01*
X25951Y702099D01*
X25949Y702099D01*
X25949Y702862D01*
X25946Y702882D01*
X25948Y702901D01*
X25926Y703003D01*
X25909Y703105D01*
X25900Y703122D01*
X25896Y703142D01*
X25843Y703231D01*
X25794Y703322D01*
X25780Y703336D01*
X25770Y703353D01*
X25691Y703420D01*
X25616Y703491D01*
X25598Y703500D01*
X25583Y703513D01*
X25487Y703552D01*
X25393Y703595D01*
X25373Y703597D01*
X25355Y703605D01*
X25188Y703623D01*
X15904Y703623D01*
X16039Y704479D01*
X16534Y706000D01*
X17066Y707044D01*
X17089Y707116D01*
X17120Y707185D01*
X17126Y707233D01*
X17140Y707279D01*
X17139Y707354D01*
X17148Y707429D01*
X17137Y707477D01*
X17137Y707525D01*
X17111Y707596D01*
X17095Y707670D01*
X17071Y707711D01*
X17055Y707757D01*
X17008Y707816D01*
X16969Y707881D01*
X16933Y707912D01*
X16903Y707950D01*
X16840Y707992D01*
X16782Y708041D01*
X16738Y708059D01*
X16697Y708085D01*
X16624Y708105D01*
X16554Y708133D01*
X16490Y708140D01*
X16459Y708148D01*
X16434Y708146D01*
X16387Y708151D01*
X10922Y708151D01*
X10902Y708148D01*
X10883Y708150D01*
X10781Y708128D01*
X10679Y708112D01*
X10662Y708102D01*
X10642Y708098D01*
X10553Y708045D01*
X10462Y707996D01*
X10448Y707982D01*
X10431Y707972D01*
X10364Y707893D01*
X10292Y707818D01*
X10284Y707800D01*
X10271Y707785D01*
X10232Y707689D01*
X10189Y707595D01*
X10187Y707575D01*
X10179Y707557D01*
X10161Y707390D01*
X10161Y44404D01*
X10163Y44390D01*
X10162Y44378D01*
X10175Y44316D01*
X10180Y44287D01*
X10198Y44169D01*
X10200Y44165D01*
X10200Y44161D01*
X10256Y44056D01*
X10311Y43950D01*
X10314Y43948D01*
X10316Y43944D01*
X10402Y43862D01*
X10487Y43779D01*
X10491Y43777D01*
X10494Y43774D01*
X10602Y43724D01*
X10709Y43673D01*
X10713Y43673D01*
X10717Y43671D01*
X10834Y43658D01*
X10953Y43643D01*
X10958Y43644D01*
X10961Y43644D01*
X10975Y43647D01*
X11119Y43669D01*
X16688Y45161D01*
X23312Y45161D01*
X29712Y43446D01*
X35449Y40134D01*
X40134Y35449D01*
X43446Y29712D01*
X45161Y23312D01*
X45161Y16688D01*
X43669Y11119D01*
X43657Y11000D01*
X43644Y10883D01*
X43645Y10878D01*
X43644Y10874D01*
X43671Y10759D01*
X43696Y10642D01*
X43698Y10639D01*
X43699Y10634D01*
X43761Y10533D01*
X43822Y10431D01*
X43825Y10428D01*
X43828Y10425D01*
X43919Y10348D01*
X44009Y10271D01*
X44013Y10270D01*
X44016Y10267D01*
X44126Y10224D01*
X44237Y10179D01*
X44242Y10179D01*
X44245Y10177D01*
X44259Y10177D01*
X44404Y10161D01*
X235596Y10161D01*
X235713Y10180D01*
G37*
%LPC*%
G36*
X23929Y56939D02*
X23929Y56939D01*
X20194Y58486D01*
X17336Y61344D01*
X15789Y65079D01*
X15789Y69121D01*
X17336Y72856D01*
X20194Y75714D01*
X23929Y77261D01*
X27971Y77261D01*
X30315Y76290D01*
X30428Y76263D01*
X30542Y76235D01*
X30548Y76235D01*
X30554Y76234D01*
X30671Y76245D01*
X30787Y76254D01*
X30793Y76256D01*
X30799Y76257D01*
X30907Y76305D01*
X31013Y76350D01*
X31019Y76355D01*
X31024Y76357D01*
X31038Y76370D01*
X31144Y76455D01*
X44067Y89378D01*
X44109Y89436D01*
X44158Y89488D01*
X44180Y89535D01*
X44211Y89577D01*
X44232Y89646D01*
X44262Y89711D01*
X44268Y89763D01*
X44283Y89813D01*
X44281Y89884D01*
X44289Y89955D01*
X44278Y90006D01*
X44277Y90058D01*
X44252Y90126D01*
X44237Y90196D01*
X44210Y90240D01*
X44192Y90289D01*
X44147Y90345D01*
X44110Y90407D01*
X44071Y90441D01*
X44038Y90481D01*
X43978Y90520D01*
X43924Y90567D01*
X43875Y90586D01*
X43831Y90614D01*
X43762Y90632D01*
X43695Y90659D01*
X43624Y90667D01*
X43593Y90675D01*
X43570Y90673D01*
X43529Y90677D01*
X36702Y90677D01*
X36587Y90658D01*
X36471Y90641D01*
X36465Y90639D01*
X36459Y90638D01*
X36356Y90583D01*
X36251Y90530D01*
X36247Y90525D01*
X36241Y90522D01*
X36162Y90438D01*
X36079Y90354D01*
X36075Y90348D01*
X36072Y90344D01*
X36064Y90327D01*
X35998Y90207D01*
X34564Y86744D01*
X31706Y83886D01*
X27971Y82339D01*
X23929Y82339D01*
X20194Y83886D01*
X17336Y86744D01*
X15789Y90479D01*
X15789Y94521D01*
X17336Y98256D01*
X20194Y101114D01*
X23929Y102661D01*
X27971Y102661D01*
X31706Y101114D01*
X34564Y98256D01*
X34772Y97753D01*
X34834Y97654D01*
X34894Y97553D01*
X34898Y97549D01*
X34902Y97544D01*
X34991Y97470D01*
X35081Y97393D01*
X35086Y97391D01*
X35091Y97387D01*
X35199Y97345D01*
X35309Y97301D01*
X35316Y97300D01*
X35321Y97299D01*
X35339Y97298D01*
X35475Y97283D01*
X46577Y97283D01*
X46667Y97297D01*
X46758Y97305D01*
X46787Y97317D01*
X46819Y97322D01*
X46900Y97365D01*
X46984Y97401D01*
X47016Y97427D01*
X47037Y97438D01*
X47059Y97461D01*
X47115Y97506D01*
X64387Y114778D01*
X64429Y114836D01*
X64478Y114888D01*
X64500Y114935D01*
X64531Y114977D01*
X64552Y115046D01*
X64582Y115111D01*
X64588Y115163D01*
X64603Y115213D01*
X64601Y115284D01*
X64609Y115355D01*
X64598Y115406D01*
X64597Y115458D01*
X64572Y115526D01*
X64557Y115596D01*
X64530Y115641D01*
X64512Y115689D01*
X64467Y115745D01*
X64430Y115807D01*
X64391Y115841D01*
X64358Y115881D01*
X64298Y115920D01*
X64244Y115967D01*
X64195Y115986D01*
X64151Y116014D01*
X64082Y116032D01*
X64015Y116059D01*
X63944Y116067D01*
X63913Y116075D01*
X63890Y116073D01*
X63849Y116077D01*
X36702Y116077D01*
X36587Y116058D01*
X36471Y116041D01*
X36465Y116039D01*
X36459Y116038D01*
X36356Y115983D01*
X36251Y115930D01*
X36247Y115925D01*
X36241Y115922D01*
X36162Y115838D01*
X36079Y115754D01*
X36075Y115748D01*
X36072Y115744D01*
X36064Y115727D01*
X35998Y115607D01*
X34564Y112144D01*
X31706Y109286D01*
X27971Y107739D01*
X23929Y107739D01*
X20194Y109286D01*
X17336Y112144D01*
X15789Y115879D01*
X15789Y119921D01*
X17336Y123656D01*
X20194Y126514D01*
X23929Y128061D01*
X27971Y128061D01*
X31706Y126514D01*
X34564Y123656D01*
X34772Y123153D01*
X34834Y123054D01*
X34894Y122953D01*
X34898Y122949D01*
X34902Y122944D01*
X34991Y122870D01*
X35081Y122793D01*
X35086Y122791D01*
X35091Y122787D01*
X35199Y122745D01*
X35309Y122701D01*
X35316Y122700D01*
X35321Y122699D01*
X35339Y122698D01*
X35475Y122683D01*
X66897Y122683D01*
X66987Y122697D01*
X67078Y122705D01*
X67107Y122717D01*
X67139Y122722D01*
X67220Y122765D01*
X67304Y122801D01*
X67336Y122827D01*
X67357Y122838D01*
X67379Y122861D01*
X67435Y122906D01*
X85767Y141238D01*
X85809Y141296D01*
X85858Y141348D01*
X85880Y141395D01*
X85911Y141437D01*
X85932Y141506D01*
X85962Y141571D01*
X85968Y141623D01*
X85983Y141673D01*
X85981Y141744D01*
X85989Y141815D01*
X85978Y141866D01*
X85977Y141918D01*
X85952Y141986D01*
X85937Y142056D01*
X85910Y142101D01*
X85892Y142149D01*
X85847Y142205D01*
X85810Y142267D01*
X85771Y142301D01*
X85738Y142341D01*
X85678Y142380D01*
X85624Y142427D01*
X85575Y142446D01*
X85531Y142474D01*
X85462Y142492D01*
X85395Y142519D01*
X85324Y142527D01*
X85293Y142535D01*
X85270Y142533D01*
X85229Y142537D01*
X36872Y142537D01*
X36852Y142534D01*
X36833Y142536D01*
X36731Y142514D01*
X36629Y142498D01*
X36612Y142488D01*
X36592Y142484D01*
X36503Y142431D01*
X36412Y142382D01*
X36398Y142368D01*
X36381Y142358D01*
X36314Y142279D01*
X36242Y142204D01*
X36234Y142186D01*
X36221Y142171D01*
X36182Y142075D01*
X36139Y141981D01*
X36137Y141961D01*
X36129Y141943D01*
X36111Y141776D01*
X36111Y141279D01*
X34564Y137544D01*
X31706Y134686D01*
X27971Y133139D01*
X23929Y133139D01*
X20194Y134686D01*
X17336Y137544D01*
X15789Y141279D01*
X15789Y145321D01*
X17336Y149056D01*
X20194Y151914D01*
X23929Y153461D01*
X27971Y153461D01*
X31706Y151914D01*
X34254Y149366D01*
X34328Y149313D01*
X34397Y149253D01*
X34427Y149241D01*
X34454Y149222D01*
X34540Y149195D01*
X34625Y149161D01*
X34666Y149157D01*
X34689Y149150D01*
X34721Y149151D01*
X34792Y149143D01*
X88277Y149143D01*
X88367Y149157D01*
X88458Y149165D01*
X88487Y149177D01*
X88519Y149182D01*
X88600Y149225D01*
X88684Y149261D01*
X88716Y149287D01*
X88737Y149298D01*
X88759Y149321D01*
X88815Y149366D01*
X101279Y161830D01*
X101306Y161867D01*
X101340Y161898D01*
X101378Y161967D01*
X101423Y162030D01*
X101436Y162074D01*
X101458Y162114D01*
X101472Y162190D01*
X101495Y162265D01*
X101494Y162311D01*
X101502Y162356D01*
X101491Y162433D01*
X101489Y162511D01*
X101473Y162554D01*
X101466Y162599D01*
X101431Y162669D01*
X101404Y162742D01*
X101376Y162778D01*
X101355Y162819D01*
X101299Y162873D01*
X101251Y162934D01*
X101212Y162959D01*
X101179Y162991D01*
X101060Y163057D01*
X101044Y163067D01*
X101039Y163068D01*
X101032Y163072D01*
X100558Y163268D01*
X98720Y165106D01*
X98708Y165127D01*
X98703Y165131D01*
X98700Y165136D01*
X98610Y165211D01*
X98521Y165287D01*
X98515Y165289D01*
X98510Y165293D01*
X98401Y165335D01*
X98293Y165379D01*
X98285Y165380D01*
X98281Y165381D01*
X98263Y165382D01*
X98126Y165397D01*
X36088Y165397D01*
X35974Y165378D01*
X35858Y165361D01*
X35852Y165359D01*
X35846Y165358D01*
X35743Y165303D01*
X35638Y165250D01*
X35634Y165245D01*
X35628Y165242D01*
X35549Y165158D01*
X35466Y165074D01*
X35462Y165068D01*
X35459Y165064D01*
X35451Y165047D01*
X35385Y164927D01*
X34564Y162944D01*
X31706Y160086D01*
X27971Y158539D01*
X23929Y158539D01*
X20194Y160086D01*
X17336Y162944D01*
X15789Y166679D01*
X15789Y170721D01*
X17336Y174456D01*
X20194Y177314D01*
X23929Y178861D01*
X27971Y178861D01*
X31706Y177314D01*
X34564Y174456D01*
X35385Y172473D01*
X35447Y172373D01*
X35507Y172273D01*
X35511Y172269D01*
X35515Y172264D01*
X35605Y172189D01*
X35694Y172113D01*
X35699Y172111D01*
X35704Y172107D01*
X35813Y172065D01*
X35922Y172021D01*
X35929Y172020D01*
X35934Y172019D01*
X35952Y172018D01*
X36088Y172003D01*
X42975Y172003D01*
X43045Y172014D01*
X43117Y172016D01*
X43166Y172034D01*
X43217Y172042D01*
X43281Y172076D01*
X43348Y172101D01*
X43389Y172133D01*
X43435Y172158D01*
X43484Y172210D01*
X43540Y172254D01*
X43568Y172298D01*
X43604Y172336D01*
X43634Y172401D01*
X43673Y172461D01*
X43686Y172512D01*
X43708Y172559D01*
X43716Y172630D01*
X43733Y172700D01*
X43729Y172752D01*
X43735Y172803D01*
X43720Y172874D01*
X43714Y172945D01*
X43694Y172993D01*
X43683Y173044D01*
X43646Y173105D01*
X43618Y173171D01*
X43573Y173227D01*
X43556Y173255D01*
X43539Y173270D01*
X43513Y173302D01*
X42700Y174115D01*
X31799Y185016D01*
X31705Y185084D01*
X31610Y185154D01*
X31604Y185156D01*
X31599Y185160D01*
X31488Y185194D01*
X31376Y185230D01*
X31370Y185230D01*
X31364Y185232D01*
X31247Y185229D01*
X31131Y185228D01*
X31123Y185226D01*
X31118Y185226D01*
X31101Y185219D01*
X30969Y185181D01*
X27971Y183939D01*
X23929Y183939D01*
X20194Y185486D01*
X17336Y188344D01*
X15789Y192079D01*
X15789Y196121D01*
X17336Y199856D01*
X20194Y202714D01*
X23929Y204261D01*
X27971Y204261D01*
X31706Y202714D01*
X34564Y199856D01*
X36111Y196121D01*
X36111Y192079D01*
X35710Y191111D01*
X35683Y190997D01*
X35655Y190884D01*
X35655Y190878D01*
X35654Y190872D01*
X35665Y190755D01*
X35674Y190639D01*
X35676Y190633D01*
X35677Y190627D01*
X35725Y190519D01*
X35770Y190413D01*
X35775Y190407D01*
X35777Y190402D01*
X35790Y190389D01*
X35875Y190282D01*
X47371Y178786D01*
X47445Y178733D01*
X47514Y178673D01*
X47545Y178661D01*
X47571Y178642D01*
X47658Y178615D01*
X47743Y178581D01*
X47784Y178577D01*
X47806Y178570D01*
X47838Y178571D01*
X47909Y178563D01*
X52086Y178563D01*
X52182Y178578D01*
X52279Y178588D01*
X52303Y178598D01*
X52329Y178602D01*
X52415Y178648D01*
X52504Y178688D01*
X52523Y178705D01*
X52546Y178718D01*
X52613Y178788D01*
X52685Y178854D01*
X52697Y178877D01*
X52715Y178896D01*
X52756Y178984D01*
X52803Y179070D01*
X52808Y179095D01*
X52819Y179119D01*
X52830Y179216D01*
X52847Y179312D01*
X52843Y179338D01*
X52846Y179363D01*
X52825Y179459D01*
X52811Y179555D01*
X52799Y179578D01*
X52794Y179604D01*
X52744Y179687D01*
X52700Y179774D01*
X52681Y179793D01*
X52668Y179815D01*
X52594Y179878D01*
X52524Y179946D01*
X52495Y179962D01*
X52481Y179975D01*
X52450Y179987D01*
X52377Y180027D01*
X52298Y180060D01*
X50520Y181838D01*
X49557Y184162D01*
X49557Y186678D01*
X50520Y189002D01*
X52298Y190780D01*
X54622Y191743D01*
X57138Y191743D01*
X59462Y190780D01*
X61240Y189002D01*
X62203Y186678D01*
X62203Y184767D01*
X62218Y184671D01*
X62228Y184574D01*
X62238Y184550D01*
X62242Y184524D01*
X62288Y184438D01*
X62328Y184349D01*
X62345Y184330D01*
X62358Y184307D01*
X62428Y184240D01*
X62494Y184168D01*
X62517Y184156D01*
X62536Y184137D01*
X62624Y184096D01*
X62710Y184050D01*
X62735Y184045D01*
X62759Y184034D01*
X62856Y184023D01*
X62952Y184006D01*
X62978Y184010D01*
X63003Y184007D01*
X63099Y184027D01*
X63195Y184042D01*
X63218Y184053D01*
X63244Y184059D01*
X63327Y184109D01*
X63414Y184153D01*
X63433Y184172D01*
X63455Y184185D01*
X63518Y184259D01*
X63586Y184329D01*
X63602Y184357D01*
X63615Y184372D01*
X63627Y184403D01*
X63667Y184476D01*
X64490Y186462D01*
X66268Y188240D01*
X68592Y189203D01*
X71108Y189203D01*
X73432Y188240D01*
X75210Y186462D01*
X76173Y184138D01*
X76173Y181622D01*
X75341Y179615D01*
X75331Y179571D01*
X75312Y179529D01*
X75303Y179452D01*
X75285Y179376D01*
X75290Y179330D01*
X75284Y179285D01*
X75301Y179208D01*
X75308Y179131D01*
X75327Y179089D01*
X75337Y179044D01*
X75377Y178977D01*
X75408Y178906D01*
X75439Y178872D01*
X75463Y178833D01*
X75522Y178782D01*
X75575Y178725D01*
X75615Y178703D01*
X75650Y178673D01*
X75722Y178644D01*
X75790Y178607D01*
X75835Y178598D01*
X75878Y178581D01*
X76014Y178566D01*
X76032Y178563D01*
X76037Y178564D01*
X76045Y178563D01*
X107537Y178563D01*
X107627Y178577D01*
X107718Y178585D01*
X107747Y178597D01*
X107779Y178602D01*
X107860Y178645D01*
X107944Y178681D01*
X107976Y178707D01*
X107997Y178718D01*
X108019Y178741D01*
X108075Y178786D01*
X117247Y187958D01*
X117289Y188016D01*
X117300Y188026D01*
X117302Y188029D01*
X117338Y188068D01*
X117360Y188115D01*
X117391Y188157D01*
X117412Y188226D01*
X117442Y188291D01*
X117448Y188343D01*
X117463Y188393D01*
X117461Y188464D01*
X117469Y188535D01*
X117458Y188586D01*
X117457Y188638D01*
X117432Y188706D01*
X117417Y188776D01*
X117390Y188821D01*
X117372Y188869D01*
X117327Y188925D01*
X117290Y188987D01*
X117251Y189021D01*
X117218Y189061D01*
X117158Y189100D01*
X117155Y189102D01*
X117139Y189118D01*
X117132Y189122D01*
X117104Y189147D01*
X117055Y189166D01*
X117011Y189194D01*
X116992Y189199D01*
X114528Y190220D01*
X112750Y191998D01*
X112234Y193244D01*
X112210Y193283D01*
X112194Y193326D01*
X112145Y193387D01*
X112104Y193453D01*
X112069Y193482D01*
X112040Y193518D01*
X111975Y193560D01*
X111915Y193610D01*
X111872Y193626D01*
X111833Y193651D01*
X111758Y193670D01*
X111685Y193698D01*
X111639Y193700D01*
X111595Y193711D01*
X111517Y193705D01*
X111440Y193708D01*
X111395Y193695D01*
X111350Y193692D01*
X111278Y193661D01*
X111203Y193640D01*
X111166Y193614D01*
X111123Y193596D01*
X111017Y193510D01*
X111001Y193499D01*
X110998Y193495D01*
X110992Y193491D01*
X110262Y192760D01*
X107938Y191797D01*
X105422Y191797D01*
X103098Y192760D01*
X101320Y194538D01*
X100357Y196862D01*
X100357Y199457D01*
X100343Y199547D01*
X100335Y199638D01*
X100323Y199667D01*
X100318Y199699D01*
X100275Y199780D01*
X100239Y199864D01*
X100213Y199896D01*
X100202Y199917D01*
X100179Y199939D01*
X100134Y199995D01*
X89407Y210722D01*
X89407Y262862D01*
X89397Y262927D01*
X89396Y262992D01*
X89373Y263072D01*
X89368Y263105D01*
X89358Y263122D01*
X89349Y263153D01*
X88927Y264172D01*
X88927Y266688D01*
X89890Y269012D01*
X91668Y270790D01*
X93992Y271753D01*
X96508Y271753D01*
X96765Y271646D01*
X96809Y271636D01*
X96851Y271616D01*
X96928Y271608D01*
X97004Y271590D01*
X97050Y271594D01*
X97095Y271589D01*
X97172Y271606D01*
X97249Y271613D01*
X97291Y271632D01*
X97336Y271642D01*
X97403Y271682D01*
X97474Y271713D01*
X97508Y271744D01*
X97547Y271768D01*
X97598Y271827D01*
X97655Y271880D01*
X97677Y271920D01*
X97707Y271955D01*
X97736Y272027D01*
X97773Y272095D01*
X97782Y272140D01*
X97799Y272183D01*
X97814Y272319D01*
X97817Y272337D01*
X97816Y272342D01*
X97817Y272350D01*
X97817Y273038D01*
X98780Y275362D01*
X100558Y277140D01*
X102882Y278103D01*
X105398Y278103D01*
X107722Y277140D01*
X109500Y275362D01*
X109533Y275283D01*
X109584Y275200D01*
X109630Y275114D01*
X109648Y275096D01*
X109662Y275074D01*
X109737Y275012D01*
X109808Y274945D01*
X109832Y274934D01*
X109852Y274917D01*
X109943Y274882D01*
X110031Y274841D01*
X110057Y274838D01*
X110081Y274829D01*
X110179Y274825D01*
X110275Y274814D01*
X110301Y274820D01*
X110327Y274818D01*
X110421Y274846D01*
X110516Y274866D01*
X110538Y274880D01*
X110563Y274887D01*
X110643Y274943D01*
X110727Y274992D01*
X110744Y275012D01*
X110765Y275027D01*
X110824Y275105D01*
X110887Y275179D01*
X110897Y275204D01*
X110912Y275225D01*
X110942Y275317D01*
X110979Y275408D01*
X110982Y275440D01*
X110988Y275458D01*
X110988Y275492D01*
X110997Y275574D01*
X110997Y280257D01*
X110983Y280347D01*
X110975Y280438D01*
X110963Y280467D01*
X110958Y280499D01*
X110915Y280580D01*
X110879Y280664D01*
X110853Y280696D01*
X110842Y280717D01*
X110819Y280739D01*
X110774Y280795D01*
X103475Y288094D01*
X103401Y288147D01*
X103332Y288207D01*
X103301Y288219D01*
X103275Y288238D01*
X103188Y288265D01*
X103103Y288299D01*
X103062Y288303D01*
X103040Y288310D01*
X103008Y288309D01*
X102937Y288317D01*
X100342Y288317D01*
X98018Y289280D01*
X96240Y291058D01*
X95466Y292927D01*
X95404Y293027D01*
X95344Y293127D01*
X95339Y293131D01*
X95336Y293136D01*
X95246Y293211D01*
X95157Y293287D01*
X95151Y293289D01*
X95147Y293293D01*
X95039Y293335D01*
X94929Y293379D01*
X94922Y293380D01*
X94917Y293381D01*
X94899Y293382D01*
X94762Y293397D01*
X92722Y293397D01*
X90398Y294360D01*
X88620Y296138D01*
X87651Y298478D01*
X87652Y298498D01*
X87630Y298573D01*
X87618Y298649D01*
X87596Y298690D01*
X87583Y298734D01*
X87539Y298798D01*
X87502Y298867D01*
X87469Y298898D01*
X87443Y298936D01*
X87380Y298982D01*
X87324Y299036D01*
X87282Y299055D01*
X87246Y299083D01*
X87172Y299107D01*
X87101Y299140D01*
X87055Y299145D01*
X87012Y299159D01*
X86934Y299158D01*
X86857Y299167D01*
X86812Y299157D01*
X86766Y299157D01*
X86634Y299118D01*
X86616Y299114D01*
X86612Y299112D01*
X86605Y299110D01*
X85078Y298477D01*
X82562Y298477D01*
X80238Y299440D01*
X78460Y301218D01*
X77497Y303542D01*
X77497Y306058D01*
X78460Y308382D01*
X80238Y310160D01*
X82562Y311123D01*
X85078Y311123D01*
X87402Y310160D01*
X89180Y308382D01*
X90149Y306042D01*
X90148Y306022D01*
X90170Y305947D01*
X90182Y305871D01*
X90204Y305830D01*
X90217Y305786D01*
X90261Y305722D01*
X90298Y305653D01*
X90331Y305622D01*
X90357Y305584D01*
X90420Y305538D01*
X90476Y305484D01*
X90518Y305465D01*
X90554Y305437D01*
X90628Y305413D01*
X90699Y305380D01*
X90745Y305375D01*
X90788Y305361D01*
X90866Y305362D01*
X90943Y305353D01*
X90988Y305363D01*
X91034Y305363D01*
X91166Y305402D01*
X91184Y305406D01*
X91188Y305408D01*
X91195Y305410D01*
X92722Y306043D01*
X95238Y306043D01*
X97562Y305080D01*
X99340Y303302D01*
X100114Y301433D01*
X100176Y301333D01*
X100236Y301233D01*
X100240Y301229D01*
X100244Y301224D01*
X100334Y301149D01*
X100423Y301073D01*
X100429Y301071D01*
X100433Y301067D01*
X100542Y301025D01*
X100651Y300981D01*
X100658Y300980D01*
X100663Y300979D01*
X100681Y300978D01*
X100818Y300963D01*
X102858Y300963D01*
X105182Y300000D01*
X106960Y298222D01*
X107923Y295898D01*
X107923Y293303D01*
X107937Y293213D01*
X107945Y293122D01*
X107957Y293093D01*
X107962Y293061D01*
X108005Y292980D01*
X108041Y292896D01*
X108067Y292864D01*
X108078Y292843D01*
X108101Y292821D01*
X108146Y292765D01*
X117603Y283308D01*
X117603Y256652D01*
X117614Y256581D01*
X117616Y256510D01*
X117634Y256461D01*
X117642Y256409D01*
X117676Y256346D01*
X117701Y256279D01*
X117733Y256238D01*
X117758Y256192D01*
X117810Y256143D01*
X117854Y256087D01*
X117898Y256059D01*
X117936Y256023D01*
X118001Y255993D01*
X118061Y255954D01*
X118112Y255941D01*
X118159Y255919D01*
X118230Y255911D01*
X118300Y255894D01*
X118352Y255898D01*
X118403Y255892D01*
X118474Y255907D01*
X118545Y255913D01*
X118593Y255933D01*
X118644Y255944D01*
X118705Y255981D01*
X118771Y256009D01*
X118827Y256054D01*
X118855Y256070D01*
X118870Y256088D01*
X118902Y256114D01*
X119608Y256820D01*
X121932Y257783D01*
X124448Y257783D01*
X126772Y256820D01*
X127378Y256214D01*
X127436Y256172D01*
X127488Y256123D01*
X127535Y256101D01*
X127577Y256070D01*
X127646Y256049D01*
X127711Y256019D01*
X127763Y256013D01*
X127813Y255998D01*
X127884Y256000D01*
X127955Y255992D01*
X128006Y256003D01*
X128058Y256004D01*
X128126Y256029D01*
X128196Y256044D01*
X128241Y256071D01*
X128289Y256089D01*
X128345Y256134D01*
X128407Y256170D01*
X128441Y256210D01*
X128481Y256243D01*
X128520Y256303D01*
X128567Y256357D01*
X128586Y256406D01*
X128614Y256449D01*
X128632Y256519D01*
X128659Y256586D01*
X128667Y256657D01*
X128675Y256688D01*
X128673Y256711D01*
X128677Y256752D01*
X128677Y300894D01*
X128670Y300940D01*
X128672Y300985D01*
X128650Y301060D01*
X128638Y301137D01*
X128616Y301178D01*
X128603Y301222D01*
X128559Y301286D01*
X128522Y301354D01*
X128489Y301386D01*
X128463Y301424D01*
X128400Y301470D01*
X128344Y301524D01*
X128302Y301543D01*
X128266Y301570D01*
X128192Y301595D01*
X128121Y301627D01*
X128075Y301632D01*
X128032Y301647D01*
X127954Y301646D01*
X127877Y301654D01*
X127832Y301645D01*
X127786Y301644D01*
X127655Y301606D01*
X127636Y301602D01*
X127632Y301600D01*
X127625Y301598D01*
X127170Y301409D01*
X124654Y301409D01*
X122330Y302372D01*
X120552Y304150D01*
X119589Y306474D01*
X119589Y308989D01*
X120552Y311313D01*
X122330Y313092D01*
X124654Y314055D01*
X127170Y314055D01*
X127625Y313866D01*
X127669Y313856D01*
X127711Y313836D01*
X127788Y313828D01*
X127864Y313810D01*
X127910Y313814D01*
X127955Y313809D01*
X128032Y313826D01*
X128109Y313833D01*
X128151Y313852D01*
X128196Y313861D01*
X128263Y313901D01*
X128334Y313933D01*
X128368Y313964D01*
X128407Y313988D01*
X128458Y314047D01*
X128515Y314099D01*
X128537Y314140D01*
X128567Y314174D01*
X128596Y314247D01*
X128633Y314315D01*
X128642Y314360D01*
X128659Y314403D01*
X128674Y314539D01*
X128677Y314557D01*
X128676Y314562D01*
X128677Y314569D01*
X128677Y395660D01*
X128670Y395705D01*
X128672Y395751D01*
X128650Y395826D01*
X128638Y395903D01*
X128616Y395943D01*
X128603Y395987D01*
X128559Y396051D01*
X128522Y396120D01*
X128489Y396152D01*
X128463Y396189D01*
X128400Y396236D01*
X128344Y396289D01*
X128302Y396309D01*
X128266Y396336D01*
X128192Y396360D01*
X128121Y396393D01*
X128075Y396398D01*
X128032Y396412D01*
X127954Y396412D01*
X127877Y396420D01*
X127832Y396410D01*
X127786Y396410D01*
X127654Y396372D01*
X127636Y396368D01*
X127632Y396365D01*
X127625Y396363D01*
X125693Y395563D01*
X125593Y395501D01*
X125493Y395441D01*
X125489Y395437D01*
X125484Y395433D01*
X125409Y395344D01*
X125333Y395254D01*
X125331Y395249D01*
X125327Y395244D01*
X125285Y395136D01*
X125241Y395026D01*
X125240Y395019D01*
X125239Y395014D01*
X125238Y394996D01*
X125223Y394860D01*
X125223Y383442D01*
X103609Y361828D01*
X103552Y361749D01*
X103490Y361674D01*
X103481Y361650D01*
X103465Y361628D01*
X103437Y361535D01*
X103402Y361444D01*
X103401Y361418D01*
X103393Y361393D01*
X103396Y361296D01*
X103391Y361199D01*
X103399Y361174D01*
X103399Y361147D01*
X103433Y361056D01*
X103460Y360963D01*
X103475Y360941D01*
X103484Y360916D01*
X103545Y360840D01*
X103600Y360760D01*
X103621Y360745D01*
X103638Y360724D01*
X103719Y360672D01*
X103798Y360614D01*
X103822Y360606D01*
X103844Y360591D01*
X103939Y360568D01*
X104031Y360537D01*
X104058Y360538D01*
X104083Y360531D01*
X104180Y360539D01*
X104277Y360540D01*
X104309Y360549D01*
X104328Y360550D01*
X104358Y360563D01*
X104439Y360587D01*
X106505Y361443D01*
X109021Y361443D01*
X111345Y360480D01*
X113123Y358702D01*
X114086Y356378D01*
X114086Y353862D01*
X113123Y351538D01*
X111345Y349760D01*
X109021Y348797D01*
X106505Y348797D01*
X104182Y349760D01*
X102403Y351538D01*
X101440Y353862D01*
X101440Y356378D01*
X102297Y358445D01*
X102319Y358539D01*
X102347Y358632D01*
X102347Y358659D01*
X102353Y358684D01*
X102344Y358781D01*
X102341Y358878D01*
X102332Y358903D01*
X102330Y358929D01*
X102290Y359018D01*
X102257Y359109D01*
X102240Y359130D01*
X102230Y359154D01*
X102164Y359225D01*
X102103Y359301D01*
X102081Y359316D01*
X102063Y359335D01*
X101978Y359382D01*
X101896Y359434D01*
X101871Y359441D01*
X101848Y359453D01*
X101752Y359471D01*
X101657Y359494D01*
X101631Y359492D01*
X101606Y359497D01*
X101509Y359483D01*
X101412Y359475D01*
X101388Y359465D01*
X101362Y359461D01*
X101275Y359417D01*
X101186Y359379D01*
X101161Y359359D01*
X101143Y359350D01*
X101120Y359326D01*
X101055Y359274D01*
X51151Y309370D01*
X51098Y309296D01*
X51038Y309227D01*
X51026Y309196D01*
X51007Y309170D01*
X50980Y309083D01*
X50946Y308998D01*
X50942Y308957D01*
X50935Y308935D01*
X50936Y308903D01*
X50928Y308832D01*
X50928Y222787D01*
X44338Y216197D01*
X36088Y216197D01*
X35974Y216178D01*
X35858Y216161D01*
X35852Y216159D01*
X35846Y216158D01*
X35743Y216103D01*
X35638Y216050D01*
X35634Y216045D01*
X35628Y216042D01*
X35549Y215958D01*
X35466Y215874D01*
X35462Y215868D01*
X35459Y215864D01*
X35451Y215847D01*
X35385Y215727D01*
X34564Y213744D01*
X31706Y210886D01*
X27971Y209339D01*
X23929Y209339D01*
X20194Y210886D01*
X17336Y213744D01*
X15789Y217479D01*
X15789Y221521D01*
X17336Y225256D01*
X20194Y228114D01*
X23929Y229661D01*
X27971Y229661D01*
X31706Y228114D01*
X34564Y225256D01*
X35385Y223273D01*
X35447Y223173D01*
X35507Y223073D01*
X35511Y223069D01*
X35515Y223064D01*
X35605Y222989D01*
X35694Y222913D01*
X35699Y222911D01*
X35704Y222907D01*
X35813Y222865D01*
X35922Y222821D01*
X35929Y222820D01*
X35934Y222819D01*
X35952Y222818D01*
X36088Y222803D01*
X41287Y222803D01*
X41377Y222817D01*
X41468Y222825D01*
X41497Y222837D01*
X41529Y222842D01*
X41610Y222885D01*
X41694Y222921D01*
X41726Y222947D01*
X41747Y222958D01*
X41769Y222981D01*
X41825Y223026D01*
X44099Y225300D01*
X44152Y225374D01*
X44212Y225443D01*
X44224Y225474D01*
X44243Y225500D01*
X44270Y225587D01*
X44304Y225672D01*
X44308Y225713D01*
X44315Y225735D01*
X44314Y225767D01*
X44322Y225838D01*
X44322Y311883D01*
X46480Y314041D01*
X89307Y356868D01*
X89349Y356926D01*
X89398Y356978D01*
X89420Y357025D01*
X89451Y357067D01*
X89472Y357136D01*
X89502Y357201D01*
X89508Y357253D01*
X89523Y357303D01*
X89521Y357374D01*
X89529Y357445D01*
X89518Y357496D01*
X89517Y357548D01*
X89492Y357616D01*
X89477Y357686D01*
X89450Y357731D01*
X89432Y357779D01*
X89387Y357835D01*
X89350Y357897D01*
X89311Y357931D01*
X89278Y357971D01*
X89218Y358010D01*
X89164Y358057D01*
X89115Y358076D01*
X89071Y358104D01*
X89002Y358122D01*
X88935Y358149D01*
X88864Y358157D01*
X88833Y358165D01*
X88810Y358163D01*
X88769Y358167D01*
X87642Y358167D01*
X85318Y359130D01*
X83540Y360908D01*
X82577Y363232D01*
X82577Y365748D01*
X83540Y368072D01*
X85318Y369850D01*
X87642Y370813D01*
X90158Y370813D01*
X92482Y369850D01*
X94260Y368072D01*
X95223Y365748D01*
X95223Y364621D01*
X95234Y364551D01*
X95236Y364479D01*
X95254Y364430D01*
X95262Y364379D01*
X95296Y364315D01*
X95321Y364248D01*
X95353Y364207D01*
X95378Y364161D01*
X95430Y364112D01*
X95474Y364056D01*
X95518Y364028D01*
X95556Y363992D01*
X95621Y363962D01*
X95681Y363923D01*
X95732Y363910D01*
X95779Y363888D01*
X95850Y363880D01*
X95920Y363863D01*
X95972Y363867D01*
X96023Y363861D01*
X96094Y363876D01*
X96165Y363882D01*
X96213Y363902D01*
X96264Y363913D01*
X96325Y363950D01*
X96391Y363978D01*
X96447Y364023D01*
X96475Y364040D01*
X96490Y364057D01*
X96522Y364083D01*
X118394Y385955D01*
X118447Y386029D01*
X118507Y386098D01*
X118519Y386129D01*
X118538Y386155D01*
X118565Y386242D01*
X118599Y386327D01*
X118603Y386368D01*
X118610Y386390D01*
X118609Y386422D01*
X118617Y386493D01*
X118617Y399328D01*
X118607Y399393D01*
X118606Y399458D01*
X118583Y399538D01*
X118578Y399571D01*
X118568Y399588D01*
X118559Y399619D01*
X118137Y400638D01*
X118137Y403154D01*
X119100Y405478D01*
X120878Y407256D01*
X123202Y408219D01*
X125718Y408219D01*
X127625Y407429D01*
X127669Y407418D01*
X127711Y407399D01*
X127788Y407390D01*
X127864Y407373D01*
X127910Y407377D01*
X127955Y407372D01*
X128032Y407388D01*
X128109Y407396D01*
X128151Y407414D01*
X128196Y407424D01*
X128263Y407464D01*
X128334Y407496D01*
X128368Y407527D01*
X128407Y407550D01*
X128458Y407609D01*
X128515Y407662D01*
X128537Y407702D01*
X128567Y407737D01*
X128596Y407809D01*
X128633Y407878D01*
X128642Y407923D01*
X128659Y407965D01*
X128674Y408101D01*
X128677Y408120D01*
X128676Y408125D01*
X128677Y408132D01*
X128677Y564887D01*
X128670Y564932D01*
X128672Y564978D01*
X128650Y565053D01*
X128638Y565130D01*
X128616Y565170D01*
X128603Y565214D01*
X128559Y565278D01*
X128522Y565347D01*
X128489Y565378D01*
X128463Y565416D01*
X128400Y565463D01*
X128344Y565516D01*
X128302Y565536D01*
X128266Y565563D01*
X128192Y565587D01*
X128121Y565620D01*
X128075Y565625D01*
X128032Y565639D01*
X127954Y565638D01*
X127877Y565647D01*
X127832Y565637D01*
X127786Y565637D01*
X127654Y565599D01*
X127636Y565595D01*
X127632Y565592D01*
X127625Y565590D01*
X126609Y565169D01*
X123891Y565169D01*
X121381Y566209D01*
X119459Y568131D01*
X118419Y570641D01*
X118419Y573359D01*
X119459Y575869D01*
X121052Y577462D01*
X121063Y577478D01*
X121079Y577490D01*
X121135Y577578D01*
X121195Y577661D01*
X121201Y577680D01*
X121212Y577697D01*
X121237Y577798D01*
X121268Y577897D01*
X121267Y577916D01*
X121272Y577936D01*
X121264Y578039D01*
X121261Y578142D01*
X121254Y578161D01*
X121253Y578181D01*
X121212Y578276D01*
X121177Y578373D01*
X121164Y578389D01*
X121156Y578407D01*
X121052Y578538D01*
X119459Y580131D01*
X119021Y581188D01*
X118970Y581271D01*
X118924Y581357D01*
X118905Y581375D01*
X118892Y581397D01*
X118817Y581459D01*
X118746Y581526D01*
X118722Y581537D01*
X118702Y581554D01*
X118611Y581589D01*
X118523Y581630D01*
X118497Y581633D01*
X118473Y581642D01*
X118375Y581646D01*
X118279Y581657D01*
X118253Y581651D01*
X118227Y581652D01*
X118133Y581625D01*
X118038Y581605D01*
X118016Y581591D01*
X117991Y581584D01*
X117911Y581528D01*
X117827Y581478D01*
X117810Y581459D01*
X117789Y581444D01*
X117730Y581365D01*
X117667Y581292D01*
X117657Y581267D01*
X117642Y581246D01*
X117612Y581154D01*
X117575Y581063D01*
X117572Y581031D01*
X117566Y581012D01*
X117566Y580979D01*
X117557Y580897D01*
X117557Y578216D01*
X115034Y575693D01*
X114301Y575693D01*
X114256Y575686D01*
X114210Y575688D01*
X114135Y575666D01*
X114059Y575654D01*
X114018Y575632D01*
X113974Y575619D01*
X113910Y575575D01*
X113841Y575538D01*
X113810Y575505D01*
X113772Y575479D01*
X113725Y575416D01*
X113672Y575360D01*
X113652Y575318D01*
X113625Y575282D01*
X113601Y575208D01*
X113568Y575137D01*
X113563Y575091D01*
X113549Y575048D01*
X113550Y574970D01*
X113541Y574893D01*
X113551Y574848D01*
X113551Y574802D01*
X113589Y574670D01*
X113593Y574652D01*
X113596Y574648D01*
X113598Y574641D01*
X114273Y573012D01*
X114273Y570496D01*
X113310Y568172D01*
X111532Y566394D01*
X109208Y565431D01*
X106934Y565431D01*
X106914Y565428D01*
X106895Y565430D01*
X106793Y565408D01*
X106691Y565392D01*
X106674Y565382D01*
X106654Y565378D01*
X106565Y565325D01*
X106474Y565276D01*
X106460Y565262D01*
X106443Y565252D01*
X106376Y565173D01*
X106304Y565098D01*
X106296Y565080D01*
X106283Y565065D01*
X106244Y564969D01*
X106201Y564875D01*
X106199Y564855D01*
X106191Y564837D01*
X106173Y564670D01*
X106173Y558198D01*
X106180Y558153D01*
X106178Y558107D01*
X106200Y558032D01*
X106212Y557956D01*
X106234Y557915D01*
X106247Y557871D01*
X106291Y557807D01*
X106328Y557738D01*
X106361Y557707D01*
X106387Y557669D01*
X106450Y557622D01*
X106506Y557569D01*
X106548Y557549D01*
X106584Y557522D01*
X106658Y557498D01*
X106729Y557465D01*
X106775Y557460D01*
X106818Y557446D01*
X106896Y557447D01*
X106973Y557438D01*
X107018Y557448D01*
X107064Y557448D01*
X107196Y557486D01*
X107214Y557490D01*
X107218Y557493D01*
X107225Y557495D01*
X108470Y558011D01*
X110986Y558011D01*
X113310Y557048D01*
X115088Y555270D01*
X116051Y552946D01*
X116051Y550430D01*
X115088Y548106D01*
X113310Y546328D01*
X110986Y545365D01*
X108470Y545365D01*
X107225Y545881D01*
X107181Y545891D01*
X107139Y545911D01*
X107062Y545919D01*
X106986Y545937D01*
X106940Y545933D01*
X106895Y545938D01*
X106818Y545921D01*
X106741Y545914D01*
X106699Y545895D01*
X106654Y545886D01*
X106587Y545846D01*
X106516Y545814D01*
X106482Y545783D01*
X106443Y545759D01*
X106392Y545700D01*
X106335Y545648D01*
X106313Y545607D01*
X106283Y545573D01*
X106254Y545500D01*
X106217Y545432D01*
X106208Y545387D01*
X106191Y545344D01*
X106176Y545208D01*
X106173Y545190D01*
X106174Y545185D01*
X106173Y545178D01*
X106173Y505996D01*
X106188Y505900D01*
X106198Y505803D01*
X106208Y505779D01*
X106212Y505753D01*
X106258Y505668D01*
X106298Y505578D01*
X106315Y505559D01*
X106328Y505536D01*
X106398Y505469D01*
X106464Y505397D01*
X106487Y505385D01*
X106506Y505367D01*
X106594Y505326D01*
X106680Y505279D01*
X106705Y505274D01*
X106729Y505263D01*
X106826Y505252D01*
X106922Y505235D01*
X106948Y505239D01*
X106973Y505236D01*
X107068Y505257D01*
X107165Y505271D01*
X107188Y505283D01*
X107214Y505288D01*
X107297Y505338D01*
X107384Y505382D01*
X107403Y505401D01*
X107425Y505414D01*
X107488Y505488D01*
X107556Y505558D01*
X107572Y505586D01*
X107585Y505601D01*
X107597Y505632D01*
X107637Y505705D01*
X107810Y506122D01*
X109588Y507900D01*
X111912Y508863D01*
X114428Y508863D01*
X116752Y507900D01*
X118530Y506122D01*
X119493Y503798D01*
X119493Y501282D01*
X118530Y498958D01*
X116752Y497180D01*
X114428Y496217D01*
X111912Y496217D01*
X109588Y497180D01*
X107810Y498958D01*
X107637Y499375D01*
X107586Y499458D01*
X107540Y499544D01*
X107521Y499562D01*
X107508Y499584D01*
X107433Y499646D01*
X107362Y499713D01*
X107338Y499724D01*
X107318Y499741D01*
X107227Y499776D01*
X107139Y499817D01*
X107113Y499820D01*
X107089Y499829D01*
X106991Y499833D01*
X106895Y499844D01*
X106869Y499838D01*
X106843Y499840D01*
X106749Y499812D01*
X106654Y499792D01*
X106632Y499778D01*
X106607Y499771D01*
X106527Y499715D01*
X106443Y499666D01*
X106426Y499646D01*
X106405Y499631D01*
X106347Y499553D01*
X106283Y499479D01*
X106273Y499454D01*
X106258Y499433D01*
X106228Y499341D01*
X106191Y499250D01*
X106188Y499218D01*
X106182Y499200D01*
X106182Y499166D01*
X106173Y499084D01*
X106173Y398682D01*
X101488Y393997D01*
X36089Y393997D01*
X35974Y393978D01*
X35858Y393961D01*
X35852Y393959D01*
X35846Y393958D01*
X35743Y393903D01*
X35638Y393850D01*
X35634Y393845D01*
X35628Y393842D01*
X35549Y393758D01*
X35466Y393674D01*
X35462Y393668D01*
X35459Y393664D01*
X35451Y393647D01*
X35385Y393527D01*
X34564Y391544D01*
X31706Y388686D01*
X27971Y387139D01*
X23929Y387139D01*
X20194Y388686D01*
X17336Y391544D01*
X15789Y395279D01*
X15789Y399321D01*
X17336Y403056D01*
X20194Y405914D01*
X23929Y407461D01*
X27971Y407461D01*
X31706Y405914D01*
X34564Y403056D01*
X35385Y401073D01*
X35447Y400973D01*
X35507Y400873D01*
X35512Y400869D01*
X35515Y400864D01*
X35604Y400789D01*
X35694Y400713D01*
X35700Y400711D01*
X35704Y400707D01*
X35812Y400665D01*
X35922Y400621D01*
X35929Y400620D01*
X35934Y400619D01*
X35952Y400618D01*
X36089Y400603D01*
X98437Y400603D01*
X98527Y400617D01*
X98618Y400625D01*
X98647Y400637D01*
X98679Y400642D01*
X98760Y400685D01*
X98844Y400721D01*
X98876Y400747D01*
X98897Y400758D01*
X98919Y400781D01*
X98975Y400826D01*
X99344Y401195D01*
X99397Y401269D01*
X99457Y401338D01*
X99469Y401369D01*
X99488Y401395D01*
X99515Y401482D01*
X99549Y401567D01*
X99553Y401608D01*
X99560Y401630D01*
X99559Y401662D01*
X99567Y401733D01*
X99567Y418636D01*
X99564Y418656D01*
X99566Y418675D01*
X99544Y418777D01*
X99528Y418879D01*
X99518Y418896D01*
X99514Y418916D01*
X99461Y419005D01*
X99412Y419096D01*
X99398Y419110D01*
X99388Y419127D01*
X99309Y419194D01*
X99234Y419266D01*
X99216Y419274D01*
X99201Y419287D01*
X99105Y419326D01*
X99011Y419369D01*
X98991Y419371D01*
X98973Y419379D01*
X98806Y419397D01*
X36089Y419397D01*
X35974Y419378D01*
X35858Y419361D01*
X35852Y419359D01*
X35846Y419358D01*
X35743Y419303D01*
X35638Y419250D01*
X35634Y419245D01*
X35628Y419242D01*
X35549Y419158D01*
X35466Y419074D01*
X35462Y419068D01*
X35459Y419064D01*
X35451Y419047D01*
X35385Y418927D01*
X34564Y416944D01*
X31706Y414086D01*
X27971Y412539D01*
X23929Y412539D01*
X20194Y414086D01*
X17336Y416944D01*
X15789Y420679D01*
X15789Y424721D01*
X17336Y428456D01*
X20194Y431314D01*
X23929Y432861D01*
X27971Y432861D01*
X31706Y431314D01*
X34564Y428456D01*
X35385Y426473D01*
X35447Y426373D01*
X35507Y426273D01*
X35512Y426269D01*
X35515Y426264D01*
X35604Y426189D01*
X35694Y426113D01*
X35700Y426111D01*
X35704Y426107D01*
X35812Y426065D01*
X35922Y426021D01*
X35929Y426020D01*
X35934Y426019D01*
X35952Y426018D01*
X36089Y426003D01*
X94996Y426003D01*
X95016Y426006D01*
X95035Y426004D01*
X95137Y426026D01*
X95239Y426042D01*
X95256Y426052D01*
X95276Y426056D01*
X95365Y426109D01*
X95456Y426158D01*
X95470Y426172D01*
X95487Y426182D01*
X95554Y426261D01*
X95626Y426336D01*
X95634Y426354D01*
X95647Y426369D01*
X95686Y426465D01*
X95729Y426559D01*
X95731Y426579D01*
X95739Y426597D01*
X95757Y426764D01*
X95757Y444036D01*
X95754Y444056D01*
X95756Y444075D01*
X95734Y444177D01*
X95718Y444279D01*
X95708Y444296D01*
X95704Y444316D01*
X95651Y444405D01*
X95602Y444496D01*
X95588Y444510D01*
X95578Y444527D01*
X95499Y444594D01*
X95424Y444666D01*
X95406Y444674D01*
X95391Y444687D01*
X95295Y444726D01*
X95201Y444769D01*
X95181Y444771D01*
X95163Y444779D01*
X94996Y444797D01*
X36089Y444797D01*
X35974Y444778D01*
X35858Y444761D01*
X35852Y444759D01*
X35846Y444758D01*
X35743Y444703D01*
X35638Y444650D01*
X35634Y444645D01*
X35628Y444642D01*
X35549Y444558D01*
X35466Y444474D01*
X35462Y444468D01*
X35459Y444464D01*
X35451Y444447D01*
X35385Y444327D01*
X34564Y442344D01*
X31706Y439486D01*
X27971Y437939D01*
X23929Y437939D01*
X20194Y439486D01*
X17336Y442344D01*
X15789Y446079D01*
X15789Y450121D01*
X17336Y453856D01*
X20194Y456714D01*
X23929Y458261D01*
X27971Y458261D01*
X31706Y456714D01*
X34564Y453856D01*
X35385Y451873D01*
X35447Y451773D01*
X35507Y451673D01*
X35512Y451669D01*
X35515Y451664D01*
X35604Y451589D01*
X35694Y451513D01*
X35700Y451511D01*
X35704Y451507D01*
X35812Y451465D01*
X35922Y451421D01*
X35929Y451420D01*
X35934Y451419D01*
X35952Y451418D01*
X36089Y451403D01*
X91186Y451403D01*
X91206Y451406D01*
X91225Y451404D01*
X91327Y451426D01*
X91429Y451442D01*
X91446Y451452D01*
X91466Y451456D01*
X91555Y451509D01*
X91646Y451558D01*
X91660Y451572D01*
X91677Y451582D01*
X91744Y451661D01*
X91816Y451736D01*
X91824Y451754D01*
X91837Y451769D01*
X91876Y451865D01*
X91919Y451959D01*
X91921Y451979D01*
X91929Y451997D01*
X91947Y452164D01*
X91947Y467106D01*
X91944Y467126D01*
X91946Y467145D01*
X91924Y467247D01*
X91908Y467349D01*
X91898Y467366D01*
X91894Y467386D01*
X91841Y467475D01*
X91792Y467566D01*
X91778Y467580D01*
X91768Y467597D01*
X91689Y467664D01*
X91614Y467736D01*
X91596Y467744D01*
X91581Y467757D01*
X91485Y467796D01*
X91391Y467839D01*
X91371Y467841D01*
X91353Y467849D01*
X91186Y467867D01*
X35002Y467867D01*
X34912Y467853D01*
X34821Y467845D01*
X34791Y467833D01*
X34759Y467828D01*
X34679Y467785D01*
X34595Y467749D01*
X34563Y467723D01*
X34542Y467712D01*
X34520Y467689D01*
X34464Y467644D01*
X31706Y464886D01*
X27971Y463339D01*
X23929Y463339D01*
X20194Y464886D01*
X17336Y467744D01*
X15789Y471479D01*
X15789Y475521D01*
X17336Y479256D01*
X20194Y482114D01*
X23929Y483661D01*
X27971Y483661D01*
X31706Y482114D01*
X34564Y479256D01*
X36111Y475521D01*
X36111Y475234D01*
X36114Y475214D01*
X36112Y475195D01*
X36134Y475093D01*
X36150Y474991D01*
X36160Y474974D01*
X36164Y474954D01*
X36217Y474865D01*
X36266Y474774D01*
X36280Y474760D01*
X36290Y474743D01*
X36369Y474676D01*
X36444Y474604D01*
X36462Y474596D01*
X36477Y474583D01*
X36573Y474544D01*
X36667Y474501D01*
X36687Y474499D01*
X36705Y474491D01*
X36872Y474473D01*
X87376Y474473D01*
X87396Y474476D01*
X87415Y474474D01*
X87517Y474496D01*
X87619Y474512D01*
X87636Y474522D01*
X87656Y474526D01*
X87745Y474579D01*
X87836Y474628D01*
X87850Y474642D01*
X87867Y474652D01*
X87934Y474731D01*
X88006Y474806D01*
X88014Y474824D01*
X88027Y474839D01*
X88066Y474935D01*
X88109Y475029D01*
X88111Y475049D01*
X88119Y475067D01*
X88137Y475234D01*
X88137Y571677D01*
X88123Y571767D01*
X88115Y571858D01*
X88103Y571888D01*
X88098Y571920D01*
X88055Y572001D01*
X88019Y572084D01*
X87993Y572117D01*
X87982Y572137D01*
X87959Y572159D01*
X87914Y572215D01*
X86161Y573968D01*
X86161Y581732D01*
X89361Y584932D01*
X89403Y584990D01*
X89453Y585042D01*
X89475Y585089D01*
X89505Y585131D01*
X89526Y585200D01*
X89556Y585265D01*
X89562Y585317D01*
X89577Y585367D01*
X89576Y585438D01*
X89583Y585509D01*
X89572Y585560D01*
X89571Y585612D01*
X89546Y585680D01*
X89531Y585750D01*
X89504Y585795D01*
X89487Y585843D01*
X89442Y585899D01*
X89405Y585961D01*
X89365Y585995D01*
X89333Y586035D01*
X89273Y586074D01*
X89218Y586121D01*
X89170Y586140D01*
X89126Y586168D01*
X89056Y586186D01*
X88990Y586213D01*
X88919Y586221D01*
X88887Y586229D01*
X88864Y586227D01*
X88823Y586231D01*
X84780Y586231D01*
X84760Y586228D01*
X84741Y586230D01*
X84639Y586208D01*
X84537Y586192D01*
X84520Y586182D01*
X84500Y586178D01*
X84411Y586125D01*
X84320Y586076D01*
X84306Y586062D01*
X84289Y586052D01*
X84222Y585973D01*
X84150Y585898D01*
X84142Y585880D01*
X84129Y585865D01*
X84090Y585769D01*
X84047Y585675D01*
X84045Y585655D01*
X84037Y585637D01*
X84019Y585470D01*
X84019Y556215D01*
X71279Y543475D01*
X69121Y541317D01*
X49852Y541317D01*
X49782Y541306D01*
X49710Y541304D01*
X49661Y541286D01*
X49609Y541278D01*
X49546Y541244D01*
X49479Y541219D01*
X49438Y541187D01*
X49392Y541162D01*
X49343Y541110D01*
X49287Y541066D01*
X49259Y541022D01*
X49223Y540984D01*
X49193Y540919D01*
X49154Y540859D01*
X49141Y540808D01*
X49119Y540761D01*
X49111Y540690D01*
X49094Y540620D01*
X49098Y540568D01*
X49092Y540517D01*
X49107Y540446D01*
X49113Y540375D01*
X49133Y540327D01*
X49144Y540276D01*
X49181Y540215D01*
X49209Y540149D01*
X49254Y540093D01*
X49270Y540065D01*
X49288Y540050D01*
X49314Y540018D01*
X51080Y538252D01*
X52043Y535928D01*
X52043Y533412D01*
X51080Y531088D01*
X49302Y529310D01*
X48716Y529067D01*
X48633Y529016D01*
X48547Y528970D01*
X48529Y528951D01*
X48507Y528938D01*
X48445Y528863D01*
X48378Y528792D01*
X48367Y528768D01*
X48350Y528748D01*
X48315Y528657D01*
X48274Y528569D01*
X48271Y528543D01*
X48262Y528519D01*
X48258Y528421D01*
X48247Y528325D01*
X48253Y528299D01*
X48251Y528273D01*
X48279Y528179D01*
X48299Y528084D01*
X48313Y528062D01*
X48320Y528037D01*
X48375Y527957D01*
X48425Y527873D01*
X48445Y527856D01*
X48460Y527835D01*
X48538Y527776D01*
X48612Y527713D01*
X48637Y527703D01*
X48658Y527688D01*
X48750Y527658D01*
X48841Y527621D01*
X48873Y527618D01*
X48891Y527612D01*
X48925Y527612D01*
X49007Y527603D01*
X67891Y527603D01*
X67981Y527617D01*
X68072Y527625D01*
X68101Y527637D01*
X68133Y527642D01*
X68214Y527685D01*
X68298Y527721D01*
X68330Y527747D01*
X68351Y527758D01*
X68373Y527781D01*
X68429Y527826D01*
X72128Y531525D01*
X72181Y531599D01*
X72241Y531668D01*
X72253Y531699D01*
X72272Y531725D01*
X72299Y531812D01*
X72333Y531897D01*
X72337Y531938D01*
X72344Y531960D01*
X72343Y531992D01*
X72351Y532063D01*
X72351Y534658D01*
X73314Y536982D01*
X75092Y538760D01*
X77416Y539723D01*
X79932Y539723D01*
X82256Y538760D01*
X84034Y536982D01*
X84997Y534658D01*
X84997Y532142D01*
X84034Y529818D01*
X82256Y528040D01*
X80064Y527132D01*
X80003Y527094D01*
X79937Y527065D01*
X79899Y527030D01*
X79855Y527002D01*
X79809Y526947D01*
X79756Y526899D01*
X79731Y526853D01*
X79698Y526813D01*
X79672Y526746D01*
X79638Y526683D01*
X79628Y526632D01*
X79610Y526583D01*
X79607Y526512D01*
X79594Y526441D01*
X79601Y526390D01*
X79599Y526338D01*
X79619Y526269D01*
X79630Y526198D01*
X79653Y526151D01*
X79668Y526101D01*
X79709Y526042D01*
X79741Y525978D01*
X79778Y525942D01*
X79808Y525899D01*
X79866Y525856D01*
X79917Y525806D01*
X79980Y525772D01*
X80005Y525752D01*
X80028Y525745D01*
X80064Y525725D01*
X82322Y524790D01*
X84100Y523012D01*
X85063Y520688D01*
X85063Y518172D01*
X84100Y515848D01*
X82266Y514014D01*
X82213Y513940D01*
X82153Y513871D01*
X82141Y513840D01*
X82122Y513814D01*
X82095Y513727D01*
X82061Y513642D01*
X82057Y513601D01*
X82050Y513579D01*
X82051Y513547D01*
X82043Y513476D01*
X82043Y512982D01*
X79603Y510542D01*
X79561Y510484D01*
X79550Y510474D01*
X79548Y510471D01*
X79512Y510432D01*
X79490Y510385D01*
X79459Y510343D01*
X79438Y510274D01*
X79408Y510209D01*
X79402Y510157D01*
X79387Y510107D01*
X79389Y510036D01*
X79381Y509965D01*
X79392Y509914D01*
X79393Y509862D01*
X79418Y509794D01*
X79433Y509724D01*
X79460Y509679D01*
X79478Y509631D01*
X79523Y509575D01*
X79560Y509513D01*
X79599Y509479D01*
X79632Y509439D01*
X79692Y509400D01*
X79695Y509398D01*
X79711Y509382D01*
X79718Y509378D01*
X79746Y509353D01*
X79795Y509334D01*
X79839Y509306D01*
X79858Y509301D01*
X82322Y508280D01*
X84100Y506502D01*
X85063Y504178D01*
X85063Y501662D01*
X84100Y499338D01*
X82322Y497560D01*
X79998Y496597D01*
X77482Y496597D01*
X75158Y497560D01*
X73380Y499338D01*
X72378Y501756D01*
X72378Y501761D01*
X72371Y501773D01*
X72359Y501802D01*
X72342Y501830D01*
X72319Y501892D01*
X72287Y501933D01*
X72262Y501979D01*
X72232Y502008D01*
X72230Y502011D01*
X72219Y502020D01*
X72210Y502028D01*
X72166Y502084D01*
X72122Y502112D01*
X72084Y502148D01*
X72019Y502178D01*
X71959Y502217D01*
X71908Y502230D01*
X71861Y502252D01*
X71790Y502260D01*
X71720Y502277D01*
X71668Y502273D01*
X71617Y502279D01*
X71546Y502264D01*
X71475Y502258D01*
X71427Y502238D01*
X71376Y502227D01*
X71315Y502190D01*
X71249Y502162D01*
X71193Y502117D01*
X71165Y502100D01*
X71150Y502083D01*
X71118Y502057D01*
X64658Y495597D01*
X36089Y495597D01*
X35974Y495578D01*
X35858Y495561D01*
X35852Y495559D01*
X35846Y495558D01*
X35743Y495503D01*
X35638Y495450D01*
X35634Y495445D01*
X35628Y495442D01*
X35549Y495358D01*
X35466Y495274D01*
X35462Y495268D01*
X35459Y495264D01*
X35451Y495247D01*
X35385Y495127D01*
X34564Y493144D01*
X31706Y490286D01*
X27971Y488739D01*
X23929Y488739D01*
X20194Y490286D01*
X17336Y493144D01*
X15789Y496879D01*
X15789Y500921D01*
X17336Y504656D01*
X20194Y507514D01*
X23929Y509061D01*
X27971Y509061D01*
X31706Y507514D01*
X34564Y504656D01*
X35385Y502673D01*
X35447Y502573D01*
X35507Y502473D01*
X35512Y502469D01*
X35515Y502464D01*
X35604Y502389D01*
X35694Y502313D01*
X35700Y502311D01*
X35704Y502307D01*
X35812Y502265D01*
X35922Y502221D01*
X35929Y502220D01*
X35934Y502219D01*
X35952Y502218D01*
X36089Y502203D01*
X61607Y502203D01*
X61697Y502217D01*
X61788Y502225D01*
X61817Y502237D01*
X61849Y502242D01*
X61930Y502285D01*
X62014Y502321D01*
X62046Y502347D01*
X62067Y502358D01*
X62089Y502381D01*
X62145Y502426D01*
X73935Y514216D01*
X73947Y514232D01*
X73963Y514245D01*
X74019Y514332D01*
X74079Y514416D01*
X74085Y514435D01*
X74096Y514452D01*
X74121Y514552D01*
X74151Y514651D01*
X74151Y514671D01*
X74156Y514690D01*
X74148Y514793D01*
X74145Y514897D01*
X74138Y514916D01*
X74137Y514936D01*
X74096Y515030D01*
X74061Y515128D01*
X74048Y515144D01*
X74040Y515162D01*
X73935Y515293D01*
X73380Y515848D01*
X72417Y518172D01*
X72417Y520635D01*
X72406Y520705D01*
X72404Y520777D01*
X72386Y520826D01*
X72378Y520877D01*
X72344Y520941D01*
X72319Y521008D01*
X72287Y521049D01*
X72262Y521095D01*
X72211Y521144D01*
X72166Y521200D01*
X72122Y521228D01*
X72084Y521264D01*
X72019Y521294D01*
X71959Y521333D01*
X71908Y521346D01*
X71861Y521368D01*
X71790Y521376D01*
X71720Y521393D01*
X71668Y521389D01*
X71617Y521395D01*
X71546Y521380D01*
X71475Y521374D01*
X71427Y521354D01*
X71376Y521343D01*
X71315Y521306D01*
X71249Y521278D01*
X71193Y521233D01*
X71165Y521216D01*
X71150Y521199D01*
X71118Y521173D01*
X70942Y520997D01*
X36089Y520997D01*
X35974Y520978D01*
X35858Y520961D01*
X35852Y520959D01*
X35846Y520958D01*
X35743Y520903D01*
X35638Y520850D01*
X35634Y520845D01*
X35628Y520842D01*
X35549Y520758D01*
X35466Y520674D01*
X35462Y520668D01*
X35459Y520664D01*
X35451Y520647D01*
X35385Y520527D01*
X34564Y518544D01*
X31706Y515686D01*
X27971Y514139D01*
X23929Y514139D01*
X20194Y515686D01*
X17336Y518544D01*
X15789Y522279D01*
X15789Y526321D01*
X17336Y530056D01*
X20194Y532914D01*
X23929Y534461D01*
X27971Y534461D01*
X31706Y532914D01*
X34564Y530056D01*
X35385Y528073D01*
X35447Y527973D01*
X35507Y527873D01*
X35512Y527869D01*
X35515Y527864D01*
X35604Y527789D01*
X35694Y527713D01*
X35700Y527711D01*
X35704Y527707D01*
X35812Y527665D01*
X35922Y527621D01*
X35929Y527620D01*
X35934Y527619D01*
X35952Y527618D01*
X36089Y527603D01*
X42433Y527603D01*
X42529Y527618D01*
X42626Y527628D01*
X42650Y527638D01*
X42676Y527642D01*
X42761Y527688D01*
X42851Y527728D01*
X42870Y527745D01*
X42893Y527758D01*
X42960Y527828D01*
X43032Y527894D01*
X43044Y527917D01*
X43062Y527936D01*
X43103Y528024D01*
X43150Y528110D01*
X43155Y528135D01*
X43166Y528159D01*
X43177Y528256D01*
X43194Y528352D01*
X43190Y528378D01*
X43193Y528403D01*
X43172Y528498D01*
X43158Y528595D01*
X43146Y528618D01*
X43141Y528644D01*
X43091Y528728D01*
X43047Y528814D01*
X43028Y528832D01*
X43015Y528855D01*
X42940Y528918D01*
X42871Y528986D01*
X42842Y529002D01*
X42828Y529015D01*
X42797Y529027D01*
X42724Y529067D01*
X42138Y529310D01*
X40360Y531088D01*
X39397Y533412D01*
X39397Y535928D01*
X40360Y538252D01*
X42126Y540018D01*
X42168Y540076D01*
X42217Y540128D01*
X42239Y540175D01*
X42270Y540217D01*
X42291Y540286D01*
X42321Y540351D01*
X42327Y540403D01*
X42342Y540453D01*
X42340Y540524D01*
X42348Y540595D01*
X42337Y540646D01*
X42336Y540698D01*
X42311Y540766D01*
X42296Y540836D01*
X42269Y540881D01*
X42251Y540929D01*
X42206Y540985D01*
X42170Y541047D01*
X42130Y541081D01*
X42097Y541121D01*
X42037Y541160D01*
X41983Y541207D01*
X41934Y541226D01*
X41891Y541254D01*
X41821Y541272D01*
X41754Y541299D01*
X41683Y541307D01*
X41652Y541315D01*
X41629Y541313D01*
X41588Y541317D01*
X32252Y541317D01*
X32162Y541303D01*
X32071Y541295D01*
X32041Y541283D01*
X32009Y541278D01*
X31929Y541235D01*
X31845Y541199D01*
X31813Y541173D01*
X31792Y541162D01*
X31770Y541139D01*
X31714Y541094D01*
X31706Y541086D01*
X27971Y539539D01*
X23929Y539539D01*
X20194Y541086D01*
X17336Y543944D01*
X15789Y547679D01*
X15789Y551721D01*
X17336Y555456D01*
X20194Y558314D01*
X23929Y559861D01*
X27971Y559861D01*
X31706Y558314D01*
X34564Y555456D01*
X36111Y551721D01*
X36111Y548684D01*
X36114Y548664D01*
X36112Y548645D01*
X36134Y548543D01*
X36150Y548441D01*
X36160Y548424D01*
X36164Y548404D01*
X36217Y548315D01*
X36266Y548224D01*
X36280Y548210D01*
X36290Y548193D01*
X36369Y548126D01*
X36444Y548054D01*
X36462Y548046D01*
X36477Y548033D01*
X36573Y547994D01*
X36667Y547951D01*
X36687Y547949D01*
X36705Y547941D01*
X36872Y547923D01*
X44973Y547923D01*
X45069Y547938D01*
X45166Y547948D01*
X45190Y547958D01*
X45216Y547962D01*
X45301Y548008D01*
X45391Y548048D01*
X45410Y548065D01*
X45433Y548078D01*
X45500Y548148D01*
X45572Y548214D01*
X45584Y548237D01*
X45602Y548256D01*
X45643Y548344D01*
X45690Y548430D01*
X45695Y548455D01*
X45706Y548479D01*
X45717Y548576D01*
X45734Y548672D01*
X45730Y548698D01*
X45733Y548723D01*
X45712Y548818D01*
X45698Y548915D01*
X45686Y548938D01*
X45681Y548964D01*
X45631Y549047D01*
X45587Y549134D01*
X45568Y549153D01*
X45555Y549175D01*
X45481Y549238D01*
X45411Y549306D01*
X45383Y549322D01*
X45368Y549335D01*
X45337Y549347D01*
X45264Y549387D01*
X44678Y549630D01*
X42900Y551408D01*
X41937Y553732D01*
X41937Y556248D01*
X42900Y558572D01*
X44496Y560167D01*
X44511Y560189D01*
X44521Y560197D01*
X44533Y560215D01*
X44561Y560241D01*
X44596Y560307D01*
X44639Y560367D01*
X44647Y560393D01*
X44654Y560404D01*
X44659Y560424D01*
X44677Y560458D01*
X44690Y560531D01*
X44711Y560602D01*
X44711Y560630D01*
X44714Y560642D01*
X44712Y560663D01*
X44719Y560700D01*
X44707Y560774D01*
X44705Y560848D01*
X44696Y560873D01*
X44695Y560887D01*
X44686Y560908D01*
X44680Y560943D01*
X44646Y561009D01*
X44621Y561079D01*
X44605Y561099D01*
X44598Y561114D01*
X44579Y561137D01*
X44567Y561162D01*
X44538Y561190D01*
X44494Y561245D01*
X42608Y563130D01*
X41645Y565454D01*
X41645Y567970D01*
X42608Y570293D01*
X44387Y572072D01*
X44872Y572273D01*
X44933Y572311D01*
X44998Y572340D01*
X45037Y572375D01*
X45081Y572403D01*
X45127Y572458D01*
X45180Y572506D01*
X45205Y572552D01*
X45238Y572592D01*
X45264Y572659D01*
X45298Y572722D01*
X45307Y572773D01*
X45326Y572822D01*
X45329Y572893D01*
X45342Y572964D01*
X45334Y573016D01*
X45336Y573068D01*
X45316Y573136D01*
X45306Y573207D01*
X45282Y573254D01*
X45268Y573304D01*
X45227Y573363D01*
X45195Y573427D01*
X45157Y573463D01*
X45128Y573506D01*
X45070Y573549D01*
X45019Y573599D01*
X44956Y573633D01*
X44930Y573653D01*
X44908Y573660D01*
X44872Y573680D01*
X44678Y573760D01*
X42900Y575538D01*
X41937Y577862D01*
X41937Y580378D01*
X42900Y582702D01*
X44678Y584480D01*
X45370Y584767D01*
X45431Y584804D01*
X45497Y584834D01*
X45535Y584869D01*
X45579Y584896D01*
X45625Y584952D01*
X45678Y585000D01*
X45703Y585046D01*
X45736Y585086D01*
X45762Y585153D01*
X45796Y585216D01*
X45806Y585267D01*
X45824Y585315D01*
X45827Y585387D01*
X45840Y585458D01*
X45833Y585509D01*
X45835Y585561D01*
X45815Y585630D01*
X45804Y585701D01*
X45781Y585747D01*
X45766Y585797D01*
X45725Y585856D01*
X45693Y585920D01*
X45656Y585957D01*
X45626Y585999D01*
X45568Y586042D01*
X45517Y586092D01*
X45454Y586127D01*
X45429Y586146D01*
X45406Y586153D01*
X45370Y586173D01*
X44678Y586460D01*
X42900Y588238D01*
X41937Y590562D01*
X41937Y593078D01*
X42900Y595402D01*
X44678Y597180D01*
X45030Y597326D01*
X45091Y597363D01*
X45156Y597393D01*
X45195Y597428D01*
X45239Y597455D01*
X45285Y597510D01*
X45337Y597559D01*
X45363Y597605D01*
X45396Y597645D01*
X45421Y597712D01*
X45456Y597775D01*
X45465Y597826D01*
X45484Y597874D01*
X45487Y597946D01*
X45500Y598017D01*
X45492Y598068D01*
X45494Y598120D01*
X45474Y598189D01*
X45464Y598260D01*
X45440Y598306D01*
X45426Y598356D01*
X45385Y598415D01*
X45352Y598479D01*
X45315Y598516D01*
X45286Y598558D01*
X45228Y598601D01*
X45177Y598651D01*
X45114Y598686D01*
X45088Y598705D01*
X45066Y598712D01*
X45030Y598732D01*
X44678Y598878D01*
X42900Y600656D01*
X41937Y602980D01*
X41937Y605496D01*
X42900Y607820D01*
X44678Y609598D01*
X47002Y610561D01*
X49518Y610561D01*
X51842Y609598D01*
X53620Y607820D01*
X54583Y605496D01*
X54583Y603504D01*
X54586Y603484D01*
X54584Y603465D01*
X54606Y603363D01*
X54622Y603261D01*
X54632Y603244D01*
X54636Y603224D01*
X54689Y603135D01*
X54738Y603044D01*
X54752Y603030D01*
X54762Y603013D01*
X54841Y602946D01*
X54916Y602874D01*
X54934Y602866D01*
X54949Y602853D01*
X55045Y602814D01*
X55139Y602771D01*
X55159Y602769D01*
X55177Y602761D01*
X55344Y602743D01*
X84841Y602743D01*
X84886Y602750D01*
X84932Y602748D01*
X85007Y602770D01*
X85084Y602782D01*
X85124Y602804D01*
X85168Y602817D01*
X85232Y602861D01*
X85301Y602898D01*
X85333Y602931D01*
X85370Y602957D01*
X85417Y603019D01*
X85471Y603076D01*
X85490Y603118D01*
X85517Y603154D01*
X85541Y603228D01*
X85574Y603299D01*
X85579Y603345D01*
X85593Y603388D01*
X85593Y603466D01*
X85601Y603543D01*
X85592Y603588D01*
X85591Y603634D01*
X85553Y603766D01*
X85549Y603784D01*
X85546Y603788D01*
X85544Y603795D01*
X85117Y604826D01*
X85117Y607342D01*
X86080Y609666D01*
X87858Y611444D01*
X90182Y612407D01*
X92698Y612407D01*
X95022Y611444D01*
X96800Y609666D01*
X97776Y607309D01*
X97794Y607260D01*
X97802Y607209D01*
X97836Y607145D01*
X97861Y607078D01*
X97893Y607037D01*
X97918Y606991D01*
X97970Y606942D01*
X98014Y606886D01*
X98058Y606858D01*
X98096Y606822D01*
X98161Y606792D01*
X98221Y606753D01*
X98272Y606740D01*
X98319Y606718D01*
X98390Y606710D01*
X98460Y606693D01*
X98512Y606697D01*
X98563Y606691D01*
X98634Y606706D01*
X98705Y606712D01*
X98753Y606732D01*
X98804Y606743D01*
X98865Y606780D01*
X98931Y606808D01*
X98987Y606853D01*
X99015Y606870D01*
X99030Y606887D01*
X99062Y606913D01*
X100452Y608303D01*
X110147Y608303D01*
X110237Y608317D01*
X110328Y608325D01*
X110358Y608337D01*
X110390Y608342D01*
X110470Y608385D01*
X110554Y608421D01*
X110586Y608447D01*
X110607Y608458D01*
X110629Y608481D01*
X110685Y608526D01*
X111466Y609307D01*
X115034Y609307D01*
X117120Y607221D01*
X117178Y607179D01*
X117230Y607130D01*
X117277Y607108D01*
X117319Y607077D01*
X117388Y607056D01*
X117453Y607026D01*
X117505Y607020D01*
X117555Y607005D01*
X117626Y607007D01*
X117697Y606999D01*
X117748Y607010D01*
X117800Y607011D01*
X117868Y607036D01*
X117938Y607051D01*
X117983Y607078D01*
X118031Y607096D01*
X118087Y607141D01*
X118149Y607177D01*
X118183Y607217D01*
X118223Y607250D01*
X118262Y607310D01*
X118309Y607364D01*
X118328Y607413D01*
X118356Y607456D01*
X118374Y607526D01*
X118401Y607592D01*
X118409Y607664D01*
X118417Y607695D01*
X118415Y607718D01*
X118419Y607759D01*
X118419Y609359D01*
X119459Y611869D01*
X121381Y613791D01*
X123891Y614831D01*
X126609Y614831D01*
X129119Y613791D01*
X130712Y612198D01*
X130728Y612187D01*
X130740Y612171D01*
X130828Y612115D01*
X130911Y612055D01*
X130930Y612049D01*
X130947Y612038D01*
X131048Y612013D01*
X131147Y611982D01*
X131166Y611983D01*
X131186Y611978D01*
X131289Y611986D01*
X131392Y611989D01*
X131411Y611996D01*
X131431Y611997D01*
X131526Y612038D01*
X131623Y612073D01*
X131639Y612086D01*
X131657Y612094D01*
X131788Y612198D01*
X133381Y613791D01*
X134555Y614277D01*
X134594Y614302D01*
X134638Y614317D01*
X134698Y614366D01*
X134764Y614407D01*
X134794Y614442D01*
X134830Y614471D01*
X134872Y614537D01*
X134921Y614596D01*
X134938Y614639D01*
X134963Y614678D01*
X134982Y614754D01*
X135009Y614826D01*
X135011Y614872D01*
X135023Y614916D01*
X135017Y614994D01*
X135020Y615072D01*
X135007Y615116D01*
X135004Y615162D01*
X134973Y615233D01*
X134951Y615308D01*
X134925Y615346D01*
X134907Y615388D01*
X134822Y615495D01*
X134811Y615510D01*
X134807Y615513D01*
X134802Y615519D01*
X133615Y616706D01*
X133615Y620274D01*
X134396Y621055D01*
X134449Y621129D01*
X134509Y621198D01*
X134521Y621228D01*
X134540Y621255D01*
X134567Y621342D01*
X134601Y621426D01*
X134605Y621467D01*
X134612Y621490D01*
X134611Y621522D01*
X134619Y621593D01*
X134619Y621890D01*
X162844Y650115D01*
X162897Y650189D01*
X162957Y650258D01*
X162969Y650289D01*
X162988Y650315D01*
X163015Y650402D01*
X163049Y650487D01*
X163053Y650528D01*
X163060Y650550D01*
X163059Y650582D01*
X163067Y650653D01*
X163067Y671928D01*
X175162Y684023D01*
X221298Y684023D01*
X221318Y684026D01*
X221337Y684024D01*
X221439Y684046D01*
X221541Y684062D01*
X221558Y684072D01*
X221578Y684076D01*
X221667Y684129D01*
X221758Y684178D01*
X221772Y684192D01*
X221789Y684202D01*
X221856Y684281D01*
X221928Y684356D01*
X221936Y684374D01*
X221949Y684389D01*
X221988Y684485D01*
X222031Y684579D01*
X222033Y684599D01*
X222041Y684617D01*
X222059Y684784D01*
X222059Y686336D01*
X223442Y689674D01*
X225996Y692228D01*
X229334Y693611D01*
X232946Y693611D01*
X236284Y692228D01*
X238838Y689674D01*
X240221Y686336D01*
X240221Y682724D01*
X238838Y679386D01*
X236284Y676832D01*
X233572Y675708D01*
X233511Y675670D01*
X233445Y675641D01*
X233407Y675606D01*
X233363Y675579D01*
X233317Y675523D01*
X233264Y675475D01*
X233239Y675429D01*
X233206Y675389D01*
X233180Y675322D01*
X233145Y675259D01*
X233136Y675208D01*
X233118Y675160D01*
X233115Y675088D01*
X233102Y675017D01*
X233109Y674966D01*
X233107Y674914D01*
X233127Y674845D01*
X233138Y674774D01*
X233161Y674728D01*
X233176Y674678D01*
X233217Y674619D01*
X233249Y674555D01*
X233286Y674518D01*
X233316Y674476D01*
X233373Y674433D01*
X233425Y674383D01*
X233487Y674348D01*
X233513Y674329D01*
X233536Y674322D01*
X233572Y674302D01*
X236284Y673178D01*
X238838Y670624D01*
X240221Y667286D01*
X240221Y663674D01*
X238838Y660336D01*
X236284Y657782D01*
X232946Y656399D01*
X229334Y656399D01*
X225996Y657782D01*
X223442Y660336D01*
X222059Y663674D01*
X222059Y667286D01*
X223442Y670624D01*
X225020Y672202D01*
X225032Y672219D01*
X225048Y672231D01*
X225103Y672318D01*
X225164Y672402D01*
X225170Y672421D01*
X225181Y672438D01*
X225206Y672538D01*
X225236Y672637D01*
X225236Y672657D01*
X225241Y672677D01*
X225233Y672780D01*
X225230Y672883D01*
X225223Y672902D01*
X225221Y672922D01*
X225181Y673017D01*
X225145Y673114D01*
X225133Y673130D01*
X225125Y673148D01*
X225020Y673279D01*
X224915Y673384D01*
X224841Y673438D01*
X224772Y673497D01*
X224741Y673509D01*
X224715Y673528D01*
X224628Y673555D01*
X224543Y673589D01*
X224502Y673593D01*
X224480Y673600D01*
X224448Y673599D01*
X224377Y673607D01*
X179483Y673607D01*
X179393Y673593D01*
X179302Y673585D01*
X179273Y673573D01*
X179241Y673568D01*
X179160Y673525D01*
X179076Y673489D01*
X179044Y673463D01*
X179023Y673452D01*
X179001Y673429D01*
X178945Y673384D01*
X173706Y668145D01*
X173653Y668071D01*
X173593Y668002D01*
X173581Y667971D01*
X173562Y667945D01*
X173535Y667858D01*
X173501Y667773D01*
X173497Y667732D01*
X173490Y667710D01*
X173491Y667678D01*
X173483Y667607D01*
X173483Y645831D01*
X171325Y643674D01*
X167254Y639602D01*
X167212Y639544D01*
X167162Y639492D01*
X167140Y639445D01*
X167110Y639403D01*
X167089Y639334D01*
X167059Y639269D01*
X167053Y639217D01*
X167038Y639167D01*
X167040Y639096D01*
X167032Y639025D01*
X167043Y638974D01*
X167044Y638922D01*
X167069Y638854D01*
X167084Y638784D01*
X167111Y638739D01*
X167128Y638691D01*
X167173Y638635D01*
X167210Y638573D01*
X167250Y638539D01*
X167282Y638499D01*
X167342Y638460D01*
X167397Y638413D01*
X167445Y638394D01*
X167489Y638366D01*
X167559Y638348D01*
X167625Y638321D01*
X167696Y638313D01*
X167728Y638305D01*
X167751Y638307D01*
X167792Y638303D01*
X219808Y638303D01*
X242063Y616048D01*
X242063Y606203D01*
X242065Y606190D01*
X242064Y606180D01*
X242075Y606128D01*
X242077Y606113D01*
X242085Y606022D01*
X242097Y605993D01*
X242102Y605961D01*
X242145Y605880D01*
X242181Y605796D01*
X242207Y605764D01*
X242218Y605743D01*
X242241Y605721D01*
X242286Y605665D01*
X243888Y604062D01*
X243926Y604036D01*
X243957Y604002D01*
X244025Y603964D01*
X244088Y603919D01*
X244132Y603905D01*
X244172Y603883D01*
X244249Y603869D01*
X244323Y603846D01*
X244369Y603848D01*
X244414Y603839D01*
X244491Y603851D01*
X244569Y603853D01*
X244612Y603869D01*
X244658Y603875D01*
X244727Y603911D01*
X244800Y603937D01*
X244836Y603966D01*
X244877Y603987D01*
X244931Y604042D01*
X244992Y604091D01*
X245017Y604130D01*
X245049Y604162D01*
X245115Y604282D01*
X245125Y604298D01*
X245126Y604303D01*
X245130Y604309D01*
X245936Y606256D01*
X248794Y609114D01*
X252529Y610661D01*
X256571Y610661D01*
X260306Y609114D01*
X263164Y606256D01*
X264711Y602521D01*
X264711Y598479D01*
X263164Y594744D01*
X260306Y591886D01*
X256571Y590339D01*
X252529Y590339D01*
X248794Y591886D01*
X245936Y594744D01*
X245115Y596727D01*
X245053Y596827D01*
X244993Y596927D01*
X244989Y596931D01*
X244985Y596936D01*
X244895Y597011D01*
X244806Y597087D01*
X244801Y597089D01*
X244796Y597093D01*
X244687Y597135D01*
X244578Y597179D01*
X244571Y597180D01*
X244566Y597181D01*
X244548Y597182D01*
X244412Y597197D01*
X241412Y597197D01*
X239552Y599057D01*
X239494Y599099D01*
X239442Y599148D01*
X239395Y599170D01*
X239353Y599201D01*
X239284Y599222D01*
X239219Y599252D01*
X239167Y599258D01*
X239117Y599273D01*
X239046Y599271D01*
X238975Y599279D01*
X238924Y599268D01*
X238872Y599267D01*
X238804Y599242D01*
X238734Y599227D01*
X238689Y599200D01*
X238641Y599182D01*
X238585Y599137D01*
X238523Y599100D01*
X238489Y599061D01*
X238449Y599028D01*
X238410Y598968D01*
X238363Y598914D01*
X238344Y598865D01*
X238316Y598821D01*
X238298Y598752D01*
X238271Y598685D01*
X238263Y598614D01*
X238255Y598583D01*
X238257Y598560D01*
X238253Y598519D01*
X238253Y559213D01*
X238267Y559123D01*
X238275Y559032D01*
X238287Y559003D01*
X238292Y558971D01*
X238335Y558890D01*
X238371Y558806D01*
X238397Y558774D01*
X238408Y558753D01*
X238431Y558731D01*
X238476Y558675D01*
X243888Y553262D01*
X243926Y553236D01*
X243957Y553202D01*
X244025Y553164D01*
X244088Y553119D01*
X244132Y553105D01*
X244172Y553083D01*
X244249Y553069D01*
X244323Y553046D01*
X244369Y553048D01*
X244414Y553039D01*
X244491Y553051D01*
X244569Y553053D01*
X244612Y553069D01*
X244658Y553075D01*
X244727Y553111D01*
X244800Y553137D01*
X244836Y553166D01*
X244877Y553187D01*
X244931Y553242D01*
X244992Y553291D01*
X245017Y553330D01*
X245049Y553362D01*
X245115Y553482D01*
X245125Y553498D01*
X245126Y553503D01*
X245130Y553509D01*
X245936Y555456D01*
X248794Y558314D01*
X252529Y559861D01*
X256571Y559861D01*
X260306Y558314D01*
X263164Y555456D01*
X264711Y551721D01*
X264711Y547679D01*
X263164Y543944D01*
X260306Y541086D01*
X256571Y539539D01*
X252529Y539539D01*
X248794Y541086D01*
X245936Y543944D01*
X245115Y545927D01*
X245053Y546027D01*
X244993Y546127D01*
X244988Y546131D01*
X244985Y546136D01*
X244896Y546211D01*
X244806Y546287D01*
X244800Y546289D01*
X244796Y546293D01*
X244688Y546335D01*
X244578Y546379D01*
X244571Y546380D01*
X244566Y546381D01*
X244548Y546382D01*
X244411Y546397D01*
X241412Y546397D01*
X235742Y552067D01*
X235684Y552109D01*
X235632Y552158D01*
X235585Y552180D01*
X235543Y552211D01*
X235474Y552232D01*
X235409Y552262D01*
X235357Y552268D01*
X235307Y552283D01*
X235236Y552281D01*
X235165Y552289D01*
X235114Y552278D01*
X235062Y552277D01*
X234994Y552252D01*
X234924Y552237D01*
X234879Y552210D01*
X234831Y552192D01*
X234775Y552147D01*
X234713Y552110D01*
X234679Y552071D01*
X234639Y552038D01*
X234600Y551978D01*
X234553Y551924D01*
X234534Y551875D01*
X234506Y551831D01*
X234488Y551762D01*
X234461Y551695D01*
X234453Y551624D01*
X234445Y551593D01*
X234447Y551570D01*
X234443Y551529D01*
X234443Y523993D01*
X234445Y523978D01*
X234444Y523965D01*
X234458Y523901D01*
X234465Y523812D01*
X234477Y523783D01*
X234482Y523751D01*
X234496Y523725D01*
X234498Y523722D01*
X234525Y523670D01*
X234561Y523586D01*
X234587Y523554D01*
X234598Y523533D01*
X234621Y523511D01*
X234666Y523455D01*
X249716Y508404D01*
X249810Y508337D01*
X249905Y508266D01*
X249911Y508264D01*
X249916Y508261D01*
X250027Y508227D01*
X250139Y508190D01*
X250145Y508190D01*
X250151Y508188D01*
X250268Y508192D01*
X250385Y508193D01*
X250392Y508195D01*
X250397Y508195D01*
X250414Y508201D01*
X250546Y508239D01*
X252529Y509061D01*
X256571Y509061D01*
X260306Y507514D01*
X263164Y504656D01*
X264711Y500921D01*
X264711Y496879D01*
X263164Y493144D01*
X260306Y490286D01*
X256571Y488739D01*
X252529Y488739D01*
X248794Y490286D01*
X245936Y493144D01*
X244389Y496879D01*
X244389Y500921D01*
X245211Y502904D01*
X245237Y503018D01*
X245266Y503131D01*
X245265Y503137D01*
X245267Y503144D01*
X245256Y503260D01*
X245247Y503376D01*
X245244Y503382D01*
X245244Y503388D01*
X245196Y503495D01*
X245150Y503603D01*
X245146Y503609D01*
X245144Y503613D01*
X245131Y503627D01*
X245046Y503734D01*
X231932Y516847D01*
X231874Y516889D01*
X231822Y516938D01*
X231775Y516960D01*
X231733Y516991D01*
X231664Y517012D01*
X231599Y517042D01*
X231547Y517048D01*
X231497Y517063D01*
X231426Y517061D01*
X231355Y517069D01*
X231304Y517058D01*
X231252Y517057D01*
X231184Y517032D01*
X231114Y517017D01*
X231070Y516990D01*
X231021Y516972D01*
X230965Y516927D01*
X230903Y516890D01*
X230869Y516851D01*
X230829Y516818D01*
X230790Y516758D01*
X230743Y516704D01*
X230724Y516655D01*
X230696Y516611D01*
X230678Y516542D01*
X230651Y516475D01*
X230643Y516404D01*
X230635Y516373D01*
X230637Y516350D01*
X230633Y516309D01*
X230633Y477003D01*
X230647Y476913D01*
X230655Y476822D01*
X230667Y476793D01*
X230672Y476761D01*
X230715Y476680D01*
X230751Y476596D01*
X230777Y476564D01*
X230788Y476543D01*
X230811Y476521D01*
X230856Y476465D01*
X249716Y457604D01*
X249810Y457537D01*
X249905Y457466D01*
X249911Y457464D01*
X249916Y457461D01*
X250027Y457427D01*
X250139Y457390D01*
X250145Y457390D01*
X250151Y457388D01*
X250268Y457392D01*
X250385Y457393D01*
X250392Y457395D01*
X250397Y457395D01*
X250415Y457401D01*
X250546Y457439D01*
X252529Y458261D01*
X256571Y458261D01*
X260306Y456714D01*
X263164Y453856D01*
X264711Y450121D01*
X264711Y446079D01*
X263164Y442344D01*
X260306Y439486D01*
X256571Y437939D01*
X252529Y437939D01*
X248794Y439486D01*
X245936Y442344D01*
X244389Y446079D01*
X244389Y450121D01*
X245211Y452104D01*
X245237Y452218D01*
X245266Y452331D01*
X245265Y452337D01*
X245267Y452343D01*
X245256Y452460D01*
X245247Y452576D01*
X245244Y452582D01*
X245244Y452588D01*
X245196Y452696D01*
X245150Y452803D01*
X245146Y452808D01*
X245144Y452813D01*
X245131Y452827D01*
X245046Y452934D01*
X238762Y459217D01*
X238704Y459259D01*
X238652Y459308D01*
X238605Y459330D01*
X238563Y459361D01*
X238494Y459382D01*
X238429Y459412D01*
X238377Y459418D01*
X238327Y459433D01*
X238256Y459431D01*
X238185Y459439D01*
X238134Y459428D01*
X238082Y459427D01*
X238014Y459402D01*
X237944Y459387D01*
X237899Y459360D01*
X237851Y459342D01*
X237795Y459297D01*
X237733Y459260D01*
X237699Y459221D01*
X237659Y459188D01*
X237620Y459128D01*
X237573Y459074D01*
X237554Y459025D01*
X237526Y458981D01*
X237508Y458912D01*
X237481Y458845D01*
X237473Y458774D01*
X237465Y458743D01*
X237467Y458720D01*
X237463Y458679D01*
X237463Y457537D01*
X236500Y455213D01*
X234722Y453434D01*
X232398Y452472D01*
X229882Y452472D01*
X227875Y453303D01*
X227831Y453313D01*
X227789Y453333D01*
X227712Y453341D01*
X227636Y453359D01*
X227590Y453355D01*
X227545Y453360D01*
X227468Y453343D01*
X227391Y453336D01*
X227349Y453317D01*
X227304Y453308D01*
X227237Y453268D01*
X227166Y453236D01*
X227132Y453205D01*
X227093Y453181D01*
X227042Y453122D01*
X226985Y453070D01*
X226963Y453029D01*
X226933Y452994D01*
X226904Y452922D01*
X226867Y452854D01*
X226858Y452809D01*
X226841Y452766D01*
X226826Y452630D01*
X226823Y452612D01*
X226824Y452607D01*
X226823Y452600D01*
X226823Y417675D01*
X226830Y417629D01*
X226828Y417584D01*
X226850Y417509D01*
X226862Y417432D01*
X226884Y417391D01*
X226897Y417347D01*
X226941Y417283D01*
X226978Y417215D01*
X227011Y417183D01*
X227037Y417145D01*
X227100Y417099D01*
X227156Y417045D01*
X227198Y417026D01*
X227234Y416998D01*
X227308Y416974D01*
X227379Y416942D01*
X227425Y416937D01*
X227468Y416922D01*
X227546Y416923D01*
X227623Y416914D01*
X227668Y416924D01*
X227714Y416925D01*
X227846Y416963D01*
X227864Y416967D01*
X227868Y416969D01*
X227875Y416971D01*
X229882Y417803D01*
X232398Y417803D01*
X234722Y416840D01*
X236500Y415062D01*
X237463Y412738D01*
X237463Y410222D01*
X236500Y407898D01*
X234722Y406120D01*
X233150Y405469D01*
X233111Y405445D01*
X233068Y405429D01*
X233007Y405380D01*
X232941Y405339D01*
X232912Y405304D01*
X232876Y405275D01*
X232834Y405210D01*
X232784Y405150D01*
X232768Y405107D01*
X232743Y405068D01*
X232724Y404993D01*
X232696Y404920D01*
X232694Y404874D01*
X232683Y404830D01*
X232689Y404752D01*
X232686Y404675D01*
X232699Y404630D01*
X232702Y404585D01*
X232733Y404513D01*
X232754Y404438D01*
X232781Y404401D01*
X232799Y404358D01*
X232884Y404252D01*
X232895Y404236D01*
X232899Y404233D01*
X232903Y404227D01*
X236305Y400826D01*
X236379Y400773D01*
X236448Y400713D01*
X236479Y400701D01*
X236505Y400682D01*
X236592Y400655D01*
X236677Y400621D01*
X236718Y400617D01*
X236740Y400610D01*
X236772Y400611D01*
X236843Y400603D01*
X244411Y400603D01*
X244526Y400622D01*
X244642Y400639D01*
X244648Y400641D01*
X244654Y400642D01*
X244757Y400697D01*
X244862Y400750D01*
X244866Y400755D01*
X244872Y400758D01*
X244951Y400842D01*
X245034Y400926D01*
X245038Y400932D01*
X245041Y400936D01*
X245049Y400953D01*
X245115Y401073D01*
X245936Y403056D01*
X248794Y405914D01*
X252529Y407461D01*
X256571Y407461D01*
X260306Y405914D01*
X263164Y403056D01*
X264711Y399321D01*
X264711Y395279D01*
X263164Y391544D01*
X260306Y388686D01*
X256571Y387139D01*
X252529Y387139D01*
X248794Y388686D01*
X245936Y391544D01*
X245115Y393527D01*
X245053Y393627D01*
X244993Y393727D01*
X244988Y393731D01*
X244985Y393736D01*
X244896Y393811D01*
X244806Y393887D01*
X244800Y393889D01*
X244796Y393893D01*
X244688Y393935D01*
X244578Y393979D01*
X244571Y393980D01*
X244566Y393981D01*
X244548Y393982D01*
X244411Y393997D01*
X237351Y393997D01*
X237281Y393986D01*
X237209Y393984D01*
X237160Y393966D01*
X237109Y393958D01*
X237045Y393924D01*
X236978Y393899D01*
X236937Y393867D01*
X236891Y393842D01*
X236842Y393790D01*
X236786Y393746D01*
X236758Y393702D01*
X236722Y393664D01*
X236692Y393599D01*
X236653Y393539D01*
X236640Y393488D01*
X236618Y393441D01*
X236610Y393370D01*
X236593Y393300D01*
X236597Y393248D01*
X236591Y393197D01*
X236606Y393126D01*
X236612Y393055D01*
X236632Y393007D01*
X236643Y392956D01*
X236680Y392895D01*
X236708Y392829D01*
X236753Y392773D01*
X236770Y392745D01*
X236787Y392730D01*
X236813Y392698D01*
X239523Y389988D01*
X239523Y354743D01*
X239537Y354653D01*
X239545Y354562D01*
X239557Y354533D01*
X239562Y354501D01*
X239605Y354420D01*
X239641Y354336D01*
X239667Y354304D01*
X239678Y354283D01*
X239701Y354261D01*
X239746Y354205D01*
X243888Y350062D01*
X243926Y350036D01*
X243957Y350002D01*
X244025Y349964D01*
X244088Y349919D01*
X244132Y349905D01*
X244172Y349883D01*
X244249Y349869D01*
X244323Y349846D01*
X244369Y349848D01*
X244414Y349839D01*
X244491Y349851D01*
X244569Y349853D01*
X244612Y349869D01*
X244658Y349875D01*
X244727Y349911D01*
X244800Y349937D01*
X244836Y349966D01*
X244877Y349987D01*
X244931Y350042D01*
X244992Y350091D01*
X245017Y350130D01*
X245049Y350162D01*
X245115Y350282D01*
X245125Y350298D01*
X245126Y350303D01*
X245130Y350309D01*
X245936Y352256D01*
X248794Y355114D01*
X252529Y356661D01*
X256571Y356661D01*
X260306Y355114D01*
X263164Y352256D01*
X264711Y348521D01*
X264711Y344479D01*
X263164Y340744D01*
X260306Y337886D01*
X256571Y336339D01*
X252529Y336339D01*
X248794Y337886D01*
X245936Y340744D01*
X245115Y342727D01*
X245053Y342827D01*
X244993Y342927D01*
X244988Y342931D01*
X244985Y342936D01*
X244896Y343011D01*
X244806Y343087D01*
X244800Y343089D01*
X244796Y343093D01*
X244688Y343135D01*
X244578Y343179D01*
X244571Y343180D01*
X244566Y343181D01*
X244548Y343182D01*
X244411Y343197D01*
X241412Y343197D01*
X232917Y351692D01*
X232917Y386937D01*
X232903Y387027D01*
X232895Y387118D01*
X232883Y387147D01*
X232878Y387179D01*
X232835Y387260D01*
X232799Y387344D01*
X232773Y387376D01*
X232762Y387397D01*
X232739Y387419D01*
X232694Y387475D01*
X218978Y401191D01*
X218962Y401203D01*
X218950Y401218D01*
X218862Y401274D01*
X218779Y401334D01*
X218760Y401340D01*
X218743Y401351D01*
X218642Y401376D01*
X218543Y401407D01*
X218524Y401406D01*
X218504Y401411D01*
X218401Y401403D01*
X218298Y401400D01*
X218279Y401394D01*
X218259Y401392D01*
X218164Y401352D01*
X218067Y401316D01*
X218051Y401304D01*
X218033Y401296D01*
X217902Y401191D01*
X214346Y397635D01*
X212188Y395477D01*
X203359Y395477D01*
X203269Y395463D01*
X203178Y395455D01*
X203149Y395443D01*
X203117Y395438D01*
X203036Y395395D01*
X202952Y395359D01*
X202920Y395333D01*
X202899Y395322D01*
X202877Y395299D01*
X202821Y395254D01*
X199106Y391539D01*
X199053Y391465D01*
X198993Y391396D01*
X198981Y391365D01*
X198962Y391339D01*
X198935Y391252D01*
X198901Y391167D01*
X198897Y391126D01*
X198890Y391104D01*
X198891Y391072D01*
X198883Y391001D01*
X198883Y349663D01*
X198885Y349650D01*
X198884Y349639D01*
X198896Y349583D01*
X198897Y349573D01*
X198905Y349482D01*
X198917Y349453D01*
X198922Y349421D01*
X198965Y349340D01*
X199001Y349256D01*
X199027Y349224D01*
X199038Y349203D01*
X199061Y349181D01*
X199106Y349125D01*
X201805Y346426D01*
X201879Y346373D01*
X201948Y346313D01*
X201979Y346301D01*
X202005Y346282D01*
X202092Y346255D01*
X202177Y346221D01*
X202218Y346217D01*
X202240Y346210D01*
X202272Y346211D01*
X202343Y346203D01*
X209090Y346203D01*
X209161Y346214D01*
X209232Y346216D01*
X209281Y346234D01*
X209333Y346242D01*
X209396Y346276D01*
X209463Y346301D01*
X209504Y346333D01*
X209550Y346358D01*
X209599Y346410D01*
X209655Y346454D01*
X209684Y346498D01*
X209720Y346536D01*
X209750Y346601D01*
X209788Y346661D01*
X209801Y346712D01*
X209823Y346759D01*
X209831Y346830D01*
X209849Y346900D01*
X209844Y346952D01*
X209850Y347003D01*
X209835Y347074D01*
X209829Y347145D01*
X209809Y347193D01*
X209798Y347244D01*
X209761Y347305D01*
X209733Y347371D01*
X209688Y347427D01*
X209672Y347455D01*
X209654Y347470D01*
X209628Y347502D01*
X207286Y349844D01*
X205739Y353579D01*
X205739Y357621D01*
X207286Y361356D01*
X210144Y364214D01*
X213879Y365761D01*
X217921Y365761D01*
X221656Y364214D01*
X224514Y361356D01*
X226061Y357621D01*
X226061Y353579D01*
X224514Y349844D01*
X222172Y347502D01*
X222130Y347444D01*
X222080Y347392D01*
X222059Y347345D01*
X222028Y347303D01*
X222007Y347234D01*
X221977Y347169D01*
X221971Y347117D01*
X221956Y347067D01*
X221958Y346996D01*
X221950Y346925D01*
X221961Y346874D01*
X221962Y346822D01*
X221987Y346754D01*
X222002Y346684D01*
X222029Y346639D01*
X222047Y346591D01*
X222091Y346535D01*
X222128Y346473D01*
X222168Y346439D01*
X222200Y346399D01*
X222261Y346360D01*
X222315Y346313D01*
X222363Y346294D01*
X222407Y346266D01*
X222477Y346248D01*
X222543Y346221D01*
X222615Y346213D01*
X222646Y346205D01*
X222669Y346207D01*
X222710Y346203D01*
X229968Y346203D01*
X236983Y339188D01*
X236983Y314103D01*
X236997Y314013D01*
X237005Y313922D01*
X237017Y313893D01*
X237022Y313861D01*
X237065Y313780D01*
X237101Y313696D01*
X237127Y313664D01*
X237138Y313643D01*
X237161Y313621D01*
X237206Y313565D01*
X237365Y313406D01*
X237439Y313353D01*
X237508Y313293D01*
X237539Y313281D01*
X237565Y313262D01*
X237652Y313235D01*
X237737Y313201D01*
X237777Y313197D01*
X237800Y313190D01*
X237832Y313191D01*
X237903Y313183D01*
X246260Y313183D01*
X246331Y313194D01*
X246402Y313196D01*
X246451Y313214D01*
X246503Y313222D01*
X246566Y313256D01*
X246633Y313281D01*
X246674Y313313D01*
X246720Y313338D01*
X246769Y313390D01*
X246825Y313434D01*
X246854Y313478D01*
X246890Y313516D01*
X246920Y313581D01*
X246958Y313641D01*
X246971Y313692D01*
X246993Y313739D01*
X247001Y313810D01*
X247019Y313880D01*
X247014Y313932D01*
X247020Y313983D01*
X247005Y314054D01*
X246999Y314125D01*
X246979Y314173D01*
X246968Y314224D01*
X246931Y314285D01*
X246903Y314351D01*
X246858Y314407D01*
X246842Y314435D01*
X246824Y314450D01*
X246798Y314482D01*
X245936Y315344D01*
X244389Y319079D01*
X244389Y323121D01*
X245936Y326856D01*
X248794Y329714D01*
X252529Y331261D01*
X256571Y331261D01*
X260306Y329714D01*
X263164Y326856D01*
X264711Y323121D01*
X264711Y319079D01*
X263164Y315344D01*
X260306Y312486D01*
X256776Y311024D01*
X256737Y311000D01*
X256694Y310984D01*
X256633Y310935D01*
X256567Y310895D01*
X256538Y310859D01*
X256502Y310830D01*
X256460Y310765D01*
X256410Y310705D01*
X256394Y310662D01*
X256369Y310624D01*
X256350Y310548D01*
X256322Y310475D01*
X256320Y310430D01*
X256309Y310385D01*
X256315Y310308D01*
X256311Y310230D01*
X256324Y310186D01*
X256328Y310140D01*
X256358Y310068D01*
X256380Y309993D01*
X256406Y309956D01*
X256424Y309914D01*
X256510Y309807D01*
X256520Y309791D01*
X256524Y309788D01*
X256529Y309783D01*
X257853Y308459D01*
X257853Y305839D01*
X257872Y305724D01*
X257889Y305608D01*
X257891Y305602D01*
X257892Y305596D01*
X257947Y305493D01*
X258000Y305388D01*
X258005Y305384D01*
X258008Y305378D01*
X258092Y305299D01*
X258176Y305216D01*
X258182Y305212D01*
X258186Y305209D01*
X258203Y305201D01*
X258323Y305135D01*
X260306Y304314D01*
X263164Y301456D01*
X264711Y297721D01*
X264711Y293679D01*
X263164Y289944D01*
X260306Y287086D01*
X256571Y285539D01*
X252529Y285539D01*
X248794Y287086D01*
X245936Y289944D01*
X244389Y293679D01*
X244389Y297721D01*
X245936Y301456D01*
X248794Y304314D01*
X250473Y305009D01*
X250512Y305033D01*
X250555Y305049D01*
X250615Y305097D01*
X250682Y305139D01*
X250711Y305174D01*
X250747Y305203D01*
X250789Y305268D01*
X250838Y305328D01*
X250855Y305371D01*
X250880Y305409D01*
X250899Y305485D01*
X250927Y305558D01*
X250929Y305603D01*
X250940Y305648D01*
X250934Y305726D01*
X250937Y305803D01*
X250924Y305848D01*
X250921Y305893D01*
X250890Y305965D01*
X250868Y306040D01*
X250842Y306077D01*
X250824Y306120D01*
X250739Y306226D01*
X250728Y306242D01*
X250724Y306245D01*
X250719Y306251D01*
X250616Y306354D01*
X250542Y306407D01*
X250472Y306467D01*
X250442Y306479D01*
X250416Y306498D01*
X250329Y306525D01*
X250244Y306559D01*
X250203Y306563D01*
X250181Y306570D01*
X250149Y306569D01*
X250077Y306577D01*
X234852Y306577D01*
X232694Y308735D01*
X232535Y308894D01*
X230377Y311052D01*
X230377Y336137D01*
X230363Y336227D01*
X230355Y336318D01*
X230343Y336347D01*
X230338Y336379D01*
X230295Y336460D01*
X230259Y336544D01*
X230233Y336576D01*
X230222Y336597D01*
X230199Y336619D01*
X230154Y336675D01*
X227455Y339374D01*
X227381Y339427D01*
X227312Y339487D01*
X227281Y339499D01*
X227255Y339518D01*
X227168Y339545D01*
X227083Y339579D01*
X227042Y339583D01*
X227020Y339590D01*
X226988Y339589D01*
X226917Y339597D01*
X222710Y339597D01*
X222639Y339586D01*
X222568Y339584D01*
X222519Y339566D01*
X222467Y339558D01*
X222404Y339524D01*
X222337Y339499D01*
X222296Y339467D01*
X222250Y339442D01*
X222201Y339390D01*
X222145Y339346D01*
X222116Y339302D01*
X222080Y339264D01*
X222050Y339199D01*
X222012Y339139D01*
X221999Y339088D01*
X221977Y339041D01*
X221969Y338970D01*
X221951Y338900D01*
X221956Y338848D01*
X221950Y338797D01*
X221965Y338726D01*
X221971Y338655D01*
X221991Y338607D01*
X222002Y338556D01*
X222039Y338495D01*
X222067Y338429D01*
X222112Y338373D01*
X222128Y338345D01*
X222146Y338330D01*
X222172Y338298D01*
X224514Y335956D01*
X226061Y332221D01*
X226061Y328179D01*
X224514Y324444D01*
X221656Y321586D01*
X217921Y320039D01*
X213879Y320039D01*
X210144Y321586D01*
X207286Y324444D01*
X205739Y328179D01*
X205739Y332221D01*
X207286Y335956D01*
X209628Y338298D01*
X209670Y338356D01*
X209720Y338408D01*
X209741Y338455D01*
X209772Y338497D01*
X209793Y338566D01*
X209823Y338631D01*
X209829Y338683D01*
X209844Y338733D01*
X209842Y338804D01*
X209850Y338875D01*
X209839Y338926D01*
X209838Y338978D01*
X209813Y339046D01*
X209798Y339116D01*
X209771Y339161D01*
X209753Y339209D01*
X209709Y339265D01*
X209672Y339327D01*
X209632Y339361D01*
X209600Y339401D01*
X209539Y339440D01*
X209485Y339487D01*
X209437Y339506D01*
X209393Y339534D01*
X209323Y339552D01*
X209257Y339579D01*
X209185Y339587D01*
X209154Y339595D01*
X209131Y339593D01*
X209090Y339597D01*
X199292Y339597D01*
X196372Y342517D01*
X196314Y342559D01*
X196262Y342608D01*
X196215Y342630D01*
X196173Y342661D01*
X196104Y342682D01*
X196039Y342712D01*
X195987Y342718D01*
X195937Y342733D01*
X195866Y342731D01*
X195795Y342739D01*
X195744Y342728D01*
X195692Y342727D01*
X195624Y342702D01*
X195554Y342687D01*
X195509Y342660D01*
X195461Y342642D01*
X195405Y342597D01*
X195343Y342560D01*
X195309Y342521D01*
X195269Y342488D01*
X195230Y342428D01*
X195183Y342374D01*
X195164Y342325D01*
X195136Y342281D01*
X195118Y342212D01*
X195091Y342145D01*
X195083Y342074D01*
X195075Y342043D01*
X195077Y342020D01*
X195073Y341979D01*
X195073Y322692D01*
X195084Y322622D01*
X195086Y322550D01*
X195104Y322501D01*
X195112Y322449D01*
X195146Y322386D01*
X195171Y322319D01*
X195203Y322278D01*
X195228Y322232D01*
X195280Y322183D01*
X195324Y322127D01*
X195368Y322099D01*
X195406Y322063D01*
X195471Y322033D01*
X195531Y321994D01*
X195582Y321981D01*
X195629Y321959D01*
X195700Y321951D01*
X195770Y321934D01*
X195822Y321938D01*
X195873Y321932D01*
X195944Y321947D01*
X196015Y321953D01*
X196063Y321973D01*
X196114Y321984D01*
X196175Y322021D01*
X196241Y322049D01*
X196297Y322094D01*
X196325Y322110D01*
X196340Y322128D01*
X196372Y322154D01*
X197078Y322860D01*
X199402Y323823D01*
X201918Y323823D01*
X204242Y322860D01*
X206020Y321082D01*
X206983Y318758D01*
X206983Y316242D01*
X206020Y313918D01*
X204242Y312140D01*
X201893Y311167D01*
X201793Y311105D01*
X201693Y311045D01*
X201689Y311041D01*
X201684Y311037D01*
X201609Y310947D01*
X201533Y310858D01*
X201531Y310853D01*
X201527Y310848D01*
X201485Y310739D01*
X201441Y310630D01*
X201440Y310623D01*
X201439Y310618D01*
X201438Y310600D01*
X201423Y310464D01*
X201423Y278543D01*
X201437Y278453D01*
X201445Y278362D01*
X201457Y278333D01*
X201462Y278301D01*
X201505Y278220D01*
X201541Y278136D01*
X201567Y278104D01*
X201578Y278083D01*
X201601Y278061D01*
X201646Y278005D01*
X202313Y277338D01*
X202387Y277285D01*
X202456Y277225D01*
X202487Y277213D01*
X202513Y277194D01*
X202600Y277167D01*
X202685Y277133D01*
X202726Y277129D01*
X202748Y277122D01*
X202780Y277123D01*
X202851Y277115D01*
X227726Y277115D01*
X227816Y277129D01*
X227907Y277137D01*
X227937Y277149D01*
X227968Y277154D01*
X228049Y277197D01*
X228133Y277233D01*
X228165Y277259D01*
X228186Y277270D01*
X228208Y277293D01*
X228264Y277338D01*
X230098Y279172D01*
X232422Y280135D01*
X234938Y280135D01*
X237262Y279172D01*
X239040Y277394D01*
X240003Y275070D01*
X240003Y272554D01*
X239040Y270230D01*
X237206Y268396D01*
X237153Y268322D01*
X237093Y268253D01*
X237081Y268223D01*
X237062Y268196D01*
X237035Y268109D01*
X237001Y268024D01*
X236997Y267984D01*
X236990Y267961D01*
X236991Y267929D01*
X236983Y267858D01*
X236983Y238561D01*
X236990Y238516D01*
X236988Y238470D01*
X237010Y238395D01*
X237022Y238318D01*
X237044Y238278D01*
X237057Y238234D01*
X237101Y238170D01*
X237138Y238101D01*
X237171Y238069D01*
X237197Y238032D01*
X237259Y237985D01*
X237316Y237932D01*
X237358Y237912D01*
X237394Y237885D01*
X237468Y237861D01*
X237539Y237828D01*
X237585Y237823D01*
X237628Y237809D01*
X237706Y237809D01*
X237783Y237801D01*
X237828Y237811D01*
X237874Y237811D01*
X238006Y237849D01*
X238024Y237853D01*
X238028Y237856D01*
X238035Y237858D01*
X239534Y238479D01*
X242050Y238479D01*
X244374Y237516D01*
X246152Y235738D01*
X247115Y233414D01*
X247115Y230898D01*
X246152Y228574D01*
X244374Y226796D01*
X242050Y225833D01*
X239534Y225833D01*
X238035Y226454D01*
X237991Y226465D01*
X237949Y226484D01*
X237872Y226493D01*
X237796Y226510D01*
X237750Y226506D01*
X237705Y226511D01*
X237628Y226495D01*
X237551Y226487D01*
X237509Y226469D01*
X237464Y226459D01*
X237397Y226419D01*
X237326Y226387D01*
X237292Y226356D01*
X237253Y226333D01*
X237202Y226274D01*
X237145Y226221D01*
X237123Y226181D01*
X237093Y226146D01*
X237064Y226074D01*
X237027Y226005D01*
X237018Y225960D01*
X237001Y225918D01*
X236986Y225782D01*
X236983Y225763D01*
X236984Y225758D01*
X236983Y225751D01*
X236983Y216656D01*
X236993Y216591D01*
X236994Y216526D01*
X237017Y216446D01*
X237022Y216413D01*
X237032Y216396D01*
X237041Y216365D01*
X237463Y215346D01*
X237463Y212830D01*
X236856Y211365D01*
X236845Y211321D01*
X236826Y211279D01*
X236817Y211202D01*
X236800Y211126D01*
X236804Y211080D01*
X236799Y211035D01*
X236815Y210958D01*
X236823Y210881D01*
X236841Y210839D01*
X236851Y210794D01*
X236891Y210727D01*
X236923Y210656D01*
X236954Y210622D01*
X236977Y210583D01*
X237036Y210532D01*
X237089Y210475D01*
X237129Y210453D01*
X237164Y210423D01*
X237236Y210394D01*
X237305Y210357D01*
X237350Y210348D01*
X237392Y210331D01*
X237528Y210316D01*
X237547Y210313D01*
X237552Y210314D01*
X237559Y210313D01*
X243008Y210313D01*
X245166Y208155D01*
X249716Y203604D01*
X249811Y203537D01*
X249905Y203466D01*
X249911Y203464D01*
X249916Y203461D01*
X250027Y203427D01*
X250139Y203390D01*
X250145Y203390D01*
X250151Y203388D01*
X250268Y203392D01*
X250385Y203393D01*
X250392Y203395D01*
X250397Y203395D01*
X250414Y203401D01*
X250546Y203439D01*
X252529Y204261D01*
X256571Y204261D01*
X260306Y202714D01*
X263164Y199856D01*
X264711Y196121D01*
X264711Y192079D01*
X263164Y188344D01*
X260306Y185486D01*
X256571Y183939D01*
X252529Y183939D01*
X248794Y185486D01*
X245936Y188344D01*
X244389Y192079D01*
X244389Y196121D01*
X245211Y198104D01*
X245237Y198218D01*
X245266Y198331D01*
X245265Y198337D01*
X245267Y198344D01*
X245256Y198460D01*
X245247Y198576D01*
X245244Y198582D01*
X245244Y198588D01*
X245196Y198696D01*
X245150Y198803D01*
X245146Y198809D01*
X245144Y198813D01*
X245131Y198827D01*
X245046Y198934D01*
X240495Y203484D01*
X240421Y203537D01*
X240352Y203597D01*
X240321Y203609D01*
X240295Y203628D01*
X240208Y203655D01*
X240123Y203689D01*
X240082Y203693D01*
X240060Y203700D01*
X240028Y203699D01*
X239957Y203707D01*
X225044Y203707D01*
X225024Y203704D01*
X225005Y203706D01*
X224903Y203684D01*
X224801Y203668D01*
X224784Y203658D01*
X224764Y203654D01*
X224675Y203601D01*
X224584Y203552D01*
X224570Y203538D01*
X224553Y203528D01*
X224486Y203449D01*
X224414Y203374D01*
X224406Y203356D01*
X224393Y203341D01*
X224354Y203245D01*
X224311Y203151D01*
X224309Y203131D01*
X224301Y203113D01*
X224283Y202946D01*
X224283Y138332D01*
X217366Y131415D01*
X217313Y131341D01*
X217253Y131272D01*
X217241Y131241D01*
X217222Y131215D01*
X217195Y131128D01*
X217161Y131043D01*
X217157Y131002D01*
X217150Y130980D01*
X217151Y130948D01*
X217143Y130877D01*
X217143Y128282D01*
X216180Y125958D01*
X214402Y124180D01*
X212078Y123217D01*
X209562Y123217D01*
X207238Y124180D01*
X205460Y125958D01*
X204497Y128282D01*
X204497Y130798D01*
X205460Y133122D01*
X207238Y134900D01*
X209562Y135863D01*
X212157Y135863D01*
X212247Y135877D01*
X212338Y135885D01*
X212367Y135897D01*
X212399Y135902D01*
X212480Y135945D01*
X212564Y135981D01*
X212596Y136007D01*
X212617Y136018D01*
X212639Y136041D01*
X212695Y136086D01*
X217454Y140845D01*
X217507Y140919D01*
X217567Y140988D01*
X217579Y141019D01*
X217598Y141045D01*
X217625Y141132D01*
X217659Y141217D01*
X217663Y141258D01*
X217670Y141280D01*
X217669Y141312D01*
X217677Y141383D01*
X217677Y153299D01*
X217676Y153309D01*
X217676Y153315D01*
X217670Y153345D01*
X217672Y153390D01*
X217650Y153465D01*
X217638Y153542D01*
X217616Y153583D01*
X217603Y153627D01*
X217559Y153691D01*
X217522Y153759D01*
X217489Y153791D01*
X217463Y153829D01*
X217401Y153875D01*
X217344Y153929D01*
X217302Y153948D01*
X217266Y153975D01*
X217192Y154000D01*
X217121Y154032D01*
X217075Y154037D01*
X217032Y154052D01*
X216954Y154051D01*
X216877Y154059D01*
X216832Y154050D01*
X216786Y154049D01*
X216655Y154011D01*
X216636Y154007D01*
X216632Y154005D01*
X216625Y154003D01*
X215888Y153697D01*
X213372Y153697D01*
X211048Y154660D01*
X209270Y156438D01*
X208307Y158762D01*
X208307Y161278D01*
X209270Y163602D01*
X211048Y165380D01*
X213372Y166343D01*
X215888Y166343D01*
X216625Y166037D01*
X216669Y166027D01*
X216711Y166008D01*
X216788Y165999D01*
X216864Y165981D01*
X216910Y165986D01*
X216955Y165981D01*
X217032Y165997D01*
X217109Y166004D01*
X217151Y166023D01*
X217196Y166033D01*
X217263Y166073D01*
X217334Y166104D01*
X217368Y166135D01*
X217407Y166159D01*
X217458Y166218D01*
X217515Y166271D01*
X217537Y166311D01*
X217567Y166346D01*
X217596Y166418D01*
X217633Y166486D01*
X217642Y166531D01*
X217659Y166574D01*
X217674Y166710D01*
X217677Y166728D01*
X217676Y166733D01*
X217677Y166741D01*
X217677Y202946D01*
X217674Y202966D01*
X217676Y202985D01*
X217654Y203087D01*
X217638Y203189D01*
X217628Y203206D01*
X217624Y203226D01*
X217571Y203315D01*
X217522Y203406D01*
X217508Y203420D01*
X217498Y203437D01*
X217419Y203504D01*
X217344Y203576D01*
X217326Y203584D01*
X217311Y203597D01*
X217215Y203636D01*
X217121Y203679D01*
X217101Y203681D01*
X217083Y203689D01*
X216916Y203707D01*
X189132Y203707D01*
X188752Y204087D01*
X188694Y204129D01*
X188642Y204178D01*
X188595Y204200D01*
X188553Y204231D01*
X188484Y204252D01*
X188419Y204282D01*
X188367Y204288D01*
X188317Y204303D01*
X188246Y204301D01*
X188175Y204309D01*
X188124Y204298D01*
X188072Y204297D01*
X188004Y204272D01*
X187934Y204257D01*
X187889Y204230D01*
X187841Y204212D01*
X187785Y204167D01*
X187723Y204130D01*
X187689Y204091D01*
X187649Y204058D01*
X187610Y203998D01*
X187563Y203944D01*
X187544Y203895D01*
X187516Y203851D01*
X187498Y203782D01*
X187471Y203715D01*
X187463Y203644D01*
X187455Y203613D01*
X187457Y203590D01*
X187453Y203549D01*
X187453Y140113D01*
X187467Y140023D01*
X187475Y139932D01*
X187487Y139903D01*
X187492Y139871D01*
X187535Y139790D01*
X187571Y139706D01*
X187597Y139674D01*
X187608Y139653D01*
X187631Y139631D01*
X187676Y139575D01*
X205825Y121426D01*
X205899Y121373D01*
X205968Y121313D01*
X205999Y121301D01*
X206025Y121282D01*
X206112Y121255D01*
X206197Y121221D01*
X206238Y121217D01*
X206260Y121210D01*
X206292Y121211D01*
X206363Y121203D01*
X244411Y121203D01*
X244526Y121222D01*
X244642Y121239D01*
X244648Y121241D01*
X244654Y121242D01*
X244757Y121297D01*
X244862Y121350D01*
X244866Y121355D01*
X244872Y121358D01*
X244951Y121442D01*
X245034Y121526D01*
X245038Y121532D01*
X245041Y121536D01*
X245049Y121553D01*
X245115Y121673D01*
X245936Y123656D01*
X248794Y126514D01*
X252529Y128061D01*
X256571Y128061D01*
X260306Y126514D01*
X263164Y123656D01*
X264711Y119921D01*
X264711Y115879D01*
X263164Y112144D01*
X260306Y109286D01*
X256571Y107739D01*
X252529Y107739D01*
X248794Y109286D01*
X245936Y112144D01*
X245115Y114127D01*
X245053Y114227D01*
X244993Y114327D01*
X244988Y114331D01*
X244985Y114336D01*
X244896Y114411D01*
X244806Y114487D01*
X244800Y114489D01*
X244796Y114493D01*
X244688Y114535D01*
X244578Y114579D01*
X244571Y114580D01*
X244566Y114581D01*
X244548Y114582D01*
X244411Y114597D01*
X209411Y114597D01*
X209341Y114586D01*
X209269Y114584D01*
X209220Y114566D01*
X209169Y114558D01*
X209105Y114524D01*
X209038Y114499D01*
X208997Y114467D01*
X208951Y114442D01*
X208902Y114390D01*
X208846Y114346D01*
X208818Y114302D01*
X208782Y114264D01*
X208752Y114199D01*
X208713Y114139D01*
X208700Y114088D01*
X208678Y114041D01*
X208670Y113970D01*
X208653Y113900D01*
X208657Y113848D01*
X208651Y113797D01*
X208666Y113726D01*
X208672Y113655D01*
X208692Y113607D01*
X208703Y113556D01*
X208740Y113495D01*
X208768Y113429D01*
X208813Y113373D01*
X208830Y113345D01*
X208847Y113330D01*
X208873Y113298D01*
X226145Y96026D01*
X226219Y95973D01*
X226288Y95913D01*
X226319Y95901D01*
X226345Y95882D01*
X226432Y95855D01*
X226517Y95821D01*
X226558Y95817D01*
X226580Y95810D01*
X226612Y95811D01*
X226683Y95803D01*
X244411Y95803D01*
X244526Y95822D01*
X244642Y95839D01*
X244648Y95841D01*
X244654Y95842D01*
X244757Y95897D01*
X244862Y95950D01*
X244866Y95955D01*
X244872Y95958D01*
X244951Y96042D01*
X245034Y96126D01*
X245038Y96132D01*
X245041Y96136D01*
X245049Y96153D01*
X245115Y96273D01*
X245936Y98256D01*
X248794Y101114D01*
X252529Y102661D01*
X256571Y102661D01*
X260306Y101114D01*
X263164Y98256D01*
X264711Y94521D01*
X264711Y90479D01*
X263164Y86744D01*
X260306Y83886D01*
X256571Y82339D01*
X252529Y82339D01*
X248794Y83886D01*
X245936Y86744D01*
X245115Y88727D01*
X245053Y88827D01*
X244993Y88927D01*
X244988Y88931D01*
X244985Y88936D01*
X244896Y89011D01*
X244806Y89087D01*
X244800Y89089D01*
X244796Y89093D01*
X244688Y89135D01*
X244578Y89179D01*
X244571Y89180D01*
X244566Y89181D01*
X244548Y89182D01*
X244411Y89197D01*
X229731Y89197D01*
X229661Y89186D01*
X229589Y89184D01*
X229540Y89166D01*
X229489Y89158D01*
X229425Y89124D01*
X229358Y89099D01*
X229317Y89067D01*
X229271Y89042D01*
X229222Y88990D01*
X229166Y88946D01*
X229138Y88902D01*
X229102Y88864D01*
X229072Y88799D01*
X229033Y88739D01*
X229020Y88688D01*
X228998Y88641D01*
X228990Y88570D01*
X228973Y88500D01*
X228977Y88448D01*
X228971Y88397D01*
X228986Y88326D01*
X228992Y88255D01*
X229012Y88207D01*
X229023Y88156D01*
X229060Y88095D01*
X229088Y88029D01*
X229133Y87973D01*
X229150Y87945D01*
X229167Y87930D01*
X229193Y87898D01*
X244632Y72458D01*
X244670Y72432D01*
X244701Y72398D01*
X244769Y72360D01*
X244832Y72315D01*
X244876Y72301D01*
X244916Y72279D01*
X244993Y72265D01*
X245067Y72243D01*
X245113Y72244D01*
X245158Y72236D01*
X245235Y72247D01*
X245313Y72249D01*
X245356Y72265D01*
X245402Y72271D01*
X245471Y72307D01*
X245544Y72333D01*
X245580Y72362D01*
X245621Y72383D01*
X245675Y72438D01*
X245736Y72487D01*
X245761Y72526D01*
X245793Y72558D01*
X245859Y72678D01*
X245869Y72694D01*
X245870Y72699D01*
X245874Y72705D01*
X245936Y72856D01*
X248794Y75714D01*
X252529Y77261D01*
X256571Y77261D01*
X260306Y75714D01*
X263164Y72856D01*
X264711Y69121D01*
X264711Y65079D01*
X263164Y61344D01*
X260306Y58486D01*
X256571Y56939D01*
X252529Y56939D01*
X248794Y58486D01*
X245936Y61344D01*
X245115Y63327D01*
X245053Y63427D01*
X244993Y63527D01*
X244988Y63531D01*
X244985Y63536D01*
X244896Y63611D01*
X244806Y63687D01*
X244800Y63689D01*
X244796Y63693D01*
X244688Y63735D01*
X244578Y63779D01*
X244571Y63780D01*
X244566Y63781D01*
X244548Y63782D01*
X244411Y63797D01*
X243952Y63797D01*
X241794Y65955D01*
X234952Y72797D01*
X234894Y72839D01*
X234842Y72888D01*
X234795Y72910D01*
X234753Y72941D01*
X234684Y72962D01*
X234619Y72992D01*
X234567Y72998D01*
X234517Y73013D01*
X234446Y73011D01*
X234375Y73019D01*
X234324Y73008D01*
X234272Y73007D01*
X234204Y72982D01*
X234134Y72967D01*
X234089Y72940D01*
X234041Y72922D01*
X233985Y72877D01*
X233923Y72840D01*
X233889Y72801D01*
X233849Y72768D01*
X233810Y72708D01*
X233763Y72654D01*
X233744Y72605D01*
X233716Y72561D01*
X233698Y72492D01*
X233671Y72425D01*
X233663Y72354D01*
X233655Y72323D01*
X233657Y72300D01*
X233653Y72259D01*
X233653Y69862D01*
X232690Y67538D01*
X230912Y65760D01*
X228588Y64797D01*
X226072Y64797D01*
X223748Y65760D01*
X221970Y67538D01*
X221007Y69862D01*
X221007Y72378D01*
X221970Y74702D01*
X223748Y76480D01*
X226072Y77443D01*
X228469Y77443D01*
X228539Y77454D01*
X228611Y77456D01*
X228660Y77474D01*
X228711Y77482D01*
X228775Y77516D01*
X228842Y77541D01*
X228883Y77573D01*
X228929Y77598D01*
X228978Y77649D01*
X229034Y77694D01*
X229062Y77738D01*
X229098Y77776D01*
X229128Y77841D01*
X229167Y77901D01*
X229180Y77952D01*
X229202Y77999D01*
X229210Y78070D01*
X229227Y78140D01*
X229223Y78192D01*
X229229Y78243D01*
X229214Y78314D01*
X229208Y78385D01*
X229188Y78433D01*
X229177Y78484D01*
X229140Y78545D01*
X229112Y78611D01*
X229067Y78667D01*
X229050Y78695D01*
X229033Y78710D01*
X229007Y78742D01*
X189795Y117954D01*
X189716Y118011D01*
X189641Y118073D01*
X189617Y118082D01*
X189596Y118097D01*
X189503Y118126D01*
X189412Y118161D01*
X189386Y118162D01*
X189361Y118170D01*
X189263Y118167D01*
X189166Y118171D01*
X189141Y118164D01*
X189115Y118163D01*
X189023Y118130D01*
X188930Y118103D01*
X188908Y118088D01*
X188884Y118079D01*
X188808Y118018D01*
X188728Y117963D01*
X188712Y117942D01*
X188692Y117925D01*
X188639Y117843D01*
X188581Y117765D01*
X188573Y117740D01*
X188559Y117718D01*
X188535Y117624D01*
X188505Y117531D01*
X188505Y117505D01*
X188499Y117480D01*
X188506Y117383D01*
X188507Y117285D01*
X188516Y117254D01*
X188518Y117235D01*
X188531Y117204D01*
X188554Y117124D01*
X189203Y115558D01*
X189203Y113042D01*
X188240Y110718D01*
X186462Y108940D01*
X184138Y107977D01*
X181622Y107977D01*
X179298Y108940D01*
X177520Y110718D01*
X177487Y110797D01*
X177436Y110880D01*
X177390Y110966D01*
X177372Y110984D01*
X177358Y111006D01*
X177283Y111068D01*
X177212Y111135D01*
X177188Y111146D01*
X177168Y111163D01*
X177077Y111198D01*
X176989Y111239D01*
X176963Y111242D01*
X176939Y111251D01*
X176841Y111255D01*
X176745Y111266D01*
X176719Y111260D01*
X176693Y111262D01*
X176599Y111234D01*
X176504Y111214D01*
X176482Y111200D01*
X176457Y111193D01*
X176377Y111137D01*
X176293Y111088D01*
X176276Y111068D01*
X176255Y111053D01*
X176196Y110975D01*
X176133Y110901D01*
X176123Y110876D01*
X176108Y110855D01*
X176078Y110763D01*
X176041Y110672D01*
X176038Y110640D01*
X176032Y110622D01*
X176032Y110588D01*
X176023Y110506D01*
X176023Y104168D01*
X176033Y104103D01*
X176034Y104038D01*
X176057Y103958D01*
X176062Y103925D01*
X176072Y103908D01*
X176081Y103877D01*
X176503Y102858D01*
X176503Y100342D01*
X175540Y98018D01*
X173762Y96240D01*
X171438Y95277D01*
X168922Y95277D01*
X166598Y96240D01*
X165653Y97185D01*
X165574Y97242D01*
X165499Y97304D01*
X165475Y97313D01*
X165454Y97328D01*
X165361Y97357D01*
X165270Y97392D01*
X165244Y97393D01*
X165219Y97401D01*
X165121Y97398D01*
X165024Y97402D01*
X164999Y97395D01*
X164973Y97394D01*
X164881Y97361D01*
X164788Y97334D01*
X164766Y97319D01*
X164742Y97310D01*
X164665Y97249D01*
X164586Y97194D01*
X164570Y97173D01*
X164550Y97156D01*
X164497Y97074D01*
X164439Y96996D01*
X164431Y96971D01*
X164417Y96949D01*
X164393Y96855D01*
X164363Y96762D01*
X164363Y96736D01*
X164357Y96711D01*
X164364Y96614D01*
X164365Y96516D01*
X164374Y96485D01*
X164376Y96466D01*
X164389Y96435D01*
X164412Y96355D01*
X164875Y95238D01*
X164875Y92722D01*
X163912Y90398D01*
X162134Y88620D01*
X159810Y87657D01*
X157294Y87657D01*
X154970Y88620D01*
X153192Y90398D01*
X152229Y92722D01*
X152229Y95238D01*
X153192Y97562D01*
X154970Y99340D01*
X157294Y100303D01*
X159810Y100303D01*
X162134Y99340D01*
X163079Y98395D01*
X163158Y98338D01*
X163233Y98276D01*
X163257Y98267D01*
X163278Y98252D01*
X163371Y98223D01*
X163462Y98188D01*
X163488Y98187D01*
X163513Y98179D01*
X163611Y98182D01*
X163708Y98178D01*
X163733Y98185D01*
X163759Y98186D01*
X163851Y98219D01*
X163944Y98246D01*
X163966Y98261D01*
X163990Y98270D01*
X164067Y98331D01*
X164146Y98386D01*
X164162Y98407D01*
X164182Y98424D01*
X164235Y98506D01*
X164293Y98584D01*
X164301Y98609D01*
X164315Y98631D01*
X164339Y98725D01*
X164369Y98818D01*
X164369Y98844D01*
X164375Y98869D01*
X164368Y98966D01*
X164367Y99064D01*
X164358Y99095D01*
X164356Y99114D01*
X164343Y99145D01*
X164320Y99225D01*
X163857Y100342D01*
X163857Y102858D01*
X164820Y105182D01*
X166598Y106960D01*
X168947Y107933D01*
X169047Y107995D01*
X169147Y108055D01*
X169151Y108059D01*
X169156Y108063D01*
X169230Y108152D01*
X169307Y108242D01*
X169309Y108247D01*
X169313Y108252D01*
X169355Y108361D01*
X169399Y108470D01*
X169400Y108477D01*
X169401Y108482D01*
X169402Y108500D01*
X169417Y108636D01*
X169417Y183464D01*
X169398Y183578D01*
X169381Y183695D01*
X169379Y183700D01*
X169378Y183706D01*
X169323Y183809D01*
X169270Y183914D01*
X169265Y183918D01*
X169262Y183924D01*
X169178Y184004D01*
X169094Y184086D01*
X169088Y184090D01*
X169084Y184093D01*
X169067Y184101D01*
X168947Y184167D01*
X166598Y185140D01*
X164820Y186918D01*
X163857Y189242D01*
X163857Y191758D01*
X164820Y194082D01*
X166598Y195860D01*
X168922Y196823D01*
X171438Y196823D01*
X172175Y196517D01*
X172219Y196507D01*
X172261Y196488D01*
X172338Y196479D01*
X172414Y196461D01*
X172460Y196466D01*
X172505Y196461D01*
X172582Y196477D01*
X172659Y196484D01*
X172701Y196503D01*
X172746Y196513D01*
X172813Y196553D01*
X172884Y196584D01*
X172918Y196615D01*
X172957Y196639D01*
X173008Y196698D01*
X173065Y196751D01*
X173087Y196791D01*
X173117Y196826D01*
X173146Y196898D01*
X173183Y196966D01*
X173192Y197011D01*
X173209Y197054D01*
X173224Y197190D01*
X173227Y197208D01*
X173226Y197213D01*
X173227Y197221D01*
X173227Y223233D01*
X173213Y223323D01*
X173205Y223414D01*
X173193Y223444D01*
X173188Y223476D01*
X173145Y223556D01*
X173109Y223640D01*
X173083Y223672D01*
X173072Y223693D01*
X173049Y223715D01*
X173004Y223771D01*
X166897Y229879D01*
X166859Y229906D01*
X166828Y229939D01*
X166760Y229977D01*
X166697Y230022D01*
X166653Y230036D01*
X166613Y230058D01*
X166536Y230072D01*
X166462Y230095D01*
X166416Y230094D01*
X166371Y230102D01*
X166294Y230090D01*
X166216Y230088D01*
X166173Y230073D01*
X166127Y230066D01*
X166058Y230031D01*
X165985Y230004D01*
X165949Y229975D01*
X165908Y229954D01*
X165854Y229899D01*
X165793Y229850D01*
X165768Y229812D01*
X165736Y229779D01*
X165670Y229659D01*
X165660Y229643D01*
X165659Y229638D01*
X165655Y229632D01*
X164845Y227675D01*
X163066Y225897D01*
X160742Y224934D01*
X158227Y224934D01*
X155903Y225897D01*
X155732Y226068D01*
X155674Y226109D01*
X155622Y226159D01*
X155575Y226181D01*
X155533Y226211D01*
X155464Y226232D01*
X155399Y226262D01*
X155347Y226268D01*
X155297Y226283D01*
X155226Y226282D01*
X155155Y226289D01*
X155104Y226278D01*
X155052Y226277D01*
X154984Y226252D01*
X154914Y226237D01*
X154869Y226210D01*
X154821Y226193D01*
X154765Y226148D01*
X154703Y226111D01*
X154669Y226071D01*
X154629Y226039D01*
X154590Y225979D01*
X154543Y225924D01*
X154524Y225876D01*
X154496Y225832D01*
X154478Y225763D01*
X154451Y225696D01*
X154443Y225625D01*
X154435Y225594D01*
X154437Y225570D01*
X154433Y225529D01*
X154433Y190402D01*
X152275Y188244D01*
X35604Y71573D01*
X35558Y71509D01*
X35539Y71489D01*
X35530Y71471D01*
X35466Y71384D01*
X35464Y71378D01*
X35460Y71373D01*
X35426Y71262D01*
X35390Y71150D01*
X35390Y71144D01*
X35388Y71138D01*
X35391Y71021D01*
X35392Y70905D01*
X35394Y70897D01*
X35394Y70892D01*
X35401Y70875D01*
X35439Y70743D01*
X36111Y69121D01*
X36111Y65079D01*
X34564Y61344D01*
X31706Y58486D01*
X27971Y56939D01*
X23929Y56939D01*
G37*
%LPD*%
G36*
X192134Y458799D02*
X192134Y458799D01*
X192205Y458804D01*
X192253Y458825D01*
X192304Y458836D01*
X192365Y458873D01*
X192431Y458901D01*
X192487Y458945D01*
X192515Y458962D01*
X192530Y458980D01*
X192562Y459005D01*
X193550Y459993D01*
X195874Y460955D01*
X198389Y460955D01*
X200115Y460241D01*
X200159Y460230D01*
X200201Y460211D01*
X200278Y460202D01*
X200354Y460184D01*
X200400Y460189D01*
X200445Y460184D01*
X200522Y460200D01*
X200599Y460208D01*
X200641Y460226D01*
X200686Y460236D01*
X200753Y460276D01*
X200824Y460308D01*
X200858Y460339D01*
X200897Y460362D01*
X200948Y460421D01*
X201005Y460474D01*
X201027Y460514D01*
X201057Y460549D01*
X201086Y460621D01*
X201123Y460689D01*
X201132Y460735D01*
X201149Y460777D01*
X201164Y460913D01*
X201167Y460932D01*
X201166Y460936D01*
X201167Y460944D01*
X201167Y498739D01*
X201160Y498785D01*
X201162Y498830D01*
X201140Y498905D01*
X201128Y498982D01*
X201106Y499023D01*
X201093Y499067D01*
X201049Y499131D01*
X201012Y499199D01*
X200979Y499231D01*
X200953Y499269D01*
X200891Y499315D01*
X200834Y499369D01*
X200792Y499388D01*
X200756Y499415D01*
X200682Y499440D01*
X200611Y499472D01*
X200565Y499477D01*
X200522Y499492D01*
X200444Y499491D01*
X200367Y499499D01*
X200322Y499490D01*
X200276Y499489D01*
X200145Y499451D01*
X200126Y499447D01*
X200122Y499445D01*
X200115Y499443D01*
X199378Y499137D01*
X196862Y499137D01*
X194538Y500100D01*
X192760Y501878D01*
X191797Y504202D01*
X191797Y506718D01*
X192760Y509042D01*
X194538Y510820D01*
X196862Y511783D01*
X199378Y511783D01*
X200115Y511477D01*
X200159Y511467D01*
X200201Y511448D01*
X200278Y511439D01*
X200354Y511421D01*
X200400Y511426D01*
X200445Y511421D01*
X200522Y511437D01*
X200599Y511444D01*
X200641Y511463D01*
X200686Y511473D01*
X200753Y511513D01*
X200824Y511544D01*
X200858Y511575D01*
X200897Y511599D01*
X200948Y511658D01*
X201005Y511711D01*
X201027Y511751D01*
X201057Y511786D01*
X201086Y511858D01*
X201123Y511926D01*
X201132Y511971D01*
X201149Y512014D01*
X201164Y512150D01*
X201167Y512168D01*
X201166Y512173D01*
X201167Y512181D01*
X201167Y551748D01*
X201153Y551838D01*
X201145Y551929D01*
X201133Y551959D01*
X201128Y551991D01*
X201085Y552072D01*
X201049Y552155D01*
X201023Y552188D01*
X201012Y552208D01*
X200989Y552230D01*
X200944Y552286D01*
X192969Y560262D01*
X192874Y560330D01*
X192780Y560400D01*
X192774Y560402D01*
X192769Y560406D01*
X192658Y560440D01*
X192546Y560476D01*
X192540Y560476D01*
X192534Y560478D01*
X192417Y560475D01*
X192300Y560474D01*
X192293Y560472D01*
X192288Y560472D01*
X192270Y560465D01*
X192139Y560427D01*
X190488Y559743D01*
X187972Y559743D01*
X185648Y560706D01*
X183870Y562484D01*
X182907Y564808D01*
X182907Y567324D01*
X183870Y569648D01*
X184499Y570277D01*
X184511Y570293D01*
X184526Y570306D01*
X184583Y570393D01*
X184643Y570477D01*
X184649Y570496D01*
X184659Y570512D01*
X184685Y570613D01*
X184715Y570712D01*
X184715Y570732D01*
X184720Y570751D01*
X184711Y570854D01*
X184709Y570958D01*
X184702Y570976D01*
X184700Y570996D01*
X184660Y571091D01*
X184624Y571189D01*
X184612Y571204D01*
X184604Y571223D01*
X184499Y571354D01*
X183516Y572336D01*
X182554Y574660D01*
X182554Y577176D01*
X183516Y579500D01*
X184521Y580505D01*
X184533Y580521D01*
X184549Y580533D01*
X184605Y580621D01*
X184665Y580704D01*
X184671Y580723D01*
X184682Y580740D01*
X184707Y580841D01*
X184737Y580939D01*
X184737Y580959D01*
X184742Y580979D01*
X184734Y581082D01*
X184731Y581185D01*
X184724Y581204D01*
X184722Y581224D01*
X184682Y581319D01*
X184646Y581416D01*
X184634Y581432D01*
X184626Y581450D01*
X184521Y581581D01*
X182899Y583204D01*
X181936Y585527D01*
X181936Y585936D01*
X181933Y585956D01*
X181935Y585975D01*
X181913Y586077D01*
X181897Y586179D01*
X181887Y586196D01*
X181883Y586216D01*
X181830Y586305D01*
X181782Y586396D01*
X181767Y586410D01*
X181757Y586427D01*
X181678Y586494D01*
X181603Y586566D01*
X181585Y586574D01*
X181570Y586587D01*
X181474Y586626D01*
X181380Y586669D01*
X181360Y586671D01*
X181342Y586679D01*
X181175Y586697D01*
X175062Y586697D01*
X174991Y586686D01*
X174919Y586684D01*
X174870Y586666D01*
X174819Y586658D01*
X174756Y586624D01*
X174688Y586599D01*
X174647Y586567D01*
X174602Y586542D01*
X174552Y586491D01*
X174496Y586446D01*
X174468Y586402D01*
X174432Y586364D01*
X174402Y586299D01*
X174363Y586239D01*
X174351Y586188D01*
X174329Y586141D01*
X174321Y586070D01*
X174303Y586000D01*
X174307Y585948D01*
X174302Y585897D01*
X174317Y585826D01*
X174322Y585755D01*
X174343Y585707D01*
X174354Y585656D01*
X174391Y585595D01*
X174419Y585529D01*
X174463Y585473D01*
X174480Y585445D01*
X174498Y585430D01*
X174523Y585398D01*
X174724Y585197D01*
X175605Y584316D01*
X175605Y544391D01*
X175619Y544301D01*
X175627Y544210D01*
X175639Y544181D01*
X175644Y544149D01*
X175687Y544068D01*
X175723Y543984D01*
X175749Y543952D01*
X175760Y543931D01*
X175783Y543909D01*
X175828Y543853D01*
X180215Y539466D01*
X182373Y537308D01*
X182373Y499523D01*
X182387Y499433D01*
X182395Y499342D01*
X182407Y499313D01*
X182412Y499281D01*
X182455Y499200D01*
X182491Y499116D01*
X182517Y499084D01*
X182528Y499063D01*
X182551Y499041D01*
X182596Y498985D01*
X192533Y489048D01*
X192533Y482810D01*
X191486Y481763D01*
X191433Y481689D01*
X191373Y481620D01*
X191361Y481590D01*
X191342Y481564D01*
X191315Y481477D01*
X191281Y481392D01*
X191277Y481351D01*
X191270Y481329D01*
X191271Y481296D01*
X191263Y481225D01*
X191263Y459544D01*
X191274Y459473D01*
X191276Y459401D01*
X191294Y459352D01*
X191302Y459301D01*
X191336Y459238D01*
X191361Y459170D01*
X191393Y459130D01*
X191418Y459084D01*
X191470Y459034D01*
X191514Y458978D01*
X191558Y458950D01*
X191596Y458914D01*
X191661Y458884D01*
X191721Y458845D01*
X191772Y458833D01*
X191819Y458811D01*
X191890Y458803D01*
X191960Y458785D01*
X192012Y458789D01*
X192063Y458784D01*
X192134Y458799D01*
G37*
%LPC*%
G36*
X101543Y18769D02*
X101543Y18769D01*
X98573Y20000D01*
X96300Y22273D01*
X95069Y25243D01*
X95069Y28457D01*
X96300Y31427D01*
X97758Y32886D01*
X97785Y32923D01*
X97818Y32954D01*
X97856Y33022D01*
X97901Y33085D01*
X97915Y33129D01*
X97937Y33169D01*
X97951Y33246D01*
X97974Y33320D01*
X97972Y33366D01*
X97981Y33412D01*
X97969Y33489D01*
X97967Y33566D01*
X97952Y33609D01*
X97945Y33655D01*
X97910Y33724D01*
X97883Y33797D01*
X97854Y33833D01*
X97833Y33874D01*
X97778Y33929D01*
X97729Y33989D01*
X97690Y34014D01*
X97658Y34046D01*
X97538Y34112D01*
X97522Y34122D01*
X97517Y34124D01*
X97511Y34127D01*
X97462Y34147D01*
X93197Y38412D01*
X90889Y43984D01*
X90889Y50016D01*
X93197Y55588D01*
X97569Y59959D01*
X97580Y59975D01*
X97596Y59988D01*
X97652Y60075D01*
X97712Y60159D01*
X97718Y60178D01*
X97729Y60195D01*
X97754Y60295D01*
X97785Y60394D01*
X97784Y60414D01*
X97789Y60433D01*
X97781Y60536D01*
X97778Y60640D01*
X97771Y60659D01*
X97770Y60678D01*
X97729Y60773D01*
X97694Y60871D01*
X97681Y60886D01*
X97673Y60905D01*
X97569Y61036D01*
X95240Y63365D01*
X93819Y66794D01*
X93819Y70506D01*
X95240Y73935D01*
X97865Y76560D01*
X101294Y77981D01*
X105006Y77981D01*
X108435Y76560D01*
X109581Y75415D01*
X109675Y75347D01*
X109770Y75277D01*
X109776Y75275D01*
X109781Y75271D01*
X109892Y75237D01*
X110003Y75201D01*
X110010Y75201D01*
X110016Y75199D01*
X110132Y75202D01*
X110249Y75203D01*
X110257Y75205D01*
X110262Y75205D01*
X110279Y75212D01*
X110410Y75250D01*
X114782Y77061D01*
X120118Y77061D01*
X125047Y75019D01*
X128819Y71247D01*
X130861Y66318D01*
X130861Y60982D01*
X128819Y56053D01*
X125047Y52281D01*
X121675Y50884D01*
X121658Y50874D01*
X121639Y50868D01*
X121554Y50809D01*
X121466Y50755D01*
X121453Y50740D01*
X121437Y50728D01*
X121375Y50645D01*
X121309Y50565D01*
X121302Y50547D01*
X121290Y50531D01*
X121258Y50432D01*
X121221Y50336D01*
X121220Y50316D01*
X121214Y50297D01*
X121215Y50203D01*
X121211Y50167D01*
X121211Y50097D01*
X121210Y50090D01*
X121211Y50089D01*
X121211Y43984D01*
X118903Y38412D01*
X114638Y34147D01*
X110421Y32401D01*
X110404Y32390D01*
X110385Y32385D01*
X110300Y32326D01*
X110212Y32271D01*
X110199Y32256D01*
X110183Y32244D01*
X110122Y32162D01*
X110055Y32082D01*
X110048Y32063D01*
X110036Y32047D01*
X110004Y31949D01*
X109967Y31852D01*
X109966Y31832D01*
X109960Y31813D01*
X109961Y31710D01*
X109957Y31606D01*
X109962Y31587D01*
X109963Y31567D01*
X110009Y31406D01*
X111231Y28457D01*
X111231Y25243D01*
X110000Y22273D01*
X107727Y20000D01*
X104757Y18769D01*
X101543Y18769D01*
G37*
%LPD*%
%LPC*%
G36*
X187943Y18769D02*
X187943Y18769D01*
X184973Y20000D01*
X182700Y22273D01*
X181469Y25243D01*
X181469Y28457D01*
X182603Y31194D01*
X182607Y31213D01*
X182617Y31231D01*
X182621Y31255D01*
X182629Y31271D01*
X182636Y31334D01*
X182659Y31434D01*
X182657Y31453D01*
X182661Y31473D01*
X182655Y31510D01*
X182656Y31515D01*
X182652Y31534D01*
X182646Y31575D01*
X182636Y31678D01*
X182628Y31697D01*
X182625Y31716D01*
X182578Y31809D01*
X182536Y31903D01*
X182522Y31918D01*
X182513Y31936D01*
X182439Y32008D01*
X182370Y32084D01*
X182352Y32094D01*
X182338Y32108D01*
X182191Y32189D01*
X177462Y34147D01*
X173197Y38412D01*
X170889Y43984D01*
X170889Y50016D01*
X170925Y50102D01*
X170930Y50121D01*
X170939Y50139D01*
X170958Y50241D01*
X170981Y50341D01*
X170979Y50361D01*
X170983Y50381D01*
X170968Y50483D01*
X170958Y50586D01*
X170950Y50604D01*
X170947Y50624D01*
X170900Y50717D01*
X170858Y50811D01*
X170845Y50826D01*
X170836Y50843D01*
X170761Y50916D01*
X170692Y50992D01*
X170674Y51002D01*
X170660Y51016D01*
X170513Y51096D01*
X167653Y52281D01*
X163881Y56053D01*
X161839Y60982D01*
X161839Y66318D01*
X163881Y71247D01*
X167653Y75019D01*
X172582Y77061D01*
X177918Y77061D01*
X182290Y75250D01*
X182403Y75223D01*
X182517Y75195D01*
X182523Y75195D01*
X182529Y75194D01*
X182646Y75205D01*
X182762Y75214D01*
X182768Y75216D01*
X182774Y75217D01*
X182881Y75264D01*
X182988Y75310D01*
X182994Y75315D01*
X182999Y75317D01*
X183012Y75329D01*
X183119Y75415D01*
X184265Y76560D01*
X187694Y77981D01*
X191406Y77981D01*
X194835Y76560D01*
X197460Y73935D01*
X198881Y70506D01*
X198881Y66794D01*
X197460Y63365D01*
X194831Y60736D01*
X194820Y60720D01*
X194804Y60707D01*
X194748Y60620D01*
X194688Y60536D01*
X194682Y60517D01*
X194671Y60500D01*
X194646Y60400D01*
X194615Y60301D01*
X194616Y60281D01*
X194611Y60262D01*
X194619Y60159D01*
X194622Y60055D01*
X194629Y60036D01*
X194630Y60016D01*
X194671Y59922D01*
X194706Y59824D01*
X194719Y59808D01*
X194727Y59790D01*
X194831Y59659D01*
X198903Y55588D01*
X201211Y50016D01*
X201211Y43984D01*
X198903Y38412D01*
X194697Y34207D01*
X194686Y34191D01*
X194670Y34178D01*
X194614Y34091D01*
X194554Y34007D01*
X194548Y33988D01*
X194537Y33971D01*
X194512Y33871D01*
X194482Y33772D01*
X194482Y33752D01*
X194477Y33733D01*
X194485Y33630D01*
X194488Y33526D01*
X194495Y33507D01*
X194496Y33488D01*
X194537Y33393D01*
X194572Y33295D01*
X194585Y33280D01*
X194593Y33261D01*
X194697Y33130D01*
X196400Y31427D01*
X197631Y28457D01*
X197631Y25243D01*
X196400Y22273D01*
X194127Y20000D01*
X191157Y18769D01*
X187943Y18769D01*
G37*
%LPD*%
%LPC*%
G36*
X72554Y359239D02*
X72554Y359239D01*
X70230Y360202D01*
X68452Y361980D01*
X67489Y364304D01*
X67489Y366820D01*
X68452Y369144D01*
X68800Y369492D01*
X68812Y369508D01*
X68827Y369520D01*
X68883Y369608D01*
X68943Y369692D01*
X68949Y369711D01*
X68960Y369727D01*
X68985Y369828D01*
X69016Y369927D01*
X69015Y369947D01*
X69020Y369966D01*
X69012Y370069D01*
X69009Y370173D01*
X69003Y370191D01*
X69001Y370211D01*
X68961Y370306D01*
X68925Y370404D01*
X68913Y370419D01*
X68905Y370437D01*
X68800Y370568D01*
X68244Y371124D01*
X68170Y371178D01*
X68101Y371237D01*
X68071Y371249D01*
X68044Y371268D01*
X67957Y371295D01*
X67872Y371329D01*
X67831Y371333D01*
X67809Y371340D01*
X67777Y371339D01*
X67706Y371347D01*
X36872Y371347D01*
X36852Y371344D01*
X36833Y371346D01*
X36731Y371324D01*
X36629Y371308D01*
X36612Y371298D01*
X36592Y371294D01*
X36503Y371241D01*
X36412Y371192D01*
X36398Y371178D01*
X36381Y371168D01*
X36314Y371089D01*
X36242Y371014D01*
X36234Y370996D01*
X36221Y370981D01*
X36182Y370885D01*
X36139Y370791D01*
X36137Y370771D01*
X36129Y370753D01*
X36111Y370586D01*
X36111Y369879D01*
X34564Y366144D01*
X31706Y363286D01*
X27971Y361739D01*
X23929Y361739D01*
X20194Y363286D01*
X17336Y366144D01*
X15789Y369879D01*
X15789Y373921D01*
X17336Y377656D01*
X20194Y380514D01*
X23929Y382061D01*
X27971Y382061D01*
X31706Y380514D01*
X34044Y378176D01*
X34118Y378123D01*
X34187Y378063D01*
X34217Y378051D01*
X34244Y378032D01*
X34330Y378005D01*
X34415Y377971D01*
X34456Y377967D01*
X34479Y377960D01*
X34511Y377961D01*
X34582Y377953D01*
X67706Y377953D01*
X67796Y377967D01*
X67887Y377975D01*
X67916Y377987D01*
X67948Y377992D01*
X68029Y378035D01*
X68113Y378071D01*
X68145Y378097D01*
X68166Y378108D01*
X68188Y378131D01*
X68244Y378176D01*
X70078Y380010D01*
X72402Y380973D01*
X74918Y380973D01*
X77242Y380010D01*
X79020Y378232D01*
X79983Y375908D01*
X79983Y373392D01*
X79020Y371068D01*
X78672Y370720D01*
X78660Y370704D01*
X78645Y370692D01*
X78589Y370604D01*
X78528Y370520D01*
X78523Y370501D01*
X78512Y370485D01*
X78486Y370384D01*
X78456Y370285D01*
X78457Y370265D01*
X78452Y370246D01*
X78460Y370143D01*
X78462Y370040D01*
X78469Y370021D01*
X78471Y370001D01*
X78511Y369906D01*
X78547Y369809D01*
X78559Y369793D01*
X78567Y369775D01*
X78672Y369644D01*
X79172Y369144D01*
X80135Y366820D01*
X80135Y364304D01*
X79172Y361980D01*
X77393Y360202D01*
X75069Y359239D01*
X72554Y359239D01*
G37*
%LPD*%
%LPC*%
G36*
X113042Y130837D02*
X113042Y130837D01*
X110718Y131800D01*
X108940Y133578D01*
X107977Y135902D01*
X107977Y138418D01*
X108940Y140742D01*
X110718Y142520D01*
X113042Y143483D01*
X115558Y143483D01*
X117882Y142520D01*
X119716Y140686D01*
X119790Y140633D01*
X119859Y140573D01*
X119890Y140561D01*
X119916Y140542D01*
X120003Y140515D01*
X120088Y140481D01*
X120129Y140477D01*
X120151Y140470D01*
X120183Y140471D01*
X120254Y140463D01*
X148986Y140463D01*
X149076Y140477D01*
X149167Y140485D01*
X149196Y140497D01*
X149228Y140502D01*
X149309Y140545D01*
X149393Y140581D01*
X149425Y140607D01*
X149446Y140618D01*
X149468Y140641D01*
X149524Y140686D01*
X151358Y142520D01*
X153682Y143483D01*
X156198Y143483D01*
X158522Y142520D01*
X160300Y140742D01*
X161263Y138418D01*
X161263Y135902D01*
X160300Y133578D01*
X158522Y131800D01*
X156198Y130837D01*
X153682Y130837D01*
X151358Y131800D01*
X149524Y133634D01*
X149450Y133687D01*
X149381Y133747D01*
X149350Y133759D01*
X149324Y133778D01*
X149237Y133805D01*
X149152Y133839D01*
X149111Y133843D01*
X149089Y133850D01*
X149057Y133849D01*
X148986Y133857D01*
X120254Y133857D01*
X120164Y133843D01*
X120073Y133835D01*
X120044Y133823D01*
X120012Y133818D01*
X119931Y133775D01*
X119847Y133739D01*
X119815Y133713D01*
X119794Y133702D01*
X119772Y133679D01*
X119716Y133634D01*
X117882Y131800D01*
X115558Y130837D01*
X113042Y130837D01*
G37*
%LPD*%
%LPC*%
G36*
X252529Y209339D02*
X252529Y209339D01*
X248794Y210886D01*
X245936Y213744D01*
X244389Y217479D01*
X244389Y221521D01*
X245936Y225256D01*
X248794Y228114D01*
X252529Y229661D01*
X256571Y229661D01*
X260306Y228114D01*
X263164Y225256D01*
X264711Y221521D01*
X264711Y217479D01*
X263164Y213744D01*
X260306Y210886D01*
X256571Y209339D01*
X252529Y209339D01*
G37*
%LPD*%
%LPC*%
G36*
X252529Y666539D02*
X252529Y666539D01*
X248794Y668086D01*
X245936Y670944D01*
X244389Y674679D01*
X244389Y678721D01*
X245936Y682456D01*
X248794Y685314D01*
X252529Y686861D01*
X256571Y686861D01*
X260306Y685314D01*
X263164Y682456D01*
X264711Y678721D01*
X264711Y674679D01*
X263164Y670944D01*
X260306Y668086D01*
X256571Y666539D01*
X252529Y666539D01*
G37*
%LPD*%
%LPC*%
G36*
X23929Y234739D02*
X23929Y234739D01*
X20194Y236286D01*
X17336Y239144D01*
X15789Y242879D01*
X15789Y246921D01*
X17336Y250656D01*
X20194Y253514D01*
X23929Y255061D01*
X27971Y255061D01*
X31706Y253514D01*
X34564Y250656D01*
X36111Y246921D01*
X36111Y242879D01*
X34564Y239144D01*
X31706Y236286D01*
X27971Y234739D01*
X23929Y234739D01*
G37*
%LPD*%
%LPC*%
G36*
X252529Y234739D02*
X252529Y234739D01*
X248794Y236286D01*
X245936Y239144D01*
X244389Y242879D01*
X244389Y246921D01*
X245936Y250656D01*
X248794Y253514D01*
X252529Y255061D01*
X256571Y255061D01*
X260306Y253514D01*
X263164Y250656D01*
X264711Y246921D01*
X264711Y242879D01*
X263164Y239144D01*
X260306Y236286D01*
X256571Y234739D01*
X252529Y234739D01*
G37*
%LPD*%
%LPC*%
G36*
X23929Y310939D02*
X23929Y310939D01*
X20194Y312486D01*
X17336Y315344D01*
X15789Y319079D01*
X15789Y323121D01*
X17336Y326856D01*
X20194Y329714D01*
X23929Y331261D01*
X27971Y331261D01*
X31706Y329714D01*
X34564Y326856D01*
X36111Y323121D01*
X36111Y319079D01*
X34564Y315344D01*
X31706Y312486D01*
X27971Y310939D01*
X23929Y310939D01*
G37*
%LPD*%
%LPC*%
G36*
X23929Y260139D02*
X23929Y260139D01*
X20194Y261686D01*
X17336Y264544D01*
X15789Y268279D01*
X15789Y272321D01*
X17336Y276056D01*
X20194Y278914D01*
X23929Y280461D01*
X27971Y280461D01*
X31706Y278914D01*
X34564Y276056D01*
X36111Y272321D01*
X36111Y268279D01*
X34564Y264544D01*
X31706Y261686D01*
X27971Y260139D01*
X23929Y260139D01*
G37*
%LPD*%
%LPC*%
G36*
X252529Y260139D02*
X252529Y260139D01*
X248794Y261686D01*
X245936Y264544D01*
X244389Y268279D01*
X244389Y272321D01*
X245936Y276056D01*
X248794Y278914D01*
X252529Y280461D01*
X256571Y280461D01*
X260306Y278914D01*
X263164Y276056D01*
X264711Y272321D01*
X264711Y268279D01*
X263164Y264544D01*
X260306Y261686D01*
X256571Y260139D01*
X252529Y260139D01*
G37*
%LPD*%
%LPC*%
G36*
X23929Y336339D02*
X23929Y336339D01*
X20194Y337886D01*
X17336Y340744D01*
X15789Y344479D01*
X15789Y348521D01*
X17336Y352256D01*
X20194Y355114D01*
X23929Y356661D01*
X27971Y356661D01*
X31706Y355114D01*
X34564Y352256D01*
X36111Y348521D01*
X36111Y344479D01*
X34564Y340744D01*
X31706Y337886D01*
X27971Y336339D01*
X23929Y336339D01*
G37*
%LPD*%
%LPC*%
G36*
X23929Y285539D02*
X23929Y285539D01*
X20194Y287086D01*
X17336Y289944D01*
X15789Y293679D01*
X15789Y297721D01*
X17336Y301456D01*
X20194Y304314D01*
X23929Y305861D01*
X27971Y305861D01*
X31706Y304314D01*
X34564Y301456D01*
X36111Y297721D01*
X36111Y293679D01*
X34564Y289944D01*
X31706Y287086D01*
X27971Y285539D01*
X23929Y285539D01*
G37*
%LPD*%
%LPC*%
G36*
X23929Y641139D02*
X23929Y641139D01*
X20194Y642686D01*
X17336Y645544D01*
X15789Y649279D01*
X15789Y653321D01*
X17336Y657056D01*
X20194Y659914D01*
X23929Y661461D01*
X27971Y661461D01*
X31706Y659914D01*
X34564Y657056D01*
X36111Y653321D01*
X36111Y649279D01*
X34564Y645544D01*
X31706Y642686D01*
X27971Y641139D01*
X23929Y641139D01*
G37*
%LPD*%
%LPC*%
G36*
X252529Y641139D02*
X252529Y641139D01*
X248794Y642686D01*
X245936Y645544D01*
X244389Y649279D01*
X244389Y653321D01*
X245936Y657056D01*
X248794Y659914D01*
X252529Y661461D01*
X256571Y661461D01*
X260306Y659914D01*
X263164Y657056D01*
X264711Y653321D01*
X264711Y649279D01*
X263164Y645544D01*
X260306Y642686D01*
X256571Y641139D01*
X252529Y641139D01*
G37*
%LPD*%
%LPC*%
G36*
X213879Y294639D02*
X213879Y294639D01*
X210144Y296186D01*
X207286Y299044D01*
X205739Y302779D01*
X205739Y306821D01*
X207286Y310556D01*
X210144Y313414D01*
X213879Y314961D01*
X217921Y314961D01*
X221656Y313414D01*
X224514Y310556D01*
X226061Y306821D01*
X226061Y302779D01*
X224514Y299044D01*
X221656Y296186D01*
X217921Y294639D01*
X213879Y294639D01*
G37*
%LPD*%
%LPC*%
G36*
X23929Y615739D02*
X23929Y615739D01*
X20194Y617286D01*
X17336Y620144D01*
X15789Y623879D01*
X15789Y627921D01*
X17336Y631656D01*
X20194Y634514D01*
X23929Y636061D01*
X27971Y636061D01*
X31706Y634514D01*
X34564Y631656D01*
X36111Y627921D01*
X36111Y623879D01*
X34564Y620144D01*
X31706Y617286D01*
X27971Y615739D01*
X23929Y615739D01*
G37*
%LPD*%
%LPC*%
G36*
X252529Y615739D02*
X252529Y615739D01*
X248794Y617286D01*
X245936Y620144D01*
X244389Y623879D01*
X244389Y627921D01*
X245936Y631656D01*
X248794Y634514D01*
X252529Y636061D01*
X256571Y636061D01*
X260306Y634514D01*
X263164Y631656D01*
X264711Y627921D01*
X264711Y623879D01*
X263164Y620144D01*
X260306Y617286D01*
X256571Y615739D01*
X252529Y615739D01*
G37*
%LPD*%
%LPC*%
G36*
X23929Y590339D02*
X23929Y590339D01*
X20194Y591886D01*
X17336Y594744D01*
X15789Y598479D01*
X15789Y602521D01*
X17336Y606256D01*
X20194Y609114D01*
X23929Y610661D01*
X27971Y610661D01*
X31706Y609114D01*
X34564Y606256D01*
X36111Y602521D01*
X36111Y598479D01*
X34564Y594744D01*
X31706Y591886D01*
X27971Y590339D01*
X23929Y590339D01*
G37*
%LPD*%
%LPC*%
G36*
X252529Y564939D02*
X252529Y564939D01*
X248794Y566486D01*
X245936Y569344D01*
X244389Y573079D01*
X244389Y577121D01*
X245936Y580856D01*
X248794Y583714D01*
X252529Y585261D01*
X256571Y585261D01*
X260306Y583714D01*
X263164Y580856D01*
X264711Y577121D01*
X264711Y573079D01*
X263164Y569344D01*
X260306Y566486D01*
X256571Y564939D01*
X252529Y564939D01*
G37*
%LPD*%
%LPC*%
G36*
X23929Y564939D02*
X23929Y564939D01*
X20194Y566486D01*
X17336Y569344D01*
X15789Y573079D01*
X15789Y577121D01*
X17336Y580856D01*
X20194Y583714D01*
X23929Y585261D01*
X27971Y585261D01*
X31706Y583714D01*
X34564Y580856D01*
X36111Y577121D01*
X36111Y573079D01*
X34564Y569344D01*
X31706Y566486D01*
X27971Y564939D01*
X23929Y564939D01*
G37*
%LPD*%
%LPC*%
G36*
X252529Y514139D02*
X252529Y514139D01*
X248794Y515686D01*
X245936Y518544D01*
X244389Y522279D01*
X244389Y526321D01*
X245936Y530056D01*
X248794Y532914D01*
X252529Y534461D01*
X256571Y534461D01*
X260306Y532914D01*
X263164Y530056D01*
X264711Y526321D01*
X264711Y522279D01*
X263164Y518544D01*
X260306Y515686D01*
X256571Y514139D01*
X252529Y514139D01*
G37*
%LPD*%
%LPC*%
G36*
X252529Y361739D02*
X252529Y361739D01*
X248794Y363286D01*
X245936Y366144D01*
X244389Y369879D01*
X244389Y373921D01*
X245936Y377656D01*
X248794Y380514D01*
X252529Y382061D01*
X256571Y382061D01*
X260306Y380514D01*
X263164Y377656D01*
X264711Y373921D01*
X264711Y369879D01*
X263164Y366144D01*
X260306Y363286D01*
X256571Y361739D01*
X252529Y361739D01*
G37*
%LPD*%
%LPC*%
G36*
X252529Y463339D02*
X252529Y463339D01*
X248794Y464886D01*
X245936Y467744D01*
X244389Y471479D01*
X244389Y475521D01*
X245936Y479256D01*
X248794Y482114D01*
X252529Y483661D01*
X256571Y483661D01*
X260306Y482114D01*
X263164Y479256D01*
X264711Y475521D01*
X264711Y471479D01*
X263164Y467744D01*
X260306Y464886D01*
X256571Y463339D01*
X252529Y463339D01*
G37*
%LPD*%
%LPC*%
G36*
X252529Y412539D02*
X252529Y412539D01*
X248794Y414086D01*
X245936Y416944D01*
X244389Y420679D01*
X244389Y424721D01*
X245936Y428456D01*
X248794Y431314D01*
X252529Y432861D01*
X256571Y432861D01*
X260306Y431314D01*
X263164Y428456D01*
X264711Y424721D01*
X264711Y420679D01*
X263164Y416944D01*
X260306Y414086D01*
X256571Y412539D01*
X252529Y412539D01*
G37*
%LPD*%
%LPC*%
G36*
X252529Y158539D02*
X252529Y158539D01*
X248794Y160086D01*
X245936Y162944D01*
X244389Y166679D01*
X244389Y170721D01*
X245936Y174456D01*
X248794Y177314D01*
X252529Y178861D01*
X256571Y178861D01*
X260306Y177314D01*
X263164Y174456D01*
X264711Y170721D01*
X264711Y166679D01*
X263164Y162944D01*
X260306Y160086D01*
X256571Y158539D01*
X252529Y158539D01*
G37*
%LPD*%
%LPC*%
G36*
X252529Y133139D02*
X252529Y133139D01*
X248794Y134686D01*
X245936Y137544D01*
X244389Y141279D01*
X244389Y145321D01*
X245936Y149056D01*
X248794Y151914D01*
X252529Y153461D01*
X256571Y153461D01*
X260306Y151914D01*
X263164Y149056D01*
X264711Y145321D01*
X264711Y141279D01*
X263164Y137544D01*
X260306Y134686D01*
X256571Y133139D01*
X252529Y133139D01*
G37*
%LPD*%
%LPC*%
G36*
X196862Y161317D02*
X196862Y161317D01*
X194538Y162280D01*
X192760Y164058D01*
X191797Y166382D01*
X191797Y168898D01*
X192760Y171222D01*
X193720Y172182D01*
X193732Y172198D01*
X193747Y172210D01*
X193803Y172298D01*
X193864Y172381D01*
X193869Y172400D01*
X193880Y172417D01*
X193905Y172518D01*
X193936Y172617D01*
X193935Y172636D01*
X193940Y172656D01*
X193932Y172759D01*
X193930Y172862D01*
X193923Y172881D01*
X193921Y172901D01*
X193881Y172996D01*
X193845Y173093D01*
X193833Y173109D01*
X193825Y173127D01*
X193720Y173258D01*
X192760Y174218D01*
X191797Y176542D01*
X191797Y179058D01*
X192760Y181382D01*
X194538Y183160D01*
X196862Y184123D01*
X199378Y184123D01*
X201702Y183160D01*
X203480Y181382D01*
X204443Y179058D01*
X204443Y176542D01*
X203480Y174218D01*
X202520Y173258D01*
X202508Y173242D01*
X202493Y173230D01*
X202437Y173142D01*
X202376Y173059D01*
X202371Y173040D01*
X202360Y173023D01*
X202335Y172922D01*
X202304Y172823D01*
X202305Y172804D01*
X202300Y172784D01*
X202308Y172681D01*
X202310Y172578D01*
X202317Y172559D01*
X202319Y172539D01*
X202359Y172444D01*
X202395Y172347D01*
X202407Y172331D01*
X202415Y172313D01*
X202520Y172182D01*
X203480Y171222D01*
X204443Y168898D01*
X204443Y166382D01*
X203480Y164058D01*
X201702Y162280D01*
X199378Y161317D01*
X196862Y161317D01*
G37*
%LPD*%
G36*
X180629Y613310D02*
X180629Y613310D01*
X180675Y613308D01*
X180750Y613330D01*
X180826Y613342D01*
X180867Y613364D01*
X180911Y613377D01*
X180975Y613421D01*
X181044Y613458D01*
X181075Y613491D01*
X181113Y613517D01*
X181159Y613579D01*
X181213Y613636D01*
X181233Y613678D01*
X181260Y613714D01*
X181284Y613788D01*
X181317Y613859D01*
X181322Y613905D01*
X181336Y613948D01*
X181335Y614026D01*
X181344Y614103D01*
X181334Y614148D01*
X181334Y614194D01*
X181296Y614326D01*
X181292Y614344D01*
X181289Y614348D01*
X181287Y614355D01*
X180621Y615962D01*
X180621Y618478D01*
X181584Y620802D01*
X182036Y621254D01*
X182078Y621312D01*
X182127Y621364D01*
X182149Y621411D01*
X182180Y621453D01*
X182201Y621522D01*
X182231Y621587D01*
X182237Y621639D01*
X182252Y621689D01*
X182250Y621760D01*
X182258Y621831D01*
X182247Y621882D01*
X182246Y621934D01*
X182221Y622002D01*
X182206Y622072D01*
X182179Y622117D01*
X182161Y622165D01*
X182116Y622221D01*
X182080Y622283D01*
X182040Y622317D01*
X182007Y622357D01*
X181947Y622396D01*
X181893Y622443D01*
X181844Y622462D01*
X181801Y622490D01*
X181731Y622508D01*
X181664Y622535D01*
X181593Y622543D01*
X181562Y622551D01*
X181539Y622549D01*
X181498Y622553D01*
X170789Y622553D01*
X170699Y622539D01*
X170608Y622531D01*
X170579Y622519D01*
X170547Y622514D01*
X170466Y622471D01*
X170382Y622435D01*
X170350Y622409D01*
X170329Y622398D01*
X170307Y622375D01*
X170251Y622330D01*
X167780Y619859D01*
X167727Y619785D01*
X167667Y619716D01*
X167655Y619685D01*
X167636Y619659D01*
X167609Y619572D01*
X167575Y619487D01*
X167571Y619446D01*
X167564Y619424D01*
X167565Y619392D01*
X167557Y619321D01*
X167557Y618216D01*
X165034Y615693D01*
X164353Y615693D01*
X164257Y615678D01*
X164160Y615668D01*
X164136Y615658D01*
X164111Y615654D01*
X164025Y615608D01*
X163936Y615568D01*
X163916Y615551D01*
X163893Y615538D01*
X163826Y615468D01*
X163755Y615402D01*
X163742Y615379D01*
X163724Y615360D01*
X163683Y615272D01*
X163636Y615186D01*
X163631Y615161D01*
X163620Y615137D01*
X163610Y615040D01*
X163592Y614944D01*
X163596Y614918D01*
X163593Y614893D01*
X163614Y614797D01*
X163628Y614701D01*
X163640Y614678D01*
X163645Y614652D01*
X163695Y614569D01*
X163740Y614482D01*
X163758Y614463D01*
X163772Y614441D01*
X163846Y614378D01*
X163915Y614310D01*
X163944Y614294D01*
X163959Y614281D01*
X163989Y614269D01*
X164062Y614229D01*
X165237Y613742D01*
X165351Y613715D01*
X165464Y613687D01*
X165470Y613687D01*
X165476Y613686D01*
X165593Y613697D01*
X165709Y613706D01*
X165715Y613708D01*
X165721Y613709D01*
X165828Y613757D01*
X165936Y613802D01*
X165941Y613807D01*
X165946Y613809D01*
X165960Y613821D01*
X166067Y613907D01*
X166466Y614307D01*
X170034Y614307D01*
X170815Y613526D01*
X170889Y613473D01*
X170958Y613413D01*
X170989Y613401D01*
X171015Y613382D01*
X171102Y613355D01*
X171187Y613321D01*
X171227Y613317D01*
X171250Y613310D01*
X171282Y613311D01*
X171353Y613303D01*
X180584Y613303D01*
X180629Y613310D01*
G37*
%LPC*%
G36*
X45732Y327687D02*
X45732Y327687D01*
X43408Y328650D01*
X41630Y330428D01*
X40667Y332752D01*
X40667Y335268D01*
X41630Y337592D01*
X43408Y339370D01*
X45732Y340333D01*
X48248Y340333D01*
X50572Y339370D01*
X52350Y337592D01*
X53313Y335268D01*
X53313Y332752D01*
X52350Y330428D01*
X50572Y328650D01*
X48248Y327687D01*
X45732Y327687D01*
G37*
%LPD*%
%LPC*%
G36*
X77482Y319213D02*
X77482Y319213D01*
X75158Y320176D01*
X73380Y321954D01*
X72417Y324278D01*
X72417Y326794D01*
X73380Y329118D01*
X75158Y330896D01*
X77482Y331859D01*
X79998Y331859D01*
X82322Y330896D01*
X84100Y329118D01*
X85063Y326794D01*
X85063Y324278D01*
X84100Y321954D01*
X82322Y320176D01*
X79998Y319213D01*
X77482Y319213D01*
G37*
%LPD*%
%LPC*%
G36*
X229882Y283237D02*
X229882Y283237D01*
X227558Y284200D01*
X225780Y285978D01*
X224817Y288302D01*
X224817Y290818D01*
X225780Y293142D01*
X227558Y294920D01*
X229882Y295883D01*
X232398Y295883D01*
X234722Y294920D01*
X236500Y293142D01*
X237463Y290818D01*
X237463Y288302D01*
X236500Y285978D01*
X234722Y284200D01*
X232398Y283237D01*
X229882Y283237D01*
G37*
%LPD*%
%LPC*%
G36*
X60972Y198147D02*
X60972Y198147D01*
X58648Y199110D01*
X56870Y200888D01*
X55907Y203212D01*
X55907Y205728D01*
X56870Y208052D01*
X58648Y209830D01*
X60972Y210793D01*
X63488Y210793D01*
X65812Y209830D01*
X67590Y208052D01*
X68553Y205728D01*
X68553Y203212D01*
X67590Y200888D01*
X65812Y199110D01*
X63488Y198147D01*
X60972Y198147D01*
G37*
%LPD*%
%LPC*%
G36*
X111772Y308637D02*
X111772Y308637D01*
X109448Y309600D01*
X107670Y311378D01*
X106707Y313702D01*
X106707Y316218D01*
X107670Y318542D01*
X109448Y320320D01*
X111772Y321283D01*
X114288Y321283D01*
X116612Y320320D01*
X118390Y318542D01*
X119353Y316218D01*
X119353Y313702D01*
X118390Y311378D01*
X116612Y309600D01*
X114288Y308637D01*
X111772Y308637D01*
G37*
%LPD*%
%LPC*%
G36*
X151142Y161317D02*
X151142Y161317D01*
X148818Y162280D01*
X147040Y164058D01*
X146077Y166382D01*
X146077Y168898D01*
X147040Y171222D01*
X148818Y173000D01*
X151142Y173963D01*
X153658Y173963D01*
X155982Y173000D01*
X157760Y171222D01*
X158723Y168898D01*
X158723Y166382D01*
X157760Y164058D01*
X155982Y162280D01*
X153658Y161317D01*
X151142Y161317D01*
G37*
%LPD*%
%LPC*%
G36*
X64782Y151157D02*
X64782Y151157D01*
X62458Y152120D01*
X60680Y153898D01*
X59717Y156222D01*
X59717Y158738D01*
X60680Y161062D01*
X62458Y162840D01*
X64782Y163803D01*
X67298Y163803D01*
X69622Y162840D01*
X71400Y161062D01*
X72363Y158738D01*
X72363Y156222D01*
X71400Y153898D01*
X69622Y152120D01*
X67298Y151157D01*
X64782Y151157D01*
G37*
%LPD*%
%LPC*%
G36*
X181992Y656217D02*
X181992Y656217D01*
X179668Y657180D01*
X177890Y658958D01*
X176927Y661282D01*
X176927Y663798D01*
X177890Y666122D01*
X179668Y667900D01*
X181992Y668863D01*
X184508Y668863D01*
X186832Y667900D01*
X188610Y666122D01*
X189573Y663798D01*
X189573Y661282D01*
X188610Y658958D01*
X186832Y657180D01*
X184508Y656217D01*
X181992Y656217D01*
G37*
%LPD*%
%LPC*%
G36*
X44462Y504217D02*
X44462Y504217D01*
X42138Y505180D01*
X40360Y506958D01*
X39397Y509282D01*
X39397Y511798D01*
X40360Y514122D01*
X42138Y515900D01*
X44462Y516863D01*
X46978Y516863D01*
X49302Y515900D01*
X51080Y514122D01*
X52043Y511798D01*
X52043Y509282D01*
X51080Y506958D01*
X49302Y505180D01*
X46978Y504217D01*
X44462Y504217D01*
G37*
%LPD*%
%LPC*%
G36*
X153682Y107977D02*
X153682Y107977D01*
X151358Y108940D01*
X149580Y110718D01*
X148617Y113042D01*
X148617Y115558D01*
X149580Y117882D01*
X151358Y119660D01*
X153682Y120623D01*
X156198Y120623D01*
X158522Y119660D01*
X160300Y117882D01*
X161263Y115558D01*
X161263Y113042D01*
X160300Y110718D01*
X158522Y108940D01*
X156198Y107977D01*
X153682Y107977D01*
G37*
%LPD*%
%LPC*%
G36*
X232422Y99087D02*
X232422Y99087D01*
X230098Y100050D01*
X228320Y101828D01*
X227357Y104152D01*
X227357Y106668D01*
X228320Y108992D01*
X230098Y110770D01*
X232422Y111733D01*
X234938Y111733D01*
X237262Y110770D01*
X239040Y108992D01*
X240003Y106668D01*
X240003Y104152D01*
X239040Y101828D01*
X237262Y100050D01*
X234938Y99087D01*
X232422Y99087D01*
G37*
%LPD*%
%LPC*%
G36*
X126024Y86683D02*
X126024Y86683D01*
X123700Y87646D01*
X121922Y89424D01*
X120959Y91748D01*
X120959Y94264D01*
X121922Y96588D01*
X123700Y98366D01*
X126024Y99329D01*
X128540Y99329D01*
X130864Y98366D01*
X132642Y96588D01*
X133605Y94264D01*
X133605Y91748D01*
X132642Y89424D01*
X130864Y87646D01*
X128540Y86683D01*
X126024Y86683D01*
G37*
%LPD*%
%LPC*%
G36*
X44462Y480087D02*
X44462Y480087D01*
X42138Y481050D01*
X40360Y482828D01*
X39397Y485152D01*
X39397Y487668D01*
X40360Y489992D01*
X42138Y491770D01*
X44462Y492733D01*
X46978Y492733D01*
X49302Y491770D01*
X51080Y489992D01*
X52043Y487668D01*
X52043Y485152D01*
X51080Y482828D01*
X49302Y481050D01*
X46978Y480087D01*
X44462Y480087D01*
G37*
%LPD*%
%LPC*%
G36*
X113042Y107977D02*
X113042Y107977D01*
X110718Y108940D01*
X108940Y110718D01*
X107977Y113042D01*
X107977Y115558D01*
X108940Y117882D01*
X110718Y119660D01*
X113042Y120623D01*
X115558Y120623D01*
X117882Y119660D01*
X119660Y117882D01*
X120623Y115558D01*
X120623Y113042D01*
X119660Y110718D01*
X117882Y108940D01*
X115558Y107977D01*
X113042Y107977D01*
G37*
%LPD*%
%LPC*%
G36*
X50812Y64797D02*
X50812Y64797D01*
X48488Y65760D01*
X46710Y67538D01*
X45747Y69862D01*
X45747Y72378D01*
X46710Y74702D01*
X48488Y76480D01*
X50812Y77443D01*
X53328Y77443D01*
X55652Y76480D01*
X57430Y74702D01*
X58393Y72378D01*
X58393Y69862D01*
X57430Y67538D01*
X55652Y65760D01*
X53328Y64797D01*
X50812Y64797D01*
G37*
%LPD*%
%LPC*%
G36*
X143522Y62257D02*
X143522Y62257D01*
X141198Y63220D01*
X139420Y64998D01*
X138457Y67322D01*
X138457Y69838D01*
X139420Y72162D01*
X141198Y73940D01*
X143522Y74903D01*
X146038Y74903D01*
X148362Y73940D01*
X150140Y72162D01*
X151103Y69838D01*
X151103Y67322D01*
X150140Y64998D01*
X148362Y63220D01*
X146038Y62257D01*
X143522Y62257D01*
G37*
%LPD*%
%LPC*%
G36*
X79902Y653217D02*
X79902Y653217D01*
X77670Y654142D01*
X75962Y655850D01*
X75037Y658082D01*
X75037Y660498D01*
X75962Y662730D01*
X77670Y664438D01*
X79902Y665363D01*
X82318Y665363D01*
X84550Y664438D01*
X86258Y662730D01*
X87183Y660498D01*
X87183Y658082D01*
X86258Y655850D01*
X84550Y654142D01*
X82318Y653217D01*
X79902Y653217D01*
G37*
%LPD*%
%LPC*%
G36*
X51962Y625277D02*
X51962Y625277D01*
X49730Y626202D01*
X48022Y627910D01*
X47097Y630142D01*
X47097Y632558D01*
X48022Y634790D01*
X49730Y636498D01*
X51962Y637423D01*
X54378Y637423D01*
X56610Y636498D01*
X58318Y634790D01*
X59243Y632558D01*
X59243Y630142D01*
X58318Y627910D01*
X56610Y626202D01*
X54378Y625277D01*
X51962Y625277D01*
G37*
%LPD*%
%LPC*%
G36*
X217423Y382523D02*
X217423Y382523D01*
X217423Y391046D01*
X218279Y390911D01*
X219800Y390416D01*
X221225Y389690D01*
X222519Y388750D01*
X223650Y387619D01*
X224590Y386325D01*
X225316Y384900D01*
X225811Y383379D01*
X225946Y382523D01*
X217423Y382523D01*
G37*
%LPD*%
%LPC*%
G36*
X27473Y678223D02*
X27473Y678223D01*
X27473Y686746D01*
X28329Y686611D01*
X29850Y686116D01*
X31275Y685390D01*
X32569Y684450D01*
X33700Y683319D01*
X34640Y682025D01*
X35366Y680600D01*
X35861Y679079D01*
X35996Y678223D01*
X27473Y678223D01*
G37*
%LPD*%
%LPC*%
G36*
X27473Y700577D02*
X27473Y700577D01*
X35996Y700577D01*
X35861Y699721D01*
X35366Y698200D01*
X34640Y696775D01*
X33700Y695481D01*
X32569Y694350D01*
X31275Y693410D01*
X29850Y692684D01*
X28329Y692189D01*
X27473Y692054D01*
X27473Y700577D01*
G37*
%LPD*%
%LPC*%
G36*
X205854Y382523D02*
X205854Y382523D01*
X205989Y383379D01*
X206484Y384900D01*
X207210Y386325D01*
X208150Y387619D01*
X209281Y388750D01*
X210575Y389690D01*
X212000Y390416D01*
X213521Y390911D01*
X214377Y391046D01*
X214377Y382523D01*
X205854Y382523D01*
G37*
%LPD*%
%LPC*%
G36*
X27473Y675177D02*
X27473Y675177D01*
X35996Y675177D01*
X35861Y674321D01*
X35366Y672800D01*
X34640Y671375D01*
X33700Y670081D01*
X32569Y668950D01*
X31275Y668010D01*
X29850Y667284D01*
X28329Y666789D01*
X27473Y666654D01*
X27473Y675177D01*
G37*
%LPD*%
%LPC*%
G36*
X15904Y678223D02*
X15904Y678223D01*
X16039Y679079D01*
X16534Y680600D01*
X17260Y682025D01*
X18200Y683319D01*
X19331Y684450D01*
X20625Y685390D01*
X22050Y686116D01*
X23571Y686611D01*
X24427Y686746D01*
X24427Y678223D01*
X15904Y678223D01*
G37*
%LPD*%
%LPC*%
G36*
X217423Y379477D02*
X217423Y379477D01*
X225946Y379477D01*
X225811Y378621D01*
X225316Y377100D01*
X224590Y375675D01*
X223650Y374381D01*
X222519Y373250D01*
X221225Y372310D01*
X219800Y371584D01*
X218279Y371089D01*
X217423Y370954D01*
X217423Y379477D01*
G37*
%LPD*%
%LPC*%
G36*
X213521Y371089D02*
X213521Y371089D01*
X212000Y371584D01*
X210575Y372310D01*
X209281Y373250D01*
X208150Y374381D01*
X207210Y375675D01*
X206484Y377100D01*
X205989Y378621D01*
X205854Y379477D01*
X214377Y379477D01*
X214377Y370954D01*
X213521Y371089D01*
G37*
%LPD*%
%LPC*%
G36*
X23571Y666789D02*
X23571Y666789D01*
X22050Y667284D01*
X20625Y668010D01*
X19331Y668950D01*
X18200Y670081D01*
X17260Y671375D01*
X16534Y672800D01*
X16039Y674321D01*
X15904Y675177D01*
X24427Y675177D01*
X24427Y666654D01*
X23571Y666789D01*
G37*
%LPD*%
%LPC*%
G36*
X23571Y692189D02*
X23571Y692189D01*
X22050Y692684D01*
X20625Y693410D01*
X19331Y694350D01*
X18200Y695481D01*
X17260Y696775D01*
X16534Y698200D01*
X16039Y699721D01*
X15904Y700577D01*
X24427Y700577D01*
X24427Y692054D01*
X23571Y692189D01*
G37*
%LPD*%
%LPC*%
G36*
X215899Y380999D02*
X215899Y380999D01*
X215899Y381001D01*
X215901Y381001D01*
X215901Y380999D01*
X215899Y380999D01*
G37*
%LPD*%
%LPC*%
G36*
X25949Y676699D02*
X25949Y676699D01*
X25949Y676701D01*
X25951Y676701D01*
X25951Y676699D01*
X25949Y676699D01*
G37*
%LPD*%
D10*
X254550Y702100D03*
X254550Y676700D03*
X254550Y651300D03*
X254550Y625900D03*
X254550Y600500D03*
X254550Y575100D03*
X254550Y549700D03*
X254550Y524300D03*
X254550Y498900D03*
X254550Y473500D03*
X254550Y448100D03*
X254550Y422700D03*
X254550Y397300D03*
X254550Y371900D03*
X254550Y346500D03*
X254550Y321100D03*
X254550Y295700D03*
X254550Y270300D03*
X254550Y244900D03*
X254550Y219500D03*
X254550Y194100D03*
X254550Y168700D03*
X254550Y143300D03*
X254550Y117900D03*
X254550Y92500D03*
X254550Y67100D03*
D11*
X137250Y584000D03*
X137250Y572000D03*
X125250Y572000D03*
X125250Y584000D03*
X125250Y596000D03*
X125250Y608000D03*
X137250Y608000D03*
X137250Y596000D03*
X149250Y572000D03*
X149250Y584000D03*
X149250Y596000D03*
X149250Y608000D03*
X161250Y608000D03*
X161250Y596000D03*
X161250Y584000D03*
X161250Y572000D03*
D10*
X25950Y702100D03*
X25950Y676700D03*
X25950Y651300D03*
X25950Y625900D03*
X25950Y600500D03*
X25950Y575100D03*
X25950Y549700D03*
X25950Y524300D03*
X25950Y498900D03*
X25950Y473500D03*
X25950Y448100D03*
X25950Y422700D03*
X25950Y397300D03*
X25950Y371900D03*
X25950Y346500D03*
X25950Y321100D03*
X25950Y295700D03*
X25950Y270300D03*
X25950Y244900D03*
X25950Y219500D03*
X25950Y194100D03*
X25950Y168700D03*
X25950Y143300D03*
X25950Y117900D03*
X25950Y92500D03*
X25950Y67100D03*
D12*
X189550Y68650D03*
X103150Y68650D03*
D13*
X189550Y26850D03*
X103150Y26850D03*
D10*
X215900Y381000D03*
X215900Y355600D03*
X215900Y330200D03*
X215900Y304800D03*
D14*
X231140Y665480D03*
X231140Y684530D03*
D15*
X53170Y631350D03*
D16*
X113170Y502540D03*
X48260Y705000D03*
X86360Y705000D03*
X99060Y705080D03*
X180340Y705000D03*
X193040Y705000D03*
X205740Y705000D03*
X231140Y705000D03*
X183250Y662540D03*
X138570Y501270D03*
X73660Y705000D03*
X60960Y705000D03*
X218440Y705000D03*
X227330Y71120D03*
X52070Y71120D03*
X167640Y382270D03*
X46990Y334010D03*
X45720Y534670D03*
X45720Y510540D03*
X45720Y486410D03*
X123190Y251460D03*
X182880Y114300D03*
X62230Y204470D03*
X66040Y157480D03*
X113030Y314960D03*
D15*
X81110Y659290D03*
D16*
X69850Y182880D03*
X240792Y232156D03*
X214630Y160020D03*
X233680Y105410D03*
X152400Y167640D03*
D15*
X201930Y564896D03*
D16*
X198120Y505460D03*
X173990Y317500D03*
X173990Y345440D03*
X161290Y362966D03*
X118110Y195580D03*
X109728Y551688D03*
X48260Y604238D03*
D17*
X163250Y620000D03*
D18*
X169106Y625856D01*
X227330Y475320D02*
X254550Y448100D01*
X227330Y475320D02*
X227330Y610870D01*
X212344Y625856D01*
X169106Y625856D01*
D17*
X158250Y620000D03*
D18*
X159198Y621678D02*
X166424Y628904D01*
X231140Y522310D02*
X254550Y498900D01*
X231140Y522310D02*
X231140Y612140D01*
X214376Y628904D01*
X166424Y628904D01*
X159198Y620948D02*
X158250Y620000D01*
X159198Y620948D02*
X159198Y621678D01*
D17*
X153250Y620000D03*
D18*
X154198Y620948D01*
X154198Y621678D01*
X164472Y631952D01*
X242780Y549700D02*
X254550Y549700D01*
X234950Y557530D02*
X234950Y613410D01*
X216408Y631952D01*
X234950Y557530D02*
X242780Y549700D01*
X216408Y631952D02*
X164472Y631952D01*
D17*
X148250Y620000D03*
D18*
X149198Y620948D01*
X149198Y621678D01*
X162520Y635000D01*
X218440Y635000D01*
X238760Y614680D02*
X238760Y604520D01*
X242780Y600500D01*
X254550Y600500D01*
X238760Y614680D02*
X218440Y635000D01*
D17*
X143256Y618744D03*
D18*
X143256Y620275D02*
X170180Y647199D01*
X170180Y669290D01*
X177800Y676910D01*
X226060Y676910D01*
X231140Y671830D01*
X231140Y665480D01*
X143256Y620275D02*
X143256Y618744D01*
D17*
X137922Y618490D03*
D18*
X137922Y620522D01*
X166370Y648970D02*
X166370Y670560D01*
X176530Y680720D01*
X227330Y680720D01*
X231140Y684530D01*
X166370Y648970D02*
X137922Y620522D01*
D16*
X107950Y571754D03*
D18*
X104394Y571754D01*
X102870Y570230D01*
X102870Y400050D01*
X100120Y397300D02*
X25950Y397300D01*
X100120Y397300D02*
X102870Y400050D01*
D17*
X113250Y580000D03*
D18*
X97580Y422700D02*
X25950Y422700D01*
X97580Y422700D02*
X99060Y424180D01*
X99060Y572462D02*
X106599Y580000D01*
X113250Y580000D01*
X99060Y572462D02*
X99060Y424180D01*
X95040Y448100D02*
X25950Y448100D01*
X95040Y448100D02*
X95250Y448310D01*
D16*
X95532Y577850D03*
D18*
X95250Y577568D01*
X95250Y448310D01*
X28280Y471170D02*
X25950Y473500D01*
X28280Y471170D02*
X91440Y471170D01*
X89464Y575337D02*
X89464Y580364D01*
X89464Y575337D02*
X91440Y573361D01*
X91440Y471170D01*
D17*
X113284Y584962D03*
D18*
X94063Y584962D01*
X89464Y580364D01*
D17*
X113250Y590000D03*
D18*
X112784Y589534D01*
X82804Y589534D01*
X80716Y587446D02*
X80716Y557583D01*
X67753Y544620D01*
X80716Y587446D02*
X82804Y589534D01*
X67753Y544620D02*
X31030Y544620D01*
X25950Y549700D01*
D16*
X73660Y579120D03*
X73660Y374650D03*
D18*
X28700Y374650D01*
X25950Y371900D01*
D17*
X113250Y595000D03*
D18*
X112190Y596060D01*
D16*
X48260Y554990D03*
D18*
X64452Y554990D02*
X67310Y557848D01*
X64452Y554990D02*
X48260Y554990D01*
X67310Y557848D02*
X67310Y588010D01*
X71882Y592582D01*
X98023Y592582D01*
X101501Y596060D02*
X112190Y596060D01*
X101501Y596060D02*
X98023Y592582D01*
D16*
X47968Y566712D03*
X61189Y584327D03*
D18*
X58420Y577164D02*
X47968Y566712D01*
X58420Y581558D02*
X61189Y584327D01*
X58420Y581558D02*
X58420Y577164D01*
D16*
X48260Y579120D03*
D18*
X59690Y595630D02*
X96761Y595630D01*
D17*
X113284Y600000D03*
D18*
X101131Y600000D02*
X96761Y595630D01*
X101131Y600000D02*
X113284Y600000D01*
X59690Y595630D02*
X54610Y590550D01*
X54610Y585470D02*
X48260Y579120D01*
X54610Y585470D02*
X54610Y590550D01*
D17*
X113250Y605000D03*
D18*
X101820Y605000D01*
X96260Y599440D01*
X55880Y599440D01*
X48260Y591820D01*
D16*
X48260Y591820D03*
X91440Y606084D03*
X124460Y401896D03*
D18*
X121920Y399356D01*
X121920Y384810D01*
X47625Y310515D01*
X47625Y224155D01*
X42970Y219500D01*
X25950Y219500D01*
D17*
X133250Y565000D03*
D18*
X27386Y194100D02*
X46226Y175260D01*
X27386Y194100D02*
X25950Y194100D01*
X109220Y175260D02*
X131980Y198020D01*
X109220Y175260D02*
X46226Y175260D01*
X131980Y563730D02*
X133250Y565000D01*
X131980Y563730D02*
X131980Y198020D01*
D16*
X147320Y539750D03*
X78674Y533400D03*
D18*
X69574Y524300D01*
X25950Y524300D01*
X25950Y498900D02*
X63290Y498900D01*
X78740Y514350D02*
X78740Y519430D01*
D16*
X78740Y519430D03*
D18*
X78740Y514350D02*
X63290Y498900D01*
D16*
X154714Y532064D03*
D18*
X154648Y532130D01*
X146050Y532130D01*
X138430Y539750D01*
X138430Y565150D01*
D17*
X138430Y565150D03*
D16*
X114300Y114300D03*
X154940Y114300D03*
X149860Y464820D03*
D18*
X149860Y450850D01*
X135890Y436880D01*
X135890Y196850D01*
D16*
X104140Y168628D03*
D18*
X107668Y168628D02*
X135890Y196850D01*
X107668Y168628D02*
X104140Y168628D01*
X104068Y168700D01*
X25950Y168700D01*
D17*
X143250Y565000D03*
D18*
X143250Y553211D01*
X156492Y471452D02*
X156492Y452402D01*
X156492Y471452D02*
X163830Y478790D01*
X89960Y145840D02*
X28490Y145840D01*
X25950Y143300D01*
X89960Y145840D02*
X139700Y195580D01*
X139700Y435610D02*
X156492Y452402D01*
X139700Y435610D02*
X139700Y195580D01*
X163830Y478790D02*
X163830Y532631D01*
X143250Y553211D01*
X68580Y119380D02*
X27430Y119380D01*
X25950Y117900D01*
X162560Y453390D02*
X162560Y464820D01*
X162560Y453390D02*
X143510Y434340D01*
D16*
X162560Y464820D03*
D18*
X143510Y194310D02*
X68580Y119380D01*
X143510Y194310D02*
X143510Y434340D01*
D17*
X148250Y565000D03*
D18*
X148250Y552790D01*
X167640Y533400D01*
X147320Y193040D02*
X48260Y93980D01*
X27430Y93980D01*
X25950Y92500D01*
X147320Y193040D02*
X147320Y433070D01*
X167640Y472440D02*
X167640Y533400D01*
X167640Y472440D02*
X167640Y471170D01*
X167640Y468322D01*
X168628Y467334D01*
X168628Y454378D01*
X147320Y433070D01*
D16*
X198120Y167640D03*
X158524Y401320D03*
D17*
X153250Y565000D03*
D18*
X153250Y552870D01*
X151130Y191770D02*
X26460Y67100D01*
X25950Y67100D01*
X151130Y191770D02*
X151130Y431800D01*
X171676Y452346D01*
X171676Y534444D01*
X153250Y552870D01*
X204680Y117900D02*
X254550Y117900D01*
X184150Y460220D02*
X179578Y464820D01*
X184150Y460220D02*
X184150Y138430D01*
X204680Y117900D01*
D16*
X179578Y464820D03*
X186944Y617220D03*
D17*
X168250Y610000D03*
D18*
X189338Y610000D01*
X223520Y575818D01*
X235160Y397300D02*
X254550Y397300D01*
X223520Y408940D02*
X223520Y575818D01*
X223520Y408940D02*
X235160Y397300D01*
D16*
X196088Y617220D03*
D17*
X168250Y605000D03*
D18*
X190020Y605000D02*
X219710Y575310D01*
X236220Y388620D02*
X236220Y353060D01*
X242780Y346500D01*
X254550Y346500D01*
X190020Y605000D02*
X168250Y605000D01*
X219710Y575310D02*
X219710Y405130D01*
X236220Y388620D01*
D16*
X205232Y617220D03*
X231140Y411480D03*
D17*
X168250Y600000D03*
D18*
X254550Y307091D02*
X254550Y295700D01*
X189940Y600000D02*
X168250Y600000D01*
X189940Y600000D02*
X215900Y574040D01*
X215900Y403860D01*
X251761Y309880D02*
X254550Y307091D01*
X236220Y309880D02*
X233680Y312420D01*
X233680Y337820D01*
X228600Y342900D01*
X200660Y342900D01*
X195580Y347980D02*
X195580Y392684D01*
X236220Y309880D02*
X251761Y309880D01*
X200660Y342900D02*
X195580Y347980D01*
X195580Y392684D02*
X201676Y398780D01*
X210820Y398780D02*
X215900Y403860D01*
X210820Y398780D02*
X201676Y398780D01*
D16*
X205232Y604012D03*
D17*
X168250Y595000D03*
D16*
X198120Y177800D03*
X231140Y289560D03*
X209069Y407189D03*
D18*
X189860Y595000D02*
X168250Y595000D01*
X212090Y572770D02*
X212090Y410210D01*
X209069Y407189D01*
X212090Y572770D02*
X189860Y595000D01*
D17*
X168250Y590000D03*
D16*
X55880Y185420D03*
D18*
X168250Y590000D02*
X185044Y590000D01*
D16*
X188259Y586785D03*
X73812Y365562D03*
X78740Y502920D03*
D18*
X185044Y590000D02*
X188259Y586785D01*
D16*
X215900Y217170D03*
D18*
X198429Y217170D01*
X191770Y223829D01*
X191770Y405130D02*
X208280Y421640D01*
X208280Y570484D01*
D16*
X188877Y575918D03*
D18*
X191770Y405130D02*
X191770Y223829D01*
X189385Y576426D02*
X202338Y576426D01*
X189385Y576426D02*
X188877Y575918D01*
X202338Y576426D02*
X208280Y570484D01*
D17*
X168250Y585000D03*
D18*
X241640Y207010D02*
X254550Y194100D01*
X241640Y207010D02*
X220980Y207010D01*
D16*
X210820Y129540D03*
D18*
X220980Y139700D02*
X220980Y207010D01*
X220980Y139700D02*
X210820Y129540D01*
X179070Y535940D02*
X172302Y542708D01*
X172302Y582948D02*
X171198Y584052D01*
X172302Y582948D02*
X172302Y574040D01*
X172302Y570230D01*
X172302Y563880D01*
X172302Y561340D01*
X172302Y542708D01*
X169198Y584052D02*
X168250Y585000D01*
X169198Y584052D02*
X171198Y584052D01*
X190500Y207010D02*
X220980Y207010D01*
X190500Y207010D02*
X187960Y209550D01*
X179070Y497840D02*
X179070Y535940D01*
X187960Y482909D02*
X187960Y209550D01*
X189230Y484179D02*
X189230Y487680D01*
X189230Y484179D02*
X187960Y482909D01*
X189230Y487680D02*
X179070Y497840D01*
D19*
X172302Y561340D03*
D17*
X168250Y580000D03*
D18*
X225000Y92500D02*
X254550Y92500D01*
X225000Y92500D02*
X180340Y137160D01*
X180340Y397792D01*
X176812Y401320D01*
D16*
X176812Y401320D03*
X182118Y485648D03*
D18*
X175260Y492506D01*
X168250Y562610D02*
X168250Y580000D01*
X168250Y562610D02*
X168250Y542412D01*
X175260Y535402D01*
X175260Y492506D01*
X154940Y388170D02*
X154940Y246506D01*
X176530Y224916D01*
X176530Y135890D01*
D16*
X197131Y454633D03*
X167640Y401320D03*
D18*
X167640Y400870D01*
X154940Y388170D01*
X176530Y135890D02*
X245320Y67100D01*
X254550Y67100D01*
D15*
X180340Y550926D03*
D16*
X66040Y193548D03*
X182880Y101600D03*
X99060Y99060D03*
X196568Y464820D03*
X95250Y278130D03*
X119380Y459740D03*
X188250Y505000D03*
X102494Y617446D03*
X78674Y545818D03*
X210820Y185420D03*
X178006Y619314D03*
X204772Y660400D03*
X213966Y284434D03*
X107140Y345784D03*
X119380Y487680D03*
X193040Y494030D03*
X119380Y477520D03*
X196850Y481330D03*
X125682Y344514D03*
X210820Y193802D03*
X192786Y556006D03*
X233680Y273812D03*
X231140Y214088D03*
X189230Y566066D03*
D18*
X204470Y427428D02*
X198240Y421197D01*
D16*
X198240Y421197D03*
X200660Y317500D03*
D18*
X198120Y314960D01*
X198120Y276860D01*
X201168Y273812D01*
X233680Y273812D01*
X233680Y216628D01*
X231140Y214088D01*
X204470Y553432D02*
X191836Y566066D01*
X189230Y566066D01*
X204470Y553432D02*
X204470Y427428D01*
D16*
X138176Y470408D03*
X231140Y458794D03*
X104140Y271780D03*
X173990Y302260D03*
X101600Y294640D03*
X104140Y233680D03*
D18*
X114300Y281940D02*
X101600Y294640D01*
X114300Y281940D02*
X114300Y238760D01*
X109220Y233680D01*
X104140Y233680D01*
D16*
X93980Y299720D03*
X120734Y218440D03*
X215900Y259080D03*
X173990Y246296D03*
X215900Y246380D03*
X173990Y236220D03*
X215900Y233680D03*
X159485Y231257D03*
X95250Y265430D03*
D18*
X92710Y262890D01*
X92710Y212090D01*
X106680Y198120D01*
D16*
X106680Y198120D03*
X114300Y137160D03*
D18*
X154940Y137160D01*
D16*
X154940Y137160D03*
X164112Y284904D03*
X161714Y302034D03*
D18*
X164112Y299636D01*
X164112Y284904D01*
D16*
X101600Y247650D03*
X83820Y304800D03*
X127282Y93006D03*
X158552Y93980D03*
X120650Y208280D03*
X88900Y364490D03*
X107763Y355120D03*
X171450Y363502D03*
X125912Y307732D03*
X78740Y325536D03*
X144780Y68580D03*
X170180Y101600D03*
X170180Y190500D03*
D18*
X172720Y187960D02*
X172720Y104140D01*
X170180Y101600D01*
X172720Y187960D02*
X170180Y190500D01*
M02*
