G04 EAGLE Gerber RS-274X export*
G75*
%MOMM*%
%FSLAX34Y34*%
%LPD*%
%INCopper Layer 15*%
%IPPOS*%
%AMOC8*
5,1,8,0,0,1.08239X$1,22.5*%
G01*
%ADD10C,1.524000*%
%ADD11C,0.858000*%
%ADD12C,1.358000*%
%ADD13C,1.108000*%
%ADD14C,1.308000*%
%ADD15C,0.706400*%
%ADD16C,0.756400*%
%ADD17C,0.152400*%
%ADD18C,0.355600*%

G36*
X235713Y10180D02*
X235713Y10180D01*
X235831Y10198D01*
X235835Y10200D01*
X235839Y10200D01*
X235944Y10256D01*
X236050Y10311D01*
X236052Y10314D01*
X236056Y10316D01*
X236138Y10402D01*
X236221Y10487D01*
X236223Y10491D01*
X236226Y10494D01*
X236276Y10602D01*
X236327Y10709D01*
X236327Y10713D01*
X236329Y10717D01*
X236342Y10834D01*
X236357Y10953D01*
X236356Y10958D01*
X236356Y10961D01*
X236353Y10975D01*
X236331Y11119D01*
X234839Y16688D01*
X234839Y23312D01*
X236554Y29712D01*
X239866Y35449D01*
X244551Y40134D01*
X250288Y43446D01*
X256688Y45161D01*
X263312Y45161D01*
X268881Y43669D01*
X269000Y43657D01*
X269117Y43644D01*
X269122Y43645D01*
X269126Y43644D01*
X269241Y43671D01*
X269358Y43696D01*
X269361Y43698D01*
X269366Y43699D01*
X269467Y43761D01*
X269569Y43822D01*
X269572Y43825D01*
X269575Y43828D01*
X269652Y43919D01*
X269729Y44009D01*
X269730Y44013D01*
X269733Y44016D01*
X269776Y44126D01*
X269807Y44204D01*
X269811Y44212D01*
X269811Y44214D01*
X269821Y44237D01*
X269821Y44242D01*
X269823Y44245D01*
X269823Y44259D01*
X269839Y44404D01*
X269839Y708025D01*
X269836Y708045D01*
X269838Y708064D01*
X269816Y708166D01*
X269800Y708268D01*
X269790Y708285D01*
X269786Y708305D01*
X269733Y708394D01*
X269684Y708485D01*
X269670Y708499D01*
X269660Y708516D01*
X269581Y708583D01*
X269506Y708655D01*
X269488Y708663D01*
X269473Y708676D01*
X269377Y708715D01*
X269283Y708758D01*
X269263Y708760D01*
X269245Y708768D01*
X269078Y708786D01*
X263918Y708786D01*
X263872Y708779D01*
X263826Y708781D01*
X263752Y708759D01*
X263675Y708747D01*
X263634Y708725D01*
X263590Y708712D01*
X263526Y708668D01*
X263458Y708631D01*
X263426Y708598D01*
X263388Y708572D01*
X263342Y708509D01*
X263288Y708453D01*
X263269Y708411D01*
X263241Y708375D01*
X263217Y708301D01*
X263185Y708230D01*
X263179Y708184D01*
X263165Y708141D01*
X263166Y708063D01*
X263157Y707986D01*
X263167Y707941D01*
X263168Y707895D01*
X263206Y707763D01*
X263210Y707745D01*
X263212Y707741D01*
X263214Y707734D01*
X264711Y704121D01*
X264711Y700079D01*
X263164Y696344D01*
X260306Y693486D01*
X256571Y691939D01*
X252529Y691939D01*
X248794Y693486D01*
X245936Y696344D01*
X244389Y700079D01*
X244389Y704121D01*
X245886Y707734D01*
X245896Y707778D01*
X245915Y707820D01*
X245924Y707897D01*
X245942Y707973D01*
X245938Y708019D01*
X245943Y708064D01*
X245926Y708141D01*
X245919Y708218D01*
X245900Y708260D01*
X245890Y708305D01*
X245850Y708372D01*
X245819Y708443D01*
X245788Y708477D01*
X245764Y708516D01*
X245705Y708567D01*
X245652Y708624D01*
X245612Y708646D01*
X245577Y708676D01*
X245505Y708705D01*
X245437Y708742D01*
X245392Y708751D01*
X245349Y708768D01*
X245213Y708783D01*
X245195Y708786D01*
X245190Y708785D01*
X245182Y708786D01*
X35318Y708786D01*
X35272Y708779D01*
X35226Y708781D01*
X35152Y708759D01*
X35075Y708747D01*
X35034Y708725D01*
X34990Y708712D01*
X34926Y708668D01*
X34858Y708631D01*
X34826Y708598D01*
X34788Y708572D01*
X34742Y708509D01*
X34688Y708453D01*
X34669Y708411D01*
X34641Y708375D01*
X34617Y708301D01*
X34585Y708230D01*
X34579Y708184D01*
X34565Y708141D01*
X34566Y708063D01*
X34557Y707986D01*
X34567Y707941D01*
X34568Y707895D01*
X34606Y707763D01*
X34610Y707745D01*
X34612Y707741D01*
X34614Y707734D01*
X36111Y704121D01*
X36111Y700079D01*
X34564Y696344D01*
X31706Y693486D01*
X27971Y691939D01*
X23929Y691939D01*
X20194Y693486D01*
X17336Y696344D01*
X15789Y700079D01*
X15789Y704121D01*
X17286Y707734D01*
X17296Y707778D01*
X17315Y707820D01*
X17324Y707897D01*
X17342Y707973D01*
X17338Y708019D01*
X17343Y708064D01*
X17326Y708141D01*
X17319Y708218D01*
X17300Y708260D01*
X17290Y708305D01*
X17250Y708372D01*
X17219Y708443D01*
X17188Y708477D01*
X17164Y708516D01*
X17105Y708567D01*
X17052Y708624D01*
X17012Y708646D01*
X16977Y708676D01*
X16905Y708705D01*
X16837Y708742D01*
X16792Y708751D01*
X16749Y708768D01*
X16613Y708783D01*
X16595Y708786D01*
X16590Y708785D01*
X16582Y708786D01*
X10922Y708786D01*
X10902Y708783D01*
X10883Y708785D01*
X10781Y708763D01*
X10679Y708747D01*
X10662Y708737D01*
X10642Y708733D01*
X10553Y708680D01*
X10462Y708631D01*
X10448Y708617D01*
X10431Y708607D01*
X10364Y708528D01*
X10292Y708453D01*
X10284Y708435D01*
X10271Y708420D01*
X10232Y708324D01*
X10189Y708230D01*
X10187Y708210D01*
X10179Y708192D01*
X10161Y708025D01*
X10161Y44404D01*
X10163Y44390D01*
X10162Y44378D01*
X10175Y44316D01*
X10180Y44287D01*
X10198Y44169D01*
X10200Y44165D01*
X10200Y44161D01*
X10256Y44056D01*
X10311Y43950D01*
X10314Y43948D01*
X10316Y43944D01*
X10402Y43862D01*
X10487Y43779D01*
X10491Y43777D01*
X10494Y43774D01*
X10602Y43724D01*
X10709Y43673D01*
X10713Y43673D01*
X10717Y43671D01*
X10834Y43658D01*
X10953Y43643D01*
X10958Y43644D01*
X10961Y43644D01*
X10975Y43647D01*
X11119Y43669D01*
X16688Y45161D01*
X23312Y45161D01*
X29712Y43446D01*
X35449Y40134D01*
X40134Y35449D01*
X43446Y29712D01*
X45161Y23312D01*
X45161Y16688D01*
X43669Y11119D01*
X43657Y11000D01*
X43644Y10883D01*
X43645Y10878D01*
X43644Y10874D01*
X43671Y10759D01*
X43696Y10642D01*
X43698Y10639D01*
X43699Y10634D01*
X43761Y10533D01*
X43822Y10431D01*
X43825Y10428D01*
X43828Y10425D01*
X43919Y10348D01*
X44009Y10271D01*
X44013Y10270D01*
X44016Y10267D01*
X44126Y10224D01*
X44237Y10179D01*
X44242Y10179D01*
X44245Y10177D01*
X44259Y10177D01*
X44404Y10161D01*
X235596Y10161D01*
X235713Y10180D01*
G37*
%LPC*%
G36*
X196862Y161317D02*
X196862Y161317D01*
X194538Y162280D01*
X192704Y164114D01*
X192630Y164167D01*
X192561Y164227D01*
X192530Y164239D01*
X192504Y164258D01*
X192417Y164285D01*
X192332Y164319D01*
X192291Y164323D01*
X192269Y164330D01*
X192237Y164329D01*
X192166Y164337D01*
X160049Y164337D01*
X138684Y185703D01*
X138684Y386151D01*
X151978Y399445D01*
X152031Y399519D01*
X152091Y399588D01*
X152103Y399619D01*
X152122Y399645D01*
X152149Y399732D01*
X152183Y399817D01*
X152187Y399858D01*
X152194Y399880D01*
X152193Y399912D01*
X152201Y399983D01*
X152201Y402578D01*
X153164Y404902D01*
X154942Y406680D01*
X157266Y407643D01*
X159782Y407643D01*
X162106Y406680D01*
X162544Y406242D01*
X162560Y406230D01*
X162572Y406215D01*
X162659Y406159D01*
X162743Y406098D01*
X162762Y406093D01*
X162779Y406082D01*
X162880Y406057D01*
X162979Y406026D01*
X162998Y406027D01*
X163018Y406022D01*
X163121Y406030D01*
X163224Y406032D01*
X163243Y406039D01*
X163263Y406041D01*
X163358Y406081D01*
X163455Y406117D01*
X163471Y406129D01*
X163489Y406137D01*
X163620Y406242D01*
X164058Y406680D01*
X166382Y407643D01*
X168898Y407643D01*
X171222Y406680D01*
X173000Y404902D01*
X173963Y402578D01*
X173963Y400062D01*
X173000Y397738D01*
X171222Y395960D01*
X168898Y394997D01*
X166382Y394997D01*
X164058Y395960D01*
X163620Y396398D01*
X163604Y396410D01*
X163592Y396425D01*
X163505Y396481D01*
X163421Y396542D01*
X163402Y396547D01*
X163385Y396558D01*
X163284Y396583D01*
X163185Y396614D01*
X163166Y396613D01*
X163146Y396618D01*
X163043Y396610D01*
X162940Y396608D01*
X162921Y396601D01*
X162901Y396599D01*
X162806Y396559D01*
X162709Y396523D01*
X162693Y396511D01*
X162675Y396503D01*
X162544Y396398D01*
X162106Y395960D01*
X159782Y394997D01*
X157187Y394997D01*
X157097Y394983D01*
X157006Y394975D01*
X156977Y394963D01*
X156945Y394958D01*
X156864Y394915D01*
X156780Y394879D01*
X156748Y394853D01*
X156727Y394842D01*
X156705Y394819D01*
X156649Y394774D01*
X145512Y383637D01*
X145459Y383563D01*
X145400Y383494D01*
X145387Y383464D01*
X145369Y383438D01*
X145342Y383351D01*
X145308Y383266D01*
X145303Y383225D01*
X145296Y383203D01*
X145297Y383170D01*
X145289Y383099D01*
X145289Y188754D01*
X145304Y188664D01*
X145311Y188573D01*
X145324Y188543D01*
X145329Y188511D01*
X145372Y188431D01*
X145407Y188347D01*
X145433Y188315D01*
X145444Y188294D01*
X145467Y188272D01*
X145512Y188216D01*
X162562Y171166D01*
X162636Y171113D01*
X162706Y171053D01*
X162736Y171041D01*
X162762Y171022D01*
X162849Y170995D01*
X162934Y170961D01*
X162975Y170957D01*
X162997Y170950D01*
X163029Y170951D01*
X163101Y170943D01*
X192166Y170943D01*
X192256Y170957D01*
X192347Y170965D01*
X192377Y170977D01*
X192408Y170982D01*
X192489Y171025D01*
X192573Y171061D01*
X192605Y171087D01*
X192626Y171098D01*
X192648Y171121D01*
X192704Y171166D01*
X193720Y172182D01*
X193732Y172198D01*
X193747Y172210D01*
X193803Y172298D01*
X193864Y172381D01*
X193869Y172400D01*
X193880Y172417D01*
X193905Y172518D01*
X193936Y172617D01*
X193935Y172636D01*
X193940Y172656D01*
X193932Y172759D01*
X193930Y172862D01*
X193923Y172881D01*
X193921Y172901D01*
X193881Y172996D01*
X193845Y173093D01*
X193833Y173109D01*
X193825Y173127D01*
X193720Y173258D01*
X192760Y174218D01*
X191797Y176542D01*
X191797Y179058D01*
X192760Y181382D01*
X194538Y183160D01*
X196862Y184123D01*
X199378Y184123D01*
X201702Y183160D01*
X203480Y181382D01*
X204443Y179058D01*
X204443Y176542D01*
X203480Y174218D01*
X202520Y173258D01*
X202508Y173242D01*
X202493Y173230D01*
X202437Y173142D01*
X202376Y173059D01*
X202371Y173040D01*
X202360Y173023D01*
X202335Y172922D01*
X202304Y172823D01*
X202305Y172804D01*
X202300Y172784D01*
X202308Y172681D01*
X202310Y172578D01*
X202317Y172559D01*
X202319Y172539D01*
X202359Y172444D01*
X202395Y172347D01*
X202407Y172331D01*
X202415Y172313D01*
X202520Y172182D01*
X203480Y171222D01*
X204443Y168898D01*
X204443Y166382D01*
X203480Y164058D01*
X201702Y162280D01*
X199378Y161317D01*
X196862Y161317D01*
G37*
%LPD*%
%LPC*%
G36*
X119392Y201957D02*
X119392Y201957D01*
X117068Y202920D01*
X115290Y204698D01*
X115158Y205018D01*
X115123Y205073D01*
X115097Y205134D01*
X115045Y205199D01*
X115028Y205227D01*
X115013Y205239D01*
X114993Y205265D01*
X113543Y206714D01*
X63204Y257053D01*
X60451Y259806D01*
X60451Y342149D01*
X63204Y344902D01*
X76584Y358281D01*
X76626Y358341D01*
X76669Y358385D01*
X76678Y358406D01*
X76703Y358435D01*
X76712Y358460D01*
X76727Y358481D01*
X76755Y358571D01*
X76772Y358608D01*
X76774Y358620D01*
X76791Y358665D01*
X76792Y358691D01*
X76800Y358716D01*
X76797Y358813D01*
X76798Y358844D01*
X76799Y358853D01*
X76799Y358855D01*
X76801Y358911D01*
X76794Y358936D01*
X76793Y358962D01*
X76760Y359053D01*
X76733Y359147D01*
X76718Y359168D01*
X76709Y359193D01*
X76648Y359269D01*
X76592Y359349D01*
X76571Y359365D01*
X76555Y359385D01*
X76473Y359438D01*
X76395Y359496D01*
X76370Y359504D01*
X76348Y359518D01*
X76254Y359542D01*
X76161Y359572D01*
X76135Y359572D01*
X76110Y359578D01*
X76049Y359573D01*
X76039Y359574D01*
X76030Y359574D01*
X76006Y359570D01*
X75915Y359570D01*
X75884Y359560D01*
X75864Y359559D01*
X75834Y359546D01*
X75805Y359538D01*
X75787Y359535D01*
X75778Y359530D01*
X75754Y359523D01*
X75070Y359239D01*
X72554Y359239D01*
X70230Y360202D01*
X68452Y361980D01*
X67489Y364304D01*
X67489Y366820D01*
X68452Y369144D01*
X68800Y369492D01*
X68812Y369508D01*
X68827Y369520D01*
X68883Y369608D01*
X68943Y369692D01*
X68949Y369711D01*
X68960Y369727D01*
X68985Y369828D01*
X69016Y369927D01*
X69015Y369947D01*
X69020Y369966D01*
X69012Y370069D01*
X69009Y370172D01*
X69003Y370191D01*
X69001Y370211D01*
X68961Y370306D01*
X68925Y370403D01*
X68913Y370419D01*
X68905Y370437D01*
X68800Y370568D01*
X68300Y371068D01*
X67337Y373392D01*
X67337Y375908D01*
X68300Y378232D01*
X70078Y380010D01*
X72402Y380973D01*
X74918Y380973D01*
X77242Y380010D01*
X79020Y378232D01*
X79983Y375908D01*
X79983Y373392D01*
X79020Y371068D01*
X78672Y370720D01*
X78660Y370704D01*
X78645Y370692D01*
X78589Y370604D01*
X78528Y370520D01*
X78523Y370501D01*
X78512Y370485D01*
X78486Y370384D01*
X78456Y370285D01*
X78457Y370265D01*
X78452Y370246D01*
X78460Y370143D01*
X78462Y370039D01*
X78469Y370021D01*
X78471Y370001D01*
X78511Y369906D01*
X78547Y369808D01*
X78559Y369793D01*
X78567Y369775D01*
X78672Y369644D01*
X79172Y369144D01*
X80135Y366820D01*
X80135Y364304D01*
X79851Y363620D01*
X79843Y363587D01*
X79843Y363586D01*
X79843Y363584D01*
X79829Y363525D01*
X79800Y363432D01*
X79801Y363406D01*
X79795Y363380D01*
X79804Y363284D01*
X79806Y363186D01*
X79815Y363161D01*
X79818Y363135D01*
X79858Y363046D01*
X79891Y362955D01*
X79907Y362935D01*
X79918Y362911D01*
X79984Y362839D01*
X80045Y362763D01*
X80067Y362749D01*
X80084Y362730D01*
X80169Y362683D01*
X80252Y362630D01*
X80277Y362624D01*
X80300Y362611D01*
X80396Y362594D01*
X80490Y362570D01*
X80516Y362572D01*
X80542Y362567D01*
X80638Y362581D01*
X80735Y362589D01*
X80759Y362599D01*
X80785Y362603D01*
X80872Y362647D01*
X80962Y362685D01*
X80987Y362706D01*
X81004Y362715D01*
X81027Y362738D01*
X81093Y362790D01*
X82354Y364052D01*
X82407Y364126D01*
X82467Y364195D01*
X82479Y364225D01*
X82498Y364252D01*
X82525Y364339D01*
X82559Y364423D01*
X82563Y364464D01*
X82570Y364487D01*
X82569Y364519D01*
X82577Y364590D01*
X82577Y365748D01*
X83540Y368072D01*
X85318Y369850D01*
X87642Y370813D01*
X90158Y370813D01*
X92482Y369850D01*
X94260Y368072D01*
X95223Y365748D01*
X95223Y363232D01*
X94260Y360908D01*
X92482Y359130D01*
X90158Y358167D01*
X89000Y358167D01*
X88910Y358153D01*
X88819Y358145D01*
X88789Y358133D01*
X88757Y358128D01*
X88677Y358085D01*
X88593Y358049D01*
X88561Y358023D01*
X88540Y358012D01*
X88518Y357989D01*
X88462Y357944D01*
X69312Y338794D01*
X69269Y338735D01*
X69224Y338688D01*
X69216Y338671D01*
X69199Y338651D01*
X69187Y338621D01*
X69168Y338594D01*
X69143Y338513D01*
X69121Y338464D01*
X69119Y338452D01*
X69107Y338423D01*
X69103Y338382D01*
X69096Y338359D01*
X69097Y338327D01*
X69089Y338256D01*
X69089Y263699D01*
X69103Y263609D01*
X69111Y263518D01*
X69123Y263488D01*
X69128Y263456D01*
X69171Y263376D01*
X69207Y263292D01*
X69233Y263260D01*
X69244Y263239D01*
X69267Y263217D01*
X69312Y263161D01*
X96929Y235543D01*
X96966Y235517D01*
X96997Y235483D01*
X97066Y235445D01*
X97129Y235400D01*
X97172Y235386D01*
X97213Y235364D01*
X97289Y235350D01*
X97364Y235328D01*
X97410Y235329D01*
X97455Y235321D01*
X97532Y235332D01*
X97610Y235334D01*
X97653Y235350D01*
X97698Y235356D01*
X97767Y235392D01*
X97841Y235418D01*
X97876Y235447D01*
X97917Y235468D01*
X97972Y235523D01*
X98033Y235572D01*
X98057Y235611D01*
X98090Y235643D01*
X98156Y235763D01*
X98166Y235779D01*
X98167Y235784D01*
X98171Y235790D01*
X98780Y237262D01*
X100558Y239040D01*
X102544Y239863D01*
X102627Y239914D01*
X102713Y239960D01*
X102731Y239978D01*
X102753Y239992D01*
X102816Y240068D01*
X102883Y240138D01*
X102894Y240162D01*
X102910Y240182D01*
X102934Y240243D01*
X102940Y240235D01*
X103018Y240176D01*
X103092Y240113D01*
X103116Y240103D01*
X103137Y240088D01*
X103230Y240058D01*
X103320Y240021D01*
X103353Y240018D01*
X103371Y240012D01*
X103404Y240012D01*
X103487Y240003D01*
X105398Y240003D01*
X107722Y239040D01*
X109500Y237262D01*
X110463Y234938D01*
X110463Y232422D01*
X109500Y230098D01*
X107722Y228320D01*
X106250Y227711D01*
X106211Y227686D01*
X106168Y227671D01*
X106108Y227622D01*
X106041Y227581D01*
X106012Y227546D01*
X105976Y227517D01*
X105934Y227451D01*
X105885Y227391D01*
X105868Y227349D01*
X105843Y227310D01*
X105824Y227234D01*
X105796Y227162D01*
X105794Y227116D01*
X105783Y227071D01*
X105789Y226994D01*
X105786Y226916D01*
X105799Y226872D01*
X105802Y226826D01*
X105833Y226755D01*
X105855Y226680D01*
X105881Y226642D01*
X105899Y226600D01*
X105984Y226493D01*
X105995Y226478D01*
X105999Y226475D01*
X106003Y226469D01*
X113126Y219346D01*
X113164Y219319D01*
X113195Y219285D01*
X113263Y219248D01*
X113326Y219203D01*
X113370Y219189D01*
X113410Y219167D01*
X113487Y219153D01*
X113561Y219130D01*
X113607Y219131D01*
X113652Y219123D01*
X113729Y219134D01*
X113807Y219137D01*
X113850Y219152D01*
X113896Y219159D01*
X113965Y219194D01*
X114038Y219221D01*
X114074Y219250D01*
X114115Y219270D01*
X114169Y219326D01*
X114230Y219375D01*
X114255Y219413D01*
X114287Y219446D01*
X114353Y219566D01*
X114363Y219582D01*
X114364Y219586D01*
X114368Y219593D01*
X115374Y222022D01*
X117152Y223800D01*
X119476Y224763D01*
X121992Y224763D01*
X124316Y223800D01*
X126094Y222022D01*
X127057Y219698D01*
X127057Y217182D01*
X126094Y214858D01*
X125092Y213856D01*
X125080Y213840D01*
X125065Y213828D01*
X125009Y213740D01*
X124948Y213657D01*
X124943Y213638D01*
X124932Y213621D01*
X124907Y213520D01*
X124876Y213421D01*
X124877Y213402D01*
X124872Y213382D01*
X124880Y213279D01*
X124882Y213176D01*
X124889Y213157D01*
X124891Y213137D01*
X124931Y213042D01*
X124967Y212945D01*
X124979Y212929D01*
X124987Y212911D01*
X125092Y212780D01*
X126010Y211862D01*
X126973Y209538D01*
X126973Y207022D01*
X126010Y204698D01*
X124232Y202920D01*
X121908Y201957D01*
X119392Y201957D01*
G37*
%LPD*%
%LPC*%
G36*
X77482Y496597D02*
X77482Y496597D01*
X75158Y497560D01*
X73324Y499394D01*
X73250Y499447D01*
X73181Y499507D01*
X73151Y499519D01*
X73124Y499538D01*
X73037Y499565D01*
X72952Y499599D01*
X72912Y499603D01*
X72889Y499610D01*
X72857Y499609D01*
X72786Y499617D01*
X71022Y499617D01*
X64007Y506632D01*
X64007Y577512D01*
X64000Y577557D01*
X64002Y577603D01*
X63980Y577678D01*
X63968Y577754D01*
X63946Y577795D01*
X63933Y577839D01*
X63889Y577903D01*
X63852Y577972D01*
X63819Y578003D01*
X63793Y578041D01*
X63730Y578088D01*
X63674Y578141D01*
X63632Y578160D01*
X63596Y578188D01*
X63522Y578212D01*
X63451Y578245D01*
X63405Y578250D01*
X63362Y578264D01*
X63284Y578263D01*
X63207Y578272D01*
X63162Y578262D01*
X63116Y578262D01*
X62985Y578224D01*
X62966Y578220D01*
X62962Y578217D01*
X62955Y578215D01*
X62446Y578004D01*
X59931Y578004D01*
X57607Y578967D01*
X55882Y580692D01*
X55824Y580734D01*
X55772Y580783D01*
X55725Y580805D01*
X55683Y580835D01*
X55614Y580856D01*
X55549Y580887D01*
X55497Y580892D01*
X55447Y580908D01*
X55376Y580906D01*
X55305Y580914D01*
X55254Y580903D01*
X55202Y580901D01*
X55134Y580877D01*
X55064Y580861D01*
X55019Y580835D01*
X54971Y580817D01*
X54915Y580772D01*
X54853Y580735D01*
X54819Y580696D01*
X54779Y580663D01*
X54740Y580603D01*
X54693Y580548D01*
X54674Y580500D01*
X54646Y580456D01*
X54628Y580387D01*
X54601Y580320D01*
X54593Y580249D01*
X54585Y580218D01*
X54587Y580194D01*
X54583Y580153D01*
X54583Y577862D01*
X53620Y575538D01*
X51842Y573760D01*
X51356Y573559D01*
X51295Y573521D01*
X51230Y573492D01*
X51191Y573457D01*
X51147Y573429D01*
X51101Y573374D01*
X51049Y573325D01*
X51023Y573280D01*
X50990Y573240D01*
X50965Y573173D01*
X50930Y573110D01*
X50921Y573059D01*
X50902Y573010D01*
X50899Y572939D01*
X50886Y572868D01*
X50894Y572816D01*
X50892Y572764D01*
X50912Y572695D01*
X50922Y572625D01*
X50946Y572578D01*
X50960Y572528D01*
X51001Y572469D01*
X51034Y572405D01*
X51071Y572369D01*
X51100Y572326D01*
X51158Y572283D01*
X51209Y572233D01*
X51272Y572199D01*
X51298Y572179D01*
X51320Y572172D01*
X51356Y572152D01*
X51550Y572072D01*
X53328Y570293D01*
X54291Y567970D01*
X54291Y565454D01*
X53328Y563130D01*
X51733Y561535D01*
X51717Y561513D01*
X51707Y561505D01*
X51694Y561485D01*
X51665Y561457D01*
X51631Y561393D01*
X51589Y561335D01*
X51581Y561308D01*
X51574Y561298D01*
X51569Y561276D01*
X51550Y561240D01*
X51538Y561169D01*
X51517Y561100D01*
X51517Y561072D01*
X51514Y561060D01*
X51516Y561037D01*
X51510Y560997D01*
X51521Y560926D01*
X51523Y560854D01*
X51532Y560828D01*
X51533Y560815D01*
X51543Y560792D01*
X51549Y560755D01*
X51583Y560691D01*
X51607Y560623D01*
X51623Y560603D01*
X51630Y560588D01*
X51650Y560562D01*
X51664Y560537D01*
X51693Y560509D01*
X51734Y560457D01*
X53620Y558572D01*
X54583Y556248D01*
X54583Y553732D01*
X53620Y551408D01*
X51842Y549630D01*
X49518Y548667D01*
X47002Y548667D01*
X44678Y549630D01*
X42900Y551408D01*
X41937Y553732D01*
X41937Y556248D01*
X42900Y558572D01*
X44496Y560167D01*
X44511Y560189D01*
X44521Y560197D01*
X44534Y560217D01*
X44563Y560245D01*
X44597Y560308D01*
X44639Y560367D01*
X44647Y560393D01*
X44654Y560404D01*
X44659Y560426D01*
X44679Y560462D01*
X44690Y560533D01*
X44712Y560602D01*
X44711Y560630D01*
X44714Y560642D01*
X44712Y560665D01*
X44719Y560705D01*
X44707Y560776D01*
X44705Y560848D01*
X44696Y560873D01*
X44695Y560887D01*
X44685Y560910D01*
X44679Y560947D01*
X44645Y561011D01*
X44621Y561079D01*
X44605Y561099D01*
X44598Y561114D01*
X44578Y561139D01*
X44564Y561165D01*
X44535Y561193D01*
X44494Y561245D01*
X42608Y563130D01*
X41645Y565454D01*
X41645Y567970D01*
X42608Y570293D01*
X44387Y572072D01*
X44872Y572273D01*
X44933Y572311D01*
X44998Y572340D01*
X45037Y572375D01*
X45081Y572403D01*
X45127Y572458D01*
X45180Y572506D01*
X45205Y572552D01*
X45238Y572592D01*
X45264Y572659D01*
X45298Y572722D01*
X45307Y572773D01*
X45326Y572822D01*
X45329Y572893D01*
X45342Y572964D01*
X45334Y573016D01*
X45336Y573068D01*
X45316Y573136D01*
X45306Y573207D01*
X45282Y573254D01*
X45268Y573304D01*
X45227Y573363D01*
X45195Y573427D01*
X45157Y573463D01*
X45128Y573506D01*
X45070Y573549D01*
X45019Y573599D01*
X44956Y573633D01*
X44930Y573653D01*
X44908Y573660D01*
X44872Y573680D01*
X44678Y573760D01*
X42900Y575538D01*
X41937Y577862D01*
X41937Y580378D01*
X42900Y582702D01*
X44678Y584480D01*
X45370Y584767D01*
X45431Y584804D01*
X45497Y584834D01*
X45535Y584869D01*
X45579Y584896D01*
X45625Y584951D01*
X45678Y585000D01*
X45703Y585046D01*
X45736Y585086D01*
X45762Y585153D01*
X45796Y585216D01*
X45806Y585267D01*
X45824Y585315D01*
X45827Y585387D01*
X45840Y585458D01*
X45833Y585509D01*
X45835Y585561D01*
X45815Y585630D01*
X45804Y585701D01*
X45781Y585747D01*
X45766Y585797D01*
X45725Y585856D01*
X45693Y585920D01*
X45656Y585957D01*
X45626Y585999D01*
X45568Y586042D01*
X45517Y586092D01*
X45454Y586127D01*
X45429Y586146D01*
X45406Y586153D01*
X45370Y586173D01*
X44678Y586460D01*
X42900Y588238D01*
X41937Y590562D01*
X41937Y593078D01*
X42243Y593815D01*
X42253Y593859D01*
X42272Y593901D01*
X42281Y593978D01*
X42299Y594054D01*
X42294Y594100D01*
X42299Y594145D01*
X42283Y594222D01*
X42276Y594299D01*
X42257Y594341D01*
X42247Y594386D01*
X42207Y594453D01*
X42176Y594524D01*
X42145Y594558D01*
X42121Y594597D01*
X42062Y594648D01*
X42009Y594705D01*
X41969Y594727D01*
X41934Y594757D01*
X41862Y594786D01*
X41794Y594823D01*
X41749Y594832D01*
X41706Y594849D01*
X41570Y594864D01*
X41552Y594867D01*
X41547Y594866D01*
X41539Y594867D01*
X35002Y594867D01*
X34912Y594853D01*
X34821Y594845D01*
X34791Y594833D01*
X34759Y594828D01*
X34679Y594785D01*
X34595Y594749D01*
X34563Y594723D01*
X34542Y594712D01*
X34520Y594689D01*
X34464Y594644D01*
X31706Y591886D01*
X27971Y590339D01*
X23929Y590339D01*
X20194Y591886D01*
X17336Y594744D01*
X15789Y598479D01*
X15789Y602521D01*
X17336Y606256D01*
X20194Y609114D01*
X23929Y610661D01*
X27971Y610661D01*
X31706Y609114D01*
X34564Y606256D01*
X36111Y602521D01*
X36111Y602234D01*
X36114Y602214D01*
X36112Y602195D01*
X36134Y602093D01*
X36150Y601991D01*
X36160Y601974D01*
X36164Y601954D01*
X36217Y601865D01*
X36266Y601774D01*
X36280Y601760D01*
X36290Y601743D01*
X36369Y601676D01*
X36444Y601604D01*
X36462Y601596D01*
X36477Y601583D01*
X36573Y601544D01*
X36667Y601501D01*
X36687Y601499D01*
X36705Y601491D01*
X36872Y601473D01*
X41422Y601473D01*
X41468Y601480D01*
X41514Y601478D01*
X41589Y601500D01*
X41665Y601512D01*
X41706Y601534D01*
X41750Y601547D01*
X41814Y601591D01*
X41883Y601628D01*
X41914Y601661D01*
X41952Y601687D01*
X41998Y601750D01*
X42052Y601806D01*
X42071Y601848D01*
X42099Y601884D01*
X42123Y601958D01*
X42156Y602029D01*
X42161Y602075D01*
X42175Y602118D01*
X42174Y602196D01*
X42183Y602273D01*
X42173Y602318D01*
X42172Y602364D01*
X42134Y602495D01*
X42130Y602514D01*
X42128Y602518D01*
X42126Y602525D01*
X41937Y602980D01*
X41937Y605496D01*
X42900Y607820D01*
X44678Y609598D01*
X47002Y610561D01*
X49518Y610561D01*
X51842Y609598D01*
X53620Y607820D01*
X54583Y605496D01*
X54583Y602980D01*
X54394Y602525D01*
X54384Y602481D01*
X54364Y602439D01*
X54356Y602362D01*
X54338Y602286D01*
X54342Y602240D01*
X54337Y602195D01*
X54354Y602118D01*
X54361Y602041D01*
X54380Y601999D01*
X54390Y601954D01*
X54429Y601887D01*
X54461Y601816D01*
X54492Y601782D01*
X54516Y601743D01*
X54575Y601692D01*
X54628Y601635D01*
X54668Y601613D01*
X54703Y601583D01*
X54775Y601554D01*
X54843Y601517D01*
X54888Y601508D01*
X54931Y601491D01*
X55067Y601476D01*
X55085Y601473D01*
X55090Y601474D01*
X55098Y601473D01*
X64868Y601473D01*
X68455Y597886D01*
X70613Y595728D01*
X70613Y585841D01*
X70620Y585795D01*
X70618Y585750D01*
X70640Y585675D01*
X70652Y585598D01*
X70674Y585557D01*
X70687Y585513D01*
X70731Y585449D01*
X70768Y585381D01*
X70801Y585349D01*
X70827Y585311D01*
X70889Y585265D01*
X70946Y585211D01*
X70988Y585192D01*
X71024Y585165D01*
X71098Y585140D01*
X71169Y585108D01*
X71215Y585103D01*
X71258Y585088D01*
X71336Y585089D01*
X71413Y585081D01*
X71458Y585090D01*
X71504Y585091D01*
X71635Y585129D01*
X71654Y585133D01*
X71658Y585135D01*
X71665Y585137D01*
X72402Y585443D01*
X74918Y585443D01*
X77242Y584480D01*
X79020Y582702D01*
X79983Y580378D01*
X79983Y577862D01*
X79020Y575538D01*
X77242Y573760D01*
X74918Y572797D01*
X72402Y572797D01*
X71665Y573103D01*
X71621Y573113D01*
X71579Y573132D01*
X71502Y573141D01*
X71426Y573159D01*
X71380Y573154D01*
X71335Y573159D01*
X71258Y573143D01*
X71181Y573136D01*
X71139Y573117D01*
X71094Y573107D01*
X71027Y573067D01*
X70956Y573036D01*
X70922Y573005D01*
X70883Y572981D01*
X70832Y572922D01*
X70775Y572869D01*
X70753Y572829D01*
X70723Y572794D01*
X70694Y572722D01*
X70657Y572654D01*
X70648Y572609D01*
X70631Y572566D01*
X70616Y572430D01*
X70613Y572412D01*
X70614Y572407D01*
X70613Y572399D01*
X70613Y509683D01*
X70627Y509593D01*
X70635Y509502D01*
X70647Y509473D01*
X70652Y509441D01*
X70695Y509360D01*
X70731Y509276D01*
X70757Y509244D01*
X70768Y509223D01*
X70791Y509201D01*
X70836Y509145D01*
X72891Y507090D01*
X72907Y507078D01*
X72920Y507062D01*
X73007Y507006D01*
X73091Y506946D01*
X73110Y506940D01*
X73127Y506929D01*
X73227Y506904D01*
X73326Y506874D01*
X73346Y506874D01*
X73365Y506869D01*
X73468Y506877D01*
X73572Y506880D01*
X73591Y506887D01*
X73611Y506888D01*
X73705Y506929D01*
X73803Y506964D01*
X73819Y506977D01*
X73837Y506985D01*
X73968Y507090D01*
X75158Y508280D01*
X77482Y509243D01*
X79998Y509243D01*
X82322Y508280D01*
X84100Y506502D01*
X85063Y504178D01*
X85063Y501662D01*
X84100Y499338D01*
X82322Y497560D01*
X79998Y496597D01*
X77482Y496597D01*
G37*
%LPD*%
%LPC*%
G36*
X102800Y241095D02*
X102800Y241095D01*
X102722Y241154D01*
X102648Y241217D01*
X102624Y241227D01*
X102603Y241242D01*
X102510Y241272D01*
X102420Y241309D01*
X102387Y241312D01*
X102369Y241318D01*
X102336Y241318D01*
X102253Y241327D01*
X100342Y241327D01*
X98018Y242290D01*
X96240Y244068D01*
X95277Y246392D01*
X95277Y247550D01*
X95263Y247640D01*
X95255Y247731D01*
X95243Y247761D01*
X95238Y247793D01*
X95195Y247873D01*
X95159Y247957D01*
X95133Y247989D01*
X95122Y248010D01*
X95099Y248032D01*
X95054Y248088D01*
X79501Y263641D01*
X79501Y299862D01*
X79487Y299952D01*
X79479Y300043D01*
X79467Y300072D01*
X79462Y300104D01*
X79419Y300185D01*
X79383Y300269D01*
X79357Y300301D01*
X79346Y300322D01*
X79323Y300344D01*
X79278Y300400D01*
X78460Y301218D01*
X77497Y303542D01*
X77497Y306058D01*
X78460Y308382D01*
X80238Y310160D01*
X81810Y310811D01*
X81849Y310835D01*
X81892Y310851D01*
X81953Y310900D01*
X82019Y310941D01*
X82048Y310976D01*
X82084Y311005D01*
X82126Y311070D01*
X82176Y311130D01*
X82192Y311173D01*
X82217Y311212D01*
X82236Y311287D01*
X82264Y311360D01*
X82266Y311406D01*
X82277Y311450D01*
X82271Y311528D01*
X82274Y311605D01*
X82261Y311650D01*
X82258Y311695D01*
X82227Y311767D01*
X82206Y311842D01*
X82179Y311879D01*
X82161Y311922D01*
X82076Y312028D01*
X82065Y312044D01*
X82061Y312047D01*
X82057Y312053D01*
X80101Y314008D01*
X80101Y318452D01*
X80098Y318472D01*
X80100Y318491D01*
X80078Y318593D01*
X80062Y318695D01*
X80052Y318712D01*
X80048Y318732D01*
X79995Y318821D01*
X79946Y318912D01*
X79932Y318926D01*
X79922Y318943D01*
X79843Y319010D01*
X79768Y319082D01*
X79750Y319090D01*
X79735Y319103D01*
X79639Y319142D01*
X79545Y319185D01*
X79525Y319187D01*
X79507Y319195D01*
X79340Y319213D01*
X77482Y319213D01*
X75158Y320176D01*
X73380Y321954D01*
X72417Y324278D01*
X72417Y326794D01*
X73380Y329118D01*
X75158Y330896D01*
X77482Y331859D01*
X79998Y331859D01*
X82322Y330896D01*
X84100Y329118D01*
X85063Y326794D01*
X85063Y324199D01*
X85077Y324109D01*
X85085Y324018D01*
X85097Y323989D01*
X85102Y323957D01*
X85145Y323876D01*
X85181Y323792D01*
X85207Y323760D01*
X85218Y323739D01*
X85241Y323717D01*
X85286Y323661D01*
X86707Y322240D01*
X86707Y317059D01*
X86721Y316969D01*
X86729Y316878D01*
X86741Y316849D01*
X86746Y316817D01*
X86789Y316736D01*
X86825Y316652D01*
X86851Y316620D01*
X86862Y316599D01*
X86885Y316577D01*
X86930Y316521D01*
X92193Y311258D01*
X92267Y311204D01*
X92337Y311145D01*
X92367Y311133D01*
X92393Y311114D01*
X92480Y311087D01*
X92565Y311053D01*
X92606Y311048D01*
X92628Y311042D01*
X92660Y311042D01*
X92732Y311035D01*
X119958Y311035D01*
X120048Y311049D01*
X120139Y311056D01*
X120168Y311069D01*
X120200Y311074D01*
X120281Y311117D01*
X120365Y311153D01*
X120397Y311178D01*
X120418Y311189D01*
X120440Y311213D01*
X120496Y311258D01*
X122330Y313092D01*
X124654Y314055D01*
X127170Y314055D01*
X129494Y313092D01*
X131272Y311313D01*
X132235Y308989D01*
X132235Y306474D01*
X131272Y304150D01*
X129494Y302372D01*
X127170Y301409D01*
X124654Y301409D01*
X122330Y302372D01*
X120496Y304206D01*
X120422Y304259D01*
X120353Y304319D01*
X120322Y304331D01*
X120296Y304350D01*
X120209Y304376D01*
X120124Y304411D01*
X120083Y304415D01*
X120061Y304422D01*
X120029Y304421D01*
X119958Y304429D01*
X100012Y304429D01*
X99967Y304422D01*
X99921Y304424D01*
X99846Y304402D01*
X99770Y304389D01*
X99729Y304368D01*
X99685Y304355D01*
X99621Y304311D01*
X99552Y304274D01*
X99521Y304241D01*
X99483Y304215D01*
X99437Y304152D01*
X99383Y304096D01*
X99364Y304054D01*
X99336Y304017D01*
X99312Y303943D01*
X99279Y303873D01*
X99274Y303827D01*
X99260Y303784D01*
X99261Y303706D01*
X99252Y303628D01*
X99262Y303584D01*
X99262Y303538D01*
X99300Y303406D01*
X99304Y303388D01*
X99307Y303384D01*
X99309Y303377D01*
X100114Y301433D01*
X100176Y301333D01*
X100236Y301233D01*
X100241Y301229D01*
X100244Y301224D01*
X100334Y301149D01*
X100423Y301073D01*
X100429Y301071D01*
X100433Y301067D01*
X100541Y301025D01*
X100651Y300981D01*
X100658Y300980D01*
X100663Y300979D01*
X100681Y300978D01*
X100818Y300963D01*
X102858Y300963D01*
X105182Y300000D01*
X106960Y298222D01*
X107923Y295898D01*
X107923Y293382D01*
X106960Y291058D01*
X105182Y289280D01*
X102858Y288317D01*
X100342Y288317D01*
X98018Y289280D01*
X96240Y291058D01*
X95466Y292927D01*
X95404Y293027D01*
X95344Y293127D01*
X95339Y293131D01*
X95336Y293136D01*
X95246Y293211D01*
X95157Y293287D01*
X95151Y293289D01*
X95147Y293293D01*
X95039Y293335D01*
X94929Y293379D01*
X94922Y293380D01*
X94917Y293381D01*
X94899Y293382D01*
X94762Y293397D01*
X92722Y293397D01*
X90398Y294360D01*
X89438Y295320D01*
X89380Y295362D01*
X89328Y295411D01*
X89281Y295433D01*
X89239Y295464D01*
X89170Y295485D01*
X89105Y295515D01*
X89053Y295521D01*
X89003Y295536D01*
X88932Y295534D01*
X88861Y295542D01*
X88810Y295531D01*
X88758Y295530D01*
X88690Y295505D01*
X88620Y295490D01*
X88575Y295463D01*
X88527Y295445D01*
X88471Y295400D01*
X88409Y295364D01*
X88375Y295324D01*
X88335Y295291D01*
X88296Y295231D01*
X88249Y295177D01*
X88230Y295128D01*
X88202Y295085D01*
X88184Y295015D01*
X88157Y294948D01*
X88149Y294877D01*
X88141Y294846D01*
X88143Y294823D01*
X88139Y294782D01*
X88139Y281311D01*
X88154Y281215D01*
X88164Y281118D01*
X88174Y281094D01*
X88178Y281068D01*
X88224Y280982D01*
X88264Y280893D01*
X88281Y280874D01*
X88294Y280851D01*
X88364Y280784D01*
X88430Y280712D01*
X88453Y280700D01*
X88472Y280682D01*
X88560Y280640D01*
X88646Y280594D01*
X88671Y280589D01*
X88695Y280578D01*
X88792Y280567D01*
X88888Y280550D01*
X88914Y280554D01*
X88939Y280551D01*
X89035Y280571D01*
X89131Y280586D01*
X89154Y280597D01*
X89180Y280603D01*
X89264Y280653D01*
X89350Y280697D01*
X89368Y280716D01*
X89391Y280729D01*
X89454Y280803D01*
X89522Y280873D01*
X89538Y280901D01*
X89551Y280916D01*
X89563Y280947D01*
X89603Y281020D01*
X89890Y281712D01*
X91668Y283490D01*
X93992Y284453D01*
X96508Y284453D01*
X98832Y283490D01*
X100610Y281712D01*
X101573Y279388D01*
X101573Y278700D01*
X101580Y278654D01*
X101578Y278608D01*
X101600Y278533D01*
X101612Y278457D01*
X101634Y278416D01*
X101647Y278372D01*
X101691Y278308D01*
X101728Y278239D01*
X101761Y278208D01*
X101787Y278170D01*
X101849Y278124D01*
X101906Y278070D01*
X101948Y278051D01*
X101984Y278023D01*
X102058Y277999D01*
X102129Y277966D01*
X102175Y277961D01*
X102218Y277947D01*
X102296Y277948D01*
X102373Y277939D01*
X102418Y277949D01*
X102464Y277950D01*
X102596Y277988D01*
X102614Y277992D01*
X102618Y277994D01*
X102625Y277996D01*
X102882Y278103D01*
X105398Y278103D01*
X107722Y277140D01*
X109500Y275362D01*
X110463Y273038D01*
X110463Y270522D01*
X109500Y268198D01*
X107722Y266420D01*
X105398Y265457D01*
X102882Y265457D01*
X100558Y266420D01*
X98780Y268198D01*
X97817Y270522D01*
X97817Y271210D01*
X97810Y271256D01*
X97812Y271302D01*
X97790Y271377D01*
X97778Y271453D01*
X97756Y271494D01*
X97743Y271538D01*
X97699Y271602D01*
X97662Y271671D01*
X97629Y271702D01*
X97603Y271740D01*
X97541Y271786D01*
X97484Y271840D01*
X97442Y271859D01*
X97406Y271887D01*
X97332Y271911D01*
X97261Y271944D01*
X97215Y271949D01*
X97172Y271963D01*
X97094Y271962D01*
X97017Y271971D01*
X96972Y271961D01*
X96926Y271960D01*
X96794Y271922D01*
X96776Y271918D01*
X96772Y271916D01*
X96765Y271914D01*
X96508Y271807D01*
X93992Y271807D01*
X91668Y272770D01*
X89890Y274548D01*
X89603Y275240D01*
X89552Y275323D01*
X89506Y275409D01*
X89487Y275427D01*
X89474Y275449D01*
X89399Y275511D01*
X89328Y275578D01*
X89304Y275589D01*
X89284Y275606D01*
X89193Y275641D01*
X89105Y275682D01*
X89079Y275685D01*
X89055Y275694D01*
X88957Y275698D01*
X88861Y275709D01*
X88835Y275704D01*
X88809Y275705D01*
X88715Y275678D01*
X88620Y275657D01*
X88598Y275644D01*
X88573Y275636D01*
X88493Y275581D01*
X88409Y275531D01*
X88392Y275511D01*
X88371Y275496D01*
X88312Y275418D01*
X88249Y275344D01*
X88239Y275320D01*
X88224Y275299D01*
X88194Y275206D01*
X88157Y275116D01*
X88154Y275083D01*
X88148Y275065D01*
X88148Y275032D01*
X88139Y274949D01*
X88139Y267534D01*
X88153Y267444D01*
X88161Y267353D01*
X88173Y267323D01*
X88178Y267291D01*
X88221Y267211D01*
X88257Y267127D01*
X88283Y267095D01*
X88294Y267074D01*
X88317Y267052D01*
X88362Y266996D01*
X101162Y254196D01*
X101236Y254143D01*
X101305Y254083D01*
X101335Y254071D01*
X101362Y254052D01*
X101449Y254025D01*
X101533Y253991D01*
X101574Y253987D01*
X101597Y253980D01*
X101629Y253981D01*
X101700Y253973D01*
X102858Y253973D01*
X105182Y253010D01*
X106960Y251232D01*
X107923Y248908D01*
X107923Y246392D01*
X106960Y244068D01*
X105182Y242290D01*
X103196Y241467D01*
X103113Y241416D01*
X103027Y241370D01*
X103009Y241352D01*
X102987Y241338D01*
X102924Y241262D01*
X102857Y241192D01*
X102846Y241168D01*
X102830Y241148D01*
X102806Y241087D01*
X102800Y241095D01*
G37*
%LPD*%
%LPC*%
G36*
X195874Y448310D02*
X195874Y448310D01*
X193550Y449273D01*
X191771Y451051D01*
X190809Y453375D01*
X190809Y455890D01*
X191771Y458214D01*
X192463Y458906D01*
X192475Y458923D01*
X192490Y458935D01*
X192547Y459022D01*
X192607Y459106D01*
X192613Y459125D01*
X192623Y459142D01*
X192649Y459242D01*
X192679Y459341D01*
X192679Y459361D01*
X192684Y459381D01*
X192675Y459483D01*
X192673Y459587D01*
X192666Y459606D01*
X192664Y459626D01*
X192624Y459721D01*
X192588Y459818D01*
X192576Y459834D01*
X192568Y459852D01*
X192463Y459983D01*
X191208Y461238D01*
X190245Y463562D01*
X190245Y466078D01*
X190656Y467069D01*
X190666Y467113D01*
X190686Y467155D01*
X190694Y467232D01*
X190712Y467308D01*
X190708Y467354D01*
X190713Y467399D01*
X190696Y467476D01*
X190689Y467553D01*
X190670Y467595D01*
X190660Y467640D01*
X190621Y467707D01*
X190589Y467778D01*
X190558Y467812D01*
X190534Y467851D01*
X190475Y467902D01*
X190422Y467959D01*
X190382Y467981D01*
X190347Y468011D01*
X190275Y468040D01*
X190207Y468077D01*
X190162Y468086D01*
X190119Y468103D01*
X189983Y468118D01*
X189965Y468121D01*
X189960Y468120D01*
X189952Y468121D01*
X144581Y468121D01*
X144466Y468102D01*
X144350Y468085D01*
X144345Y468083D01*
X144338Y468082D01*
X144236Y468027D01*
X144131Y467974D01*
X144127Y467969D01*
X144121Y467966D01*
X144041Y467882D01*
X143959Y467798D01*
X143955Y467792D01*
X143952Y467788D01*
X143944Y467771D01*
X143878Y467651D01*
X143536Y466826D01*
X141758Y465048D01*
X139434Y464085D01*
X136918Y464085D01*
X134594Y465048D01*
X132816Y466826D01*
X131853Y469150D01*
X131853Y471666D01*
X132816Y473990D01*
X134594Y475768D01*
X136918Y476731D01*
X138076Y476731D01*
X138166Y476745D01*
X138257Y476753D01*
X138271Y476759D01*
X190761Y476759D01*
X190806Y476766D01*
X190852Y476764D01*
X190927Y476786D01*
X191003Y476798D01*
X191044Y476820D01*
X191088Y476833D01*
X191152Y476877D01*
X191221Y476914D01*
X191252Y476947D01*
X191290Y476973D01*
X191336Y477036D01*
X191390Y477092D01*
X191409Y477134D01*
X191437Y477170D01*
X191461Y477244D01*
X191494Y477315D01*
X191499Y477361D01*
X191513Y477404D01*
X191512Y477482D01*
X191521Y477559D01*
X191511Y477604D01*
X191511Y477650D01*
X191472Y477782D01*
X191468Y477800D01*
X191466Y477804D01*
X191464Y477811D01*
X190527Y480072D01*
X190527Y482588D01*
X191490Y484912D01*
X192986Y486408D01*
X193028Y486466D01*
X193077Y486518D01*
X193099Y486565D01*
X193130Y486607D01*
X193151Y486676D01*
X193181Y486741D01*
X193187Y486793D01*
X193202Y486843D01*
X193200Y486914D01*
X193208Y486985D01*
X193197Y487036D01*
X193196Y487088D01*
X193171Y487156D01*
X193156Y487226D01*
X193129Y487271D01*
X193111Y487319D01*
X193066Y487375D01*
X193030Y487437D01*
X192990Y487471D01*
X192957Y487511D01*
X192897Y487550D01*
X192843Y487597D01*
X192794Y487616D01*
X192751Y487644D01*
X192681Y487662D01*
X192614Y487689D01*
X192543Y487697D01*
X192512Y487705D01*
X192489Y487703D01*
X192448Y487707D01*
X191782Y487707D01*
X189458Y488670D01*
X187680Y490448D01*
X186717Y492772D01*
X186717Y495288D01*
X187685Y497625D01*
X187696Y497669D01*
X187715Y497711D01*
X187724Y497788D01*
X187741Y497864D01*
X187737Y497910D01*
X187742Y497955D01*
X187726Y498032D01*
X187718Y498109D01*
X187700Y498151D01*
X187690Y498196D01*
X187650Y498263D01*
X187618Y498334D01*
X187587Y498368D01*
X187564Y498407D01*
X187505Y498458D01*
X187452Y498515D01*
X187412Y498537D01*
X187377Y498567D01*
X187305Y498596D01*
X187236Y498633D01*
X187191Y498642D01*
X187149Y498659D01*
X187013Y498674D01*
X186994Y498677D01*
X186993Y498677D01*
X184668Y499640D01*
X182890Y501418D01*
X181927Y503742D01*
X181927Y506258D01*
X182890Y508582D01*
X184668Y510360D01*
X186992Y511323D01*
X189508Y511323D01*
X191832Y510360D01*
X193610Y508582D01*
X194573Y506258D01*
X194573Y503742D01*
X193605Y501405D01*
X193597Y501372D01*
X193597Y501371D01*
X193594Y501361D01*
X193575Y501319D01*
X193566Y501242D01*
X193549Y501166D01*
X193553Y501120D01*
X193548Y501075D01*
X193564Y500998D01*
X193572Y500921D01*
X193590Y500879D01*
X193600Y500834D01*
X193640Y500767D01*
X193672Y500696D01*
X193703Y500662D01*
X193726Y500623D01*
X193785Y500572D01*
X193838Y500515D01*
X193878Y500493D01*
X193913Y500463D01*
X193985Y500434D01*
X194054Y500397D01*
X194099Y500388D01*
X194141Y500371D01*
X194277Y500356D01*
X194296Y500353D01*
X194297Y500353D01*
X196622Y499390D01*
X198400Y497612D01*
X199363Y495288D01*
X199363Y492772D01*
X198400Y490448D01*
X196904Y488952D01*
X196862Y488894D01*
X196813Y488842D01*
X196791Y488795D01*
X196760Y488753D01*
X196739Y488684D01*
X196709Y488619D01*
X196703Y488567D01*
X196688Y488517D01*
X196690Y488446D01*
X196682Y488375D01*
X196693Y488324D01*
X196694Y488272D01*
X196719Y488204D01*
X196734Y488134D01*
X196761Y488089D01*
X196779Y488041D01*
X196824Y487985D01*
X196860Y487923D01*
X196900Y487889D01*
X196933Y487849D01*
X196993Y487810D01*
X197047Y487763D01*
X197096Y487744D01*
X197139Y487716D01*
X197209Y487698D01*
X197276Y487671D01*
X197347Y487663D01*
X197378Y487655D01*
X197401Y487657D01*
X197442Y487653D01*
X198108Y487653D01*
X200432Y486690D01*
X202210Y484912D01*
X203173Y482588D01*
X203173Y480072D01*
X202236Y477811D01*
X202228Y477777D01*
X202226Y477773D01*
X202226Y477766D01*
X202206Y477725D01*
X202198Y477648D01*
X202180Y477572D01*
X202184Y477526D01*
X202179Y477481D01*
X202196Y477404D01*
X202203Y477327D01*
X202222Y477285D01*
X202232Y477240D01*
X202271Y477173D01*
X202303Y477102D01*
X202334Y477068D01*
X202358Y477029D01*
X202417Y476978D01*
X202470Y476921D01*
X202510Y476899D01*
X202545Y476869D01*
X202617Y476840D01*
X202685Y476803D01*
X202730Y476794D01*
X202773Y476777D01*
X202909Y476762D01*
X202927Y476759D01*
X202932Y476760D01*
X202939Y476759D01*
X225309Y476759D01*
X235459Y466609D01*
X235459Y463733D01*
X235473Y463642D01*
X235481Y463552D01*
X235493Y463522D01*
X235498Y463490D01*
X235541Y463409D01*
X235577Y463325D01*
X235603Y463293D01*
X235614Y463272D01*
X235637Y463250D01*
X235682Y463194D01*
X236500Y462376D01*
X237463Y460052D01*
X237463Y457537D01*
X236500Y455213D01*
X234722Y453434D01*
X232398Y452472D01*
X229882Y452472D01*
X227558Y453434D01*
X225780Y455213D01*
X224817Y457537D01*
X224817Y460052D01*
X225780Y462376D01*
X226090Y462686D01*
X226102Y462702D01*
X226117Y462715D01*
X226173Y462802D01*
X226233Y462886D01*
X226239Y462905D01*
X226250Y462921D01*
X226275Y463022D01*
X226306Y463121D01*
X226305Y463141D01*
X226310Y463160D01*
X226302Y463263D01*
X226299Y463367D01*
X226293Y463385D01*
X226291Y463405D01*
X226251Y463500D01*
X226215Y463598D01*
X226203Y463613D01*
X226195Y463631D01*
X226090Y463762D01*
X221954Y467898D01*
X221880Y467951D01*
X221811Y468011D01*
X221781Y468023D01*
X221754Y468042D01*
X221667Y468069D01*
X221583Y468103D01*
X221542Y468107D01*
X221519Y468114D01*
X221487Y468113D01*
X221416Y468121D01*
X203184Y468121D01*
X203138Y468114D01*
X203092Y468116D01*
X203017Y468094D01*
X202941Y468082D01*
X202900Y468060D01*
X202856Y468047D01*
X202792Y468003D01*
X202723Y467966D01*
X202692Y467933D01*
X202654Y467907D01*
X202608Y467845D01*
X202554Y467788D01*
X202535Y467746D01*
X202507Y467710D01*
X202483Y467636D01*
X202450Y467565D01*
X202445Y467519D01*
X202431Y467476D01*
X202432Y467398D01*
X202423Y467321D01*
X202433Y467276D01*
X202433Y467230D01*
X202472Y467099D01*
X202476Y467080D01*
X202478Y467076D01*
X202480Y467069D01*
X202891Y466078D01*
X202891Y463562D01*
X201928Y461238D01*
X201236Y460546D01*
X201224Y460530D01*
X201209Y460518D01*
X201153Y460430D01*
X201092Y460347D01*
X201087Y460328D01*
X201076Y460311D01*
X201050Y460210D01*
X201020Y460111D01*
X201021Y460092D01*
X201016Y460072D01*
X201024Y459969D01*
X201026Y459866D01*
X201033Y459847D01*
X201035Y459827D01*
X201075Y459732D01*
X201111Y459635D01*
X201123Y459619D01*
X201131Y459601D01*
X201236Y459470D01*
X202491Y458214D01*
X203454Y455890D01*
X203454Y453375D01*
X202491Y451051D01*
X200713Y449273D01*
X198389Y448310D01*
X195874Y448310D01*
G37*
%LPD*%
%LPC*%
G36*
X158227Y224934D02*
X158227Y224934D01*
X155903Y225897D01*
X154124Y227675D01*
X153162Y229999D01*
X153162Y232515D01*
X154124Y234839D01*
X155903Y236617D01*
X158227Y237580D01*
X160742Y237580D01*
X163066Y236617D01*
X164845Y234839D01*
X165340Y233643D01*
X165402Y233543D01*
X165462Y233443D01*
X165466Y233439D01*
X165470Y233434D01*
X165560Y233359D01*
X165648Y233283D01*
X165654Y233281D01*
X165659Y233277D01*
X165767Y233235D01*
X165877Y233191D01*
X165884Y233190D01*
X165889Y233189D01*
X165907Y233188D01*
X166043Y233173D01*
X167269Y233173D01*
X167315Y233180D01*
X167360Y233178D01*
X167435Y233200D01*
X167512Y233212D01*
X167553Y233234D01*
X167597Y233247D01*
X167661Y233291D01*
X167729Y233328D01*
X167761Y233361D01*
X167799Y233387D01*
X167845Y233449D01*
X167899Y233506D01*
X167918Y233548D01*
X167945Y233584D01*
X167970Y233658D01*
X168002Y233729D01*
X168007Y233775D01*
X168022Y233818D01*
X168021Y233896D01*
X168029Y233973D01*
X168020Y234018D01*
X168019Y234064D01*
X167981Y234195D01*
X167977Y234214D01*
X167975Y234218D01*
X167973Y234225D01*
X167667Y234962D01*
X167667Y237478D01*
X168630Y239802D01*
X169548Y240720D01*
X169560Y240736D01*
X169575Y240748D01*
X169631Y240836D01*
X169692Y240919D01*
X169697Y240938D01*
X169708Y240955D01*
X169733Y241056D01*
X169764Y241155D01*
X169763Y241174D01*
X169768Y241194D01*
X169760Y241297D01*
X169758Y241400D01*
X169751Y241419D01*
X169749Y241439D01*
X169709Y241534D01*
X169673Y241631D01*
X169661Y241647D01*
X169653Y241665D01*
X169548Y241796D01*
X168630Y242714D01*
X167667Y245038D01*
X167667Y247554D01*
X168630Y249878D01*
X170408Y251656D01*
X172732Y252619D01*
X175248Y252619D01*
X177572Y251656D01*
X179322Y249906D01*
X179396Y249853D01*
X179465Y249793D01*
X179496Y249781D01*
X179522Y249762D01*
X179609Y249735D01*
X179694Y249701D01*
X179735Y249697D01*
X179757Y249690D01*
X179789Y249691D01*
X179860Y249683D01*
X201517Y249683D01*
X201607Y249697D01*
X201698Y249705D01*
X201727Y249717D01*
X201759Y249722D01*
X201840Y249765D01*
X201924Y249801D01*
X201956Y249827D01*
X201977Y249838D01*
X201999Y249861D01*
X202055Y249906D01*
X209354Y257205D01*
X209407Y257279D01*
X209467Y257348D01*
X209479Y257379D01*
X209498Y257405D01*
X209525Y257492D01*
X209559Y257577D01*
X209563Y257618D01*
X209570Y257640D01*
X209569Y257672D01*
X209577Y257743D01*
X209577Y260338D01*
X210540Y262662D01*
X212318Y264440D01*
X214642Y265403D01*
X217158Y265403D01*
X219482Y264440D01*
X221260Y262662D01*
X222223Y260338D01*
X222223Y257822D01*
X221260Y255498D01*
X219482Y253720D01*
X218790Y253433D01*
X218729Y253396D01*
X218663Y253366D01*
X218625Y253331D01*
X218581Y253304D01*
X218535Y253249D01*
X218482Y253200D01*
X218457Y253154D01*
X218424Y253114D01*
X218398Y253047D01*
X218364Y252984D01*
X218354Y252933D01*
X218336Y252885D01*
X218333Y252813D01*
X218320Y252742D01*
X218327Y252691D01*
X218325Y252639D01*
X218345Y252570D01*
X218356Y252499D01*
X218379Y252453D01*
X218394Y252403D01*
X218435Y252344D01*
X218467Y252280D01*
X218504Y252243D01*
X218534Y252201D01*
X218592Y252158D01*
X218643Y252108D01*
X218706Y252073D01*
X218731Y252054D01*
X218754Y252047D01*
X218790Y252027D01*
X219482Y251740D01*
X221260Y249962D01*
X222223Y247638D01*
X222223Y245122D01*
X221260Y242798D01*
X219482Y241020D01*
X218790Y240733D01*
X218729Y240696D01*
X218663Y240666D01*
X218625Y240631D01*
X218581Y240604D01*
X218535Y240549D01*
X218482Y240500D01*
X218457Y240454D01*
X218424Y240414D01*
X218398Y240347D01*
X218364Y240284D01*
X218354Y240233D01*
X218336Y240185D01*
X218333Y240113D01*
X218320Y240042D01*
X218327Y239991D01*
X218325Y239939D01*
X218345Y239870D01*
X218356Y239799D01*
X218379Y239753D01*
X218394Y239703D01*
X218435Y239644D01*
X218467Y239580D01*
X218504Y239543D01*
X218534Y239501D01*
X218592Y239458D01*
X218643Y239408D01*
X218706Y239373D01*
X218731Y239354D01*
X218754Y239347D01*
X218790Y239327D01*
X219482Y239040D01*
X221260Y237262D01*
X222223Y234938D01*
X222223Y232422D01*
X221260Y230098D01*
X219482Y228320D01*
X217158Y227357D01*
X214563Y227357D01*
X214473Y227343D01*
X214382Y227335D01*
X214353Y227323D01*
X214321Y227318D01*
X214240Y227275D01*
X214156Y227239D01*
X214124Y227213D01*
X214103Y227202D01*
X214081Y227179D01*
X214025Y227134D01*
X213458Y226567D01*
X164052Y226567D01*
X163962Y226553D01*
X163871Y226545D01*
X163841Y226533D01*
X163809Y226528D01*
X163728Y226485D01*
X163644Y226449D01*
X163612Y226423D01*
X163592Y226412D01*
X163569Y226389D01*
X163514Y226344D01*
X163066Y225897D01*
X160742Y224934D01*
X158227Y224934D01*
G37*
%LPD*%
%LPC*%
G36*
X103133Y27831D02*
X103133Y27831D01*
X103124Y27848D01*
X103120Y27868D01*
X103067Y27957D01*
X103018Y28048D01*
X103004Y28062D01*
X102994Y28079D01*
X102915Y28146D01*
X102840Y28218D01*
X102822Y28226D01*
X102807Y28239D01*
X102710Y28278D01*
X102617Y28321D01*
X102597Y28323D01*
X102579Y28331D01*
X102412Y28349D01*
X95209Y28349D01*
X95380Y29207D01*
X95989Y30678D01*
X96873Y32001D01*
X97758Y32886D01*
X97784Y32923D01*
X97818Y32954D01*
X97856Y33022D01*
X97901Y33085D01*
X97915Y33129D01*
X97937Y33169D01*
X97951Y33246D01*
X97974Y33320D01*
X97972Y33366D01*
X97981Y33411D01*
X97969Y33489D01*
X97967Y33566D01*
X97952Y33609D01*
X97945Y33655D01*
X97910Y33724D01*
X97883Y33797D01*
X97854Y33833D01*
X97833Y33874D01*
X97778Y33929D01*
X97729Y33989D01*
X97691Y34014D01*
X97658Y34046D01*
X97538Y34112D01*
X97522Y34122D01*
X97517Y34124D01*
X97511Y34127D01*
X97462Y34147D01*
X93197Y38412D01*
X90889Y43984D01*
X90889Y50016D01*
X93197Y55588D01*
X97486Y59877D01*
X97521Y59898D01*
X97622Y59960D01*
X97624Y59962D01*
X97627Y59964D01*
X97703Y60056D01*
X97780Y60148D01*
X97781Y60151D01*
X97783Y60153D01*
X97826Y60263D01*
X97870Y60377D01*
X97870Y60380D01*
X97872Y60383D01*
X97877Y60501D01*
X97883Y60623D01*
X97882Y60626D01*
X97882Y60629D01*
X97849Y60744D01*
X97816Y60859D01*
X97814Y60862D01*
X97813Y60865D01*
X97745Y60963D01*
X97677Y61062D01*
X97675Y61065D01*
X97673Y61067D01*
X97665Y61073D01*
X97549Y61170D01*
X97202Y61402D01*
X95902Y62702D01*
X94881Y64230D01*
X94178Y65928D01*
X93939Y67127D01*
X102388Y67127D01*
X102408Y67130D01*
X102427Y67128D01*
X102529Y67150D01*
X102631Y67167D01*
X102648Y67176D01*
X102668Y67180D01*
X102757Y67233D01*
X102848Y67282D01*
X102862Y67296D01*
X102879Y67306D01*
X102946Y67385D01*
X103017Y67460D01*
X103026Y67478D01*
X103039Y67493D01*
X103077Y67589D01*
X103121Y67683D01*
X103123Y67703D01*
X103131Y67721D01*
X103149Y67888D01*
X103149Y68651D01*
X103912Y68651D01*
X103932Y68654D01*
X103951Y68652D01*
X104053Y68674D01*
X104155Y68691D01*
X104172Y68700D01*
X104192Y68704D01*
X104281Y68757D01*
X104372Y68806D01*
X104386Y68820D01*
X104403Y68830D01*
X104470Y68909D01*
X104541Y68984D01*
X104550Y69002D01*
X104563Y69017D01*
X104602Y69113D01*
X104645Y69207D01*
X104647Y69227D01*
X104655Y69245D01*
X104673Y69412D01*
X104673Y77861D01*
X105872Y77622D01*
X107570Y76919D01*
X109098Y75898D01*
X109581Y75415D01*
X109676Y75347D01*
X109769Y75277D01*
X109775Y75275D01*
X109781Y75271D01*
X109892Y75237D01*
X110003Y75201D01*
X110010Y75201D01*
X110016Y75199D01*
X110132Y75202D01*
X110249Y75203D01*
X110257Y75205D01*
X110262Y75205D01*
X110279Y75212D01*
X110410Y75250D01*
X114782Y77061D01*
X120118Y77061D01*
X125047Y75019D01*
X128819Y71247D01*
X130861Y66318D01*
X130861Y60982D01*
X128819Y56053D01*
X125047Y52281D01*
X121675Y50884D01*
X121658Y50874D01*
X121639Y50868D01*
X121554Y50809D01*
X121466Y50755D01*
X121453Y50740D01*
X121437Y50728D01*
X121375Y50645D01*
X121309Y50565D01*
X121302Y50547D01*
X121290Y50531D01*
X121258Y50432D01*
X121221Y50336D01*
X121220Y50316D01*
X121214Y50297D01*
X121215Y50203D01*
X121211Y50167D01*
X121211Y50097D01*
X121210Y50090D01*
X121211Y50089D01*
X121211Y43984D01*
X118903Y38412D01*
X114638Y34147D01*
X110290Y32346D01*
X110210Y32297D01*
X110126Y32253D01*
X110106Y32232D01*
X110081Y32217D01*
X110021Y32144D01*
X109955Y32076D01*
X109943Y32050D01*
X109924Y32027D01*
X109890Y31939D01*
X109850Y31854D01*
X109847Y31825D01*
X109836Y31798D01*
X109832Y31704D01*
X109821Y31610D01*
X109827Y31581D01*
X109826Y31552D01*
X109852Y31462D01*
X109871Y31369D01*
X109888Y31336D01*
X109894Y31316D01*
X109913Y31289D01*
X109949Y31220D01*
X110311Y30678D01*
X110920Y29207D01*
X111091Y28349D01*
X103888Y28349D01*
X103869Y28346D01*
X103849Y28348D01*
X103747Y28326D01*
X103645Y28310D01*
X103628Y28300D01*
X103608Y28296D01*
X103519Y28243D01*
X103428Y28194D01*
X103414Y28180D01*
X103397Y28170D01*
X103330Y28091D01*
X103259Y28016D01*
X103250Y27998D01*
X103237Y27983D01*
X103199Y27887D01*
X103155Y27793D01*
X103153Y27773D01*
X103146Y27755D01*
X103133Y27831D01*
G37*
%LPD*%
%LPC*%
G36*
X189533Y27831D02*
X189533Y27831D01*
X189524Y27848D01*
X189520Y27868D01*
X189467Y27957D01*
X189418Y28048D01*
X189404Y28062D01*
X189394Y28079D01*
X189315Y28146D01*
X189240Y28218D01*
X189222Y28226D01*
X189207Y28239D01*
X189110Y28278D01*
X189017Y28321D01*
X188997Y28323D01*
X188979Y28331D01*
X188812Y28349D01*
X181609Y28349D01*
X181780Y29207D01*
X182389Y30678D01*
X182621Y31026D01*
X182660Y31111D01*
X182706Y31194D01*
X182711Y31223D01*
X182723Y31249D01*
X182733Y31343D01*
X182750Y31436D01*
X182745Y31465D01*
X182748Y31494D01*
X182728Y31586D01*
X182714Y31679D01*
X182701Y31706D01*
X182694Y31734D01*
X182645Y31814D01*
X182602Y31899D01*
X182581Y31919D01*
X182566Y31944D01*
X182494Y32005D01*
X182427Y32071D01*
X182394Y32089D01*
X182378Y32103D01*
X182348Y32115D01*
X182280Y32152D01*
X177462Y34147D01*
X173197Y38412D01*
X170889Y43984D01*
X170889Y50016D01*
X170925Y50102D01*
X170930Y50121D01*
X170939Y50139D01*
X170958Y50241D01*
X170981Y50341D01*
X170979Y50361D01*
X170983Y50381D01*
X170968Y50483D01*
X170958Y50586D01*
X170950Y50604D01*
X170947Y50624D01*
X170900Y50717D01*
X170858Y50811D01*
X170845Y50826D01*
X170836Y50843D01*
X170761Y50916D01*
X170692Y50992D01*
X170674Y51002D01*
X170660Y51016D01*
X170513Y51096D01*
X167653Y52281D01*
X163881Y56053D01*
X161839Y60982D01*
X161839Y66318D01*
X163881Y71247D01*
X167653Y75019D01*
X172582Y77061D01*
X177918Y77061D01*
X182290Y75250D01*
X182404Y75223D01*
X182517Y75195D01*
X182523Y75195D01*
X182529Y75194D01*
X182646Y75205D01*
X182762Y75214D01*
X182768Y75216D01*
X182774Y75217D01*
X182881Y75264D01*
X182988Y75310D01*
X182994Y75315D01*
X182999Y75317D01*
X183012Y75329D01*
X183119Y75415D01*
X183602Y75898D01*
X185130Y76919D01*
X186828Y77622D01*
X188027Y77861D01*
X188027Y69412D01*
X188030Y69392D01*
X188028Y69373D01*
X188050Y69271D01*
X188067Y69169D01*
X188076Y69152D01*
X188080Y69132D01*
X188133Y69043D01*
X188182Y68952D01*
X188196Y68938D01*
X188206Y68921D01*
X188285Y68854D01*
X188360Y68783D01*
X188378Y68774D01*
X188393Y68761D01*
X188489Y68723D01*
X188583Y68679D01*
X188603Y68677D01*
X188621Y68669D01*
X188788Y68651D01*
X189551Y68651D01*
X189551Y67888D01*
X189554Y67868D01*
X189552Y67849D01*
X189574Y67747D01*
X189591Y67645D01*
X189600Y67628D01*
X189604Y67608D01*
X189657Y67519D01*
X189706Y67428D01*
X189720Y67414D01*
X189730Y67397D01*
X189809Y67330D01*
X189884Y67259D01*
X189902Y67250D01*
X189917Y67237D01*
X190013Y67198D01*
X190107Y67155D01*
X190127Y67153D01*
X190145Y67145D01*
X190312Y67127D01*
X198761Y67127D01*
X198522Y65928D01*
X197819Y64230D01*
X196798Y62702D01*
X195498Y61402D01*
X194825Y60952D01*
X194756Y60888D01*
X194682Y60829D01*
X194666Y60805D01*
X194645Y60785D01*
X194600Y60702D01*
X194549Y60622D01*
X194542Y60594D01*
X194528Y60568D01*
X194512Y60475D01*
X194489Y60384D01*
X194491Y60355D01*
X194486Y60326D01*
X194501Y60232D01*
X194508Y60138D01*
X194520Y60112D01*
X194524Y60083D01*
X194568Y59999D01*
X194604Y59912D01*
X194627Y59883D01*
X194637Y59864D01*
X194661Y59842D01*
X194709Y59781D01*
X198903Y55588D01*
X201211Y50016D01*
X201211Y43984D01*
X198903Y38412D01*
X194697Y34207D01*
X194686Y34191D01*
X194670Y34178D01*
X194614Y34091D01*
X194554Y34007D01*
X194548Y33988D01*
X194537Y33971D01*
X194512Y33871D01*
X194482Y33772D01*
X194482Y33752D01*
X194477Y33733D01*
X194485Y33630D01*
X194488Y33526D01*
X194495Y33507D01*
X194496Y33488D01*
X194537Y33393D01*
X194572Y33295D01*
X194585Y33280D01*
X194593Y33261D01*
X194697Y33130D01*
X195827Y32001D01*
X196711Y30678D01*
X197320Y29207D01*
X197491Y28349D01*
X190288Y28349D01*
X190269Y28346D01*
X190249Y28348D01*
X190147Y28326D01*
X190045Y28310D01*
X190028Y28300D01*
X190008Y28296D01*
X189919Y28243D01*
X189828Y28194D01*
X189814Y28180D01*
X189797Y28170D01*
X189730Y28091D01*
X189659Y28016D01*
X189650Y27998D01*
X189637Y27983D01*
X189599Y27887D01*
X189555Y27793D01*
X189553Y27773D01*
X189546Y27755D01*
X189533Y27831D01*
G37*
%LPD*%
%LPC*%
G36*
X203974Y597689D02*
X203974Y597689D01*
X201650Y598652D01*
X199872Y600430D01*
X198909Y602754D01*
X198909Y605270D01*
X199872Y607594D01*
X201650Y609372D01*
X202955Y609913D01*
X203016Y609950D01*
X203082Y609980D01*
X203120Y610015D01*
X203165Y610042D01*
X203210Y610098D01*
X203263Y610146D01*
X203288Y610192D01*
X203321Y610232D01*
X203347Y610299D01*
X203382Y610362D01*
X203391Y610413D01*
X203410Y610461D01*
X203413Y610533D01*
X203425Y610604D01*
X203418Y610655D01*
X203420Y610707D01*
X203400Y610776D01*
X203390Y610847D01*
X203366Y610893D01*
X203351Y610943D01*
X203311Y611002D01*
X203278Y611066D01*
X203241Y611103D01*
X203211Y611145D01*
X203154Y611188D01*
X203102Y611238D01*
X203040Y611273D01*
X203014Y611292D01*
X202992Y611299D01*
X202955Y611319D01*
X201650Y611860D01*
X201198Y612312D01*
X201182Y612324D01*
X201170Y612339D01*
X201083Y612395D01*
X200999Y612456D01*
X200980Y612461D01*
X200963Y612472D01*
X200862Y612497D01*
X200763Y612528D01*
X200744Y612527D01*
X200724Y612532D01*
X200621Y612524D01*
X200518Y612522D01*
X200499Y612515D01*
X200479Y612513D01*
X200384Y612473D01*
X200287Y612437D01*
X200271Y612425D01*
X200253Y612417D01*
X200122Y612312D01*
X199670Y611860D01*
X197346Y610897D01*
X194830Y610897D01*
X192506Y611860D01*
X192054Y612312D01*
X192038Y612324D01*
X192026Y612339D01*
X191939Y612395D01*
X191855Y612456D01*
X191836Y612461D01*
X191819Y612472D01*
X191718Y612497D01*
X191619Y612528D01*
X191600Y612527D01*
X191580Y612532D01*
X191477Y612524D01*
X191374Y612522D01*
X191355Y612515D01*
X191335Y612513D01*
X191240Y612473D01*
X191143Y612437D01*
X191127Y612425D01*
X191109Y612417D01*
X190978Y612312D01*
X190526Y611860D01*
X188202Y610897D01*
X185686Y610897D01*
X183362Y611860D01*
X181722Y613501D01*
X181628Y613568D01*
X181533Y613639D01*
X181527Y613641D01*
X181522Y613644D01*
X181411Y613678D01*
X181299Y613715D01*
X181293Y613715D01*
X181287Y613717D01*
X181170Y613714D01*
X181053Y613712D01*
X181046Y613710D01*
X181041Y613710D01*
X181023Y613704D01*
X180892Y613666D01*
X179264Y612991D01*
X176748Y612991D01*
X174424Y613954D01*
X172646Y615732D01*
X171683Y618056D01*
X171683Y620572D01*
X172646Y622896D01*
X174424Y624674D01*
X176748Y625637D01*
X179264Y625637D01*
X181588Y624674D01*
X183228Y623033D01*
X183322Y622966D01*
X183417Y622895D01*
X183423Y622893D01*
X183428Y622890D01*
X183539Y622856D01*
X183651Y622819D01*
X183657Y622819D01*
X183663Y622817D01*
X183780Y622820D01*
X183897Y622822D01*
X183904Y622824D01*
X183909Y622824D01*
X183927Y622830D01*
X184058Y622868D01*
X185686Y623543D01*
X188202Y623543D01*
X190526Y622580D01*
X190978Y622128D01*
X190994Y622116D01*
X191006Y622101D01*
X191093Y622045D01*
X191177Y621984D01*
X191196Y621979D01*
X191213Y621968D01*
X191314Y621943D01*
X191413Y621912D01*
X191432Y621913D01*
X191452Y621908D01*
X191555Y621916D01*
X191658Y621918D01*
X191677Y621925D01*
X191697Y621927D01*
X191792Y621967D01*
X191889Y622003D01*
X191905Y622015D01*
X191923Y622023D01*
X192054Y622128D01*
X192506Y622580D01*
X194830Y623543D01*
X197346Y623543D01*
X199670Y622580D01*
X200122Y622128D01*
X200138Y622116D01*
X200150Y622101D01*
X200237Y622045D01*
X200321Y621984D01*
X200340Y621979D01*
X200357Y621968D01*
X200458Y621943D01*
X200557Y621912D01*
X200576Y621913D01*
X200596Y621908D01*
X200699Y621916D01*
X200802Y621918D01*
X200821Y621925D01*
X200841Y621927D01*
X200936Y621967D01*
X201033Y622003D01*
X201049Y622015D01*
X201067Y622023D01*
X201198Y622128D01*
X201650Y622580D01*
X203974Y623543D01*
X206490Y623543D01*
X208814Y622580D01*
X210592Y620802D01*
X211555Y618478D01*
X211555Y615962D01*
X210592Y613638D01*
X208814Y611860D01*
X207509Y611319D01*
X207448Y611281D01*
X207382Y611252D01*
X207344Y611217D01*
X207299Y611190D01*
X207254Y611134D01*
X207201Y611086D01*
X207176Y611040D01*
X207143Y611000D01*
X207117Y610933D01*
X207082Y610870D01*
X207073Y610819D01*
X207054Y610771D01*
X207051Y610699D01*
X207039Y610628D01*
X207046Y610577D01*
X207044Y610525D01*
X207064Y610456D01*
X207074Y610385D01*
X207098Y610339D01*
X207113Y610289D01*
X207153Y610230D01*
X207186Y610166D01*
X207223Y610129D01*
X207253Y610087D01*
X207310Y610044D01*
X207362Y609994D01*
X207424Y609959D01*
X207450Y609940D01*
X207472Y609933D01*
X207509Y609913D01*
X208814Y609372D01*
X210592Y607594D01*
X211555Y605270D01*
X211555Y602754D01*
X210592Y600430D01*
X208814Y598652D01*
X206490Y597689D01*
X203974Y597689D01*
G37*
%LPD*%
%LPC*%
G36*
X229334Y656399D02*
X229334Y656399D01*
X225996Y657782D01*
X223442Y660336D01*
X222059Y663674D01*
X222059Y667286D01*
X223442Y670624D01*
X225996Y673178D01*
X228708Y674302D01*
X228769Y674340D01*
X228835Y674369D01*
X228873Y674404D01*
X228917Y674431D01*
X228963Y674487D01*
X229016Y674535D01*
X229041Y674581D01*
X229074Y674621D01*
X229100Y674688D01*
X229135Y674751D01*
X229144Y674802D01*
X229162Y674850D01*
X229165Y674922D01*
X229178Y674993D01*
X229171Y675044D01*
X229173Y675096D01*
X229153Y675165D01*
X229142Y675236D01*
X229119Y675282D01*
X229104Y675332D01*
X229063Y675391D01*
X229031Y675455D01*
X228994Y675492D01*
X228964Y675534D01*
X228907Y675577D01*
X228855Y675627D01*
X228793Y675662D01*
X228767Y675681D01*
X228744Y675688D01*
X228708Y675708D01*
X225996Y676832D01*
X223442Y679386D01*
X222059Y682724D01*
X222059Y686336D01*
X223442Y689674D01*
X225996Y692228D01*
X229334Y693611D01*
X232946Y693611D01*
X236284Y692228D01*
X238838Y689674D01*
X240221Y686336D01*
X240221Y682724D01*
X238838Y679386D01*
X236284Y676832D01*
X233572Y675708D01*
X233511Y675670D01*
X233445Y675641D01*
X233407Y675606D01*
X233363Y675579D01*
X233317Y675523D01*
X233264Y675475D01*
X233239Y675429D01*
X233206Y675389D01*
X233180Y675322D01*
X233145Y675259D01*
X233136Y675208D01*
X233118Y675160D01*
X233115Y675088D01*
X233102Y675017D01*
X233109Y674966D01*
X233107Y674914D01*
X233127Y674845D01*
X233138Y674774D01*
X233161Y674728D01*
X233176Y674678D01*
X233217Y674619D01*
X233249Y674555D01*
X233286Y674518D01*
X233316Y674476D01*
X233373Y674433D01*
X233425Y674383D01*
X233487Y674348D01*
X233513Y674329D01*
X233536Y674322D01*
X233572Y674302D01*
X236284Y673178D01*
X238838Y670624D01*
X240221Y667286D01*
X240221Y663674D01*
X238838Y660336D01*
X236284Y657782D01*
X232946Y656399D01*
X229334Y656399D01*
G37*
%LPD*%
%LPC*%
G36*
X77482Y513107D02*
X77482Y513107D01*
X75158Y514070D01*
X73380Y515848D01*
X72417Y518172D01*
X72417Y520688D01*
X73380Y523012D01*
X75158Y524790D01*
X77350Y525698D01*
X77411Y525736D01*
X77477Y525765D01*
X77515Y525800D01*
X77559Y525828D01*
X77605Y525883D01*
X77658Y525931D01*
X77683Y525977D01*
X77716Y526017D01*
X77742Y526084D01*
X77776Y526147D01*
X77786Y526198D01*
X77804Y526247D01*
X77807Y526318D01*
X77820Y526389D01*
X77813Y526440D01*
X77815Y526492D01*
X77795Y526561D01*
X77784Y526632D01*
X77761Y526679D01*
X77746Y526729D01*
X77705Y526788D01*
X77673Y526852D01*
X77636Y526888D01*
X77606Y526931D01*
X77548Y526974D01*
X77497Y527024D01*
X77434Y527058D01*
X77409Y527078D01*
X77386Y527085D01*
X77350Y527105D01*
X75092Y528040D01*
X73314Y529818D01*
X72351Y532142D01*
X72351Y534658D01*
X73314Y536982D01*
X75092Y538760D01*
X75444Y538906D01*
X75505Y538943D01*
X75570Y538973D01*
X75609Y539008D01*
X75653Y539035D01*
X75699Y539090D01*
X75751Y539139D01*
X75777Y539185D01*
X75810Y539225D01*
X75835Y539292D01*
X75870Y539355D01*
X75879Y539406D01*
X75898Y539454D01*
X75901Y539526D01*
X75914Y539597D01*
X75906Y539648D01*
X75908Y539700D01*
X75888Y539769D01*
X75878Y539840D01*
X75854Y539886D01*
X75840Y539936D01*
X75799Y539995D01*
X75766Y540059D01*
X75729Y540096D01*
X75700Y540138D01*
X75642Y540181D01*
X75591Y540231D01*
X75528Y540266D01*
X75502Y540285D01*
X75480Y540292D01*
X75444Y540312D01*
X75092Y540458D01*
X73314Y542236D01*
X72351Y544560D01*
X72351Y547076D01*
X73314Y549400D01*
X75092Y551178D01*
X77416Y552141D01*
X79932Y552141D01*
X82256Y551178D01*
X84034Y549400D01*
X84997Y547076D01*
X84997Y544560D01*
X84034Y542236D01*
X82256Y540458D01*
X81904Y540312D01*
X81843Y540275D01*
X81778Y540245D01*
X81739Y540210D01*
X81695Y540183D01*
X81649Y540127D01*
X81597Y540079D01*
X81572Y540033D01*
X81538Y539993D01*
X81513Y539926D01*
X81478Y539863D01*
X81469Y539812D01*
X81450Y539764D01*
X81447Y539692D01*
X81434Y539621D01*
X81442Y539570D01*
X81440Y539518D01*
X81460Y539449D01*
X81470Y539378D01*
X81494Y539332D01*
X81508Y539282D01*
X81549Y539223D01*
X81582Y539159D01*
X81619Y539122D01*
X81649Y539080D01*
X81706Y539037D01*
X81757Y538987D01*
X81820Y538952D01*
X81846Y538933D01*
X81868Y538925D01*
X81904Y538906D01*
X82256Y538760D01*
X84034Y536982D01*
X84997Y534658D01*
X84997Y532142D01*
X84034Y529818D01*
X82256Y528040D01*
X80064Y527132D01*
X80003Y527094D01*
X79937Y527065D01*
X79899Y527030D01*
X79855Y527002D01*
X79809Y526947D01*
X79756Y526899D01*
X79731Y526853D01*
X79698Y526813D01*
X79672Y526746D01*
X79638Y526683D01*
X79628Y526632D01*
X79610Y526583D01*
X79607Y526512D01*
X79594Y526441D01*
X79601Y526390D01*
X79599Y526338D01*
X79619Y526269D01*
X79630Y526198D01*
X79653Y526151D01*
X79668Y526101D01*
X79709Y526042D01*
X79741Y525978D01*
X79778Y525942D01*
X79808Y525899D01*
X79866Y525856D01*
X79917Y525806D01*
X79980Y525772D01*
X80005Y525752D01*
X80028Y525745D01*
X80064Y525725D01*
X82322Y524790D01*
X84100Y523012D01*
X85063Y520688D01*
X85063Y518172D01*
X84100Y515848D01*
X82322Y514070D01*
X79998Y513107D01*
X77482Y513107D01*
G37*
%LPD*%
%LPC*%
G36*
X157294Y87657D02*
X157294Y87657D01*
X154970Y88620D01*
X153192Y90398D01*
X152229Y92722D01*
X152229Y95238D01*
X153192Y97562D01*
X154970Y99340D01*
X157294Y100303D01*
X159810Y100303D01*
X162134Y99340D01*
X163079Y98395D01*
X163158Y98338D01*
X163233Y98276D01*
X163257Y98267D01*
X163278Y98252D01*
X163371Y98223D01*
X163462Y98188D01*
X163488Y98187D01*
X163513Y98179D01*
X163611Y98182D01*
X163708Y98178D01*
X163733Y98185D01*
X163759Y98186D01*
X163851Y98219D01*
X163944Y98246D01*
X163966Y98261D01*
X163990Y98270D01*
X164066Y98331D01*
X164146Y98386D01*
X164162Y98407D01*
X164182Y98424D01*
X164235Y98505D01*
X164293Y98584D01*
X164301Y98609D01*
X164315Y98631D01*
X164339Y98725D01*
X164369Y98818D01*
X164369Y98844D01*
X164375Y98869D01*
X164368Y98966D01*
X164367Y99064D01*
X164358Y99095D01*
X164356Y99114D01*
X164343Y99145D01*
X164320Y99225D01*
X163857Y100342D01*
X163857Y102858D01*
X164820Y105182D01*
X166598Y106960D01*
X168922Y107923D01*
X171438Y107923D01*
X173762Y106960D01*
X175540Y105182D01*
X175827Y104490D01*
X175864Y104429D01*
X175894Y104363D01*
X175929Y104325D01*
X175956Y104281D01*
X176012Y104235D01*
X176060Y104182D01*
X176106Y104157D01*
X176146Y104124D01*
X176213Y104098D01*
X176276Y104064D01*
X176327Y104054D01*
X176375Y104036D01*
X176447Y104033D01*
X176518Y104020D01*
X176569Y104027D01*
X176621Y104025D01*
X176690Y104045D01*
X176761Y104056D01*
X176807Y104079D01*
X176857Y104094D01*
X176916Y104135D01*
X176980Y104167D01*
X177017Y104204D01*
X177059Y104234D01*
X177102Y104292D01*
X177152Y104343D01*
X177187Y104406D01*
X177206Y104431D01*
X177213Y104454D01*
X177233Y104490D01*
X177520Y105182D01*
X179298Y106960D01*
X181622Y107923D01*
X184138Y107923D01*
X186462Y106960D01*
X188240Y105182D01*
X189203Y102858D01*
X189203Y100342D01*
X188240Y98018D01*
X186462Y96240D01*
X184138Y95277D01*
X181622Y95277D01*
X179298Y96240D01*
X177520Y98018D01*
X177233Y98710D01*
X177196Y98771D01*
X177166Y98837D01*
X177131Y98875D01*
X177104Y98919D01*
X177049Y98965D01*
X177000Y99018D01*
X176954Y99043D01*
X176914Y99076D01*
X176847Y99102D01*
X176784Y99136D01*
X176733Y99146D01*
X176685Y99164D01*
X176613Y99167D01*
X176542Y99180D01*
X176491Y99173D01*
X176439Y99175D01*
X176370Y99155D01*
X176299Y99144D01*
X176253Y99121D01*
X176203Y99106D01*
X176144Y99065D01*
X176080Y99033D01*
X176043Y98996D01*
X176001Y98966D01*
X175958Y98908D01*
X175908Y98857D01*
X175873Y98794D01*
X175854Y98769D01*
X175847Y98746D01*
X175827Y98710D01*
X175540Y98018D01*
X173762Y96240D01*
X171438Y95277D01*
X168922Y95277D01*
X166598Y96240D01*
X165653Y97185D01*
X165574Y97242D01*
X165499Y97304D01*
X165475Y97313D01*
X165454Y97328D01*
X165361Y97357D01*
X165270Y97392D01*
X165243Y97393D01*
X165219Y97401D01*
X165121Y97398D01*
X165024Y97402D01*
X164999Y97395D01*
X164973Y97394D01*
X164881Y97361D01*
X164788Y97334D01*
X164766Y97319D01*
X164742Y97310D01*
X164665Y97249D01*
X164586Y97194D01*
X164570Y97173D01*
X164550Y97156D01*
X164497Y97074D01*
X164439Y96996D01*
X164431Y96971D01*
X164417Y96949D01*
X164393Y96855D01*
X164363Y96762D01*
X164363Y96736D01*
X164357Y96711D01*
X164364Y96614D01*
X164365Y96516D01*
X164374Y96485D01*
X164376Y96466D01*
X164389Y96435D01*
X164412Y96355D01*
X164875Y95238D01*
X164875Y92722D01*
X163912Y90398D01*
X162134Y88620D01*
X159810Y87657D01*
X157294Y87657D01*
G37*
%LPD*%
%LPC*%
G36*
X252529Y387139D02*
X252529Y387139D01*
X248794Y388686D01*
X245936Y391544D01*
X244389Y395279D01*
X244389Y399321D01*
X245936Y403056D01*
X248794Y405914D01*
X252529Y407461D01*
X256571Y407461D01*
X260306Y405914D01*
X263164Y403056D01*
X264711Y399321D01*
X264711Y395279D01*
X263164Y391544D01*
X260306Y388686D01*
X256571Y387139D01*
X252529Y387139D01*
G37*
%LPD*%
%LPC*%
G36*
X252529Y183939D02*
X252529Y183939D01*
X248794Y185486D01*
X245936Y188344D01*
X244389Y192079D01*
X244389Y196121D01*
X245936Y199856D01*
X248794Y202714D01*
X252529Y204261D01*
X256571Y204261D01*
X260306Y202714D01*
X263164Y199856D01*
X264711Y196121D01*
X264711Y192079D01*
X263164Y188344D01*
X260306Y185486D01*
X256571Y183939D01*
X252529Y183939D01*
G37*
%LPD*%
%LPC*%
G36*
X23929Y209339D02*
X23929Y209339D01*
X20194Y210886D01*
X17336Y213744D01*
X15789Y217479D01*
X15789Y221521D01*
X17336Y225256D01*
X20194Y228114D01*
X23929Y229661D01*
X27971Y229661D01*
X31706Y228114D01*
X34564Y225256D01*
X36111Y221521D01*
X36111Y217479D01*
X34564Y213744D01*
X31706Y210886D01*
X27971Y209339D01*
X23929Y209339D01*
G37*
%LPD*%
%LPC*%
G36*
X252529Y209339D02*
X252529Y209339D01*
X248794Y210886D01*
X245936Y213744D01*
X244389Y217479D01*
X244389Y221521D01*
X245936Y225256D01*
X248794Y228114D01*
X252529Y229661D01*
X256571Y229661D01*
X260306Y228114D01*
X263164Y225256D01*
X264711Y221521D01*
X264711Y217479D01*
X263164Y213744D01*
X260306Y210886D01*
X256571Y209339D01*
X252529Y209339D01*
G37*
%LPD*%
%LPC*%
G36*
X252529Y234739D02*
X252529Y234739D01*
X248794Y236286D01*
X245936Y239144D01*
X244389Y242879D01*
X244389Y246921D01*
X245936Y250656D01*
X248794Y253514D01*
X252529Y255061D01*
X256571Y255061D01*
X260306Y253514D01*
X263164Y250656D01*
X264711Y246921D01*
X264711Y242879D01*
X263164Y239144D01*
X260306Y236286D01*
X256571Y234739D01*
X252529Y234739D01*
G37*
%LPD*%
%LPC*%
G36*
X23929Y234739D02*
X23929Y234739D01*
X20194Y236286D01*
X17336Y239144D01*
X15789Y242879D01*
X15789Y246921D01*
X17336Y250656D01*
X20194Y253514D01*
X23929Y255061D01*
X27971Y255061D01*
X31706Y253514D01*
X34564Y250656D01*
X36111Y246921D01*
X36111Y242879D01*
X34564Y239144D01*
X31706Y236286D01*
X27971Y234739D01*
X23929Y234739D01*
G37*
%LPD*%
%LPC*%
G36*
X23929Y260139D02*
X23929Y260139D01*
X20194Y261686D01*
X17336Y264544D01*
X15789Y268279D01*
X15789Y272321D01*
X17336Y276056D01*
X20194Y278914D01*
X23929Y280461D01*
X27971Y280461D01*
X31706Y278914D01*
X34564Y276056D01*
X36111Y272321D01*
X36111Y268279D01*
X34564Y264544D01*
X31706Y261686D01*
X27971Y260139D01*
X23929Y260139D01*
G37*
%LPD*%
%LPC*%
G36*
X252529Y260139D02*
X252529Y260139D01*
X248794Y261686D01*
X245936Y264544D01*
X244389Y268279D01*
X244389Y272321D01*
X245936Y276056D01*
X248794Y278914D01*
X252529Y280461D01*
X256571Y280461D01*
X260306Y278914D01*
X263164Y276056D01*
X264711Y272321D01*
X264711Y268279D01*
X263164Y264544D01*
X260306Y261686D01*
X256571Y260139D01*
X252529Y260139D01*
G37*
%LPD*%
%LPC*%
G36*
X252529Y285539D02*
X252529Y285539D01*
X248794Y287086D01*
X245936Y289944D01*
X244389Y293679D01*
X244389Y297721D01*
X245936Y301456D01*
X248794Y304314D01*
X252529Y305861D01*
X256571Y305861D01*
X260306Y304314D01*
X263164Y301456D01*
X264711Y297721D01*
X264711Y293679D01*
X263164Y289944D01*
X260306Y287086D01*
X256571Y285539D01*
X252529Y285539D01*
G37*
%LPD*%
%LPC*%
G36*
X23929Y361739D02*
X23929Y361739D01*
X20194Y363286D01*
X17336Y366144D01*
X15789Y369879D01*
X15789Y373921D01*
X17336Y377656D01*
X20194Y380514D01*
X23929Y382061D01*
X27971Y382061D01*
X31706Y380514D01*
X34564Y377656D01*
X36111Y373921D01*
X36111Y369879D01*
X34564Y366144D01*
X31706Y363286D01*
X27971Y361739D01*
X23929Y361739D01*
G37*
%LPD*%
%LPC*%
G36*
X23929Y285539D02*
X23929Y285539D01*
X20194Y287086D01*
X17336Y289944D01*
X15789Y293679D01*
X15789Y297721D01*
X17336Y301456D01*
X20194Y304314D01*
X23929Y305861D01*
X27971Y305861D01*
X31706Y304314D01*
X34564Y301456D01*
X36111Y297721D01*
X36111Y293679D01*
X34564Y289944D01*
X31706Y287086D01*
X27971Y285539D01*
X23929Y285539D01*
G37*
%LPD*%
%LPC*%
G36*
X252529Y310939D02*
X252529Y310939D01*
X248794Y312486D01*
X245936Y315344D01*
X244389Y319079D01*
X244389Y323121D01*
X245936Y326856D01*
X248794Y329714D01*
X252529Y331261D01*
X256571Y331261D01*
X260306Y329714D01*
X263164Y326856D01*
X264711Y323121D01*
X264711Y319079D01*
X263164Y315344D01*
X260306Y312486D01*
X256571Y310939D01*
X252529Y310939D01*
G37*
%LPD*%
%LPC*%
G36*
X23929Y310939D02*
X23929Y310939D01*
X20194Y312486D01*
X17336Y315344D01*
X15789Y319079D01*
X15789Y323121D01*
X17336Y326856D01*
X20194Y329714D01*
X23929Y331261D01*
X27971Y331261D01*
X31706Y329714D01*
X34564Y326856D01*
X36111Y323121D01*
X36111Y319079D01*
X34564Y315344D01*
X31706Y312486D01*
X27971Y310939D01*
X23929Y310939D01*
G37*
%LPD*%
%LPC*%
G36*
X213879Y320039D02*
X213879Y320039D01*
X210144Y321586D01*
X207286Y324444D01*
X205739Y328179D01*
X205739Y332221D01*
X207286Y335956D01*
X210144Y338814D01*
X213879Y340361D01*
X217921Y340361D01*
X221656Y338814D01*
X224514Y335956D01*
X226061Y332221D01*
X226061Y328179D01*
X224514Y324444D01*
X221656Y321586D01*
X217921Y320039D01*
X213879Y320039D01*
G37*
%LPD*%
%LPC*%
G36*
X23929Y336339D02*
X23929Y336339D01*
X20194Y337886D01*
X17336Y340744D01*
X15789Y344479D01*
X15789Y348521D01*
X17336Y352256D01*
X20194Y355114D01*
X23929Y356661D01*
X27971Y356661D01*
X31706Y355114D01*
X34564Y352256D01*
X36111Y348521D01*
X36111Y344479D01*
X34564Y340744D01*
X31706Y337886D01*
X27971Y336339D01*
X23929Y336339D01*
G37*
%LPD*%
%LPC*%
G36*
X252529Y336339D02*
X252529Y336339D01*
X248794Y337886D01*
X245936Y340744D01*
X244389Y344479D01*
X244389Y348521D01*
X245936Y352256D01*
X248794Y355114D01*
X252529Y356661D01*
X256571Y356661D01*
X260306Y355114D01*
X263164Y352256D01*
X264711Y348521D01*
X264711Y344479D01*
X263164Y340744D01*
X260306Y337886D01*
X256571Y336339D01*
X252529Y336339D01*
G37*
%LPD*%
%LPC*%
G36*
X213879Y370839D02*
X213879Y370839D01*
X210144Y372386D01*
X207286Y375244D01*
X205739Y378979D01*
X205739Y383021D01*
X207286Y386756D01*
X210144Y389614D01*
X213879Y391161D01*
X217921Y391161D01*
X221656Y389614D01*
X224514Y386756D01*
X226061Y383021D01*
X226061Y378979D01*
X224514Y375244D01*
X221656Y372386D01*
X217921Y370839D01*
X213879Y370839D01*
G37*
%LPD*%
%LPC*%
G36*
X252529Y590339D02*
X252529Y590339D01*
X248794Y591886D01*
X245936Y594744D01*
X244389Y598479D01*
X244389Y602521D01*
X245936Y606256D01*
X248794Y609114D01*
X252529Y610661D01*
X256571Y610661D01*
X260306Y609114D01*
X263164Y606256D01*
X264711Y602521D01*
X264711Y598479D01*
X263164Y594744D01*
X260306Y591886D01*
X256571Y590339D01*
X252529Y590339D01*
G37*
%LPD*%
%LPC*%
G36*
X213879Y345439D02*
X213879Y345439D01*
X210144Y346986D01*
X207286Y349844D01*
X205739Y353579D01*
X205739Y357621D01*
X207286Y361356D01*
X210144Y364214D01*
X213879Y365761D01*
X217921Y365761D01*
X221656Y364214D01*
X224514Y361356D01*
X226061Y357621D01*
X226061Y353579D01*
X224514Y349844D01*
X221656Y346986D01*
X217921Y345439D01*
X213879Y345439D01*
G37*
%LPD*%
%LPC*%
G36*
X252529Y564939D02*
X252529Y564939D01*
X248794Y566486D01*
X245936Y569344D01*
X244389Y573079D01*
X244389Y577121D01*
X245936Y580856D01*
X248794Y583714D01*
X252529Y585261D01*
X256571Y585261D01*
X260306Y583714D01*
X263164Y580856D01*
X264711Y577121D01*
X264711Y573079D01*
X263164Y569344D01*
X260306Y566486D01*
X256571Y564939D01*
X252529Y564939D01*
G37*
%LPD*%
%LPC*%
G36*
X23929Y564939D02*
X23929Y564939D01*
X20194Y566486D01*
X17336Y569344D01*
X15789Y573079D01*
X15789Y577121D01*
X17336Y580856D01*
X20194Y583714D01*
X23929Y585261D01*
X27971Y585261D01*
X31706Y583714D01*
X34564Y580856D01*
X36111Y577121D01*
X36111Y573079D01*
X34564Y569344D01*
X31706Y566486D01*
X27971Y564939D01*
X23929Y564939D01*
G37*
%LPD*%
%LPC*%
G36*
X23929Y387139D02*
X23929Y387139D01*
X20194Y388686D01*
X17336Y391544D01*
X15789Y395279D01*
X15789Y399321D01*
X17336Y403056D01*
X20194Y405914D01*
X23929Y407461D01*
X27971Y407461D01*
X31706Y405914D01*
X34564Y403056D01*
X36111Y399321D01*
X36111Y395279D01*
X34564Y391544D01*
X31706Y388686D01*
X27971Y387139D01*
X23929Y387139D01*
G37*
%LPD*%
%LPC*%
G36*
X23929Y539539D02*
X23929Y539539D01*
X20194Y541086D01*
X17336Y543944D01*
X15789Y547679D01*
X15789Y551721D01*
X17336Y555456D01*
X20194Y558314D01*
X23929Y559861D01*
X27971Y559861D01*
X31706Y558314D01*
X34564Y555456D01*
X36111Y551721D01*
X36111Y547679D01*
X34564Y543944D01*
X31706Y541086D01*
X27971Y539539D01*
X23929Y539539D01*
G37*
%LPD*%
%LPC*%
G36*
X252529Y361739D02*
X252529Y361739D01*
X248794Y363286D01*
X245936Y366144D01*
X244389Y369879D01*
X244389Y373921D01*
X245936Y377656D01*
X248794Y380514D01*
X252529Y382061D01*
X256571Y382061D01*
X260306Y380514D01*
X263164Y377656D01*
X264711Y373921D01*
X264711Y369879D01*
X263164Y366144D01*
X260306Y363286D01*
X256571Y361739D01*
X252529Y361739D01*
G37*
%LPD*%
%LPC*%
G36*
X252529Y514139D02*
X252529Y514139D01*
X248794Y515686D01*
X245936Y518544D01*
X244389Y522279D01*
X244389Y526321D01*
X245936Y530056D01*
X248794Y532914D01*
X252529Y534461D01*
X256571Y534461D01*
X260306Y532914D01*
X263164Y530056D01*
X264711Y526321D01*
X264711Y522279D01*
X263164Y518544D01*
X260306Y515686D01*
X256571Y514139D01*
X252529Y514139D01*
G37*
%LPD*%
%LPC*%
G36*
X23929Y514139D02*
X23929Y514139D01*
X20194Y515686D01*
X17336Y518544D01*
X15789Y522279D01*
X15789Y526321D01*
X17336Y530056D01*
X20194Y532914D01*
X23929Y534461D01*
X27971Y534461D01*
X31706Y532914D01*
X34564Y530056D01*
X36111Y526321D01*
X36111Y522279D01*
X34564Y518544D01*
X31706Y515686D01*
X27971Y514139D01*
X23929Y514139D01*
G37*
%LPD*%
%LPC*%
G36*
X252529Y539539D02*
X252529Y539539D01*
X248794Y541086D01*
X245936Y543944D01*
X244389Y547679D01*
X244389Y551721D01*
X245936Y555456D01*
X248794Y558314D01*
X252529Y559861D01*
X256571Y559861D01*
X260306Y558314D01*
X263164Y555456D01*
X264711Y551721D01*
X264711Y547679D01*
X263164Y543944D01*
X260306Y541086D01*
X256571Y539539D01*
X252529Y539539D01*
G37*
%LPD*%
%LPC*%
G36*
X252529Y488739D02*
X252529Y488739D01*
X248794Y490286D01*
X245936Y493144D01*
X244389Y496879D01*
X244389Y500921D01*
X245936Y504656D01*
X248794Y507514D01*
X252529Y509061D01*
X256571Y509061D01*
X260306Y507514D01*
X263164Y504656D01*
X264711Y500921D01*
X264711Y496879D01*
X263164Y493144D01*
X260306Y490286D01*
X256571Y488739D01*
X252529Y488739D01*
G37*
%LPD*%
%LPC*%
G36*
X23929Y488739D02*
X23929Y488739D01*
X20194Y490286D01*
X17336Y493144D01*
X15789Y496879D01*
X15789Y500921D01*
X17336Y504656D01*
X20194Y507514D01*
X23929Y509061D01*
X27971Y509061D01*
X31706Y507514D01*
X34564Y504656D01*
X36111Y500921D01*
X36111Y496879D01*
X34564Y493144D01*
X31706Y490286D01*
X27971Y488739D01*
X23929Y488739D01*
G37*
%LPD*%
%LPC*%
G36*
X252529Y463339D02*
X252529Y463339D01*
X248794Y464886D01*
X245936Y467744D01*
X244389Y471479D01*
X244389Y475521D01*
X245936Y479256D01*
X248794Y482114D01*
X252529Y483661D01*
X256571Y483661D01*
X260306Y482114D01*
X263164Y479256D01*
X264711Y475521D01*
X264711Y471479D01*
X263164Y467744D01*
X260306Y464886D01*
X256571Y463339D01*
X252529Y463339D01*
G37*
%LPD*%
%LPC*%
G36*
X23929Y463339D02*
X23929Y463339D01*
X20194Y464886D01*
X17336Y467744D01*
X15789Y471479D01*
X15789Y475521D01*
X17336Y479256D01*
X20194Y482114D01*
X23929Y483661D01*
X27971Y483661D01*
X31706Y482114D01*
X34564Y479256D01*
X36111Y475521D01*
X36111Y471479D01*
X34564Y467744D01*
X31706Y464886D01*
X27971Y463339D01*
X23929Y463339D01*
G37*
%LPD*%
%LPC*%
G36*
X252529Y437939D02*
X252529Y437939D01*
X248794Y439486D01*
X245936Y442344D01*
X244389Y446079D01*
X244389Y450121D01*
X245936Y453856D01*
X248794Y456714D01*
X252529Y458261D01*
X256571Y458261D01*
X260306Y456714D01*
X263164Y453856D01*
X264711Y450121D01*
X264711Y446079D01*
X263164Y442344D01*
X260306Y439486D01*
X256571Y437939D01*
X252529Y437939D01*
G37*
%LPD*%
%LPC*%
G36*
X23929Y437939D02*
X23929Y437939D01*
X20194Y439486D01*
X17336Y442344D01*
X15789Y446079D01*
X15789Y450121D01*
X17336Y453856D01*
X20194Y456714D01*
X23929Y458261D01*
X27971Y458261D01*
X31706Y456714D01*
X34564Y453856D01*
X36111Y450121D01*
X36111Y446079D01*
X34564Y442344D01*
X31706Y439486D01*
X27971Y437939D01*
X23929Y437939D01*
G37*
%LPD*%
%LPC*%
G36*
X252529Y412539D02*
X252529Y412539D01*
X248794Y414086D01*
X245936Y416944D01*
X244389Y420679D01*
X244389Y424721D01*
X245936Y428456D01*
X248794Y431314D01*
X252529Y432861D01*
X256571Y432861D01*
X260306Y431314D01*
X263164Y428456D01*
X264711Y424721D01*
X264711Y420679D01*
X263164Y416944D01*
X260306Y414086D01*
X256571Y412539D01*
X252529Y412539D01*
G37*
%LPD*%
%LPC*%
G36*
X23929Y412539D02*
X23929Y412539D01*
X20194Y414086D01*
X17336Y416944D01*
X15789Y420679D01*
X15789Y424721D01*
X17336Y428456D01*
X20194Y431314D01*
X23929Y432861D01*
X27971Y432861D01*
X31706Y431314D01*
X34564Y428456D01*
X36111Y424721D01*
X36111Y420679D01*
X34564Y416944D01*
X31706Y414086D01*
X27971Y412539D01*
X23929Y412539D01*
G37*
%LPD*%
%LPC*%
G36*
X23929Y183939D02*
X23929Y183939D01*
X20194Y185486D01*
X17336Y188344D01*
X15789Y192079D01*
X15789Y196121D01*
X17336Y199856D01*
X20194Y202714D01*
X23929Y204261D01*
X27971Y204261D01*
X31706Y202714D01*
X34564Y199856D01*
X36111Y196121D01*
X36111Y192079D01*
X34564Y188344D01*
X31706Y185486D01*
X27971Y183939D01*
X23929Y183939D01*
G37*
%LPD*%
%LPC*%
G36*
X252529Y158539D02*
X252529Y158539D01*
X248794Y160086D01*
X245936Y162944D01*
X244389Y166679D01*
X244389Y170721D01*
X245936Y174456D01*
X248794Y177314D01*
X252529Y178861D01*
X256571Y178861D01*
X260306Y177314D01*
X263164Y174456D01*
X264711Y170721D01*
X264711Y166679D01*
X263164Y162944D01*
X260306Y160086D01*
X256571Y158539D01*
X252529Y158539D01*
G37*
%LPD*%
%LPC*%
G36*
X23929Y158539D02*
X23929Y158539D01*
X20194Y160086D01*
X17336Y162944D01*
X15789Y166679D01*
X15789Y170721D01*
X17336Y174456D01*
X20194Y177314D01*
X23929Y178861D01*
X27971Y178861D01*
X31706Y177314D01*
X34564Y174456D01*
X36111Y170721D01*
X36111Y166679D01*
X34564Y162944D01*
X31706Y160086D01*
X27971Y158539D01*
X23929Y158539D01*
G37*
%LPD*%
%LPC*%
G36*
X252529Y133139D02*
X252529Y133139D01*
X248794Y134686D01*
X245936Y137544D01*
X244389Y141279D01*
X244389Y145321D01*
X245936Y149056D01*
X248794Y151914D01*
X252529Y153461D01*
X256571Y153461D01*
X260306Y151914D01*
X263164Y149056D01*
X264711Y145321D01*
X264711Y141279D01*
X263164Y137544D01*
X260306Y134686D01*
X256571Y133139D01*
X252529Y133139D01*
G37*
%LPD*%
%LPC*%
G36*
X23929Y133139D02*
X23929Y133139D01*
X20194Y134686D01*
X17336Y137544D01*
X15789Y141279D01*
X15789Y145321D01*
X17336Y149056D01*
X20194Y151914D01*
X23929Y153461D01*
X27971Y153461D01*
X31706Y151914D01*
X34564Y149056D01*
X36111Y145321D01*
X36111Y141279D01*
X34564Y137544D01*
X31706Y134686D01*
X27971Y133139D01*
X23929Y133139D01*
G37*
%LPD*%
%LPC*%
G36*
X252529Y107739D02*
X252529Y107739D01*
X248794Y109286D01*
X245936Y112144D01*
X244389Y115879D01*
X244389Y119921D01*
X245936Y123656D01*
X248794Y126514D01*
X252529Y128061D01*
X256571Y128061D01*
X260306Y126514D01*
X263164Y123656D01*
X264711Y119921D01*
X264711Y115879D01*
X263164Y112144D01*
X260306Y109286D01*
X256571Y107739D01*
X252529Y107739D01*
G37*
%LPD*%
%LPC*%
G36*
X23929Y107739D02*
X23929Y107739D01*
X20194Y109286D01*
X17336Y112144D01*
X15789Y115879D01*
X15789Y119921D01*
X17336Y123656D01*
X20194Y126514D01*
X23929Y128061D01*
X27971Y128061D01*
X31706Y126514D01*
X34564Y123656D01*
X36111Y119921D01*
X36111Y115879D01*
X34564Y112144D01*
X31706Y109286D01*
X27971Y107739D01*
X23929Y107739D01*
G37*
%LPD*%
%LPC*%
G36*
X252529Y82339D02*
X252529Y82339D01*
X248794Y83886D01*
X245936Y86744D01*
X244389Y90479D01*
X244389Y94521D01*
X245936Y98256D01*
X248794Y101114D01*
X252529Y102661D01*
X256571Y102661D01*
X260306Y101114D01*
X263164Y98256D01*
X264711Y94521D01*
X264711Y90479D01*
X263164Y86744D01*
X260306Y83886D01*
X256571Y82339D01*
X252529Y82339D01*
G37*
%LPD*%
%LPC*%
G36*
X23929Y82339D02*
X23929Y82339D01*
X20194Y83886D01*
X17336Y86744D01*
X15789Y90479D01*
X15789Y94521D01*
X17336Y98256D01*
X20194Y101114D01*
X23929Y102661D01*
X27971Y102661D01*
X31706Y101114D01*
X34564Y98256D01*
X36111Y94521D01*
X36111Y90479D01*
X34564Y86744D01*
X31706Y83886D01*
X27971Y82339D01*
X23929Y82339D01*
G37*
%LPD*%
%LPC*%
G36*
X252529Y666539D02*
X252529Y666539D01*
X248794Y668086D01*
X245936Y670944D01*
X244389Y674679D01*
X244389Y678721D01*
X245936Y682456D01*
X248794Y685314D01*
X252529Y686861D01*
X256571Y686861D01*
X260306Y685314D01*
X263164Y682456D01*
X264711Y678721D01*
X264711Y674679D01*
X263164Y670944D01*
X260306Y668086D01*
X256571Y666539D01*
X252529Y666539D01*
G37*
%LPD*%
%LPC*%
G36*
X23929Y666539D02*
X23929Y666539D01*
X20194Y668086D01*
X17336Y670944D01*
X15789Y674679D01*
X15789Y678721D01*
X17336Y682456D01*
X20194Y685314D01*
X23929Y686861D01*
X27971Y686861D01*
X31706Y685314D01*
X34564Y682456D01*
X36111Y678721D01*
X36111Y674679D01*
X34564Y670944D01*
X31706Y668086D01*
X27971Y666539D01*
X23929Y666539D01*
G37*
%LPD*%
%LPC*%
G36*
X252529Y56939D02*
X252529Y56939D01*
X248794Y58486D01*
X245936Y61344D01*
X244389Y65079D01*
X244389Y69121D01*
X245936Y72856D01*
X248794Y75714D01*
X252529Y77261D01*
X256571Y77261D01*
X260306Y75714D01*
X263164Y72856D01*
X264711Y69121D01*
X264711Y65079D01*
X263164Y61344D01*
X260306Y58486D01*
X256571Y56939D01*
X252529Y56939D01*
G37*
%LPD*%
%LPC*%
G36*
X23929Y56939D02*
X23929Y56939D01*
X20194Y58486D01*
X17336Y61344D01*
X15789Y65079D01*
X15789Y69121D01*
X17336Y72856D01*
X20194Y75714D01*
X23929Y77261D01*
X27971Y77261D01*
X31706Y75714D01*
X34564Y72856D01*
X36111Y69121D01*
X36111Y65079D01*
X34564Y61344D01*
X31706Y58486D01*
X27971Y56939D01*
X23929Y56939D01*
G37*
%LPD*%
%LPC*%
G36*
X106692Y565431D02*
X106692Y565431D01*
X104368Y566394D01*
X102590Y568172D01*
X101627Y570496D01*
X101627Y573163D01*
X101618Y573219D01*
X101616Y573310D01*
X101607Y573334D01*
X101605Y573358D01*
X101590Y573393D01*
X101588Y573406D01*
X101566Y573446D01*
X101565Y573449D01*
X101531Y573541D01*
X101516Y573561D01*
X101506Y573583D01*
X101477Y573615D01*
X101472Y573623D01*
X101449Y573646D01*
X101439Y573656D01*
X101378Y573733D01*
X101357Y573747D01*
X101340Y573765D01*
X101300Y573787D01*
X101294Y573793D01*
X101269Y573804D01*
X101254Y573813D01*
X101171Y573866D01*
X101146Y573872D01*
X101125Y573884D01*
X101078Y573893D01*
X101071Y573896D01*
X101043Y573899D01*
X101028Y573902D01*
X100932Y573926D01*
X100907Y573924D01*
X100883Y573929D01*
X100837Y573922D01*
X100827Y573923D01*
X100791Y573916D01*
X100785Y573915D01*
X100687Y573907D01*
X100664Y573897D01*
X100639Y573894D01*
X100600Y573874D01*
X100586Y573871D01*
X100546Y573847D01*
X100461Y573811D01*
X100436Y573791D01*
X100420Y573783D01*
X100396Y573759D01*
X100388Y573752D01*
X100375Y573745D01*
X100368Y573737D01*
X100330Y573706D01*
X99114Y572490D01*
X96790Y571527D01*
X94274Y571527D01*
X91950Y572490D01*
X90172Y574268D01*
X89209Y576592D01*
X89209Y579108D01*
X90172Y581432D01*
X91950Y583210D01*
X94274Y584173D01*
X96790Y584173D01*
X99114Y583210D01*
X100892Y581432D01*
X101855Y579108D01*
X101855Y576441D01*
X101864Y576385D01*
X101866Y576294D01*
X101875Y576270D01*
X101877Y576246D01*
X101892Y576211D01*
X101894Y576198D01*
X101916Y576158D01*
X101917Y576155D01*
X101951Y576063D01*
X101966Y576043D01*
X101976Y576021D01*
X102005Y575989D01*
X102010Y575981D01*
X102033Y575958D01*
X102043Y575948D01*
X102104Y575871D01*
X102125Y575857D01*
X102142Y575839D01*
X102182Y575817D01*
X102188Y575811D01*
X102213Y575800D01*
X102228Y575791D01*
X102311Y575738D01*
X102336Y575732D01*
X102357Y575720D01*
X102404Y575711D01*
X102411Y575708D01*
X102439Y575705D01*
X102454Y575702D01*
X102550Y575678D01*
X102575Y575680D01*
X102599Y575675D01*
X102645Y575682D01*
X102655Y575681D01*
X102691Y575688D01*
X102697Y575689D01*
X102795Y575697D01*
X102818Y575707D01*
X102843Y575710D01*
X102882Y575730D01*
X102896Y575733D01*
X102936Y575757D01*
X103021Y575793D01*
X103046Y575813D01*
X103062Y575821D01*
X103086Y575845D01*
X103094Y575852D01*
X103107Y575859D01*
X103114Y575867D01*
X103152Y575898D01*
X104368Y577114D01*
X106692Y578077D01*
X109208Y578077D01*
X111532Y577114D01*
X113310Y575336D01*
X114273Y573012D01*
X114273Y570496D01*
X113310Y568172D01*
X111532Y566394D01*
X109208Y565431D01*
X106692Y565431D01*
G37*
%LPD*%
%LPC*%
G36*
X54622Y179097D02*
X54622Y179097D01*
X52298Y180060D01*
X50520Y181838D01*
X49557Y184162D01*
X49557Y186678D01*
X50520Y189002D01*
X52298Y190780D01*
X54622Y191743D01*
X57138Y191743D01*
X58827Y191043D01*
X58897Y191026D01*
X58964Y191001D01*
X59016Y190999D01*
X59067Y190987D01*
X59138Y190993D01*
X59210Y190990D01*
X59260Y191005D01*
X59312Y191010D01*
X59377Y191039D01*
X59446Y191059D01*
X59489Y191089D01*
X59536Y191110D01*
X59589Y191158D01*
X59648Y191199D01*
X59679Y191241D01*
X59718Y191276D01*
X59752Y191339D01*
X59795Y191397D01*
X59811Y191446D01*
X59836Y191492D01*
X59849Y191562D01*
X59871Y191630D01*
X59871Y191682D01*
X59880Y191734D01*
X59869Y191805D01*
X59869Y191876D01*
X59849Y191945D01*
X59844Y191977D01*
X59834Y191998D01*
X59822Y192038D01*
X59717Y192290D01*
X59717Y194806D01*
X60680Y197130D01*
X62458Y198908D01*
X64782Y199871D01*
X67298Y199871D01*
X69622Y198908D01*
X71400Y197130D01*
X72363Y194806D01*
X72363Y192290D01*
X71400Y189966D01*
X69622Y188188D01*
X67298Y187225D01*
X64782Y187225D01*
X63093Y187925D01*
X63023Y187942D01*
X62956Y187967D01*
X62904Y187969D01*
X62853Y187981D01*
X62782Y187975D01*
X62710Y187978D01*
X62660Y187963D01*
X62608Y187958D01*
X62543Y187929D01*
X62474Y187909D01*
X62431Y187879D01*
X62384Y187858D01*
X62331Y187810D01*
X62272Y187769D01*
X62241Y187727D01*
X62202Y187692D01*
X62168Y187629D01*
X62125Y187572D01*
X62109Y187522D01*
X62084Y187476D01*
X62071Y187406D01*
X62049Y187338D01*
X62049Y187286D01*
X62040Y187234D01*
X62051Y187163D01*
X62051Y187092D01*
X62071Y187023D01*
X62076Y186991D01*
X62087Y186970D01*
X62098Y186931D01*
X62203Y186678D01*
X62203Y184162D01*
X61240Y181838D01*
X59462Y180060D01*
X57138Y179097D01*
X54622Y179097D01*
G37*
%LPD*%
%LPC*%
G36*
X160456Y295711D02*
X160456Y295711D01*
X158132Y296674D01*
X156354Y298452D01*
X155391Y300776D01*
X155391Y303292D01*
X156354Y305616D01*
X158132Y307394D01*
X160456Y308357D01*
X162971Y308357D01*
X165295Y307394D01*
X167074Y305616D01*
X167102Y305548D01*
X167140Y305487D01*
X167169Y305422D01*
X167204Y305383D01*
X167231Y305339D01*
X167287Y305293D01*
X167335Y305241D01*
X167381Y305216D01*
X167421Y305182D01*
X167488Y305157D01*
X167551Y305122D01*
X167602Y305113D01*
X167650Y305094D01*
X167722Y305091D01*
X167793Y305078D01*
X167844Y305086D01*
X167896Y305084D01*
X167965Y305104D01*
X168036Y305114D01*
X168082Y305138D01*
X168132Y305152D01*
X168191Y305193D01*
X168255Y305226D01*
X168292Y305263D01*
X168334Y305293D01*
X168377Y305350D01*
X168427Y305401D01*
X168462Y305464D01*
X168481Y305490D01*
X168489Y305512D01*
X168508Y305548D01*
X168630Y305842D01*
X170408Y307620D01*
X172732Y308583D01*
X175248Y308583D01*
X177572Y307620D01*
X179350Y305842D01*
X180313Y303518D01*
X180313Y301002D01*
X179350Y298678D01*
X177572Y296900D01*
X175248Y295937D01*
X172732Y295937D01*
X170408Y296900D01*
X168630Y298678D01*
X168602Y298746D01*
X168564Y298807D01*
X168535Y298872D01*
X168500Y298911D01*
X168472Y298955D01*
X168417Y299001D01*
X168369Y299053D01*
X168323Y299078D01*
X168283Y299112D01*
X168216Y299137D01*
X168153Y299172D01*
X168102Y299181D01*
X168053Y299200D01*
X167982Y299203D01*
X167911Y299216D01*
X167859Y299208D01*
X167807Y299210D01*
X167739Y299190D01*
X167668Y299180D01*
X167621Y299156D01*
X167571Y299142D01*
X167512Y299101D01*
X167448Y299068D01*
X167412Y299031D01*
X167369Y299001D01*
X167326Y298944D01*
X167276Y298893D01*
X167242Y298830D01*
X167222Y298804D01*
X167215Y298782D01*
X167195Y298746D01*
X167074Y298452D01*
X165295Y296674D01*
X162971Y295711D01*
X160456Y295711D01*
G37*
%LPD*%
%LPC*%
G36*
X153456Y525741D02*
X153456Y525741D01*
X151132Y526704D01*
X149354Y528482D01*
X148391Y530806D01*
X148391Y532666D01*
X148388Y532686D01*
X148390Y532705D01*
X148368Y532807D01*
X148352Y532909D01*
X148342Y532926D01*
X148338Y532946D01*
X148285Y533035D01*
X148236Y533126D01*
X148222Y533140D01*
X148212Y533157D01*
X148133Y533224D01*
X148058Y533296D01*
X148040Y533304D01*
X148025Y533317D01*
X147929Y533356D01*
X147835Y533399D01*
X147815Y533401D01*
X147797Y533409D01*
X147630Y533427D01*
X146062Y533427D01*
X143738Y534390D01*
X141960Y536168D01*
X140997Y538492D01*
X140997Y541008D01*
X141960Y543332D01*
X143738Y545110D01*
X146062Y546073D01*
X148578Y546073D01*
X150902Y545110D01*
X152680Y543332D01*
X153643Y541008D01*
X153643Y539148D01*
X153646Y539128D01*
X153644Y539109D01*
X153666Y539007D01*
X153682Y538905D01*
X153692Y538888D01*
X153696Y538868D01*
X153749Y538779D01*
X153798Y538688D01*
X153812Y538674D01*
X153822Y538657D01*
X153901Y538590D01*
X153976Y538518D01*
X153994Y538510D01*
X154009Y538497D01*
X154105Y538458D01*
X154199Y538415D01*
X154219Y538413D01*
X154237Y538405D01*
X154404Y538387D01*
X155972Y538387D01*
X158296Y537424D01*
X160074Y535646D01*
X161037Y533322D01*
X161037Y530806D01*
X160074Y528482D01*
X158296Y526704D01*
X155972Y525741D01*
X153456Y525741D01*
G37*
%LPD*%
%LPC*%
G36*
X118122Y471197D02*
X118122Y471197D01*
X115798Y472160D01*
X114020Y473938D01*
X113057Y476262D01*
X113057Y478778D01*
X114020Y481102D01*
X114980Y482062D01*
X114992Y482078D01*
X115007Y482090D01*
X115063Y482178D01*
X115124Y482261D01*
X115129Y482280D01*
X115140Y482297D01*
X115165Y482398D01*
X115196Y482497D01*
X115195Y482516D01*
X115200Y482536D01*
X115192Y482639D01*
X115190Y482742D01*
X115183Y482761D01*
X115181Y482781D01*
X115141Y482876D01*
X115105Y482973D01*
X115093Y482989D01*
X115085Y483007D01*
X114980Y483138D01*
X114020Y484098D01*
X113057Y486422D01*
X113057Y488938D01*
X114020Y491262D01*
X115798Y493040D01*
X118122Y494003D01*
X120638Y494003D01*
X122962Y493040D01*
X124740Y491262D01*
X125703Y488938D01*
X125703Y486422D01*
X124740Y484098D01*
X123780Y483138D01*
X123768Y483122D01*
X123753Y483110D01*
X123697Y483022D01*
X123636Y482939D01*
X123631Y482920D01*
X123620Y482903D01*
X123595Y482802D01*
X123564Y482703D01*
X123565Y482684D01*
X123560Y482664D01*
X123568Y482561D01*
X123570Y482458D01*
X123577Y482439D01*
X123579Y482419D01*
X123619Y482324D01*
X123655Y482227D01*
X123667Y482211D01*
X123675Y482193D01*
X123780Y482062D01*
X124740Y481102D01*
X125703Y478778D01*
X125703Y476262D01*
X124740Y473938D01*
X122962Y472160D01*
X120638Y471197D01*
X118122Y471197D01*
G37*
%LPD*%
%LPC*%
G36*
X105882Y339461D02*
X105882Y339461D01*
X103558Y340424D01*
X101780Y342202D01*
X100817Y344526D01*
X100817Y347042D01*
X101780Y349366D01*
X102640Y350225D01*
X102651Y350241D01*
X102667Y350254D01*
X102723Y350341D01*
X102783Y350425D01*
X102789Y350444D01*
X102800Y350461D01*
X102825Y350561D01*
X102855Y350660D01*
X102855Y350680D01*
X102860Y350699D01*
X102852Y350802D01*
X102849Y350906D01*
X102842Y350925D01*
X102841Y350945D01*
X102800Y351040D01*
X102765Y351137D01*
X102752Y351153D01*
X102744Y351171D01*
X102640Y351302D01*
X102403Y351538D01*
X101440Y353862D01*
X101440Y356378D01*
X102403Y358702D01*
X104182Y360480D01*
X106505Y361443D01*
X109021Y361443D01*
X111345Y360480D01*
X113123Y358702D01*
X114086Y356378D01*
X114086Y353862D01*
X113123Y351538D01*
X112264Y350679D01*
X112252Y350663D01*
X112236Y350650D01*
X112180Y350563D01*
X112120Y350479D01*
X112114Y350460D01*
X112103Y350443D01*
X112078Y350343D01*
X112048Y350244D01*
X112048Y350224D01*
X112043Y350205D01*
X112051Y350102D01*
X112054Y349998D01*
X112061Y349979D01*
X112062Y349959D01*
X112103Y349865D01*
X112138Y349767D01*
X112151Y349751D01*
X112159Y349733D01*
X112264Y349602D01*
X112500Y349366D01*
X113463Y347042D01*
X113463Y344526D01*
X112500Y342202D01*
X110722Y340424D01*
X108398Y339461D01*
X105882Y339461D01*
G37*
%LPD*%
%LPC*%
G36*
X209562Y179097D02*
X209562Y179097D01*
X207238Y180060D01*
X205460Y181838D01*
X204497Y184162D01*
X204497Y186678D01*
X205460Y189001D01*
X205531Y189073D01*
X205543Y189089D01*
X205558Y189101D01*
X205614Y189188D01*
X205675Y189272D01*
X205680Y189291D01*
X205691Y189308D01*
X205716Y189408D01*
X205747Y189507D01*
X205746Y189527D01*
X205751Y189547D01*
X205743Y189650D01*
X205741Y189753D01*
X205734Y189772D01*
X205732Y189792D01*
X205692Y189887D01*
X205656Y189984D01*
X205644Y190000D01*
X205636Y190018D01*
X205531Y190149D01*
X205460Y190220D01*
X204497Y192544D01*
X204497Y195060D01*
X205460Y197384D01*
X207238Y199162D01*
X209562Y200125D01*
X212078Y200125D01*
X214402Y199162D01*
X216180Y197384D01*
X217143Y195060D01*
X217143Y192544D01*
X216180Y190220D01*
X216109Y190149D01*
X216097Y190133D01*
X216082Y190121D01*
X216026Y190033D01*
X215965Y189950D01*
X215960Y189931D01*
X215949Y189914D01*
X215923Y189813D01*
X215893Y189714D01*
X215894Y189694D01*
X215889Y189675D01*
X215897Y189572D01*
X215899Y189469D01*
X215906Y189450D01*
X215908Y189430D01*
X215948Y189335D01*
X215984Y189238D01*
X215996Y189222D01*
X216004Y189204D01*
X216109Y189073D01*
X216180Y189001D01*
X217143Y186678D01*
X217143Y184162D01*
X216180Y181838D01*
X214402Y180060D01*
X212078Y179097D01*
X209562Y179097D01*
G37*
%LPD*%
%LPC*%
G36*
X212708Y278111D02*
X212708Y278111D01*
X210384Y279074D01*
X208606Y280852D01*
X207643Y283176D01*
X207643Y285692D01*
X208606Y288016D01*
X210384Y289794D01*
X212708Y290757D01*
X215224Y290757D01*
X217548Y289794D01*
X219326Y288016D01*
X220289Y285692D01*
X220289Y283176D01*
X219326Y280852D01*
X217548Y279074D01*
X215224Y278111D01*
X212708Y278111D01*
G37*
%LPD*%
%LPC*%
G36*
X232422Y267489D02*
X232422Y267489D01*
X230098Y268452D01*
X228320Y270230D01*
X227357Y272554D01*
X227357Y275070D01*
X228320Y277394D01*
X230098Y279172D01*
X232422Y280135D01*
X234938Y280135D01*
X237262Y279172D01*
X239040Y277394D01*
X240003Y275070D01*
X240003Y272554D01*
X239040Y270230D01*
X237262Y268452D01*
X234938Y267489D01*
X232422Y267489D01*
G37*
%LPD*%
%LPC*%
G36*
X203514Y654077D02*
X203514Y654077D01*
X201190Y655040D01*
X199412Y656818D01*
X198449Y659142D01*
X198449Y661658D01*
X199412Y663982D01*
X201190Y665760D01*
X203514Y666723D01*
X206030Y666723D01*
X208354Y665760D01*
X210132Y663982D01*
X211095Y661658D01*
X211095Y659142D01*
X210132Y656818D01*
X208354Y655040D01*
X206030Y654077D01*
X203514Y654077D01*
G37*
%LPD*%
%LPC*%
G36*
X101236Y611123D02*
X101236Y611123D01*
X98912Y612086D01*
X97134Y613864D01*
X96171Y616188D01*
X96171Y618704D01*
X97134Y621028D01*
X98912Y622806D01*
X101236Y623769D01*
X103752Y623769D01*
X106076Y622806D01*
X107854Y621028D01*
X108817Y618704D01*
X108817Y616188D01*
X107854Y613864D01*
X106076Y612086D01*
X103752Y611123D01*
X101236Y611123D01*
G37*
%LPD*%
%LPC*%
G36*
X90182Y599761D02*
X90182Y599761D01*
X87858Y600724D01*
X86080Y602502D01*
X85117Y604826D01*
X85117Y607342D01*
X86080Y609666D01*
X87858Y611444D01*
X90182Y612407D01*
X92698Y612407D01*
X95022Y611444D01*
X96800Y609666D01*
X97763Y607342D01*
X97763Y604826D01*
X96800Y602502D01*
X95022Y600724D01*
X92698Y599761D01*
X90182Y599761D01*
G37*
%LPD*%
%LPC*%
G36*
X108470Y545365D02*
X108470Y545365D01*
X106146Y546328D01*
X104368Y548106D01*
X103405Y550430D01*
X103405Y552946D01*
X104368Y555270D01*
X106146Y557048D01*
X108470Y558011D01*
X110986Y558011D01*
X113310Y557048D01*
X115088Y555270D01*
X116051Y552946D01*
X116051Y550430D01*
X115088Y548106D01*
X113310Y546328D01*
X110986Y545365D01*
X108470Y545365D01*
G37*
%LPD*%
%LPC*%
G36*
X118122Y453417D02*
X118122Y453417D01*
X115798Y454380D01*
X114020Y456158D01*
X113057Y458482D01*
X113057Y460998D01*
X114020Y463322D01*
X115798Y465100D01*
X118122Y466063D01*
X120638Y466063D01*
X122962Y465100D01*
X124740Y463322D01*
X125703Y460998D01*
X125703Y458482D01*
X124740Y456158D01*
X122962Y454380D01*
X120638Y453417D01*
X118122Y453417D01*
G37*
%LPD*%
%LPC*%
G36*
X102882Y162305D02*
X102882Y162305D01*
X100558Y163268D01*
X98780Y165046D01*
X97817Y167370D01*
X97817Y169886D01*
X98780Y172210D01*
X100558Y173988D01*
X102882Y174951D01*
X105398Y174951D01*
X107722Y173988D01*
X109500Y172210D01*
X110463Y169886D01*
X110463Y167370D01*
X109500Y165046D01*
X107722Y163268D01*
X105398Y162305D01*
X102882Y162305D01*
G37*
%LPD*%
%LPC*%
G36*
X196982Y414875D02*
X196982Y414875D01*
X194658Y415837D01*
X192880Y417616D01*
X191917Y419940D01*
X191917Y422455D01*
X192880Y424779D01*
X194658Y426558D01*
X196982Y427520D01*
X199498Y427520D01*
X201822Y426558D01*
X203600Y424779D01*
X204563Y422455D01*
X204563Y419940D01*
X203600Y417616D01*
X201822Y415837D01*
X199498Y414875D01*
X196982Y414875D01*
G37*
%LPD*%
%LPC*%
G36*
X229882Y405157D02*
X229882Y405157D01*
X227558Y406120D01*
X225780Y407898D01*
X224817Y410222D01*
X224817Y412738D01*
X225780Y415062D01*
X227558Y416840D01*
X229882Y417803D01*
X232398Y417803D01*
X234722Y416840D01*
X236500Y415062D01*
X237463Y412738D01*
X237463Y410222D01*
X236500Y407898D01*
X234722Y406120D01*
X232398Y405157D01*
X229882Y405157D01*
G37*
%LPD*%
%LPC*%
G36*
X209562Y123217D02*
X209562Y123217D01*
X207238Y124180D01*
X205460Y125958D01*
X204497Y128282D01*
X204497Y130798D01*
X205460Y133122D01*
X207238Y134900D01*
X209562Y135863D01*
X212078Y135863D01*
X214402Y134900D01*
X216180Y133122D01*
X217143Y130798D01*
X217143Y128282D01*
X216180Y125958D01*
X214402Y124180D01*
X212078Y123217D01*
X209562Y123217D01*
G37*
%LPD*%
%LPC*%
G36*
X207812Y400867D02*
X207812Y400867D01*
X205488Y401829D01*
X203709Y403608D01*
X202747Y405932D01*
X202747Y408447D01*
X203709Y410771D01*
X205488Y412549D01*
X207812Y413512D01*
X210327Y413512D01*
X212651Y412549D01*
X214429Y410771D01*
X215392Y408447D01*
X215392Y405932D01*
X214429Y403608D01*
X212651Y401829D01*
X210327Y400867D01*
X207812Y400867D01*
G37*
%LPD*%
%LPC*%
G36*
X123202Y395573D02*
X123202Y395573D01*
X120878Y396536D01*
X119100Y398314D01*
X118137Y400638D01*
X118137Y403154D01*
X119100Y405478D01*
X120878Y407256D01*
X123202Y408219D01*
X125718Y408219D01*
X128042Y407256D01*
X129820Y405478D01*
X130783Y403154D01*
X130783Y400638D01*
X129820Y398314D01*
X128042Y396536D01*
X125718Y395573D01*
X123202Y395573D01*
G37*
%LPD*%
%LPC*%
G36*
X153682Y107977D02*
X153682Y107977D01*
X151358Y108940D01*
X149580Y110718D01*
X148617Y113042D01*
X148617Y115558D01*
X149580Y117882D01*
X151358Y119660D01*
X153682Y120623D01*
X156198Y120623D01*
X158522Y119660D01*
X160300Y117882D01*
X161263Y115558D01*
X161263Y113042D01*
X160300Y110718D01*
X158522Y108940D01*
X156198Y107977D01*
X153682Y107977D01*
G37*
%LPD*%
%LPC*%
G36*
X113042Y107977D02*
X113042Y107977D01*
X110718Y108940D01*
X108940Y110718D01*
X107977Y113042D01*
X107977Y115558D01*
X108940Y117882D01*
X110718Y119660D01*
X113042Y120623D01*
X115558Y120623D01*
X117882Y119660D01*
X119660Y117882D01*
X120623Y115558D01*
X120623Y113042D01*
X119660Y110718D01*
X117882Y108940D01*
X115558Y107977D01*
X113042Y107977D01*
G37*
%LPD*%
%LPC*%
G36*
X214642Y210847D02*
X214642Y210847D01*
X212318Y211810D01*
X210540Y213588D01*
X209577Y215912D01*
X209577Y218428D01*
X210540Y220752D01*
X212318Y222530D01*
X214642Y223493D01*
X217158Y223493D01*
X219482Y222530D01*
X221260Y220752D01*
X222223Y218428D01*
X222223Y215912D01*
X221260Y213588D01*
X219482Y211810D01*
X217158Y210847D01*
X214642Y210847D01*
G37*
%LPD*%
%LPC*%
G36*
X97802Y92737D02*
X97802Y92737D01*
X95478Y93700D01*
X93700Y95478D01*
X92737Y97802D01*
X92737Y100318D01*
X93700Y102642D01*
X95478Y104420D01*
X97802Y105383D01*
X100318Y105383D01*
X102642Y104420D01*
X104420Y102642D01*
X105383Y100318D01*
X105383Y97802D01*
X104420Y95478D01*
X102642Y93700D01*
X100318Y92737D01*
X97802Y92737D01*
G37*
%LPD*%
%LPC*%
G36*
X187001Y580462D02*
X187001Y580462D01*
X184678Y581425D01*
X182899Y583204D01*
X181936Y585527D01*
X181936Y588043D01*
X182899Y590367D01*
X184678Y592145D01*
X187001Y593108D01*
X189517Y593108D01*
X191841Y592145D01*
X193619Y590367D01*
X194582Y588043D01*
X194582Y585527D01*
X193619Y583204D01*
X191841Y581425D01*
X189517Y580462D01*
X187001Y580462D01*
G37*
%LPD*%
%LPC*%
G36*
X170192Y357179D02*
X170192Y357179D01*
X167868Y358142D01*
X166090Y359920D01*
X165127Y362244D01*
X165127Y364760D01*
X166090Y367084D01*
X167868Y368862D01*
X170192Y369825D01*
X172708Y369825D01*
X175032Y368862D01*
X176810Y367084D01*
X177773Y364760D01*
X177773Y362244D01*
X176810Y359920D01*
X175032Y358142D01*
X172708Y357179D01*
X170192Y357179D01*
G37*
%LPD*%
%LPC*%
G36*
X126024Y86683D02*
X126024Y86683D01*
X123700Y87646D01*
X121922Y89424D01*
X120959Y91748D01*
X120959Y94264D01*
X121922Y96588D01*
X123700Y98366D01*
X126024Y99329D01*
X128540Y99329D01*
X130864Y98366D01*
X132642Y96588D01*
X133605Y94264D01*
X133605Y91748D01*
X132642Y89424D01*
X130864Y87646D01*
X128540Y86683D01*
X126024Y86683D01*
G37*
%LPD*%
%LPC*%
G36*
X124424Y338191D02*
X124424Y338191D01*
X122100Y339154D01*
X120322Y340932D01*
X119359Y343256D01*
X119359Y345772D01*
X120322Y348096D01*
X122100Y349874D01*
X124424Y350837D01*
X126940Y350837D01*
X129264Y349874D01*
X131042Y348096D01*
X132005Y345772D01*
X132005Y343256D01*
X131042Y340932D01*
X129264Y339154D01*
X126940Y338191D01*
X124424Y338191D01*
G37*
%LPD*%
%LPC*%
G36*
X199402Y311177D02*
X199402Y311177D01*
X197078Y312140D01*
X195300Y313918D01*
X194337Y316242D01*
X194337Y318758D01*
X195300Y321082D01*
X197078Y322860D01*
X199402Y323823D01*
X201918Y323823D01*
X204242Y322860D01*
X206020Y321082D01*
X206983Y318758D01*
X206983Y316242D01*
X206020Y313918D01*
X204242Y312140D01*
X201918Y311177D01*
X199402Y311177D01*
G37*
%LPD*%
%LPC*%
G36*
X229882Y283237D02*
X229882Y283237D01*
X227558Y284200D01*
X225780Y285978D01*
X224817Y288302D01*
X224817Y290818D01*
X225780Y293142D01*
X227558Y294920D01*
X229882Y295883D01*
X232398Y295883D01*
X234722Y294920D01*
X236500Y293142D01*
X237463Y290818D01*
X237463Y288302D01*
X236500Y285978D01*
X234722Y284200D01*
X232398Y283237D01*
X229882Y283237D01*
G37*
%LPD*%
%LPC*%
G36*
X162854Y278581D02*
X162854Y278581D01*
X160530Y279544D01*
X158752Y281322D01*
X157789Y283646D01*
X157789Y286161D01*
X158752Y288485D01*
X160530Y290264D01*
X162854Y291226D01*
X165370Y291226D01*
X167694Y290264D01*
X169472Y288485D01*
X170435Y286161D01*
X170435Y283646D01*
X169472Y281322D01*
X167694Y279544D01*
X165370Y278581D01*
X162854Y278581D01*
G37*
%LPD*%
%LPC*%
G36*
X143522Y62257D02*
X143522Y62257D01*
X141198Y63220D01*
X139420Y64998D01*
X138457Y67322D01*
X138457Y69838D01*
X139420Y72162D01*
X141198Y73940D01*
X143522Y74903D01*
X146038Y74903D01*
X148362Y73940D01*
X150140Y72162D01*
X151103Y69838D01*
X151103Y67322D01*
X150140Y64998D01*
X148362Y63220D01*
X146038Y62257D01*
X143522Y62257D01*
G37*
%LPD*%
%LPC*%
G36*
X179132Y544853D02*
X179132Y544853D01*
X176900Y545778D01*
X175192Y547486D01*
X174267Y549718D01*
X174267Y552134D01*
X175192Y554366D01*
X176900Y556074D01*
X179132Y556999D01*
X181548Y556999D01*
X183780Y556074D01*
X185488Y554366D01*
X186413Y552134D01*
X186413Y549718D01*
X185488Y547486D01*
X183780Y545778D01*
X181548Y544853D01*
X179132Y544853D01*
G37*
%LPD*%
%LPC*%
G36*
X27473Y652823D02*
X27473Y652823D01*
X27473Y661346D01*
X28329Y661211D01*
X29850Y660716D01*
X31275Y659990D01*
X32569Y659050D01*
X33700Y657919D01*
X34640Y656625D01*
X35366Y655200D01*
X35861Y653679D01*
X35996Y652823D01*
X27473Y652823D01*
G37*
%LPD*%
%LPC*%
G36*
X27473Y627423D02*
X27473Y627423D01*
X27473Y635946D01*
X28329Y635811D01*
X29850Y635316D01*
X31275Y634590D01*
X32569Y633650D01*
X33700Y632519D01*
X34640Y631225D01*
X35366Y629800D01*
X35861Y628279D01*
X35996Y627423D01*
X27473Y627423D01*
G37*
%LPD*%
%LPC*%
G36*
X217423Y306323D02*
X217423Y306323D01*
X217423Y314846D01*
X218279Y314711D01*
X219800Y314216D01*
X221225Y313490D01*
X222519Y312550D01*
X223650Y311419D01*
X224590Y310125D01*
X225316Y308700D01*
X225811Y307179D01*
X225946Y306323D01*
X217423Y306323D01*
G37*
%LPD*%
%LPC*%
G36*
X256073Y627423D02*
X256073Y627423D01*
X256073Y635946D01*
X256929Y635811D01*
X258450Y635316D01*
X259875Y634590D01*
X261169Y633650D01*
X262300Y632519D01*
X263240Y631225D01*
X263966Y629800D01*
X264461Y628279D01*
X264596Y627423D01*
X256073Y627423D01*
G37*
%LPD*%
%LPC*%
G36*
X256073Y652823D02*
X256073Y652823D01*
X256073Y661346D01*
X256929Y661211D01*
X258450Y660716D01*
X259875Y659990D01*
X261169Y659050D01*
X262300Y657919D01*
X263240Y656625D01*
X263966Y655200D01*
X264461Y653679D01*
X264596Y652823D01*
X256073Y652823D01*
G37*
%LPD*%
%LPC*%
G36*
X244504Y652823D02*
X244504Y652823D01*
X244639Y653679D01*
X245134Y655200D01*
X245860Y656625D01*
X246800Y657919D01*
X247931Y659050D01*
X249225Y659990D01*
X250650Y660716D01*
X252171Y661211D01*
X253027Y661346D01*
X253027Y652823D01*
X244504Y652823D01*
G37*
%LPD*%
%LPC*%
G36*
X15904Y652823D02*
X15904Y652823D01*
X16039Y653679D01*
X16534Y655200D01*
X17260Y656625D01*
X18200Y657919D01*
X19331Y659050D01*
X20625Y659990D01*
X22050Y660716D01*
X23571Y661211D01*
X24427Y661346D01*
X24427Y652823D01*
X15904Y652823D01*
G37*
%LPD*%
%LPC*%
G36*
X256073Y624377D02*
X256073Y624377D01*
X264596Y624377D01*
X264461Y623521D01*
X263966Y622000D01*
X263240Y620575D01*
X262300Y619281D01*
X261169Y618150D01*
X259875Y617210D01*
X258450Y616484D01*
X256929Y615989D01*
X256073Y615854D01*
X256073Y624377D01*
G37*
%LPD*%
%LPC*%
G36*
X244504Y627423D02*
X244504Y627423D01*
X244639Y628279D01*
X245134Y629800D01*
X245860Y631225D01*
X246800Y632519D01*
X247931Y633650D01*
X249225Y634590D01*
X250650Y635316D01*
X252171Y635811D01*
X253027Y635946D01*
X253027Y627423D01*
X244504Y627423D01*
G37*
%LPD*%
%LPC*%
G36*
X205854Y306323D02*
X205854Y306323D01*
X205989Y307179D01*
X206484Y308700D01*
X207210Y310125D01*
X208150Y311419D01*
X209281Y312550D01*
X210575Y313490D01*
X212000Y314216D01*
X213521Y314711D01*
X214377Y314846D01*
X214377Y306323D01*
X205854Y306323D01*
G37*
%LPD*%
%LPC*%
G36*
X15904Y627423D02*
X15904Y627423D01*
X16039Y628279D01*
X16534Y629800D01*
X17260Y631225D01*
X18200Y632519D01*
X19331Y633650D01*
X20625Y634590D01*
X22050Y635316D01*
X23571Y635811D01*
X24427Y635946D01*
X24427Y627423D01*
X15904Y627423D01*
G37*
%LPD*%
%LPC*%
G36*
X217423Y303277D02*
X217423Y303277D01*
X225946Y303277D01*
X225811Y302421D01*
X225316Y300900D01*
X224590Y299475D01*
X223650Y298181D01*
X222519Y297050D01*
X221225Y296110D01*
X219800Y295384D01*
X218279Y294889D01*
X217423Y294754D01*
X217423Y303277D01*
G37*
%LPD*%
%LPC*%
G36*
X27473Y624377D02*
X27473Y624377D01*
X35996Y624377D01*
X35861Y623521D01*
X35366Y622000D01*
X34640Y620575D01*
X33700Y619281D01*
X32569Y618150D01*
X31275Y617210D01*
X29850Y616484D01*
X28329Y615989D01*
X27473Y615854D01*
X27473Y624377D01*
G37*
%LPD*%
%LPC*%
G36*
X27473Y649777D02*
X27473Y649777D01*
X35996Y649777D01*
X35861Y648921D01*
X35366Y647400D01*
X34640Y645975D01*
X33700Y644681D01*
X32569Y643550D01*
X31275Y642610D01*
X29850Y641884D01*
X28329Y641389D01*
X27473Y641254D01*
X27473Y649777D01*
G37*
%LPD*%
%LPC*%
G36*
X256073Y649777D02*
X256073Y649777D01*
X264596Y649777D01*
X264461Y648921D01*
X263966Y647400D01*
X263240Y645975D01*
X262300Y644681D01*
X261169Y643550D01*
X259875Y642610D01*
X258450Y641884D01*
X256929Y641389D01*
X256073Y641254D01*
X256073Y649777D01*
G37*
%LPD*%
%LPC*%
G36*
X23571Y641389D02*
X23571Y641389D01*
X22050Y641884D01*
X20625Y642610D01*
X19331Y643550D01*
X18200Y644681D01*
X17260Y645975D01*
X16534Y647400D01*
X16039Y648921D01*
X15904Y649777D01*
X24427Y649777D01*
X24427Y641254D01*
X23571Y641389D01*
G37*
%LPD*%
%LPC*%
G36*
X213521Y294889D02*
X213521Y294889D01*
X212000Y295384D01*
X210575Y296110D01*
X209281Y297050D01*
X208150Y298181D01*
X207210Y299475D01*
X206484Y300900D01*
X205989Y302421D01*
X205854Y303277D01*
X214377Y303277D01*
X214377Y294754D01*
X213521Y294889D01*
G37*
%LPD*%
%LPC*%
G36*
X23571Y615989D02*
X23571Y615989D01*
X22050Y616484D01*
X20625Y617210D01*
X19331Y618150D01*
X18200Y619281D01*
X17260Y620575D01*
X16534Y622000D01*
X16039Y623521D01*
X15904Y624377D01*
X24427Y624377D01*
X24427Y615854D01*
X23571Y615989D01*
G37*
%LPD*%
%LPC*%
G36*
X252171Y615989D02*
X252171Y615989D01*
X250650Y616484D01*
X249225Y617210D01*
X247931Y618150D01*
X246800Y619281D01*
X245860Y620575D01*
X245134Y622000D01*
X244639Y623521D01*
X244504Y624377D01*
X253027Y624377D01*
X253027Y615854D01*
X252171Y615989D01*
G37*
%LPD*%
%LPC*%
G36*
X252171Y641389D02*
X252171Y641389D01*
X250650Y641884D01*
X249225Y642610D01*
X247931Y643550D01*
X246800Y644681D01*
X245860Y645975D01*
X245134Y647400D01*
X244639Y648921D01*
X244504Y649777D01*
X253027Y649777D01*
X253027Y641254D01*
X252171Y641389D01*
G37*
%LPD*%
%LPC*%
G36*
X191073Y70173D02*
X191073Y70173D01*
X191073Y77861D01*
X192272Y77622D01*
X193970Y76919D01*
X195498Y75898D01*
X196798Y74598D01*
X197819Y73070D01*
X198522Y71372D01*
X198761Y70173D01*
X191073Y70173D01*
G37*
%LPD*%
%LPC*%
G36*
X93939Y70173D02*
X93939Y70173D01*
X94178Y71372D01*
X94881Y73070D01*
X95902Y74598D01*
X97202Y75898D01*
X98730Y76919D01*
X100428Y77622D01*
X101627Y77861D01*
X101627Y70173D01*
X93939Y70173D01*
G37*
%LPD*%
%LPC*%
G36*
X191049Y25351D02*
X191049Y25351D01*
X197491Y25351D01*
X197320Y24493D01*
X196711Y23022D01*
X195827Y21699D01*
X194701Y20573D01*
X193378Y19689D01*
X191907Y19080D01*
X191049Y18909D01*
X191049Y25351D01*
G37*
%LPD*%
%LPC*%
G36*
X104649Y25351D02*
X104649Y25351D01*
X111091Y25351D01*
X110920Y24493D01*
X110311Y23022D01*
X109427Y21699D01*
X108301Y20573D01*
X106978Y19689D01*
X105507Y19080D01*
X104649Y18909D01*
X104649Y25351D01*
G37*
%LPD*%
%LPC*%
G36*
X187193Y19080D02*
X187193Y19080D01*
X185722Y19689D01*
X184399Y20573D01*
X183273Y21699D01*
X182389Y23022D01*
X181780Y24493D01*
X181609Y25351D01*
X188051Y25351D01*
X188051Y18909D01*
X187193Y19080D01*
G37*
%LPD*%
%LPC*%
G36*
X100793Y19080D02*
X100793Y19080D01*
X99322Y19689D01*
X97999Y20573D01*
X96873Y21699D01*
X95989Y23022D01*
X95380Y24493D01*
X95209Y25351D01*
X101651Y25351D01*
X101651Y18909D01*
X100793Y19080D01*
G37*
%LPD*%
%LPC*%
G36*
X25949Y625899D02*
X25949Y625899D01*
X25949Y625901D01*
X25951Y625901D01*
X25951Y625899D01*
X25949Y625899D01*
G37*
%LPD*%
%LPC*%
G36*
X254549Y625899D02*
X254549Y625899D01*
X254549Y625901D01*
X254551Y625901D01*
X254551Y625899D01*
X254549Y625899D01*
G37*
%LPD*%
%LPC*%
G36*
X215899Y304799D02*
X215899Y304799D01*
X215899Y304801D01*
X215901Y304801D01*
X215901Y304799D01*
X215899Y304799D01*
G37*
%LPD*%
%LPC*%
G36*
X25949Y651299D02*
X25949Y651299D01*
X25949Y651301D01*
X25951Y651301D01*
X25951Y651299D01*
X25949Y651299D01*
G37*
%LPD*%
%LPC*%
G36*
X254549Y651299D02*
X254549Y651299D01*
X254549Y651301D01*
X254551Y651301D01*
X254551Y651299D01*
X254549Y651299D01*
G37*
%LPD*%
D10*
X254550Y702100D03*
X254550Y676700D03*
X254550Y651300D03*
X254550Y625900D03*
X254550Y600500D03*
X254550Y575100D03*
X254550Y549700D03*
X254550Y524300D03*
X254550Y498900D03*
X254550Y473500D03*
X254550Y448100D03*
X254550Y422700D03*
X254550Y397300D03*
X254550Y371900D03*
X254550Y346500D03*
X254550Y321100D03*
X254550Y295700D03*
X254550Y270300D03*
X254550Y244900D03*
X254550Y219500D03*
X254550Y194100D03*
X254550Y168700D03*
X254550Y143300D03*
X254550Y117900D03*
X254550Y92500D03*
X254550Y67100D03*
D11*
X137250Y584000D03*
X137250Y572000D03*
X125250Y572000D03*
X125250Y584000D03*
X125250Y596000D03*
X125250Y608000D03*
X137250Y608000D03*
X137250Y596000D03*
X149250Y572000D03*
X149250Y584000D03*
X149250Y596000D03*
X149250Y608000D03*
X161250Y608000D03*
X161250Y596000D03*
X161250Y584000D03*
X161250Y572000D03*
D10*
X25950Y702100D03*
X25950Y676700D03*
X25950Y651300D03*
X25950Y625900D03*
X25950Y600500D03*
X25950Y575100D03*
X25950Y549700D03*
X25950Y524300D03*
X25950Y498900D03*
X25950Y473500D03*
X25950Y448100D03*
X25950Y422700D03*
X25950Y397300D03*
X25950Y371900D03*
X25950Y346500D03*
X25950Y321100D03*
X25950Y295700D03*
X25950Y270300D03*
X25950Y244900D03*
X25950Y219500D03*
X25950Y194100D03*
X25950Y168700D03*
X25950Y143300D03*
X25950Y117900D03*
X25950Y92500D03*
X25950Y67100D03*
D12*
X189550Y68650D03*
X103150Y68650D03*
D13*
X189550Y26850D03*
X103150Y26850D03*
D10*
X215900Y381000D03*
X215900Y355600D03*
X215900Y330200D03*
X215900Y304800D03*
D14*
X231140Y665480D03*
X231140Y684530D03*
D15*
X53170Y631350D03*
D16*
X113170Y502540D03*
X48260Y705000D03*
X86360Y705000D03*
X99060Y705080D03*
X180340Y705000D03*
X193040Y705000D03*
X205740Y705000D03*
X231140Y705000D03*
X183250Y662540D03*
X138570Y501270D03*
X73660Y705000D03*
X60960Y705000D03*
X218440Y705000D03*
X227330Y71120D03*
X52070Y71120D03*
X167640Y382270D03*
X46990Y334010D03*
X45720Y534670D03*
X45720Y510540D03*
X45720Y486410D03*
X123190Y251460D03*
X182880Y114300D03*
X62230Y204470D03*
X66040Y157480D03*
X113030Y314960D03*
D15*
X81110Y659290D03*
D16*
X69850Y182880D03*
X240792Y232156D03*
X214630Y160020D03*
X233680Y105410D03*
X152400Y167640D03*
D15*
X201930Y564896D03*
D16*
X198120Y505460D03*
X173990Y317500D03*
X173990Y345440D03*
X161290Y362966D03*
X118110Y195580D03*
X109728Y551688D03*
X48260Y604238D03*
X107950Y571754D03*
X95532Y577850D03*
X73660Y579120D03*
X73660Y374650D03*
X48260Y554990D03*
X47968Y566712D03*
X61189Y584327D03*
X48260Y579120D03*
X48260Y591820D03*
X91440Y606084D03*
X124460Y401896D03*
X147320Y539750D03*
X78674Y533400D03*
X78740Y519430D03*
X154714Y532064D03*
X114300Y114300D03*
X154940Y114300D03*
X104140Y168628D03*
X198120Y167640D03*
X158524Y401320D03*
D17*
X141987Y384783D01*
X141987Y187071D01*
X161417Y167640D01*
X198120Y167640D01*
D16*
X186944Y617220D03*
X196088Y617220D03*
X205232Y617220D03*
X231140Y411480D03*
X205232Y604012D03*
X198120Y177800D03*
X231140Y289560D03*
X209069Y407189D03*
X55880Y185420D03*
X188259Y586785D03*
X73812Y365562D03*
X78740Y502920D03*
D17*
X28280Y598170D02*
X25950Y600500D01*
X28280Y598170D02*
X63500Y598170D01*
X67310Y594360D01*
X67310Y508000D02*
X72390Y502920D01*
X78740Y502920D01*
X67310Y508000D02*
X67310Y594360D01*
D16*
X215900Y217170D03*
X210820Y129540D03*
X197131Y454633D03*
X167640Y401320D03*
D15*
X180340Y550926D03*
D16*
X66040Y193548D03*
X182880Y101600D03*
X99060Y99060D03*
X196568Y464820D03*
X95250Y278130D03*
X119380Y459740D03*
X188250Y505000D03*
X102494Y617446D03*
X78674Y545818D03*
X210820Y185420D03*
X178006Y619314D03*
X204772Y660400D03*
X213966Y284434D03*
X107140Y345784D03*
X119380Y487680D03*
X193040Y494030D03*
X119380Y477520D03*
X196850Y481330D03*
X125682Y344514D03*
X210820Y193802D03*
X233680Y273812D03*
X198240Y421197D03*
X200660Y317500D03*
X138176Y470408D03*
D18*
X140208Y472440D01*
D16*
X231140Y458794D03*
D18*
X223520Y472440D02*
X140208Y472440D01*
X231140Y464820D02*
X231140Y458794D01*
X231140Y464820D02*
X223520Y472440D01*
D16*
X104140Y271780D03*
X173990Y302260D03*
X101600Y294640D03*
X104140Y233680D03*
X93980Y299720D03*
X120734Y218440D03*
X215900Y259080D03*
D17*
X203200Y246380D01*
X174200Y246380D01*
X173990Y246296D01*
D16*
X173990Y246296D03*
X215900Y246380D03*
D17*
X208280Y238760D01*
X176530Y238760D01*
X173990Y236220D01*
D16*
X173990Y236220D03*
X215900Y233680D03*
D17*
X212090Y229870D01*
X160872Y229870D01*
X159485Y231257D01*
D16*
X159485Y231257D03*
X164112Y284904D03*
X161714Y302034D03*
X101600Y247650D03*
X83820Y304800D03*
D18*
X83820Y265430D02*
X101600Y247650D01*
X83820Y265430D02*
X83820Y297180D01*
X83820Y304800D01*
D16*
X127282Y93006D03*
X158552Y93980D03*
X120650Y208280D03*
D18*
X118085Y208280D02*
X64770Y261595D01*
X64770Y340360D02*
X88900Y364490D01*
D16*
X88900Y364490D03*
D18*
X64770Y340360D02*
X64770Y261595D01*
X118085Y208280D02*
X120650Y208280D01*
D16*
X107763Y355120D03*
X171450Y363502D03*
X125912Y307732D03*
D17*
X91048Y307732D01*
X83404Y315376D01*
X83404Y320872D02*
X78740Y325536D01*
X83404Y320872D02*
X83404Y315376D01*
D16*
X78740Y325536D03*
X144780Y68580D03*
X170180Y101600D03*
M02*
