G04 EAGLE Gerber RS-274X export*
G75*
%MOMM*%
%FSLAX34Y34*%
%LPD*%
%INSilkscreen Bottom*%
%IPPOS*%
%AMOC8*
5,1,8,0,0,1.08239X$1,22.5*%
G01*
%ADD10C,0.050800*%
%ADD11C,0.152400*%
%ADD12C,0.076200*%
%ADD13C,0.203200*%
%ADD14C,0.300000*%


D10*
X119802Y231390D02*
X119802Y229922D01*
X119804Y229848D01*
X119810Y229773D01*
X119819Y229700D01*
X119832Y229626D01*
X119849Y229554D01*
X119869Y229483D01*
X119893Y229412D01*
X119921Y229343D01*
X119952Y229276D01*
X119986Y229210D01*
X120024Y229145D01*
X120065Y229083D01*
X120109Y229023D01*
X120156Y228966D01*
X120206Y228911D01*
X120259Y228858D01*
X120314Y228808D01*
X120371Y228761D01*
X120431Y228717D01*
X120493Y228676D01*
X120558Y228638D01*
X120624Y228604D01*
X120691Y228573D01*
X120760Y228545D01*
X120831Y228521D01*
X120902Y228501D01*
X120974Y228484D01*
X121048Y228471D01*
X121121Y228462D01*
X121196Y228456D01*
X121270Y228454D01*
X121270Y228455D02*
X124938Y228455D01*
X124938Y228454D02*
X125012Y228456D01*
X125087Y228462D01*
X125160Y228471D01*
X125234Y228484D01*
X125306Y228501D01*
X125377Y228521D01*
X125448Y228545D01*
X125517Y228573D01*
X125584Y228604D01*
X125650Y228638D01*
X125715Y228676D01*
X125777Y228717D01*
X125837Y228761D01*
X125894Y228808D01*
X125949Y228858D01*
X126002Y228911D01*
X126052Y228966D01*
X126099Y229023D01*
X126143Y229083D01*
X126184Y229145D01*
X126222Y229210D01*
X126256Y229275D01*
X126287Y229343D01*
X126315Y229412D01*
X126339Y229483D01*
X126359Y229554D01*
X126376Y229626D01*
X126389Y229700D01*
X126398Y229773D01*
X126404Y229848D01*
X126406Y229922D01*
X126406Y231390D01*
X119802Y233806D02*
X119802Y235641D01*
X119804Y235726D01*
X119810Y235810D01*
X119820Y235894D01*
X119833Y235978D01*
X119851Y236061D01*
X119872Y236143D01*
X119897Y236224D01*
X119926Y236304D01*
X119958Y236382D01*
X119994Y236458D01*
X120034Y236533D01*
X120077Y236606D01*
X120123Y236677D01*
X120172Y236746D01*
X120225Y236813D01*
X120281Y236877D01*
X120339Y236938D01*
X120400Y236996D01*
X120464Y237052D01*
X120531Y237105D01*
X120600Y237154D01*
X120671Y237200D01*
X120744Y237243D01*
X120819Y237283D01*
X120895Y237319D01*
X120973Y237351D01*
X121053Y237380D01*
X121134Y237405D01*
X121216Y237426D01*
X121299Y237444D01*
X121383Y237457D01*
X121467Y237467D01*
X121551Y237473D01*
X121636Y237475D01*
X121721Y237473D01*
X121805Y237467D01*
X121889Y237457D01*
X121973Y237444D01*
X122056Y237426D01*
X122138Y237405D01*
X122219Y237380D01*
X122299Y237351D01*
X122377Y237319D01*
X122453Y237283D01*
X122528Y237243D01*
X122601Y237200D01*
X122672Y237154D01*
X122741Y237105D01*
X122808Y237052D01*
X122872Y236996D01*
X122933Y236938D01*
X122991Y236877D01*
X123047Y236813D01*
X123100Y236746D01*
X123149Y236677D01*
X123195Y236606D01*
X123238Y236533D01*
X123278Y236458D01*
X123314Y236382D01*
X123346Y236304D01*
X123375Y236224D01*
X123400Y236143D01*
X123421Y236061D01*
X123439Y235978D01*
X123452Y235894D01*
X123462Y235810D01*
X123468Y235726D01*
X123470Y235641D01*
X126406Y236008D02*
X126406Y233806D01*
X126406Y236008D02*
X126404Y236084D01*
X126398Y236159D01*
X126389Y236234D01*
X126375Y236308D01*
X126358Y236382D01*
X126336Y236454D01*
X126312Y236526D01*
X126283Y236596D01*
X126251Y236664D01*
X126216Y236731D01*
X126177Y236796D01*
X126134Y236859D01*
X126089Y236919D01*
X126041Y236977D01*
X125989Y237033D01*
X125935Y237085D01*
X125878Y237135D01*
X125819Y237182D01*
X125758Y237226D01*
X125694Y237267D01*
X125628Y237304D01*
X125560Y237338D01*
X125491Y237368D01*
X125420Y237395D01*
X125348Y237418D01*
X125275Y237437D01*
X125201Y237452D01*
X125126Y237464D01*
X125051Y237472D01*
X124976Y237476D01*
X124900Y237476D01*
X124825Y237472D01*
X124750Y237464D01*
X124675Y237452D01*
X124601Y237437D01*
X124528Y237418D01*
X124456Y237395D01*
X124385Y237368D01*
X124316Y237338D01*
X124248Y237304D01*
X124182Y237267D01*
X124118Y237226D01*
X124057Y237182D01*
X123998Y237135D01*
X123941Y237085D01*
X123887Y237033D01*
X123835Y236977D01*
X123787Y236919D01*
X123742Y236859D01*
X123699Y236796D01*
X123660Y236731D01*
X123625Y236664D01*
X123593Y236596D01*
X123564Y236526D01*
X123540Y236454D01*
X123518Y236382D01*
X123501Y236308D01*
X123487Y236234D01*
X123478Y236159D01*
X123472Y236084D01*
X123470Y236008D01*
X123471Y236008D02*
X123471Y234540D01*
X123104Y240207D02*
X123249Y240209D01*
X123394Y240215D01*
X123539Y240224D01*
X123684Y240238D01*
X123828Y240255D01*
X123971Y240277D01*
X124115Y240302D01*
X124257Y240331D01*
X124398Y240363D01*
X124539Y240400D01*
X124678Y240440D01*
X124817Y240484D01*
X124954Y240531D01*
X125090Y240582D01*
X125224Y240637D01*
X125357Y240695D01*
X125489Y240757D01*
X125558Y240783D01*
X125625Y240812D01*
X125691Y240845D01*
X125754Y240881D01*
X125816Y240921D01*
X125875Y240964D01*
X125932Y241010D01*
X125986Y241059D01*
X126038Y241111D01*
X126087Y241166D01*
X126132Y241223D01*
X126175Y241283D01*
X126214Y241345D01*
X126250Y241408D01*
X126283Y241474D01*
X126311Y241541D01*
X126337Y241610D01*
X126358Y241680D01*
X126376Y241751D01*
X126389Y241823D01*
X126399Y241896D01*
X126405Y241969D01*
X126407Y242042D01*
X126406Y242042D02*
X126404Y242115D01*
X126398Y242188D01*
X126388Y242261D01*
X126375Y242333D01*
X126357Y242404D01*
X126336Y242474D01*
X126310Y242542D01*
X126282Y242610D01*
X126249Y242675D01*
X126213Y242739D01*
X126174Y242801D01*
X126132Y242860D01*
X126086Y242917D01*
X126037Y242972D01*
X125986Y243024D01*
X125931Y243073D01*
X125874Y243119D01*
X125815Y243162D01*
X125754Y243202D01*
X125690Y243238D01*
X125625Y243271D01*
X125558Y243300D01*
X125489Y243326D01*
X125357Y243388D01*
X125224Y243446D01*
X125090Y243501D01*
X124954Y243552D01*
X124817Y243599D01*
X124678Y243643D01*
X124539Y243683D01*
X124398Y243720D01*
X124257Y243752D01*
X124115Y243781D01*
X123972Y243806D01*
X123828Y243828D01*
X123684Y243845D01*
X123539Y243859D01*
X123394Y243868D01*
X123249Y243874D01*
X123104Y243876D01*
X123104Y240208D02*
X122959Y240210D01*
X122814Y240216D01*
X122669Y240225D01*
X122524Y240239D01*
X122380Y240256D01*
X122237Y240278D01*
X122094Y240303D01*
X121951Y240331D01*
X121810Y240364D01*
X121669Y240401D01*
X121530Y240441D01*
X121391Y240485D01*
X121254Y240532D01*
X121118Y240583D01*
X120984Y240638D01*
X120851Y240696D01*
X120719Y240758D01*
X120720Y240757D02*
X120651Y240783D01*
X120584Y240812D01*
X120518Y240845D01*
X120455Y240881D01*
X120393Y240921D01*
X120334Y240964D01*
X120277Y241010D01*
X120223Y241059D01*
X120171Y241111D01*
X120122Y241166D01*
X120077Y241223D01*
X120034Y241283D01*
X119995Y241345D01*
X119959Y241408D01*
X119926Y241474D01*
X119898Y241541D01*
X119872Y241610D01*
X119851Y241680D01*
X119833Y241751D01*
X119820Y241823D01*
X119810Y241896D01*
X119804Y241969D01*
X119802Y242042D01*
X120719Y243326D02*
X120851Y243388D01*
X120984Y243446D01*
X121118Y243501D01*
X121254Y243552D01*
X121391Y243599D01*
X121530Y243643D01*
X121669Y243683D01*
X121810Y243720D01*
X121951Y243752D01*
X122093Y243781D01*
X122236Y243806D01*
X122380Y243828D01*
X122524Y243845D01*
X122669Y243859D01*
X122814Y243868D01*
X122959Y243874D01*
X123104Y243876D01*
X120719Y243326D02*
X120650Y243300D01*
X120583Y243271D01*
X120518Y243238D01*
X120454Y243202D01*
X120393Y243162D01*
X120334Y243119D01*
X120277Y243073D01*
X120222Y243024D01*
X120171Y242972D01*
X120122Y242917D01*
X120076Y242860D01*
X120034Y242801D01*
X119995Y242739D01*
X119959Y242675D01*
X119926Y242610D01*
X119898Y242542D01*
X119872Y242474D01*
X119851Y242404D01*
X119833Y242332D01*
X119820Y242261D01*
X119810Y242188D01*
X119804Y242115D01*
X119802Y242042D01*
X121270Y240574D02*
X124938Y243509D01*
X162892Y286945D02*
X165828Y286945D01*
X165828Y286946D02*
X165913Y286948D01*
X165997Y286954D01*
X166081Y286964D01*
X166165Y286977D01*
X166248Y286995D01*
X166330Y287016D01*
X166411Y287041D01*
X166491Y287070D01*
X166569Y287102D01*
X166645Y287138D01*
X166720Y287178D01*
X166793Y287221D01*
X166864Y287267D01*
X166933Y287316D01*
X167000Y287369D01*
X167064Y287425D01*
X167125Y287483D01*
X167183Y287544D01*
X167239Y287608D01*
X167292Y287675D01*
X167341Y287744D01*
X167387Y287815D01*
X167430Y287888D01*
X167470Y287963D01*
X167506Y288039D01*
X167538Y288117D01*
X167567Y288197D01*
X167592Y288278D01*
X167613Y288360D01*
X167631Y288443D01*
X167644Y288527D01*
X167654Y288611D01*
X167660Y288695D01*
X167662Y288780D01*
X167660Y288865D01*
X167654Y288949D01*
X167644Y289033D01*
X167631Y289117D01*
X167613Y289200D01*
X167592Y289282D01*
X167567Y289363D01*
X167538Y289443D01*
X167506Y289521D01*
X167470Y289597D01*
X167430Y289672D01*
X167387Y289745D01*
X167341Y289816D01*
X167292Y289885D01*
X167239Y289952D01*
X167183Y290016D01*
X167125Y290077D01*
X167064Y290135D01*
X167000Y290191D01*
X166933Y290244D01*
X166864Y290293D01*
X166793Y290339D01*
X166720Y290382D01*
X166645Y290422D01*
X166569Y290458D01*
X166491Y290490D01*
X166411Y290519D01*
X166330Y290544D01*
X166248Y290565D01*
X166165Y290583D01*
X166081Y290596D01*
X165997Y290606D01*
X165913Y290612D01*
X165828Y290614D01*
X162892Y290614D01*
X162807Y290612D01*
X162723Y290606D01*
X162639Y290596D01*
X162555Y290583D01*
X162472Y290565D01*
X162390Y290544D01*
X162309Y290519D01*
X162229Y290490D01*
X162151Y290458D01*
X162075Y290422D01*
X162000Y290382D01*
X161927Y290339D01*
X161856Y290293D01*
X161787Y290244D01*
X161720Y290191D01*
X161656Y290135D01*
X161595Y290077D01*
X161537Y290016D01*
X161481Y289952D01*
X161428Y289885D01*
X161379Y289816D01*
X161333Y289745D01*
X161290Y289672D01*
X161250Y289597D01*
X161214Y289521D01*
X161182Y289443D01*
X161153Y289363D01*
X161128Y289282D01*
X161107Y289200D01*
X161089Y289117D01*
X161076Y289033D01*
X161066Y288949D01*
X161060Y288865D01*
X161058Y288780D01*
X161060Y288695D01*
X161066Y288611D01*
X161076Y288527D01*
X161089Y288443D01*
X161107Y288360D01*
X161128Y288278D01*
X161153Y288197D01*
X161182Y288117D01*
X161214Y288039D01*
X161250Y287963D01*
X161290Y287888D01*
X161333Y287815D01*
X161379Y287744D01*
X161428Y287675D01*
X161481Y287608D01*
X161537Y287544D01*
X161595Y287483D01*
X161656Y287425D01*
X161720Y287369D01*
X161787Y287316D01*
X161856Y287267D01*
X161927Y287221D01*
X162000Y287178D01*
X162075Y287138D01*
X162151Y287102D01*
X162229Y287070D01*
X162309Y287041D01*
X162390Y287016D01*
X162472Y286995D01*
X162555Y286977D01*
X162639Y286964D01*
X162723Y286954D01*
X162807Y286948D01*
X162892Y286946D01*
X162526Y289880D02*
X161058Y291348D01*
X161058Y293206D02*
X161058Y295040D01*
X161060Y295125D01*
X161066Y295209D01*
X161076Y295293D01*
X161089Y295377D01*
X161107Y295460D01*
X161128Y295542D01*
X161153Y295623D01*
X161182Y295703D01*
X161214Y295781D01*
X161250Y295857D01*
X161290Y295932D01*
X161333Y296005D01*
X161379Y296076D01*
X161428Y296145D01*
X161481Y296212D01*
X161537Y296276D01*
X161595Y296337D01*
X161656Y296395D01*
X161720Y296451D01*
X161787Y296504D01*
X161856Y296553D01*
X161927Y296599D01*
X162000Y296642D01*
X162075Y296682D01*
X162151Y296718D01*
X162229Y296750D01*
X162309Y296779D01*
X162390Y296804D01*
X162472Y296825D01*
X162555Y296843D01*
X162639Y296856D01*
X162723Y296866D01*
X162807Y296872D01*
X162892Y296874D01*
X162977Y296872D01*
X163061Y296866D01*
X163145Y296856D01*
X163229Y296843D01*
X163312Y296825D01*
X163394Y296804D01*
X163475Y296779D01*
X163555Y296750D01*
X163633Y296718D01*
X163709Y296682D01*
X163784Y296642D01*
X163857Y296599D01*
X163928Y296553D01*
X163997Y296504D01*
X164064Y296451D01*
X164128Y296395D01*
X164189Y296337D01*
X164247Y296276D01*
X164303Y296212D01*
X164356Y296145D01*
X164405Y296076D01*
X164451Y296005D01*
X164494Y295932D01*
X164534Y295857D01*
X164570Y295781D01*
X164602Y295703D01*
X164631Y295623D01*
X164656Y295542D01*
X164677Y295460D01*
X164695Y295377D01*
X164708Y295293D01*
X164718Y295209D01*
X164724Y295125D01*
X164726Y295040D01*
X167662Y295407D02*
X167662Y293206D01*
X167662Y295407D02*
X167660Y295483D01*
X167654Y295558D01*
X167645Y295633D01*
X167631Y295707D01*
X167614Y295781D01*
X167592Y295853D01*
X167568Y295925D01*
X167539Y295995D01*
X167507Y296063D01*
X167472Y296130D01*
X167433Y296195D01*
X167390Y296258D01*
X167345Y296318D01*
X167297Y296376D01*
X167245Y296432D01*
X167191Y296484D01*
X167134Y296534D01*
X167075Y296581D01*
X167014Y296625D01*
X166950Y296666D01*
X166884Y296703D01*
X166816Y296737D01*
X166747Y296767D01*
X166676Y296794D01*
X166604Y296817D01*
X166531Y296836D01*
X166457Y296851D01*
X166382Y296863D01*
X166307Y296871D01*
X166232Y296875D01*
X166156Y296875D01*
X166081Y296871D01*
X166006Y296863D01*
X165931Y296851D01*
X165857Y296836D01*
X165784Y296817D01*
X165712Y296794D01*
X165641Y296767D01*
X165572Y296737D01*
X165504Y296703D01*
X165438Y296666D01*
X165374Y296625D01*
X165313Y296581D01*
X165254Y296534D01*
X165197Y296484D01*
X165143Y296432D01*
X165091Y296376D01*
X165043Y296318D01*
X164998Y296258D01*
X164955Y296195D01*
X164916Y296130D01*
X164881Y296063D01*
X164849Y295995D01*
X164820Y295925D01*
X164796Y295853D01*
X164774Y295781D01*
X164757Y295707D01*
X164743Y295633D01*
X164734Y295558D01*
X164728Y295483D01*
X164726Y295407D01*
X164727Y295407D02*
X164727Y293940D01*
X136872Y200057D02*
X133936Y200057D01*
X136872Y200057D02*
X136957Y200059D01*
X137041Y200065D01*
X137125Y200075D01*
X137209Y200088D01*
X137292Y200106D01*
X137374Y200127D01*
X137455Y200152D01*
X137535Y200181D01*
X137613Y200213D01*
X137689Y200249D01*
X137764Y200289D01*
X137837Y200332D01*
X137908Y200378D01*
X137977Y200427D01*
X138044Y200480D01*
X138108Y200536D01*
X138169Y200594D01*
X138227Y200655D01*
X138283Y200719D01*
X138336Y200786D01*
X138385Y200855D01*
X138431Y200926D01*
X138474Y200999D01*
X138514Y201074D01*
X138550Y201150D01*
X138582Y201228D01*
X138611Y201308D01*
X138636Y201389D01*
X138657Y201471D01*
X138675Y201554D01*
X138688Y201638D01*
X138698Y201722D01*
X138704Y201806D01*
X138706Y201891D01*
X138704Y201976D01*
X138698Y202060D01*
X138688Y202144D01*
X138675Y202228D01*
X138657Y202311D01*
X138636Y202393D01*
X138611Y202474D01*
X138582Y202554D01*
X138550Y202632D01*
X138514Y202708D01*
X138474Y202783D01*
X138431Y202856D01*
X138385Y202927D01*
X138336Y202996D01*
X138283Y203063D01*
X138227Y203127D01*
X138169Y203188D01*
X138108Y203246D01*
X138044Y203302D01*
X137977Y203355D01*
X137908Y203404D01*
X137837Y203450D01*
X137764Y203493D01*
X137689Y203533D01*
X137613Y203569D01*
X137535Y203601D01*
X137455Y203630D01*
X137374Y203655D01*
X137292Y203676D01*
X137209Y203694D01*
X137125Y203707D01*
X137041Y203717D01*
X136957Y203723D01*
X136872Y203725D01*
X133936Y203725D01*
X133851Y203723D01*
X133767Y203717D01*
X133683Y203707D01*
X133599Y203694D01*
X133516Y203676D01*
X133434Y203655D01*
X133353Y203630D01*
X133273Y203601D01*
X133195Y203569D01*
X133119Y203533D01*
X133044Y203493D01*
X132971Y203450D01*
X132900Y203404D01*
X132831Y203355D01*
X132764Y203302D01*
X132700Y203246D01*
X132639Y203188D01*
X132581Y203127D01*
X132525Y203063D01*
X132472Y202996D01*
X132423Y202927D01*
X132377Y202856D01*
X132334Y202783D01*
X132294Y202708D01*
X132258Y202632D01*
X132226Y202554D01*
X132197Y202474D01*
X132172Y202393D01*
X132151Y202311D01*
X132133Y202228D01*
X132120Y202144D01*
X132110Y202060D01*
X132104Y201976D01*
X132102Y201891D01*
X132104Y201806D01*
X132110Y201722D01*
X132120Y201638D01*
X132133Y201554D01*
X132151Y201471D01*
X132172Y201389D01*
X132197Y201308D01*
X132226Y201228D01*
X132258Y201150D01*
X132294Y201074D01*
X132334Y200999D01*
X132377Y200926D01*
X132423Y200855D01*
X132472Y200786D01*
X132525Y200719D01*
X132581Y200655D01*
X132639Y200594D01*
X132700Y200536D01*
X132764Y200480D01*
X132831Y200427D01*
X132900Y200378D01*
X132971Y200332D01*
X133044Y200289D01*
X133119Y200249D01*
X133195Y200213D01*
X133273Y200181D01*
X133353Y200152D01*
X133434Y200127D01*
X133516Y200106D01*
X133599Y200088D01*
X133683Y200075D01*
X133767Y200065D01*
X133851Y200059D01*
X133936Y200057D01*
X133570Y202992D02*
X132102Y204459D01*
X137055Y209986D02*
X137134Y209984D01*
X137212Y209979D01*
X137290Y209969D01*
X137367Y209956D01*
X137444Y209939D01*
X137520Y209919D01*
X137595Y209895D01*
X137669Y209868D01*
X137741Y209837D01*
X137812Y209802D01*
X137881Y209765D01*
X137948Y209724D01*
X138013Y209680D01*
X138076Y209633D01*
X138136Y209583D01*
X138194Y209530D01*
X138250Y209474D01*
X138303Y209416D01*
X138353Y209356D01*
X138400Y209293D01*
X138444Y209228D01*
X138485Y209161D01*
X138522Y209092D01*
X138557Y209021D01*
X138588Y208949D01*
X138615Y208875D01*
X138639Y208800D01*
X138659Y208724D01*
X138676Y208647D01*
X138689Y208570D01*
X138699Y208492D01*
X138704Y208414D01*
X138706Y208335D01*
X138704Y208246D01*
X138699Y208157D01*
X138689Y208069D01*
X138676Y207981D01*
X138660Y207894D01*
X138639Y207807D01*
X138615Y207722D01*
X138588Y207637D01*
X138557Y207554D01*
X138522Y207472D01*
X138484Y207391D01*
X138443Y207312D01*
X138399Y207236D01*
X138351Y207160D01*
X138300Y207087D01*
X138247Y207017D01*
X138190Y206948D01*
X138130Y206882D01*
X138068Y206819D01*
X138003Y206758D01*
X137936Y206700D01*
X137866Y206645D01*
X137794Y206592D01*
X137720Y206543D01*
X137644Y206497D01*
X137566Y206455D01*
X137486Y206415D01*
X137405Y206379D01*
X137322Y206346D01*
X137238Y206317D01*
X135771Y209436D02*
X135827Y209492D01*
X135886Y209546D01*
X135947Y209597D01*
X136011Y209646D01*
X136076Y209691D01*
X136144Y209734D01*
X136213Y209773D01*
X136284Y209810D01*
X136357Y209843D01*
X136431Y209872D01*
X136506Y209899D01*
X136582Y209922D01*
X136660Y209941D01*
X136738Y209957D01*
X136816Y209970D01*
X136896Y209979D01*
X136975Y209984D01*
X137055Y209986D01*
X135771Y209436D02*
X132102Y206317D01*
X132102Y209986D01*
X208876Y286258D02*
X208876Y292862D01*
X207041Y292862D01*
X206956Y292860D01*
X206872Y292854D01*
X206788Y292844D01*
X206704Y292831D01*
X206621Y292813D01*
X206539Y292792D01*
X206458Y292767D01*
X206378Y292738D01*
X206300Y292706D01*
X206224Y292670D01*
X206149Y292630D01*
X206076Y292587D01*
X206005Y292541D01*
X205936Y292492D01*
X205869Y292439D01*
X205805Y292383D01*
X205744Y292325D01*
X205686Y292264D01*
X205630Y292200D01*
X205577Y292133D01*
X205528Y292064D01*
X205482Y291993D01*
X205439Y291920D01*
X205399Y291845D01*
X205363Y291769D01*
X205331Y291691D01*
X205302Y291611D01*
X205277Y291530D01*
X205256Y291448D01*
X205238Y291365D01*
X205225Y291281D01*
X205215Y291197D01*
X205209Y291113D01*
X205207Y291028D01*
X205209Y290943D01*
X205215Y290859D01*
X205225Y290775D01*
X205238Y290691D01*
X205256Y290608D01*
X205277Y290526D01*
X205302Y290445D01*
X205331Y290365D01*
X205363Y290287D01*
X205399Y290211D01*
X205439Y290136D01*
X205482Y290063D01*
X205528Y289992D01*
X205577Y289923D01*
X205630Y289856D01*
X205686Y289792D01*
X205744Y289731D01*
X205805Y289673D01*
X205869Y289617D01*
X205936Y289564D01*
X206005Y289515D01*
X206076Y289469D01*
X206149Y289426D01*
X206224Y289386D01*
X206300Y289350D01*
X206378Y289318D01*
X206458Y289289D01*
X206539Y289264D01*
X206621Y289243D01*
X206704Y289225D01*
X206788Y289212D01*
X206872Y289202D01*
X206956Y289196D01*
X207041Y289194D01*
X207041Y289193D02*
X208876Y289193D01*
X206674Y289193D02*
X205207Y286258D01*
X202514Y291394D02*
X200680Y292862D01*
X200680Y286258D01*
X202514Y286258D02*
X198845Y286258D01*
X196113Y286258D02*
X194279Y286258D01*
X194194Y286260D01*
X194110Y286266D01*
X194026Y286276D01*
X193942Y286289D01*
X193859Y286307D01*
X193777Y286328D01*
X193696Y286353D01*
X193616Y286382D01*
X193538Y286414D01*
X193462Y286450D01*
X193387Y286490D01*
X193314Y286533D01*
X193243Y286579D01*
X193174Y286628D01*
X193107Y286681D01*
X193043Y286737D01*
X192982Y286795D01*
X192924Y286856D01*
X192868Y286920D01*
X192815Y286987D01*
X192766Y287056D01*
X192720Y287127D01*
X192677Y287200D01*
X192637Y287275D01*
X192601Y287351D01*
X192569Y287429D01*
X192540Y287509D01*
X192515Y287590D01*
X192494Y287672D01*
X192476Y287755D01*
X192463Y287839D01*
X192453Y287923D01*
X192447Y288007D01*
X192445Y288092D01*
X192447Y288177D01*
X192453Y288261D01*
X192463Y288345D01*
X192476Y288429D01*
X192494Y288512D01*
X192515Y288594D01*
X192540Y288675D01*
X192569Y288755D01*
X192601Y288833D01*
X192637Y288909D01*
X192677Y288984D01*
X192720Y289057D01*
X192766Y289128D01*
X192815Y289197D01*
X192868Y289264D01*
X192924Y289328D01*
X192982Y289389D01*
X193043Y289447D01*
X193107Y289503D01*
X193174Y289556D01*
X193243Y289605D01*
X193314Y289651D01*
X193387Y289694D01*
X193462Y289734D01*
X193538Y289770D01*
X193616Y289802D01*
X193696Y289831D01*
X193777Y289856D01*
X193859Y289877D01*
X193942Y289895D01*
X194026Y289908D01*
X194110Y289918D01*
X194194Y289924D01*
X194279Y289926D01*
X193912Y292862D02*
X196113Y292862D01*
X193912Y292862D02*
X193836Y292860D01*
X193761Y292854D01*
X193686Y292845D01*
X193612Y292831D01*
X193538Y292814D01*
X193466Y292792D01*
X193394Y292768D01*
X193324Y292739D01*
X193256Y292707D01*
X193189Y292672D01*
X193124Y292633D01*
X193061Y292590D01*
X193001Y292545D01*
X192943Y292497D01*
X192887Y292445D01*
X192835Y292391D01*
X192785Y292334D01*
X192738Y292275D01*
X192694Y292214D01*
X192653Y292150D01*
X192616Y292084D01*
X192582Y292016D01*
X192552Y291947D01*
X192525Y291876D01*
X192502Y291804D01*
X192483Y291731D01*
X192468Y291657D01*
X192456Y291582D01*
X192448Y291507D01*
X192444Y291432D01*
X192444Y291356D01*
X192448Y291281D01*
X192456Y291206D01*
X192468Y291131D01*
X192483Y291057D01*
X192502Y290984D01*
X192525Y290912D01*
X192552Y290841D01*
X192582Y290772D01*
X192616Y290704D01*
X192653Y290638D01*
X192694Y290574D01*
X192738Y290513D01*
X192785Y290454D01*
X192835Y290397D01*
X192887Y290343D01*
X192943Y290291D01*
X193001Y290243D01*
X193061Y290198D01*
X193124Y290155D01*
X193189Y290116D01*
X193256Y290081D01*
X193324Y290049D01*
X193394Y290020D01*
X193466Y289996D01*
X193538Y289974D01*
X193612Y289957D01*
X193686Y289943D01*
X193761Y289934D01*
X193836Y289928D01*
X193912Y289926D01*
X193912Y289927D02*
X195379Y289927D01*
X206586Y234442D02*
X206586Y227838D01*
X206586Y234442D02*
X204751Y234442D01*
X204666Y234440D01*
X204582Y234434D01*
X204498Y234424D01*
X204414Y234411D01*
X204331Y234393D01*
X204249Y234372D01*
X204168Y234347D01*
X204088Y234318D01*
X204010Y234286D01*
X203934Y234250D01*
X203859Y234210D01*
X203786Y234167D01*
X203715Y234121D01*
X203646Y234072D01*
X203579Y234019D01*
X203515Y233963D01*
X203454Y233905D01*
X203396Y233844D01*
X203340Y233780D01*
X203287Y233713D01*
X203238Y233644D01*
X203192Y233573D01*
X203149Y233500D01*
X203109Y233425D01*
X203073Y233349D01*
X203041Y233271D01*
X203012Y233191D01*
X202987Y233110D01*
X202966Y233028D01*
X202948Y232945D01*
X202935Y232861D01*
X202925Y232777D01*
X202919Y232693D01*
X202917Y232608D01*
X202919Y232523D01*
X202925Y232439D01*
X202935Y232355D01*
X202948Y232271D01*
X202966Y232188D01*
X202987Y232106D01*
X203012Y232025D01*
X203041Y231945D01*
X203073Y231867D01*
X203109Y231791D01*
X203149Y231716D01*
X203192Y231643D01*
X203238Y231572D01*
X203287Y231503D01*
X203340Y231436D01*
X203396Y231372D01*
X203454Y231311D01*
X203515Y231253D01*
X203579Y231197D01*
X203646Y231144D01*
X203715Y231095D01*
X203786Y231049D01*
X203859Y231006D01*
X203934Y230966D01*
X204010Y230930D01*
X204088Y230898D01*
X204168Y230869D01*
X204249Y230844D01*
X204331Y230823D01*
X204414Y230805D01*
X204498Y230792D01*
X204582Y230782D01*
X204666Y230776D01*
X204751Y230774D01*
X204751Y230773D02*
X206586Y230773D01*
X204384Y230773D02*
X202917Y227838D01*
X200224Y232974D02*
X198390Y234442D01*
X198390Y227838D01*
X200224Y227838D02*
X196555Y227838D01*
X193823Y231507D02*
X191622Y231507D01*
X191548Y231505D01*
X191473Y231499D01*
X191400Y231490D01*
X191326Y231477D01*
X191254Y231460D01*
X191183Y231440D01*
X191112Y231416D01*
X191043Y231388D01*
X190976Y231357D01*
X190910Y231323D01*
X190845Y231285D01*
X190783Y231244D01*
X190723Y231200D01*
X190666Y231153D01*
X190611Y231103D01*
X190558Y231050D01*
X190508Y230995D01*
X190461Y230938D01*
X190417Y230878D01*
X190376Y230816D01*
X190338Y230751D01*
X190304Y230685D01*
X190273Y230618D01*
X190245Y230549D01*
X190221Y230478D01*
X190201Y230407D01*
X190184Y230335D01*
X190171Y230261D01*
X190162Y230188D01*
X190156Y230113D01*
X190154Y230039D01*
X190154Y229672D01*
X190155Y229672D02*
X190157Y229587D01*
X190163Y229503D01*
X190173Y229419D01*
X190186Y229335D01*
X190204Y229252D01*
X190225Y229170D01*
X190250Y229089D01*
X190279Y229009D01*
X190311Y228931D01*
X190347Y228855D01*
X190387Y228780D01*
X190430Y228707D01*
X190476Y228636D01*
X190525Y228567D01*
X190578Y228500D01*
X190634Y228436D01*
X190692Y228375D01*
X190753Y228317D01*
X190817Y228261D01*
X190884Y228208D01*
X190953Y228159D01*
X191024Y228113D01*
X191097Y228070D01*
X191172Y228030D01*
X191248Y227994D01*
X191326Y227962D01*
X191406Y227933D01*
X191487Y227908D01*
X191569Y227887D01*
X191652Y227869D01*
X191736Y227856D01*
X191820Y227846D01*
X191904Y227840D01*
X191989Y227838D01*
X192074Y227840D01*
X192158Y227846D01*
X192242Y227856D01*
X192326Y227869D01*
X192409Y227887D01*
X192491Y227908D01*
X192572Y227933D01*
X192652Y227962D01*
X192730Y227994D01*
X192806Y228030D01*
X192881Y228070D01*
X192954Y228113D01*
X193025Y228159D01*
X193094Y228208D01*
X193161Y228261D01*
X193225Y228317D01*
X193286Y228375D01*
X193344Y228436D01*
X193400Y228500D01*
X193453Y228567D01*
X193502Y228636D01*
X193548Y228707D01*
X193591Y228780D01*
X193631Y228855D01*
X193667Y228931D01*
X193699Y229009D01*
X193728Y229089D01*
X193753Y229170D01*
X193774Y229252D01*
X193792Y229335D01*
X193805Y229419D01*
X193815Y229503D01*
X193821Y229587D01*
X193823Y229672D01*
X193823Y231507D01*
X193821Y231614D01*
X193815Y231721D01*
X193805Y231828D01*
X193792Y231934D01*
X193774Y232040D01*
X193753Y232145D01*
X193728Y232249D01*
X193699Y232353D01*
X193666Y232455D01*
X193629Y232555D01*
X193589Y232655D01*
X193545Y232753D01*
X193498Y232849D01*
X193447Y232943D01*
X193393Y233036D01*
X193336Y233126D01*
X193275Y233215D01*
X193211Y233301D01*
X193144Y233384D01*
X193074Y233466D01*
X193001Y233544D01*
X192925Y233620D01*
X192847Y233693D01*
X192765Y233763D01*
X192682Y233830D01*
X192596Y233894D01*
X192507Y233955D01*
X192417Y234012D01*
X192324Y234066D01*
X192230Y234117D01*
X192134Y234164D01*
X192036Y234208D01*
X191937Y234248D01*
X191836Y234285D01*
X191734Y234318D01*
X191630Y234347D01*
X191526Y234372D01*
X191421Y234393D01*
X191315Y234411D01*
X191209Y234424D01*
X191102Y234434D01*
X190995Y234440D01*
X190888Y234442D01*
X206586Y214122D02*
X206586Y207518D01*
X206586Y214122D02*
X204751Y214122D01*
X204666Y214120D01*
X204582Y214114D01*
X204498Y214104D01*
X204414Y214091D01*
X204331Y214073D01*
X204249Y214052D01*
X204168Y214027D01*
X204088Y213998D01*
X204010Y213966D01*
X203934Y213930D01*
X203859Y213890D01*
X203786Y213847D01*
X203715Y213801D01*
X203646Y213752D01*
X203579Y213699D01*
X203515Y213643D01*
X203454Y213585D01*
X203396Y213524D01*
X203340Y213460D01*
X203287Y213393D01*
X203238Y213324D01*
X203192Y213253D01*
X203149Y213180D01*
X203109Y213105D01*
X203073Y213029D01*
X203041Y212951D01*
X203012Y212871D01*
X202987Y212790D01*
X202966Y212708D01*
X202948Y212625D01*
X202935Y212541D01*
X202925Y212457D01*
X202919Y212373D01*
X202917Y212288D01*
X202919Y212203D01*
X202925Y212119D01*
X202935Y212035D01*
X202948Y211951D01*
X202966Y211868D01*
X202987Y211786D01*
X203012Y211705D01*
X203041Y211625D01*
X203073Y211547D01*
X203109Y211471D01*
X203149Y211396D01*
X203192Y211323D01*
X203238Y211252D01*
X203287Y211183D01*
X203340Y211116D01*
X203396Y211052D01*
X203454Y210991D01*
X203515Y210933D01*
X203579Y210877D01*
X203646Y210824D01*
X203715Y210775D01*
X203786Y210729D01*
X203859Y210686D01*
X203934Y210646D01*
X204010Y210610D01*
X204088Y210578D01*
X204168Y210549D01*
X204249Y210524D01*
X204331Y210503D01*
X204414Y210485D01*
X204498Y210472D01*
X204582Y210462D01*
X204666Y210456D01*
X204751Y210454D01*
X204751Y210453D02*
X206586Y210453D01*
X204384Y210453D02*
X202917Y207518D01*
X200224Y212654D02*
X198390Y214122D01*
X198390Y207518D01*
X200224Y207518D02*
X196555Y207518D01*
X193823Y213388D02*
X193823Y214122D01*
X190154Y214122D01*
X191989Y207518D01*
X208876Y250698D02*
X208876Y257302D01*
X207041Y257302D01*
X206956Y257300D01*
X206872Y257294D01*
X206788Y257284D01*
X206704Y257271D01*
X206621Y257253D01*
X206539Y257232D01*
X206458Y257207D01*
X206378Y257178D01*
X206300Y257146D01*
X206224Y257110D01*
X206149Y257070D01*
X206076Y257027D01*
X206005Y256981D01*
X205936Y256932D01*
X205869Y256879D01*
X205805Y256823D01*
X205744Y256765D01*
X205686Y256704D01*
X205630Y256640D01*
X205577Y256573D01*
X205528Y256504D01*
X205482Y256433D01*
X205439Y256360D01*
X205399Y256285D01*
X205363Y256209D01*
X205331Y256131D01*
X205302Y256051D01*
X205277Y255970D01*
X205256Y255888D01*
X205238Y255805D01*
X205225Y255721D01*
X205215Y255637D01*
X205209Y255553D01*
X205207Y255468D01*
X205209Y255383D01*
X205215Y255299D01*
X205225Y255215D01*
X205238Y255131D01*
X205256Y255048D01*
X205277Y254966D01*
X205302Y254885D01*
X205331Y254805D01*
X205363Y254727D01*
X205399Y254651D01*
X205439Y254576D01*
X205482Y254503D01*
X205528Y254432D01*
X205577Y254363D01*
X205630Y254296D01*
X205686Y254232D01*
X205744Y254171D01*
X205805Y254113D01*
X205869Y254057D01*
X205936Y254004D01*
X206005Y253955D01*
X206076Y253909D01*
X206149Y253866D01*
X206224Y253826D01*
X206300Y253790D01*
X206378Y253758D01*
X206458Y253729D01*
X206539Y253704D01*
X206621Y253683D01*
X206704Y253665D01*
X206788Y253652D01*
X206872Y253642D01*
X206956Y253636D01*
X207041Y253634D01*
X207041Y253633D02*
X208876Y253633D01*
X206674Y253633D02*
X205207Y250698D01*
X202514Y255834D02*
X200680Y257302D01*
X200680Y250698D01*
X202514Y250698D02*
X198845Y250698D01*
X196113Y250698D02*
X193912Y250698D01*
X193838Y250700D01*
X193763Y250706D01*
X193690Y250715D01*
X193616Y250728D01*
X193544Y250745D01*
X193473Y250765D01*
X193402Y250789D01*
X193333Y250817D01*
X193266Y250848D01*
X193200Y250882D01*
X193135Y250920D01*
X193073Y250961D01*
X193013Y251005D01*
X192956Y251052D01*
X192901Y251102D01*
X192848Y251155D01*
X192798Y251210D01*
X192751Y251267D01*
X192707Y251327D01*
X192666Y251389D01*
X192628Y251454D01*
X192594Y251519D01*
X192563Y251587D01*
X192535Y251656D01*
X192511Y251727D01*
X192491Y251798D01*
X192474Y251870D01*
X192461Y251944D01*
X192452Y252017D01*
X192446Y252092D01*
X192444Y252166D01*
X192444Y252899D01*
X192446Y252973D01*
X192452Y253048D01*
X192461Y253121D01*
X192474Y253195D01*
X192491Y253267D01*
X192511Y253338D01*
X192535Y253409D01*
X192563Y253478D01*
X192594Y253545D01*
X192628Y253611D01*
X192666Y253676D01*
X192707Y253738D01*
X192751Y253798D01*
X192798Y253855D01*
X192848Y253910D01*
X192901Y253963D01*
X192956Y254013D01*
X193013Y254060D01*
X193073Y254104D01*
X193135Y254145D01*
X193200Y254183D01*
X193266Y254217D01*
X193333Y254248D01*
X193402Y254276D01*
X193473Y254300D01*
X193544Y254320D01*
X193616Y254337D01*
X193690Y254350D01*
X193763Y254359D01*
X193838Y254365D01*
X193912Y254367D01*
X196113Y254367D01*
X196113Y257302D01*
X192444Y257302D01*
X109345Y206502D02*
X109345Y199898D01*
X109345Y206502D02*
X107510Y206502D01*
X107425Y206500D01*
X107341Y206494D01*
X107257Y206484D01*
X107173Y206471D01*
X107090Y206453D01*
X107008Y206432D01*
X106927Y206407D01*
X106847Y206378D01*
X106769Y206346D01*
X106693Y206310D01*
X106618Y206270D01*
X106545Y206227D01*
X106474Y206181D01*
X106405Y206132D01*
X106338Y206079D01*
X106274Y206023D01*
X106213Y205965D01*
X106155Y205904D01*
X106099Y205840D01*
X106046Y205773D01*
X105997Y205704D01*
X105951Y205633D01*
X105908Y205560D01*
X105868Y205485D01*
X105832Y205409D01*
X105800Y205331D01*
X105771Y205251D01*
X105746Y205170D01*
X105725Y205088D01*
X105707Y205005D01*
X105694Y204921D01*
X105684Y204837D01*
X105678Y204753D01*
X105676Y204668D01*
X105678Y204583D01*
X105684Y204499D01*
X105694Y204415D01*
X105707Y204331D01*
X105725Y204248D01*
X105746Y204166D01*
X105771Y204085D01*
X105800Y204005D01*
X105832Y203927D01*
X105868Y203851D01*
X105908Y203776D01*
X105951Y203703D01*
X105997Y203632D01*
X106046Y203563D01*
X106099Y203496D01*
X106155Y203432D01*
X106213Y203371D01*
X106274Y203313D01*
X106338Y203257D01*
X106405Y203204D01*
X106474Y203155D01*
X106545Y203109D01*
X106618Y203066D01*
X106693Y203026D01*
X106769Y202990D01*
X106847Y202958D01*
X106927Y202929D01*
X107008Y202904D01*
X107090Y202883D01*
X107173Y202865D01*
X107257Y202852D01*
X107341Y202842D01*
X107425Y202836D01*
X107510Y202834D01*
X107510Y202833D02*
X109345Y202833D01*
X107143Y202833D02*
X105676Y199898D01*
X99314Y204851D02*
X99316Y204930D01*
X99321Y205008D01*
X99331Y205086D01*
X99344Y205163D01*
X99361Y205240D01*
X99381Y205316D01*
X99405Y205391D01*
X99432Y205465D01*
X99463Y205537D01*
X99498Y205608D01*
X99535Y205677D01*
X99576Y205744D01*
X99620Y205809D01*
X99667Y205872D01*
X99717Y205932D01*
X99770Y205990D01*
X99826Y206046D01*
X99884Y206099D01*
X99944Y206149D01*
X100007Y206196D01*
X100072Y206240D01*
X100140Y206281D01*
X100208Y206318D01*
X100279Y206353D01*
X100351Y206384D01*
X100425Y206411D01*
X100500Y206435D01*
X100576Y206455D01*
X100653Y206472D01*
X100730Y206485D01*
X100808Y206495D01*
X100886Y206500D01*
X100965Y206502D01*
X101054Y206500D01*
X101143Y206495D01*
X101231Y206485D01*
X101319Y206472D01*
X101406Y206456D01*
X101493Y206435D01*
X101578Y206411D01*
X101663Y206384D01*
X101746Y206353D01*
X101828Y206318D01*
X101909Y206280D01*
X101988Y206239D01*
X102064Y206195D01*
X102140Y206147D01*
X102213Y206096D01*
X102283Y206043D01*
X102352Y205986D01*
X102418Y205926D01*
X102481Y205864D01*
X102542Y205799D01*
X102600Y205732D01*
X102655Y205662D01*
X102708Y205590D01*
X102757Y205516D01*
X102803Y205440D01*
X102845Y205362D01*
X102885Y205282D01*
X102921Y205201D01*
X102954Y205118D01*
X102983Y205034D01*
X99864Y203567D02*
X99808Y203623D01*
X99754Y203682D01*
X99703Y203743D01*
X99654Y203807D01*
X99609Y203872D01*
X99566Y203940D01*
X99527Y204009D01*
X99490Y204080D01*
X99457Y204153D01*
X99428Y204227D01*
X99401Y204302D01*
X99378Y204378D01*
X99359Y204456D01*
X99343Y204534D01*
X99330Y204612D01*
X99321Y204692D01*
X99316Y204771D01*
X99314Y204851D01*
X99864Y203567D02*
X102983Y199898D01*
X99314Y199898D01*
X111800Y187198D02*
X113268Y187198D01*
X113342Y187200D01*
X113417Y187206D01*
X113490Y187215D01*
X113564Y187228D01*
X113636Y187245D01*
X113707Y187265D01*
X113778Y187289D01*
X113847Y187317D01*
X113915Y187348D01*
X113980Y187382D01*
X114045Y187420D01*
X114107Y187461D01*
X114167Y187505D01*
X114224Y187552D01*
X114279Y187602D01*
X114332Y187655D01*
X114382Y187710D01*
X114429Y187767D01*
X114473Y187827D01*
X114514Y187889D01*
X114552Y187954D01*
X114586Y188020D01*
X114617Y188087D01*
X114645Y188156D01*
X114669Y188227D01*
X114689Y188298D01*
X114706Y188371D01*
X114719Y188444D01*
X114728Y188518D01*
X114734Y188592D01*
X114736Y188666D01*
X114735Y188666D02*
X114735Y192334D01*
X114736Y192334D02*
X114734Y192408D01*
X114728Y192483D01*
X114719Y192556D01*
X114706Y192629D01*
X114689Y192702D01*
X114669Y192773D01*
X114645Y192844D01*
X114617Y192913D01*
X114586Y192980D01*
X114552Y193046D01*
X114514Y193111D01*
X114473Y193173D01*
X114429Y193233D01*
X114382Y193290D01*
X114332Y193345D01*
X114279Y193398D01*
X114224Y193448D01*
X114167Y193495D01*
X114107Y193539D01*
X114045Y193580D01*
X113980Y193618D01*
X113915Y193652D01*
X113847Y193683D01*
X113778Y193711D01*
X113708Y193735D01*
X113636Y193755D01*
X113564Y193772D01*
X113490Y193785D01*
X113417Y193794D01*
X113342Y193800D01*
X113268Y193802D01*
X111800Y193802D01*
X107366Y193802D02*
X107287Y193800D01*
X107209Y193795D01*
X107131Y193785D01*
X107054Y193772D01*
X106977Y193755D01*
X106901Y193735D01*
X106826Y193711D01*
X106752Y193684D01*
X106680Y193653D01*
X106609Y193618D01*
X106541Y193581D01*
X106473Y193540D01*
X106408Y193496D01*
X106345Y193449D01*
X106285Y193399D01*
X106227Y193346D01*
X106171Y193290D01*
X106118Y193232D01*
X106068Y193172D01*
X106021Y193109D01*
X105977Y193044D01*
X105936Y192977D01*
X105899Y192908D01*
X105864Y192837D01*
X105833Y192765D01*
X105806Y192691D01*
X105782Y192616D01*
X105762Y192540D01*
X105745Y192463D01*
X105732Y192386D01*
X105722Y192308D01*
X105717Y192230D01*
X105715Y192151D01*
X107366Y193802D02*
X107455Y193800D01*
X107544Y193795D01*
X107632Y193785D01*
X107720Y193772D01*
X107807Y193756D01*
X107894Y193735D01*
X107979Y193711D01*
X108064Y193684D01*
X108147Y193653D01*
X108229Y193618D01*
X108310Y193580D01*
X108389Y193539D01*
X108465Y193495D01*
X108541Y193447D01*
X108614Y193396D01*
X108684Y193343D01*
X108753Y193286D01*
X108819Y193226D01*
X108882Y193164D01*
X108943Y193099D01*
X109001Y193032D01*
X109056Y192962D01*
X109109Y192890D01*
X109158Y192816D01*
X109204Y192740D01*
X109246Y192662D01*
X109286Y192582D01*
X109322Y192501D01*
X109355Y192418D01*
X109384Y192334D01*
X106265Y190867D02*
X106209Y190923D01*
X106155Y190982D01*
X106104Y191043D01*
X106055Y191107D01*
X106010Y191172D01*
X105967Y191240D01*
X105928Y191309D01*
X105891Y191380D01*
X105858Y191453D01*
X105829Y191527D01*
X105802Y191602D01*
X105779Y191678D01*
X105760Y191756D01*
X105744Y191834D01*
X105731Y191912D01*
X105722Y191992D01*
X105717Y192071D01*
X105715Y192151D01*
X106265Y190867D02*
X109384Y187198D01*
X105715Y187198D01*
X102983Y188666D02*
X101515Y193802D01*
X102983Y188666D02*
X99314Y188666D01*
X100415Y190133D02*
X100415Y187198D01*
X109345Y212598D02*
X109345Y219202D01*
X107510Y219202D01*
X107425Y219200D01*
X107341Y219194D01*
X107257Y219184D01*
X107173Y219171D01*
X107090Y219153D01*
X107008Y219132D01*
X106927Y219107D01*
X106847Y219078D01*
X106769Y219046D01*
X106693Y219010D01*
X106618Y218970D01*
X106545Y218927D01*
X106474Y218881D01*
X106405Y218832D01*
X106338Y218779D01*
X106274Y218723D01*
X106213Y218665D01*
X106155Y218604D01*
X106099Y218540D01*
X106046Y218473D01*
X105997Y218404D01*
X105951Y218333D01*
X105908Y218260D01*
X105868Y218185D01*
X105832Y218109D01*
X105800Y218031D01*
X105771Y217951D01*
X105746Y217870D01*
X105725Y217788D01*
X105707Y217705D01*
X105694Y217621D01*
X105684Y217537D01*
X105678Y217453D01*
X105676Y217368D01*
X105678Y217283D01*
X105684Y217199D01*
X105694Y217115D01*
X105707Y217031D01*
X105725Y216948D01*
X105746Y216866D01*
X105771Y216785D01*
X105800Y216705D01*
X105832Y216627D01*
X105868Y216551D01*
X105908Y216476D01*
X105951Y216403D01*
X105997Y216332D01*
X106046Y216263D01*
X106099Y216196D01*
X106155Y216132D01*
X106213Y216071D01*
X106274Y216013D01*
X106338Y215957D01*
X106405Y215904D01*
X106474Y215855D01*
X106545Y215809D01*
X106618Y215766D01*
X106693Y215726D01*
X106769Y215690D01*
X106847Y215658D01*
X106927Y215629D01*
X107008Y215604D01*
X107090Y215583D01*
X107173Y215565D01*
X107257Y215552D01*
X107341Y215542D01*
X107425Y215536D01*
X107510Y215534D01*
X107510Y215533D02*
X109345Y215533D01*
X107143Y215533D02*
X105676Y212598D01*
X102983Y217734D02*
X101148Y219202D01*
X101148Y212598D01*
X99314Y212598D02*
X102983Y212598D01*
X208876Y268478D02*
X208876Y275082D01*
X207041Y275082D01*
X206956Y275080D01*
X206872Y275074D01*
X206788Y275064D01*
X206704Y275051D01*
X206621Y275033D01*
X206539Y275012D01*
X206458Y274987D01*
X206378Y274958D01*
X206300Y274926D01*
X206224Y274890D01*
X206149Y274850D01*
X206076Y274807D01*
X206005Y274761D01*
X205936Y274712D01*
X205869Y274659D01*
X205805Y274603D01*
X205744Y274545D01*
X205686Y274484D01*
X205630Y274420D01*
X205577Y274353D01*
X205528Y274284D01*
X205482Y274213D01*
X205439Y274140D01*
X205399Y274065D01*
X205363Y273989D01*
X205331Y273911D01*
X205302Y273831D01*
X205277Y273750D01*
X205256Y273668D01*
X205238Y273585D01*
X205225Y273501D01*
X205215Y273417D01*
X205209Y273333D01*
X205207Y273248D01*
X205209Y273163D01*
X205215Y273079D01*
X205225Y272995D01*
X205238Y272911D01*
X205256Y272828D01*
X205277Y272746D01*
X205302Y272665D01*
X205331Y272585D01*
X205363Y272507D01*
X205399Y272431D01*
X205439Y272356D01*
X205482Y272283D01*
X205528Y272212D01*
X205577Y272143D01*
X205630Y272076D01*
X205686Y272012D01*
X205744Y271951D01*
X205805Y271893D01*
X205869Y271837D01*
X205936Y271784D01*
X206005Y271735D01*
X206076Y271689D01*
X206149Y271646D01*
X206224Y271606D01*
X206300Y271570D01*
X206378Y271538D01*
X206458Y271509D01*
X206539Y271484D01*
X206621Y271463D01*
X206704Y271445D01*
X206788Y271432D01*
X206872Y271422D01*
X206956Y271416D01*
X207041Y271414D01*
X207041Y271413D02*
X208876Y271413D01*
X206674Y271413D02*
X205207Y268478D01*
X202514Y273614D02*
X200680Y275082D01*
X200680Y268478D01*
X202514Y268478D02*
X198845Y268478D01*
X196113Y269946D02*
X194646Y275082D01*
X196113Y269946D02*
X192444Y269946D01*
X193545Y271413D02*
X193545Y268478D01*
X93883Y410578D02*
X92415Y410578D01*
X93883Y410578D02*
X93957Y410580D01*
X94032Y410586D01*
X94105Y410595D01*
X94179Y410608D01*
X94251Y410625D01*
X94322Y410645D01*
X94393Y410669D01*
X94462Y410697D01*
X94530Y410728D01*
X94595Y410762D01*
X94660Y410800D01*
X94722Y410841D01*
X94782Y410885D01*
X94839Y410932D01*
X94894Y410982D01*
X94947Y411035D01*
X94997Y411090D01*
X95044Y411147D01*
X95088Y411207D01*
X95129Y411269D01*
X95167Y411334D01*
X95201Y411400D01*
X95232Y411467D01*
X95260Y411536D01*
X95284Y411607D01*
X95304Y411678D01*
X95321Y411751D01*
X95334Y411824D01*
X95343Y411898D01*
X95349Y411972D01*
X95351Y412046D01*
X95350Y412046D02*
X95350Y415714D01*
X95351Y415714D02*
X95349Y415788D01*
X95343Y415863D01*
X95334Y415936D01*
X95321Y416009D01*
X95304Y416082D01*
X95284Y416153D01*
X95260Y416224D01*
X95232Y416293D01*
X95201Y416360D01*
X95167Y416426D01*
X95129Y416491D01*
X95088Y416553D01*
X95044Y416613D01*
X94997Y416670D01*
X94947Y416725D01*
X94894Y416778D01*
X94839Y416828D01*
X94782Y416875D01*
X94722Y416919D01*
X94660Y416960D01*
X94595Y416998D01*
X94530Y417032D01*
X94462Y417063D01*
X94393Y417091D01*
X94323Y417115D01*
X94251Y417135D01*
X94179Y417152D01*
X94105Y417165D01*
X94032Y417174D01*
X93957Y417180D01*
X93883Y417182D01*
X92415Y417182D01*
X89999Y415714D02*
X88164Y417182D01*
X88164Y410578D01*
X86330Y410578D02*
X89999Y410578D01*
X163798Y458157D02*
X163798Y459625D01*
X163798Y458157D02*
X163800Y458083D01*
X163806Y458008D01*
X163815Y457935D01*
X163828Y457861D01*
X163845Y457789D01*
X163865Y457718D01*
X163889Y457647D01*
X163917Y457578D01*
X163948Y457511D01*
X163982Y457445D01*
X164020Y457380D01*
X164061Y457318D01*
X164105Y457258D01*
X164152Y457201D01*
X164202Y457146D01*
X164255Y457093D01*
X164310Y457043D01*
X164367Y456996D01*
X164427Y456952D01*
X164489Y456911D01*
X164554Y456873D01*
X164620Y456839D01*
X164687Y456808D01*
X164756Y456780D01*
X164827Y456756D01*
X164898Y456736D01*
X164970Y456719D01*
X165044Y456706D01*
X165117Y456697D01*
X165192Y456691D01*
X165266Y456689D01*
X165266Y456690D02*
X168934Y456690D01*
X168934Y456689D02*
X169008Y456691D01*
X169083Y456697D01*
X169156Y456706D01*
X169230Y456719D01*
X169302Y456736D01*
X169373Y456756D01*
X169444Y456780D01*
X169513Y456808D01*
X169580Y456839D01*
X169646Y456873D01*
X169711Y456911D01*
X169773Y456952D01*
X169833Y456996D01*
X169890Y457043D01*
X169945Y457093D01*
X169998Y457146D01*
X170048Y457201D01*
X170095Y457258D01*
X170139Y457318D01*
X170180Y457380D01*
X170218Y457445D01*
X170252Y457510D01*
X170283Y457578D01*
X170311Y457647D01*
X170335Y457718D01*
X170355Y457789D01*
X170372Y457861D01*
X170385Y457935D01*
X170394Y458008D01*
X170400Y458083D01*
X170402Y458157D01*
X170402Y459625D01*
X170402Y464059D02*
X170400Y464138D01*
X170395Y464216D01*
X170385Y464294D01*
X170372Y464371D01*
X170355Y464448D01*
X170335Y464524D01*
X170311Y464599D01*
X170284Y464673D01*
X170253Y464745D01*
X170218Y464816D01*
X170181Y464885D01*
X170140Y464952D01*
X170096Y465017D01*
X170049Y465080D01*
X169999Y465140D01*
X169946Y465198D01*
X169890Y465254D01*
X169832Y465307D01*
X169772Y465357D01*
X169709Y465404D01*
X169644Y465448D01*
X169577Y465489D01*
X169508Y465526D01*
X169437Y465561D01*
X169365Y465592D01*
X169291Y465619D01*
X169216Y465643D01*
X169140Y465663D01*
X169063Y465680D01*
X168986Y465693D01*
X168908Y465703D01*
X168830Y465708D01*
X168751Y465710D01*
X170402Y464059D02*
X170400Y463970D01*
X170395Y463881D01*
X170385Y463793D01*
X170372Y463705D01*
X170356Y463618D01*
X170335Y463531D01*
X170311Y463446D01*
X170284Y463361D01*
X170253Y463278D01*
X170218Y463196D01*
X170180Y463115D01*
X170139Y463036D01*
X170095Y462960D01*
X170047Y462884D01*
X169996Y462811D01*
X169943Y462741D01*
X169886Y462672D01*
X169826Y462606D01*
X169764Y462543D01*
X169699Y462482D01*
X169632Y462424D01*
X169562Y462369D01*
X169490Y462316D01*
X169416Y462267D01*
X169340Y462221D01*
X169262Y462179D01*
X169182Y462139D01*
X169101Y462103D01*
X169018Y462070D01*
X168934Y462041D01*
X167467Y465160D02*
X167523Y465216D01*
X167582Y465270D01*
X167643Y465321D01*
X167707Y465370D01*
X167772Y465415D01*
X167840Y465458D01*
X167909Y465497D01*
X167980Y465534D01*
X168053Y465567D01*
X168127Y465596D01*
X168202Y465623D01*
X168278Y465646D01*
X168356Y465665D01*
X168434Y465681D01*
X168512Y465694D01*
X168592Y465703D01*
X168671Y465708D01*
X168751Y465710D01*
X167467Y465160D02*
X163798Y462041D01*
X163798Y465710D01*
D11*
X72136Y446254D02*
X72136Y430046D01*
X100584Y430046D02*
X100584Y446254D01*
X91584Y446254D02*
X81136Y446254D01*
X90636Y430046D02*
X91584Y430046D01*
X82084Y430046D02*
X81136Y430046D01*
X99636Y430046D02*
X100584Y430046D01*
X73084Y430046D02*
X72136Y430046D01*
X72136Y446254D02*
X73084Y446254D01*
X99636Y446254D02*
X100584Y446254D01*
D10*
X91212Y463072D02*
X91212Y467842D01*
X91211Y463072D02*
X91209Y462987D01*
X91203Y462903D01*
X91193Y462819D01*
X91180Y462735D01*
X91162Y462652D01*
X91141Y462570D01*
X91116Y462489D01*
X91087Y462409D01*
X91055Y462331D01*
X91019Y462255D01*
X90979Y462180D01*
X90936Y462107D01*
X90890Y462036D01*
X90841Y461967D01*
X90788Y461900D01*
X90732Y461836D01*
X90674Y461775D01*
X90613Y461717D01*
X90549Y461661D01*
X90482Y461608D01*
X90413Y461559D01*
X90342Y461513D01*
X90269Y461470D01*
X90194Y461430D01*
X90118Y461394D01*
X90040Y461362D01*
X89960Y461333D01*
X89879Y461308D01*
X89797Y461287D01*
X89714Y461269D01*
X89630Y461256D01*
X89546Y461246D01*
X89462Y461240D01*
X89377Y461238D01*
X89292Y461240D01*
X89208Y461246D01*
X89124Y461256D01*
X89040Y461269D01*
X88957Y461287D01*
X88875Y461308D01*
X88794Y461333D01*
X88714Y461362D01*
X88636Y461394D01*
X88560Y461430D01*
X88485Y461470D01*
X88412Y461513D01*
X88341Y461559D01*
X88272Y461608D01*
X88205Y461661D01*
X88141Y461717D01*
X88080Y461775D01*
X88022Y461836D01*
X87966Y461900D01*
X87913Y461967D01*
X87864Y462036D01*
X87818Y462107D01*
X87775Y462180D01*
X87735Y462255D01*
X87699Y462331D01*
X87667Y462409D01*
X87638Y462489D01*
X87613Y462570D01*
X87592Y462652D01*
X87574Y462735D01*
X87561Y462819D01*
X87551Y462903D01*
X87545Y462987D01*
X87543Y463072D01*
X87543Y467842D01*
X84597Y466374D02*
X82763Y467842D01*
X82763Y461238D01*
X84597Y461238D02*
X80929Y461238D01*
X123948Y459625D02*
X123948Y458157D01*
X123950Y458083D01*
X123956Y458008D01*
X123965Y457935D01*
X123978Y457861D01*
X123995Y457789D01*
X124015Y457718D01*
X124039Y457647D01*
X124067Y457578D01*
X124098Y457511D01*
X124132Y457445D01*
X124170Y457380D01*
X124211Y457318D01*
X124255Y457258D01*
X124302Y457201D01*
X124352Y457146D01*
X124405Y457093D01*
X124460Y457043D01*
X124517Y456996D01*
X124577Y456952D01*
X124639Y456911D01*
X124704Y456873D01*
X124770Y456839D01*
X124837Y456808D01*
X124906Y456780D01*
X124977Y456756D01*
X125048Y456736D01*
X125120Y456719D01*
X125194Y456706D01*
X125267Y456697D01*
X125342Y456691D01*
X125416Y456689D01*
X125416Y456690D02*
X129084Y456690D01*
X129084Y456689D02*
X129158Y456691D01*
X129233Y456697D01*
X129306Y456706D01*
X129380Y456719D01*
X129452Y456736D01*
X129523Y456756D01*
X129594Y456780D01*
X129663Y456808D01*
X129730Y456839D01*
X129796Y456873D01*
X129861Y456911D01*
X129923Y456952D01*
X129983Y456996D01*
X130040Y457043D01*
X130095Y457093D01*
X130148Y457146D01*
X130198Y457201D01*
X130245Y457258D01*
X130289Y457318D01*
X130330Y457380D01*
X130368Y457445D01*
X130402Y457510D01*
X130433Y457578D01*
X130461Y457647D01*
X130485Y457718D01*
X130505Y457789D01*
X130522Y457861D01*
X130535Y457935D01*
X130544Y458008D01*
X130550Y458083D01*
X130552Y458157D01*
X130552Y459625D01*
X123948Y462041D02*
X123948Y463876D01*
X123950Y463961D01*
X123956Y464045D01*
X123966Y464129D01*
X123979Y464213D01*
X123997Y464296D01*
X124018Y464378D01*
X124043Y464459D01*
X124072Y464539D01*
X124104Y464617D01*
X124140Y464693D01*
X124180Y464768D01*
X124223Y464841D01*
X124269Y464912D01*
X124318Y464981D01*
X124371Y465048D01*
X124427Y465112D01*
X124485Y465173D01*
X124546Y465231D01*
X124610Y465287D01*
X124677Y465340D01*
X124746Y465389D01*
X124817Y465435D01*
X124890Y465478D01*
X124965Y465518D01*
X125041Y465554D01*
X125119Y465586D01*
X125199Y465615D01*
X125280Y465640D01*
X125362Y465661D01*
X125445Y465679D01*
X125529Y465692D01*
X125613Y465702D01*
X125697Y465708D01*
X125782Y465710D01*
X125867Y465708D01*
X125951Y465702D01*
X126035Y465692D01*
X126119Y465679D01*
X126202Y465661D01*
X126284Y465640D01*
X126365Y465615D01*
X126445Y465586D01*
X126523Y465554D01*
X126599Y465518D01*
X126674Y465478D01*
X126747Y465435D01*
X126818Y465389D01*
X126887Y465340D01*
X126954Y465287D01*
X127018Y465231D01*
X127079Y465173D01*
X127137Y465112D01*
X127193Y465048D01*
X127246Y464981D01*
X127295Y464912D01*
X127341Y464841D01*
X127384Y464768D01*
X127424Y464693D01*
X127460Y464617D01*
X127492Y464539D01*
X127521Y464459D01*
X127546Y464378D01*
X127567Y464296D01*
X127585Y464213D01*
X127598Y464129D01*
X127608Y464045D01*
X127614Y463961D01*
X127616Y463876D01*
X130552Y464243D02*
X130552Y462041D01*
X130552Y464243D02*
X130550Y464319D01*
X130544Y464394D01*
X130535Y464469D01*
X130521Y464543D01*
X130504Y464617D01*
X130482Y464689D01*
X130458Y464761D01*
X130429Y464831D01*
X130397Y464899D01*
X130362Y464966D01*
X130323Y465031D01*
X130280Y465094D01*
X130235Y465154D01*
X130187Y465212D01*
X130135Y465268D01*
X130081Y465320D01*
X130024Y465370D01*
X129965Y465417D01*
X129904Y465461D01*
X129840Y465502D01*
X129774Y465539D01*
X129706Y465573D01*
X129637Y465603D01*
X129566Y465630D01*
X129494Y465653D01*
X129421Y465672D01*
X129347Y465687D01*
X129272Y465699D01*
X129197Y465707D01*
X129122Y465711D01*
X129046Y465711D01*
X128971Y465707D01*
X128896Y465699D01*
X128821Y465687D01*
X128747Y465672D01*
X128674Y465653D01*
X128602Y465630D01*
X128531Y465603D01*
X128462Y465573D01*
X128394Y465539D01*
X128328Y465502D01*
X128264Y465461D01*
X128203Y465417D01*
X128144Y465370D01*
X128087Y465320D01*
X128033Y465268D01*
X127981Y465212D01*
X127933Y465154D01*
X127888Y465094D01*
X127845Y465031D01*
X127806Y464966D01*
X127771Y464899D01*
X127739Y464831D01*
X127710Y464761D01*
X127686Y464689D01*
X127664Y464617D01*
X127647Y464543D01*
X127633Y464469D01*
X127624Y464394D01*
X127618Y464319D01*
X127616Y464243D01*
X127617Y464243D02*
X127617Y462775D01*
D12*
X198272Y357505D02*
X198272Y351155D01*
X198272Y357505D02*
X196508Y357505D01*
X196425Y357503D01*
X196343Y357497D01*
X196261Y357488D01*
X196179Y357474D01*
X196098Y357457D01*
X196018Y357436D01*
X195939Y357411D01*
X195862Y357382D01*
X195785Y357350D01*
X195711Y357315D01*
X195638Y357276D01*
X195567Y357233D01*
X195498Y357187D01*
X195431Y357138D01*
X195367Y357086D01*
X195305Y357031D01*
X195246Y356974D01*
X195190Y356913D01*
X195136Y356850D01*
X195086Y356785D01*
X195038Y356717D01*
X194994Y356647D01*
X194954Y356575D01*
X194916Y356501D01*
X194882Y356426D01*
X194852Y356349D01*
X194825Y356270D01*
X194802Y356191D01*
X194783Y356110D01*
X194768Y356029D01*
X194756Y355947D01*
X194748Y355865D01*
X194744Y355782D01*
X194744Y355700D01*
X194748Y355617D01*
X194756Y355535D01*
X194768Y355453D01*
X194783Y355372D01*
X194802Y355291D01*
X194825Y355212D01*
X194852Y355133D01*
X194882Y355056D01*
X194916Y354981D01*
X194954Y354907D01*
X194994Y354835D01*
X195038Y354765D01*
X195086Y354697D01*
X195136Y354632D01*
X195190Y354569D01*
X195246Y354508D01*
X195305Y354451D01*
X195367Y354396D01*
X195431Y354344D01*
X195498Y354295D01*
X195567Y354249D01*
X195638Y354206D01*
X195711Y354167D01*
X195785Y354132D01*
X195862Y354100D01*
X195939Y354071D01*
X196018Y354046D01*
X196098Y354025D01*
X196179Y354008D01*
X196261Y353994D01*
X196343Y353985D01*
X196425Y353979D01*
X196508Y353977D01*
X198272Y353977D01*
X196155Y353977D02*
X194744Y351155D01*
X191920Y356094D02*
X190156Y357505D01*
X190156Y351155D01*
X191920Y351155D02*
X188392Y351155D01*
X185519Y352919D02*
X185517Y353002D01*
X185511Y353084D01*
X185502Y353166D01*
X185488Y353248D01*
X185471Y353329D01*
X185450Y353409D01*
X185425Y353488D01*
X185396Y353565D01*
X185364Y353642D01*
X185329Y353716D01*
X185290Y353789D01*
X185247Y353860D01*
X185201Y353929D01*
X185152Y353996D01*
X185100Y354060D01*
X185045Y354122D01*
X184988Y354181D01*
X184927Y354237D01*
X184864Y354291D01*
X184799Y354341D01*
X184731Y354389D01*
X184661Y354433D01*
X184589Y354473D01*
X184515Y354511D01*
X184440Y354545D01*
X184363Y354575D01*
X184284Y354602D01*
X184205Y354625D01*
X184124Y354644D01*
X184043Y354659D01*
X183961Y354671D01*
X183879Y354679D01*
X183796Y354683D01*
X183714Y354683D01*
X183631Y354679D01*
X183549Y354671D01*
X183467Y354659D01*
X183386Y354644D01*
X183305Y354625D01*
X183226Y354602D01*
X183147Y354575D01*
X183070Y354545D01*
X182995Y354511D01*
X182921Y354473D01*
X182849Y354433D01*
X182779Y354389D01*
X182711Y354341D01*
X182646Y354291D01*
X182583Y354237D01*
X182522Y354181D01*
X182465Y354122D01*
X182410Y354060D01*
X182358Y353996D01*
X182309Y353929D01*
X182263Y353860D01*
X182220Y353789D01*
X182181Y353716D01*
X182146Y353642D01*
X182114Y353565D01*
X182085Y353488D01*
X182060Y353409D01*
X182039Y353329D01*
X182022Y353248D01*
X182008Y353166D01*
X181999Y353084D01*
X181993Y353002D01*
X181991Y352919D01*
X181993Y352836D01*
X181999Y352754D01*
X182008Y352672D01*
X182022Y352590D01*
X182039Y352509D01*
X182060Y352429D01*
X182085Y352350D01*
X182114Y352273D01*
X182146Y352196D01*
X182181Y352122D01*
X182220Y352049D01*
X182263Y351978D01*
X182309Y351909D01*
X182358Y351842D01*
X182410Y351778D01*
X182465Y351716D01*
X182522Y351657D01*
X182583Y351601D01*
X182646Y351547D01*
X182711Y351497D01*
X182779Y351449D01*
X182849Y351405D01*
X182921Y351365D01*
X182995Y351327D01*
X183070Y351293D01*
X183147Y351263D01*
X183226Y351236D01*
X183305Y351213D01*
X183386Y351194D01*
X183467Y351179D01*
X183549Y351167D01*
X183631Y351159D01*
X183714Y351155D01*
X183796Y351155D01*
X183879Y351159D01*
X183961Y351167D01*
X184043Y351179D01*
X184124Y351194D01*
X184205Y351213D01*
X184284Y351236D01*
X184363Y351263D01*
X184440Y351293D01*
X184515Y351327D01*
X184589Y351365D01*
X184661Y351405D01*
X184731Y351449D01*
X184799Y351497D01*
X184864Y351547D01*
X184927Y351601D01*
X184988Y351657D01*
X185045Y351716D01*
X185100Y351778D01*
X185152Y351842D01*
X185201Y351909D01*
X185247Y351978D01*
X185290Y352049D01*
X185329Y352122D01*
X185364Y352196D01*
X185396Y352273D01*
X185425Y352350D01*
X185450Y352429D01*
X185471Y352509D01*
X185488Y352590D01*
X185502Y352672D01*
X185511Y352754D01*
X185517Y352836D01*
X185519Y352919D01*
X185166Y356094D02*
X185164Y356168D01*
X185158Y356241D01*
X185149Y356315D01*
X185135Y356387D01*
X185118Y356459D01*
X185097Y356530D01*
X185072Y356600D01*
X185044Y356668D01*
X185012Y356735D01*
X184977Y356800D01*
X184938Y356862D01*
X184897Y356923D01*
X184852Y356982D01*
X184804Y357038D01*
X184753Y357092D01*
X184699Y357143D01*
X184643Y357191D01*
X184584Y357236D01*
X184523Y357277D01*
X184461Y357316D01*
X184396Y357351D01*
X184329Y357383D01*
X184261Y357411D01*
X184191Y357436D01*
X184120Y357457D01*
X184048Y357474D01*
X183976Y357488D01*
X183902Y357497D01*
X183829Y357503D01*
X183755Y357505D01*
X183681Y357503D01*
X183608Y357497D01*
X183534Y357488D01*
X183462Y357474D01*
X183390Y357457D01*
X183319Y357436D01*
X183249Y357411D01*
X183181Y357383D01*
X183114Y357351D01*
X183050Y357316D01*
X182987Y357277D01*
X182926Y357236D01*
X182867Y357191D01*
X182811Y357143D01*
X182757Y357092D01*
X182706Y357038D01*
X182658Y356982D01*
X182613Y356923D01*
X182572Y356862D01*
X182533Y356800D01*
X182498Y356735D01*
X182466Y356668D01*
X182438Y356600D01*
X182413Y356530D01*
X182392Y356459D01*
X182375Y356387D01*
X182361Y356315D01*
X182352Y356241D01*
X182346Y356168D01*
X182344Y356094D01*
X182346Y356020D01*
X182352Y355947D01*
X182361Y355873D01*
X182375Y355801D01*
X182392Y355729D01*
X182413Y355658D01*
X182438Y355588D01*
X182466Y355520D01*
X182498Y355453D01*
X182533Y355389D01*
X182572Y355326D01*
X182613Y355265D01*
X182658Y355206D01*
X182706Y355150D01*
X182757Y355096D01*
X182811Y355045D01*
X182867Y354997D01*
X182926Y354952D01*
X182987Y354911D01*
X183050Y354872D01*
X183114Y354837D01*
X183181Y354805D01*
X183249Y354777D01*
X183319Y354752D01*
X183390Y354731D01*
X183462Y354714D01*
X183534Y354700D01*
X183608Y354691D01*
X183681Y354685D01*
X183755Y354683D01*
X183829Y354685D01*
X183902Y354691D01*
X183976Y354700D01*
X184048Y354714D01*
X184120Y354731D01*
X184191Y354752D01*
X184261Y354777D01*
X184329Y354805D01*
X184396Y354837D01*
X184461Y354872D01*
X184523Y354911D01*
X184584Y354952D01*
X184643Y354997D01*
X184699Y355045D01*
X184753Y355096D01*
X184804Y355150D01*
X184852Y355206D01*
X184897Y355265D01*
X184938Y355326D01*
X184977Y355389D01*
X185012Y355453D01*
X185044Y355520D01*
X185072Y355588D01*
X185097Y355658D01*
X185118Y355729D01*
X185135Y355801D01*
X185149Y355873D01*
X185158Y355947D01*
X185164Y356020D01*
X185166Y356094D01*
X78892Y340995D02*
X78892Y334645D01*
X78892Y340995D02*
X77128Y340995D01*
X77045Y340993D01*
X76963Y340987D01*
X76881Y340978D01*
X76799Y340964D01*
X76718Y340947D01*
X76638Y340926D01*
X76559Y340901D01*
X76482Y340872D01*
X76405Y340840D01*
X76331Y340805D01*
X76258Y340766D01*
X76187Y340723D01*
X76118Y340677D01*
X76051Y340628D01*
X75987Y340576D01*
X75925Y340521D01*
X75866Y340464D01*
X75810Y340403D01*
X75756Y340340D01*
X75706Y340275D01*
X75658Y340207D01*
X75614Y340137D01*
X75574Y340065D01*
X75536Y339991D01*
X75502Y339916D01*
X75472Y339839D01*
X75445Y339760D01*
X75422Y339681D01*
X75403Y339600D01*
X75388Y339519D01*
X75376Y339437D01*
X75368Y339355D01*
X75364Y339272D01*
X75364Y339190D01*
X75368Y339107D01*
X75376Y339025D01*
X75388Y338943D01*
X75403Y338862D01*
X75422Y338781D01*
X75445Y338702D01*
X75472Y338623D01*
X75502Y338546D01*
X75536Y338471D01*
X75574Y338397D01*
X75614Y338325D01*
X75658Y338255D01*
X75706Y338187D01*
X75756Y338122D01*
X75810Y338059D01*
X75866Y337998D01*
X75925Y337941D01*
X75987Y337886D01*
X76051Y337834D01*
X76118Y337785D01*
X76187Y337739D01*
X76258Y337696D01*
X76331Y337657D01*
X76405Y337622D01*
X76482Y337590D01*
X76559Y337561D01*
X76638Y337536D01*
X76718Y337515D01*
X76799Y337498D01*
X76881Y337484D01*
X76963Y337475D01*
X77045Y337469D01*
X77128Y337467D01*
X78892Y337467D01*
X76775Y337467D02*
X75364Y334645D01*
X72540Y339584D02*
X70776Y340995D01*
X70776Y334645D01*
X72540Y334645D02*
X69012Y334645D01*
X64728Y337467D02*
X62611Y337467D01*
X64728Y337467D02*
X64802Y337469D01*
X64875Y337475D01*
X64949Y337484D01*
X65021Y337498D01*
X65093Y337515D01*
X65164Y337536D01*
X65234Y337561D01*
X65302Y337589D01*
X65369Y337621D01*
X65434Y337656D01*
X65496Y337695D01*
X65557Y337736D01*
X65616Y337781D01*
X65672Y337829D01*
X65726Y337880D01*
X65777Y337934D01*
X65825Y337990D01*
X65870Y338049D01*
X65911Y338110D01*
X65950Y338173D01*
X65985Y338237D01*
X66017Y338304D01*
X66045Y338372D01*
X66070Y338442D01*
X66091Y338513D01*
X66108Y338585D01*
X66122Y338657D01*
X66131Y338731D01*
X66137Y338804D01*
X66139Y338878D01*
X66139Y339231D01*
X66137Y339314D01*
X66131Y339396D01*
X66122Y339478D01*
X66108Y339560D01*
X66091Y339641D01*
X66070Y339721D01*
X66045Y339800D01*
X66016Y339877D01*
X65984Y339954D01*
X65949Y340028D01*
X65910Y340101D01*
X65867Y340172D01*
X65821Y340241D01*
X65772Y340308D01*
X65720Y340372D01*
X65665Y340434D01*
X65608Y340493D01*
X65547Y340549D01*
X65484Y340603D01*
X65419Y340653D01*
X65351Y340701D01*
X65281Y340745D01*
X65209Y340785D01*
X65135Y340823D01*
X65060Y340857D01*
X64983Y340887D01*
X64904Y340914D01*
X64825Y340937D01*
X64744Y340956D01*
X64663Y340971D01*
X64581Y340983D01*
X64499Y340991D01*
X64416Y340995D01*
X64334Y340995D01*
X64251Y340991D01*
X64169Y340983D01*
X64087Y340971D01*
X64006Y340956D01*
X63925Y340937D01*
X63846Y340914D01*
X63767Y340887D01*
X63690Y340857D01*
X63615Y340823D01*
X63541Y340785D01*
X63469Y340745D01*
X63399Y340701D01*
X63331Y340653D01*
X63266Y340603D01*
X63203Y340549D01*
X63142Y340493D01*
X63085Y340434D01*
X63030Y340372D01*
X62978Y340308D01*
X62929Y340241D01*
X62883Y340172D01*
X62840Y340101D01*
X62801Y340028D01*
X62766Y339954D01*
X62734Y339877D01*
X62705Y339800D01*
X62680Y339721D01*
X62659Y339641D01*
X62642Y339560D01*
X62628Y339478D01*
X62619Y339396D01*
X62613Y339314D01*
X62611Y339231D01*
X62611Y337467D01*
X62613Y337361D01*
X62619Y337256D01*
X62629Y337151D01*
X62643Y337046D01*
X62660Y336942D01*
X62682Y336839D01*
X62707Y336737D01*
X62736Y336635D01*
X62769Y336535D01*
X62806Y336436D01*
X62846Y336339D01*
X62890Y336243D01*
X62938Y336148D01*
X62989Y336056D01*
X63044Y335966D01*
X63101Y335877D01*
X63162Y335791D01*
X63227Y335708D01*
X63294Y335626D01*
X63364Y335548D01*
X63438Y335472D01*
X63514Y335398D01*
X63592Y335328D01*
X63674Y335261D01*
X63757Y335196D01*
X63843Y335135D01*
X63932Y335078D01*
X64022Y335023D01*
X64114Y334972D01*
X64209Y334924D01*
X64305Y334880D01*
X64402Y334840D01*
X64501Y334803D01*
X64601Y334770D01*
X64703Y334741D01*
X64805Y334716D01*
X64908Y334694D01*
X65012Y334677D01*
X65117Y334663D01*
X65222Y334653D01*
X65327Y334647D01*
X65433Y334645D01*
X78609Y328930D02*
X78609Y322580D01*
X78609Y328930D02*
X76845Y328930D01*
X76762Y328928D01*
X76680Y328922D01*
X76598Y328913D01*
X76516Y328899D01*
X76435Y328882D01*
X76355Y328861D01*
X76276Y328836D01*
X76199Y328807D01*
X76122Y328775D01*
X76048Y328740D01*
X75975Y328701D01*
X75904Y328658D01*
X75835Y328612D01*
X75768Y328563D01*
X75704Y328511D01*
X75642Y328456D01*
X75583Y328399D01*
X75527Y328338D01*
X75473Y328275D01*
X75423Y328210D01*
X75375Y328142D01*
X75331Y328072D01*
X75291Y328000D01*
X75253Y327926D01*
X75219Y327851D01*
X75189Y327774D01*
X75162Y327695D01*
X75139Y327616D01*
X75120Y327535D01*
X75105Y327454D01*
X75093Y327372D01*
X75085Y327290D01*
X75081Y327207D01*
X75081Y327125D01*
X75085Y327042D01*
X75093Y326960D01*
X75105Y326878D01*
X75120Y326797D01*
X75139Y326716D01*
X75162Y326637D01*
X75189Y326558D01*
X75219Y326481D01*
X75253Y326406D01*
X75291Y326332D01*
X75331Y326260D01*
X75375Y326190D01*
X75423Y326122D01*
X75473Y326057D01*
X75527Y325994D01*
X75583Y325933D01*
X75642Y325876D01*
X75704Y325821D01*
X75768Y325769D01*
X75835Y325720D01*
X75904Y325674D01*
X75975Y325631D01*
X76048Y325592D01*
X76122Y325557D01*
X76199Y325525D01*
X76276Y325496D01*
X76355Y325471D01*
X76435Y325450D01*
X76516Y325433D01*
X76598Y325419D01*
X76680Y325410D01*
X76762Y325404D01*
X76845Y325402D01*
X78609Y325402D01*
X76492Y325402D02*
X75081Y322580D01*
X70316Y328931D02*
X70238Y328929D01*
X70160Y328923D01*
X70083Y328914D01*
X70006Y328900D01*
X69930Y328883D01*
X69855Y328863D01*
X69781Y328838D01*
X69708Y328810D01*
X69637Y328779D01*
X69567Y328743D01*
X69500Y328705D01*
X69434Y328663D01*
X69370Y328618D01*
X69309Y328571D01*
X69250Y328520D01*
X69193Y328466D01*
X69139Y328409D01*
X69088Y328350D01*
X69041Y328289D01*
X68996Y328225D01*
X68954Y328159D01*
X68916Y328092D01*
X68880Y328022D01*
X68849Y327951D01*
X68821Y327878D01*
X68796Y327804D01*
X68776Y327729D01*
X68759Y327653D01*
X68745Y327576D01*
X68736Y327499D01*
X68730Y327421D01*
X68728Y327343D01*
X70316Y328930D02*
X70404Y328928D01*
X70493Y328922D01*
X70581Y328913D01*
X70668Y328899D01*
X70755Y328882D01*
X70841Y328861D01*
X70926Y328837D01*
X71009Y328809D01*
X71092Y328777D01*
X71173Y328741D01*
X71252Y328702D01*
X71330Y328660D01*
X71406Y328614D01*
X71479Y328566D01*
X71551Y328514D01*
X71620Y328459D01*
X71687Y328401D01*
X71751Y328340D01*
X71812Y328276D01*
X71871Y328210D01*
X71927Y328141D01*
X71979Y328070D01*
X72029Y327997D01*
X72075Y327922D01*
X72118Y327845D01*
X72158Y327766D01*
X72194Y327685D01*
X72227Y327603D01*
X72256Y327519D01*
X69258Y326108D02*
X69201Y326166D01*
X69146Y326226D01*
X69094Y326288D01*
X69046Y326353D01*
X69000Y326421D01*
X68958Y326490D01*
X68919Y326561D01*
X68883Y326634D01*
X68851Y326709D01*
X68823Y326785D01*
X68798Y326862D01*
X68777Y326941D01*
X68760Y327020D01*
X68746Y327100D01*
X68737Y327181D01*
X68731Y327262D01*
X68729Y327343D01*
X69258Y326108D02*
X72256Y322580D01*
X68729Y322580D01*
X65856Y325755D02*
X65854Y325895D01*
X65849Y326034D01*
X65839Y326173D01*
X65826Y326312D01*
X65809Y326451D01*
X65789Y326589D01*
X65765Y326727D01*
X65737Y326864D01*
X65706Y327000D01*
X65671Y327135D01*
X65632Y327269D01*
X65590Y327402D01*
X65544Y327534D01*
X65495Y327665D01*
X65442Y327794D01*
X65386Y327922D01*
X65327Y328048D01*
X65326Y328048D02*
X65302Y328114D01*
X65274Y328179D01*
X65242Y328242D01*
X65207Y328303D01*
X65169Y328362D01*
X65128Y328419D01*
X65084Y328473D01*
X65036Y328526D01*
X64986Y328575D01*
X64934Y328622D01*
X64879Y328666D01*
X64822Y328707D01*
X64762Y328745D01*
X64701Y328779D01*
X64638Y328810D01*
X64573Y328838D01*
X64507Y328862D01*
X64440Y328883D01*
X64371Y328900D01*
X64302Y328913D01*
X64233Y328922D01*
X64162Y328928D01*
X64092Y328930D01*
X64022Y328928D01*
X63952Y328922D01*
X63882Y328913D01*
X63813Y328900D01*
X63744Y328883D01*
X63677Y328862D01*
X63611Y328838D01*
X63546Y328810D01*
X63483Y328779D01*
X63422Y328745D01*
X63362Y328707D01*
X63305Y328666D01*
X63250Y328622D01*
X63198Y328575D01*
X63148Y328526D01*
X63101Y328474D01*
X63056Y328419D01*
X63015Y328362D01*
X62977Y328303D01*
X62942Y328242D01*
X62910Y328179D01*
X62882Y328114D01*
X62858Y328048D01*
X62857Y328048D02*
X62798Y327922D01*
X62742Y327794D01*
X62689Y327665D01*
X62640Y327534D01*
X62594Y327402D01*
X62552Y327269D01*
X62513Y327135D01*
X62478Y327000D01*
X62447Y326864D01*
X62419Y326727D01*
X62395Y326589D01*
X62375Y326451D01*
X62358Y326312D01*
X62345Y326173D01*
X62335Y326034D01*
X62330Y325895D01*
X62328Y325755D01*
X65856Y325755D02*
X65854Y325615D01*
X65849Y325476D01*
X65839Y325337D01*
X65826Y325198D01*
X65810Y325059D01*
X65789Y324921D01*
X65765Y324783D01*
X65737Y324646D01*
X65706Y324510D01*
X65671Y324375D01*
X65632Y324241D01*
X65590Y324108D01*
X65544Y323976D01*
X65495Y323845D01*
X65442Y323716D01*
X65386Y323588D01*
X65327Y323462D01*
X65326Y323462D02*
X65302Y323396D01*
X65274Y323331D01*
X65242Y323268D01*
X65207Y323207D01*
X65169Y323148D01*
X65128Y323091D01*
X65084Y323037D01*
X65036Y322984D01*
X64986Y322935D01*
X64934Y322888D01*
X64879Y322844D01*
X64822Y322803D01*
X64762Y322765D01*
X64701Y322731D01*
X64638Y322700D01*
X64573Y322672D01*
X64507Y322648D01*
X64440Y322627D01*
X64371Y322610D01*
X64302Y322597D01*
X64232Y322588D01*
X64162Y322582D01*
X64092Y322580D01*
X62857Y323462D02*
X62798Y323588D01*
X62742Y323716D01*
X62689Y323845D01*
X62640Y323976D01*
X62594Y324108D01*
X62552Y324241D01*
X62513Y324375D01*
X62478Y324510D01*
X62447Y324646D01*
X62419Y324783D01*
X62395Y324921D01*
X62374Y325059D01*
X62358Y325198D01*
X62345Y325337D01*
X62335Y325476D01*
X62330Y325615D01*
X62328Y325755D01*
X62858Y323462D02*
X62882Y323396D01*
X62910Y323331D01*
X62942Y323268D01*
X62977Y323207D01*
X63015Y323148D01*
X63056Y323091D01*
X63101Y323036D01*
X63148Y322984D01*
X63198Y322935D01*
X63250Y322888D01*
X63305Y322844D01*
X63362Y322803D01*
X63422Y322765D01*
X63483Y322731D01*
X63546Y322700D01*
X63611Y322672D01*
X63677Y322648D01*
X63744Y322627D01*
X63813Y322610D01*
X63882Y322597D01*
X63952Y322588D01*
X64022Y322582D01*
X64092Y322580D01*
X65503Y323991D02*
X62681Y327519D01*
X192627Y314325D02*
X194038Y314325D01*
X194112Y314327D01*
X194185Y314333D01*
X194259Y314342D01*
X194331Y314356D01*
X194403Y314373D01*
X194474Y314394D01*
X194544Y314419D01*
X194612Y314447D01*
X194679Y314479D01*
X194744Y314514D01*
X194806Y314553D01*
X194867Y314594D01*
X194926Y314639D01*
X194982Y314687D01*
X195036Y314738D01*
X195087Y314792D01*
X195135Y314848D01*
X195180Y314907D01*
X195221Y314968D01*
X195260Y315031D01*
X195295Y315095D01*
X195327Y315162D01*
X195355Y315230D01*
X195380Y315300D01*
X195401Y315371D01*
X195418Y315443D01*
X195432Y315515D01*
X195441Y315589D01*
X195447Y315662D01*
X195449Y315736D01*
X195449Y319264D01*
X195447Y319338D01*
X195441Y319411D01*
X195432Y319485D01*
X195418Y319557D01*
X195401Y319629D01*
X195380Y319700D01*
X195355Y319770D01*
X195327Y319838D01*
X195295Y319905D01*
X195260Y319969D01*
X195221Y320032D01*
X195180Y320093D01*
X195135Y320152D01*
X195087Y320208D01*
X195036Y320262D01*
X194982Y320313D01*
X194926Y320361D01*
X194867Y320406D01*
X194807Y320447D01*
X194744Y320486D01*
X194679Y320521D01*
X194612Y320553D01*
X194544Y320581D01*
X194474Y320606D01*
X194403Y320627D01*
X194331Y320644D01*
X194259Y320658D01*
X194186Y320667D01*
X194112Y320673D01*
X194038Y320675D01*
X192627Y320675D01*
X190093Y314325D02*
X188329Y314325D01*
X188246Y314327D01*
X188164Y314333D01*
X188082Y314342D01*
X188000Y314356D01*
X187919Y314373D01*
X187839Y314394D01*
X187760Y314419D01*
X187683Y314448D01*
X187606Y314480D01*
X187532Y314515D01*
X187459Y314554D01*
X187388Y314597D01*
X187319Y314643D01*
X187252Y314692D01*
X187188Y314744D01*
X187126Y314799D01*
X187067Y314856D01*
X187011Y314917D01*
X186957Y314980D01*
X186907Y315045D01*
X186859Y315113D01*
X186815Y315183D01*
X186775Y315255D01*
X186737Y315329D01*
X186703Y315404D01*
X186673Y315481D01*
X186646Y315560D01*
X186623Y315639D01*
X186604Y315720D01*
X186589Y315801D01*
X186577Y315883D01*
X186569Y315965D01*
X186565Y316048D01*
X186565Y316130D01*
X186569Y316213D01*
X186577Y316295D01*
X186589Y316377D01*
X186604Y316458D01*
X186623Y316539D01*
X186646Y316618D01*
X186673Y316697D01*
X186703Y316774D01*
X186737Y316849D01*
X186775Y316923D01*
X186815Y316995D01*
X186859Y317065D01*
X186907Y317133D01*
X186957Y317198D01*
X187011Y317261D01*
X187067Y317322D01*
X187126Y317379D01*
X187188Y317434D01*
X187252Y317486D01*
X187319Y317535D01*
X187388Y317581D01*
X187459Y317624D01*
X187532Y317663D01*
X187606Y317698D01*
X187683Y317730D01*
X187760Y317759D01*
X187839Y317784D01*
X187919Y317805D01*
X188000Y317822D01*
X188082Y317836D01*
X188164Y317845D01*
X188246Y317851D01*
X188329Y317853D01*
X187977Y320675D02*
X190093Y320675D01*
X187977Y320675D02*
X187903Y320673D01*
X187830Y320667D01*
X187756Y320658D01*
X187684Y320644D01*
X187612Y320627D01*
X187541Y320606D01*
X187471Y320581D01*
X187403Y320553D01*
X187336Y320521D01*
X187272Y320486D01*
X187209Y320447D01*
X187148Y320406D01*
X187089Y320361D01*
X187033Y320313D01*
X186979Y320262D01*
X186928Y320208D01*
X186880Y320152D01*
X186835Y320093D01*
X186794Y320032D01*
X186755Y319970D01*
X186720Y319905D01*
X186688Y319838D01*
X186660Y319770D01*
X186635Y319700D01*
X186614Y319629D01*
X186597Y319557D01*
X186583Y319485D01*
X186574Y319411D01*
X186568Y319338D01*
X186566Y319264D01*
X186568Y319190D01*
X186574Y319117D01*
X186583Y319043D01*
X186597Y318971D01*
X186614Y318899D01*
X186635Y318828D01*
X186660Y318758D01*
X186688Y318690D01*
X186720Y318623D01*
X186755Y318559D01*
X186794Y318496D01*
X186835Y318435D01*
X186880Y318376D01*
X186928Y318320D01*
X186979Y318266D01*
X187033Y318215D01*
X187089Y318167D01*
X187148Y318122D01*
X187209Y318081D01*
X187272Y318042D01*
X187336Y318007D01*
X187403Y317975D01*
X187471Y317947D01*
X187541Y317922D01*
X187612Y317901D01*
X187684Y317884D01*
X187756Y317870D01*
X187830Y317861D01*
X187903Y317855D01*
X187977Y317853D01*
X189388Y317853D01*
X183693Y319264D02*
X181929Y320675D01*
X181929Y314325D01*
X183693Y314325D02*
X180165Y314325D01*
X196469Y337185D02*
X196469Y343535D01*
X194705Y343535D01*
X194622Y343533D01*
X194540Y343527D01*
X194458Y343518D01*
X194376Y343504D01*
X194295Y343487D01*
X194215Y343466D01*
X194136Y343441D01*
X194059Y343412D01*
X193982Y343380D01*
X193908Y343345D01*
X193835Y343306D01*
X193764Y343263D01*
X193695Y343217D01*
X193628Y343168D01*
X193564Y343116D01*
X193502Y343061D01*
X193443Y343004D01*
X193387Y342943D01*
X193333Y342880D01*
X193283Y342815D01*
X193235Y342747D01*
X193191Y342677D01*
X193151Y342605D01*
X193113Y342531D01*
X193079Y342456D01*
X193049Y342379D01*
X193022Y342300D01*
X192999Y342221D01*
X192980Y342140D01*
X192965Y342059D01*
X192953Y341977D01*
X192945Y341895D01*
X192941Y341812D01*
X192941Y341730D01*
X192945Y341647D01*
X192953Y341565D01*
X192965Y341483D01*
X192980Y341402D01*
X192999Y341321D01*
X193022Y341242D01*
X193049Y341163D01*
X193079Y341086D01*
X193113Y341011D01*
X193151Y340937D01*
X193191Y340865D01*
X193235Y340795D01*
X193283Y340727D01*
X193333Y340662D01*
X193387Y340599D01*
X193443Y340538D01*
X193502Y340481D01*
X193564Y340426D01*
X193628Y340374D01*
X193695Y340325D01*
X193764Y340279D01*
X193835Y340236D01*
X193908Y340197D01*
X193982Y340162D01*
X194059Y340130D01*
X194136Y340101D01*
X194215Y340076D01*
X194295Y340055D01*
X194376Y340038D01*
X194458Y340024D01*
X194540Y340015D01*
X194622Y340009D01*
X194705Y340007D01*
X196469Y340007D01*
X194352Y340007D02*
X192941Y337185D01*
X188176Y343536D02*
X188098Y343534D01*
X188020Y343528D01*
X187943Y343519D01*
X187866Y343505D01*
X187790Y343488D01*
X187715Y343468D01*
X187641Y343443D01*
X187568Y343415D01*
X187497Y343384D01*
X187427Y343348D01*
X187360Y343310D01*
X187294Y343268D01*
X187230Y343223D01*
X187169Y343176D01*
X187110Y343125D01*
X187053Y343071D01*
X186999Y343014D01*
X186948Y342955D01*
X186901Y342894D01*
X186856Y342830D01*
X186814Y342764D01*
X186776Y342697D01*
X186740Y342627D01*
X186709Y342556D01*
X186681Y342483D01*
X186656Y342409D01*
X186636Y342334D01*
X186619Y342258D01*
X186605Y342181D01*
X186596Y342104D01*
X186590Y342026D01*
X186588Y341948D01*
X188176Y343535D02*
X188264Y343533D01*
X188353Y343527D01*
X188441Y343518D01*
X188528Y343504D01*
X188615Y343487D01*
X188701Y343466D01*
X188786Y343442D01*
X188869Y343414D01*
X188952Y343382D01*
X189033Y343346D01*
X189112Y343307D01*
X189190Y343265D01*
X189266Y343219D01*
X189339Y343171D01*
X189411Y343119D01*
X189480Y343064D01*
X189547Y343006D01*
X189611Y342945D01*
X189672Y342881D01*
X189731Y342815D01*
X189787Y342746D01*
X189839Y342675D01*
X189889Y342602D01*
X189935Y342527D01*
X189978Y342450D01*
X190018Y342371D01*
X190054Y342290D01*
X190087Y342208D01*
X190116Y342124D01*
X187118Y340713D02*
X187061Y340771D01*
X187006Y340831D01*
X186954Y340893D01*
X186906Y340958D01*
X186860Y341026D01*
X186818Y341095D01*
X186779Y341166D01*
X186743Y341239D01*
X186711Y341314D01*
X186683Y341390D01*
X186658Y341467D01*
X186637Y341546D01*
X186620Y341625D01*
X186606Y341705D01*
X186597Y341786D01*
X186591Y341867D01*
X186589Y341948D01*
X187118Y340713D02*
X190116Y337185D01*
X186589Y337185D01*
X183716Y342124D02*
X181952Y343535D01*
X181952Y337185D01*
X183716Y337185D02*
X180188Y337185D01*
X198272Y332105D02*
X198272Y325755D01*
X198272Y332105D02*
X196508Y332105D01*
X196425Y332103D01*
X196343Y332097D01*
X196261Y332088D01*
X196179Y332074D01*
X196098Y332057D01*
X196018Y332036D01*
X195939Y332011D01*
X195862Y331982D01*
X195785Y331950D01*
X195711Y331915D01*
X195638Y331876D01*
X195567Y331833D01*
X195498Y331787D01*
X195431Y331738D01*
X195367Y331686D01*
X195305Y331631D01*
X195246Y331574D01*
X195190Y331513D01*
X195136Y331450D01*
X195086Y331385D01*
X195038Y331317D01*
X194994Y331247D01*
X194954Y331175D01*
X194916Y331101D01*
X194882Y331026D01*
X194852Y330949D01*
X194825Y330870D01*
X194802Y330791D01*
X194783Y330710D01*
X194768Y330629D01*
X194756Y330547D01*
X194748Y330465D01*
X194744Y330382D01*
X194744Y330300D01*
X194748Y330217D01*
X194756Y330135D01*
X194768Y330053D01*
X194783Y329972D01*
X194802Y329891D01*
X194825Y329812D01*
X194852Y329733D01*
X194882Y329656D01*
X194916Y329581D01*
X194954Y329507D01*
X194994Y329435D01*
X195038Y329365D01*
X195086Y329297D01*
X195136Y329232D01*
X195190Y329169D01*
X195246Y329108D01*
X195305Y329051D01*
X195367Y328996D01*
X195431Y328944D01*
X195498Y328895D01*
X195567Y328849D01*
X195638Y328806D01*
X195711Y328767D01*
X195785Y328732D01*
X195862Y328700D01*
X195939Y328671D01*
X196018Y328646D01*
X196098Y328625D01*
X196179Y328608D01*
X196261Y328594D01*
X196343Y328585D01*
X196425Y328579D01*
X196508Y328577D01*
X198272Y328577D01*
X196155Y328577D02*
X194744Y325755D01*
X189979Y332106D02*
X189901Y332104D01*
X189823Y332098D01*
X189746Y332089D01*
X189669Y332075D01*
X189593Y332058D01*
X189518Y332038D01*
X189444Y332013D01*
X189371Y331985D01*
X189300Y331954D01*
X189230Y331918D01*
X189163Y331880D01*
X189097Y331838D01*
X189033Y331793D01*
X188972Y331746D01*
X188913Y331695D01*
X188856Y331641D01*
X188802Y331584D01*
X188751Y331525D01*
X188704Y331464D01*
X188659Y331400D01*
X188617Y331334D01*
X188579Y331267D01*
X188543Y331197D01*
X188512Y331126D01*
X188484Y331053D01*
X188459Y330979D01*
X188439Y330904D01*
X188422Y330828D01*
X188408Y330751D01*
X188399Y330674D01*
X188393Y330596D01*
X188391Y330518D01*
X189979Y332105D02*
X190067Y332103D01*
X190156Y332097D01*
X190244Y332088D01*
X190331Y332074D01*
X190418Y332057D01*
X190504Y332036D01*
X190589Y332012D01*
X190672Y331984D01*
X190755Y331952D01*
X190836Y331916D01*
X190915Y331877D01*
X190993Y331835D01*
X191069Y331789D01*
X191142Y331741D01*
X191214Y331689D01*
X191283Y331634D01*
X191350Y331576D01*
X191414Y331515D01*
X191475Y331451D01*
X191534Y331385D01*
X191590Y331316D01*
X191642Y331245D01*
X191692Y331172D01*
X191738Y331097D01*
X191781Y331020D01*
X191821Y330941D01*
X191857Y330860D01*
X191890Y330778D01*
X191919Y330694D01*
X188921Y329283D02*
X188864Y329341D01*
X188809Y329401D01*
X188757Y329463D01*
X188709Y329528D01*
X188663Y329596D01*
X188621Y329665D01*
X188582Y329736D01*
X188546Y329809D01*
X188514Y329884D01*
X188486Y329960D01*
X188461Y330037D01*
X188440Y330116D01*
X188423Y330195D01*
X188409Y330275D01*
X188400Y330356D01*
X188394Y330437D01*
X188392Y330518D01*
X188921Y329283D02*
X191920Y325755D01*
X188392Y325755D01*
X183579Y332106D02*
X183501Y332104D01*
X183423Y332098D01*
X183346Y332089D01*
X183269Y332075D01*
X183193Y332058D01*
X183118Y332038D01*
X183044Y332013D01*
X182971Y331985D01*
X182900Y331954D01*
X182830Y331918D01*
X182763Y331880D01*
X182697Y331838D01*
X182633Y331793D01*
X182572Y331746D01*
X182513Y331695D01*
X182456Y331641D01*
X182402Y331584D01*
X182351Y331525D01*
X182304Y331464D01*
X182259Y331400D01*
X182217Y331334D01*
X182179Y331267D01*
X182143Y331197D01*
X182112Y331126D01*
X182084Y331053D01*
X182059Y330979D01*
X182039Y330904D01*
X182022Y330828D01*
X182008Y330751D01*
X181999Y330674D01*
X181993Y330596D01*
X181991Y330518D01*
X183579Y332105D02*
X183667Y332103D01*
X183756Y332097D01*
X183844Y332088D01*
X183931Y332074D01*
X184018Y332057D01*
X184104Y332036D01*
X184189Y332012D01*
X184272Y331984D01*
X184355Y331952D01*
X184436Y331916D01*
X184515Y331877D01*
X184593Y331835D01*
X184669Y331789D01*
X184742Y331741D01*
X184814Y331689D01*
X184883Y331634D01*
X184950Y331576D01*
X185014Y331515D01*
X185075Y331451D01*
X185134Y331385D01*
X185190Y331316D01*
X185242Y331245D01*
X185292Y331172D01*
X185338Y331097D01*
X185381Y331020D01*
X185421Y330941D01*
X185457Y330860D01*
X185490Y330778D01*
X185519Y330694D01*
X182520Y329283D02*
X182463Y329341D01*
X182408Y329401D01*
X182356Y329463D01*
X182308Y329528D01*
X182262Y329596D01*
X182220Y329665D01*
X182181Y329736D01*
X182145Y329809D01*
X182113Y329884D01*
X182085Y329960D01*
X182060Y330037D01*
X182039Y330116D01*
X182022Y330195D01*
X182008Y330275D01*
X181999Y330356D01*
X181993Y330437D01*
X181991Y330518D01*
X182520Y329283D02*
X185519Y325755D01*
X181991Y325755D01*
X78892Y344805D02*
X78892Y351155D01*
X77128Y351155D01*
X77045Y351153D01*
X76963Y351147D01*
X76881Y351138D01*
X76799Y351124D01*
X76718Y351107D01*
X76638Y351086D01*
X76559Y351061D01*
X76482Y351032D01*
X76405Y351000D01*
X76331Y350965D01*
X76258Y350926D01*
X76187Y350883D01*
X76118Y350837D01*
X76051Y350788D01*
X75987Y350736D01*
X75925Y350681D01*
X75866Y350624D01*
X75810Y350563D01*
X75756Y350500D01*
X75706Y350435D01*
X75658Y350367D01*
X75614Y350297D01*
X75574Y350225D01*
X75536Y350151D01*
X75502Y350076D01*
X75472Y349999D01*
X75445Y349920D01*
X75422Y349841D01*
X75403Y349760D01*
X75388Y349679D01*
X75376Y349597D01*
X75368Y349515D01*
X75364Y349432D01*
X75364Y349350D01*
X75368Y349267D01*
X75376Y349185D01*
X75388Y349103D01*
X75403Y349022D01*
X75422Y348941D01*
X75445Y348862D01*
X75472Y348783D01*
X75502Y348706D01*
X75536Y348631D01*
X75574Y348557D01*
X75614Y348485D01*
X75658Y348415D01*
X75706Y348347D01*
X75756Y348282D01*
X75810Y348219D01*
X75866Y348158D01*
X75925Y348101D01*
X75987Y348046D01*
X76051Y347994D01*
X76118Y347945D01*
X76187Y347899D01*
X76258Y347856D01*
X76331Y347817D01*
X76405Y347782D01*
X76482Y347750D01*
X76559Y347721D01*
X76638Y347696D01*
X76718Y347675D01*
X76799Y347658D01*
X76881Y347644D01*
X76963Y347635D01*
X77045Y347629D01*
X77128Y347627D01*
X78892Y347627D01*
X76775Y347627D02*
X75364Y344805D01*
X70599Y351156D02*
X70521Y351154D01*
X70443Y351148D01*
X70366Y351139D01*
X70289Y351125D01*
X70213Y351108D01*
X70138Y351088D01*
X70064Y351063D01*
X69991Y351035D01*
X69920Y351004D01*
X69850Y350968D01*
X69783Y350930D01*
X69717Y350888D01*
X69653Y350843D01*
X69592Y350796D01*
X69533Y350745D01*
X69476Y350691D01*
X69422Y350634D01*
X69371Y350575D01*
X69324Y350514D01*
X69279Y350450D01*
X69237Y350384D01*
X69199Y350317D01*
X69163Y350247D01*
X69132Y350176D01*
X69104Y350103D01*
X69079Y350029D01*
X69059Y349954D01*
X69042Y349878D01*
X69028Y349801D01*
X69019Y349724D01*
X69013Y349646D01*
X69011Y349568D01*
X70599Y351155D02*
X70687Y351153D01*
X70776Y351147D01*
X70864Y351138D01*
X70951Y351124D01*
X71038Y351107D01*
X71124Y351086D01*
X71209Y351062D01*
X71292Y351034D01*
X71375Y351002D01*
X71456Y350966D01*
X71535Y350927D01*
X71613Y350885D01*
X71689Y350839D01*
X71762Y350791D01*
X71834Y350739D01*
X71903Y350684D01*
X71970Y350626D01*
X72034Y350565D01*
X72095Y350501D01*
X72154Y350435D01*
X72210Y350366D01*
X72262Y350295D01*
X72312Y350222D01*
X72358Y350147D01*
X72401Y350070D01*
X72441Y349991D01*
X72477Y349910D01*
X72510Y349828D01*
X72539Y349744D01*
X69541Y348333D02*
X69484Y348391D01*
X69429Y348451D01*
X69377Y348513D01*
X69329Y348578D01*
X69283Y348646D01*
X69241Y348715D01*
X69202Y348786D01*
X69166Y348859D01*
X69134Y348934D01*
X69106Y349010D01*
X69081Y349087D01*
X69060Y349166D01*
X69043Y349245D01*
X69029Y349325D01*
X69020Y349406D01*
X69014Y349487D01*
X69012Y349568D01*
X69541Y348333D02*
X72540Y344805D01*
X69012Y344805D01*
X66139Y344805D02*
X64375Y344805D01*
X64292Y344807D01*
X64210Y344813D01*
X64128Y344822D01*
X64046Y344836D01*
X63965Y344853D01*
X63885Y344874D01*
X63806Y344899D01*
X63729Y344928D01*
X63652Y344960D01*
X63578Y344995D01*
X63505Y345034D01*
X63434Y345077D01*
X63365Y345123D01*
X63298Y345172D01*
X63234Y345224D01*
X63172Y345279D01*
X63113Y345336D01*
X63057Y345397D01*
X63003Y345460D01*
X62953Y345525D01*
X62905Y345593D01*
X62861Y345663D01*
X62821Y345735D01*
X62783Y345809D01*
X62749Y345884D01*
X62719Y345961D01*
X62692Y346040D01*
X62669Y346119D01*
X62650Y346200D01*
X62635Y346281D01*
X62623Y346363D01*
X62615Y346445D01*
X62611Y346528D01*
X62611Y346610D01*
X62615Y346693D01*
X62623Y346775D01*
X62635Y346857D01*
X62650Y346938D01*
X62669Y347019D01*
X62692Y347098D01*
X62719Y347177D01*
X62749Y347254D01*
X62783Y347329D01*
X62821Y347403D01*
X62861Y347475D01*
X62905Y347545D01*
X62953Y347613D01*
X63003Y347678D01*
X63057Y347741D01*
X63113Y347802D01*
X63172Y347859D01*
X63234Y347914D01*
X63298Y347966D01*
X63365Y348015D01*
X63434Y348061D01*
X63505Y348104D01*
X63578Y348143D01*
X63652Y348178D01*
X63729Y348210D01*
X63806Y348239D01*
X63885Y348264D01*
X63965Y348285D01*
X64046Y348302D01*
X64128Y348316D01*
X64210Y348325D01*
X64292Y348331D01*
X64375Y348333D01*
X64022Y351155D02*
X66139Y351155D01*
X64022Y351155D02*
X63948Y351153D01*
X63875Y351147D01*
X63801Y351138D01*
X63729Y351124D01*
X63657Y351107D01*
X63586Y351086D01*
X63516Y351061D01*
X63448Y351033D01*
X63381Y351001D01*
X63317Y350966D01*
X63254Y350927D01*
X63193Y350886D01*
X63134Y350841D01*
X63078Y350793D01*
X63024Y350742D01*
X62973Y350688D01*
X62925Y350632D01*
X62880Y350573D01*
X62839Y350512D01*
X62800Y350450D01*
X62765Y350385D01*
X62733Y350318D01*
X62705Y350250D01*
X62680Y350180D01*
X62659Y350109D01*
X62642Y350037D01*
X62628Y349965D01*
X62619Y349891D01*
X62613Y349818D01*
X62611Y349744D01*
X62613Y349670D01*
X62619Y349597D01*
X62628Y349523D01*
X62642Y349451D01*
X62659Y349379D01*
X62680Y349308D01*
X62705Y349238D01*
X62733Y349170D01*
X62765Y349103D01*
X62800Y349039D01*
X62839Y348976D01*
X62880Y348915D01*
X62925Y348856D01*
X62973Y348800D01*
X63024Y348746D01*
X63078Y348695D01*
X63134Y348647D01*
X63193Y348602D01*
X63254Y348561D01*
X63316Y348522D01*
X63381Y348487D01*
X63448Y348455D01*
X63516Y348427D01*
X63586Y348402D01*
X63657Y348381D01*
X63729Y348364D01*
X63801Y348350D01*
X63875Y348341D01*
X63948Y348335D01*
X64022Y348333D01*
X65433Y348333D01*
D13*
X121500Y348140D02*
X132500Y348140D01*
X132500Y368140D02*
X121500Y368140D01*
D14*
X128625Y365140D03*
D10*
X154825Y366832D02*
X154825Y369768D01*
X154824Y369768D02*
X154822Y369853D01*
X154816Y369937D01*
X154806Y370021D01*
X154793Y370105D01*
X154775Y370188D01*
X154754Y370270D01*
X154729Y370351D01*
X154700Y370431D01*
X154668Y370509D01*
X154632Y370585D01*
X154592Y370660D01*
X154549Y370733D01*
X154503Y370804D01*
X154454Y370873D01*
X154401Y370940D01*
X154345Y371004D01*
X154287Y371065D01*
X154226Y371123D01*
X154162Y371179D01*
X154095Y371232D01*
X154026Y371281D01*
X153955Y371327D01*
X153882Y371370D01*
X153807Y371410D01*
X153731Y371446D01*
X153653Y371478D01*
X153573Y371507D01*
X153492Y371532D01*
X153410Y371553D01*
X153327Y371571D01*
X153243Y371584D01*
X153159Y371594D01*
X153075Y371600D01*
X152990Y371602D01*
X152905Y371600D01*
X152821Y371594D01*
X152737Y371584D01*
X152653Y371571D01*
X152570Y371553D01*
X152488Y371532D01*
X152407Y371507D01*
X152327Y371478D01*
X152249Y371446D01*
X152173Y371410D01*
X152098Y371370D01*
X152025Y371327D01*
X151954Y371281D01*
X151885Y371232D01*
X151818Y371179D01*
X151754Y371123D01*
X151693Y371065D01*
X151635Y371004D01*
X151579Y370940D01*
X151526Y370873D01*
X151477Y370804D01*
X151431Y370733D01*
X151388Y370660D01*
X151348Y370585D01*
X151312Y370509D01*
X151280Y370431D01*
X151251Y370351D01*
X151226Y370270D01*
X151205Y370188D01*
X151187Y370105D01*
X151174Y370021D01*
X151164Y369937D01*
X151158Y369853D01*
X151156Y369768D01*
X151156Y366832D01*
X151158Y366747D01*
X151164Y366663D01*
X151174Y366579D01*
X151187Y366495D01*
X151205Y366412D01*
X151226Y366330D01*
X151251Y366249D01*
X151280Y366169D01*
X151312Y366091D01*
X151348Y366015D01*
X151388Y365940D01*
X151431Y365867D01*
X151477Y365796D01*
X151526Y365727D01*
X151579Y365660D01*
X151635Y365596D01*
X151693Y365535D01*
X151754Y365477D01*
X151818Y365421D01*
X151885Y365368D01*
X151954Y365319D01*
X152025Y365273D01*
X152098Y365230D01*
X152173Y365190D01*
X152249Y365154D01*
X152327Y365122D01*
X152407Y365093D01*
X152488Y365068D01*
X152570Y365047D01*
X152653Y365029D01*
X152737Y365016D01*
X152821Y365006D01*
X152905Y365000D01*
X152990Y364998D01*
X153075Y365000D01*
X153159Y365006D01*
X153243Y365016D01*
X153327Y365029D01*
X153410Y365047D01*
X153492Y365068D01*
X153573Y365093D01*
X153653Y365122D01*
X153731Y365154D01*
X153807Y365190D01*
X153882Y365230D01*
X153955Y365273D01*
X154026Y365319D01*
X154095Y365368D01*
X154162Y365421D01*
X154226Y365477D01*
X154287Y365535D01*
X154345Y365596D01*
X154401Y365660D01*
X154454Y365727D01*
X154503Y365796D01*
X154549Y365867D01*
X154592Y365940D01*
X154632Y366015D01*
X154668Y366091D01*
X154700Y366169D01*
X154729Y366249D01*
X154754Y366330D01*
X154775Y366412D01*
X154793Y366495D01*
X154806Y366579D01*
X154816Y366663D01*
X154822Y366747D01*
X154824Y366832D01*
X151890Y366466D02*
X150422Y364998D01*
X148564Y366466D02*
X147097Y371602D01*
X148564Y366466D02*
X144895Y366466D01*
X145996Y367933D02*
X145996Y364998D01*
D13*
X132500Y284640D02*
X121500Y284640D01*
X121500Y304640D02*
X132500Y304640D01*
D14*
X128625Y301640D03*
D10*
X154825Y302458D02*
X154825Y299522D01*
X154824Y302458D02*
X154822Y302543D01*
X154816Y302627D01*
X154806Y302711D01*
X154793Y302795D01*
X154775Y302878D01*
X154754Y302960D01*
X154729Y303041D01*
X154700Y303121D01*
X154668Y303199D01*
X154632Y303275D01*
X154592Y303350D01*
X154549Y303423D01*
X154503Y303494D01*
X154454Y303563D01*
X154401Y303630D01*
X154345Y303694D01*
X154287Y303755D01*
X154226Y303813D01*
X154162Y303869D01*
X154095Y303922D01*
X154026Y303971D01*
X153955Y304017D01*
X153882Y304060D01*
X153807Y304100D01*
X153731Y304136D01*
X153653Y304168D01*
X153573Y304197D01*
X153492Y304222D01*
X153410Y304243D01*
X153327Y304261D01*
X153243Y304274D01*
X153159Y304284D01*
X153075Y304290D01*
X152990Y304292D01*
X152905Y304290D01*
X152821Y304284D01*
X152737Y304274D01*
X152653Y304261D01*
X152570Y304243D01*
X152488Y304222D01*
X152407Y304197D01*
X152327Y304168D01*
X152249Y304136D01*
X152173Y304100D01*
X152098Y304060D01*
X152025Y304017D01*
X151954Y303971D01*
X151885Y303922D01*
X151818Y303869D01*
X151754Y303813D01*
X151693Y303755D01*
X151635Y303694D01*
X151579Y303630D01*
X151526Y303563D01*
X151477Y303494D01*
X151431Y303423D01*
X151388Y303350D01*
X151348Y303275D01*
X151312Y303199D01*
X151280Y303121D01*
X151251Y303041D01*
X151226Y302960D01*
X151205Y302878D01*
X151187Y302795D01*
X151174Y302711D01*
X151164Y302627D01*
X151158Y302543D01*
X151156Y302458D01*
X151156Y299522D01*
X151158Y299437D01*
X151164Y299353D01*
X151174Y299269D01*
X151187Y299185D01*
X151205Y299102D01*
X151226Y299020D01*
X151251Y298939D01*
X151280Y298859D01*
X151312Y298781D01*
X151348Y298705D01*
X151388Y298630D01*
X151431Y298557D01*
X151477Y298486D01*
X151526Y298417D01*
X151579Y298350D01*
X151635Y298286D01*
X151693Y298225D01*
X151754Y298167D01*
X151818Y298111D01*
X151885Y298058D01*
X151954Y298009D01*
X152025Y297963D01*
X152098Y297920D01*
X152173Y297880D01*
X152249Y297844D01*
X152327Y297812D01*
X152407Y297783D01*
X152488Y297758D01*
X152570Y297737D01*
X152653Y297719D01*
X152737Y297706D01*
X152821Y297696D01*
X152905Y297690D01*
X152990Y297688D01*
X153075Y297690D01*
X153159Y297696D01*
X153243Y297706D01*
X153327Y297719D01*
X153410Y297737D01*
X153492Y297758D01*
X153573Y297783D01*
X153653Y297812D01*
X153731Y297844D01*
X153807Y297880D01*
X153882Y297920D01*
X153955Y297963D01*
X154026Y298009D01*
X154095Y298058D01*
X154162Y298111D01*
X154226Y298167D01*
X154287Y298225D01*
X154345Y298286D01*
X154401Y298350D01*
X154454Y298417D01*
X154503Y298486D01*
X154549Y298557D01*
X154592Y298630D01*
X154632Y298705D01*
X154668Y298781D01*
X154700Y298859D01*
X154729Y298939D01*
X154754Y299020D01*
X154775Y299102D01*
X154793Y299185D01*
X154806Y299269D01*
X154816Y299353D01*
X154822Y299437D01*
X154824Y299522D01*
X151890Y299156D02*
X150422Y297688D01*
X148564Y301357D02*
X146363Y301357D01*
X146289Y301355D01*
X146214Y301349D01*
X146141Y301340D01*
X146067Y301327D01*
X145995Y301310D01*
X145924Y301290D01*
X145853Y301266D01*
X145784Y301238D01*
X145717Y301207D01*
X145651Y301173D01*
X145586Y301135D01*
X145524Y301094D01*
X145464Y301050D01*
X145407Y301003D01*
X145352Y300953D01*
X145299Y300900D01*
X145249Y300845D01*
X145202Y300788D01*
X145158Y300728D01*
X145117Y300666D01*
X145079Y300601D01*
X145045Y300535D01*
X145014Y300468D01*
X144986Y300399D01*
X144962Y300328D01*
X144942Y300257D01*
X144925Y300185D01*
X144912Y300111D01*
X144903Y300038D01*
X144897Y299963D01*
X144895Y299889D01*
X144895Y299522D01*
X144896Y299522D02*
X144898Y299437D01*
X144904Y299353D01*
X144914Y299269D01*
X144927Y299185D01*
X144945Y299102D01*
X144966Y299020D01*
X144991Y298939D01*
X145020Y298859D01*
X145052Y298781D01*
X145088Y298705D01*
X145128Y298630D01*
X145171Y298557D01*
X145217Y298486D01*
X145266Y298417D01*
X145319Y298350D01*
X145375Y298286D01*
X145433Y298225D01*
X145494Y298167D01*
X145558Y298111D01*
X145625Y298058D01*
X145694Y298009D01*
X145765Y297963D01*
X145838Y297920D01*
X145913Y297880D01*
X145989Y297844D01*
X146067Y297812D01*
X146147Y297783D01*
X146228Y297758D01*
X146310Y297737D01*
X146393Y297719D01*
X146477Y297706D01*
X146561Y297696D01*
X146645Y297690D01*
X146730Y297688D01*
X146815Y297690D01*
X146899Y297696D01*
X146983Y297706D01*
X147067Y297719D01*
X147150Y297737D01*
X147232Y297758D01*
X147313Y297783D01*
X147393Y297812D01*
X147471Y297844D01*
X147547Y297880D01*
X147622Y297920D01*
X147695Y297963D01*
X147766Y298009D01*
X147835Y298058D01*
X147902Y298111D01*
X147966Y298167D01*
X148027Y298225D01*
X148085Y298286D01*
X148141Y298350D01*
X148194Y298417D01*
X148243Y298486D01*
X148289Y298557D01*
X148332Y298630D01*
X148372Y298705D01*
X148408Y298781D01*
X148440Y298859D01*
X148469Y298939D01*
X148494Y299020D01*
X148515Y299102D01*
X148533Y299185D01*
X148546Y299269D01*
X148556Y299353D01*
X148562Y299437D01*
X148564Y299522D01*
X148564Y301357D01*
X148562Y301464D01*
X148556Y301571D01*
X148546Y301678D01*
X148533Y301784D01*
X148515Y301890D01*
X148494Y301995D01*
X148469Y302099D01*
X148440Y302203D01*
X148407Y302305D01*
X148370Y302405D01*
X148330Y302505D01*
X148286Y302603D01*
X148239Y302699D01*
X148188Y302793D01*
X148134Y302886D01*
X148077Y302976D01*
X148016Y303065D01*
X147952Y303151D01*
X147885Y303234D01*
X147815Y303316D01*
X147742Y303394D01*
X147666Y303470D01*
X147588Y303543D01*
X147506Y303613D01*
X147423Y303680D01*
X147337Y303744D01*
X147248Y303805D01*
X147158Y303862D01*
X147065Y303916D01*
X146971Y303967D01*
X146875Y304014D01*
X146777Y304058D01*
X146678Y304098D01*
X146577Y304135D01*
X146475Y304168D01*
X146371Y304197D01*
X146267Y304222D01*
X146162Y304243D01*
X146056Y304261D01*
X145950Y304274D01*
X145843Y304284D01*
X145736Y304290D01*
X145629Y304292D01*
D12*
X154712Y336409D02*
X154712Y339231D01*
X154713Y339231D02*
X154711Y339314D01*
X154705Y339396D01*
X154696Y339478D01*
X154682Y339560D01*
X154665Y339641D01*
X154644Y339721D01*
X154619Y339800D01*
X154590Y339877D01*
X154558Y339954D01*
X154523Y340028D01*
X154484Y340101D01*
X154441Y340172D01*
X154395Y340241D01*
X154346Y340308D01*
X154294Y340372D01*
X154239Y340434D01*
X154182Y340493D01*
X154121Y340549D01*
X154058Y340603D01*
X153993Y340653D01*
X153925Y340701D01*
X153855Y340745D01*
X153783Y340785D01*
X153709Y340823D01*
X153634Y340857D01*
X153557Y340887D01*
X153478Y340914D01*
X153399Y340937D01*
X153318Y340956D01*
X153237Y340971D01*
X153155Y340983D01*
X153073Y340991D01*
X152990Y340995D01*
X152908Y340995D01*
X152825Y340991D01*
X152743Y340983D01*
X152661Y340971D01*
X152580Y340956D01*
X152499Y340937D01*
X152420Y340914D01*
X152341Y340887D01*
X152264Y340857D01*
X152189Y340823D01*
X152115Y340785D01*
X152043Y340745D01*
X151973Y340701D01*
X151905Y340653D01*
X151840Y340603D01*
X151777Y340549D01*
X151716Y340493D01*
X151659Y340434D01*
X151604Y340372D01*
X151552Y340308D01*
X151503Y340241D01*
X151457Y340172D01*
X151414Y340101D01*
X151375Y340028D01*
X151340Y339954D01*
X151308Y339877D01*
X151279Y339800D01*
X151254Y339721D01*
X151233Y339641D01*
X151216Y339560D01*
X151202Y339478D01*
X151193Y339396D01*
X151187Y339314D01*
X151185Y339231D01*
X151185Y336409D01*
X151187Y336326D01*
X151193Y336244D01*
X151202Y336162D01*
X151216Y336080D01*
X151233Y335999D01*
X151254Y335919D01*
X151279Y335840D01*
X151308Y335763D01*
X151340Y335686D01*
X151375Y335612D01*
X151414Y335539D01*
X151457Y335468D01*
X151503Y335399D01*
X151552Y335332D01*
X151604Y335268D01*
X151659Y335206D01*
X151716Y335147D01*
X151777Y335091D01*
X151840Y335037D01*
X151905Y334987D01*
X151973Y334939D01*
X152043Y334895D01*
X152115Y334855D01*
X152189Y334817D01*
X152264Y334783D01*
X152341Y334753D01*
X152420Y334726D01*
X152499Y334703D01*
X152580Y334684D01*
X152661Y334669D01*
X152743Y334657D01*
X152825Y334649D01*
X152908Y334645D01*
X152990Y334645D01*
X153073Y334649D01*
X153155Y334657D01*
X153237Y334669D01*
X153318Y334684D01*
X153399Y334703D01*
X153478Y334726D01*
X153557Y334753D01*
X153634Y334783D01*
X153709Y334817D01*
X153783Y334855D01*
X153855Y334895D01*
X153925Y334939D01*
X153993Y334987D01*
X154058Y335037D01*
X154121Y335091D01*
X154182Y335147D01*
X154239Y335206D01*
X154294Y335268D01*
X154346Y335332D01*
X154395Y335399D01*
X154441Y335468D01*
X154484Y335539D01*
X154523Y335612D01*
X154558Y335686D01*
X154590Y335763D01*
X154619Y335840D01*
X154644Y335919D01*
X154665Y335999D01*
X154682Y336080D01*
X154696Y336162D01*
X154705Y336244D01*
X154711Y336326D01*
X154713Y336409D01*
X151890Y336056D02*
X150479Y334645D01*
X148535Y334645D02*
X146419Y334645D01*
X146345Y334647D01*
X146272Y334653D01*
X146198Y334662D01*
X146126Y334676D01*
X146054Y334693D01*
X145983Y334714D01*
X145913Y334739D01*
X145845Y334767D01*
X145778Y334799D01*
X145714Y334834D01*
X145651Y334873D01*
X145590Y334914D01*
X145531Y334959D01*
X145475Y335007D01*
X145421Y335058D01*
X145370Y335112D01*
X145322Y335168D01*
X145277Y335227D01*
X145236Y335288D01*
X145197Y335351D01*
X145162Y335415D01*
X145130Y335482D01*
X145102Y335550D01*
X145077Y335620D01*
X145056Y335691D01*
X145039Y335763D01*
X145025Y335835D01*
X145016Y335909D01*
X145010Y335982D01*
X145008Y336056D01*
X145008Y336762D01*
X145010Y336836D01*
X145016Y336909D01*
X145025Y336983D01*
X145039Y337055D01*
X145056Y337127D01*
X145077Y337198D01*
X145102Y337268D01*
X145130Y337336D01*
X145162Y337403D01*
X145197Y337468D01*
X145236Y337530D01*
X145277Y337591D01*
X145322Y337650D01*
X145370Y337706D01*
X145421Y337760D01*
X145475Y337811D01*
X145531Y337859D01*
X145590Y337904D01*
X145651Y337945D01*
X145714Y337984D01*
X145778Y338019D01*
X145845Y338051D01*
X145913Y338079D01*
X145983Y338104D01*
X146054Y338125D01*
X146126Y338142D01*
X146198Y338156D01*
X146272Y338165D01*
X146345Y338171D01*
X146419Y338173D01*
X148535Y338173D01*
X148535Y340995D01*
X145008Y340995D01*
D10*
X177515Y179818D02*
X177515Y174682D01*
X177514Y174682D02*
X177516Y174608D01*
X177522Y174533D01*
X177531Y174460D01*
X177544Y174386D01*
X177561Y174314D01*
X177581Y174243D01*
X177605Y174172D01*
X177633Y174103D01*
X177664Y174036D01*
X177698Y173970D01*
X177736Y173905D01*
X177777Y173843D01*
X177821Y173783D01*
X177868Y173726D01*
X177918Y173671D01*
X177971Y173618D01*
X178026Y173568D01*
X178083Y173521D01*
X178143Y173477D01*
X178205Y173436D01*
X178270Y173398D01*
X178336Y173364D01*
X178403Y173333D01*
X178472Y173305D01*
X178543Y173281D01*
X178614Y173261D01*
X178686Y173244D01*
X178760Y173231D01*
X178833Y173222D01*
X178908Y173216D01*
X178982Y173214D01*
X179716Y173214D01*
X174594Y174682D02*
X173127Y179818D01*
X174594Y174682D02*
X170925Y174682D01*
X172026Y176149D02*
X172026Y173214D01*
D12*
X233793Y217551D02*
X233793Y224917D01*
X235839Y224917D02*
X231747Y224917D01*
X228650Y224917D02*
X228650Y217551D01*
X228650Y224917D02*
X226604Y224917D01*
X226515Y224915D01*
X226426Y224909D01*
X226337Y224899D01*
X226249Y224886D01*
X226161Y224869D01*
X226074Y224847D01*
X225989Y224822D01*
X225904Y224794D01*
X225821Y224761D01*
X225739Y224725D01*
X225659Y224686D01*
X225581Y224643D01*
X225505Y224597D01*
X225430Y224547D01*
X225358Y224494D01*
X225289Y224438D01*
X225222Y224379D01*
X225157Y224318D01*
X225096Y224253D01*
X225037Y224186D01*
X224981Y224117D01*
X224928Y224045D01*
X224878Y223970D01*
X224832Y223894D01*
X224789Y223816D01*
X224750Y223736D01*
X224714Y223654D01*
X224681Y223571D01*
X224653Y223486D01*
X224628Y223401D01*
X224606Y223314D01*
X224589Y223226D01*
X224576Y223138D01*
X224566Y223049D01*
X224560Y222960D01*
X224558Y222871D01*
X224560Y222782D01*
X224566Y222693D01*
X224576Y222604D01*
X224589Y222516D01*
X224606Y222428D01*
X224628Y222341D01*
X224653Y222256D01*
X224681Y222171D01*
X224714Y222088D01*
X224750Y222006D01*
X224789Y221926D01*
X224832Y221848D01*
X224878Y221772D01*
X224928Y221697D01*
X224981Y221625D01*
X225037Y221556D01*
X225096Y221489D01*
X225157Y221424D01*
X225222Y221363D01*
X225289Y221304D01*
X225358Y221248D01*
X225430Y221195D01*
X225505Y221145D01*
X225581Y221099D01*
X225659Y221056D01*
X225739Y221017D01*
X225821Y220981D01*
X225904Y220948D01*
X225989Y220920D01*
X226074Y220895D01*
X226161Y220873D01*
X226249Y220856D01*
X226337Y220843D01*
X226426Y220833D01*
X226515Y220827D01*
X226604Y220825D01*
X228650Y220825D01*
X221696Y217551D02*
X219650Y217551D01*
X219561Y217553D01*
X219472Y217559D01*
X219383Y217569D01*
X219295Y217582D01*
X219207Y217599D01*
X219120Y217621D01*
X219035Y217646D01*
X218950Y217674D01*
X218867Y217707D01*
X218785Y217743D01*
X218705Y217782D01*
X218627Y217825D01*
X218551Y217871D01*
X218476Y217921D01*
X218404Y217974D01*
X218335Y218030D01*
X218268Y218089D01*
X218203Y218150D01*
X218142Y218215D01*
X218083Y218282D01*
X218027Y218351D01*
X217974Y218423D01*
X217924Y218498D01*
X217878Y218574D01*
X217835Y218652D01*
X217796Y218732D01*
X217760Y218814D01*
X217727Y218897D01*
X217699Y218982D01*
X217674Y219067D01*
X217652Y219154D01*
X217635Y219242D01*
X217622Y219330D01*
X217612Y219419D01*
X217606Y219508D01*
X217604Y219597D01*
X217606Y219686D01*
X217612Y219775D01*
X217622Y219864D01*
X217635Y219952D01*
X217652Y220040D01*
X217674Y220127D01*
X217699Y220212D01*
X217727Y220297D01*
X217760Y220380D01*
X217796Y220462D01*
X217835Y220542D01*
X217878Y220620D01*
X217924Y220696D01*
X217974Y220771D01*
X218027Y220843D01*
X218083Y220912D01*
X218142Y220979D01*
X218203Y221044D01*
X218268Y221105D01*
X218335Y221164D01*
X218404Y221220D01*
X218476Y221273D01*
X218551Y221323D01*
X218627Y221369D01*
X218705Y221412D01*
X218785Y221451D01*
X218867Y221487D01*
X218950Y221520D01*
X219035Y221548D01*
X219120Y221573D01*
X219207Y221595D01*
X219295Y221612D01*
X219383Y221625D01*
X219472Y221635D01*
X219561Y221641D01*
X219650Y221643D01*
X219241Y224917D02*
X221696Y224917D01*
X219241Y224917D02*
X219162Y224915D01*
X219083Y224909D01*
X219004Y224900D01*
X218926Y224887D01*
X218849Y224869D01*
X218773Y224849D01*
X218698Y224824D01*
X218624Y224796D01*
X218551Y224765D01*
X218480Y224729D01*
X218411Y224691D01*
X218344Y224649D01*
X218279Y224604D01*
X218216Y224556D01*
X218155Y224505D01*
X218098Y224451D01*
X218042Y224395D01*
X217990Y224336D01*
X217940Y224274D01*
X217894Y224210D01*
X217850Y224144D01*
X217810Y224076D01*
X217774Y224006D01*
X217740Y223934D01*
X217710Y223860D01*
X217684Y223786D01*
X217661Y223710D01*
X217643Y223633D01*
X217627Y223556D01*
X217616Y223477D01*
X217608Y223399D01*
X217604Y223320D01*
X217604Y223240D01*
X217608Y223161D01*
X217616Y223083D01*
X217627Y223004D01*
X217643Y222927D01*
X217661Y222850D01*
X217684Y222774D01*
X217710Y222700D01*
X217740Y222626D01*
X217774Y222554D01*
X217810Y222484D01*
X217850Y222416D01*
X217894Y222350D01*
X217940Y222286D01*
X217990Y222224D01*
X218042Y222165D01*
X218098Y222109D01*
X218155Y222055D01*
X218216Y222004D01*
X218279Y221956D01*
X218344Y221911D01*
X218411Y221869D01*
X218480Y221831D01*
X218551Y221795D01*
X218624Y221764D01*
X218698Y221736D01*
X218773Y221711D01*
X218849Y221691D01*
X218926Y221673D01*
X219004Y221660D01*
X219083Y221651D01*
X219162Y221645D01*
X219241Y221643D01*
X220878Y221643D01*
X234823Y239970D02*
X242189Y239970D01*
X242189Y237924D02*
X242189Y242016D01*
X242189Y245113D02*
X234823Y245113D01*
X242189Y245113D02*
X242189Y247159D01*
X242187Y247248D01*
X242181Y247337D01*
X242171Y247426D01*
X242158Y247514D01*
X242141Y247602D01*
X242119Y247689D01*
X242094Y247774D01*
X242066Y247859D01*
X242033Y247942D01*
X241997Y248024D01*
X241958Y248104D01*
X241915Y248182D01*
X241869Y248258D01*
X241819Y248333D01*
X241766Y248405D01*
X241710Y248474D01*
X241651Y248541D01*
X241590Y248606D01*
X241525Y248667D01*
X241458Y248726D01*
X241389Y248782D01*
X241317Y248835D01*
X241242Y248885D01*
X241166Y248931D01*
X241088Y248974D01*
X241008Y249013D01*
X240926Y249049D01*
X240843Y249082D01*
X240758Y249110D01*
X240673Y249135D01*
X240586Y249157D01*
X240498Y249174D01*
X240410Y249187D01*
X240321Y249197D01*
X240232Y249203D01*
X240143Y249205D01*
X240054Y249203D01*
X239965Y249197D01*
X239876Y249187D01*
X239788Y249174D01*
X239700Y249157D01*
X239613Y249135D01*
X239528Y249110D01*
X239443Y249082D01*
X239360Y249049D01*
X239278Y249013D01*
X239198Y248974D01*
X239120Y248931D01*
X239044Y248885D01*
X238969Y248835D01*
X238897Y248782D01*
X238828Y248726D01*
X238761Y248667D01*
X238696Y248606D01*
X238635Y248541D01*
X238576Y248474D01*
X238520Y248405D01*
X238467Y248333D01*
X238417Y248258D01*
X238371Y248182D01*
X238328Y248104D01*
X238289Y248024D01*
X238253Y247942D01*
X238220Y247859D01*
X238192Y247774D01*
X238167Y247689D01*
X238145Y247602D01*
X238128Y247514D01*
X238115Y247426D01*
X238105Y247337D01*
X238099Y247248D01*
X238097Y247159D01*
X238097Y245113D01*
X236460Y252067D02*
X242189Y253704D01*
X236460Y252067D02*
X236460Y256159D01*
X238097Y254931D02*
X234823Y254931D01*
X236333Y273431D02*
X236333Y280797D01*
X238379Y280797D02*
X234287Y280797D01*
X231190Y280797D02*
X231190Y273431D01*
X231190Y280797D02*
X229144Y280797D01*
X229055Y280795D01*
X228966Y280789D01*
X228877Y280779D01*
X228789Y280766D01*
X228701Y280749D01*
X228614Y280727D01*
X228529Y280702D01*
X228444Y280674D01*
X228361Y280641D01*
X228279Y280605D01*
X228199Y280566D01*
X228121Y280523D01*
X228045Y280477D01*
X227970Y280427D01*
X227898Y280374D01*
X227829Y280318D01*
X227762Y280259D01*
X227697Y280198D01*
X227636Y280133D01*
X227577Y280066D01*
X227521Y279997D01*
X227468Y279925D01*
X227418Y279850D01*
X227372Y279774D01*
X227329Y279696D01*
X227290Y279616D01*
X227254Y279534D01*
X227221Y279451D01*
X227193Y279366D01*
X227168Y279281D01*
X227146Y279194D01*
X227129Y279106D01*
X227116Y279018D01*
X227106Y278929D01*
X227100Y278840D01*
X227098Y278751D01*
X227100Y278662D01*
X227106Y278573D01*
X227116Y278484D01*
X227129Y278396D01*
X227146Y278308D01*
X227168Y278221D01*
X227193Y278136D01*
X227221Y278051D01*
X227254Y277968D01*
X227290Y277886D01*
X227329Y277806D01*
X227372Y277728D01*
X227418Y277652D01*
X227468Y277577D01*
X227521Y277505D01*
X227577Y277436D01*
X227636Y277369D01*
X227697Y277304D01*
X227762Y277243D01*
X227829Y277184D01*
X227898Y277128D01*
X227970Y277075D01*
X228045Y277025D01*
X228121Y276979D01*
X228199Y276936D01*
X228279Y276897D01*
X228361Y276861D01*
X228444Y276828D01*
X228529Y276800D01*
X228614Y276775D01*
X228701Y276753D01*
X228789Y276736D01*
X228877Y276723D01*
X228966Y276713D01*
X229055Y276707D01*
X229144Y276705D01*
X231190Y276705D01*
X224236Y273431D02*
X221781Y273431D01*
X221701Y273433D01*
X221621Y273439D01*
X221541Y273449D01*
X221462Y273462D01*
X221383Y273480D01*
X221306Y273501D01*
X221230Y273527D01*
X221155Y273556D01*
X221081Y273588D01*
X221009Y273624D01*
X220939Y273664D01*
X220872Y273707D01*
X220806Y273753D01*
X220743Y273803D01*
X220682Y273855D01*
X220623Y273910D01*
X220568Y273969D01*
X220516Y274029D01*
X220466Y274093D01*
X220420Y274158D01*
X220377Y274226D01*
X220337Y274296D01*
X220301Y274368D01*
X220269Y274442D01*
X220240Y274516D01*
X220215Y274593D01*
X220193Y274670D01*
X220175Y274749D01*
X220162Y274828D01*
X220152Y274907D01*
X220146Y274988D01*
X220144Y275068D01*
X220144Y275886D01*
X220146Y275964D01*
X220151Y276042D01*
X220161Y276119D01*
X220174Y276196D01*
X220190Y276272D01*
X220210Y276347D01*
X220234Y276421D01*
X220261Y276494D01*
X220292Y276566D01*
X220326Y276636D01*
X220363Y276705D01*
X220404Y276771D01*
X220448Y276836D01*
X220494Y276898D01*
X220544Y276958D01*
X220596Y277016D01*
X220651Y277071D01*
X220709Y277123D01*
X220769Y277173D01*
X220831Y277219D01*
X220896Y277263D01*
X220963Y277304D01*
X221031Y277341D01*
X221101Y277375D01*
X221173Y277406D01*
X221246Y277433D01*
X221320Y277457D01*
X221395Y277477D01*
X221471Y277493D01*
X221548Y277506D01*
X221625Y277516D01*
X221703Y277521D01*
X221781Y277523D01*
X224236Y277523D01*
X224236Y280797D01*
X220144Y280797D01*
M02*
