G04 EAGLE Gerber RS-274X export*
G75*
%MOMM*%
%FSLAX34Y34*%
%LPD*%
%INSolderpaste Top*%
%IPPOS*%
%AMOC8*
5,1,8,0,0,1.08239X$1,22.5*%
G01*
%ADD10C,0.139700*%
%ADD11R,0.762000X0.762000*%
%ADD12C,0.190500*%
%ADD13R,1.058800X0.539100*%
%ADD14R,0.800000X0.800000*%
%ADD15R,0.600000X0.700000*%
%ADD16R,0.700000X0.600000*%
%ADD17R,0.700000X0.900000*%
%ADD18R,0.850000X0.950000*%
%ADD19R,0.600000X0.600000*%
%ADD20R,0.900000X0.700000*%
%ADD21R,1.000000X1.800000*%
%ADD22R,4.850000X4.850000*%
%ADD23C,0.200000*%
%ADD24R,0.635000X1.270000*%
%ADD25R,0.300000X1.270000*%
%ADD26R,2.911800X1.817700*%
%ADD27R,0.650000X1.250000*%
%ADD28R,1.250000X0.650000*%


D10*
X117312Y273531D02*
X111088Y273531D01*
X111088Y274929D01*
X117312Y274929D01*
X117312Y273531D01*
X117312Y274858D02*
X111088Y274858D01*
X111088Y268531D02*
X117312Y268531D01*
X111088Y268531D02*
X111088Y269929D01*
X117312Y269929D01*
X117312Y268531D01*
X117312Y269858D02*
X111088Y269858D01*
X111088Y263531D02*
X117312Y263531D01*
X111088Y263531D02*
X111088Y264929D01*
X117312Y264929D01*
X117312Y263531D01*
X117312Y264858D02*
X111088Y264858D01*
X111088Y258531D02*
X117312Y258531D01*
X111088Y258531D02*
X111088Y259929D01*
X117312Y259929D01*
X117312Y258531D01*
X117312Y259858D02*
X111088Y259858D01*
X111088Y253531D02*
X117312Y253531D01*
X111088Y253531D02*
X111088Y254929D01*
X117312Y254929D01*
X117312Y253531D01*
X117312Y254858D02*
X111088Y254858D01*
X111088Y248531D02*
X117312Y248531D01*
X111088Y248531D02*
X111088Y249929D01*
X117312Y249929D01*
X117312Y248531D01*
X117312Y249858D02*
X111088Y249858D01*
X111088Y243531D02*
X117312Y243531D01*
X111088Y243531D02*
X111088Y244929D01*
X117312Y244929D01*
X117312Y243531D01*
X117312Y244858D02*
X111088Y244858D01*
X111088Y238531D02*
X117312Y238531D01*
X111088Y238531D02*
X111088Y239929D01*
X117312Y239929D01*
X117312Y238531D01*
X117312Y239858D02*
X111088Y239858D01*
X122799Y234442D02*
X122799Y228218D01*
X121401Y228218D01*
X121401Y234442D01*
X122799Y234442D01*
X122799Y229545D02*
X121401Y229545D01*
X121401Y230872D02*
X122799Y230872D01*
X122799Y232199D02*
X121401Y232199D01*
X121401Y233526D02*
X122799Y233526D01*
X127799Y234442D02*
X127799Y228218D01*
X126401Y228218D01*
X126401Y234442D01*
X127799Y234442D01*
X127799Y229545D02*
X126401Y229545D01*
X126401Y230872D02*
X127799Y230872D01*
X127799Y232199D02*
X126401Y232199D01*
X126401Y233526D02*
X127799Y233526D01*
X132799Y234442D02*
X132799Y228218D01*
X131401Y228218D01*
X131401Y234442D01*
X132799Y234442D01*
X132799Y229545D02*
X131401Y229545D01*
X131401Y230872D02*
X132799Y230872D01*
X132799Y232199D02*
X131401Y232199D01*
X131401Y233526D02*
X132799Y233526D01*
X137799Y234442D02*
X137799Y228218D01*
X136401Y228218D01*
X136401Y234442D01*
X137799Y234442D01*
X137799Y229545D02*
X136401Y229545D01*
X136401Y230872D02*
X137799Y230872D01*
X137799Y232199D02*
X136401Y232199D01*
X136401Y233526D02*
X137799Y233526D01*
X142799Y234442D02*
X142799Y228218D01*
X141401Y228218D01*
X141401Y234442D01*
X142799Y234442D01*
X142799Y229545D02*
X141401Y229545D01*
X141401Y230872D02*
X142799Y230872D01*
X142799Y232199D02*
X141401Y232199D01*
X141401Y233526D02*
X142799Y233526D01*
X147799Y234442D02*
X147799Y228218D01*
X146401Y228218D01*
X146401Y234442D01*
X147799Y234442D01*
X147799Y229545D02*
X146401Y229545D01*
X146401Y230872D02*
X147799Y230872D01*
X147799Y232199D02*
X146401Y232199D01*
X146401Y233526D02*
X147799Y233526D01*
X152799Y234442D02*
X152799Y228218D01*
X151401Y228218D01*
X151401Y234442D01*
X152799Y234442D01*
X152799Y229545D02*
X151401Y229545D01*
X151401Y230872D02*
X152799Y230872D01*
X152799Y232199D02*
X151401Y232199D01*
X151401Y233526D02*
X152799Y233526D01*
X157799Y234442D02*
X157799Y228218D01*
X156401Y228218D01*
X156401Y234442D01*
X157799Y234442D01*
X157799Y229545D02*
X156401Y229545D01*
X156401Y230872D02*
X157799Y230872D01*
X157799Y232199D02*
X156401Y232199D01*
X156401Y233526D02*
X157799Y233526D01*
X161888Y239929D02*
X168112Y239929D01*
X168112Y238531D01*
X161888Y238531D01*
X161888Y239929D01*
X161888Y239858D02*
X168112Y239858D01*
X168112Y244929D02*
X161888Y244929D01*
X168112Y244929D02*
X168112Y243531D01*
X161888Y243531D01*
X161888Y244929D01*
X161888Y244858D02*
X168112Y244858D01*
X168112Y249929D02*
X161888Y249929D01*
X168112Y249929D02*
X168112Y248531D01*
X161888Y248531D01*
X161888Y249929D01*
X161888Y249858D02*
X168112Y249858D01*
X168112Y254929D02*
X161888Y254929D01*
X168112Y254929D02*
X168112Y253531D01*
X161888Y253531D01*
X161888Y254929D01*
X161888Y254858D02*
X168112Y254858D01*
X168112Y259929D02*
X161888Y259929D01*
X168112Y259929D02*
X168112Y258531D01*
X161888Y258531D01*
X161888Y259929D01*
X161888Y259858D02*
X168112Y259858D01*
X168112Y264929D02*
X161888Y264929D01*
X168112Y264929D02*
X168112Y263531D01*
X161888Y263531D01*
X161888Y264929D01*
X161888Y264858D02*
X168112Y264858D01*
X168112Y269929D02*
X161888Y269929D01*
X168112Y269929D02*
X168112Y268531D01*
X161888Y268531D01*
X161888Y269929D01*
X161888Y269858D02*
X168112Y269858D01*
X168112Y274929D02*
X161888Y274929D01*
X168112Y274929D02*
X168112Y273531D01*
X161888Y273531D01*
X161888Y274929D01*
X161888Y274858D02*
X168112Y274858D01*
X156401Y279018D02*
X156401Y285242D01*
X157799Y285242D01*
X157799Y279018D01*
X156401Y279018D01*
X156401Y280345D02*
X157799Y280345D01*
X157799Y281672D02*
X156401Y281672D01*
X156401Y282999D02*
X157799Y282999D01*
X157799Y284326D02*
X156401Y284326D01*
X151401Y285242D02*
X151401Y279018D01*
X151401Y285242D02*
X152799Y285242D01*
X152799Y279018D01*
X151401Y279018D01*
X151401Y280345D02*
X152799Y280345D01*
X152799Y281672D02*
X151401Y281672D01*
X151401Y282999D02*
X152799Y282999D01*
X152799Y284326D02*
X151401Y284326D01*
X146401Y285242D02*
X146401Y279018D01*
X146401Y285242D02*
X147799Y285242D01*
X147799Y279018D01*
X146401Y279018D01*
X146401Y280345D02*
X147799Y280345D01*
X147799Y281672D02*
X146401Y281672D01*
X146401Y282999D02*
X147799Y282999D01*
X147799Y284326D02*
X146401Y284326D01*
X141401Y285242D02*
X141401Y279018D01*
X141401Y285242D02*
X142799Y285242D01*
X142799Y279018D01*
X141401Y279018D01*
X141401Y280345D02*
X142799Y280345D01*
X142799Y281672D02*
X141401Y281672D01*
X141401Y282999D02*
X142799Y282999D01*
X142799Y284326D02*
X141401Y284326D01*
X136401Y285242D02*
X136401Y279018D01*
X136401Y285242D02*
X137799Y285242D01*
X137799Y279018D01*
X136401Y279018D01*
X136401Y280345D02*
X137799Y280345D01*
X137799Y281672D02*
X136401Y281672D01*
X136401Y282999D02*
X137799Y282999D01*
X137799Y284326D02*
X136401Y284326D01*
X131401Y285242D02*
X131401Y279018D01*
X131401Y285242D02*
X132799Y285242D01*
X132799Y279018D01*
X131401Y279018D01*
X131401Y280345D02*
X132799Y280345D01*
X132799Y281672D02*
X131401Y281672D01*
X131401Y282999D02*
X132799Y282999D01*
X132799Y284326D02*
X131401Y284326D01*
X126401Y285242D02*
X126401Y279018D01*
X126401Y285242D02*
X127799Y285242D01*
X127799Y279018D01*
X126401Y279018D01*
X126401Y280345D02*
X127799Y280345D01*
X127799Y281672D02*
X126401Y281672D01*
X126401Y282999D02*
X127799Y282999D01*
X127799Y284326D02*
X126401Y284326D01*
X121401Y285242D02*
X121401Y279018D01*
X121401Y285242D02*
X122799Y285242D01*
X122799Y279018D01*
X121401Y279018D01*
X121401Y280345D02*
X122799Y280345D01*
X122799Y281672D02*
X121401Y281672D01*
X121401Y282999D02*
X122799Y282999D01*
X122799Y284326D02*
X121401Y284326D01*
D11*
X139600Y256730D03*
X129440Y266890D03*
X149760Y266890D03*
X129440Y246570D03*
X149760Y246570D03*
D12*
X191452Y196533D02*
X197168Y196533D01*
X197168Y192087D01*
X191452Y192087D01*
X191452Y196533D01*
X191452Y193897D02*
X197168Y193897D01*
X197168Y195707D02*
X191452Y195707D01*
X191452Y209233D02*
X197168Y209233D01*
X197168Y204787D01*
X191452Y204787D01*
X191452Y209233D01*
X191452Y206597D02*
X197168Y206597D01*
X197168Y208407D02*
X191452Y208407D01*
X179388Y202883D02*
X173672Y202883D01*
X179388Y202883D02*
X179388Y198437D01*
X173672Y198437D01*
X173672Y202883D01*
X173672Y200247D02*
X179388Y200247D01*
X179388Y202057D02*
X173672Y202057D01*
D13*
X151827Y181610D03*
X175393Y181610D03*
X138643Y181610D03*
X115077Y181610D03*
D14*
X96400Y354330D03*
X81400Y354330D03*
X96400Y335280D03*
X81400Y335280D03*
X96400Y316230D03*
X81400Y316230D03*
D15*
X68500Y354330D03*
X58500Y354330D03*
X68500Y335280D03*
X58500Y335280D03*
X68500Y316230D03*
X58500Y316230D03*
D16*
X109220Y218360D03*
X109220Y208360D03*
X97790Y218360D03*
X97790Y208360D03*
X150910Y208360D03*
X150910Y218360D03*
X138290Y208360D03*
X138290Y218360D03*
X162560Y208360D03*
X162560Y218360D03*
D15*
X185500Y241300D03*
X195500Y241300D03*
X222170Y271780D03*
X212170Y271780D03*
D17*
X183180Y290540D03*
X196180Y290540D03*
X184000Y271780D03*
X197000Y271780D03*
X184000Y256540D03*
X197000Y256540D03*
X62080Y295020D03*
X75080Y295020D03*
X64620Y218440D03*
X77620Y218440D03*
D18*
X65370Y643520D03*
X65370Y629020D03*
X76870Y629020D03*
X76870Y643520D03*
D19*
X136250Y645270D03*
X136250Y656270D03*
D17*
X70000Y613410D03*
X57000Y613410D03*
X57000Y659130D03*
X70000Y659130D03*
X137250Y634000D03*
X124250Y634000D03*
X105560Y537210D03*
X92560Y537210D03*
D20*
X202692Y589180D03*
X202692Y576180D03*
D17*
X189330Y628650D03*
X202330Y628650D03*
X103990Y652780D03*
X116990Y652780D03*
X70000Y672290D03*
X57000Y672290D03*
X100480Y551180D03*
X87480Y551180D03*
X100480Y562610D03*
X87480Y562610D03*
D21*
X113230Y519430D03*
X138230Y519430D03*
D20*
X99060Y504040D03*
X99060Y517040D03*
X152400Y504040D03*
X152400Y517040D03*
D22*
X143250Y590000D03*
D23*
X143250Y562500D03*
X138250Y562500D03*
X133250Y562500D03*
X128250Y562500D03*
X123250Y562500D03*
X120750Y557500D03*
X130750Y557500D03*
X135750Y557500D03*
X140750Y557500D03*
X145750Y557500D03*
X148250Y562500D03*
X153250Y562500D03*
X150750Y557500D03*
X155750Y557500D03*
X160750Y557500D03*
X163250Y562500D03*
X168250Y562500D03*
X175750Y562500D03*
X175750Y567500D03*
X170750Y570000D03*
X175750Y572500D03*
X175750Y577500D03*
X175750Y582500D03*
X175750Y587500D03*
X175750Y592500D03*
X175750Y597500D03*
X175750Y602500D03*
X175750Y607500D03*
X175750Y612500D03*
X175750Y617500D03*
X170750Y610000D03*
X170750Y605000D03*
X170750Y600000D03*
X170750Y595000D03*
X170750Y590000D03*
X170750Y585000D03*
X170750Y580000D03*
X163250Y617500D03*
X165750Y622500D03*
X170750Y622500D03*
X160750Y622500D03*
X158250Y617500D03*
X155750Y622500D03*
X153250Y617500D03*
X148250Y617500D03*
X150750Y622500D03*
X145750Y622500D03*
X140750Y622500D03*
X135750Y622500D03*
X133250Y617500D03*
X128250Y617500D03*
X125750Y622500D03*
X123250Y617500D03*
X115750Y622500D03*
X115750Y557500D03*
X115750Y570000D03*
X115750Y575000D03*
X115750Y580000D03*
X110750Y582500D03*
X115750Y585000D03*
X110750Y587500D03*
X115750Y590000D03*
X110750Y592500D03*
X115750Y595000D03*
X110750Y597500D03*
X115750Y600000D03*
X110750Y602500D03*
X115750Y605000D03*
X110750Y607500D03*
X110750Y612500D03*
X110750Y617500D03*
X115750Y565000D03*
X110750Y577500D03*
D20*
X164600Y649850D03*
X164600Y662850D03*
D17*
X137310Y666750D03*
X124310Y666750D03*
X137250Y697000D03*
X124250Y697000D03*
X103274Y615950D03*
X90274Y615950D03*
X73810Y599440D03*
X60810Y599440D03*
X189080Y518160D03*
X202080Y518160D03*
X189080Y530860D03*
X202080Y530860D03*
X189080Y542798D03*
X202080Y542798D03*
D24*
X122350Y81350D03*
D25*
X143850Y81350D03*
X148850Y81350D03*
X153850Y81350D03*
X158850Y81350D03*
X163850Y81350D03*
X138850Y81350D03*
X133850Y81350D03*
X128850Y81350D03*
D24*
X170350Y81350D03*
X114350Y81350D03*
X178350Y81350D03*
D26*
X71120Y234968D03*
X71120Y278492D03*
D27*
X64300Y141700D03*
X85700Y141700D03*
X64300Y98300D03*
X85800Y98300D03*
D28*
X112300Y103900D03*
X112300Y125300D03*
X155700Y103900D03*
X155700Y125400D03*
D27*
X217180Y97060D03*
X195780Y97060D03*
X217180Y140460D03*
X195680Y140460D03*
M02*
