G04 EAGLE Gerber RS-274X export*
G75*
%MOMM*%
%FSLAX34Y34*%
%LPD*%
%INSolderpaste Bottom*%
%IPPOS*%
%AMOC8*
5,1,8,0,0,1.08239X$1,22.5*%
G01*
%ADD10R,1.000000X1.100000*%
%ADD11R,1.400000X1.000000*%
%ADD12R,0.600000X0.700000*%
%ADD13R,0.700000X0.900000*%
%ADD14R,1.100000X1.000000*%
%ADD15R,2.700000X1.600000*%
%ADD16R,0.550000X1.200000*%
%ADD17R,0.800000X0.400000*%
%ADD18C,0.012000*%
%ADD19R,0.700000X1.600000*%
%ADD20R,1.200000X1.500000*%
%ADD21R,1.600000X1.500000*%
%ADD22R,1.200000X2.200000*%
%ADD23C,0.800000*%


D10*
X138090Y243740D03*
X138090Y226740D03*
D11*
X152090Y265240D03*
X174090Y255740D03*
X174090Y274740D03*
X152090Y210240D03*
X174090Y200740D03*
X174090Y219740D03*
D12*
X195660Y279400D03*
X205660Y279400D03*
X193370Y220980D03*
X203370Y220980D03*
X193370Y200660D03*
X203370Y200660D03*
X205660Y243840D03*
X195660Y243840D03*
X87550Y201930D03*
X77550Y201930D03*
D13*
X89050Y189230D03*
X76050Y189230D03*
D12*
X87550Y214630D03*
X77550Y214630D03*
X195660Y261620D03*
X205660Y261620D03*
D14*
X82940Y400050D03*
X99940Y400050D03*
D15*
X165100Y445800D03*
X165100Y417800D03*
D16*
X95860Y425149D03*
X86360Y425149D03*
X76860Y425149D03*
X76860Y451151D03*
X95860Y451151D03*
D15*
X127000Y445800D03*
X127000Y417800D03*
D12*
X161370Y354330D03*
X171370Y354330D03*
X87710Y337820D03*
X97710Y337820D03*
X97710Y325120D03*
X87710Y325120D03*
D13*
X159870Y317500D03*
X172870Y317500D03*
D12*
X171370Y340360D03*
X161370Y340360D03*
X161370Y328930D03*
X171370Y328930D03*
X87710Y350520D03*
X97710Y350520D03*
D17*
X135000Y364640D03*
X135000Y358140D03*
X135000Y351640D03*
X119000Y351640D03*
X119000Y358140D03*
X119000Y364640D03*
X135000Y301140D03*
X135000Y294640D03*
X135000Y288140D03*
X119000Y288140D03*
X119000Y294640D03*
X119000Y301140D03*
D18*
X133060Y320490D02*
X141940Y320490D01*
X133060Y320490D02*
X133060Y324370D01*
X141940Y324370D01*
X141940Y320490D01*
X141940Y320604D02*
X133060Y320604D01*
X133060Y320718D02*
X141940Y320718D01*
X141940Y320832D02*
X133060Y320832D01*
X133060Y320946D02*
X141940Y320946D01*
X141940Y321060D02*
X133060Y321060D01*
X133060Y321174D02*
X141940Y321174D01*
X141940Y321288D02*
X133060Y321288D01*
X133060Y321402D02*
X141940Y321402D01*
X141940Y321516D02*
X133060Y321516D01*
X133060Y321630D02*
X141940Y321630D01*
X141940Y321744D02*
X133060Y321744D01*
X133060Y321858D02*
X141940Y321858D01*
X141940Y321972D02*
X133060Y321972D01*
X133060Y322086D02*
X141940Y322086D01*
X141940Y322200D02*
X133060Y322200D01*
X133060Y322314D02*
X141940Y322314D01*
X141940Y322428D02*
X133060Y322428D01*
X133060Y322542D02*
X141940Y322542D01*
X141940Y322656D02*
X133060Y322656D01*
X133060Y322770D02*
X141940Y322770D01*
X141940Y322884D02*
X133060Y322884D01*
X133060Y322998D02*
X141940Y322998D01*
X141940Y323112D02*
X133060Y323112D01*
X133060Y323226D02*
X141940Y323226D01*
X141940Y323340D02*
X133060Y323340D01*
X133060Y323454D02*
X141940Y323454D01*
X141940Y323568D02*
X133060Y323568D01*
X133060Y323682D02*
X141940Y323682D01*
X141940Y323796D02*
X133060Y323796D01*
X133060Y323910D02*
X141940Y323910D01*
X141940Y324024D02*
X133060Y324024D01*
X133060Y324138D02*
X141940Y324138D01*
X141940Y324252D02*
X133060Y324252D01*
X133060Y324366D02*
X141940Y324366D01*
X120940Y333490D02*
X112060Y333490D01*
X112060Y337370D01*
X120940Y337370D01*
X120940Y333490D01*
X120940Y333604D02*
X112060Y333604D01*
X112060Y333718D02*
X120940Y333718D01*
X120940Y333832D02*
X112060Y333832D01*
X112060Y333946D02*
X120940Y333946D01*
X120940Y334060D02*
X112060Y334060D01*
X112060Y334174D02*
X120940Y334174D01*
X120940Y334288D02*
X112060Y334288D01*
X112060Y334402D02*
X120940Y334402D01*
X120940Y334516D02*
X112060Y334516D01*
X112060Y334630D02*
X120940Y334630D01*
X120940Y334744D02*
X112060Y334744D01*
X112060Y334858D02*
X120940Y334858D01*
X120940Y334972D02*
X112060Y334972D01*
X112060Y335086D02*
X120940Y335086D01*
X120940Y335200D02*
X112060Y335200D01*
X112060Y335314D02*
X120940Y335314D01*
X120940Y335428D02*
X112060Y335428D01*
X112060Y335542D02*
X120940Y335542D01*
X120940Y335656D02*
X112060Y335656D01*
X112060Y335770D02*
X120940Y335770D01*
X120940Y335884D02*
X112060Y335884D01*
X112060Y335998D02*
X120940Y335998D01*
X120940Y336112D02*
X112060Y336112D01*
X112060Y336226D02*
X120940Y336226D01*
X120940Y336340D02*
X112060Y336340D01*
X112060Y336454D02*
X120940Y336454D01*
X120940Y336568D02*
X112060Y336568D01*
X112060Y336682D02*
X120940Y336682D01*
X120940Y336796D02*
X112060Y336796D01*
X112060Y336910D02*
X120940Y336910D01*
X120940Y337024D02*
X112060Y337024D01*
X112060Y337138D02*
X120940Y337138D01*
X120940Y337252D02*
X112060Y337252D01*
X112060Y337366D02*
X120940Y337366D01*
X120940Y326990D02*
X112060Y326990D01*
X112060Y330870D01*
X120940Y330870D01*
X120940Y326990D01*
X120940Y327104D02*
X112060Y327104D01*
X112060Y327218D02*
X120940Y327218D01*
X120940Y327332D02*
X112060Y327332D01*
X112060Y327446D02*
X120940Y327446D01*
X120940Y327560D02*
X112060Y327560D01*
X112060Y327674D02*
X120940Y327674D01*
X120940Y327788D02*
X112060Y327788D01*
X112060Y327902D02*
X120940Y327902D01*
X120940Y328016D02*
X112060Y328016D01*
X112060Y328130D02*
X120940Y328130D01*
X120940Y328244D02*
X112060Y328244D01*
X112060Y328358D02*
X120940Y328358D01*
X120940Y328472D02*
X112060Y328472D01*
X112060Y328586D02*
X120940Y328586D01*
X120940Y328700D02*
X112060Y328700D01*
X112060Y328814D02*
X120940Y328814D01*
X120940Y328928D02*
X112060Y328928D01*
X112060Y329042D02*
X120940Y329042D01*
X120940Y329156D02*
X112060Y329156D01*
X112060Y329270D02*
X120940Y329270D01*
X120940Y329384D02*
X112060Y329384D01*
X112060Y329498D02*
X120940Y329498D01*
X120940Y329612D02*
X112060Y329612D01*
X112060Y329726D02*
X120940Y329726D01*
X120940Y329840D02*
X112060Y329840D01*
X112060Y329954D02*
X120940Y329954D01*
X120940Y330068D02*
X112060Y330068D01*
X112060Y330182D02*
X120940Y330182D01*
X120940Y330296D02*
X112060Y330296D01*
X112060Y330410D02*
X120940Y330410D01*
X120940Y330524D02*
X112060Y330524D01*
X112060Y330638D02*
X120940Y330638D01*
X120940Y330752D02*
X112060Y330752D01*
X112060Y330866D02*
X120940Y330866D01*
X133060Y326990D02*
X141940Y326990D01*
X133060Y326990D02*
X133060Y330870D01*
X141940Y330870D01*
X141940Y326990D01*
X141940Y327104D02*
X133060Y327104D01*
X133060Y327218D02*
X141940Y327218D01*
X141940Y327332D02*
X133060Y327332D01*
X133060Y327446D02*
X141940Y327446D01*
X141940Y327560D02*
X133060Y327560D01*
X133060Y327674D02*
X141940Y327674D01*
X141940Y327788D02*
X133060Y327788D01*
X133060Y327902D02*
X141940Y327902D01*
X141940Y328016D02*
X133060Y328016D01*
X133060Y328130D02*
X141940Y328130D01*
X141940Y328244D02*
X133060Y328244D01*
X133060Y328358D02*
X141940Y328358D01*
X141940Y328472D02*
X133060Y328472D01*
X133060Y328586D02*
X141940Y328586D01*
X141940Y328700D02*
X133060Y328700D01*
X133060Y328814D02*
X141940Y328814D01*
X141940Y328928D02*
X133060Y328928D01*
X133060Y329042D02*
X141940Y329042D01*
X141940Y329156D02*
X133060Y329156D01*
X133060Y329270D02*
X141940Y329270D01*
X141940Y329384D02*
X133060Y329384D01*
X133060Y329498D02*
X141940Y329498D01*
X141940Y329612D02*
X133060Y329612D01*
X133060Y329726D02*
X141940Y329726D01*
X141940Y329840D02*
X133060Y329840D01*
X133060Y329954D02*
X141940Y329954D01*
X141940Y330068D02*
X133060Y330068D01*
X133060Y330182D02*
X141940Y330182D01*
X141940Y330296D02*
X133060Y330296D01*
X133060Y330410D02*
X141940Y330410D01*
X141940Y330524D02*
X133060Y330524D01*
X133060Y330638D02*
X141940Y330638D01*
X141940Y330752D02*
X133060Y330752D01*
X133060Y330866D02*
X141940Y330866D01*
X120940Y320490D02*
X112060Y320490D01*
X112060Y324370D01*
X120940Y324370D01*
X120940Y320490D01*
X120940Y320604D02*
X112060Y320604D01*
X112060Y320718D02*
X120940Y320718D01*
X120940Y320832D02*
X112060Y320832D01*
X112060Y320946D02*
X120940Y320946D01*
X120940Y321060D02*
X112060Y321060D01*
X112060Y321174D02*
X120940Y321174D01*
X120940Y321288D02*
X112060Y321288D01*
X112060Y321402D02*
X120940Y321402D01*
X120940Y321516D02*
X112060Y321516D01*
X112060Y321630D02*
X120940Y321630D01*
X120940Y321744D02*
X112060Y321744D01*
X112060Y321858D02*
X120940Y321858D01*
X120940Y321972D02*
X112060Y321972D01*
X112060Y322086D02*
X120940Y322086D01*
X120940Y322200D02*
X112060Y322200D01*
X112060Y322314D02*
X120940Y322314D01*
X120940Y322428D02*
X112060Y322428D01*
X112060Y322542D02*
X120940Y322542D01*
X120940Y322656D02*
X112060Y322656D01*
X112060Y322770D02*
X120940Y322770D01*
X120940Y322884D02*
X112060Y322884D01*
X112060Y322998D02*
X120940Y322998D01*
X120940Y323112D02*
X112060Y323112D01*
X112060Y323226D02*
X120940Y323226D01*
X120940Y323340D02*
X112060Y323340D01*
X112060Y323454D02*
X120940Y323454D01*
X120940Y323568D02*
X112060Y323568D01*
X112060Y323682D02*
X120940Y323682D01*
X120940Y323796D02*
X112060Y323796D01*
X112060Y323910D02*
X120940Y323910D01*
X120940Y324024D02*
X112060Y324024D01*
X112060Y324138D02*
X120940Y324138D01*
X120940Y324252D02*
X112060Y324252D01*
X112060Y324366D02*
X120940Y324366D01*
X133060Y333490D02*
X141940Y333490D01*
X133060Y333490D02*
X133060Y337370D01*
X141940Y337370D01*
X141940Y333490D01*
X141940Y333604D02*
X133060Y333604D01*
X133060Y333718D02*
X141940Y333718D01*
X141940Y333832D02*
X133060Y333832D01*
X133060Y333946D02*
X141940Y333946D01*
X141940Y334060D02*
X133060Y334060D01*
X133060Y334174D02*
X141940Y334174D01*
X141940Y334288D02*
X133060Y334288D01*
X133060Y334402D02*
X141940Y334402D01*
X141940Y334516D02*
X133060Y334516D01*
X133060Y334630D02*
X141940Y334630D01*
X141940Y334744D02*
X133060Y334744D01*
X133060Y334858D02*
X141940Y334858D01*
X141940Y334972D02*
X133060Y334972D01*
X133060Y335086D02*
X141940Y335086D01*
X141940Y335200D02*
X133060Y335200D01*
X133060Y335314D02*
X141940Y335314D01*
X141940Y335428D02*
X133060Y335428D01*
X133060Y335542D02*
X141940Y335542D01*
X141940Y335656D02*
X133060Y335656D01*
X133060Y335770D02*
X141940Y335770D01*
X141940Y335884D02*
X133060Y335884D01*
X133060Y335998D02*
X141940Y335998D01*
X141940Y336112D02*
X133060Y336112D01*
X133060Y336226D02*
X141940Y336226D01*
X141940Y336340D02*
X133060Y336340D01*
X133060Y336454D02*
X141940Y336454D01*
X141940Y336568D02*
X133060Y336568D01*
X133060Y336682D02*
X141940Y336682D01*
X141940Y336796D02*
X133060Y336796D01*
X133060Y336910D02*
X141940Y336910D01*
X141940Y337024D02*
X133060Y337024D01*
X133060Y337138D02*
X141940Y337138D01*
X141940Y337252D02*
X133060Y337252D01*
X133060Y337366D02*
X141940Y337366D01*
D19*
X158050Y152500D03*
X169050Y152500D03*
X180050Y152500D03*
X191050Y152500D03*
X202050Y152500D03*
X147050Y152500D03*
X136050Y152500D03*
X125050Y152500D03*
X114050Y152500D03*
D20*
X214050Y147000D03*
D21*
X68050Y147000D03*
D22*
X214050Y56500D03*
X59050Y51000D03*
D23*
X228600Y234950D03*
X228600Y250190D03*
X228600Y262890D03*
M02*
