G04 EAGLE Gerber RS-274X export*
G75*
%MOMM*%
%FSLAX34Y34*%
%LPD*%
%INSoldermask Bottom*%
%IPPOS*%
%AMOC8*
5,1,8,0,0,1.08239X$1,22.5*%
G01*
%ADD10C,3.203200*%
%ADD11R,1.203200X1.303200*%
%ADD12R,1.603200X1.203200*%
%ADD13R,0.803200X0.903200*%
%ADD14R,0.903200X1.103200*%
%ADD15R,1.303200X1.203200*%
%ADD16R,2.903200X1.803200*%
%ADD17R,0.753200X1.403200*%
%ADD18C,1.727200*%
%ADD19C,1.561200*%
%ADD20C,1.311200*%
%ADD21C,0.853200*%
%ADD22R,1.003200X0.603200*%
%ADD23C,0.217150*%
%ADD24R,0.903200X1.803200*%
%ADD25R,1.403200X1.703200*%
%ADD26R,1.803200X1.703200*%
%ADD27R,1.403200X2.403200*%
%ADD28C,1.203200*%
%ADD29C,1.511200*%
%ADD30C,1.003200*%
%ADD31C,0.959600*%
%ADD32C,0.909600*%


D10*
X260000Y755000D03*
X20000Y755000D03*
X260000Y20000D03*
X20000Y20000D03*
D11*
X138090Y243740D03*
X138090Y226740D03*
D12*
X152090Y265240D03*
X174090Y255740D03*
X174090Y274740D03*
X152090Y210240D03*
X174090Y200740D03*
X174090Y219740D03*
D13*
X195660Y279400D03*
X205660Y279400D03*
X193370Y220980D03*
X203370Y220980D03*
X193370Y200660D03*
X203370Y200660D03*
X205660Y243840D03*
X195660Y243840D03*
X87550Y201930D03*
X77550Y201930D03*
D14*
X89050Y189230D03*
X76050Y189230D03*
D13*
X87550Y214630D03*
X77550Y214630D03*
X195660Y261620D03*
X205660Y261620D03*
D15*
X82940Y400050D03*
X99940Y400050D03*
D16*
X165100Y445800D03*
X165100Y417800D03*
D17*
X95860Y425149D03*
X86360Y425149D03*
X76860Y425149D03*
X76860Y451151D03*
X95860Y451151D03*
D16*
X127000Y445800D03*
X127000Y417800D03*
D18*
X246930Y702100D02*
X262170Y702100D01*
X262170Y676700D02*
X246930Y676700D01*
X246930Y651300D02*
X262170Y651300D01*
X262170Y625900D02*
X246930Y625900D01*
X246930Y600500D02*
X262170Y600500D01*
X262170Y575100D02*
X246930Y575100D01*
X246930Y549700D02*
X262170Y549700D01*
X262170Y524300D02*
X246930Y524300D01*
X246930Y498900D02*
X262170Y498900D01*
X262170Y473500D02*
X246930Y473500D01*
X246930Y448100D02*
X262170Y448100D01*
X262170Y422700D02*
X246930Y422700D01*
X246930Y397300D02*
X262170Y397300D01*
X262170Y371900D02*
X246930Y371900D01*
X246930Y346500D02*
X262170Y346500D01*
X262170Y321100D02*
X246930Y321100D01*
X246930Y295700D02*
X262170Y295700D01*
X262170Y270300D02*
X246930Y270300D01*
X246930Y244900D02*
X262170Y244900D01*
X262170Y219500D02*
X246930Y219500D01*
X246930Y194100D02*
X262170Y194100D01*
X262170Y168700D02*
X246930Y168700D01*
X246930Y143300D02*
X262170Y143300D01*
X262170Y117900D02*
X246930Y117900D01*
X246930Y92500D02*
X262170Y92500D01*
X262170Y67100D02*
X246930Y67100D01*
X33570Y702100D02*
X18330Y702100D01*
X18330Y676700D02*
X33570Y676700D01*
X33570Y651300D02*
X18330Y651300D01*
X18330Y625900D02*
X33570Y625900D01*
X33570Y600500D02*
X18330Y600500D01*
X18330Y575100D02*
X33570Y575100D01*
X33570Y549700D02*
X18330Y549700D01*
X18330Y524300D02*
X33570Y524300D01*
X33570Y498900D02*
X18330Y498900D01*
X18330Y473500D02*
X33570Y473500D01*
X33570Y448100D02*
X18330Y448100D01*
X18330Y422700D02*
X33570Y422700D01*
X33570Y397300D02*
X18330Y397300D01*
X18330Y371900D02*
X33570Y371900D01*
X33570Y346500D02*
X18330Y346500D01*
X18330Y321100D02*
X33570Y321100D01*
X33570Y295700D02*
X18330Y295700D01*
X18330Y270300D02*
X33570Y270300D01*
X33570Y244900D02*
X18330Y244900D01*
X18330Y219500D02*
X33570Y219500D01*
X33570Y194100D02*
X18330Y194100D01*
X18330Y168700D02*
X33570Y168700D01*
X33570Y143300D02*
X18330Y143300D01*
X18330Y117900D02*
X33570Y117900D01*
X33570Y92500D02*
X18330Y92500D01*
X18330Y67100D02*
X33570Y67100D01*
D19*
X189550Y61860D02*
X189550Y75440D01*
X103150Y75440D02*
X103150Y61860D01*
D20*
X189550Y32390D02*
X189550Y21310D01*
X103150Y21310D02*
X103150Y32390D01*
D21*
X117450Y63650D03*
X175250Y63650D03*
D13*
X161370Y354330D03*
X171370Y354330D03*
X87710Y337820D03*
X97710Y337820D03*
X97710Y325120D03*
X87710Y325120D03*
D14*
X159870Y317500D03*
X172870Y317500D03*
D13*
X171370Y340360D03*
X161370Y340360D03*
X161370Y328930D03*
X171370Y328930D03*
X87710Y350520D03*
X97710Y350520D03*
D22*
X135000Y364640D03*
X135000Y358140D03*
X135000Y351640D03*
X119000Y351640D03*
X119000Y358140D03*
X119000Y364640D03*
X135000Y301140D03*
X135000Y294640D03*
X135000Y288140D03*
X119000Y288140D03*
X119000Y294640D03*
X119000Y301140D03*
D18*
X208280Y381000D02*
X223520Y381000D01*
X223520Y355600D02*
X208280Y355600D01*
X208280Y330200D02*
X223520Y330200D01*
X223520Y304800D02*
X208280Y304800D01*
D23*
X141930Y320500D02*
X133070Y320500D01*
X133070Y324360D01*
X141930Y324360D01*
X141930Y320500D01*
X141930Y322563D02*
X133070Y322563D01*
X120930Y333500D02*
X112070Y333500D01*
X112070Y337360D01*
X120930Y337360D01*
X120930Y333500D01*
X120930Y335563D02*
X112070Y335563D01*
X112070Y327000D02*
X120930Y327000D01*
X112070Y327000D02*
X112070Y330860D01*
X120930Y330860D01*
X120930Y327000D01*
X120930Y329063D02*
X112070Y329063D01*
X133070Y327000D02*
X141930Y327000D01*
X133070Y327000D02*
X133070Y330860D01*
X141930Y330860D01*
X141930Y327000D01*
X141930Y329063D02*
X133070Y329063D01*
X120930Y320500D02*
X112070Y320500D01*
X112070Y324360D01*
X120930Y324360D01*
X120930Y320500D01*
X120930Y322563D02*
X112070Y322563D01*
X133070Y333500D02*
X141930Y333500D01*
X133070Y333500D02*
X133070Y337360D01*
X141930Y337360D01*
X141930Y333500D01*
X141930Y335563D02*
X133070Y335563D01*
D24*
X158050Y152500D03*
X169050Y152500D03*
X180050Y152500D03*
X191050Y152500D03*
X202050Y152500D03*
X147050Y152500D03*
X136050Y152500D03*
X125050Y152500D03*
X114050Y152500D03*
D25*
X214050Y147000D03*
D26*
X68050Y147000D03*
D27*
X214050Y56500D03*
D28*
X186050Y47000D03*
X106050Y47000D03*
D27*
X59050Y51000D03*
D29*
X231140Y665480D03*
X231140Y684530D03*
D30*
X228600Y234950D03*
X228600Y250190D03*
X228600Y262890D03*
D31*
X48260Y705000D03*
X86360Y705000D03*
X99060Y705080D03*
X180340Y705000D03*
X193040Y705000D03*
X205740Y705000D03*
X231140Y705000D03*
X183250Y662540D03*
X73660Y705000D03*
X60960Y705000D03*
X218440Y705000D03*
X227330Y71120D03*
X52070Y71120D03*
X167640Y382270D03*
X113030Y314960D03*
X69850Y182880D03*
X240792Y232156D03*
X214630Y160020D03*
X152400Y167640D03*
X173990Y317500D03*
X173990Y345440D03*
X109728Y551688D03*
X48260Y604238D03*
X107950Y571754D03*
X95532Y577850D03*
X73660Y579120D03*
X73660Y374650D03*
X48260Y554990D03*
X47968Y566712D03*
X61189Y584327D03*
X48260Y579120D03*
X48260Y591820D03*
X91440Y606084D03*
X124460Y401896D03*
X147320Y539750D03*
X78674Y533400D03*
X78740Y519430D03*
X154714Y532064D03*
X114300Y114300D03*
X154940Y114300D03*
X104140Y168628D03*
X198120Y167640D03*
X186944Y617220D03*
X196088Y617220D03*
X205232Y617220D03*
X231140Y411480D03*
X205232Y604012D03*
X198120Y177800D03*
X231140Y289560D03*
X209069Y407189D03*
X55880Y185420D03*
X188259Y586785D03*
X73812Y365562D03*
X78740Y502920D03*
X215900Y217170D03*
X210820Y129540D03*
X197131Y454633D03*
X167640Y401320D03*
D32*
X180340Y550926D03*
D31*
X66040Y193548D03*
X182880Y101600D03*
X99060Y99060D03*
X196568Y464820D03*
X95250Y278130D03*
X119380Y459740D03*
X188250Y505000D03*
X102494Y617446D03*
X78674Y545818D03*
X210820Y185420D03*
X178006Y619314D03*
X204772Y660400D03*
X213966Y284434D03*
X107140Y345784D03*
X119380Y487680D03*
X193040Y494030D03*
X119380Y477520D03*
X196850Y481330D03*
X125682Y344514D03*
X210820Y193802D03*
X233680Y273812D03*
X198240Y421197D03*
X200660Y317500D03*
X138176Y470408D03*
X231140Y458794D03*
X104140Y271780D03*
X173990Y302260D03*
X101600Y294640D03*
X104140Y233680D03*
X93980Y299720D03*
X120734Y218440D03*
X215900Y259080D03*
X215900Y246380D03*
X215900Y233680D03*
X164112Y284904D03*
X161714Y302034D03*
X127282Y93006D03*
X158552Y93980D03*
X88900Y364490D03*
X107763Y355120D03*
X171450Y363502D03*
X125912Y307732D03*
X78740Y325536D03*
X144780Y68580D03*
X170180Y101600D03*
M02*
