G04 EAGLE Gerber RS-274X export*
G75*
%MOMM*%
%FSLAX34Y34*%
%LPD*%
%INSoldermask Top*%
%IPPOS*%
%AMOC8*
5,1,8,0,0,1.08239X$1,22.5*%
G01*
%ADD10C,3.203200*%
%ADD11C,0.342644*%
%ADD12C,0.544828*%
%ADD13C,0.393953*%
%ADD14R,1.262000X0.742300*%
%ADD15R,1.003200X1.003200*%
%ADD16R,0.803200X0.903200*%
%ADD17R,0.903200X0.803200*%
%ADD18R,0.903200X1.103200*%
%ADD19C,1.727200*%
%ADD20R,1.053200X1.153200*%
%ADD21R,0.803200X0.803200*%
%ADD22R,1.103200X0.903200*%
%ADD23R,1.203200X2.003200*%
%ADD24R,5.053200X5.053200*%
%ADD25C,0.403200*%
%ADD26R,0.838200X1.473200*%
%ADD27R,0.503200X1.473200*%
%ADD28C,1.561200*%
%ADD29C,1.311200*%
%ADD30C,0.853200*%
%ADD31R,3.115000X2.020900*%
%ADD32R,0.853200X1.453200*%
%ADD33R,1.453200X0.853200*%
%ADD34C,1.203200*%
%ADD35C,1.511200*%
%ADD36C,0.909600*%
%ADD37C,0.959600*%
%ADD38C,0.556400*%


D10*
X260000Y755000D03*
X20000Y755000D03*
X260000Y20000D03*
X20000Y20000D03*
D11*
X111087Y273530D02*
X117313Y273530D01*
X111087Y273530D02*
X111087Y274930D01*
X117313Y274930D01*
X117313Y273530D01*
X117313Y268530D02*
X111087Y268530D01*
X111087Y269930D01*
X117313Y269930D01*
X117313Y268530D01*
X117313Y263530D02*
X111087Y263530D01*
X111087Y264930D01*
X117313Y264930D01*
X117313Y263530D01*
X117313Y258530D02*
X111087Y258530D01*
X111087Y259930D01*
X117313Y259930D01*
X117313Y258530D01*
X117313Y253530D02*
X111087Y253530D01*
X111087Y254930D01*
X117313Y254930D01*
X117313Y253530D01*
X117313Y248530D02*
X111087Y248530D01*
X111087Y249930D01*
X117313Y249930D01*
X117313Y248530D01*
X117313Y243530D02*
X111087Y243530D01*
X111087Y244930D01*
X117313Y244930D01*
X117313Y243530D01*
X117313Y238530D02*
X111087Y238530D01*
X111087Y239930D01*
X117313Y239930D01*
X117313Y238530D01*
X122800Y234443D02*
X122800Y228217D01*
X121400Y228217D01*
X121400Y234443D01*
X122800Y234443D01*
X122800Y231472D02*
X121400Y231472D01*
X127800Y234443D02*
X127800Y228217D01*
X126400Y228217D01*
X126400Y234443D01*
X127800Y234443D01*
X127800Y231472D02*
X126400Y231472D01*
X132800Y234443D02*
X132800Y228217D01*
X131400Y228217D01*
X131400Y234443D01*
X132800Y234443D01*
X132800Y231472D02*
X131400Y231472D01*
X137800Y234443D02*
X137800Y228217D01*
X136400Y228217D01*
X136400Y234443D01*
X137800Y234443D01*
X137800Y231472D02*
X136400Y231472D01*
X142800Y234443D02*
X142800Y228217D01*
X141400Y228217D01*
X141400Y234443D01*
X142800Y234443D01*
X142800Y231472D02*
X141400Y231472D01*
X147800Y234443D02*
X147800Y228217D01*
X146400Y228217D01*
X146400Y234443D01*
X147800Y234443D01*
X147800Y231472D02*
X146400Y231472D01*
X152800Y234443D02*
X152800Y228217D01*
X151400Y228217D01*
X151400Y234443D01*
X152800Y234443D01*
X152800Y231472D02*
X151400Y231472D01*
X157800Y234443D02*
X157800Y228217D01*
X156400Y228217D01*
X156400Y234443D01*
X157800Y234443D01*
X157800Y231472D02*
X156400Y231472D01*
X161887Y239930D02*
X168113Y239930D01*
X168113Y238530D01*
X161887Y238530D01*
X161887Y239930D01*
X161887Y244930D02*
X168113Y244930D01*
X168113Y243530D01*
X161887Y243530D01*
X161887Y244930D01*
X161887Y249930D02*
X168113Y249930D01*
X168113Y248530D01*
X161887Y248530D01*
X161887Y249930D01*
X161887Y254930D02*
X168113Y254930D01*
X168113Y253530D01*
X161887Y253530D01*
X161887Y254930D01*
X161887Y259930D02*
X168113Y259930D01*
X168113Y258530D01*
X161887Y258530D01*
X161887Y259930D01*
X161887Y264930D02*
X168113Y264930D01*
X168113Y263530D01*
X161887Y263530D01*
X161887Y264930D01*
X161887Y269930D02*
X168113Y269930D01*
X168113Y268530D01*
X161887Y268530D01*
X161887Y269930D01*
X161887Y274930D02*
X168113Y274930D01*
X168113Y273530D01*
X161887Y273530D01*
X161887Y274930D01*
X156400Y279017D02*
X156400Y285243D01*
X157800Y285243D01*
X157800Y279017D01*
X156400Y279017D01*
X156400Y282272D02*
X157800Y282272D01*
X151400Y285243D02*
X151400Y279017D01*
X151400Y285243D02*
X152800Y285243D01*
X152800Y279017D01*
X151400Y279017D01*
X151400Y282272D02*
X152800Y282272D01*
X146400Y285243D02*
X146400Y279017D01*
X146400Y285243D02*
X147800Y285243D01*
X147800Y279017D01*
X146400Y279017D01*
X146400Y282272D02*
X147800Y282272D01*
X141400Y285243D02*
X141400Y279017D01*
X141400Y285243D02*
X142800Y285243D01*
X142800Y279017D01*
X141400Y279017D01*
X141400Y282272D02*
X142800Y282272D01*
X136400Y285243D02*
X136400Y279017D01*
X136400Y285243D02*
X137800Y285243D01*
X137800Y279017D01*
X136400Y279017D01*
X136400Y282272D02*
X137800Y282272D01*
X131400Y285243D02*
X131400Y279017D01*
X131400Y285243D02*
X132800Y285243D01*
X132800Y279017D01*
X131400Y279017D01*
X131400Y282272D02*
X132800Y282272D01*
X126400Y285243D02*
X126400Y279017D01*
X126400Y285243D02*
X127800Y285243D01*
X127800Y279017D01*
X126400Y279017D01*
X126400Y282272D02*
X127800Y282272D01*
X121400Y285243D02*
X121400Y279017D01*
X121400Y285243D02*
X122800Y285243D01*
X122800Y279017D01*
X121400Y279017D01*
X121400Y282272D02*
X122800Y282272D01*
D12*
X124163Y241293D02*
X155037Y241293D01*
X124163Y241293D02*
X124163Y272167D01*
X155037Y272167D01*
X155037Y241293D01*
X155037Y246469D02*
X124163Y246469D01*
X124163Y251645D02*
X155037Y251645D01*
X155037Y256821D02*
X124163Y256821D01*
X124163Y261997D02*
X155037Y261997D01*
X155037Y267173D02*
X124163Y267173D01*
D13*
X191454Y196531D02*
X197166Y196531D01*
X197166Y192089D01*
X191454Y192089D01*
X191454Y196531D01*
X191454Y195832D02*
X197166Y195832D01*
X197166Y209231D02*
X191454Y209231D01*
X197166Y209231D02*
X197166Y204789D01*
X191454Y204789D01*
X191454Y209231D01*
X191454Y208532D02*
X197166Y208532D01*
X179386Y202881D02*
X173674Y202881D01*
X179386Y202881D02*
X179386Y198439D01*
X173674Y198439D01*
X173674Y202881D01*
X173674Y202182D02*
X179386Y202182D01*
D14*
X151827Y181610D03*
X175393Y181610D03*
X138643Y181610D03*
X115077Y181610D03*
D15*
X96400Y354330D03*
X81400Y354330D03*
X96400Y335280D03*
X81400Y335280D03*
X96400Y316230D03*
X81400Y316230D03*
D16*
X68500Y354330D03*
X58500Y354330D03*
X68500Y335280D03*
X58500Y335280D03*
X68500Y316230D03*
X58500Y316230D03*
D17*
X109220Y218360D03*
X109220Y208360D03*
X97790Y218360D03*
X97790Y208360D03*
X150910Y208360D03*
X150910Y218360D03*
X138290Y208360D03*
X138290Y218360D03*
X162560Y208360D03*
X162560Y218360D03*
D16*
X185500Y241300D03*
X195500Y241300D03*
X222170Y271780D03*
X212170Y271780D03*
D18*
X183180Y290540D03*
X196180Y290540D03*
X184000Y271780D03*
X197000Y271780D03*
X184000Y256540D03*
X197000Y256540D03*
X62080Y295020D03*
X75080Y295020D03*
X64620Y218440D03*
X77620Y218440D03*
D19*
X246930Y702100D02*
X262170Y702100D01*
X262170Y676700D02*
X246930Y676700D01*
X246930Y651300D02*
X262170Y651300D01*
X262170Y625900D02*
X246930Y625900D01*
X246930Y600500D02*
X262170Y600500D01*
X262170Y575100D02*
X246930Y575100D01*
X246930Y549700D02*
X262170Y549700D01*
X262170Y524300D02*
X246930Y524300D01*
X246930Y498900D02*
X262170Y498900D01*
X262170Y473500D02*
X246930Y473500D01*
X246930Y448100D02*
X262170Y448100D01*
X262170Y422700D02*
X246930Y422700D01*
X246930Y397300D02*
X262170Y397300D01*
X262170Y371900D02*
X246930Y371900D01*
X246930Y346500D02*
X262170Y346500D01*
X262170Y321100D02*
X246930Y321100D01*
X246930Y295700D02*
X262170Y295700D01*
X262170Y270300D02*
X246930Y270300D01*
X246930Y244900D02*
X262170Y244900D01*
X262170Y219500D02*
X246930Y219500D01*
X246930Y194100D02*
X262170Y194100D01*
X262170Y168700D02*
X246930Y168700D01*
X246930Y143300D02*
X262170Y143300D01*
X262170Y117900D02*
X246930Y117900D01*
X246930Y92500D02*
X262170Y92500D01*
X262170Y67100D02*
X246930Y67100D01*
D20*
X65370Y643520D03*
X65370Y629020D03*
X76870Y629020D03*
X76870Y643520D03*
D21*
X136250Y645270D03*
X136250Y656270D03*
D18*
X70000Y613410D03*
X57000Y613410D03*
X57000Y659130D03*
X70000Y659130D03*
X137250Y634000D03*
X124250Y634000D03*
X105560Y537210D03*
X92560Y537210D03*
D22*
X202692Y589180D03*
X202692Y576180D03*
D18*
X189330Y628650D03*
X202330Y628650D03*
X103990Y652780D03*
X116990Y652780D03*
X70000Y672290D03*
X57000Y672290D03*
X100480Y551180D03*
X87480Y551180D03*
X100480Y562610D03*
X87480Y562610D03*
D23*
X113230Y519430D03*
X138230Y519430D03*
D22*
X99060Y504040D03*
X99060Y517040D03*
X152400Y504040D03*
X152400Y517040D03*
D24*
X143250Y590000D03*
D25*
X143250Y562500D03*
X138250Y562500D03*
X133250Y562500D03*
X128250Y562500D03*
X123250Y562500D03*
X120750Y557500D03*
X130750Y557500D03*
X135750Y557500D03*
X140750Y557500D03*
X145750Y557500D03*
X148250Y562500D03*
X153250Y562500D03*
X150750Y557500D03*
X155750Y557500D03*
X160750Y557500D03*
X163250Y562500D03*
X168250Y562500D03*
X175750Y562500D03*
X175750Y567500D03*
X170750Y570000D03*
X175750Y572500D03*
X175750Y577500D03*
X175750Y582500D03*
X175750Y587500D03*
X175750Y592500D03*
X175750Y597500D03*
X175750Y602500D03*
X175750Y607500D03*
X175750Y612500D03*
X175750Y617500D03*
X170750Y610000D03*
X170750Y605000D03*
X170750Y600000D03*
X170750Y595000D03*
X170750Y590000D03*
X170750Y585000D03*
X170750Y580000D03*
X163250Y617500D03*
X165750Y622500D03*
X170750Y622500D03*
X160750Y622500D03*
X158250Y617500D03*
X155750Y622500D03*
X153250Y617500D03*
X148250Y617500D03*
X150750Y622500D03*
X145750Y622500D03*
X140750Y622500D03*
X135750Y622500D03*
X133250Y617500D03*
X128250Y617500D03*
X125750Y622500D03*
X123250Y617500D03*
X115750Y622500D03*
X115750Y557500D03*
X115750Y570000D03*
X115750Y575000D03*
X115750Y580000D03*
X110750Y582500D03*
X115750Y585000D03*
X110750Y587500D03*
X115750Y590000D03*
X110750Y592500D03*
X115750Y595000D03*
X110750Y597500D03*
X115750Y600000D03*
X110750Y602500D03*
X115750Y605000D03*
X110750Y607500D03*
X110750Y612500D03*
X110750Y617500D03*
X115750Y565000D03*
X110750Y577500D03*
D22*
X164600Y649850D03*
X164600Y662850D03*
D18*
X137310Y666750D03*
X124310Y666750D03*
X137250Y697000D03*
X124250Y697000D03*
X103274Y615950D03*
X90274Y615950D03*
X73810Y599440D03*
X60810Y599440D03*
X189080Y518160D03*
X202080Y518160D03*
X189080Y530860D03*
X202080Y530860D03*
X189080Y542798D03*
X202080Y542798D03*
D19*
X33570Y702100D02*
X18330Y702100D01*
X18330Y676700D02*
X33570Y676700D01*
X33570Y651300D02*
X18330Y651300D01*
X18330Y625900D02*
X33570Y625900D01*
X33570Y600500D02*
X18330Y600500D01*
X18330Y575100D02*
X33570Y575100D01*
X33570Y549700D02*
X18330Y549700D01*
X18330Y524300D02*
X33570Y524300D01*
X33570Y498900D02*
X18330Y498900D01*
X18330Y473500D02*
X33570Y473500D01*
X33570Y448100D02*
X18330Y448100D01*
X18330Y422700D02*
X33570Y422700D01*
X33570Y397300D02*
X18330Y397300D01*
X18330Y371900D02*
X33570Y371900D01*
X33570Y346500D02*
X18330Y346500D01*
X18330Y321100D02*
X33570Y321100D01*
X33570Y295700D02*
X18330Y295700D01*
X18330Y270300D02*
X33570Y270300D01*
X33570Y244900D02*
X18330Y244900D01*
X18330Y219500D02*
X33570Y219500D01*
X33570Y194100D02*
X18330Y194100D01*
X18330Y168700D02*
X33570Y168700D01*
X33570Y143300D02*
X18330Y143300D01*
X18330Y117900D02*
X33570Y117900D01*
X33570Y92500D02*
X18330Y92500D01*
X18330Y67100D02*
X33570Y67100D01*
D26*
X122350Y81350D03*
D27*
X143850Y81350D03*
X148850Y81350D03*
X153850Y81350D03*
X158850Y81350D03*
X163850Y81350D03*
X138850Y81350D03*
X133850Y81350D03*
X128850Y81350D03*
D26*
X170350Y81350D03*
X114350Y81350D03*
X178350Y81350D03*
D28*
X189550Y75440D02*
X189550Y61860D01*
X103150Y61860D02*
X103150Y75440D01*
D29*
X189550Y32390D02*
X189550Y21310D01*
X103150Y21310D02*
X103150Y32390D01*
D30*
X117450Y63650D03*
X175250Y63650D03*
D19*
X208280Y381000D02*
X223520Y381000D01*
X223520Y355600D02*
X208280Y355600D01*
X208280Y330200D02*
X223520Y330200D01*
X223520Y304800D02*
X208280Y304800D01*
D31*
X71120Y234968D03*
X71120Y278492D03*
D32*
X64300Y141700D03*
X85700Y141700D03*
X64300Y98300D03*
X85800Y98300D03*
D33*
X112300Y103900D03*
X112300Y125300D03*
X155700Y103900D03*
X155700Y125400D03*
D32*
X217180Y97060D03*
X195780Y97060D03*
X217180Y140460D03*
X195680Y140460D03*
D34*
X186050Y47000D03*
X106050Y47000D03*
D35*
X231140Y665480D03*
X231140Y684530D03*
D36*
X53170Y631350D03*
D37*
X113170Y502540D03*
X48260Y705000D03*
X86360Y705000D03*
X99060Y705080D03*
X180340Y705000D03*
X193040Y705000D03*
X205740Y705000D03*
X231140Y705000D03*
X183250Y662540D03*
X138570Y501270D03*
X73660Y705000D03*
X60960Y705000D03*
X218440Y705000D03*
X227330Y71120D03*
X52070Y71120D03*
X167640Y382270D03*
X46990Y334010D03*
X45720Y534670D03*
X45720Y510540D03*
X45720Y486410D03*
X123190Y251460D03*
X182880Y114300D03*
X62230Y204470D03*
X66040Y157480D03*
X113030Y314960D03*
D36*
X81110Y659290D03*
D37*
X69850Y182880D03*
X240792Y232156D03*
X214630Y160020D03*
X233680Y105410D03*
X152400Y167640D03*
D36*
X201930Y564896D03*
D37*
X198120Y505460D03*
X173990Y317500D03*
X173990Y345440D03*
X161290Y362966D03*
X118110Y195580D03*
X109728Y551688D03*
X48260Y604238D03*
D38*
X163250Y620000D03*
X158250Y620000D03*
X153250Y620000D03*
X148250Y620000D03*
X143256Y618744D03*
X137922Y618490D03*
D37*
X107950Y571754D03*
D38*
X113250Y580000D03*
D37*
X95532Y577850D03*
D38*
X113284Y584962D03*
X113250Y590000D03*
D37*
X73660Y579120D03*
X73660Y374650D03*
D38*
X113250Y595000D03*
D37*
X48260Y554990D03*
X47968Y566712D03*
X61189Y584327D03*
X48260Y579120D03*
D38*
X113284Y600000D03*
X113250Y605000D03*
D37*
X48260Y591820D03*
X91440Y606084D03*
X124460Y401896D03*
D38*
X133250Y565000D03*
D37*
X147320Y539750D03*
X78674Y533400D03*
X78740Y519430D03*
X154714Y532064D03*
D38*
X138430Y565150D03*
D37*
X114300Y114300D03*
X154940Y114300D03*
X149860Y464820D03*
X104140Y168628D03*
D38*
X143250Y565000D03*
D37*
X162560Y464820D03*
D38*
X148250Y565000D03*
D37*
X198120Y167640D03*
X158524Y401320D03*
D38*
X153250Y565000D03*
D37*
X179578Y464820D03*
X186944Y617220D03*
D38*
X168250Y610000D03*
D37*
X196088Y617220D03*
D38*
X168250Y605000D03*
D37*
X205232Y617220D03*
X231140Y411480D03*
D38*
X168250Y600000D03*
D37*
X205232Y604012D03*
D38*
X168250Y595000D03*
D37*
X198120Y177800D03*
X231140Y289560D03*
X209069Y407189D03*
D38*
X168250Y590000D03*
D37*
X55880Y185420D03*
X188259Y586785D03*
X73812Y365562D03*
X78740Y502920D03*
X215900Y217170D03*
X188877Y575918D03*
D38*
X168250Y585000D03*
D37*
X210820Y129540D03*
D38*
X168250Y580000D03*
D37*
X176812Y401320D03*
X182118Y485648D03*
X197131Y454633D03*
X167640Y401320D03*
D36*
X180340Y550926D03*
D37*
X66040Y193548D03*
X182880Y101600D03*
X99060Y99060D03*
X196568Y464820D03*
X95250Y278130D03*
X119380Y459740D03*
X188250Y505000D03*
X102494Y617446D03*
X78674Y545818D03*
X210820Y185420D03*
X178006Y619314D03*
X204772Y660400D03*
X213966Y284434D03*
X107140Y345784D03*
X119380Y487680D03*
X193040Y494030D03*
X119380Y477520D03*
X196850Y481330D03*
X125682Y344514D03*
X210820Y193802D03*
X192786Y556006D03*
X233680Y273812D03*
X231140Y214088D03*
X189230Y566066D03*
X198240Y421197D03*
X200660Y317500D03*
X138176Y470408D03*
X231140Y458794D03*
X104140Y271780D03*
X173990Y302260D03*
X101600Y294640D03*
X104140Y233680D03*
X93980Y299720D03*
X120734Y218440D03*
X215900Y259080D03*
X173990Y246296D03*
X215900Y246380D03*
X173990Y236220D03*
X215900Y233680D03*
X159485Y231257D03*
X95250Y265430D03*
X106680Y198120D03*
X114300Y137160D03*
X154940Y137160D03*
X164112Y284904D03*
X161714Y302034D03*
X101600Y247650D03*
X83820Y304800D03*
X127282Y93006D03*
X158552Y93980D03*
X120650Y208280D03*
X88900Y364490D03*
X107763Y355120D03*
X171450Y363502D03*
X125912Y307732D03*
X78740Y325536D03*
X144780Y68580D03*
X170180Y101600D03*
X170180Y190500D03*
M02*
